<svg xmlns="http://www.w3.org/2000/svg" viewBox="0 0 916.81 734.54"><defs><style>.cls-1{fill:none;}.cls-2{fill:#444;}</style></defs><title>アセット 4</title><g id="レイヤー_2" data-name="レイヤー 2"><g id="レイヤー_4" data-name="レイヤー 4"><rect class="cls-1" width="916.81" height="734.52"/><path class="cls-1" d="M582.67,537.83q-2.48,6.4-5.5,12.58l-2.11,4.31,10.05.64.17-1.33a124.82,124.82,0,0,0,1-13.65l.07-3.84.43-10.48-4.06,11.55Z"/><path class="cls-1" d="M619.13,546.21a37.86,37.86,0,0,0-3.14-8.28l-.72-1.39-3-5.14.1,4.44q.12,5.4-.24,10.8l-.5,7.43,4.28.86L621,556l-1.19-6.44C619.65,548.43,619.4,547.32,619.13,546.21Z"/><path class="cls-1" d="M575.37,517.87q.36-3.2.51-6.4l.36-8.18v-16.4L576.07,475l-2.24-8.87c-1-3.79-2.07-7.55-3.33-11.25l-1.8-5.31q-2.34-6.87-5.23-13.53L557,421.11l-9.37-22.89q-2.68-6.56-4.83-13.33l-3.54-11.14-1.08,2.44c-1.29,2.95-2.68,5.84-4.17,8.7l-4,7.6-7.2,12.39-.16,4.6q-.18,4.68.08,9.35l2,36.76L526.93,495l4,52.81,4.38,1.24a76.41,76.41,0,0,0,9.1,2,36.83,36.83,0,0,0,6.21.41l1.35,0c2.82,0,5.64-.22,8.44-.51l5.67-.57,3.51-9.21,1.48-4.24c.8-2.3,1.52-4.64,2.17-7a67.5,67.5,0,0,0,2-10.16Z"/><path class="cls-1" d="M627.92,508.31q-1.21-4.26-2.71-8.41l-3.05-8.44-4.82-13.93.53,18.76.34,8.8q.19,5.13,0,10.25l-.37,10.95,1.88,4.82,1.81,4.35a14.69,14.69,0,0,1,1.06,4.33l.48,5.62c.09,1,.13,2,.13,3v10.81l7,.54,1.61-5.36,1.34-4.56.65-2.26a24,24,0,0,1,2.83-6.31L631.8,522Z"/><path class="cls-1" d="M522.46,379.61a64.1,64.1,0,0,0,3.25-7.75,38.32,38.32,0,0,0,2.07-13.39l-.48-7q-.21-3-.61-5.93l-.06-.43a71.27,71.27,0,0,0-2.3-10.6l-1.88-6.31L518,315.3l1.37,20.12.86,16.69.52,16.17v14.79Z"/><path class="cls-1" d="M523.78,399.11a84.83,84.83,0,0,0,3.91-8.9l.4-1.07,1.73-4.39a71.85,71.85,0,0,0,2.37-7l1-3.47c.3-1.05.56-2.1.8-3.16l.86-3.82-4.89,6.44c-.2.27-.4.55-.58.84a76.73,76.73,0,0,1-6.72,8.81l-1.4,1.59,1.54,16.13Z"/><path class="cls-2" d="M540.5,674.71l-.29-15.2-9.33-111.69-4-52.81-2.21-39.42-2-36.76q-.25-4.66-.08-9.35l.16-4.6-.06-3.81-1.54-16.13-.51-1.87V368.28l-.52-16.17-.86-16.69L518,315.3l-3.35-26.41-4.84-34.11-4-23.37-4.64-24-3.36-13.69-2.28-5.49-5.76-8.65A3.5,3.5,0,0,0,487,178l-9.13-.43L475.34,174a36.1,36.1,0,0,0-6.77-7.3,9.6,9.6,0,0,0-4.1-2,43.45,43.45,0,0,0-10-1l-1,0a85.23,85.23,0,0,0-11.06,1l-8,1.23-12.16,1.65a11.42,11.42,0,0,1-6-.81l-1-.43a20.93,20.93,0,0,1-7.84-5.81,28.79,28.79,0,0,1-3.75-5.7,54.43,54.43,0,0,1-3.1-7.55l-2.36-7.25-3.89-11.92,5.26,8.2q1.22,1.9,2.55,3.73l9.81,13.46-2.22-9.79q-.89-3.94-1.4-7.95l-.38-3a125.54,125.54,0,0,1-1-14.5l-.15-12.15c0-1.38-.07-2.76-.16-4.14l-.79-11.41a13.6,13.6,0,0,0-.56-3l-1.85-6q-.81-2.62-1.88-5.16l-1.82-4.27a68.85,68.85,0,0,0-5.45-10.29l-5.61-8.7c-.71-1.11-1.46-2.2-2.23-3.28l-3.86-5.32a100.37,100.37,0,0,0-8.22-10l-4.11-4.37A78.85,78.85,0,0,0,362.39,23l-1.74-1.41a86.19,86.19,0,0,0-17-10.77,58.72,58.72,0,0,0-7.85-3.1l-3.4-1.07a87.67,87.67,0,0,0-11.75-2.8l-4.14-.69c-2.58-.43-5.19-.74-7.8-.92l-5.56-.38a30.59,30.59,0,0,0-3.83,0l-5.65.38A25.85,25.85,0,0,0,285.76,4l-.31.13a46.57,46.57,0,0,0-9.33,5l-5.72,4-7.95,5.59c-1.09.76-2.22,1.48-3.38,2.14l-6.5,3.72a51.42,51.42,0,0,0-5.08,3.31l-2.26,1.67a10,10,0,0,0-2.16,2.2l-4.28,6-6.94,10.19q-1.35,2-2.83,3.87l-4.35,5.52c-.6.76-1.16,1.55-1.69,2.37L220,64.27a51.36,51.36,0,0,0-4.61,9l0,.07a74.21,74.21,0,0,1-3.35,7.32,56.8,56.8,0,0,1-8.81,12.39L201,95.49l-2,2.06a67.87,67.87,0,0,1-7.46,6.72,18.41,18.41,0,0,1-3.69,2.21h0a37,37,0,0,1-6.63,2.26l-3.06.74-15.8,3.63H172c1.68,0,3.35-.06,5-.18l2.25-.16a68.66,68.66,0,0,0,12.57-2l3.86-1q2.89-.75,5.73-1.75l1.23-.43a73.71,73.71,0,0,0,9.22-4l3-1.57-1,17.87-1.24,15.53c-.21,2.6-.31,5.21-.31,7.81v9.22a60.64,60.64,0,0,1-.59,8.41l-1,6.95a60.48,60.48,0,0,1-1.46,7.18l-1.48,5.57a52,52,0,0,1-1.62,5L201,199.37l9.76-20.81a60.63,60.63,0,0,0,3.17-8.36l2.87-9.69,2.47-9.86c.43-1.71.79-3.45,1.09-5.19l1-5.69a75.48,75.48,0,0,0,.89-7.79l0-.48,4.23,13.26a82.67,82.67,0,0,0,3.47,9l4.16,9.17c.9,2,1.72,4,2.44,6.11l3.28,9.36q1.08,3.08,2,6.21l5.07,18.11v-10.6a98.93,98.93,0,0,0-.72-11.92L244.49,167l4.15,17.61,3.62,14.25-1.94-17.92a100.78,100.78,0,0,0-2-11.71l-2.29-10,7,11.39,1.23,1.81a67.9,67.9,0,0,0,5.82,7.38h0a17.19,17.19,0,0,0,4,3.28l.45.27a46.21,46.21,0,0,1,5.69,3.95l1.57,1.27a10.45,10.45,0,0,1,2,2.18,13.1,13.1,0,0,1,2,4.67,34.36,34.36,0,0,1,.68,4.3l0,.3q.29,3,.28,5.94h0a31,31,0,0,1-1,7.91l-.2.78a4.7,4.7,0,0,0-.12.51l-.29,1.63a3.54,3.54,0,0,0,.16,1.88,5.11,5.11,0,0,0,1.35,2,13.38,13.38,0,0,0,4.39,2.67l3.6,1.32c1.15.42,2.3.8,3.47,1.14l7.06,2.08,4.4,3.36,6.48,2.08,5.44,3.1,1.9.32a19.45,19.45,0,0,1,2.37.57l1.93.62a38.74,38.74,0,0,1,5.07,2l2.14,1c1.25.6,2.47,1.26,3.65,2h0a32.33,32.33,0,0,1,6.2,4.84,1.52,1.52,0,0,0,.73.41,12.22,12.22,0,0,0,3.86.22h0a1.62,1.62,0,0,0,1.07-.55,40.4,40.4,0,0,0,5.06-7.36l1-1.83a15.27,15.27,0,0,1,1.87-2.72l.68-.8a26.65,26.65,0,0,1,2.92-2.9,7.63,7.63,0,0,1,4.13-1.76,7.2,7.2,0,0,1,4.75,1.17l.39.26a30.66,30.66,0,0,1,3.95,3.15l.31.29a36.63,36.63,0,0,1,4.54,5.17l0,.05h0a38.5,38.5,0,0,1-1,15.33l-.77,2.8-3.63,13L363,277.52a30.31,30.31,0,0,0-1.11,6,41.94,41.94,0,0,0-.06,6.34,48.93,48.93,0,0,1-.34,9.68,34,34,0,0,1-2.58,9.17l-.95,2.18a61,61,0,0,0-2.95,8.29l-.81,2.94a63.69,63.69,0,0,0-1.41,6.41L352,333.3a9.44,9.44,0,0,0-.08,2.6h0a7.16,7.16,0,0,0,.53,2,28.12,28.12,0,0,0,2.81,5.06l.15.2-1.3,24.35-4.4,44-4,37.43c-.28,2.68-.5,5.37-.63,8.06l-1.35,26.27-.81,8.06c-.32,3.26-.76,6.51-1.29,9.74l-2.05,12.25,2.56,4a149.41,149.41,0,0,1,9.77,17.59l4,8.49,6,13.73-5.39,21.36q-1.33,5.32-3,10.55l-8.67,26.89L340,632a94.57,94.57,0,0,1-4.11,11.17L328.42,660l-10.88,22.8-5.35,10.53q-2.16,4.23-4.08,8.58a41.91,41.91,0,0,1-2.08,4.06l-5.38,28.61H542.53l-.27-29.72Z"/></g></g></svg>