<svg xmlns="http://www.w3.org/2000/svg" viewBox="0 0 916.81 734.57"><defs><style>.cls-1{fill:none;}.cls-2{fill:#444;}</style></defs><title>アセット 5</title><g id="レイヤー_2" data-name="レイヤー 2"><g id="レイヤー_4" data-name="レイヤー 4"><rect class="cls-1" width="916.81" height="734.52"/><path class="cls-1" d="M582.7,537.86q-2.48,6.4-5.51,12.58l-2.11,4.31,10.06.64.17-1.33a122.37,122.37,0,0,0,1-13.65l.08-3.84.43-10.48-4.07,11.55Z"/><path class="cls-1" d="M619.16,546.24A38.37,38.37,0,0,0,616,538l-.73-1.39-3-5.14.1,4.44q.11,5.4-.25,10.8l-.49,7.44,4.28.85,5.13,1.07-1.19-6.44C619.67,548.46,619.43,547.35,619.16,546.24Z"/><path class="cls-1" d="M575.4,517.9q.36-3.2.5-6.4l.36-8.17V486.92L576.1,475l-2.24-8.87c-1-3.79-2.07-7.55-3.33-11.25l-1.81-5.31q-2.33-6.87-5.22-13.53L557,421.14l-9.37-22.89q-2.68-6.56-4.83-13.33l-3.55-11.14-1.07,2.44q-1.94,4.42-4.17,8.7l-4,7.6-7.2,12.39-.17,4.6q-.16,4.68.08,9.35l2,36.76L527,495l3.95,52.81,4.38,1.24a76.41,76.41,0,0,0,9.1,2,36.83,36.83,0,0,0,6.21.41l1.35,0q4.23-.08,8.44-.51l5.66-.57,3.52-9.21,1.47-4.24c.81-2.3,1.53-4.63,2.18-7a67.5,67.5,0,0,0,2-10.16Z"/><path class="cls-1" d="M627.94,508.34q-1.2-4.26-2.7-8.41l-3-8.43-4.83-13.93.54,18.75.34,8.8q.19,5.13,0,10.25l-.36,11,1.87,4.82,1.82,4.35a14.69,14.69,0,0,1,1.06,4.33l.48,5.62c.08,1,.13,2,.13,3v10.81l7,.54,1.61-5.36,1.34-4.55.65-2.27a24,24,0,0,1,2.83-6.31L631.83,522Z"/><path class="cls-1" d="M522.48,379.64a62.59,62.59,0,0,0,3.26-7.75,38.32,38.32,0,0,0,2.07-13.39l-.48-7q-.21-3-.62-5.93l-.05-.43a71.27,71.27,0,0,0-2.3-10.6l-1.88-6.31L518,315.33l1.38,20.13.86,16.68.52,16.17V383.1Z"/><path class="cls-1" d="M523.81,399.14a87,87,0,0,0,3.91-8.9l.4-1.07,1.73-4.39c.9-2.3,1.7-4.65,2.37-7l1-3.47c.29-1,.56-2.1.8-3.16l.86-3.82L530,373.73c-.2.27-.4.55-.59.84a75.45,75.45,0,0,1-6.72,8.82l-1.4,1.58,1.55,16.13Z"/><path class="cls-2" d="M899.85,731.65c-.12-2.59-.34-5.18-.67-7.75l-.4-3.15c-.39-3.1-.91-6.17-1.54-9.23l-3-14.66c-.69-3.33-1.51-6.64-2.47-9.9L887,670.62l-7.51-24.87-9.07-27.46-13.21-39.38-3.7-11.27q-1.49-4.53-2.53-9.18l-4.13-18.41-5.7-32.38-12.18-55.44-7.51-39.63L814.52,382a18.29,18.29,0,0,0-.94-3l-7.91-19.39a51.72,51.72,0,0,0-4.54-8.66l-9-13.76-7.48-10.76a2.21,2.21,0,0,0-2.21-.89l-6.63,1.28L759,313.9,748.19,305a106,106,0,0,0-13.87-9.64l-10-5.84L706.67,280l.81-10.1a27.85,27.85,0,0,0-.14-5.7l-.52-4.06a22.4,22.4,0,0,0-1.71-6.16l-1.55-3.55c-.52-1.18-1.07-2.36-1.66-3.51l-6.37-12.52-4.65-10.43a67.93,67.93,0,0,0-7-12.09L682.58,210l-2.34-8.92c-.34-1.3-.74-2.59-1.21-3.86h0a74.7,74.7,0,0,0-6-12.72l-4.85-8.16a54.36,54.36,0,0,0-4.86-6.91l-4.2-5.08a65.92,65.92,0,0,0-6.36-6.69l-4.49-4.13a61.34,61.34,0,0,0-9.79-7.32l-5.55-3.35a74.15,74.15,0,0,0-8.73-4.49l-5.35-2.31c-2.23-1-4.51-1.81-6.82-2.56l-10.14-3.26c-.6-.19-1.2-.36-1.81-.51l-8.24-2a76.45,76.45,0,0,0-9.26-1.67l-3.7-.43a48.65,48.65,0,0,0-5.52-.32H571.5a41.34,41.34,0,0,0-8.81,1l-.45.1a41.49,41.49,0,0,0-6.8,2.11l-2.89,1.17a17.66,17.66,0,0,0-3.9,2.21l-5.82,4.37a39.87,39.87,0,0,0-3.25,2.71l-2.87,2.65a60.88,60.88,0,0,0-4.85,5l-5.23,6.14L518.08,158,514,160.49a37.69,37.69,0,0,0-6.33,4.92l-1.54,1.48a46.47,46.47,0,0,0-3.81,4.12h0a23.73,23.73,0,0,0-4.25,7.86l-.19.58-2.33,8.81-5.76-8.64a3.45,3.45,0,0,0-2.72-1.54l-9.13-.44L475.37,174a36.1,36.1,0,0,0-6.77-7.3,9.6,9.6,0,0,0-4.1-2,43.48,43.48,0,0,0-10.05-1l-1,0a83.52,83.52,0,0,0-11.05,1l-8,1.22-12.17,1.65a11.4,11.4,0,0,1-6-.81l-1-.43a21.12,21.12,0,0,1-7.85-5.8,29.62,29.62,0,0,1-3.75-5.71,55.64,55.64,0,0,1-3.09-7.55l-2.36-7.25-3.89-11.92,5.26,8.21q1.22,1.89,2.55,3.72l9.81,13.46-2.22-9.79q-.88-3.94-1.4-7.95l-.39-3a127.8,127.8,0,0,1-1-14.5l-.15-12.15c0-1.38-.07-2.76-.17-4.14l-.78-11.41a13.07,13.07,0,0,0-.57-3l-1.84-6a53.11,53.11,0,0,0-1.89-5.16l-1.81-4.27a68.85,68.85,0,0,0-5.45-10.29l-5.61-8.7c-.72-1.11-1.46-2.2-2.24-3.27l-3.85-5.33a100.37,100.37,0,0,0-8.22-10l-4.12-4.37A77.63,77.63,0,0,0,362.42,23l-1.75-1.41a85.82,85.82,0,0,0-17-10.77,58.33,58.33,0,0,0-7.86-3.1l-3.39-1.06a86.55,86.55,0,0,0-11.75-2.81l-4.14-.69c-2.58-.43-5.19-.74-7.8-.92l-5.57-.38a30.43,30.43,0,0,0-3.82,0l-5.65.38A26.14,26.14,0,0,0,285.79,4l-.31.13a47.08,47.08,0,0,0-9.33,5l-5.72,4-7.95,5.59c-1.09.76-2.22,1.48-3.38,2.14l-6.5,3.72a50.27,50.27,0,0,0-5.08,3.31l-2.26,1.67a10,10,0,0,0-2.16,2.2l-4.28,6-6.94,10.19q-1.35,2-2.83,3.87l-4.35,5.52c-.6.76-1.17,1.56-1.69,2.37l-2.94,4.6a52.46,52.46,0,0,0-4.62,9l0,.07a73.17,73.17,0,0,1-3.35,7.32,56.8,56.8,0,0,1-8.81,12.39L201,95.52l-2,2.06a67.07,67.07,0,0,1-7.47,6.72,17.87,17.87,0,0,1-3.69,2.21h0a37.48,37.48,0,0,1-6.62,2.27l-3.06.73-15.8,3.63h9.66c1.68,0,3.35-.06,5-.18l2.26-.16a68.66,68.66,0,0,0,12.57-2l3.86-1c1.93-.51,3.84-1.09,5.72-1.76l1.24-.43a72.94,72.94,0,0,0,9.21-4L215,102l-1,17.87-1.24,15.53c-.21,2.6-.31,5.21-.31,7.81v9.23a60.61,60.61,0,0,1-.59,8.4l-1,6.95a60.48,60.48,0,0,1-1.46,7.18l-1.49,5.57a52,52,0,0,1-1.61,5L201,199.4l9.75-20.81a59.42,59.42,0,0,0,3.18-8.36l2.87-9.69,2.47-9.85c.43-1.72.79-3.46,1.09-5.2l1-5.69a70.35,70.35,0,0,0,.89-7.79l0-.48,4.23,13.26a82.67,82.67,0,0,0,3.47,9L234.1,163c.9,2,1.72,4,2.44,6.1l3.28,9.36c.71,2.05,1.37,4.12,2,6.21l5.08,18.11v-10.6a98.93,98.93,0,0,0-.72-11.92L244.52,167l4.15,17.61,3.62,14.25L250.34,181a98.68,98.68,0,0,0-2-11.71l-2.3-10,7,11.4,1.23,1.81a70.08,70.08,0,0,0,5.81,7.38h0a17.2,17.2,0,0,0,4,3.28l.45.27a45.36,45.36,0,0,1,5.68,4l1.58,1.27a10.73,10.73,0,0,1,2,2.18,13.1,13.1,0,0,1,2,4.67,34.65,34.65,0,0,1,.68,4.3l0,.3q.28,3,.28,5.94h0a31,31,0,0,1-1,7.91l-.21.78c0,.17-.08.34-.11.51l-.3,1.63a3.65,3.65,0,0,0,.17,1.88,5.22,5.22,0,0,0,1.35,2,13.53,13.53,0,0,0,4.39,2.66l3.6,1.32c1.15.42,2.3.8,3.47,1.14l7.05,2.08,4.41,3.36,6.47,2.08,5.44,3.11,1.91.31a19.45,19.45,0,0,1,2.37.57l1.92.62a38.32,38.32,0,0,1,5.08,2l2.13,1c1.25.59,2.47,1.25,3.66,2h0a32,32,0,0,1,6.2,4.85,1.59,1.59,0,0,0,.73.4,12.47,12.47,0,0,0,3.85.23h0a1.68,1.68,0,0,0,1.08-.56,40.4,40.4,0,0,0,5.06-7.36l1-1.82a15.47,15.47,0,0,1,1.86-2.73l.69-.8a25.8,25.8,0,0,1,2.92-2.9,7.56,7.56,0,0,1,4.13-1.76,7.16,7.16,0,0,1,4.74,1.17l.4.26a30.66,30.66,0,0,1,3.95,3.15l.3.29a36.62,36.62,0,0,1,4.55,5.17l0,.05h0a38.68,38.68,0,0,1-1,15.33l-.77,2.8-3.63,13L363,277.55a29.6,29.6,0,0,0-1.11,6,41.94,41.94,0,0,0-.06,6.34,49.71,49.71,0,0,1-.34,9.68,34.41,34.41,0,0,1-2.58,9.17L358,310.9a59.66,59.66,0,0,0-2.95,8.29l-.81,2.94a63.69,63.69,0,0,0-1.41,6.41l-.8,4.79a9.84,9.84,0,0,0-.07,2.6h0a7.15,7.15,0,0,0,.52,2,28.79,28.79,0,0,0,2.82,5.06l.14.2-1.29,24.36-4.4,44-4,37.43q-.44,4-.64,8.06l-1.34,26.27-.81,8.06q-.49,4.89-1.3,9.74l-2,12.25,2.56,4a149.41,149.41,0,0,1,9.77,17.59l4,8.49,6,13.73-5.39,21.36q-1.35,5.32-3,10.55L344.77,616,340,632a93.93,93.93,0,0,1-4.11,11.17L328.45,660l-10.88,22.8-5.36,10.53c-1.43,2.82-2.79,5.69-4.07,8.58a41.29,41.29,0,0,1-11.79,15.41l-1.83,1.49-11.14-22,5.92-14.62q2.88-7.14,6.28-14.06l3.08-6.29-10-11.51q-5.3-6.1-10.09-12.62l-11.79-16-14-21.24L240.12,581.5,235.45,554l-3.63-22.5c-.17-1.06-.38-2.11-.62-3.15l-2.51-10.53a39.86,39.86,0,0,0-2.9-8.14l-.2-.41a13.22,13.22,0,0,0-5.39-5.74,43.84,43.84,0,0,0-4.87-2.38l-5-2.07V468.3l1-1.33A8.88,8.88,0,0,1,214,464.5l.43-.25a30.46,30.46,0,0,1,6-2.66l4.1-1.32,8.81-2.85,4-1.38a4.71,4.71,0,0,0,2.81-2.65,4.81,4.81,0,0,0,.35-2.4l-.74-7c-.28-2.6-.67-5.2-1.18-7.77l-2.32-11.74c-.36-1.86-.68-3.73-.93-5.61l-.72-5.26q-.45-3.31-1.17-6.6l-2.39-11-2.34-9.79a5.45,5.45,0,0,0-2.35-3.31,7.76,7.76,0,0,0-3.92-1.22l-3-.09a52.24,52.24,0,0,0-5.87.14l-5,.41a15.08,15.08,0,0,1-3.29-.09l-1.37-.19a13.4,13.4,0,0,1-5-1.74,8.35,8.35,0,0,1-3.17-3.34l-.36-.7a53,53,0,0,1-3.23-7.56l-3.27-9.65c-.39-1.15-.83-2.28-1.32-3.4l-1.42-3.23a80.14,80.14,0,0,0-6-11.22h0a70.2,70.2,0,0,0-6.59-8.67l-5.44-6.1,6.74-.3q3.21-.15,6.41-.58l5-.67-7.09-1.42c-1.92-.38-3.81-.84-5.69-1.37l-7.37-2.08-5.75-5.09-3.51-3.39A36.32,36.32,0,0,0,151,306.8a40.57,40.57,0,0,0-9.78-4.46l-2.13-.64a42.64,42.64,0,0,0-4.46-1.09l-13.28-2.52c-1.3-.25-2.6-.44-3.92-.58l-8.07-.83a52.38,52.38,0,0,0-5.6-.29H98.49c-1,0-1.93,0-2.9.08l-1,.06a44.86,44.86,0,0,0-10,1.75A56.61,56.61,0,0,0,75.28,302L72.2,303.5c-1.44.72-2.86,1.49-4.24,2.31a57.41,57.41,0,0,0-11.14,8.66l-1.61,1.62h0a38.5,38.5,0,0,0-11.8,3.68A42,42,0,0,0,32.1,328a50.06,50.06,0,0,0-5.8,7.18L24,338.65a70,70,0,0,0-4.05,6.9L19,347.36c-1.11,2.17-2.12,4.39-3,6.65a57.86,57.86,0,0,0-3,10.3,67,67,0,0,0-1.19,9.88l-.21,4.75v7.74c0,1.63,0,3.26.14,4.88l.18,3.07a108.49,108.49,0,0,0,1.31,11.5l.15.85c.43,2.56,1,5.09,1.66,7.59l.38,1.43c.7,2.59,1.53,5.15,2.48,7.65L21,431.71c.82,2.15,1.73,4.27,2.74,6.34l5,10.3a59.89,59.89,0,0,0,3.2,5.76L37.54,463c1.15,1.83,2.4,3.6,3.73,5.31l3,3.87c.79,1,1.55,2.07,2.28,3.13l4.66,6.81,2.88,36.75,3.33,35.77c.14,1.53.33,3,.55,4.57l3.65,24.28,2.84,23.19c.17,1.36.3,2.73.37,4.11l1.87,32.43c.15,2.68.2,5.36.13,8l-.67,27.54c-.08,3.15-.3,6.31-.68,9.44L64,700.71c-.25,2.1-.56,4.19-1,6.26L60.9,718.54q-.6,3.24-1.42,6.44L57,734.57H81.8l.88-9.62a119.17,119.17,0,0,0,.45-13.89l-.26-9.42-.66-17.92L80,657.38l-5.09-41.17L69.37,579l-5.09-37.19-3.75-40.45q-.45-4.92-.45-9.86V483l4.55,2.28q2.09,1,4.26,1.89l.5.2a42.88,42.88,0,0,0,4.93,1.59l6.12,1.57-.88,8.81c-.28,2.84-.43,5.68-.43,8.53v7.84c0,2.67.09,5.35.27,8l.66,9.72c.12,1.85.2,3.7.21,5.55l.16,16.5.93,19.46L83,596.32c.12,1.56.3,3.11.53,4.66l2.8,18.44,4.27,20.76L93.78,658l2,14.45a30.16,30.16,0,0,0,.73,3.67l2.33,9q.72,2.74,1.17,5.54a83.74,83.74,0,0,1,1.11,12.65l.1,8.28-.33,23h9.84l.32-16-.15-15.91q0-3.91-.37-7.82l-.51-6q-.27-3.12-.73-6.22l-2.32-15.62-4.08-20.58-5.19-21.72q-.73-3.12-1.7-6.17l-4.42-14.15a34,34,0,0,1-1.42-7.27l-.66-7.73a59.13,59.13,0,0,1-.18-7.53L90.07,562l1.23-15.72q.44-5.6,1.4-11.14l2.37-13.57c.62-3.57,1.4-7.12,2.32-10.62l4-15.13h11.5c1.85,0,3.69-.08,5.54-.24l3.72-.32,4.18-.15a13.46,13.46,0,0,1,2,.08l1.54.17a11.73,11.73,0,0,1,4.61,1.52h0a18.8,18.8,0,0,1,4.14,3.29L142,503.7a19.73,19.73,0,0,1,2.56,3.34l2.05,3.38-.38,6.08c-.12,1.88-.18,3.76-.18,5.65v3.66l-3.33,3.34V533l-4.39,7.18c-1.15,1.89-2.4,3.71-3.72,5.47l-4.42,5.86a108,108,0,0,0-7,10.47l-8.5,14.58,10.38,16.68v21.51l-1,21.51c-.08,1.84-.23,3.69-.45,5.53l-2.09,17.63-1.29,12.23-1.57,22q-.28,4-.2,8l.28,13.6,1,19.31H542.55l-.26-29.72-1.76-30.11-.29-15.2,6.24-2.32q4-1.49,8.07-2.7l8.84-2.63a15.61,15.61,0,0,1,1.67-.4l12-2.18-.54,10.25c0,.57,0,1.14,0,1.71v20.55a60.5,60.5,0,0,0,.88,10.32l.21,1.18q.38,2.17.87,4.32l1.86,8.08q1.16,5,2.76,9.82l1.25,3.73q1.23,3.71,2.73,7.3l1.42,3.42,1.72,4.58h9.53l-1.84-6.05a77.56,77.56,0,0,1-2.35-10.08l-1.5-9.21L592.48,699a69.37,69.37,0,0,1-.79-10.48V685.7c0-2.63.11-5.26.33-7.87l.84-10.11.88-16.66,14.07,3.39q1.71.4,3.45.72l16.09,2.91L625,690.23l-1.18,19c-.18,2.94-.26,5.88-.22,8.83l.21,16.53H900ZM520.24,352.14l-.86-16.68L518,315.33l4.48,12.9,1.88,6.31a71.27,71.27,0,0,1,2.3,10.6l.05.43q.4,3,.62,5.93l.48,7a38.32,38.32,0,0,1-2.07,13.39,62.59,62.59,0,0,1-3.26,7.75l-1.72,3.46V368.31Zm2.42,31.25a75.45,75.45,0,0,0,6.72-8.82c.19-.29.39-.57.59-.84l4.89-6.44-.86,3.82c-.24,1.06-.51,2.12-.8,3.16l-1,3.47c-.67,2.39-1.47,4.74-2.37,7l-1.73,4.39-.4,1.07a87,87,0,0,1-3.91,8.9l-1,2L521.26,385ZM571,536.91l-1.47,4.24-3.52,9.21-5.66.57q-4.21.44-8.44.51l-1.35,0a36.83,36.83,0,0,1-6.21-.41,76.41,76.41,0,0,1-9.1-2l-4.38-1.24L527,495l-2.21-39.42-2-36.76q-.24-4.67-.08-9.35l.17-4.6,7.2-12.39,4-7.6q2.24-4.28,4.17-8.7l1.07-2.44,3.55,11.14q2.14,6.76,4.83,13.33L557,421.14l6.48,14.94q2.89,6.65,5.22,13.53l1.81,5.31c1.26,3.7,2.37,7.46,3.33,11.25L576.1,475l.16,11.88v16.41l-.36,8.17q-.14,3.21-.5,6.4l-.22,1.86a67.5,67.5,0,0,1-2,10.16C572.57,532.28,571.85,534.61,571,536.91Zm15.38-.34-.08,3.84a122.37,122.37,0,0,1-1,13.65l-.17,1.33-10.06-.64,2.11-4.31q3-6.16,5.51-12.58l.08-.22,4.07-11.55ZM615.94,555l-4.28-.85.49-7.44q.36-5.4.25-10.8l-.1-4.44,3,5.14L616,538a38.37,38.37,0,0,1,3.14,8.28c.27,1.11.51,2.22.72,3.35l1.19,6.44Zm17.88-7.33-.65,2.27-1.34,4.55-1.61,5.36-7-.54V548.46c0-1,0-2-.13-3l-.48-5.62a14.69,14.69,0,0,0-1.06-4.33l-1.82-4.35-1.87-4.82.36-11q.18-5.12,0-10.25l-.34-8.8-.54-18.75,4.83,13.93,3,8.43q1.5,4.15,2.7,8.41l3.89,13.7,4.82,19.28A24,24,0,0,0,633.82,547.63Z"/></g></g></svg>