<svg xmlns="http://www.w3.org/2000/svg" viewBox="0 0 994.37 1259.46"><defs><style>.cls-1{fill:#283c5f;}</style></defs><title>char-2</title><g id="レイヤー_2" data-name="レイヤー 2"><g id="レイヤー_2-2" data-name="レイヤー 2"><path class="cls-1" d="M0,1259.46l3-3.24a48.9,48.9,0,0,1,5.58-5.09h0a58.44,58.44,0,0,1,8-5.22l.52-.28a56.82,56.82,0,0,1,7.32-3.35l8.24-3.09,14.68-4.9A121.1,121.1,0,0,0,64.73,1227h0a10.42,10.42,0,0,0,4.73-5h0a44,44,0,0,0,2.88-8.68l1.85-8.39q2-9.27,4.84-18.34l10-32.24,9-28.8q3.78-12.12,6.34-24.58L119,1029.27l12.55-52.76a264.63,264.63,0,0,0,5.74-33.79l3.6-34.66q1-9.84,1.25-19.73l1.27-53.57L142,776.55l.29-58.69a244.35,244.35,0,0,0-1.75-30.47l-1-7.89a213,213,0,0,0-3.83-22L133.31,647l-3-10.93q-1.86-6.72-3.27-13.55l-3.48-16.83L119,636.11,116.6,657q-.94,8.07-1.21,16.2l-.86,26-.28,29.73q-.09,10.08.7,20.13l.65,8.35A217.55,217.55,0,0,0,120,787.13L122.42,798l9,36-8-13a266,266,0,0,1-14-25.82l-.65-1.38q-3.19-6.72-5.93-13.65l-.34-.86a131.41,131.41,0,0,1-6.35-21l-.39-1.85a93.91,93.91,0,0,1-1.58-10.15l-.63-6.3a118.94,118.94,0,0,1-.55-14.74v0a106.67,106.67,0,0,1,1.36-14.37l2.58-15.77-9.76,13.15-4.59,6.33a127.49,127.49,0,0,1-14,16.2L58.21,740.88,34.55,763l13.14-20.28,4.16-6.15a71.67,71.67,0,0,0,7.4-14.05h0a151.57,151.57,0,0,0,8-28l1.86-10,5.63-39,6-35.89c.48-2.86.88-5.74,1.2-8.62l2.52-22.34-9.21,12.57q-3.18,4.34-6.6,8.48l-.69.84A142.78,142.78,0,0,1,46.11,622L42,625.22a132.91,132.91,0,0,1-10.84,7.71l-12,7.68,11.21-16.67a157.48,157.48,0,0,0,9-15.23l6.43-12.41,7.86-14a77.09,77.09,0,0,0,4.62-9.82h0A121.74,121.74,0,0,0,66,538.68l1.18-14.1,6.38-63.84,3.46-35.17q.68-6.88,1.77-13.72l7-43.69q1.29-8.06,3.08-16l6.88-30.49A202,202,0,0,1,102.3,299l10.35-29.44,10.11-24.7a181,181,0,0,1,16.71-31.55l4.62-7a131.37,131.37,0,0,1,21.36-24.81l.41-.37a148.65,148.65,0,0,1,14.47-11.53l14.94-10.46,11-16.13a179.79,179.79,0,0,1,11-14.49l4.36-5.17a108.75,108.75,0,0,1,17.44-16.6L250.63,98a105,105,0,0,1,11.44-7.59l14.31-8.22,12-19.61q1.56-2.53,3.26-5L295.51,52a60.9,60.9,0,0,1,8.63-9.93l11.42-10.59a100.87,100.87,0,0,1,9.2-7.58l4.51-3.3a60.72,60.72,0,0,1,9.66-5.74L349,10.06a89.58,89.58,0,0,1,14.44-5.4L365.68,4A97.54,97.54,0,0,1,384.17.73L388,.42a128.59,128.59,0,0,1,20.11,0h0a96.2,96.2,0,0,1,19.33,3.47l3.78,1.09A67.5,67.5,0,0,1,448,12.35l14.67,9,18.58,12.23a184,184,0,0,0,23.1,12.93h0L511,43.06c1.3-.68,2.57-1.4,3.83-2.16L521,37.16A69.41,69.41,0,0,1,534.07,31l5.55-1.94q2.63-.93,5.31-1.66l7.44-2a75.58,75.58,0,0,1,13-2.34h0a50.71,50.71,0,0,1,11.55.27l3.29.46a31.05,31.05,0,0,1,8.58,2.49l4.38,2q8,3.64,15.69,8l10.74,6.14L641,54.81l9.58.17a69.4,69.4,0,0,1,22.23,4.07h0a83.74,83.74,0,0,1,17.26,8.53l4,2.6A70.54,70.54,0,0,1,705,78.81l7.77,7.54L725,98.59a111.79,111.79,0,0,1,11.91,14.06l17.16,24,27.79,33.8,12.66,13.9a127.37,127.37,0,0,1,11.83,15.15l7.22,10.82q3.21,4.82,6,9.91l5.38,10a55.51,55.51,0,0,1,3.43,7.68l7.19,20q1.9,5.29,3.51,10.69l11.91,40.05h0a404.44,404.44,0,0,1,27.76,62.43l4.91,14.17,8.19,27.14q5,16.41,8.53,33.19l5,23.25q3.48,16.31,5.92,32.8l6.16,41.56q1.92,12.91,2.91,25.95l3.13,41.05L925,654.64q.62,16.38.21,32.79l-.79,32.94a509.23,509.23,0,0,1-4.53,56.53l-4.42,32.32L926,870.05l13.52,64.22,12.77,59,9.39,50.7,8.63,62.71,4,29.49a314.82,314.82,0,0,1,2.79,41.84v.86a251.44,251.44,0,0,1-4.1,45.25h0q-1.53,8.36-3.55,16.61l-3.24,13.15,28.17,4.88Zm789-90-8.11-19.88q-2.76-6.76-4.83-13.77l-5.2-17.6q-1.85-6.26-3.33-12.6l-5.88-25.21h0a25.71,25.71,0,0,1-10.08-5.08l-1.49-1.23.56,13.5q.14,3.33.45,6.64l1.44,15.27,2.1,16.83,1.8,10.26q.66,3.77,1.56,7.49l1.55,6.45,2.53,2a69,69,0,0,0,9.51,6.38l4.44,2.47Zm156.92,69.8,2.5-41.49,2.14-50.15q.36-8.36.25-16.7l-.4-31.15-.74-29.13q-.25-9.87-1.15-19.69l-3.6-39.67-2-19.39q-.95-9.11-2.46-18.15l-3.09-18.54a302,302,0,0,0-7.81-34.38l-6.09-21-15-47-1.18,13.58q-.82,9.42-2.4,18.75l-3.92,23.17-6.5,36.5-5,38.5,3.41-67.39q.58-11.6,2.24-23.12l7.85-54.49-15-80-14.5-75.5-5.91-42.17q-1.59-11.33-2.26-22.74l-3.33-56.58-4,56-2.18,55.32q-.32,8.17-.14,16.35l1.82,83.32,6.5,94,6.5,60L872,939.8A370.41,370.41,0,0,0,884,1000.7l1.89,6.56h0a138,138,0,0,1,22.32,7.91l.18.09h0a34,34,0,0,1,.05,8l-.43,3.91a25.37,25.37,0,0,1-3.55,10.39h0a93.38,93.38,0,0,0-7,14l-4.09,10.22,7.34,35.62q2.65,12.89,6.13,25.56l8,29.32,9.72,33.62q2.28,7.88,5,15.62l4,11.49a141.48,141.48,0,0,0,12.3,26.26Zm-61.09-220.66,3.63,18.48.83-1.06a39.58,39.58,0,0,0,4.72-7.65h0a9.29,9.29,0,0,0,.87-3.19v-.06a4.1,4.1,0,0,0-1.17-3.25h0a10.43,10.43,0,0,0-6.28-3Zm-140-8.57-.37,4.45c-.06.8-.1,1.6-.1,2.39V1020a40.78,40.78,0,0,0,1.07,9.28l1.29,5.52,1.16,5.1A9.28,9.28,0,0,0,750,1044h0a5.29,5.29,0,0,0,1.91,1.4l1.44.61a9,9,0,0,0,4.5.69l1-.1.61-14.55c0-.85,0-1.69,0-2.54l-.63-18.92-2.18-2.18a7.24,7.24,0,0,0-1.94-1.39h0a9.16,9.16,0,0,0-7.41-.35h0A3.92,3.92,0,0,0,744.88,1010Zm1.38-17.46a16.72,16.72,0,0,1,7.28-.17h0l-2.44-11.46-2.93-18.06L746,992.62Zm166-199.4,2-55.4,2-66.18,1.47-41.67v-21a189.35,189.35,0,0,0-1.15-20.76l-1.7-15.25q-1.08-9.69-2.93-19.28l-4-20.81L902,504.9l-9.58-45q-1.7-8-4.1-15.79l-9.36-30.44-5.23-19.29c-.76-2.82-1.65-5.61-2.65-8.36l-9.77-26.76,4.29,29.24q1.09,7.53,1.53,15.12l1.53,27.7,1,39.22,2,34.32L876,555.39l5.39,57.35,6.86,48,6.87,45.59,5.18,34.8a226.2,226.2,0,0,0,4.48,22.33Zm-469-762.73-5.22-2a127.51,127.51,0,0,0-13-4.09h0a87.22,87.22,0,0,0-12.34-2.24h0a143.13,143.13,0,0,0-27.38-.37L383,22a78,78,0,0,0-11.76,1.87h0a84,84,0,0,0-20.66,8h0q-2.16,1.17-4.21,2.51l-12.44,8.08L319.08,52.9c-1,.71-1.95,1.47-2.87,2.28h0a70.12,70.12,0,0,0-13.1,15.43l-1.82,2.92,5.61-1.64a40.46,40.46,0,0,0,6-2.26L327,63l25.72-12.31,14-7.36a113,113,0,0,1,13.78-6.11h0a79.6,79.6,0,0,1,15.94-4l2.72-.39a151,151,0,0,1,18.15-1.54l5.37-.14Zm-337,1186.05a249.66,249.66,0,0,0,36-12.63l13.1-5.76,5.58-26.34a233.34,233.34,0,0,0,4-26.42l1.53-16.37-5.77-.82a3.38,3.38,0,0,1-1.33-.51h0a15.07,15.07,0,0,1-5.34-6.28h0a13,13,0,0,1-.84-2.49l-1.1-4.75-7.42,16.24L135,1153.08l-15.31,30.15-15.77,33.87Zm153.55-86.73a163.84,163.84,0,0,0,24.49-15.83l7.49-5.84,2.09-13.73a282.07,282.07,0,0,0,3.24-39.58l.23-20.92,1.11-32.89q.28-8.4,0-16.81l-1.07-27.32-5.1,32.47-5.68,37.9q-1.27,8.5-3,16.92l-4.26,20.33q-2.32,11.14-5.61,22.07l-.4,1.36a221.59,221.59,0,0,1-11.56,30.28l-6.57,14Z"/></g></g></svg>