<svg xmlns="http://www.w3.org/2000/svg" viewBox="0 0 1077 1277.27"><defs><style>.cls-1{fill:#283c5f;}</style></defs><title>char-1</title><g id="レイヤー_2" data-name="レイヤー 2"><g id="レイヤー_1-2" data-name="レイヤー 1"><path class="cls-1" d="M1077,1276.47l-47-26-14.21-8a211.59,211.59,0,0,0-22.21-10.8L969,1221.47l-16.77-7.57a236.82,236.82,0,0,1-27.5-14.67L901,1184.47l-13.26-9.18a256.23,256.23,0,0,1-24.33-19.11l-4.19-3.73a12,12,0,0,0-5.11-2.7h0a42.76,42.76,0,0,0-10.38-1.28H835l-4.85-4a242.67,242.67,0,0,1-24.64-23.67h0a107.19,107.19,0,0,1-13.15-18l-1.49-2.54a267.62,267.62,0,0,1-12.52-24.21h0a120.5,120.5,0,0,1-7-19.76L767,1039.47l-3.22-12.87a13.26,13.26,0,0,0-2.93-5.54h0a36.22,36.22,0,0,0-14.08-9.75h0a49.91,49.91,0,0,1-9.07-4.61L725,998.47l-1.29-25.15a189.07,189.07,0,0,1,.6-27.65l.69-7.2,6.75,17.26a101.79,101.79,0,0,0,5.17,11.17l6.88,12.78q4.2,7.79,9,15.21l3,4.66q5.14,7.92,10.91,15.41l4.24,5.51-6.09-30.41a175.67,175.67,0,0,1-3.33-29.46l-.16-5.74a218.58,218.58,0,0,1,1.32-30.69l2.26-19.7,24,25,22,23,13,13-3.33-19.4A185.88,185.88,0,0,1,818,914.65V901.47l19,25,8,11L840.22,921a177.55,177.55,0,0,1-5.93-29.6l-1.54-13.5a190.81,190.81,0,0,1-1-31l.74-14.77q.48-9.69,1.74-19.32L836,799.47l9.16,15.28q5.83,9.72,12.58,18.84l4.63,6.26q5.63,7.62,11.84,14.77L888,870.47l8,9h0a159.09,159.09,0,0,1-12.45-48l-2.55-26-2.48-42.1q-.53-8.89-.52-17.81V716.47l3.76,4a126,126,0,0,0,25.17,20.7h0a17.8,17.8,0,0,0,4.4,2l1.92.58a181.76,181.76,0,0,0,32.09,6.54l5.36.59c3.53.4,7.07.69,10.62.89l12.68.7-12.16-8.1A46.37,46.37,0,0,1,951.57,735l-2.7-3.32a95.09,95.09,0,0,1-10.23-15.45l-2.39-4.53q-2.25-4.25-4.15-8.67l-1.1-2.58,9.11,3.19a142.49,142.49,0,0,0,22.25,5.82h0a65.53,65.53,0,0,0,11.36,1h0a114.44,114.44,0,0,0,26.2-3l4.08-1-13-12-15.77-15.18a234.23,234.23,0,0,1-20.94-23L937.9,635.64q-4.9-6.17-9.4-12.63L917,606.47l-11-63-5.71-33.41Q899,502.47,897.18,495l-3.89-16a187.62,187.62,0,0,0-8.55-26.46L879,438.47l-10-27h0A101.06,101.06,0,0,0,894.44,422h0a96.56,96.56,0,0,0,19.42,3l2.93.16c4.13.21,8.28.22,12.41,0l10-.48c3.21-.15,6.42-.47,9.61-.94L964,421.47l-10-2.08a101.34,101.34,0,0,1-26.68-9.59h0a111.38,111.38,0,0,1-12.19-7.43l-8.82-6.17a168.12,168.12,0,0,1-27.91-24.56l-6-6.65-2.62-3a184.16,184.16,0,0,1-27.4-41.2l-1.24-2.54q-2.62-5.41-5.6-10.66l-10.7-18.84A242.22,242.22,0,0,0,811,267.25l-13.41-18.71-16.82-22.1q-5.34-7-11.1-13.69h0A188.76,188.76,0,0,0,740,185h0a111.65,111.65,0,0,0-20.76-12.31h0a156.92,156.92,0,0,1-32.79-20.06h0a23.94,23.94,0,0,0-3.81-2.48l-23.85-12.58a97.57,97.57,0,0,0-13-5.67l-5.92-2.09a15.46,15.46,0,0,0-4.46-.86l-4.36-.2a12,12,0,0,0-5.55,1.06L622.85,131a20.13,20.13,0,0,0-6,4.15h0c-2.88,2.88-5.89,5.65-9,8.28l-1,.83L596,137.37q-5.62-3.56-11-7.49l-1.29-.95A104.13,104.13,0,0,0,551.63,113h0a103.92,103.92,0,0,0-18.5-3.67l-3.62-.39a234.55,234.55,0,0,0-31.36-1.21h0a141.64,141.64,0,0,0-29,3.85L450.86,116l-24.77,5.22-30.83,7.71q-7.41,1.84-14.66,4.2l-17.38,5.62q-4.91,1.59-9.68,3.59l-5.07,2.13a105.74,105.74,0,0,0-22.23,12.7l-12.85,9.59q-2.44,1.81-5,3.5l-12.66,8.32-18.68,11.73-5,3.27a66.89,66.89,0,0,0-17.41,16.64h0a52.77,52.77,0,0,1-4.21,5.1h0a54,54,0,0,1-9.42,8l-11.78,7.86-3.5-5.3a90.19,90.19,0,0,1-7.7-14.33h0A127.68,127.68,0,0,1,212,193.77h0a54.68,54.68,0,0,1-1.68-16.46v-.2a133.36,133.36,0,0,1,3.25-23.19h0A148.76,148.76,0,0,1,221.32,130l11.29-26.9,11.1-24.71a112.74,112.74,0,0,1,6-11.49l4.41-7.38a124.06,124.06,0,0,1,11.25-15.87h0a81.11,81.11,0,0,1,13-12.48L280,29.87a87.68,87.68,0,0,1,22.7-12.57h0a110.26,110.26,0,0,1,10.68-3.37l5.43-1.41a93.63,93.63,0,0,1,12.86-2.4l3.57-.41a136.68,136.68,0,0,1,15.67-.9h8.66l10.95.28a38.27,38.27,0,0,1,4.9.43l7,1.06a23.46,23.46,0,0,1,3.72.9l1.6.53A56.84,56.84,0,0,1,399,17.15l8.45,5.08-7.87-8.59a39.36,39.36,0,0,0-7.82-6.57h0a39.24,39.24,0,0,0-17.55-6L370.46.7c-3.58-.33-7.18-.52-10.78-.57L350.9,0A82.52,82.52,0,0,0,330,2.39l-7.44,1.84q-6,1.48-11.91,3.38L290.79,14q-5.19,1.67-10.21,3.81L267,23.6l-20.57,9.68a129.3,129.3,0,0,0-16.66,9.41l-3.65,2.43a154.83,154.83,0,0,0-13.36,10l-2.5,2.09a98.88,98.88,0,0,0-10.95,10.71h0a130.64,130.64,0,0,0-8.57,10.92L183.65,89a158,158,0,0,0-15.58,27.77l-6.35,14.57-4.6,11a65.72,65.72,0,0,0-4.49,16.4h0a34.59,34.59,0,0,0-.2,7.81h0a51.92,51.92,0,0,0,3.65,15h0a83.69,83.69,0,0,0,8,15l10,14.93,7.22,9.62a178.81,178.81,0,0,0,13.31,15.78l1.25,1.33a101.85,101.85,0,0,1,6.94,8.15l1.22,1.59L186.87,261.1a120.36,120.36,0,0,0-9.3,7.89l-2,1.89a182.64,182.64,0,0,0-18,19.45h0A174.88,174.88,0,0,0,141.13,315h0a122.69,122.69,0,0,0-7.25,15.71l-2.78,7.37-9.64,28.22-9.15,9a162,162,0,0,1-17.12,14.59l-6.85,5.06a179.48,179.48,0,0,1-16.22,10.7l-7.66,4.48q-6.3,3.67-12.87,6.91l-2.25,1.11A124.47,124.47,0,0,1,24,427.34l-.93.23L0,426.19l4.45,2.18a165,165,0,0,0,25.66,10h0A46.74,46.74,0,0,0,41,440.22h0a177.92,177.92,0,0,0,32.13-1.38l1.61-.22A49.65,49.65,0,0,0,85.33,436h0a57,57,0,0,0,9.87-4.74L107,424.13l-9.4,26.12a154.59,154.59,0,0,0-5,16.86l-5.2,22.05-4.05,21.43q-1.8,9.54-2.75,19.19l-.54,5.42Q78.8,548,78.63,560.86l-.1,8.43q-.07,5.9.28,11.78l.33,5.39a158.56,158.56,0,0,0,3,22.65h0a165.58,165.58,0,0,0,4.54,17.24l5,15.49a240.81,240.81,0,0,0,11.14,28.39l8,17.13,16.51,31.31.16,7.71a149.53,149.53,0,0,1-.92,19.62h0a84.12,84.12,0,0,1-5.69,22.32h0A72.85,72.85,0,0,1,112.8,783h0a40.62,40.62,0,0,1-6.16,6.87h0a143.59,143.59,0,0,1-12.17,9.69l-6.73,4.78,21-8.66a133.94,133.94,0,0,0,15.9-7.83h0a54,54,0,0,0,13.71-11.29l5.78-6.63.48,1.45a142.91,142.91,0,0,1,5.39,23h0a81.44,81.44,0,0,1,.86,13.78h0A72,72,0,0,1,148.53,825h0a51,51,0,0,1-3.42,9.27h0a57.69,57.69,0,0,1-6.41,10.34l-5.88,7.56,9-5.64a144.89,144.89,0,0,0,24-18.79h0l1.29-2.12a141.9,141.9,0,0,0,9.72-19.22h0L187.53,825l11.68,18.11a62.45,62.45,0,0,0,4.55,6.17h0a151.41,151.41,0,0,0,17.93,18.06l4,3.43L231.18,890l3.91,15c.91,3.49,2,7,3.18,10.35l2.78,7.85a163.88,163.88,0,0,0,6.63,16h0a141.38,141.38,0,0,0,14.16,23.48h0q3.23,4.35,6.75,8.46l4.05,4.73q5.63,6.55,11.83,12.58l7.88,7.62,12.76,13.21L318.75,1022l7.06,6.6q6.58,6.16,13.69,11.71l2.27,1.78a113.53,113.53,0,0,1,9,7.82l8.91,8.61,12.76,13.65,4.42,4.58a136.48,136.48,0,0,1,13.62,16.54h0a170,170,0,0,1-24.61,18.87l-15.43,9.73-18.89,11q-2.24,1.3-4.35,2.8l-12.85,9.07-7.31,5.4a31.64,31.64,0,0,0-5.1,4.71l-3.89,4.48a29.85,29.85,0,0,0-4.36,6.6l-5.3,10.93-6.68,15.2c-.83,1.9-1.6,3.81-2.31,5.76h0a142.15,142.15,0,0,0-5.92,21l-2.25,11.26-20.69,8.8-5.32,2.3a470.91,470.91,0,0,1-49.34,18.16h0a135.85,135.85,0,0,1-24.94,5.14l-19.41,2.12-16.73,2.35q-8.36,1.17-16.6,3l-23.88,5.24Z"/></g></g></svg>