<svg xmlns="http://www.w3.org/2000/svg" viewBox="0 0 973.28 1191.99"><defs><style>.cls-1{fill:#283c5f;}</style></defs><title>char-3</title><g id="レイヤー_2" data-name="レイヤー 2"><g id="レイヤー_3" data-name="レイヤー 3"><path class="cls-1" d="M152.94,1191.86l6.64-3.68a227.93,227.93,0,0,1,24-11.58l10.72-4.41,21.37-9.5,25.79-12.56,20.16-9.19.94-8.33q1.69-15,2.15-30.08l.43-14.4.34-28.75c.06-5.77,0-11.55-.36-17.31l-1.3-24.8-5.72,29-2.49,12.45q-1,5.14-2.35,10.24l-.93,3.56a203.15,203.15,0,0,1-10.1,29.46l-1.86,4.31q-3,6.87-6.34,13.54l-12,23.7,4.72-14.16q2.76-8.28,4.92-16.75l2.68-10.46,3.22-15.81a170.33,170.33,0,0,0,2.88-20.49l.78-9.78q.6-7.61.6-15.25V983.49a184.55,184.55,0,0,0-1-19.52l-2-19.31L233.9,969q-1.72,8.65-4.18,17.13l-8.11,28.05-9.24,29,20.24,43.13-.65-.84a187.91,187.91,0,0,1-15.46-23.24l-6.77-12-1,2.28A119.62,119.62,0,0,1,197,1074.07h0a149.35,149.35,0,0,1-14.74,18.16l-8.64,9.1,8.17-11.62a38.72,38.72,0,0,0,5.07-10.07h0c1.15-3.43,2.15-6.92,3-10.44l2.67-11,.05-.23a256.5,256.5,0,0,0,4.11-31.48l.68-10.1-9.24-29.48-5-17q-3.3-11.14-5.61-22.55l-4.58-22.65q-1.48-7.32-2.55-14.7l-6-41-10.12-57.66-7-46.64-3.69,15.79a201.9,201.9,0,0,0-3.8,21.43l-1.52,12.5q-1.56,12.76-2,25.62l-1.5,38.87a87.16,87.16,0,0,0,.27,11h0a185.47,185.47,0,0,0,10.85,48.32l1.44,3.86-8.51-12.43a52.65,52.65,0,0,1-5-9.08h0a126,126,0,0,1-6.57-20l-1-4.17a231.64,231.64,0,0,1-4.28-23.24l-1.18-8.86a228.42,228.42,0,0,1-2-32l.29-29.7,1.76-49.73,4-71.29L118.64,666q-6.6-16.63-11.53-33.87l-7.4-25.9L89.58,562.67l-7-33-4,38.12A232.36,232.36,0,0,0,77.26,592v13q0,11.87,1,23.72L79.48,643A317.73,317.73,0,0,0,88,693.79l7.33,29.07L85.94,705.3a227.2,227.2,0,0,1-14-32h0c-.55-1.6-1.06-3.2-1.53-4.82l-4.9-16.86a130.52,130.52,0,0,1-3.62-16.22l-4.42-27.86-4.91,30a163.71,163.71,0,0,0-2.13,26.34v10.78a168.28,168.28,0,0,0,1,18.77L54,715.84a97.4,97.4,0,0,0,2.81,14.69h0A204.79,204.79,0,0,0,78.14,781h0L68,772.86a143.71,143.71,0,0,1-17.92-17.05h0a56.29,56.29,0,0,1-8.87-13.5h0A205.75,205.75,0,0,1,27,701l-2.13-9.29a173.74,173.74,0,0,1-3.7-23.35L18.68,640a281.14,281.14,0,0,1-.76-38.61L19.11,577a340.56,340.56,0,0,1,4-38.1l4.76-29.14q2.72-16.61,7-32.89l10.2-38.3,5.78-19.4A342.45,342.45,0,0,1,66.86,376.3l2.48-5.51L82.1,344,70,341.12a5.75,5.75,0,0,1-2-.9h0A41.84,41.84,0,0,1,57,328.85h0c-.89-1.38-1.74-2.78-2.55-4.22h0a70,70,0,0,1-7.18-18.74h0a81.28,81.28,0,0,1-1.94-15.61l-.23-8.82-.44-13.65L35,277.93l-2.9,3.21a53.38,53.38,0,0,0-8.87,13.42L17.49,307c-1.22,2.65-2.34,5.36-3.33,8.11l-2.45,6.77A78.61,78.61,0,0,0,7.29,342l-.11,1.22a74.69,74.69,0,0,0,.68,18.11l1.61,10a46.39,46.39,0,0,0,3.12,10.84h0a45.22,45.22,0,0,0,11.46,16h0a10.63,10.63,0,0,0,1.82,1.31h0a70.26,70.26,0,0,0,22.35,8.24h0L43,410.5A22.42,22.42,0,0,1,32.6,413h0a14.88,14.88,0,0,1-8.44-2.62h0a27.42,27.42,0,0,1-5.71-5.26h0A61.38,61.38,0,0,1,9.6,390.63h0a102,102,0,0,1-5.72-17.31l-1-4.11a99,99,0,0,1-2.35-15.5l-.32-4.44a99,99,0,0,1-.1-12.42L.84,324.2a78.73,78.73,0,0,1,1.3-10.59L3.41,307a104.48,104.48,0,0,1,6.53-21.3l.52-1.21a49.74,49.74,0,0,1,7.93-12.74h0a97.52,97.52,0,0,1,25.43-21.08h0A139.67,139.67,0,0,1,45,218.22l0-.36a162.88,162.88,0,0,1,4-18.68l5.88-21.32q2.15-7.74,4.85-15.31l3-8.33A89.1,89.1,0,0,1,69.31,140l4.79-8.32c.93-1.63,1.94-3.21,3-4.76l6.4-9.21a68.62,68.62,0,0,1,6.61-8.13l3.08-3.23a118.54,118.54,0,0,1,22.31-18.38l11.92-7.58,16.12-10.46a167.13,167.13,0,0,1,18.6-10.46L172,54.68q4.31-2.07,8.73-3.84l15.93-6.37a65,65,0,0,1,17.07-4.27l19.21-2.1a60.82,60.82,0,0,1,8.21-.35l14.81.34,1.43-5.5A28.52,28.52,0,0,1,261.22,24h0a37.28,37.28,0,0,1,3.93-4.93l3.21-3.4A26.77,26.77,0,0,1,273,11.75l5.44-3.63a26.47,26.47,0,0,1,5.49-2.78l5.4-2a40.62,40.62,0,0,1,10.08-2.3l8.8-.86a40.8,40.8,0,0,1,8.12,0l2.83.27A26,26,0,0,1,331.48,5h0a38,38,0,0,1,8,7.49h0a30.16,30.16,0,0,1,5.27,10l.43,1.42a27.39,27.39,0,0,1,1.19,9.3L346,41.08a89.6,89.6,0,0,1-1.62,13.26l-3,15c-.94,4.7-1.65,9.45-2.12,14.22l-.61,6,15.4-2.2,28.61-3.08,22.88-3.08,20.16-3.47A130.35,130.35,0,0,1,441.85,76l16.36-.72q5.44-.24,10.89,0l23.6,1.08,2.52-.74a107.75,107.75,0,0,1,22.68-4l7.81-.53,15.06-.41a10.26,10.26,0,0,1,2.41.23h0a78,78,0,0,1,23.35,9.46l.49.3a60.82,60.82,0,0,1,12.08,9.66h0a150,150,0,0,1,14.28,17.14l4.5,6.3,6.41-2.56c1.59-.64,3.17-1.33,4.72-2.07l3.76-1.8a19.73,19.73,0,0,1,8.51-1.93h0a42.27,42.27,0,0,1,10.26,1.27l3.44.85a61.77,61.77,0,0,1,7.5,2.41l5.84,2.31a68.27,68.27,0,0,1,17.33,10h0a127,127,0,0,0,19.68,12.86l.68.35a98.59,98.59,0,0,1,9.16,5.49l.61.42a89.87,89.87,0,0,1,19.74,18.15h0a89.52,89.52,0,0,1,10.32,16.07l3.62,7.26,4.78,3a128.18,128.18,0,0,1,15.17,11l4.25,3.61a112.51,112.51,0,0,1,10.77,10.4l4.69,5.17a106.27,106.27,0,0,1,13,17.75l7.07,12.09q4.06,7,7.53,14.24l5.46,11.45a154.82,154.82,0,0,1,7.37,18.47l8.37,25.63c1.45,4.47,2.71,9,3.75,13.57l6.79,29.66,16.73,77.45,19.36,80.1,18.48,95.94L894.94,685l7.7,55.46q1.1,7.9,1.57,15.89l2.69,45q.36,6,.36,12.06V840c0,3.17-.09,6.33-.28,9.5l-1.48,25.43q-.43,7.66-1.45,15.28l-4.1,31q-1.05,8-2.86,15.88l-.66,2.86a202.17,202.17,0,0,1-10,31.41l-4.7,11.48a157.8,157.8,0,0,1-9.25,18.88l-3.11,5.39.84,3.09a232.73,232.73,0,0,0,7.39,22.49l5.41,14h0a153.83,153.83,0,0,0,26.29,31.65l1,.92-7-3.27a66.42,66.42,0,0,1-11.68-7h0a120.45,120.45,0,0,1-12.9-11.19l-1.6-1.6a136.25,136.25,0,0,1-9.64-10.74l-6.82-8.48a157.15,157.15,0,0,1-9.23-12.72l-8.9-13.66,4.86,16.4a155.63,155.63,0,0,0,8.8,22.84h0a161.75,161.75,0,0,0,11,19.35l11,16.67L865,1071q-3.48-3.95-6.59-8.2h0a112.59,112.59,0,0,1-9.31-15.12l-2.71-5.3q-2.91-5.68-5.27-11.63l-6.44-16.22q-2.21-5.57-4-11.29l-4.47-14.45q-1.25-4-2.27-8.12l-4.26-17-.88,19.81-.74,22.28q-.13,4.13.14,8.24l1.61,23.4c.21,3.07.51,6.13.92,9.18l3.35,25.35,1.53,9.35a129.93,129.93,0,0,0,6.26,23.84h0a135.29,135.29,0,0,0,8.8,19.2l8.06,14.51,11,4.4,37,16.28,41.61,16.28q9,3.52,17.67,7.79l17.29,8.5Zm681.61-55.61-8.74-14.57q-4.65-7.76-8.83-15.79l-1.37-2.64a302,302,0,0,1-13.18-29l-5.09-13L796.1,1058a191.79,191.79,0,0,1-9.71-37l-1.95-12.29-1.76,8.78a104.06,104.06,0,0,0-2,17.34l0,1a107.48,107.48,0,0,0,.51,14.13l.56,5.45q.71,6.85,1.92,13.63l2.23,12.52q1.51,8.48,3.74,16.82h0a116.47,116.47,0,0,0,4.23,12.86l3,7.58,9.66,4.83q7.21,3.6,14.62,6.78Zm-70.45-35.73-5.24-18.17q-2.21-7.62-3.91-15.37l-4.74-21.53-14.39,20.84v16.37l4,4.46a69.91,69.91,0,0,0,9.74,9l.81.62a29.05,29.05,0,0,0,5,3l9.76,4.68Zm-25.3-78.38L728.87,974l1,36.22.49,44.15,2.57-7.9a161.58,161.58,0,0,0,5.87-24.34Zm-25.31,37.7L705.16,1029q-1.59-5.87-2.84-11.83l-3.16-15q-1.54-7.34-2.6-14.77l-4.4-30.77L689.32,935q-1.12-8.64-1.62-17.34l-2-35L682,918.08q-.72,6.81-1.06,13.66l-1.65,33.34-.5,35.72v21.83l3.7,5.24a194.28,194.28,0,0,0,18,21.93l.59.61.5,8.44h0a36,36,0,0,1,11.75,1ZM851.58,569.4v25.66q0,10.58-.66,21.13l-1.84,29.43L846,693.72l-2.24,35.06q-.88,13.66-.54,27.37l.91,36.9v46.23l1.15,28.42a306.89,306.89,0,0,0,3.5,35.42l2.85,18,6.24,36.24,5,24.36,7.66-17q3.59-8,6.6-16.19l3.11-8.47a277.41,277.41,0,0,0,8.72-28.33l1.14-4.55a270.67,270.67,0,0,0,5.35-27.35L896,876q1.23-8.58,1.91-17.23l.37-4.77A325.24,325.24,0,0,0,899,817l-.13-3.64q-.46-13.47-2-26.87l-2-16.73q-1.46-12.34-3.8-24.58l-9.53-49.62-9.36-51.5q-1.89-10.35-4.33-20.59l-7.55-31.62-8.12-28.74ZM270.29,37.79a47.53,47.53,0,0,1,12.44,0l2.47.32a109.28,109.28,0,0,1,11.2,2.09l8.11,2c1.36.33,2.71.7,4,1.12l4.39,1.37a27.7,27.7,0,0,1,12.53,8.18h0a32.83,32.83,0,0,1,4.22,6.1l3,5.67c.77,1.42,1.47,2.88,2.11,4.36l2.29,5.35,1-17.71q.06-1,.06-1.92V35a56.19,56.19,0,0,0-.36-6.35h0a37.34,37.34,0,0,0-3.48-12h0a9.52,9.52,0,0,0-2.94-3.54h0A33.47,33.47,0,0,0,322,8.22h0a7,7,0,0,0-1.2-.29h0a35.52,35.52,0,0,0-10.14,0h0a30.6,30.6,0,0,0-7.95,2.31l-3.49,1.55-2.61,1.31A59.52,59.52,0,0,0,283.56,22h0a58.92,58.92,0,0,0-7.84,8.56l-5.43,7.24Zm19,1086.52a72.9,72.9,0,0,0,11.64-8.75h0l3.67-5.88a59.39,59.39,0,0,1,5.67-7.63l8.43-9.64,10.75-13.64-2.63-13.46q-1.08-5.57-1.88-11.18l-3.34-23.74-4.55-35.14-6.62,33.08-7.83,33.48q-1.26,5.39-2.86,10.67l-7.19,23.79q-2,6.48-4.44,12.77l-8.27,21Z"/></g></g></svg>