<svg xmlns="http://www.w3.org/2000/svg" viewBox="0 0 1189.22 92.13"><defs><style>.cls-1{fill:#fff;}</style></defs><title>アセット 8</title><g id="レイヤー_2" data-name="レイヤー 2"><g id="レイヤー_5" data-name="レイヤー 5"><path class="cls-1" d="M62.12,63c.9-1.2,2.2-1.3,3.5-.3l5.5,4.8a2.12,2.12,0,0,1,.6,2.3l-.1.3a2.87,2.87,0,0,1-2.3.9H50.42c-.9,0-1.21.3-1.21,1.2v17.1c0,1.2-2.5,2.8-4.79,2.8h-.61a.68.68,0,0,1-.69-.7V72.23c0-.9-.31-1.2-1.2-1.2H23.61a2.31,2.31,0,0,1-2.5-2l-.1-.2c-.1-1.3.5-2,1.8-2H41.92c.89,0,1.2-.3,1.2-1.2V36.73c0-3.3-.7-3.5-2.41-.5a104.53,104.53,0,0,1-38.5,37.9,1.33,1.33,0,0,1-1.9-.4,1.23,1.23,0,0,1,.3-1.9A114,114,0,0,0,37,29.13c.6-1.2.2-1.7-1.1-1.7H4.11a2.31,2.31,0,0,1-2.5-1.9l-.1-.2c-.5-1.3,0-2.1,1.6-2.1H41.92c.89,0,1.2-.3,1.2-1.2V2.73c0-1.9,1-2.8,2.89-2.6l4.11.5c1.7.2,2.7,1.5,1.8,2.7a3.56,3.56,0,0,1-1.8,1.2c-.6.3-.91.6-.91,1.2V22c0,.9.31,1.2,1.21,1.2h26.7c.4,0,.6-.2.9-.5l2.9-3.5a2.54,2.54,0,0,1,3.6-.4c1.6,1.3,4,3.2,6,5.1l.2.1a1.7,1.7,0,0,1,.4,2.3,3,3,0,0,1-2.5,1.1H54c-1.4,0-1.7.5-1,1.8,9.1,15.9,24.8,30.6,39.5,37.8a1.28,1.28,0,0,1,.6,1.4v.2a1.93,1.93,0,0,1-1.4,1.1,6.89,6.89,0,0,0-3.1,1.9c-1.2,1.2-2.6,1.9-4.3.8-12.7-8.5-24.5-22-32.61-38.5-1.79-3.5-2.5-3.3-2.5.6v31.1c0,.9.31,1.2,1.21,1.2h8.2a1.09,1.09,0,0,0,.9-.4Z"/><path class="cls-1" d="M100.91,41.43a1.27,1.27,0,0,1-.6-1.8c3.5-8.5,6-19.8,7.3-31.1.2-2,1.3-2.8,3.1-2.4l3.9.8c1.6.3,2.3,1.5,1.6,2.7l-.2.2a3,3,0,0,1-1.6.8,1.44,1.44,0,0,0-1,1c-.5,2.8-1.1,5.3-1.8,8-.3,1.1.1,1.6,1.2,1.6h3.7c.9,0,1.2-.3,1.2-1.2V2.63c0-1.9,1-2.8,2.9-2.6l3.9.4c1.8.2,2.7,1.5,1.8,2.8l-.1.2a3.07,3.07,0,0,1-1.6.9c-.6.3-1,.6-1,1.3V20c0,.9.3,1.2,1.2,1.2h.9a1.23,1.23,0,0,0,1-.5c.7-.9,1.5-1.8,2.3-2.9a2.46,2.46,0,0,1,3.8-.3c1.5,1.1,3.1,2.7,5,4.3a1.9,1.9,0,0,1,.4,2.6,3,3,0,0,1-2.3.9h-11.1c-.9,0-1.2.3-1.2,1.2v19c0,1.1.5,1.5,1.6,1.1l6.4-2.3,5.1-1.9h.2a1.42,1.42,0,0,1,1.6.7.76.76,0,0,1,.1.4,1.44,1.44,0,0,1-.9,1.7l-3.3,1.6-10.1,5.1a1.17,1.17,0,0,0-.7,1.1v36.2c0,1.2-2.4,2.8-4.5,2.8h-.6a.71.71,0,0,1-.8-.7V57c0-1.3-.5-1.7-1.8-1.1-2.9,1.5-6.1,3.1-9.3,4.6a1.21,1.21,0,0,0-.5.5l-.5,1a1.08,1.08,0,0,1-.4.5,1.36,1.36,0,0,1-2-.9l-1.9-3.9c-.8-1.7-.3-3.2,1.7-3.7,3.6-1.1,8.3-2.7,13.9-4.6a1.08,1.08,0,0,0,.8-1.1V26.53c0-.9-.3-1.2-1.2-1.2h-5.8a1.08,1.08,0,0,0-1.1.8,73.49,73.49,0,0,1-6.8,14.9,1.13,1.13,0,0,1-1.7.4Zm39.3,45.1a1.52,1.52,0,0,1-1.8-.2,1.23,1.23,0,0,1,0-1.9c17.51-15.7,26.71-36.1,30.21-59,.1-1-.2-1.4-1.2-1.4h-5.5a1.11,1.11,0,0,0-1.2.9c-4.9,17.5-14.6,32.6-29,43.3l-.3.1a1.51,1.51,0,0,1-1.7-.1l-.2-.2a1.51,1.51,0,0,1,.2-1.9,83.37,83.37,0,0,0,24-40.6c.3-1.1,0-1.5-1.1-1.5h-7.41c-.5,0-.7.2-1,.6a58.19,58.19,0,0,1-13.3,15.6l-.2.1c-.6.5-1.2.5-2-.1a1.19,1.19,0,0,1-.1-1.8c7.6-8.8,14.31-21.2,18-36.1.39-1.8,1.59-2.4,3.3-1.9l4.4,1.3c1.6.4,2.3,1.8,1.2,2.8a7.22,7.22,0,0,1-2,.9,1.37,1.37,0,0,0-1,.8,90.64,90.64,0,0,1-4.7,11.9c-.61,1.3-.31,1.8,1.1,1.8h32.5a1.23,1.23,0,0,0,1-.5l1.3-1.4c1.4-1.4,2.5-1.5,3.8-.4l3.6,3.1c1.1,1,1.3,2.3.1,3.1l-.2.1a5.73,5.73,0,0,1-1.4.4c-.6.2-1,.5-1,1.2-1.6,31.9-5,55.4-10.6,61.6a14.37,14.37,0,0,1-9.6,4.8h-.2c-1.6.3-2.3-1-2.8-2.3a4.63,4.63,0,0,0-1.3-1.8l-.2-.2a35.13,35.13,0,0,0-9-2.2,1.81,1.81,0,0,1-1.6-1.7v-.2a1.38,1.38,0,0,1,1.7-1.3c4.8.5,11.9,1.3,14.1,1.3s3.1-.3,4.4-1.5c4.6-4.2,7.7-26.9,9.3-56.7.1-.9-.3-1.3-1.2-1.3h-4.9a1.12,1.12,0,0,0-1.2,1c-4.3,25.1-14.7,46.4-35,61.4Z"/><path class="cls-1" d="M245.12,18.63c1-.4,1-.4,1.2-.6a.1.1,0,0,0,.1-.1,6.31,6.31,0,0,1,3-.9,3.56,3.56,0,0,1,3.4,3.3c0,2-2.3,3.3-3.61,4-2.79,1.5-8.7,3.5-15,5a.86.86,0,0,0-.8.8c-3.5,11.2-10.8,29.2-19,40.7-1.2,1.7-2.2,3.1-4.2,3.1s-2.7-2.1-2.7-3.8a8.51,8.51,0,0,1,1.7-4.8c5.5-7.6,14-20,18.4-32.9.4-1.3.1-1.8-1.3-1.6-1.9.1-3.7.2-5.6.2-6.8,0-10.4-2.5-13.7-8.6a1.6,1.6,0,0,1,.4-2.3,2.13,2.13,0,0,1,2.3-.1l.2.2c3.2,3.2,5.7,4.8,12,4.8a49.13,49.13,0,0,0,7.4-.8,1.06,1.06,0,0,0,.9-.9,74.08,74.08,0,0,0,1.6-10.2c.1-1.6-.2-2.1-1.6-2.8H230a31,31,0,0,0-3.6-1,1.56,1.56,0,0,1-1.4-1.7,1.69,1.69,0,0,1,1.4-1.9,22.17,22.17,0,0,1,4.4-.6,14.13,14.13,0,0,1,7,1.6c1.61,1.1,1.3,2.7-1.6,13.6-.4,1.3.3,1.9,1.6,1.4a52.34,52.34,0,0,0,7.11-3.1Zm17.4,46.1a1.07,1.07,0,0,0,.9,1,50.65,50.65,0,0,1,15.3,7.3c4.3,2.9,6.2,5.8,6.2,8.1,0,1.9-.7,3.3-2.4,3.3-1.3,0-2.4-.9-3.9-2.4l-.8-.8a38.41,38.41,0,0,0-13.3-8.7c-1-.4-1.4-.1-1.3.9a11.56,11.56,0,0,1,.1,1.7c0,8.4-6.2,13.6-16.2,13.6-10.41,0-15.91-5.2-15.91-11.1,0-8.1,8.1-13.2,21.31-13.2h3.2c1.1.1,1.4-.3,1.3-1.4l-.2-1.6a87.4,87.4,0,0,1-.6-9.9c0-5.7,1.7-9.4,5-12.7,2.8-2.7,6.6-4.1,9.8-5.5l1.4-.6c1.8-.8,1.4-1.7-.1-2.8-2.3-1.9-5.9-2.7-9.9-2.8a1.74,1.74,0,0,1-1.9-1.9,2,2,0,0,1,1.9-2.1h2.2a23.39,23.39,0,0,1,9.9,1.7c5.7,2.3,8.9,6.7,8.9,10.4,0,2.5-.9,3.8-2.9,3.8a5.87,5.87,0,0,1-2.3-.4,17.79,17.79,0,0,0-5.1-.6h-.2c-3.6.5-7,1.6-9.3,3.9s-2.9,5-2.8,8.5c.1,1.9.5,5.3,1,9.2Zm-5,6.4c0-.5-.1-.6-.6-.7a44.43,44.43,0,0,0-7.5-.7c-9.21,0-14,3.5-14,6.9,0,3.2,3.3,5.8,10.51,5.8,9.8,0,11.6-4.8,11.6-10.5Z"/><path class="cls-1" d="M332.31,34.73c4.7-8,8.9-14.6,10.61-17.7,1.29-2.4,1-3.5-.11-4.3-.8-.7-2.8-1.3-4.5-2a1.64,1.64,0,0,1-1.2-2v-.2a2.09,2.09,0,0,1,2.2-1.5,15.27,15.27,0,0,1,5.2.8c3.81,1.3,8.21,5.4,8.21,8.5,0,1.6-.9,2.1-2,3a17,17,0,0,0-3.09,3c-3.2,4-10.91,15.2-15.91,23.4-1.7,2.6-1.1,3.1,1.8,1.7a23.11,23.11,0,0,1,10.11-2.8c8.4,0,11.9,4.5,12.2,12.5a67.47,67.47,0,0,1-.3,8.8,56.62,56.62,0,0,0-.2,7c0,5.2,2.2,8,8.3,8,10.7,0,17.9-9.9,22.4-21.4.3-1,1-1.2,2-.9s1.4,1,1.1,1.8v.2c-5.3,21.2-17.1,27-26.3,27-8,0-13.3-4.6-13.61-13.8a67.37,67.37,0,0,1,.41-8.7,80.6,80.6,0,0,0,.4-8.5c0-4.1-1.81-7.4-7.41-7.4-9.3,0-18.3,9.9-23.4,19.1-2.3,4.3-3.5,8.5-4.8,11.7-.7,1.6-1.1,2.9-1.6,4-.9,2.1-1.7,3.2-3.5,3.2-1.5,0-3.1-1.6-3.1-4.5,0-3.5,3.7-10,8.7-18.5Z"/><path class="cls-1" d="M404.81,22h.2a1.11,1.11,0,0,1,1.6.6l.1.1c1.5,2.3,3.6,4,5.5,4,3.1,0,11.3-2.2,21.3-4.9,6.8-1.9,13.81-3.6,20.31-5.1,11.7-2.7,18.9-3.8,22.4-3.8,2.7,0,5.6.2,6.8.9,2.4,1.2,2.9,2.1,2.9,3.6a2.91,2.91,0,0,1-3.2,2.8,26.23,26.23,0,0,1-2.7-.1c-1.5-.1-3.8-.2-5.9-.2-4.8,0-12.1.8-16.8,3.6s-14.9,12.1-14.9,32.4c0,10.4,4.4,15.1,8.7,17.6,6.1,3.4,13.4,3.3,17.9,3.3h1.5c2.3,0,5.6,1.6,5.6,4.1s-2.3,3.4-7,3.4c-5.2,0-16.1-.3-23-5.8-6-4.7-9.21-10.9-9.21-22,0-10,2.1-21.2,10.1-30.3,2.2-2.4,1.81-3.2-1.39-2.3-9.81,2.9-20.61,6.4-25.91,8.6l-1.9.8h-.2a8.28,8.28,0,0,1-3.9,1.5c-3.6,0-8.1-4.2-9.4-7.5a11,11,0,0,1-.6-3.7V23a.8.8,0,0,1,.7-.9Z"/><path class="cls-1" d="M542,20.43c-.09.2-.09.2.1.2a89.17,89.17,0,0,0,19.11-6.1,13.63,13.63,0,0,1,3.7-1.3c3.1,0,4.9,1.4,4.9,3.1a2.94,2.94,0,0,1-2.1,3.1c-3.8,1.9-15.5,5.1-26.3,7a1.05,1.05,0,0,0-1,.9c-.5,3-1,6-1.41,9-.2,1.4.3,1.9,1.7,1.4a62.62,62.62,0,0,1,14.61-2.5c.7,0,1.2-.6.9-1.1-.5-1-1.9-2.1-4.2-3.4a1.41,1.41,0,0,1-.5-2.1,1.66,1.66,0,0,1,2.1-.8,16.42,16.42,0,0,1,7.6,4.1,4,4,0,0,1,1.2,2.3,1.53,1.53,0,0,0,1.2,1.5c14.1,2.6,22,13.3,22,24.2,0,18.7-19.3,27.4-44.2,28.5a2,2,0,0,1-2.11-1.6c-.2-1.1.2-1.8,1.4-1.9,23.21-2.9,38.41-11.4,38.41-26.5,0-9.2-6.6-16.9-17.6-19-.6-.1-.9.2-1.2.7-3.7,7.7-10.2,16.7-18.11,25.1a.93.93,0,0,0-.2,1.3l.41.9c1,2.2,1.59,3.7,1.59,5.4a2.62,2.62,0,0,1-2.9,2.9c-1.4,0-2.8-1.2-3.9-3.7-.5-.9-1.1-1.1-1.9-.4-7,5.6-13.4,8.4-19,8.4-4.7,0-7.1-2.7-7.1-8,0-13.1,13.2-24.7,24.1-30.9a1.22,1.22,0,0,0,.6-.9c.4-4,.9-7.5,1.5-11.5.2-1.1-.3-1.5-1.4-1.4a57.81,57.81,0,0,1-7.2.3c-5.7,0-9.6-1.3-14.1-7a1.85,1.85,0,0,1,.2-2.5,1.53,1.53,0,0,1,2.3-.1h.2c4.7,3.5,7.5,4.1,12,4.1a75.18,75.18,0,0,0,8.2-.5,1.1,1.1,0,0,0,1.1-1,67.39,67.39,0,0,0,.9-8.3,2.13,2.13,0,0,0-1.6-2.1,11.4,11.4,0,0,0-4.4-.8,1.72,1.72,0,0,1-1.6-1.9v-1a.88.88,0,0,1,.8-.9l.7-.1a22.29,22.29,0,0,1,3.3-.3c5.9,0,10.7,3.8,10.7,5.7a3.08,3.08,0,0,1-.89,2.5,9.61,9.61,0,0,0-1.61,3.2l-1,3.6Zm-8.6,26.7c0-1-.3-1.2-1.1-.6-10.9,7.1-17.8,16.9-17.8,23.5,0,2.7.8,3.5,3.3,3.5,4.9,0,11.4-3.5,16.6-8a1,1,0,0,0,.4-1.1,92.55,92.55,0,0,1-1.4-15.7Zm5.8,11.6c.3,1.1,1.1,1.4,1.9.3A110,110,0,0,0,554,40.93c.6-1.1.2-1.7-1.1-1.6a44.29,44.29,0,0,0-14,3.8,1.13,1.13,0,0,0-.7,1.1c-.1,1.3-.2,2.6-.2,3.8A40.48,40.48,0,0,0,539.21,58.73Z"/><path class="cls-1" d="M662.92,19.13c-.8.8-1.9,1.3-3.6,2.8-4.6,4.3-18.21,17.7-23,22.8-.1.1.5,0,1.2-.4A48.81,48.81,0,0,1,654,41c12.9,0,24.2,8.9,23.9,22.8-.3,12.6-11.5,23.1-30.21,23.1-11.3,0-18.7-4.5-18.7-11.8,0-5.6,4.6-9.7,11-9.7a15.8,15.8,0,0,1,15.91,13.1c.3.8.7,1.2,1.6.9,9.1-2.9,13.9-9.4,14.2-16.7.3-8.5-6.3-17.3-18.6-17.3-14.61,0-24.61,8.6-32.91,19.3-1.5,1.9-2.3,2.3-3.6,2.3s-2.7-1.5-2.6-4.2c.1-1.9.9-3,3-5.3,4.7-4.9,9.4-9.6,13.8-14.1,11.7-12,21.51-22.1,24.51-27,.3-.3.2-.4-.1-.5,0-.1-.2-.1-.2,0-3.31.8-12.31,3.7-16.91,5.3a9.56,9.56,0,0,0-1.9,1.1,5.8,5.8,0,0,1-2.9,1.2c-3.4,0-6.7-3.8-8-6.5v-.2a13.22,13.22,0,0,1-.2-5.3v-.2a1.28,1.28,0,0,1,.9-1h.6a.6.6,0,0,1,.4.1h.1l.5.3.1.1.2.5c1.2,2.4,2.1,4.6,4.3,4.6,3.9,0,16.71-3.3,21.31-4.6h.2l1.7-.8c.6-.3,1-.7,1.7-.7,2.8,0,7.8,4.3,7.8,6.7,0,1.3-.7,1.8-1.9,2.6Zm-16,61.8a17,17,0,0,0,2.2-.1c1-.1,1.4-.5,1.09-1.4-1.89-6.4-6.2-9.3-11.4-9.3-3.5,0-6,1.7-6,4.7S636.91,80.93,646.92,80.93Z"/><path class="cls-1" d="M720.91,76.43c-6.7,0-13.6-10.5-13.6-23.1,0-10.4,4.7-20.6,13.1-28.2s18.7-10.8,29.11-10.8c20.2,0,36.1,13.3,36.1,34.2,0,15.9-9.5,33.4-40.91,36.1a2,2,0,0,1-2.1-1.7,1.66,1.66,0,0,1,1.51-2.1c23.6-4.3,34.9-15.7,34.9-33.7,0-17.3-13.3-28.3-29.81-28.3a7,7,0,0,0-1.39.1c-.81.1-1.11.4-.61,1.1a16,16,0,0,1,2.61,8.5c0,4.8-1.11,10-3.11,16C742.71,56.43,730.81,76.43,720.91,76.43Zm20.4-33.5a41.64,41.64,0,0,0,3.31-14.7,16.65,16.65,0,0,0-2.11-7.9,1.09,1.09,0,0,0-1.3-.6,40.24,40.24,0,0,0-18,9.5c-6.4,6.1-10.4,14.1-10.4,22.9,0,9.7,4.4,16.6,8.3,16.6C727.51,68.73,737.11,52.93,741.31,42.93Z"/><path class="cls-1" d="M807.71,79.53c4.7-8.5,11.2-18.7,16.2-32.4,1.2-3.3,2.2-6.6,3.3-10.2.4-1.3,0-1.7-1.4-1.5a64.51,64.51,0,0,1-9.7.8c-5.3,0-10-2.1-13.5-8.6a1.44,1.44,0,0,1,.5-2.2,1.81,1.81,0,0,1,2.3.1c3.6,3.1,6.3,4.7,11,4.8a58.53,58.53,0,0,0,12.3-1.4,1.06,1.06,0,0,0,.9-.9c1.1-4.8,2-9,2.4-12.1.3-1.9-.6-2.5-2-3.2h-.2c-1.5-.5-2.9-.8-4.6-1.2a1.94,1.94,0,0,1-1.7-2.1v-.6l.2-.7.1-.1a.78.78,0,0,1,.4-.4l.1-.1a1.09,1.09,0,0,1,.5-.1,26.4,26.4,0,0,1,5-.2c3.2.3,9.7,2.8,9.7,5.2a17,17,0,0,1-1.1,4.3l-1,2.9-.9,3.3-.6,2.1c-.4,1.5,0,1.9,1.4,1.4a77.93,77.93,0,0,0,10.31-4.6,8.08,8.08,0,0,1,3.4-1.3c1.7,0,4,1.1,4,2.9,0,2-.9,2.8-4,4.3l-.2.1A150.75,150.75,0,0,1,834,33.63a.86.86,0,0,0-.8.8q-2.25,7.35-4.8,14.4c-5,13.6-11.2,30.1-15.7,36.9-1.5,2.3-2.3,2.9-4.2,2.9-1.6,0-2.6-1.9-2.6-4a8,8,0,0,1,1.3-4.2Zm32.1-15.7a1.42,1.42,0,0,1,1.7,1.3,31.21,31.21,0,0,0,3.3,8.4c3.11,5.2,9.41,7.5,17.91,7.5,6.8,0,10.4-.7,12.9-1.4a12.23,12.23,0,0,1,3.5-.5c2.1,0,4.5,1,4.5,3.4s-2.9,3.3-5.7,4a61.7,61.7,0,0,1-13.2,1.2c-10.9,0-20-3-23.91-11.5a31.09,31.09,0,0,1-2.6-10.7,1.37,1.37,0,0,1,1.4-1.7Zm37.81-25.3c2.9,1.4,4.3,3.1,4.3,4.8,0,2.2-1.9,2.4-3.9,2.7a16.55,16.55,0,0,0-5.7,1.8c-2.4,1.1-6.5,3.2-9.8,4.9a1.81,1.81,0,0,1-2.4-.7l-.4-.6-.2-.2a.63.63,0,0,1,.2-.9l.7-.3a59.24,59.24,0,0,0,9.9-6.8c.1,0,.1-.2,0-.3l-.4-.3a28.9,28.9,0,0,0-8.4-1.1,67.07,67.07,0,0,0-12.1,1.2h-.21c-1,.3-1.79-.2-2.09-1.4a2.05,2.05,0,0,1,1.3-2.4h.2a53.51,53.51,0,0,1,15.9-2.5,38.29,38.29,0,0,1,12.9,2Zm-10.8-25.1a2.6,2.6,0,0,1,2.5-.4,41.91,41.91,0,0,1,9.6,6.3c2.5,2.2,3.8,4.4,3.8,6.5a2.71,2.71,0,0,1-2.7,3c-1.2,0-2.1-1.3-3.3-2.9a15.26,15.26,0,0,0-1.6-2.2,47,47,0,0,0-8.1-7.8,1.56,1.56,0,0,1-.4-2.2Zm8.6-6.2a2.07,2.07,0,0,1,2.3-.5,41.9,41.9,0,0,1,9.9,5.6c2.7,2.4,3.8,4.4,3.8,6.7,0,1.9-.9,3-2.6,3-.9,0-1.9-1.1-3-2.6a18.08,18.08,0,0,1-1.9-2.5l-.2-.2a35.77,35.77,0,0,0-7.9-6.9l-.2-.2a2,2,0,0,1-.4-2.2Z"/><path class="cls-1" d="M918.51,53.83c10.3-8.6,30.91-31.8,36.11-37.7v-.2c.7-1.1.8-1.5-.9-1.1-3.7.8-14.81,4.1-18.51,5.8l-1.9.9-.1.1a6.18,6.18,0,0,1-3,1c-3.2,0-7-4-7.8-6.9a12.45,12.45,0,0,1-.2-5.2,1.47,1.47,0,0,1,1.2-1.3h.2c.7.1,1.2.3,1.4.9,1.1,2.5,2.4,4.9,4.4,4.9,3.7,0,18.3-3.7,22.21-4.7a7,7,0,0,0,2.3-1.1,4.37,4.37,0,0,1,1.7-.8c3.1,0,8.5,4.9,8.5,7.3,0,1.7-1.4,2.7-3,3.5h-.2l-2,1.6-.8.6-18.61,18.8c-3.5,3.5-3.1,4.1,1.7,2.5a44,44,0,0,1,13.91-2.5c14.5,0,25.7,8,25.7,22.1,0,12.3-12.1,25.6-45.41,25.6h-1.9a1.81,1.81,0,0,1-1.9-1.8,1.68,1.68,0,0,1,1.7-1.9c24.51-1.9,40.91-9.3,40.91-24.3,0-9.1-8.1-15.3-19.6-15.3-13.51,0-27.61,10.1-37.41,21-1.3,1.5-2.4,2.6-3.7,2.6-2,0-3.1-2.6-3.1-4.9,0-2.7,2.9-5.1,6.2-7.9Z"/><path class="cls-1" d="M1018.61,33.53a2,2,0,0,1,.9-1.3,1.09,1.09,0,0,1,.5-.1c.7,0,1.2.2,1.4.8l.1.2c1.7,3.3,3,5,5,5,1.5,0,4.3-1.1,7.9-2.6,5.8-2.4,13.71-5.6,20.41-5.6,10.3,0,17.1,8.3,17.1,21.6,0,21.8-16.5,34-41.81,38.8a2,2,0,0,1-2.4-1.4,1.51,1.51,0,0,1,1.2-2.2c23.61-5.9,36.21-17.2,36.21-36.3,0-10.8-4.5-16-10.9-16-6.71,0-16.81,5.9-20.51,8.4l-1.6,1.1c-1.5,1.1-2.8,2.1-4.7,2.1-2.8,0-6.9-3.9-8-6.4-.9-1.9-.8-3.4-.8-5.9Zm20.81-15.9a21.64,21.64,0,0,0,3.09-1.8c2-1.1,1.91-1.7-.2-2.2a27.5,27.5,0,0,1-13-7.3,1.81,1.81,0,0,1-.1-2.3,1.39,1.39,0,0,1,2.1-.4,30.71,30.71,0,0,0,18,5.3,24.22,24.22,0,0,0,4.5-.4,22.29,22.29,0,0,1,3.2-.3c3.5,0,7.4,1.4,7.4,4.2,0,1.7-1.6,2.4-3.6,2.5a23.29,23.29,0,0,0-6.5,1c-4.11,1.3-10.61,4.2-15.21,6l-1.3.5a1.62,1.62,0,0,1-2.1-.9,1.32,1.32,0,0,1,.6-2.1h.2Z"/><path class="cls-1" d="M1142.71,19.63l-.1.1-1.6,3.7-1.9,4.5c-.6,1.5-.2,2,1.4,1.7a42.63,42.63,0,0,1,5.81-.5c7.5,0,11.8,4.3,11.8,16,0,11.9-3.9,26.1-9.41,33.6a15,15,0,0,1-12.2,6.6c-3,0-3.3-1.3-4.8-3.4l-.4-.7V81a72.15,72.15,0,0,0-6.4-6.5,1.53,1.53,0,0,1-.3-2,1.28,1.28,0,0,1,2-.5c4.8,3.2,9,5.6,11.1,5.6,3.1,0,5.21-1.1,7.91-5.4,3.09-4.8,6.9-16.5,6.9-28,0-7.3-1.6-10.3-7.1-10.3a39.89,39.89,0,0,0-8.81,1.3,1.78,1.78,0,0,0-.8.7c-2.8,6.7-6.1,13.8-9.4,20.5-5.5,11.3-10.5,21-14.8,27.1-1.3,1.9-2.7,2.9-3.9,2.9s-2.9-1.5-2.9-3.8a7.38,7.38,0,0,1,1.5-4.6,190.73,190.73,0,0,0,15.7-24.5,123.59,123.59,0,0,0,6.6-14c.6-1.5.1-2.1-1.5-1.6-2.5.8-4.8,1.6-6.3,2.2l-3.7,1.5a12.33,12.33,0,0,1-4.7,1.3c-2.5,0-6.4-3.7-7.2-7a13,13,0,0,1-.1-4.9v-.2a2.18,2.18,0,0,1,1.8-1.4c.7-.1,1.1.1,1.2.7l.2.7c.7,2.3,1.5,4.6,3.9,4.6s7.7-1.4,13.3-2.6c2.1-.5,3.9-1,5.8-1.4a1.32,1.32,0,0,0,.9-.7c2.9-7.5,5-13.6,5-15.2a2,2,0,0,0-1.3-2h-.2c-1.2-.7-3.7-.8-6-1.1a1.68,1.68,0,0,1-1.7-1.9,1.91,1.91,0,0,1,1.5-2.1h.2a15.32,15.32,0,0,1,4.5-.6c4,0,11.3,3.6,11.3,6.2a6.14,6.14,0,0,1-1.39,3.5Zm22.61,11.5a2.22,2.22,0,0,1,2.7-1.4c7.6,1.5,11.7,4.2,15.4,8.5,3.5,3.9,5.8,10.5,5.8,18.2,0,4-1.2,7.4-4.1,7.4-1.6,0-2.2-.9-2.9-1.7a2.89,2.89,0,0,0-2.3-1.4c-1.9-.3-7,.2-10.5.7a1.9,1.9,0,0,1-2.2-1.6,1.77,1.77,0,0,1,1.5-2.2c3.5-.8,9.2-2,11.9-2.8,1.4-.5,2.1-1.6,1.9-3.6a24.24,24.24,0,0,0-4.2-10.6c-2.4-3.5-6-5.7-12-7.2C1165.12,33.13,1164.82,32.33,1165.32,31.13Z"/></g></g></svg>