<svg xmlns="http://www.w3.org/2000/svg" viewBox="0 0 287.1 272.1"><defs><style>.cls-1{fill:#d8e2f5;}</style></defs><title>アセット 6</title><g id="レイヤー_2" data-name="レイヤー 2"><g id="レイヤー_5" data-name="レイヤー 5"><path class="cls-1" d="M266.7,271.5c-19.8-12.9-37.2-31.8-51.9-56.7l1.5,29.1c-43.5,13.5-85.5,22.2-126,26.4l-4.5-38.4c9.9-.6,20.1-1.8,29.7-3.3V172.5a289.82,289.82,0,0,1-30,20.1l-11.1-33V272.1H30.9V151.5c-7.5,12-14.1,21.3-20.1,27.6L0,122.1A234.51,234.51,0,0,0,28.8,70.5C36.3,52.2,42.9,29.1,48.3,2.1L91.5,9.9c-1.5,9-2.7,15.9-3.9,21h72.6V0H207V30.9h74.4V69.6H213.9a440.76,440.76,0,0,0,10.2,59.1c11.1-12.6,21.6-25.5,31.5-39l28.5,28.5a538.57,538.57,0,0,1-45,53.4c10.8,22.2,26.7,42,48,59.4ZM85.2,69.6V41.7A301.8,301.8,0,0,1,74.4,77.1v69c33.9-19.5,55.5-42.3,72.9-76.5Zm92.4,26.7a242.24,242.24,0,0,1-18.9,31.5v93c17.4-3.9,34.8-8.1,52.2-13.2C192.9,174.3,181.5,137.4,177.6,96.3Z"/></g></g></svg>