<svg xmlns="http://www.w3.org/2000/svg" viewBox="0 0 273.6 270.6"><defs><style>.cls-1{fill:#d8e2f5;}</style></defs><title>アセット 5</title><g id="レイヤー_2" data-name="レイヤー 2"><g id="レイヤー_5" data-name="レイヤー 5"><path class="cls-1" d="M218.7,0V40.8h42.6V79.2H218.7v59.1h54.9v39.6H188.7A499.69,499.69,0,0,1,267,239.1l-31.8,31.5c-22.5-22.8-49.8-44.4-82.2-66l26.4-26.7H96.9l26.4,24a355.73,355.73,0,0,1-88.8,67.2L6.9,234.9c30.6-17.4,57-36.3,79.5-57H0V138.3H54.9V79.2H12.3V40.8H54.9V0h46.5V40.8h70.8V0ZM172.2,138.3V79.2H101.4v59.1Z"/></g></g></svg>