<svg xmlns="http://www.w3.org/2000/svg" viewBox="0 0 276.9 276"><defs><style>.cls-1{fill:#d8e2f5;}</style></defs><title>アセット 7</title><g id="レイヤー_2" data-name="レイヤー 2"><g id="レイヤー_5" data-name="レイヤー 5"><path class="cls-1" d="M11.1,64.2V24.9h90.6c2.7-8.1,5.1-16.2,7.2-24.9l46.5,3c-1.2,5.7-3,12.6-5.7,21.9H273.9V64.2H134.7c-2.1,4.5-5.4,10.8-10.2,19.5H267.9v38.7c-16.8,13.8-33.6,26.1-50.1,37.2v4.2h59.1v39.3H217.8v33c0,18-.6,27.6-7.8,32.1-3.9,3.3-6.3,3.9-14.7,4.8-7.8.9-14.1.9-27,.9-4.5,0-16.5-.6-35.7-1.5l-2.1-39c17.4.9,28.2,1.5,31.5,1.5,8.4,0,9-1.5,9-9.9V203.1H94.5V163.8H171V141h12c7.8-5.1,17.1-11.1,27-18.6H116.1V97.8a373.6,373.6,0,0,1-31.8,41.4V276H37.2V175.5a211.69,211.69,0,0,1-22.8,18L0,146.7a262.42,262.42,0,0,0,37.2-27.3V92.1h27C71.1,84.3,77.7,74.7,84,64.2Z"/></g></g></svg>