<svg xmlns="http://www.w3.org/2000/svg" viewBox="0 0 70.23 985.94"><defs><style>.cls-1{fill:#fff;}</style></defs><title>アセット 6</title><g id="レイヤー_2" data-name="レイヤー 2"><g id="レイヤー_2-2" data-name="レイヤー 2"><path class="cls-1" d="M47.26,22.22a183.49,183.49,0,0,0-16.83,7.43c-5.66,2.93-14.18,8.93-14.18,15.27,0,3.81,3.9,7,15.87,7A82.52,82.52,0,0,0,47,50.51a16.33,16.33,0,0,1,3.23-.41c2.28,0,4.33.54,4.33,2.72,0,1.16-1.25,1.84-2.72,2.19-2.57.61-8.22,1.56-18.58,1.56-13.23,0-20.57-4-20.57-11.17,0-6.89,7.05-13,12-16.57.59-.47.66-.88.15-1.29a13.59,13.59,0,0,1-3.09-5.32A123.93,123.93,0,0,1,18.53,7.91c-.15-.89-.44-1.3-1.76-1.78-1-.27-2.36-.34-3.31-.54a.86.86,0,0,1-.37-.07L13,5.45a.51.51,0,0,1-.29-.27L12.58,5c-.08-.21-.08-.35-.15-.41V4.23a1.26,1.26,0,0,1,1.18-1.3h.14a14.21,14.21,0,0,1,3.31-.34c2.86,0,6.1,2,6.91,3.61a.43.43,0,0,1,0,.41l-.15,1.16a.48.48,0,0,1-.07.27,3,3,0,0,0-.22,1.64,44.26,44.26,0,0,0,1.68,10.7,12.39,12.39,0,0,0,3.53,5.32.82.82,0,0,0,1,.06c3.74-1.9,8.23-4.22,11.68-5.86l4.11-2c1-.55,1.18-.69,1-1.3,0-.07,0-.14-.08-.14a9.92,9.92,0,0,0-3.08-2.18A.89.89,0,0,1,42.77,13a1.51,1.51,0,0,1,1.55-.75,12.54,12.54,0,0,1,4,1.16h.14C51.08,15,52.69,17.59,52.69,19c0,1.63-1.76,1.91-4.33,2.86ZM49.61,6.41c-.66-.48-.74-1-.22-1.57a1.65,1.65,0,0,1,1.83-.34,26.59,26.59,0,0,1,7.13,4.16C60.41,10.5,61,11.72,61,13.15s-.66,2-1.83,2c-.66,0-1.4-.75-2.21-1.77-.51-.55-1-1.23-1.46-1.71A30.66,30.66,0,0,0,49.61,6.41ZM55.78.55A1.34,1.34,0,0,1,57.47.14,30.31,30.31,0,0,1,64.74,4c2,1.64,2.79,3,2.79,4.57a1.79,1.79,0,0,1-1.91,2.05c-.58,0-1.39-.75-2.05-1.64A15.46,15.46,0,0,0,62,7.16a37.1,37.1,0,0,0-6-5,.93.93,0,0,1-.22-1.5Z"/><path class="cls-1" d="M24,91.74c3.45-5.45,6.54-9.95,7.79-12.06,1-1.64.73-2.39-.08-2.93a15.84,15.84,0,0,0-3.3-1.36A1.11,1.11,0,0,1,27.57,74v-.13a1.52,1.52,0,0,1,1.61-1,12.07,12.07,0,0,1,3.82.55c2.79.88,6,3.68,6,5.79,0,1.09-.66,1.43-1.47,2a11.71,11.71,0,0,0-2.28,2c-2.35,2.73-8,10.36-11.68,15.95-1.25,1.77-.81,2.12,1.32,1.16a18.09,18.09,0,0,1,7.42-1.91c6.17,0,8.74,3.07,9,8.52a41.88,41.88,0,0,1-.23,6,35.83,35.83,0,0,0-.14,4.77c0,3.55,1.61,5.45,6.1,5.45,7.86,0,13.15-6.74,16.45-14.58.22-.68.74-.82,1.47-.62s1,.69.81,1.23v.14c-3.89,14.45-12.56,18.4-19.32,18.4-5.88,0-9.77-3.13-10-9.4a40.69,40.69,0,0,1,.29-5.94,50.91,50.91,0,0,0,.29-5.79c0-2.79-1.32-5-5.43-5-6.84,0-13.45,6.75-17.2,13a68.94,68.94,0,0,0-3.52,8c-.52,1.09-.81,2-1.18,2.73-.66,1.43-1.25,2.18-2.57,2.18-1.1,0-2.28-1.09-2.28-3.07,0-2.38,2.72-6.81,6.4-12.61Z"/><path class="cls-1" d="M33.44,152.2c.74-.27.74-.27.89-.41a.07.07,0,0,0,.07-.07,5.06,5.06,0,0,1,2.2-.61,2.53,2.53,0,0,1,2.5,2.25c0,1.36-1.69,2.25-2.64,2.73a57.4,57.4,0,0,1-11,3.4.61.61,0,0,0-.59.55c-2.57,7.63-7.94,19.9-14,27.74-.88,1.16-1.62,2.12-3.09,2.12s-2-1.44-2-2.6A5.55,5.55,0,0,1,7.07,184c4-5.18,10.28-13.63,13.52-22.42.29-.89.07-1.23-1-1.09-1.39.07-2.72.13-4.11.13-5,0-7.64-1.7-10.07-5.86a1,1,0,0,1,.29-1.57,1.67,1.67,0,0,1,1.7-.06l.14.13c2.35,2.18,4.19,3.27,8.82,3.27a39.27,39.27,0,0,0,5.44-.54.76.76,0,0,0,.66-.62,47.46,47.46,0,0,0,1.17-7c.08-1.09-.14-1.43-1.17-1.91h-.15a26.14,26.14,0,0,0-2.65-.68,1.07,1.07,0,0,1-1-1.16,1.16,1.16,0,0,1,1-1.29,17.21,17.21,0,0,1,3.24-.41,11,11,0,0,1,5.14,1.09c1.18.75,1,1.84-1.17,9.27-.3.89.21,1.3,1.17,1a41.34,41.34,0,0,0,5.22-2.12Zm12.79,31.42a.76.76,0,0,0,.66.69,38.54,38.54,0,0,1,11.24,5c3.16,2,4.56,3.95,4.56,5.52,0,1.3-.52,2.25-1.77,2.25-1,0-1.76-.61-2.86-1.63l-.59-.55a28.56,28.56,0,0,0-9.77-5.93c-.74-.27-1-.07-1,.61a6.78,6.78,0,0,1,.08,1.16c0,5.73-4.56,9.27-11.91,9.27-7.64,0-11.68-3.54-11.68-7.56,0-5.52,5.95-9,15.65-9h2.35c.81.07,1-.21,1-.95l-.15-1.1a55.94,55.94,0,0,1-.44-6.74A10.8,10.8,0,0,1,45.27,166c2.06-1.84,4.85-2.79,7.2-3.75l1-.41c1.32-.54,1-1.16-.07-1.91-1.69-1.29-4.34-1.84-7.28-1.9a1.23,1.23,0,0,1-1.39-1.3c0-.89.51-1.3,1.39-1.43h1.62A18.27,18.27,0,0,1,55,156.43c4.19,1.57,6.54,4.56,6.54,7.09,0,1.7-.66,2.59-2.13,2.59a4.55,4.55,0,0,1-1.69-.28,14.07,14.07,0,0,0-3.74-.41h-.15A12.39,12.39,0,0,0,47,168.08c-1.69,1.5-2.13,3.41-2.06,5.8.07,1.29.37,3.61.73,6.27ZM42.55,188c0-.34-.07-.41-.44-.48A35.32,35.32,0,0,0,36.6,187c-6.76,0-10.28,2.39-10.28,4.7s2.42,4,7.71,4c7.2,0,8.52-3.27,8.52-7.16Z"/><path class="cls-1" d="M17.06,257.73a13.27,13.27,0,0,0-1.25,4.63,8.87,8.87,0,0,0,.74,3,9.24,9.24,0,0,1,.66,2.52,1.87,1.87,0,0,1-2,2.12c-1.25,0-2.42-1.16-3.38-2.52a33.16,33.16,0,0,1-4.11-15.27,47.23,47.23,0,0,1,2.79-15.82c.29-.81.52-1.63.74-2.38l.73-2.66a23,23,0,0,0,1.1-4.91c.08-2-1.32-3.82-3.67-6.2-.52-.55-.44-1,.07-1.5a1.9,1.9,0,0,1,2-.14c.95.62,1.76,1.16,2.35,1.64,1.54,1.23,4.55,4.43,4.55,7.09a8.75,8.75,0,0,1-1.17,3.54l-1.62,3.55-.29.68c-1.62,3.82-4.12,9.4-4.12,16,0,3.61.44,5,1,5.72s.95,1,1.32.28c1.54-2.05,5.36-10.16,7.13-14a1.11,1.11,0,0,1,1.39-.61.59.59,0,0,1,.3.07,1.16,1.16,0,0,1,.51,1.43ZM49.39,266c-10.88,0-17.34-3.47-19.91-10.08a23.58,23.58,0,0,1-1.18-5.73c-.07-.61.22-1.09,1-1.16a1.1,1.1,0,0,1,1.32.89,24.91,24.91,0,0,0,2.06,5.31c2.35,3.75,6.1,6.14,15.21,6.14a47.22,47.22,0,0,0,10.36-.89,14.61,14.61,0,0,1,2.2-.27c1.76,0,3.53.55,3.53,2.18C64,265.23,57.25,266,49.39,266ZM31.31,228.42c-.36-.82-.07-1.43.89-1.77a41.63,41.63,0,0,1,16.16-3.21c5.29,0,7.93.41,10.28,1.3a2.83,2.83,0,0,1,2.21,2.59c0,.82-.3,1.57-2.06,1.77a16.6,16.6,0,0,0-5.51,1.36c-3.16,1.44-7.64,3.82-11,5.73a1.57,1.57,0,0,1-2.13-.27c-.51-.62-.51-1.23.15-1.64,3.45-2.18,8.67-5.45,9.77-6.47.37-.28.22-.41-3.75-.41a48.75,48.75,0,0,0-13.15,2c-.95.27-1.69,0-1.91-.88Z"/><path class="cls-1" d="M.82,317.36c-.51-.21-.58-.68-.29-1.23a124.68,124.68,0,0,0,14.11-32.24A1.68,1.68,0,0,1,17,282.6l3.45.88c1.18.28,1.62,1.37.88,2h-.07a3.28,3.28,0,0,1-1.33.61,1,1,0,0,0-.73.55,110.89,110.89,0,0,1-5.36,12.74c-.22.41-.08.62.29.75l.66.28c.88.34,1.25,1.09.74,1.7a3,3,0,0,1-1,.54,1,1,0,0,0-.73,1v39.26a.65.65,0,0,1-.08.34l-.07.14-.22.34a6.08,6.08,0,0,1-2.94,1.16h-.15l-.14-.07a.46.46,0,0,1-.44-.27l-.08-.14a1,1,0,0,1-.14-.41V310.13c0-1.9-.59-2-1.69-.34-1.77,2.66-3.31,5.32-5.51,7.36l-.15.14a1.2,1.2,0,0,1-1.25.07Zm58.26-23.11c-.44.21-.73.41-.73.89v12.27c0,.61.22.82.88.82h1.55a.77.77,0,0,0,.58-.28l1.1-1a1.87,1.87,0,0,1,2.72-.07l2.8,2.53.07.13c.66.82.73,1.64-.22,1.91a5.93,5.93,0,0,1-1.47.27.63.63,0,0,0-.44.14c-1.47,1.09-4,2.79-5.88,4h-.15c0,.07-.14.14,0,.14,3.46,2,4.85,4.29,4.85,5.93s-1.1,2.45-2.79,1.91H61.8c-.29-.07-.51-.41-.81-.75V323c-1.76-2.59-5.65-5.93-9.18-8l-.22-.21a.71.71,0,0,1,0-1,1.61,1.61,0,0,1,1.47-.34A31.93,31.93,0,0,1,58.2,315v-.13l1.55-2.59c.51-.89.22-1.23-.81-1.23H25a.81.81,0,0,0-.88.61A10.71,10.71,0,0,1,20.44,317c-1.47.95-3.6,1-4.63.14l-.15-.28a2.81,2.81,0,0,1,1.55-3.4,12,12,0,0,0,5.43-6.82v-.14a.72.72,0,0,1,.89-.61h.14c.52,0,.88.21,1,.68v1c.07.54.29.75.88.75h.88c.66,0,.88-.21.88-.82V291.66c0-1.77.88-2.31,2.57-1.56l2.21.95a1,1,0,0,0,.44.07h6c.52,0,.66-.21.81-.62l.37-1.56c.07-.68-.15-1-.88-1H23.45a1.72,1.72,0,0,1-1.83-1.43c-.23-.89.22-1.36,1.17-1.36H57.54a.9.9,0,0,0,.66-.34l1.91-2.05a2,2,0,0,1,2.65-.2,47,47,0,0,1,3.89,3h.08a1.09,1.09,0,0,1,.44,1.56,2.11,2.11,0,0,1-1.84.82H45.27a.83.83,0,0,0-.73.41,15.07,15.07,0,0,1-1,1.5c-.66.82-.36,1.23.74,1.23h8.81a.85.85,0,0,0,.67-.27l.88-.89a2,2,0,0,1,2.64-.21l2.65,2c.88.61,1,1.71,0,2.11Zm-.95,35.11a7.48,7.48,0,0,1-1.47.27A.91.91,0,0,0,56,330a35.93,35.93,0,0,1-7.2,5.86c-1,.61-1,1.16.15,1.5a103.71,103.71,0,0,0,19.1,2.59c.66,0,.88.34.81.89a1.05,1.05,0,0,1-.88.95,3.57,3.57,0,0,0-1.84,1.5,2.32,2.32,0,0,1-2.35,1.23c-8.89-1.16-15.21-2.66-20.5-5.39a1,1,0,0,0-.88,0C35.57,341.9,27,343.87,17.35,345a1.2,1.2,0,0,1-1.39-.88c-.22-.55.22-1.09.88-1.16a84.36,84.36,0,0,0,21.23-5.66c.88-.41.88-.82.08-1.36a48.72,48.72,0,0,1-4.78-4.5.72.72,0,0,0-1.17-.14,57.24,57.24,0,0,1-13.08,7.5,1.55,1.55,0,0,1-1.55-.27l-.07-.14c-.37-.48-.29-.88.29-1.16a51.12,51.12,0,0,0,15.87-13c.37-.4.3-.81-.22-1.22a3.65,3.65,0,0,1-1-2.73V314.5c0-1.23.74-1.84,2.14-1.71l2.13.21h.14c.88.27,1.69.82,1.18,1.63a2.68,2.68,0,0,1-.66.62c-.52.34-.74.61-.74.95v3.48c0,.41.08.47,1.91.47h5.37c2.57,0,4.33,0,5.14-.06h.15a1.33,1.33,0,0,0,.8-.55,17.87,17.87,0,0,0,1.33-3.47v-.14c.07-.34.36-.48.73-.48a.53.53,0,0,1,.59.55l.22,3.06a.92.92,0,0,0,.51.75,1.74,1.74,0,0,1,1.18,1.64c0,1.84-1.69,2.45-10.73,2.45H42.41a1,1,0,0,0-.81.41,3.71,3.71,0,0,1-2.57,1,1.24,1.24,0,0,0-.52.28l-.22.2-.44.48c-.29.27-.22.34.15.34H52a.8.8,0,0,0,.59-.27l1.1-1a1.89,1.89,0,0,1,2.64,0l2.21,1.84c.88.68.81,1.84-.22,2.12ZM29.62,313.82c.59,5.18-2.13,8.38-4.26,9.61-1.61.88-3.89,1.22-4.55-.14-.59-1.09.51-2.52,1.83-3.34h.15a9.54,9.54,0,0,0,4.92-6.27.92.92,0,0,1,.88-.82h.15a.91.91,0,0,1,.88.82Zm2.87-19.91c-.66,0-.88.21-.88.82V296c0,.61.22.81.88.81H53.13c.67,0,.89-.2.89-.81v-1.23c0-.61-.22-.82-.89-.82Zm0,5.66c-.66,0-.88.2-.88.82v1.29c0,.62.22.82.88.82H53.13c.67,0,.89-.2.89-.82v-1.29c0-.62-.22-.82-.89-.82Zm-.88,7.84c0,.61.22.82.88.82H53.13c.67,0,.89-.21.89-.82v-1.3c0-.61-.22-.81-.89-.81H32.49c-.66,0-.88.2-.88.81Zm5.07,22c-1.33,0-1.62.55-.52,1.37a36.88,36.88,0,0,0,6.25,4.09.72.72,0,0,0,.81-.07,30.92,30.92,0,0,0,5.87-4.09c1-.75.66-1.3-.51-1.3Zm1.54-17a.71.71,0,0,1,0-1,1.78,1.78,0,0,1,1.4-.34h.14c6,1.36,7.94,3.82,7.94,5.73a1.86,1.86,0,0,1-2.5,1.9h-.15c-.37-.06-.59-.4-.81-.61l-.07-.2c-1-1.84-3.45-3.75-5.66-5.25Z"/><path class="cls-1" d="M59.75,395.42a1.52,1.52,0,0,1,1.83-.27,1.17,1.17,0,0,1,.44,1.71A33.4,33.4,0,0,1,33.08,414c-9.92,0-14.77-4.49-14.77-16.15,0-6.88.66-15.88,1.25-22.56.29-3.82.51-7,.51-8.39,0-2.11-.37-2.45-1.47-3l-.22-.07a9.55,9.55,0,0,0-3.45-1.16h-.15a1.3,1.3,0,0,1,.08-2.59,17.62,17.62,0,0,1,3.6-.21c3.23.21,7.93,3.68,7.93,5.52a3.19,3.19,0,0,1-.59,1.71,6.93,6.93,0,0,0-1.25,3.07,219.54,219.54,0,0,0-2.27,27.33c0,8.52,2.64,11.79,10.58,11.79a33.68,33.68,0,0,0,26.81-13.63Z"/><path class="cls-1" d="M42.11,439.09c-5.36,3.82-14.91,12.54-17.85,15.27-2.06,2-2.5,2.45-2.5,3.2s.81,1.5,2.35,2.66L26,461.65c6.69,5.18,12.42,9.34,17.19,15.06,2,2.39,3.68,5.12,3.68,7.23,0,1.91-1,3-2.5,3a2.46,2.46,0,0,1-2.43-1.71v-.13l-.73-1.3c-.59-1-1.47-2.45-2.79-4.36-3.53-5-8.75-9.88-17.71-16.77-2-1.56-2.94-3.2-2.94-4.77a5.55,5.55,0,0,1,1.91-3.68c1.76-1.91,5.22-5.25,8.74-8.52,3.75-3.54,7.28-7.16,9.26-9.06,1.4-1.44,1.77-1.91,1.77-2.53,0-.88-.81-1.84-3.38-3.54l-.15-.07a.94.94,0,0,1-.22-1.43l.14-.07v-.07a.86.86,0,0,1,.3-.34l.22-.2a2,2,0,0,1,.51-.14H37a.86.86,0,0,1,.37.07,18.2,18.2,0,0,1,3.38,1.29c2.27,1.23,4.85,3.89,4.85,5.59,0,1.3-.74,1.91-2.5,3.21Z"/><path class="cls-1" d="M5.53,518.82c0-1.5-.52-1.71-1.62-.55a17.43,17.43,0,0,1-2.13,1.84,1.09,1.09,0,0,1-1.4.07A.78.78,0,0,1,.24,519c4.4-5.18,8.37-12.74,10.8-21a1.75,1.75,0,0,1,2.42-1.3l2.87.82c1.17.34,1.61,1.3.88,2h-.08a1.94,1.94,0,0,1-1.17.61,1,1,0,0,0-.81.55l-.59,1.22c-.37.82-.07,1.16.81,1.16h5.14a.83.83,0,0,0,.66-.27l.89-.89a1.78,1.78,0,0,1,2.64-.06L27.27,504c.81.82.81,1.71-.15,2a3.65,3.65,0,0,1-1.32.21.66.66,0,0,0-.59.34c-1.24,1.84-2.93,4.29-4.7,6.47-.81,1-.51,1.37.66,1.37h3.9a.89.89,0,0,0,.66-.35l.81-.88a1.86,1.86,0,0,1,2.57-.27l2.94,2,.15.07c.8.82.88,1.63,0,2.25h-.15a4.48,4.48,0,0,1-1,.41,1,1,0,0,0-.73,1v34.7c0,2.65-.59,4.7-5.22,5.52A1.93,1.93,0,0,1,23,557.6a4.52,4.52,0,0,0-1-1c-.73-.48-2.35-.82-4.85-1.09a1,1,0,0,1-1-1.09.83.83,0,0,1,1-.89c2,.2,6.4.41,7.5.41s1.47-.27,1.47-1V540.76c0-.61-.22-.81-.89-.81H9.86c-.59,0-.81.2-.88.68-.88,6.2-2.72,12.54-6.91,17.86l-.15.13a1.08,1.08,0,0,1-1.24.14l-.15-.14a.9.9,0,0,1-.22-1.29c4.92-9,5.22-19.63,5.22-29.24Zm7.71-13a1,1,0,0,0-.81.47,57.72,57.72,0,0,1-3.75,6.34c-.44.48-.29.89.3,1.16l1.17.48c0,.07.15.07.37.07H16.1a1,1,0,0,0,.81-.41c1.1-2.12,2.21-4.71,3.16-7,.37-.81.08-1.15-.81-1.15Zm-2.72,22.28c-.66,0-.88.21-.88.82,0,2.25.07,4.77-.15,7.3-.07.61.22.88.88.88h4.41c.66,0,.88-.2.88-.82V529c0-.61-.22-.82-.88-.82Zm-.88-3.61c0,.61.22.82.88.82h4.26c.66,0,.88-.21.88-.82V518c0-.62-.22-.82-.88-.82H10.52c-.66,0-.88.2-.88.82Zm10.06,0c0,.61.22.82.89.82h4.62c.67,0,.89-.21.89-.82V518c0-.62-.22-.82-.89-.82H20.59c-.67,0-.89.2-.89.82Zm0,11.79c0,.62.22.82.89.82h4.62c.67,0,.89-.2.89-.82V529c0-.61-.22-.82-.89-.82H20.59c-.67,0-.89.21-.89.82Zm13.82,17.52c-.74-1.43-.08-2.45,1.69-2.52,3.16-.21,7.49-.55,12.19-1,.59-.07.81-.28.81-.82V533.74c0-.61-.22-.81-.88-.81H40.64c-.66,0-.88.2-.88.81v2.87c0,.54-1.25,1.63-3.23,1.63h-.15l-.14-.07a.46.46,0,0,1-.45-.27l-.07-.13a.87.87,0,0,1-.07-.41V511.11c0-1.63,1-2.25,2.5-1.56l2.13.95a1,1,0,0,0,.44.07h6.61c.66,0,.88-.21.88-.82V499.53a1.68,1.68,0,0,1,2-1.78h.14l2.79.21h.15c1.18.27,1.76,1,1.4,1.84l-.15.14a3.49,3.49,0,0,1-1.32.75c-.44.2-.66.4-.66.81v8.25c0,.61.22.82.88.82h7.35a.84.84,0,0,0,.66-.27l.73-.82a1.61,1.61,0,0,1,2.35-.27l2.5,1.84c.81.61,1,1.5.15,2l-.15.07a5.31,5.31,0,0,1-.88.34.91.91,0,0,0-.74.89v21.06a4.75,4.75,0,0,1-3,1.57A.86.86,0,0,1,62,537H62c-.15-.07-.37-.14-.44-.41a1,1,0,0,1-.15-.48v-2.32c0-.61-.22-.81-.88-.81h-7c-.66,0-.88.2-.88.81V549c0,.61.29.82,1,.75l7.28-.68c.8-.07,1.1-.41.73-1.16a58.11,58.11,0,0,0-4.19-7.16l-.07-.06c-.22-.41-.15-.69.37-.89l.14-.07a2.11,2.11,0,0,1,1.32.21c7.28,6.2,9.7,12.06,9.7,15.54,0,2.93-1.69,4.29-3.52,3.2a2,2,0,0,1-.59-1.09,24.93,24.93,0,0,0-1.62-6,.81.81,0,0,0-1-.48c-6.09,1.23-14.25,2.73-24.53,4.57a.9.9,0,0,0-.59.41,1.19,1.19,0,0,1-.52.48l-.14.13a1.21,1.21,0,0,1-1.62-.68Zm7.12-40.49c-.66,0-.88.21-.88.82v15.13c0,.62.22.82.88.82h6.69c.66,0,.88-.2.88-.82V514.18c0-.61-.22-.82-.88-.82Zm11.91,15.95c0,.62.22.82.88.82h7c.66,0,.88-.2.88-.82V514.18c0-.61-.22-.82-.88-.82h-7c-.66,0-.88.21-.88.82Z"/><path class="cls-1" d="M6.26,620.06c-.81,1-1.4,1.77-2.57,1.77s-1.84-1.09-1.84-2.46.07-1.9,1.47-3.4a197.08,197.08,0,0,0,16.09-19.36,1,1,0,0,0,.15-.41l.44-3.68c.15-1-.3-1.23-1.32-.75-2.06,1-4,2-5.51,2.86a8.55,8.55,0,0,0-1.55,1.23,3.4,3.4,0,0,1-2,1.16c-1.84,0-4.92-2.53-5.73-4.77a8.83,8.83,0,0,1-.37-2.53,1,1,0,0,1,.88-1,1,1,0,0,1,1.25.55c.88,1.7,1.77,2.59,2.87,2.59,1.69,0,8.81-2.93,11.75-4.57a.83.83,0,0,0,.44-.61l.3-1.84c.51-3.34.88-6.07.95-7.71,0-1.22-.44-1.5-1.69-1.84a24.38,24.38,0,0,0-2.64-.61,1.22,1.22,0,0,1-1.18-1.23v-.13c-.07-.62.3-1.09,1.1-1.23a17.1,17.1,0,0,1,3.24-.41c2.86,0,6.54,3,6.54,5a5.61,5.61,0,0,1-.59,2,24,24,0,0,0-1.1,2.8l-.08.34c-.22,1-.66,2.38-1.17,4.36a.67.67,0,0,0,.36.82c1.11.75,2.06,1.7,2.06,2.59a2.72,2.72,0,0,1-.95,1.77l-.81.82-.88,1c-.66.68-.66.68.07.07,6.91-5.66,14.91-10.84,21.82-10.84,4.7,0,8.08,2.73,8.08,9.27a52.5,52.5,0,0,1-1.47,9.61c-.88,4.36-1.83,9-1.83,12.82,0,3.47,1.69,4.77,5.21,4.77,4.71,0,7.86-1.43,11.76-4.64a1.38,1.38,0,0,1,1.91.07,1.24,1.24,0,0,1,.15,1.84c-3.6,4-9,7.43-14.55,7.43-5.29,0-8.89-3.07-8.89-9.07A58.35,58.35,0,0,1,48.06,603a56,56,0,0,0,1.62-11.18c0-4.16-1.39-6.2-4.92-6.2-5.59,0-15.14,6.68-22.12,13.15a.62.62,0,0,0-.22.48,39.65,39.65,0,0,0-.14,5.11,106.87,106.87,0,0,0,.8,14.93l.08.41a22.15,22.15,0,0,1,.22,3.81c0,2-.88,5.59-2.87,5.59-1.17,0-2-.88-2.27-2.45a24.44,24.44,0,0,0-1.25-4,55.67,55.67,0,0,0-5-8.18c-.51-.68-1-.68-1.4-.07-1.1,1.36-2,2.66-3.08,4.09Zm12.86-15.55c0-1-.3-1.09-.88-.2-1.55,2.11-3.16,4.23-5,6.61a.68.68,0,0,0,0,.89l5.58,7.09c.3.47.44.41.52,0v-.14c0-1.09,0-2.52-.08-4.16-.07-2.45-.14-5.31-.14-8.31Z"/><path class="cls-1" d="M3.83,654.54H4a.85.85,0,0,1,1.18.41l.07.07c1.1,1.57,2.65,2.73,4,2.73,2.28,0,8.3-1.5,15.65-3.34,5-1.3,10.14-2.46,14.92-3.48,8.59-1.84,13.88-2.59,16.45-2.59,2,0,4.12.14,5,.61,1.76.82,2.13,1.44,2.13,2.46s-.88,1.91-2.35,1.91c-.52,0-1.32,0-2-.07-1.1-.07-2.79-.14-4.33-.14-3.53,0-8.89.55-12.34,2.46s-10.95,8.24-10.95,22.08c0,7.09,3.23,10.29,6.39,12C42.33,692,47.7,691.9,51,691.9h1.11c1.69,0,4.11,1.09,4.11,2.79S54.53,697,51.08,697c-3.82,0-11.83-.21-16.9-4-4.41-3.2-6.76-7.43-6.76-15,0-6.82,1.54-14.45,7.42-20.65,1.62-1.64,1.32-2.18-1-1.57-7.2,2-15.13,4.36-19,5.86l-1.39.55h-.15a6.44,6.44,0,0,1-2.87,1c-2.64,0-5.95-2.87-6.9-5.11A6.93,6.93,0,0,1,3,655.63v-.4a.55.55,0,0,1,.51-.62Z"/><path class="cls-1" d="M42.11,724.82c-5.36,3.81-14.91,12.54-17.85,15.26-2.06,2-2.5,2.46-2.5,3.21s.81,1.5,2.35,2.66L26,747.38c6.69,5.18,12.42,9.34,17.19,15.06,2,2.39,3.68,5.11,3.68,7.23,0,1.9-1,3-2.5,3A2.46,2.46,0,0,1,41.89,771v-.14l-.73-1.29c-.59-1-1.47-2.45-2.79-4.36-3.53-5-8.75-9.89-17.71-16.77-2-1.57-2.94-3.2-2.94-4.77A5.52,5.52,0,0,1,19.63,740c1.76-1.91,5.22-5.25,8.74-8.52,3.75-3.55,7.28-7.16,9.26-9.07,1.4-1.43,1.77-1.91,1.77-2.52,0-.89-.81-1.84-3.38-3.54l-.15-.07a.94.94,0,0,1-.22-1.43l.14-.07v-.07a.86.86,0,0,1,.3-.34l.22-.21a2.37,2.37,0,0,1,.51-.13H37a.86.86,0,0,1,.37.07,18.2,18.2,0,0,1,3.38,1.29c2.27,1.23,4.85,3.89,4.85,5.59,0,1.3-.74,1.91-2.5,3.2Z"/><path class="cls-1" d="M6.26,834.35c-.81,1-1.4,1.77-2.57,1.77S1.85,835,1.85,833.67s.07-1.91,1.47-3.41A194.7,194.7,0,0,0,19.41,810.9a.93.93,0,0,0,.15-.41l.44-3.68c.15-.95-.3-1.22-1.32-.75-2.06,1-4,2.05-5.51,2.87a8.94,8.94,0,0,0-1.55,1.22,3.35,3.35,0,0,1-2,1.16c-1.84,0-4.92-2.52-5.73-4.77A8.81,8.81,0,0,1,3.54,804a1,1,0,0,1,.88-1,1,1,0,0,1,1.25.54c.88,1.71,1.77,2.59,2.87,2.59,1.69,0,8.81-2.93,11.75-4.56a.85.85,0,0,0,.44-.62l.3-1.84c.51-3.34.88-6.07.95-7.7,0-1.23-.44-1.5-1.69-1.84a24,24,0,0,0-2.64-.62,1.21,1.21,0,0,1-1.18-1.22v-.14c-.07-.61.3-1.09,1.1-1.23a17.93,17.93,0,0,1,3.24-.4c2.86,0,6.54,3,6.54,5a5.72,5.72,0,0,1-.59,2.05,23.84,23.84,0,0,0-1.1,2.79l-.08.34c-.22,1-.66,2.39-1.17,4.36a.66.66,0,0,0,.36.82c1.11.75,2.06,1.71,2.06,2.59a2.68,2.68,0,0,1-.95,1.77l-.81.82-.88,1c-.66.69-.66.69.07.07,6.91-5.65,14.91-10.83,21.82-10.83,4.7,0,8.08,2.72,8.08,9.26a52.47,52.47,0,0,1-1.47,9.62c-.88,4.36-1.83,9-1.83,12.81,0,3.48,1.69,4.77,5.21,4.77,4.71,0,7.86-1.43,11.76-4.63a1.38,1.38,0,0,1,1.91.06,1.24,1.24,0,0,1,.15,1.84c-3.6,4-9,7.43-14.55,7.43-5.29,0-8.89-3.06-8.89-9.06a58.45,58.45,0,0,1,1.61-11.59,55.87,55.87,0,0,0,1.62-11.18c0-4.15-1.39-6.2-4.92-6.2-5.59,0-15.14,6.68-22.12,13.16a.6.6,0,0,0-.22.47,39.8,39.8,0,0,0-.14,5.12,106.71,106.71,0,0,0,.8,14.92l.08.41a22.26,22.26,0,0,1,.22,3.82c0,2-.88,5.59-2.87,5.59-1.17,0-2-.89-2.27-2.46a24.75,24.75,0,0,0-1.25-4,56.74,56.74,0,0,0-5-8.18c-.51-.68-1-.68-1.4-.07-1.1,1.37-2,2.66-3.08,4.09Zm12.86-15.54c0-1-.3-1.09-.88-.2-1.55,2.11-3.16,4.22-5,6.61a.67.67,0,0,0,0,.88l5.58,7.09c.3.48.44.41.52,0v-.13c0-1.1,0-2.53-.08-4.16-.07-2.46-.14-5.32-.14-8.32Z"/><path class="cls-1" d="M3.83,868.84H4a.84.84,0,0,1,1.18.41l.07.07c1.1,1.56,2.65,2.72,4,2.72,2.28,0,8.3-1.5,15.65-3.34,5-1.29,10.14-2.45,14.92-3.47,8.59-1.84,13.88-2.59,16.45-2.59,2,0,4.12.13,5,.61,1.76.82,2.13,1.43,2.13,2.45s-.88,1.91-2.35,1.91c-.52,0-1.32,0-2-.07-1.1-.06-2.79-.13-4.33-.13-3.53,0-8.89.54-12.34,2.45S31.46,878.11,31.46,892c0,7.08,3.23,10.29,6.39,12,4.48,2.32,9.85,2.25,13.15,2.25h1.11c1.69,0,4.11,1.09,4.11,2.8s-1.69,2.31-5.14,2.31c-3.82,0-11.83-.2-16.9-3.95-4.41-3.2-6.76-7.43-6.76-15,0-6.82,1.54-14.46,7.42-20.66,1.62-1.63,1.32-2.18-1-1.57-7.2,2-15.13,4.37-19,5.87l-1.39.54h-.15a6.32,6.32,0,0,1-2.87,1c-2.64,0-5.95-2.86-6.9-5.11A6.88,6.88,0,0,1,3,869.93v-.41a.55.55,0,0,1,.51-.61Z"/><path class="cls-1" d="M36.38,936.32a18.5,18.5,0,0,0-1.1,1.5c-.66,1.63-1.4,3.34-2.35,6.06-.29.75,0,1.09.81,1.09a15,15,0,0,0,1.83.14c2.06.21,3,1.36,3,2.66s-1,1.77-2.87,1.91c-.59,0-2.06,0-3.23-.07a4,4,0,0,1-.74-.07.83.83,0,0,0-.88.55c-.95,3.2-2,6.95-2.94,11-.14.61.15.88.74,1,1.54.07,2.94.07,4.19.07s2.2,0,3,.07c1.54.2,2.86.89,2.86,2.25s-.73,2-3.6,2.25c-.66.07-1.69.13-2.64.13a42.29,42.29,0,0,1-4.85-.27c-.59-.07-.88.14-1,.61a24.53,24.53,0,0,0-.44,4.71c0,6.75,4.78,9.75,11.61,9.75,9.92,0,14.18-5.8,14.18-11.12,0-6.88-4.63-11.17-11.24-15.74a1,1,0,0,1-.15-1.57,1.66,1.66,0,0,1,1.69-.27h.15c10.51,5.52,14.18,11.38,14.18,18.74,0,6.55-6.32,14.25-18.59,14.25-9.77,0-15.21-5.59-15.21-14.11a42.6,42.6,0,0,1,.37-5c.07-.55-.22-.82-.73-1-6.25-1.36-10-4.43-10-8.31,0-3.21,3.31-6.62,7.5-9.14,1.17-.68,1.1-1.16-.08-1.7a22.2,22.2,0,0,1-2.57-1.23c-2.64-1.43-3.89-3.41-5-6.13l-.08-.14a1.46,1.46,0,0,1,.52-1.43,1.08,1.08,0,0,1,1.54.27,14.75,14.75,0,0,0,6,5,29.37,29.37,0,0,0,7.34,1.7.7.7,0,0,0,.88-.54c.23-.62.3-1.23.52-1.84.95-3.07,1.84-6,2.06-7.37v-.13c0-1.5-.3-1.64-1.55-2.12a10.63,10.63,0,0,0-2.79-.74,1.39,1.39,0,0,1-1.32-1.37v-.13a1.4,1.4,0,0,1,1.4-1.3c.88-.07,1.76-.07,2.64-.07,3.23,0,7.64,3.41,7.64,5.32a2,2,0,0,1-.81,1.84ZM23.16,961.61c.66.06.95-.14,1-.69.66-3.61,1.54-7.36,2.35-10.36.22-.75-.08-1.09-.88-.95-4.49.95-9.85,4.43-9.85,7.29C15.81,958.61,17.35,960.45,23.16,961.61Z"/></g></g></svg>