<svg xmlns="http://www.w3.org/2000/svg" viewBox="0 0 69.07 700.21"><defs><style>.cls-1{fill:#fff;}</style></defs><title>アセット 7</title><g id="レイヤー_2" data-name="レイヤー 2"><g id="レイヤー_2-2" data-name="レイヤー 2"><path class="cls-1" d="M47.71,22.22a183.39,183.39,0,0,0-16.82,7.43c-5.66,2.93-14.18,8.93-14.18,15.27,0,3.81,3.89,7,15.86,7a82.52,82.52,0,0,0,14.92-1.43,16.33,16.33,0,0,1,3.23-.41c2.28,0,4.34.54,4.34,2.72,0,1.16-1.25,1.84-2.72,2.19-2.57.61-8.23,1.56-18.59,1.56-13.22,0-20.57-4-20.57-11.17,0-6.89,7.05-13,12-16.57.58-.47.66-.88.14-1.29a13.69,13.69,0,0,1-3.08-5.32A123.75,123.75,0,0,1,19,7.91c-.14-.89-.44-1.3-1.76-1.78-1-.27-2.35-.34-3.31-.54a.8.8,0,0,1-.36-.07l-.08-.07a.55.55,0,0,1-.29-.27L13,5c-.07-.21-.07-.35-.14-.41V4.23a1.26,1.26,0,0,1,1.17-1.3h.15a14.08,14.08,0,0,1,3.3-.34c2.87,0,6.1,2,6.91,3.61a.43.43,0,0,1,0,.41l-.15,1.16A.48.48,0,0,1,24.2,8,3,3,0,0,0,24,9.68a43.81,43.81,0,0,0,1.69,10.7A12.3,12.3,0,0,0,29.2,25.7a.81.81,0,0,0,.95.06c3.75-1.9,8.23-4.22,11.68-5.86l4.12-2c1-.55,1.17-.69.95-1.3,0-.07,0-.14-.07-.14a10,10,0,0,0-3.09-2.18A.88.88,0,0,1,43.23,13a1.49,1.49,0,0,1,1.54-.75,12.46,12.46,0,0,1,4,1.16h.15C51.53,15,53.15,17.59,53.15,19c0,1.63-1.77,1.91-4.34,2.86ZM50.06,6.41c-.66-.48-.73-1-.22-1.57a1.67,1.67,0,0,1,1.84-.34A26.52,26.52,0,0,1,58.8,8.66c2.06,1.84,2.65,3.06,2.65,4.49s-.66,2-1.84,2c-.66,0-1.39-.75-2.2-1.77-.52-.55-1-1.23-1.47-1.71A30.66,30.66,0,0,0,50.06,6.41ZM56.23.55A1.34,1.34,0,0,1,57.92.14,30.21,30.21,0,0,1,65.2,4C67.18,5.59,68,7,68,8.52a1.79,1.79,0,0,1-1.91,2.05c-.59,0-1.4-.75-2.06-1.64a16.36,16.36,0,0,0-1.54-1.77,37.23,37.23,0,0,0-6-5,.94.94,0,0,1-.22-1.5Z"/><path class="cls-1" d="M24.49,91.74C28,86.29,31,81.79,32.28,79.68c1-1.64.74-2.39-.07-2.93a16.2,16.2,0,0,0-3.31-1.36A1.13,1.13,0,0,1,28,74v-.13a1.53,1.53,0,0,1,1.62-1,12.12,12.12,0,0,1,3.82.55c2.79.88,6,3.68,6,5.79,0,1.09-.66,1.43-1.47,2a12,12,0,0,0-2.28,2c-2.35,2.73-8,10.36-11.68,15.95-1.25,1.77-.81,2.12,1.32,1.16a18.13,18.13,0,0,1,7.43-1.91c6.17,0,8.74,3.07,9,8.52a43.29,43.29,0,0,1-.22,6,35.93,35.93,0,0,0-.15,4.77c0,3.55,1.62,5.45,6.1,5.45,7.86,0,13.15-6.74,16.46-14.58.22-.68.73-.82,1.47-.62s1,.69.81,1.23v.14c-3.9,14.45-12.57,18.4-19.33,18.4-5.88,0-9.77-3.13-10-9.4a42.14,42.14,0,0,1,.29-5.94,50.92,50.92,0,0,0,.3-5.79c0-2.79-1.32-5-5.44-5-6.83,0-13.44,6.75-17.19,13a69.2,69.2,0,0,0-3.53,8c-.51,1.09-.81,2-1.17,2.73-.66,1.43-1.25,2.18-2.57,2.18-1.11,0-2.28-1.09-2.28-3.07,0-2.38,2.72-6.81,6.39-12.61Z"/><path class="cls-1" d="M33.9,152.2c.73-.27.73-.27.88-.41a.07.07,0,0,0,.07-.07,5.1,5.1,0,0,1,2.21-.61,2.54,2.54,0,0,1,2.5,2.25c0,1.36-1.69,2.25-2.65,2.73a57.17,57.17,0,0,1-11,3.4.61.61,0,0,0-.59.55c-2.57,7.63-7.93,19.9-14,27.74-.88,1.16-1.61,2.12-3.08,2.12s-2-1.44-2-2.6A5.55,5.55,0,0,1,7.52,184c4-5.18,10.29-13.63,13.52-22.42.29-.89.07-1.23-.95-1.09-1.4.07-2.72.13-4.12.13-5,0-7.64-1.7-10.06-5.86a1,1,0,0,1,.29-1.57,1.65,1.65,0,0,1,1.69-.06l.15.13c2.35,2.18,4.18,3.27,8.81,3.27a39.27,39.27,0,0,0,5.44-.54.74.74,0,0,0,.66-.62,47.68,47.68,0,0,0,1.18-7c.07-1.09-.15-1.43-1.18-1.91H22.8a25.92,25.92,0,0,0-2.64-.68,1.08,1.08,0,0,1-1-1.16,1.16,1.16,0,0,1,1-1.29,17,17,0,0,1,3.23-.41,11,11,0,0,1,5.14,1.09c1.18.75,1,1.84-1.17,9.27-.29.89.22,1.3,1.17,1a40.15,40.15,0,0,0,5.22-2.12Zm12.78,31.42a.78.78,0,0,0,.66.69,38.42,38.42,0,0,1,11.24,5c3.16,2,4.56,3.95,4.56,5.52,0,1.3-.52,2.25-1.76,2.25-1,0-1.77-.61-2.87-1.63l-.59-.55a28.56,28.56,0,0,0-9.77-5.93c-.73-.27-1-.07-.95.61a7.73,7.73,0,0,1,.07,1.16c0,5.73-4.56,9.27-11.9,9.27-7.64,0-11.68-3.54-11.68-7.56,0-5.52,5.95-9,15.64-9h2.36c.8.07,1-.21,1-.95l-.15-1.1a55.94,55.94,0,0,1-.44-6.74A10.78,10.78,0,0,1,45.73,166c2.05-1.84,4.85-2.79,7.2-3.75l1-.41c1.32-.54,1-1.16-.08-1.91-1.69-1.29-4.33-1.84-7.27-1.9a1.24,1.24,0,0,1-1.4-1.3c0-.89.52-1.3,1.4-1.43h1.61a18.32,18.32,0,0,1,7.28,1.16C59.69,158,62,161,62,163.52c0,1.7-.66,2.59-2.13,2.59a4.48,4.48,0,0,1-1.69-.28,14.21,14.21,0,0,0-3.75-.41h-.15a12.42,12.42,0,0,0-6.83,2.66c-1.69,1.5-2.13,3.41-2.06,5.8.08,1.29.37,3.61.74,6.27ZM43,188c0-.34-.08-.41-.44-.48a35.53,35.53,0,0,0-5.51-.48c-6.76,0-10.29,2.39-10.29,4.7s2.43,4,7.72,4c7.2,0,8.52-3.27,8.52-7.16Z"/><path class="cls-1" d="M8.62,240.83c0,8-1.32,20.52-6.9,30.88l-.08.13c-.22.48-.66.55-1.17.21a1,1,0,0,1-.37-1.3c4.12-9.88,4.34-20.72,4.34-29.92v-7.09c0-1.63,1-2.11,2.42-1.5l2.2,1a1,1,0,0,0,.45.07h2.64l-.07-.07-.22-.07a1.81,1.81,0,0,1-.52-1.23A18.65,18.65,0,0,0,8,223.52c-.3-.48-.22-.82.29-1h.15a1.53,1.53,0,0,1,1.32.07c4.41,2.66,5.95,5.66,5.95,7.84,0,1.43-.66,2.59-1.4,2.8h4.71a.81.81,0,0,0,.73-.48A56.35,56.35,0,0,0,23,223.65c.15-.61.44-1.09.74-1.15H3.48a1.81,1.81,0,0,1-1.91-1.44c-.22-.88.15-1.43,1.25-1.43H14.28c.66,0,.88-.2.88-.81v-5.59c0-1.3.74-1.91,2.13-1.78l3,.34c1.17.14,1.76.89,1.39,1.71l-.15.13a3.19,3.19,0,0,1-1.39.75c-.44.21-.66.41-.66.89v3.55c0,.61.22.81.88.81h6.17a.81.81,0,0,0,.74-.41l1.61-1.7a1.89,1.89,0,0,1,2.79-.2,40,40,0,0,1,3.53,2.79c.66.61.73,1.16.37,1.7a2.23,2.23,0,0,1-1.84.69H25.89l2.64.75c1.18.34,1.69,1.29.89,1.9a3.37,3.37,0,0,1-1.55.62.91.91,0,0,0-.66.41A58.21,58.21,0,0,1,23.46,232c-.66.89-.44,1.3.74,1.3h1.62a.89.89,0,0,0,.66-.35L28,231.15a1.75,1.75,0,0,1,2.57-.2,40.67,40.67,0,0,1,3.6,2.86,1.43,1.43,0,0,1,.37,1.43c0,.07,0,.07-.08.21a2.19,2.19,0,0,1-1.76.68H9.51c-.67,0-.89.2-.89.82ZM33.75,259.3a2,2,0,0,1-1.18.14.84.84,0,0,0-.88.27c-6.83,6.61-15.2,10.77-24.83,13.63a1.24,1.24,0,0,1-1.69-.75c-.29-.47-.15-1,.52-1.36h.14c8.74-3.54,16-8.11,21.9-14.86a1.85,1.85,0,0,1,2.42-.48l3.23,1.57c1,.48,1.4,1.5.52,1.84Zm-22.7.34a1.24,1.24,0,0,1-1.69-.47c-.44-.69-.37-1.09.37-1.44A64.58,64.58,0,0,0,25.6,246.42a2,2,0,0,1,2.49-.34l2.8,1.5c.8.48,1.1,1.43.51,1.84a.58.58,0,0,1-.29.07,4.29,4.29,0,0,1-1.33.07.74.74,0,0,0-.73.2c-5,4-11.61,7.36-17.85,9.88Zm18.81-19.76a2.36,2.36,0,0,1-1.33.13.72.72,0,0,0-.73.21,68.39,68.39,0,0,1-15.72,8.59,1.62,1.62,0,0,1-1.84-.41l-.15-.14a1.09,1.09,0,0,1,.52-1.57,59.09,59.09,0,0,0,13.74-9.81,1.91,1.91,0,0,1,2.42-.34L29.56,238c.89.47,1.18,1.5.44,1.91Zm19.61,22.49c.89.48,1.18,1.43.3,1.7a2.85,2.85,0,0,1-1.32.14.94.94,0,0,0-.89.2c-4.4,3.48-11.83,7-18.36,9.14a1.24,1.24,0,0,1-1.55-.48v-.13c-.29-.35-.22-.75.22-1.1l.22-.06A57.15,57.15,0,0,0,43.6,261a2,2,0,0,1,2.57-.41Zm19-46a1.07,1.07,0,0,1,.37,1.57,2.22,2.22,0,0,1-1.84.68H53.51a.82.82,0,0,0-.8.48c-.89,1.84-1.69,3.75-2.65,5.38-.51.89-.22,1.3.81,1.37h7.86a.81.81,0,0,0,.66-.28l.88-.88a1.89,1.89,0,0,1,2.58-.21l2.71,1.91c.81.55,1,1.64,0,2.05l-.88.4c-.44.21-.73.41-.73.89V259a.36.36,0,0,1-.08.27v.07l-.22.34a5.88,5.88,0,0,1-2.94,1.23.33.33,0,0,1-.36,0h-.08a.67.67,0,0,1-.44-.41,1,1,0,0,1-.14-.48v-.68c0-.61-.22-.82-.89-.82H42.13c-.59,0-.81.21-.81.75v.82c0,.48-1.62,1.64-3.38,1.64h-.15l-.14-.07a.48.48,0,0,1-.45-.27l-.07-.14a1,1,0,0,1-.15-.41V226.11c0-1.43,1-2.05,2.35-1.37l2,1a1,1,0,0,0,.44.07h3.89c.52,0,.74-.21.81-.62.44-1.84.81-3.68,1.1-5.58.08-.69-.14-1-.88-1H36.54a1.73,1.73,0,0,1-1.83-1.43c-.22-.89.22-1.36,1.17-1.36H59.32a.91.91,0,0,0,.66-.34l1.84-2,.07-.14a2.06,2.06,0,0,1,2.57-.2l.15.07c1.1.82,2.42,2,3.75,3.2Zm-26.3,12.2c-.66,0-.88.21-.88.82v5.32c0,.61.22.81.88.81H58.8c.67,0,.89-.2.89-.81v-5.32c0-.61-.22-.82-.89-.82Zm17.49,10.57c0-.62-.22-.82-.89-.82H42.2c-.66,0-.88.2-.88.82v5.59c0,.61.22.81.88.81H58.8c.67,0,.89-.2.89-.81Zm0,10c0-.62-.22-.82-.89-.82H42.2c-.66,0-.88.2-.88.82v5.72c0,.62.22.82.88.82H58.8c.67,0,.89-.2.89-.82Zm3.52,23.17A37.88,37.88,0,0,0,53,261.76a.71.71,0,0,1-.07-1.16,1.35,1.35,0,0,1,1.47-.28c9.69,3.28,12.85,8,12.85,10.71a2.25,2.25,0,0,1-3.16,2.31,1.23,1.23,0,0,1-.88-.88Z"/><path class="cls-1" d="M55.42,302.22a15.3,15.3,0,0,1,3.9,1.71C61,305,63,307.27,63,309.11c0,1.63-.73,1.7-3.3,2.52a148.7,148.7,0,0,0-20.8,7.77.8.8,0,0,0-.51.75c.22,3.75.22,8.45.22,10.5,0,1.7-.66,2.65-2.13,2.65-1.18,0-2.35-.68-2.35-2.72,0-.55.07-1.5.15-2.66l.22-4.77c.07-1-.45-1.23-1.33-.68-6.39,3.81-10.72,7.49-10.72,11.24s5,5.25,11.83,5.25a65.4,65.4,0,0,0,14.18-1.5,24.87,24.87,0,0,1,4.55-.68c2.42,0,3.45,1,3.45,2.25,0,1-.44,1.77-2.64,2.59h-.15a91.51,91.51,0,0,1-16.38,1.84c-13.59,0-18.15-3.95-18.15-9.41,0-5,6.54-10.7,14.77-15.81a.68.68,0,0,0,.37-.75c-.37-5.11-1.77-6.88-5.44-6.88-4.12,0-9,3.68-12.12,6.61-.81.75-1.55,1.63-2.36,2.45-1.54,1.64-2.93,3.07-3.89,3.07A2.56,2.56,0,0,1,8,320.08c0-1.57,1.69-3.07,3.75-4.91l2.57-2.31a59.87,59.87,0,0,0,8.82-10.43c.73-1,.44-1.3-.81-1.23-.81.07-1.69.07-2.65.07-5.58,0-7.27-1.09-10.28-5.93v-.14a1.09,1.09,0,0,1,.51-1.57l.08-.06a.79.79,0,0,1,.44-.14l.14-.07a1.14,1.14,0,0,1,.52.14l.22.07.15.13c2.79,2.59,3.82,3.82,9,3.82a26.38,26.38,0,0,0,5.95-.61,1.28,1.28,0,0,0,.59-.34,32.85,32.85,0,0,0,2.2-5.66c.22-.82-.07-1.09-1.17-1.64a13,13,0,0,0-3.09-.68,1.21,1.21,0,0,1-1.17-1.23v-.27a1.32,1.32,0,0,1,.07-.48l.07-.06a.59.59,0,0,1,.3-.28l.07-.07a.66.66,0,0,1,.29-.06,15.35,15.35,0,0,1,3.31-.41c2.06,0,6.83,1.36,6.83,3.13a3.74,3.74,0,0,1-.81,2.12l-.58,1.09a17.28,17.28,0,0,1-1,2.11c-.59,1.09-.22,1.57,1,1.23a64.38,64.38,0,0,0,7.49-2.53l2.72-1.09a6.76,6.76,0,0,1,2.2-.75c1.47,0,3,.62,3,2,0,1-.67,1.71-2,2.18h-.15a88.54,88.54,0,0,1-17.41,5.05.91.91,0,0,0-.59.4c-1.39,2.19-2.71,4.23-4.4,6.41-1.47,1.84-1.18,2.18,1.17,1.43a15,15,0,0,1,4.48-.81c4.34,0,7.13,2.31,8.09,7.08.22.82.58,1,1.39.62,3.45-1.71,6.91-3.27,10.43-4.71,2.43-1,4.93-2,6.76-2.86.88-.41,1-.95.15-1.63a10.2,10.2,0,0,0-2.72-1.84,1,1,0,0,1-.51-1.5,2.22,2.22,0,0,1,1.91-.62Z"/><path class="cls-1" d="M60.2,395.42a1.54,1.54,0,0,1,1.84-.27,1.17,1.17,0,0,1,.44,1.71A33.43,33.43,0,0,1,33.53,414c-9.92,0-14.77-4.49-14.77-16.15,0-6.88.66-15.88,1.25-22.56.3-3.82.52-7,.52-8.39,0-2.11-.37-2.45-1.47-3l-.22-.07a9.61,9.61,0,0,0-3.46-1.16h-.14a1.3,1.3,0,0,1,.07-2.59,17.66,17.66,0,0,1,3.6-.21c3.23.21,7.93,3.68,7.93,5.52a3.27,3.27,0,0,1-.58,1.71A6.81,6.81,0,0,0,25,370.14a217.5,217.5,0,0,0-2.28,27.33c0,8.52,2.64,11.79,10.58,11.79a33.7,33.7,0,0,0,26.82-13.63Z"/><path class="cls-1" d="M51.38,444.07a8.37,8.37,0,0,1,2.43-.62c3,0,4,1,4,2.39,0,1-.89,1.84-2.8,2.45a57.25,57.25,0,0,1-13.22,1.77,10.28,10.28,0,0,1-3.16-.54c-.88-.28-1.25,0-1.25.82,0,4,.3,11.72.81,16.42l.15,1.3a.75.75,0,0,0,.66.68,62,62,0,0,1,9.77,3c4.41,1.77,10.95,5.66,10.95,9.06a2,2,0,0,1-2.06,2.12c-1,0-2-.75-3.53-2.05a39.66,39.66,0,0,0-7.79-5.31,29.43,29.43,0,0,0-6.17-2.46c-.88-.2-1.17,0-1.17.82v1.5c0,6-5,9.81-13.6,9.81-7.64,0-12.85-3.06-12.85-8,0-6.41,8.59-9.27,17.12-9.27,1.47,0,2.79.07,4,.14.74.07,1-.14,1-.82,0-1.7-.22-3.34-.29-5-.23-5-.59-10.77-.59-13.91,0-4.57,0-11.52-.22-12.75s-.74-1.56-1.77-2.11h-.14a21.05,21.05,0,0,0-3.82-.48c-.81-.06-1.33-.4-1.4-1.22a1.31,1.31,0,0,1,1.1-1.5h.15a22.14,22.14,0,0,1,4-.41c3.6,0,8.08,2.25,8.08,3.88a6.52,6.52,0,0,1-.59,2.19l-.73,2c-.59,1.71-.66,4.71-.89,7.43-.07.55.15.75.67.82h1.47a36.17,36.17,0,0,0,9.55-1.3ZM23.91,481c8.81,0,10.5-2.66,10.87-8.32a.79.79,0,0,0-.74-.82,45.25,45.25,0,0,0-6.09-.4c-7,0-12.27,2.31-12.27,5.52C15.68,479.17,18,481,23.91,481Z"/><path class="cls-1" d="M14.43,519.39a1.34,1.34,0,0,1,.66-.89.84.84,0,0,1,.37-.07c.51,0,.88.14,1,.55l.07.13c1.25,2.25,2.2,3.41,3.67,3.41,1.1,0,3.16-.75,5.81-1.77,4.26-1.64,10.06-3.82,15-3.82,7.57,0,12.57,5.66,12.57,14.73,0,14.86-12.12,23.17-30.71,26.44a1.47,1.47,0,0,1-1.77-1c-.29-.75,0-1.3.89-1.5,17.33-4,26.59-11.73,26.59-24.74,0-7.37-3.3-10.91-8-10.91-4.92,0-12.34,4-15.06,5.73l-1.17.75a6,6,0,0,1-3.46,1.43c-2.05,0-5.07-2.66-5.87-4.37-.67-1.29-.59-2.31-.59-4Zm15.28-10.84A16.18,16.18,0,0,0,32,507.32c1.47-.75,1.39-1.16-.15-1.5a20.62,20.62,0,0,1-9.55-5,1.17,1.17,0,0,1-.07-1.57,1.06,1.06,0,0,1,1.54-.27A23.83,23.83,0,0,0,37,502.62a19.57,19.57,0,0,0,3.31-.27,17.06,17.06,0,0,1,2.35-.21c2.57,0,5.44,1,5.44,2.86,0,1.16-1.18,1.64-2.65,1.71a18.53,18.53,0,0,0-4.77.68c-3,.89-7.79,2.86-11.17,4.09l-1,.34a1.22,1.22,0,0,1-1.54-.61.87.87,0,0,1,.44-1.43h.15Z"/><path class="cls-1" d="M50.21,584.2c2.64,1.64,4.26,4.23,4.26,5.59,0,1.64-1.76,1.91-4.34,2.86l-1.1.41c-4,1.5-11.9,4.84-16.82,7.43C26.55,603.42,18,609.42,18,615.76c0,3.82,3.89,7,15.87,7a81.47,81.47,0,0,0,14.91-1.43,17.22,17.22,0,0,1,3.23-.41c2.28,0,4.34.55,4.34,2.73,0,1.16-1.25,1.84-2.72,2.18-2.57.61-8.23,1.57-18.59,1.57-13.22,0-20.57-4-20.57-11.18,0-6.89,7.05-13,12-16.56.59-.48.66-.89.14-1.3a13.69,13.69,0,0,1-3.08-5.32,121.88,121.88,0,0,1-3.23-14.31c-.15-.89-.44-1.3-1.77-1.77-.95-.28-2.35-.34-3.3-.55a.84.84,0,0,1-.37-.07l-.07-.06a.55.55,0,0,1-.3-.28l-.15-.2c-.07-.21-.07-.34-.14-.41v-.34a1.26,1.26,0,0,1,1.17-1.3h.15a14.16,14.16,0,0,1,3.31-.34c2.86,0,6.09,2.05,6.9,3.62a.36.36,0,0,1,0,.4l-.14,1.16a.48.48,0,0,1-.08.28,3,3,0,0,0-.22,1.63A44.3,44.3,0,0,0,27,591.22a12.3,12.3,0,0,0,3.53,5.32.82.82,0,0,0,.95.07c3.75-1.91,8.23-4.23,11.69-5.86l4.11-2c1-.55,1.18-.68.95-1.3,0-.06,0-.13-.07-.13a9.88,9.88,0,0,0-3.08-2.18.89.89,0,0,1-.52-1.37,1.53,1.53,0,0,1,1.54-.75,12.91,12.91,0,0,1,4,1.16Z"/><path class="cls-1" d="M36.84,650.59c-.37.55-.81.95-1.11,1.5-.66,1.64-1.39,3.34-2.35,6.07-.29.75,0,1.09.81,1.09a15.17,15.17,0,0,0,1.84.13c2.06.21,3,1.37,3,2.66s-1,1.77-2.86,1.91c-.59,0-2.06,0-3.24-.07a3.89,3.89,0,0,1-.73-.07.82.82,0,0,0-.88.55c-1,3.2-2,6.95-2.94,11-.15.61.14.89.73,1,1.54.06,2.94.06,4.19.06,1.1,0,2.2,0,3,.07,1.55.21,2.87.89,2.87,2.25s-.74,2-3.6,2.25c-.66.07-1.69.14-2.65.14a42.64,42.64,0,0,1-4.85-.28c-.58-.06-.88.14-.95.62a23.72,23.72,0,0,0-.44,4.7c0,6.75,4.77,9.75,11.61,9.75,9.91,0,14.18-5.8,14.18-11.11,0-6.89-4.63-11.18-11.25-15.75a1,1,0,0,1-.14-1.57,1.7,1.7,0,0,1,1.69-.27h.14C53.44,672.74,57.12,678.6,57.12,686c0,6.54-6.32,14.24-18.59,14.24-9.78,0-15.21-5.59-15.21-14.11a40.58,40.58,0,0,1,.37-5c.07-.55-.23-.82-.74-1-6.24-1.36-10-4.43-10-8.31,0-3.21,3.3-6.61,7.49-9.14,1.18-.68,1.1-1.15-.07-1.7a21.45,21.45,0,0,1-2.57-1.23c-2.65-1.43-3.9-3.4-5-6.13l-.07-.14a1.43,1.43,0,0,1,.51-1.43,1.09,1.09,0,0,1,1.55.27,14.71,14.71,0,0,0,6,5,29.44,29.44,0,0,0,7.35,1.7.71.71,0,0,0,.88-.54c.22-.61.29-1.23.51-1.84a74.87,74.87,0,0,0,2.06-7.36v-.14c0-1.5-.29-1.64-1.54-2.11a10.84,10.84,0,0,0-2.79-.75A1.39,1.39,0,0,1,26,644.86v-.13a1.41,1.41,0,0,1,1.4-1.3c.88-.07,1.76-.07,2.64-.07,3.24,0,7.65,3.41,7.65,5.32a2.06,2.06,0,0,1-.81,1.84ZM23.61,675.88c.66.07,1-.14,1-.68.66-3.62,1.54-7.37,2.35-10.36.22-.75-.07-1.09-.88-1-4.48,1-9.85,4.43-9.85,7.29C16.26,672.88,17.81,674.72,23.61,675.88Z"/></g></g></svg>