<svg xmlns="http://www.w3.org/2000/svg" viewBox="0 0 644 239"><defs><style>.cls-1{fill:none;}.cls-2{opacity:0.2;}.cls-3{fill:#3f3b52;}</style></defs><title>アセット 10</title><g id="レイヤー_2" data-name="レイヤー 2"><g id="レイヤー_2-2" data-name="レイヤー 2"><rect class="cls-1" width="644" height="239"/><g class="cls-2"><path class="cls-3" d="M69.6,134.35a51.79,51.79,0,0,1,14.5-13.8,35.18,35.18,0,0,1,19.1-5.2q10.8,0,16.2,5.5a18.54,18.54,0,0,1,5.4,13.5q0,7.2-5.4,14.3a60,60,0,0,1-13.8,12.9A77.84,77.84,0,0,1,86.9,171a61.22,61.22,0,0,1-20.3,3.6,72,72,0,0,1-19.5-2.4,43.72,43.72,0,0,1-14.4-6.8,30.31,30.31,0,0,1-9-10.4,28.28,28.28,0,0,1-3.1-13.2,35.61,35.61,0,0,1,3.9-17.2A44.2,44.2,0,0,1,34.7,112a72.94,72.94,0,0,1,14.6-9.6q8.3-4.2,16.9-8a46.09,46.09,0,0,0,5.4-2.9A8.76,8.76,0,0,0,74.7,88a17.43,17.43,0,0,0,1.5-5.7,84.74,84.74,0,0,0,.4-9.3,49.78,49.78,0,0,1,2.8-16.7,39.77,39.77,0,0,1,8.5-14,40.58,40.58,0,0,1,14.4-9.7A52.83,52.83,0,0,1,122.6,29a43,43,0,0,1,9.6,1.1,27.11,27.11,0,0,1,8.7,3.6,21,21,0,0,1,6.4,6.4,16.83,16.83,0,0,1,2.5,9.3,23.19,23.19,0,0,1-3,11.8A29,29,0,0,1,139,70a34.61,34.61,0,0,1-10.6,5.4,38.31,38.31,0,0,1-11.4,1.8,35,35,0,0,1-5.4-.4A18.89,18.89,0,0,1,108,76l.2-2.2c1.73.67,4.67,1,8.8,1A19.43,19.43,0,0,0,127.5,72a27.25,27.25,0,0,0,7.5-6.8,30.32,30.32,0,0,0,4.5-8.4A24.54,24.54,0,0,0,141,49q0-9.2-5.4-13.4t-15-4.2q-8.8,0-14.8,3.9a30.64,30.64,0,0,0-9.6,9.8A43.14,43.14,0,0,0,91,57.85a56.33,56.33,0,0,0-1.6,12.7,24,24,0,0,1-3.2,12.8Q83,88.56,76,91.75q-7.8,3.6-15.5,7.2a60.8,60.8,0,0,0-13.7,8.7,39.53,39.53,0,0,0-9.7,12.4q-3.7,7.31-3.7,18.5a30.49,30.49,0,0,0,2.6,12.2,32.65,32.65,0,0,0,7.2,10.5,36.24,36.24,0,0,0,11.1,7.3,35.7,35.7,0,0,0,14.3,2.8,57.21,57.21,0,0,0,15.2-2.2,51.58,51.58,0,0,0,14.7-6.6,38.12,38.12,0,0,0,11.1-11.1,27.9,27.9,0,0,0,4.4-15.7q0-8.81-3.6-13.4t-11.6-4.6a23.19,23.19,0,0,0-8.2,1.5,34.35,34.35,0,0,0-7.6,4,45.82,45.82,0,0,0-6.7,5.7,49.83,49.83,0,0,0-5.3,6.4Z"/><path class="cls-3" d="M336.8,61.55a12.58,12.58,0,0,0,5.5-6.7,24.15,24.15,0,0,0,1.7-8.5,8.45,8.45,0,0,0-2.7-6.5,10,10,0,0,0-7.1-2.5q-6.6,0-13.6,4.4A82.76,82.76,0,0,0,307,52.55a120.6,120.6,0,0,0-12.2,13.8q-5.6,7.4-9.6,13.4a451.66,451.66,0,0,0-24.5,43.6q-11.89,24-23.1,49.6h-1.4a115.27,115.27,0,0,0,2.4-23,162.68,162.68,0,0,0-1.2-19.8q-1.2-9.8-2.6-19.8-1.4-9.8-2.6-19.6A162.68,162.68,0,0,1,231,71q0-3.6.1-7.1c.07-2.33.1-4.77.1-7.3h-.4q-3.8,8-9.1,19.7t-12,24.7q-6.7,13-14.8,25.8a181,181,0,0,1-17.2,23.1,91.53,91.53,0,0,1-19.1,16.7,38,38,0,0,1-20.8,6.4,23.55,23.55,0,0,1-5.1-.6,20.35,20.35,0,0,1-5-1.8,11.15,11.15,0,0,1-3.8-3.2,7.76,7.76,0,0,1-1.5-4.8,7,7,0,0,1,2.2-5.3,7.54,7.54,0,0,1,5.4-2.1,5.81,5.81,0,0,1,6,6,9,9,0,0,1-.5,2.9,2.77,2.77,0,0,1-2.1,1.9,4.93,4.93,0,0,0,2,2.4q1.8,1.4,5.6,1.4,9.19,0,18.3-6.1a91.22,91.22,0,0,0,17.8-16.1,177.19,177.19,0,0,0,16.8-23.1q8.1-13.1,15.4-26.9T223,70.05q6.41-13.69,11.4-25.1c.27-1.33.63-2.9,1.1-4.7a22.15,22.15,0,0,1,2.1-5.2,15.62,15.62,0,0,1,3.5-4.3A7.29,7.29,0,0,1,246,29a28.58,28.58,0,0,1-1.6,4.1,29.3,29.3,0,0,0-1.8,5.1,62.78,62.78,0,0,0-1.4,7.3,83.3,83.3,0,0,0-.6,11.1,111,111,0,0,0,1.2,16.3q1.2,8.1,2.6,16.7t2.6,17.8a151.72,151.72,0,0,1,1.2,19.6,94.32,94.32,0,0,1-.8,12,96.62,96.62,0,0,1-2.8,13.4l.4.4q3.6-8,8.2-17.9t9.7-19.9q5.1-10,10.5-19.6t10.2-17q7-10.6,14-19.3a135.84,135.84,0,0,1,14-15.1,64.41,64.41,0,0,1,13.8-9.9,28.79,28.79,0,0,1,13.2-3.5q6.79,0,10.9,3.7a12,12,0,0,1,4.1,9.3,14.55,14.55,0,0,1-1.5,6.6,22.4,22.4,0,0,1-3.9,5.5,25.86,25.86,0,0,1-5.4,4.3,30.5,30.5,0,0,1-6,2.8Z"/><path class="cls-3" d="M421.6,30a86.46,86.46,0,0,0-18.2,19.1,151.93,151.93,0,0,0-12.9,22.5A261.32,261.32,0,0,0,380.6,96q-4.41,12.6-9.3,24.8a234.6,234.6,0,0,1-11.1,23.7,101.4,101.4,0,0,1-15.4,21.3l.4.4q11.79-7,22.3-13.5T387.6,140q25.2-16.2,39.8-31t22-27.1q7.39-12.3,9.4-21.5a71.83,71.83,0,0,0,2-13.8,5.39,5.39,0,0,1-3.5-2.6,9.78,9.78,0,0,1-.9-4.4,7.53,7.53,0,0,1,7.8-7.8q5.19,0,7.1,3.5a19.57,19.57,0,0,1,1.9,9.3,42.33,42.33,0,0,1-3.7,16.5,89.49,89.49,0,0,1-10.2,17.6,179.72,179.72,0,0,1-15.1,17.9q-8.61,9-18.3,17.4t-20.2,16q-10.5,7.61-20.5,13.8l-23.6,14.4Q349.8,165.35,337,173l-1-1a131.82,131.82,0,0,0,12.1-21.9q5.1-11.7,9.5-24.1t8.9-24.8a218,218,0,0,1,10.3-23.9,122.17,122.17,0,0,1,13.8-21.5A81,81,0,0,1,410,38.35l-.4-.4a77,77,0,0,1-18.2,6.7q-9.81,2.3-20,5.1a143.94,143.94,0,0,0-14.3,4.8,65.59,65.59,0,0,0-14.3,7.7,47,47,0,0,0-11.1,11A24.63,24.63,0,0,0,327.2,88q0,7,4.4,10.8a15.41,15.41,0,0,0,10.4,3.8,17.9,17.9,0,0,0,7.1-1.5,21.5,21.5,0,0,0,6.2-4,18.44,18.44,0,0,0,4.3-6.1,19.09,19.09,0,0,0,1.6-7.8v-3.6a16.1,16.1,0,0,0-.4-3.4H363c.13,1.07.26,2.2.4,3.4a37.24,37.24,0,0,1,.2,4,19.42,19.42,0,0,1-1.7,8,22.77,22.77,0,0,1-4.7,6.8,23,23,0,0,1-7.1,4.8,21.45,21.45,0,0,1-8.7,1.8,20.86,20.86,0,0,1-14.1-4.9q-5.7-4.9-5.7-13.5,0-9.4,4.9-15.9a44.5,44.5,0,0,1,12.1-11,74.26,74.26,0,0,1,15.4-7.3q8.19-2.81,14.8-4.6,5.19-1.61,12.1-3.1t13.9-3.5a112.32,112.32,0,0,0,13.7-4.9A44.23,44.23,0,0,0,420.2,29Z"/><path class="cls-3" d="M627.2,32.15l-85.81,132q-9,12.6-18.6,24.4a169.18,169.18,0,0,1-20.2,21,96.26,96.26,0,0,1-22.39,14.7,58.58,58.58,0,0,1-25,5.5,50.06,50.06,0,0,1-12.7-1.6,33.32,33.32,0,0,1-10.8-4.9,24.75,24.75,0,0,1-7.5-8.3,23.76,23.76,0,0,1-2.81-11.8,22.76,22.76,0,0,1,2-9.7,22.29,22.29,0,0,1,5.2-7.2,22.87,22.87,0,0,1,7.5-4.5,24.73,24.73,0,0,1,8.7-1.6,29.57,29.57,0,0,1,9.41,1.6,35.63,35.63,0,0,1,8.19,3.8l-.8,1.6c-2.26-.94-4.59-1.8-7-2.6a22.6,22.6,0,0,0-7.2-1.2q-5.79,0-10.5,5.2t-4.69,16q0,10.59,7.09,16.7t18.5,6.1a37.49,37.49,0,0,0,18.6-5.2,85.28,85.28,0,0,0,17.81-13.7,183.3,183.3,0,0,0,16.69-19.1q8.1-10.6,15.31-21.4t13.5-20.8q6.28-10,11.5-17l-.41-.4q-5.79,7-13.5,14.7a151.27,151.27,0,0,1-16.09,14,102.51,102.51,0,0,1-16.91,10.4A37.15,37.15,0,0,1,488.2,173q-8.81,0-12.81-4t-4-11.6q0-6.19,4.9-15.4a215.63,215.63,0,0,1,12.21-19.9q7.29-10.69,15.89-22.3t15.9-22.6a211.5,211.5,0,0,0,12.21-20.6q4.89-9.6,4.89-16.2a8.78,8.78,0,0,0-2.5-6.5c-1.66-1.67-4.1-2.5-7.3-2.5-5.59,0-11.8,1.47-18.59,4.4a78.47,78.47,0,0,0-19.11,11.8A72.43,72.43,0,0,0,475,64.35a35.6,35.6,0,0,0-6,19.4,17.42,17.42,0,0,0,2.89,10.3q2.91,4.1,9.11,4.1a27.74,27.74,0,0,0,8.39-1.2,26.19,26.19,0,0,0,6.9-3.3,33.12,33.12,0,0,0,5.71-4.9c1.73-1.87,3.39-3.8,5-5.8l1.59.2a47,47,0,0,1-11.7,12.2,27.46,27.46,0,0,1-16.69,5.2q-8.42,0-12-5.3a20.62,20.62,0,0,1-3.61-11.9q0-9.19,6.2-18.8a78.89,78.89,0,0,1,15.6-17.5,88.79,88.79,0,0,1,20.7-13,52.73,52.73,0,0,1,21.7-5.1q9.62,0,14.5,3.9t4.91,12.9q0,6.2-4.91,15.6a215.74,215.74,0,0,1-12.2,20.3q-7.29,10.91-15.89,22.6t-15.91,22.5a228.07,228.07,0,0,0-12.2,20q-4.89,9.19-4.89,15,0,5.2,2.39,7a8.25,8.25,0,0,0,5,1.8q6.41,0,15.61-4.7a111.12,111.12,0,0,0,19.09-12.7,179.24,179.24,0,0,0,19.6-18.6,179.69,179.69,0,0,0,17.5-22.4l52.2-80Z"/></g><path class="cls-3" d="M257.88,83c-.28-1-1.54-1.19-3.85-1.4-.84-.07-1.19-.56-1.19-1.4A1.37,1.37,0,0,1,254,78.71a13.41,13.41,0,0,1,2.87-.35c3.22,0,6.86,3,6.86,4.48a2.11,2.11,0,0,1-.49,1.54,3.38,3.38,0,0,0-.84,2.24c-.21,2.24-.28,5.53-.35,8.4,0,.7.28,1,1,.91,4.55-.49,6.58-.63,7.91-.84a11.72,11.72,0,0,1,2-.21c2.59,0,6.44,1.4,6.44,3.5,0,1.12-.35,1.82-1.75,1.82-.49,0-1.12-.07-1.89-.14a46.09,46.09,0,0,0-6.79-.42c-1.75,0-3.85.07-6.16.14-.56.07-.77.28-.77.84-.35,8-.77,16.74-5.11,22.83-2.73,3.85-8.33,8.47-16,11.55a1.52,1.52,0,0,1-2-.63c-.56-.84-.42-1.54.49-1.89h.14c5.18-2.59,10.64-6.3,14.07-11.48S258,108.53,258,101c0-.63-.28-.91-.91-.84-4.55.28-9,.7-13.16,1.19-.56.07-.77.28-.77.84,0,5.25-.07,10.36-.07,12,0,3.08-.49,4.27-1.89,4.27-1.82,0-2.73-3-2.73-5a14.23,14.23,0,0,1,.28-3,70.55,70.55,0,0,0,.77-7.77c0-.7-.28-.91-1-.84q-4.09.53-6.51,1.05l-1,.21c0,.07-1.47.42-2.1.63h-.14a7.87,7.87,0,0,1-2.73.7c-1.61,0-4.62-3.22-5.32-4.9a14,14,0,0,1-.42-3.29,1.09,1.09,0,0,1,.63-1c.14-.07.14-.07.21-.07a1,1,0,0,1,1.12.49v.14c1.12,1.82,2.24,3.5,3.64,3.5,2.45,0,8-.7,12.11-1.05l.77-.07c.49-.07.7-.28.7-.77a70.9,70.9,0,0,0-.49-9.8c-.28-1-1.4-1.33-3.64-1.54a1.14,1.14,0,0,1-1.12-1.26,1.33,1.33,0,0,1,1.12-1.47A14,14,0,0,1,238,83c2.17,0,6.3,2.1,6.3,4.06a2.84,2.84,0,0,1-.35,1.47v.14a4.69,4.69,0,0,0-.56,2v.14a35.39,35.39,0,0,0-.21,6c0,.63.28.91.91.84l13.51-1.33c.35-.07.42-.14.42-.49v-.49c0-2.73.07-5,.07-6.86a53.51,53.51,0,0,0-.21-5.39Z"/><path class="cls-3" d="M342.58,94.6c2.52,0,6.44,1.75,6.44,3.71,0,1-.28,1.89-2,1.89a15.92,15.92,0,0,1-1.68-.07c-1.33-.07-3.15-.28-5.11-.28-2.73,0-7.56,0-13.09.49-1,.07-1.12.42-.35,1.19a3,3,0,0,1,.84,1.89,2.09,2.09,0,0,1-.91,1.75,4.78,4.78,0,0,0-1.26,1.61c-2.24,7.14-6,18.91-22.19,28.57a1.72,1.72,0,0,1-2.24-.28,1.06,1.06,0,0,1,.21-1.82c16.45-11.2,20-26.54,20-29.69a3.43,3.43,0,0,0-.91-2.24c-.21-.21-.35-.35-.7-.28-6,.77-12.46,1.75-14.49,2.31-.63.21-1.12.28-1.68.49a10.49,10.49,0,0,1-3.57.84c-1.4,0-4.48-2.59-5.46-4.76a10.23,10.23,0,0,1-.49-2.87,1,1,0,0,1,.7-1h.14a.92.92,0,0,1,1.05.28l.07.14c1.12,1.61,2.38,3.22,3.85,3.22,2.59,0,8.75-.77,15.75-1.61,6.16-.77,13.58-1.61,19.81-2.17a37.19,37.19,0,0,0,5.67-1l1.47-.28Zm-37-12.95a1.2,1.2,0,0,1,1.68,0c2.17,1.61,3.64,2.31,5.67,2.31a60.09,60.09,0,0,0,12.46-1.54A23.78,23.78,0,0,0,329.84,81a5.26,5.26,0,0,1,2.17-.56c2.73,0,5.11,1.12,5.11,2.8,0,1.12-1,2-3.29,2.31-.49.07-.91.21-1.47.28-5.46.91-14.35,2.38-19.6,2.38-3.15,0-5.18-1.75-7.49-4.83-.42-.63-.35-1.19.14-1.54Z"/><path class="cls-3" d="M373.73,98.8c4,0,24.5-2.52,29.82-3.36a4.92,4.92,0,0,0,2.1-.7,3.63,3.63,0,0,1,1.4-.56c2,0,5.95,3.64,5.95,5.25,0,1-.84,1.54-1.61,2.1a5.13,5.13,0,0,0-1.68,1.47c-7.07,13.79-16.94,24.93-33.81,32.07a1.44,1.44,0,0,1-2-.63,1.19,1.19,0,0,1,.56-1.89c14.77-7.91,25.62-19.12,31.29-33.05.21-.49.07-.63-.63-.56-6.16.56-21.63,2.8-26.46,3.71a12.11,12.11,0,0,0-2.38,1,5.24,5.24,0,0,1-2.24.7c-1.33,0-4.55-2.66-5.32-4.41a12.29,12.29,0,0,1-1-3.22,1.38,1.38,0,0,1,.63-1.33.53.53,0,0,1,.28-.07,1.1,1.1,0,0,1,1.26.42C371.07,97.61,372.05,98.8,373.73,98.8Zm1.54-16.1a.87.87,0,0,1,.21-1.4,1.27,1.27,0,0,1,1.61-.07c2.24,1.61,3.71,2.38,5.74,2.38A50.32,50.32,0,0,0,394,82.14a20.25,20.25,0,0,0,4.55-1.47,5.42,5.42,0,0,1,2.24-.63c2.73,0,5.11,1,5.11,2.73,0,1.12-1.19,1.89-3.36,2.31-5,.91-14,2.59-19.81,2.59-3.08,0-5.18-1.47-7.42-4.83Z"/><path class="cls-3" d="M231,162.81a1.69,1.69,0,0,1-.36.12c-.21.06-.33.15-.33.36a37.35,37.35,0,0,1-1.77,10.29.33.33,0,0,0,.12.42c1.65,1.47,2.22,2.85,2.22,3.72s-.54,1.29-1.23,1c-.18-.06-.27-.18-.36-.42a8.7,8.7,0,0,0-1.26-2.07c-.24-.33-.42-.3-.6,0a16.14,16.14,0,0,1-5.07,5.88.4.4,0,0,1-.6-.09c-.15-.24-.15-.45,0-.57l.06-.06a19.41,19.41,0,0,0,4.62-6.75.32.32,0,0,0-.09-.39c-.51-.51-1.11-1.05-1.71-1.62-.3-.3-.48-.24-.57.18l-.12.63,0,.21c0,.06,0,.12-.06.18l-.15.15c0,.12-.12.15-.21.18a1.79,1.79,0,0,1-.78.09.63.63,0,0,1-.57-.87c.63-2.49,1.41-6.42,2-10.17.06-.3-.06-.42-.36-.42h-1.26a.72.72,0,0,1-.75-.63c-.09-.39.09-.6.48-.6h1.83a.34.34,0,0,0,.36-.3c.27-1.95.51-3.87.66-5.31a.69.69,0,0,1,.87-.69l1.11.13c.54.05.81.44.54.8l-.06.06a.65.65,0,0,1-.48.27.42.42,0,0,0-.33.33c-.15,1.2-.39,2.61-.63,4.29-.06.3.06.42.36.42h1.65a.33.33,0,0,0,.27-.12l.42-.45a.75.75,0,0,1,1.11,0l1,.93c.33.33.33.66.06.9Zm-4.8,0a.34.34,0,0,0-.36.3c-.39,2.67-.87,5.4-1.35,7.92,0,.18,0,.27.21.36.72.45,1.35.75,2,1.14.27.21.45.12.54-.18a41.29,41.29,0,0,0,1.26-9.15c0-.27-.09-.39-.36-.39Zm4.29,19.74a.54.54,0,0,1-.69,0c-.24-.15-.24-.39,0-.63,3.09-3.15,4.14-7,4.38-11,0-.69-.18-.81-.63-.21s-1.08,1.35-1.71,2.1a.34.34,0,0,0-.09.24l-.09.42-.06.06c-.09.24-.42.21-.66,0l-.78-.9a.72.72,0,0,1,.12-1.17l3.84-2.91c.09-.09.15-.15.15-.27v-8.85c0-.72.42-.93,1-.66l.9.42a.38.38,0,0,0,.18,0h4.26c.27,0,.36-.09.36-.36V156a.71.71,0,0,1,.81-.78h.06l1.08.09h.06c.45.12.78.42.51.78l-.06.06a.85.85,0,0,1-.42.27.39.39,0,0,0-.27.39v1.92c0,.27.09.36.36.36h2.76c.12,0,.18-.06.27-.15l.69-.87a.68.68,0,0,1,1-.09c.45.33,1,.81,1.56,1.32a.53.53,0,0,1,.12.72.82.82,0,0,1-.72.3H236.27c-.27,0-.36.09-.36.36v7c0,5-.57,10.8-5.4,14.73Zm2.22-16.38a.72.72,0,0,1-.21-.54,7.68,7.68,0,0,0-.6-2.49,13.77,13.77,0,0,0-1.2-2.4c-.12-.21-.09-.36.12-.42h.06a.46.46,0,0,1,.51.06c2.16,1.68,2.82,3.33,2.82,4.5s-.69,1.71-1.44,1.35Zm1.17,16.23a.39.39,0,0,1,.18-.63c4.77-2.55,6.54-5.76,7.17-9.63.06-.3,0-.42-.33-.42h-3.93a.72.72,0,0,1-.75-.63c-.09-.39.09-.6.48-.6h4.44c.21,0,.3-.09.33-.3.15-1.35.18-2.7.21-4.23,0-.27-.09-.36-.36-.36h-1.53a.33.33,0,0,0-.3.21,15.49,15.49,0,0,1-2.49,3.81.61.61,0,0,1-.48.09l-.18-.09a.47.47,0,0,1,0-.48,24.61,24.61,0,0,0,2.67-7.68.7.7,0,0,1,1-.63l1.2.3c.48.12.66.45.42.81l-.06.06a2.3,2.3,0,0,1-.51.21.4.4,0,0,0-.27.27q-.23.77-.45,1.35c-.15.36,0,.51.33.51h4.5c.12,0,.18-.06.27-.15l.63-.75a.76.76,0,0,1,1.11-.12c.39.33.9.75,1.38,1.23l.06.06a.47.47,0,0,1,.12.66.87.87,0,0,1-.72.33h-4.23c-.24,0-.33.09-.36.33,0,1.53-.06,2.82-.18,4.14,0,.3.06.42.36.42h2.37c.12,0,.18-.06.27-.15l.6-.78a.72.72,0,0,1,1.14-.12c.39.33.93.78,1.41,1.23.24.24.3.48.15.69v.06a.73.73,0,0,1-.69.3h-5.13c-.33,0-.45.12-.36.45a13.87,13.87,0,0,0,6,8.88l.06,0a.59.59,0,0,1,.18.42.23.23,0,0,1,0,.12.64.64,0,0,1-.33.3l-.09,0a1,1,0,0,0-.63.3c-.36.36-.72.57-1.2.18a14.79,14.79,0,0,1-4.23-7.59c-.24-.93-.48-.93-.84,0a13.41,13.41,0,0,1-7.56,7.8c-.33.15-.57.09-.72-.15Z"/><path class="cls-3" d="M264.05,163c-.15-.39,0-.63.48-.63h2.79a.29.29,0,0,0,.33-.27c.48-2.19.87-4.35,1.2-6a.68.68,0,0,1,.93-.63l1.14.24c.51.09.78.51.42.87a1.31,1.31,0,0,1-.54.27.33.33,0,0,0-.33.3l-1,4.77c-.06.33,0,.45.33.48h2.46a.33.33,0,0,0,.27-.12l.42-.45a.75.75,0,0,1,1.11,0l1.08,1c.36.36.33.78-.06.93-.12,0-.24.09-.39.12a.32.32,0,0,0-.3.3,36.08,36.08,0,0,1-2.34,9.69.3.3,0,0,0,.12.42c1.95,1.65,2.64,3.3,2.64,4.35s-.51,1.38-1.2,1.14a.23.23,0,0,1-.12,0,.94.94,0,0,1-.33-.42v-.06a10,10,0,0,0-1.8-3c-.18-.27-.36-.27-.57.06a17.36,17.36,0,0,1-6.15,5.88.4.4,0,0,1-.57-.12.39.39,0,0,1,.06-.57,17.53,17.53,0,0,0,5.61-6.57.3.3,0,0,0-.09-.42c-.84-.75-1.59-1.38-2.4-2-.27-.21-.42-.12-.54.21l-.39,1.32a.64.64,0,0,1-.3.39c-.06,0-.06,0-.09,0a2.47,2.47,0,0,1-.81.06.63.63,0,0,1-.57-.9c.75-2.49,1.8-6.09,2.64-9.54.09-.33,0-.45-.36-.45h-2a.69.69,0,0,1-.75-.57Zm5.28.63a.29.29,0,0,0-.33.27c-.6,2.43-1.17,4.86-1.8,7.11a.34.34,0,0,0,.18.45,22,22,0,0,1,2.79,1.38c.27.15.42.09.54-.18a36.21,36.21,0,0,0,1.8-8.64c0-.27-.09-.39-.36-.39Zm14.31-5a.33.33,0,0,0-.36.27A32.87,32.87,0,0,1,280,167c-.06.12,0,.18.09.24l.09.06s.09,0,.15.06h7.08c.12,0,.18-.06.27-.15l.39-.45a.71.71,0,0,1,1.08-.09l1.17.9.06,0c.33.36.39.75,0,1l-.06.06a1.41,1.41,0,0,1-.45.18c-.18.09-.3.18-.3.39v12.45l0,.15a2.13,2.13,0,0,1-1.38.72h-.06l-.06,0a.19.19,0,0,1-.18-.12l0-.06a.38.38,0,0,1,0-.18v-1.89c0-.27-.09-.36-.36-.36h-7.14c-.27,0-.36.09-.36.36V182a1.39,1.39,0,0,1-1.35.78h-.06l-.06,0a.19.19,0,0,1-.18-.12l0-.06a.43.43,0,0,1-.06-.18V171.12c0-.72-.24-.81-.66-.21a32.49,32.49,0,0,1-3.3,3.72.49.49,0,0,1-.6.06l-.06-.06a.45.45,0,0,1,0-.6,38.84,38.84,0,0,0,7.56-15c.09-.33,0-.45-.36-.45h-5.49a.77.77,0,0,1-.75-.6l0-.06a.47.47,0,0,1,.51-.57H287.6a.37.37,0,0,0,.3-.15,9.72,9.72,0,0,1,.72-.93.78.78,0,0,1,1.11-.12l1.65,1.44c.15.15.24.42.15.54v.06a.74.74,0,0,1-.75.39Zm-3.3,10c-.27,0-.36.09-.36.36v9.33c0,.27.09.36.36.36h7.14c.27,0,.36-.09.36-.36V169c0-.27-.09-.36-.36-.36Z"/><path class="cls-3" d="M312.35,178.11c-2,0-4.08-3.15-4.08-6.93a11.48,11.48,0,0,1,3.93-8.46,12.75,12.75,0,0,1,8.73-3.24c6.06,0,10.83,4,10.83,10.26,0,4.77-2.85,10-12.27,10.83a.58.58,0,0,1-.63-.51.49.49,0,0,1,.45-.63c7.08-1.29,10.47-4.71,10.47-10.11,0-5.19-4-8.49-8.94-8.49a2.13,2.13,0,0,0-.42,0c-.24,0-.33.12-.18.33a4.81,4.81,0,0,1,.78,2.55,15.33,15.33,0,0,1-.93,4.8C318.89,172.11,315.32,178.11,312.35,178.11Zm6.12-10.05a12.49,12.49,0,0,0,1-4.41,5,5,0,0,0-.63-2.37.33.33,0,0,0-.39-.18A12.07,12.07,0,0,0,313,164a9.5,9.5,0,0,0-3.12,6.87c0,2.91,1.32,5,2.49,5C314.33,175.8,317.21,171.06,318.47,168.06Z"/><path class="cls-3" d="M371.78,158a.33.33,0,0,0,.27-.12l.78-1a.67.67,0,0,1,1.08-.09l1.71,1.44a.51.51,0,0,1,.15.75.82.82,0,0,1-.72.3H352.79c-.27,0-.36.09-.36.36v6.33c0,4.92-.18,11.52-3.54,16.32v0c-.12.21-.33.24-.6.09a.4.4,0,0,1-.12-.57c2.31-4.8,2.49-10.59,2.49-15.84v-7.77c0-.72.42-.93,1-.66l.9.42a.38.38,0,0,0,.18,0h8.55c.27,0,.36-.09.36-.36v-1.77a.69.69,0,0,1,.87-.78l1.2.15c.48.06.87.45.54.81a1.46,1.46,0,0,1-.54.33c-.18.09-.3.18-.3.39v.87c0,.27.09.36.36.36ZM371,176.31c-.06,0-.09,0-.15.09a1.29,1.29,0,0,1-.87.48.33.33,0,0,0-.27.21l-.33.75q-.27.58.36.54l.87,0c.42,0,.51-.24.24-.48l-.48-.51a.28.28,0,0,1,0-.45l.09,0a.64.64,0,0,1,.57,0c1.74.69,2.34,1.74,2.34,2.46a.79.79,0,0,1-1.08.81c-.06,0-.15-.06-.18-.12l-.12-.18-.06-.06-.06-.27a.32.32,0,0,0-.36-.15l-1.35.24L368,180a.63.63,0,0,0-.24.18l-.24.21c-.3.15-.51.09-.63-.27l-.33-.84c-.21-.51,0-.81.57-.81.21,0,.36,0,.57,0a.33.33,0,0,0,.33-.24,13.63,13.63,0,0,0,.48-2,.71.71,0,0,1,.87-.63l1.11.18c.15,0,.21,0,.21-.18s-.06-.21-.21-.21h-4.38c-.27,0-.36.09-.36.36v4.65c0,.3.09.33,1.26.33h3.36c1.47,0,2.73,0,3.21-.06a.63.63,0,0,0,.54-.33,8.31,8.31,0,0,0,.6-2c0-.18.15-.24.33-.24a.22.22,0,0,1,.24.24l.09,1.86c0,.15.09.24.24.33a.78.78,0,0,1,.54.72c0,.87-.87,1.17-5.82,1.17H366.8c-2.31,0-2.76-.42-2.76-1.77v-4.92c0-.27-.09-.36-.36-.36h-1.92a.29.29,0,0,0-.33.27c-1.05,4.2-4,6-9.09,7.08-.3.06-.51,0-.57-.3v-.06a.36.36,0,0,1,.27-.51c4.44-1.23,6.63-3,7.44-6,.09-.33,0-.45-.33-.45h-1.59c-.27,0-.36.09-.36.36v.66c0,.24-.66.69-1.35.69h-.06l-.06,0a.19.19,0,0,1-.18-.12l0-.06a.38.38,0,0,1,0-.18v-8.1c0-.66.33-.81.9-.57l.87.36s.06,0,.12,0h3.54a.38.38,0,0,0,.33-.18c.15-.39.39-.84.54-1.29a.74.74,0,0,1,.93-.51h.06l1.05.33c.51.15.72.57.36.84a1.75,1.75,0,0,1-.66.24c-.12,0-.18.06-.27.15l-.18.18c-.21.18-.18.24.06.24h7.17a.33.33,0,0,0,.27-.12l.39-.42a.82.82,0,0,1,1-.09l1.08.87h0c.39.36.42.75.06,1h-.06l-.48.21a.33.33,0,0,0-.24.33v5.25a.18.18,0,0,1,0,.12v0a.21.21,0,0,1-.12.15,3,3,0,0,1-1,.54Zm-13.35-10.92c0-.66-.21-.75-.66-.27a19.15,19.15,0,0,1-3.9,2.91.44.44,0,0,1-.63-.12.47.47,0,0,1,.12-.66,14.64,14.64,0,0,0,3.75-3.84c.24-.3.12-.51-.3-.51h-2.25a.69.69,0,0,1-.75-.6c-.09-.39.09-.6.48-.6h3.78c.27,0,.36-.09.36-.36V160a.69.69,0,0,1,.87-.78l1,.12c.45.06.75.39.51.75l-.06.06a.84.84,0,0,1-.36.24.39.39,0,0,0-.27.39v.57c0,.27.09.36.36.36h.51c.12,0,.18-.06.27-.15l.51-.63a.76.76,0,0,1,1.08-.12c.36.33.81.69,1.26,1.08a.66.66,0,0,1,.15.63s0,0,0,.09a.83.83,0,0,1-.69.3h-3.27c-.12,0-.15,0-.15.15s.06.15.15.18c2.4.48,3.18,1.56,3.18,2.28a.82.82,0,0,1-1.08.81l-.15-.06-.27-.27a10.51,10.51,0,0,0-1.26-1.38c-.33-.33-.57-.21-.57.27v2.61c0,.24-.69.6-1.26.6h-.18a.22.22,0,0,1-.24-.24Zm-.48,5.49c0,.27.09.36.36.36h5.07c.27,0,.36-.09.36-.36V170c0-.27-.09-.36-.36-.36h-5.07c-.27,0-.36.09-.36.36Zm0,2.94c0,.27.09.36.36.36h5.07c.27,0,.36-.09.36-.36v-1c0-.27-.09-.36-.36-.36h-5.07c-.27,0-.36.09-.36.36Zm14.25-10.92c-.54,0-.66.24-.21.57a18.79,18.79,0,0,0,4.17,2.28l.09,0a.51.51,0,0,1,.21.39v.06a.44.44,0,0,1-.33.36,1.31,1.31,0,0,0-.57.36c-.36.36-.78.6-1.29.27a13.73,13.73,0,0,1-3.18-2.91c-.48-.66-.72-.57-.72.21v2.85c0,.24-.66.57-1.29.57h-.18a.22.22,0,0,1-.24-.24v-2.82c0-.54-.21-.66-.63-.27a15.38,15.38,0,0,1-3.24,2.1.54.54,0,0,1-.72-.15l-.06-.06a.55.55,0,0,1,.18-.66,11.88,11.88,0,0,0,2.82-2.4c.33-.33.21-.54-.24-.54h-1.38a.69.69,0,0,1-.75-.6c-.09-.39.09-.6.48-.6h3.18c.27,0,.36-.09.36-.36v-1.17a.69.69,0,0,1,.87-.78l1,.09h.06c.42.12.72.42.57.78l-.06.06a2.14,2.14,0,0,1-.45.24.39.39,0,0,0-.27.39v.39c0,.27.09.36.36.36h2.25c.12,0,.18-.06.27-.15a5.42,5.42,0,0,1,.54-.69.69.69,0,0,1,1.08-.09c.36.33.81.72,1.29,1.11a.49.49,0,0,1,.15.69.87.87,0,0,1-.72.33Zm-6.75,8c0,.27.09.36.36.36h5.28c.27,0,.36-.09.36-.36V170c0-.27-.09-.36-.36-.36h-5.28c-.27,0-.36.09-.36.36Zm.36,1.62c-.27,0-.36.09-.36.36v1c0,.27.09.36.36.36h5.28c.27,0,.36-.09.36-.36v-1c0-.27-.09-.36-.36-.36Z"/><path class="cls-3" d="M413.72,163c.12,0,.18-.06.27-.15l.93-1.08a.75.75,0,0,1,1.08-.12,22.65,22.65,0,0,1,1.83,1.5l.06,0a.51.51,0,0,1,.12.69.84.84,0,0,1-.75.36h-5.13c-.21,0-.27.09-.33.27-1,4.32-2.22,7.59-4.29,10.35-.21.24-.18.42.12.57,6.51,2.73,8.43,5.19,8.43,6.48,0,.66-.48,1-1.11.81a.33.33,0,0,1-.15,0l-.18-.12-.06-.06a35,35,0,0,0-8.46-5.76.29.29,0,0,0-.39.06c-3.12,2.91-7.74,4.83-14.55,6a.47.47,0,0,1-.57-.39.35.35,0,0,1,.3-.51c5.88-1.29,9.9-3,12.87-5.7.27-.24.24-.42-.09-.57-1.95-.84-4.29-1.74-6.54-2.46a.28.28,0,0,0-.36.12l-.12.27-.48.9v.06a.55.55,0,0,1-.39.3,2.21,2.21,0,0,1-1,0c-.54-.09-.66-.57-.42-1a98.33,98.33,0,0,0,4.35-9c.15-.36,0-.51-.33-.51h-7.05a.77.77,0,0,1-.75-.6l0-.06a.47.47,0,0,1,.51-.57h8.13a.34.34,0,0,0,.33-.21,74.4,74.4,0,0,0,2.7-7.05.72.72,0,0,1,.9-.57l1.32.27c.51.09.78.48.45.84a1.35,1.35,0,0,1-.66.3.41.41,0,0,0-.3.24c-.57,1.44-1.32,3.36-2.31,5.67-.15.36,0,.51.33.51Zm-12.57,1.23a.34.34,0,0,0-.33.21c-1.11,2.55-2.19,5-3.3,7.32-.12.27-.06.42.21.51,2.85.75,5.22,1.44,7.38,2.19a.3.3,0,0,0,.39-.12c2.07-2.55,3.27-5.67,4.2-9.66.06-.33,0-.45-.36-.45Z"/></g></g></svg>