<svg xmlns="http://www.w3.org/2000/svg" viewBox="0 0 612 239"><defs><style>.cls-1{fill:none;}.cls-2{opacity:0.2;}.cls-3{fill:#3f3b52;}</style></defs><title>アセット 9</title><g id="レイヤー_2" data-name="レイヤー 2"><g id="レイヤー_2-2" data-name="レイヤー 2"><rect class="cls-1" width="612" height="239"/><g class="cls-2"><path class="cls-3" d="M167.81,133.61q-6.8,6.4-17.1,15.7t-21.2,19.3q-10.89,10-20.7,19.6T93,204.81a33.35,33.35,0,0,1-5.8,10q-3.6,4.2-7,4.2c-1.73,0-2.6-.74-2.6-2.2a3.72,3.72,0,0,1,.8-2.4c.54-.67,1.1-1.34,1.7-2a11.75,11.75,0,0,0,1.6-2.3,6.42,6.42,0,0,0,.7-3.1,27.25,27.25,0,0,0-2.2-11.3,23.6,23.6,0,0,0-6.1-8.3,25.65,25.65,0,0,0-9.2-5.1,36.57,36.57,0,0,0-11.3-1.7,21.52,21.52,0,0,0-5.7,1.1q-3.69,1.09-8.3,2.7t-9.7,2.9a39.59,39.59,0,0,1-9.7,1.3,9.64,9.64,0,0,1-4.1-.8,2.58,2.58,0,0,1-1.7-2.4q0-1.6,2.4-2.7a29.44,29.44,0,0,1,6.2-1.9,72.51,72.51,0,0,1,8.3-1.2q4.5-.41,8.9-.7c2.94-.2,5.6-.33,8-.4s4.2-.17,5.4-.3A46.09,46.09,0,0,0,72,166.71,134.17,134.17,0,0,0,88.21,147q7.8-11.4,15.6-24.9T120.21,95a47.83,47.83,0,0,1-11.8-3.5,36.22,36.22,0,0,1-9.9-6.5,30.41,30.41,0,0,1-6.8-9.3A27.19,27.19,0,0,1,89.21,64a20.12,20.12,0,0,1,1.7-8.1,21.79,21.79,0,0,1,4.5-6.7,21.86,21.86,0,0,1,15.2-6.2,29.14,29.14,0,0,1,7.3.9,29.86,29.86,0,0,1,5.9,2.1l-.8,2.2a27,27,0,0,0-5.6-2,28.45,28.45,0,0,0-7-.8,18.27,18.27,0,0,0-7.7,1.6,17.61,17.61,0,0,0-5.9,4.3,21.93,21.93,0,0,0-3.8,6,17.06,17.06,0,0,0-1.4,6.7,23.47,23.47,0,0,0,2.5,10.6,31.08,31.08,0,0,0,6.7,8.9,34.87,34.87,0,0,0,21.2,9.1,145,145,0,0,1,13.5-17.4,127.25,127.25,0,0,1,17.3-16,93.85,93.85,0,0,1,19.8-11.7,52.94,52.94,0,0,1,21.2-4.5q7.6,0,12.1,3.4t4.5,10.6q0,6.6-5.2,13.6a54.07,54.07,0,0,1-14.3,12.9,83,83,0,0,1-21.5,9.6,92.44,92.44,0,0,1-26.6,3.7c-2.26,0-4.2,0-5.8-.1s-3.26-.17-5-.3q-7.39,11.6-14.9,23.9a221.7,221.7,0,0,1-16.4,23.4A151.77,151.77,0,0,1,81.11,164a84.46,84.46,0,0,1-24.5,14.6l.4.4c1.07-.13,2.24-.27,3.5-.4a42,42,0,0,1,4.5-.2q13.6,0,20.3,6.6a27.69,27.69,0,0,1,8.1,16.2q8-9,17.2-17.8t18.8-17.4l19.1-17.1q9.51-8.5,18.3-16.5Zm23.8-88.2a36.21,36.21,0,0,0-17.8,4.9,79.66,79.66,0,0,0-16.4,12.2,126,126,0,0,0-13.9,15.8A173,173,0,0,0,133,94c1.47.13,3,.23,4.6.3s3.47.1,5.6.1a87.87,87.87,0,0,0,19.5-2.4,82.68,82.68,0,0,0,19.6-7.1,51.44,51.44,0,0,0,15.2-11.6,23.54,23.54,0,0,0,6.1-16.1q0-5.8-3.1-8.8T191.61,45.41Z"/><path class="cls-3" d="M323.41,132.81a39.24,39.24,0,0,1-6.9,5.8,50.57,50.57,0,0,1-8.1,4.4,52.06,52.06,0,0,1-8.4,2.8,34.88,34.88,0,0,1-8,1,44.09,44.09,0,0,1-11-1.2,72.26,72.26,0,0,1-8.6-2.8,127.83,127.83,0,0,1-12.1,14.8,123.63,123.63,0,0,1-15.9,14.3,96.29,96.29,0,0,1-18,10.8A44.12,44.12,0,0,1,208,187q-15.8,0-23.7-9.1t-7.9-24.5a75.93,75.93,0,0,1,4.1-24.5,115.32,115.32,0,0,1,10.9-23.2A138.93,138.93,0,0,1,206.91,85a157.24,157.24,0,0,1,17.9-17,114.59,114.59,0,0,1,18.1-12.1A54.56,54.56,0,0,1,259,50a28.56,28.56,0,0,1,7.5-4.9,22.67,22.67,0,0,1,9.7-2.1q12.21,0,17.8,7.8t5.6,23a67.25,67.25,0,0,1-2.4,17.1,144.3,144.3,0,0,1-6.1,18.1,156.06,156.06,0,0,1-8.3,17.2,154.24,154.24,0,0,1-9.2,14.6,39.59,39.59,0,0,0,8.5,2.7,51.74,51.74,0,0,0,10.1.9,37.35,37.35,0,0,0,15.8-3.6,55.74,55.74,0,0,0,14.2-9.4Zm-134.2,23.4a38,38,0,0,0,1.3,9.7,29.31,29.31,0,0,0,4,8.9,22,22,0,0,0,6.8,6.5,18,18,0,0,0,9.5,2.5q7.41,0,15.8-4.3a90.94,90.94,0,0,0,16.3-10.8,120.89,120.89,0,0,0,14.5-14.1,92.56,92.56,0,0,0,10.4-14.2A52.42,52.42,0,0,1,241,93.61a61.88,61.88,0,0,1,.8-9.5,60.5,60.5,0,0,1,2.6-10.3,75.54,75.54,0,0,1,4.6-10.5,47.73,47.73,0,0,1,7-9.9l-.4-.4q-12.6,3.8-24.5,14.3a119.24,119.24,0,0,0-21.2,24.9,140.91,140.91,0,0,0-15,31.1A101.42,101.42,0,0,0,189.21,156.21ZM280,68.81a32.58,32.58,0,0,0-.6-6.4,13.88,13.88,0,0,0-2.2-5.3,11.06,11.06,0,0,0-4.7-3.7,19.14,19.14,0,0,0-7.9-1.4h-2.4a7.46,7.46,0,0,0-2.4.4,54,54,0,0,0-5.6,7.3,61.59,61.59,0,0,0-5,9.5,71.92,71.92,0,0,0-3.6,11,50.31,50.31,0,0,0-1.4,11.8q0,31,24.8,46.4a147.52,147.52,0,0,0,15.3-33.2,117.43,117.43,0,0,0,5.7-36c0-2.54-.13-5.2-.4-8a27.22,27.22,0,0,0-1.8-7.7,13.67,13.67,0,0,0-4.3-5.8c-1.93-1.54-4.56-2.3-7.9-2.3a23.69,23.69,0,0,0-7.1,1.1,19.65,19.65,0,0,0-5.7,2.7l.4.4H266a18.25,18.25,0,0,1,8.2,1.6,12.64,12.64,0,0,1,5,4.3,17,17,0,0,1,2.5,6.2,35.84,35.84,0,0,1,.7,7.1Z"/><path class="cls-3" d="M439.61,44a86.47,86.47,0,0,0-18.2,19.1,153.73,153.73,0,0,0-12.9,22.5,263,263,0,0,0-9.9,24.4q-4.39,12.6-9.3,24.8a232.44,232.44,0,0,1-11.1,23.7,100.94,100.94,0,0,1-15.4,21.3l.4.4q11.81-7,22.3-13.5t20.1-12.7q25.2-16.2,39.8-31t22-27.1q7.41-12.3,9.4-21.5a71.14,71.14,0,0,0,2-13.8,5.42,5.42,0,0,1-3.5-2.6,9.78,9.78,0,0,1-.9-4.4,7.53,7.53,0,0,1,7.8-7.8c3.47,0,5.83,1.16,7.1,3.5a19.45,19.45,0,0,1,1.9,9.3,42.15,42.15,0,0,1-3.7,16.5,89,89,0,0,1-10.2,17.6,177.06,177.06,0,0,1-15.1,17.9q-8.59,9-18.3,17.4t-20.2,16q-10.5,7.61-20.5,13.8l-23.6,14.4q-11.79,7.2-24.6,14.8l-1-1a131.1,131.1,0,0,0,12.1-21.9q5.1-11.7,9.5-24.1t8.9-24.8a219.12,219.12,0,0,1,10.3-23.9,123,123,0,0,1,13.8-21.5A81.23,81.23,0,0,1,428,52.41l-.4-.4a77.24,77.24,0,0,1-18.2,6.7q-9.8,2.3-20,5.1a144.8,144.8,0,0,0-14.3,4.8,65.39,65.39,0,0,0-14.3,7.7,47,47,0,0,0-11.1,11,24.63,24.63,0,0,0-4.5,14.7c0,4.66,1.47,8.27,4.4,10.8a15.41,15.41,0,0,0,10.4,3.8,17.86,17.86,0,0,0,7.1-1.5,21.36,21.36,0,0,0,6.2-4,18.44,18.44,0,0,0,4.3-6.1,18.93,18.93,0,0,0,1.6-7.8v-3.6a15.47,15.47,0,0,0-.4-3.4H381c.14,1.07.27,2.2.4,3.4a37.24,37.24,0,0,1,.2,4,19.42,19.42,0,0,1-1.7,8,22.59,22.59,0,0,1-4.7,6.8,22.93,22.93,0,0,1-7.1,4.8,21.38,21.38,0,0,1-8.7,1.8,20.86,20.86,0,0,1-14.1-4.9q-5.7-4.9-5.7-13.5a25.68,25.68,0,0,1,4.9-15.9,44.65,44.65,0,0,1,12.1-11,74.26,74.26,0,0,1,15.4-7.3q8.21-2.8,14.8-4.6,5.2-1.61,12.1-3.1t13.9-3.5a111.72,111.72,0,0,0,13.7-4.9,43.91,43.91,0,0,0,11.7-7.3Z"/><path class="cls-3" d="M509.81,148.41a51.65,51.65,0,0,1,14.5-13.8,35.18,35.18,0,0,1,19.1-5.2q10.8,0,16.2,5.5a18.54,18.54,0,0,1,5.4,13.5q0,7.2-5.4,14.3a60,60,0,0,1-13.8,12.9,78.21,78.21,0,0,1-18.7,9.4,61.26,61.26,0,0,1-20.3,3.6,72,72,0,0,1-19.5-2.4,43.72,43.72,0,0,1-14.4-6.8,30.4,30.4,0,0,1-9-10.4,28.28,28.28,0,0,1-3.1-13.2,35.61,35.61,0,0,1,3.9-17.2,44.2,44.2,0,0,1,10.2-12.6,72.94,72.94,0,0,1,14.6-9.6q8.3-4.2,16.9-8a46.09,46.09,0,0,0,5.4-2.9,8.83,8.83,0,0,0,3.1-3.5,17.43,17.43,0,0,0,1.5-5.7,84.87,84.87,0,0,0,.4-9.3,49.54,49.54,0,0,1,2.8-16.7,39.77,39.77,0,0,1,8.5-14,40.58,40.58,0,0,1,14.4-9.7,52.83,52.83,0,0,1,20.3-3.6,43,43,0,0,1,9.6,1.1,27.11,27.11,0,0,1,8.7,3.6,21,21,0,0,1,6.4,6.4,16.83,16.83,0,0,1,2.5,9.3,23.19,23.19,0,0,1-3,11.8,29.09,29.09,0,0,1-7.8,8.8,34.61,34.61,0,0,1-10.6,5.4,38.36,38.36,0,0,1-11.4,1.8,35,35,0,0,1-5.4-.4,18.89,18.89,0,0,1-3.6-.8l.2-2.2c1.73.66,4.67,1,8.8,1a19.43,19.43,0,0,0,10.5-2.8,27.25,27.25,0,0,0,7.5-6.8,30.32,30.32,0,0,0,4.5-8.4,24.54,24.54,0,0,0,1.5-7.8q0-9.19-5.4-13.4t-15-4.2q-8.8,0-14.8,3.9a30.54,30.54,0,0,0-9.6,9.8,43.14,43.14,0,0,0-5.2,12.8,56.33,56.33,0,0,0-1.6,12.7,24,24,0,0,1-3.2,12.8q-3.2,5.2-10.2,8.4-7.8,3.6-15.5,7.2a60.8,60.8,0,0,0-13.7,8.7,39.53,39.53,0,0,0-9.7,12.4q-3.71,7.29-3.7,18.5a30.49,30.49,0,0,0,2.6,12.2,32.65,32.65,0,0,0,7.2,10.5,36.24,36.24,0,0,0,11.1,7.3,35.87,35.87,0,0,0,14.3,2.8,57.62,57.62,0,0,0,15.2-2.2,51.7,51.7,0,0,0,14.7-6.6,38.37,38.37,0,0,0,11.1-11.1,28,28,0,0,0,4.4-15.7q0-8.81-3.6-13.4t-11.6-4.6a23.19,23.19,0,0,0-8.2,1.5,34.35,34.35,0,0,0-7.6,4,45.21,45.21,0,0,0-6.7,5.7,49.83,49.83,0,0,0-5.3,6.4Z"/></g><path class="cls-3" d="M48,98.24c-.06.12-.06.12.06.12A54.12,54.12,0,0,0,59.53,94.7a8.18,8.18,0,0,1,2.22-.78c1.86,0,2.94.83,2.94,1.86a1.75,1.75,0,0,1-1.26,1.85c-2.28,1.15-9.3,3.07-15.78,4.2a.65.65,0,0,0-.6.55c-.3,1.79-.6,3.59-.84,5.39-.12.84.18,1.15,1,.84A37,37,0,0,1,56,107.12c.42,0,.72-.37.54-.66a6.21,6.21,0,0,0-2.52-2,.85.85,0,0,1-.3-1.26,1,1,0,0,1,1.26-.49,9.85,9.85,0,0,1,4.56,2.46,2.42,2.42,0,0,1,.72,1.38.94.94,0,0,0,.72.91c8.46,1.55,13.2,8,13.2,14.51,0,11.22-11.58,16.44-26.52,17.1a1.18,1.18,0,0,1-1.26-1c-.12-.66.12-1.08.84-1.14,13.92-1.74,23-6.84,23-15.9,0-5.52-4-10.14-10.56-11.4-.36-.06-.54.12-.72.42a63.9,63.9,0,0,1-10.86,15.06.56.56,0,0,0-.12.78l.24.54a7.78,7.78,0,0,1,1,3.24,1.57,1.57,0,0,1-1.74,1.74c-.84,0-1.68-.72-2.34-2.22-.3-.54-.66-.66-1.14-.24-4.2,3.36-8,5-11.4,5-2.82,0-4.26-1.62-4.26-4.8,0-7.86,7.92-14.82,14.46-18.54a.72.72,0,0,0,.36-.54c.24-2.4.54-4.49.9-6.9.12-.66-.18-.9-.84-.83a36.71,36.71,0,0,1-4.32.17c-3.42,0-5.76-.77-8.46-4.19a1.11,1.11,0,0,1,.12-1.5.92.92,0,0,1,1.38-.07h.12a10.17,10.17,0,0,0,7.2,2.46A47.74,47.74,0,0,0,44.17,99a.66.66,0,0,0,.66-.6,40.43,40.43,0,0,0,.54-5,1.27,1.27,0,0,0-1-1.26,6.84,6.84,0,0,0-2.64-.48,1,1,0,0,1-1-1.14v-.6a.53.53,0,0,1,.48-.54l.42-.06a13.37,13.37,0,0,1,2-.18c3.54,0,6.42,2.28,6.42,3.42a1.85,1.85,0,0,1-.54,1.5,5.66,5.66,0,0,0-1,1.92L48,98.12Zm-5.16,16c0-.6-.18-.72-.66-.36C35.65,118.15,31.51,124,31.51,128c0,1.62.48,2.1,2,2.1,2.94,0,6.84-2.1,10-4.8a.57.57,0,0,0,.24-.66,55.53,55.53,0,0,1-.84-9.42Zm3.48,7c.18.66.66.84,1.14.18a66,66,0,0,0,7.74-10.86c.36-.65.12-1-.66-1a26.54,26.54,0,0,0-8.4,2.28.68.68,0,0,0-.42.66c-.06.78-.12,1.56-.12,2.28A24.29,24.29,0,0,0,46.33,121.21Z"/><path class="cls-3" d="M109.87,97.16c.6-.24.6-.24.72-.37s.06,0,.06-.05a3.82,3.82,0,0,1,1.8-.54,2.14,2.14,0,0,1,2,2c0,1.21-1.38,2-2.16,2.41a45.47,45.47,0,0,1-9,3,.5.5,0,0,0-.48.47c-2.1,6.72-6.48,17.52-11.4,24.42-.72,1-1.32,1.86-2.52,1.86s-1.62-1.26-1.62-2.28a5.1,5.1,0,0,1,1-2.88c3.3-4.56,8.4-12,11-19.74.24-.77.06-1.08-.78-1-1.14.07-2.22.12-3.36.12-4.08,0-6.24-1.5-8.22-5.15a1,1,0,0,1,.24-1.39,1.26,1.26,0,0,1,1.38,0l.12.12C90.67,100,92.17,101,96,101a29.53,29.53,0,0,0,4.44-.49.62.62,0,0,0,.54-.54,44.34,44.34,0,0,0,1-6.11,1.39,1.39,0,0,0-1-1.68h-.12a18.62,18.62,0,0,0-2.16-.6.93.93,0,0,1-.84-1,1,1,0,0,1,.84-1.14,13.3,13.3,0,0,1,2.64-.36,8.48,8.48,0,0,1,4.2,1c1,.66.78,1.62-1,8.15-.24.79.18,1.15,1,.84a31.32,31.32,0,0,0,4.26-1.85Zm10.44,27.65a.64.64,0,0,0,.54.6,30.39,30.39,0,0,1,9.18,4.38c2.58,1.74,3.72,3.48,3.72,4.86,0,1.14-.42,2-1.44,2-.78,0-1.44-.54-2.34-1.44l-.48-.48a23,23,0,0,0-8-5.22c-.6-.24-.84-.06-.78.54a6.94,6.94,0,0,1,.06,1c0,5-3.72,8.16-9.72,8.16-6.24,0-9.54-3.12-9.54-6.66,0-4.86,4.86-7.92,12.78-7.92h1.92c.66.06.84-.18.78-.84l-.12-1a52.44,52.44,0,0,1-.36-5.94,9.85,9.85,0,0,1,3-7.62c1.68-1.62,4-2.46,5.88-3.3l.84-.35c1.08-.49.84-1-.06-1.69a9.83,9.83,0,0,0-5.94-1.68,1,1,0,0,1-1.14-1.13,1.16,1.16,0,0,1,1.14-1.26h1.32a13.88,13.88,0,0,1,5.94,1c3.42,1.37,5.34,4,5.34,6.24,0,1.49-.54,2.27-1.74,2.27a3.52,3.52,0,0,1-1.38-.24,11,11,0,0,0-3.06-.36h-.12a9.64,9.64,0,0,0-5.58,2.34c-1.38,1.32-1.74,3-1.68,5.1.06,1.14.3,3.18.6,5.52Zm-3,3.84c0-.3-.06-.36-.36-.42a26.66,26.66,0,0,0-4.5-.42c-5.52,0-8.4,2.1-8.4,4.14s2,3.48,6.3,3.48c5.88,0,7-2.88,7-6.3Z"/><path class="cls-3" d="M148.87,133c2.82-5.1,6.72-11.22,9.72-19.44.72-2,1.32-4,2-6.11.24-.79,0-1-.84-.91a38.74,38.74,0,0,1-5.82.49c-3.18,0-6-1.27-8.1-5.17a.86.86,0,0,1,.3-1.32,1.08,1.08,0,0,1,1.38.07c2.16,1.85,3.78,2.81,6.6,2.88a35.79,35.79,0,0,0,7.38-.84.65.65,0,0,0,.54-.54c.66-2.88,1.2-5.41,1.44-7.26.18-1.14-.36-1.5-1.2-1.92h-.12c-.9-.3-1.74-.48-2.76-.72a1.17,1.17,0,0,1-1-1.26v-.36l.12-.42.06-.06a.47.47,0,0,1,.24-.24l.06-.06a.65.65,0,0,1,.3-.06,15.84,15.84,0,0,1,3-.12c1.92.18,5.82,1.68,5.82,3.11a10,10,0,0,1-.66,2.58l-.6,1.75-.54,2-.36,1.27c-.24.89,0,1.14.84.84a47.59,47.59,0,0,0,6.18-2.76,4.88,4.88,0,0,1,2-.78c1,0,2.4.66,2.4,1.74s-.54,1.68-2.4,2.57l-.12.07a90.26,90.26,0,0,1-10.08,3.47.53.53,0,0,0-.48.49q-1.35,4.39-2.88,8.63c-3,8.16-6.72,18.06-9.42,22.14-.9,1.38-1.38,1.74-2.52,1.74-1,0-1.56-1.14-1.56-2.4a4.79,4.79,0,0,1,.78-2.52Zm19.26-9.42a.85.85,0,0,1,1,.78,18.72,18.72,0,0,0,2,5c1.86,3.12,5.64,4.5,10.74,4.5a27.47,27.47,0,0,0,7.74-.84,7.34,7.34,0,0,1,2.1-.3c1.26,0,2.7.6,2.7,2s-1.74,2-3.42,2.4a37,37,0,0,1-7.92.72c-6.54,0-12-1.8-14.34-6.9a18.65,18.65,0,0,1-1.56-6.42.82.82,0,0,1,.84-1Zm22.68-15.17c1.74.83,2.58,1.85,2.58,2.87,0,1.32-1.14,1.44-2.34,1.63a9.66,9.66,0,0,0-3.42,1.07c-1.44.66-3.9,1.92-5.88,2.94a1.09,1.09,0,0,1-1.44-.42l-.24-.36L180,116a.38.38,0,0,1,.12-.54l.42-.18a35.54,35.54,0,0,0,5.94-4.08c.06,0,.06-.12,0-.18l-.24-.18a17.34,17.34,0,0,0-5-.66,40.24,40.24,0,0,0-7.26.72h-.12c-.6.18-1.08-.12-1.26-.84a1.24,1.24,0,0,1,.78-1.44h.12a32.11,32.11,0,0,1,9.54-1.49,23,23,0,0,1,7.74,1.19Z"/><path class="cls-3" d="M230.72,114a9,9,0,0,1,2.38,1.12c1,.72,2.25,2.21,2.25,3.42s-.45,1.13-2,1.67a86.26,86.26,0,0,0-12.73,5.13.52.52,0,0,0-.32.49c.14,2.48.14,5.58.14,6.93,0,1.13-.41,1.76-1.31,1.76-.72,0-1.44-.45-1.44-1.8,0-.36.05-1,.09-1.76l.14-3.15c0-.63-.28-.81-.82-.45-3.91,2.52-6.56,5-6.56,7.43s3.06,3.46,7.24,3.46a37.29,37.29,0,0,0,8.69-1,14.58,14.58,0,0,1,2.79-.45c1.48,0,2.11.63,2.11,1.49,0,.67-.27,1.17-1.62,1.71h-.09a52.06,52.06,0,0,1-10,1.21c-8.33,0-11.12-2.61-11.12-6.21,0-3.33,4-7.06,9-10.44a.44.44,0,0,0,.22-.49c-.22-3.38-1.08-4.55-3.33-4.55-2.52,0-5.49,2.43-7.42,4.37-.5.49-.95,1.08-1.44,1.62-.95,1.08-1.8,2-2.39,2a1.64,1.64,0,0,1-1.53-1.75c0-1,1-2,2.3-3.24l1.57-1.53a38.5,38.5,0,0,0,5.4-6.89c.45-.63.27-.85-.49-.81-.5,0-1,0-1.62,0-3.42,0-4.46-.72-6.3-3.92v-.09a.74.74,0,0,1,.31-1l.05,0a.51.51,0,0,1,.27-.09l.09,0a.6.6,0,0,1,.31.09l.14,0,.09.09c1.71,1.71,2.34,2.52,5.49,2.52a15,15,0,0,0,3.64-.4.75.75,0,0,0,.36-.23,21.55,21.55,0,0,0,1.35-3.73c.14-.54,0-.72-.72-1.08A6.8,6.8,0,0,0,212,105a.79.79,0,0,1-.72-.81V104a.83.83,0,0,1,.05-.32l0,0a.35.35,0,0,1,.18-.18l0,0a.3.3,0,0,1,.18,0,8.94,8.94,0,0,1,2-.27c1.26,0,4.19.9,4.19,2.07a2.61,2.61,0,0,1-.5,1.39l-.36.72a10.51,10.51,0,0,1-.63,1.4c-.36.72-.13,1,.63.81a38,38,0,0,0,4.59-1.67l1.66-.72a4,4,0,0,1,1.36-.49c.89,0,1.84.4,1.84,1.31,0,.62-.41,1.12-1.21,1.43h-.09a50.75,50.75,0,0,1-10.67,3.33.59.59,0,0,0-.36.27c-.85,1.44-1.66,2.79-2.7,4.23-.9,1.22-.72,1.44.72.95a8.39,8.39,0,0,1,2.75-.54c2.65,0,4.36,1.53,4.94,4.68.14.54.37.67.86.4,2.12-1.12,4.23-2.16,6.39-3.1,1.49-.68,3-1.31,4.14-1.89.54-.27.58-.63.09-1.08a6.22,6.22,0,0,0-1.67-1.22.65.65,0,0,1-.31-1,1.3,1.3,0,0,1,1.17-.4Z"/><path class="cls-3" d="M248.53,140.29c-.06-.54.12-1,.66-1,8.88-1.56,16.62-3.78,23.16-7,.66-.36.72-.72.06-1.2a30.74,30.74,0,0,1-5.4-6.06c-.3-.48-.66-.54-1-.18a58,58,0,0,1-15.12,8.82.86.86,0,0,1-1.26-.42l-.12-.12c-.24-.48-.12-.84.42-1.14,7.32-3.6,14.22-8.76,18.3-14.52.48-.6.24-.9-.48-1.14-1.68-.42-2-1.38-2-3.24v-7.32c0-1.13.6-1.74,1.74-1.56l1.8.24c1,.12,1.38.73,1.14,1.45l-.12.12a2.3,2.3,0,0,1-.72.47.86.86,0,0,0-.48.78v5.4c.06.36.3.42,2.28.42h6.24c2.82,0,5.16,0,5.94-.06.42-.06.54,0,.72-.17l.18-.25.12-.12a24.7,24.7,0,0,0,1.14-3.54c.06-.36.3-.47.66-.47a.43.43,0,0,1,.48.47l.12,3.18c0,.3.18.48.48.66a1.5,1.5,0,0,1,1,1.44c0,1.74-1.62,2.34-10.86,2.34h-5.1c-.48,0-.48,0-.06.24l.72.36c.72.42,1.14,1.2.42,1.56a2.08,2.08,0,0,1-1.08.12.72.72,0,0,0-.72.24l-.48.66c-.48.6-.36.84.36.84h14.16a.68.68,0,0,0,.48-.18l1.26-1.08a1.56,1.56,0,0,1,2.1,0l.06.12,1.86,1.8c.66.72.78,1.62-.18,1.92a6,6,0,0,1-1.5.24.45.45,0,0,0-.42.24,38.25,38.25,0,0,1-8.64,7.44c-.84.54-.78.9.12,1.26,6,2.4,13.44,3.84,21.42,4.5a.69.69,0,0,1,.66.78v.12a1,1,0,0,1-.72.78,3.27,3.27,0,0,0-1.8,1.56,1.91,1.91,0,0,1-1.86,1c-8.58-1.5-16.2-3.66-22.2-7.08a.54.54,0,0,0-.66-.06c-7.26,3.54-15.9,5.88-26,7.14a1.17,1.17,0,0,1-1.26-.72Zm.78-32a2.75,2.75,0,0,1,1.26-3.35,9,9,0,0,0,3.78-7.38.6.6,0,0,1,.66-.66.83.83,0,0,1,.9.66c.12.54.24,1,.3,1.38s.24.66.72.66h6.24a3.73,3.73,0,0,1-.18-.49V99a15.42,15.42,0,0,0-3.54-5.81c-.24-.3-.24-.54-.18-.66-1.5.06-3.12.06-4.62.06a1,1,0,0,1-1.14-.9v-.12c-.12-.6.12-1,.84-1,13.44-.66,29.94-2.58,39.36-4.5a1.46,1.46,0,0,1,1.44.42l2.16,2.28c.66.78.78,1.68-.18,1.74a3.56,3.56,0,0,1-1.8-.42.68.68,0,0,0-.48-.06c-5.58.66-11.58,1.31-18.72,1.74-1.44.12-1.62.6-.48,1.56a6.21,6.21,0,0,1,2.4,4.43,2.25,2.25,0,0,1-.66,1.87h7c.24,0,.36-.12.54-.3a50.54,50.54,0,0,0,4-7,1.49,1.49,0,0,1,2.1-.78l2.64,1.13c1,.43,1.26,1.27.54,1.75a2.57,2.57,0,0,1-1.32.36.74.74,0,0,0-.6.3,33,33,0,0,1-3.18,3.24c-.9.77-.72,1.26.48,1.26h6.72a.65.65,0,0,0,.48-.24l1-1a1.44,1.44,0,0,1,2.22-.07l2.4,2.34c.66.73.66,1.45-.06,1.68h-.12c-.3.19-.66.12-1.08.19a.54.54,0,0,0-.42.17,34.26,34.26,0,0,1-5.64,4.38H295a1,1,0,0,1-1.08.07.74.74,0,0,1-.24-.91c0-.06,0-.06.06-.17a23.82,23.82,0,0,0,1.74-3c.42-.78.18-1.08-.6-1.08h-38a.7.7,0,0,0-.78.66,8.81,8.81,0,0,1-2.88,5.58c-1.2.9-3,1.08-3.84.3Zm12.9-1.19a8.53,8.53,0,0,1-4.32,8,4.9,4.9,0,0,1-2.22.66,2,2,0,0,1-1.74-.9l-.12-.24a3.2,3.2,0,0,1,1.62-3h.12a9.17,9.17,0,0,0,5-6,.82.82,0,0,1,1.62-.07l.06.12Zm12.72-7.5a1.46,1.46,0,0,1-.3-.84,19.18,19.18,0,0,0-3-6.36c-.18-.24-.3-.36-.6-.36-3.3.23-6.48.36-9.54.42,3.48,1.62,4.8,3.9,4.8,5.52a2.39,2.39,0,0,1-.48,1.62Zm-5.34,23.51c-.9,0-1.2.48-.54,1.14a25.3,25.3,0,0,0,6.84,5.7.4.4,0,0,0,.6,0,35.66,35.66,0,0,0,7.44-5.76c.66-.66.42-1.14-.54-1.08Zm2-19.67a1.68,1.68,0,0,1,1.2-.42c6.36.77,8.58,3.77,8.58,5.57a1.72,1.72,0,0,1-2.1,1.81,1.77,1.77,0,0,1-.84-.61,19.38,19.38,0,0,0-6.66-5.27c-.42-.19-.48-.49-.3-1Zm23.1,10.79c-1.26-2.87-5.16-6.06-8.1-8-.48-.23-.48-.6-.18-1a1.06,1.06,0,0,1,1.14-.36c7.86,2.23,10.44,5.94,10.44,8.22a1.88,1.88,0,0,1-2.28,2l-.36-.18-.48-.48Z"/><path class="cls-3" d="M338.64,128.39a.88.88,0,0,1,1.13-.18.81.81,0,0,1,.27,1.12c-3.6,6.84-10.3,11.3-17.73,11.3-6.07,0-9-3-9-10.67,0-4.54.4-10.48.76-14.89.18-2.52.32-4.64.32-5.54,0-1.39-.23-1.61-.9-2l-.14,0a5.42,5.42,0,0,0-2.11-.76h-.09a.75.75,0,0,1-.72-.86.74.74,0,0,1,.76-.85,9.42,9.42,0,0,1,2.21-.14c2,.14,4.86,2.43,4.86,3.64a2.23,2.23,0,0,1-.36,1.13,4.73,4.73,0,0,0-.77,2,156.55,156.55,0,0,0-1.39,18.05c0,5.62,1.62,7.78,6.48,7.78a20.23,20.23,0,0,0,16.42-9Z"/><path class="cls-3" d="M349.4,110.79h.09a.5.5,0,0,1,.72.27l.05,0a3.46,3.46,0,0,0,2.47,1.8c1.4,0,5.09-1,9.59-2.21,3.06-.85,6.21-1.62,9.13-2.29a54.9,54.9,0,0,1,10.08-1.71,7.91,7.91,0,0,1,3.06.4c1.08.54,1.3,1,1.3,1.62a1.3,1.3,0,0,1-1.43,1.26c-.32,0-.82,0-1.22,0-.68,0-1.71-.09-2.66-.09-2.16,0-5.44.36-7.55,1.62s-6.71,5.44-6.71,14.58c0,4.68,2,6.79,3.92,7.92,2.74,1.53,6,1.48,8.05,1.48H379c1,0,2.52.72,2.52,1.85s-1,1.53-3.15,1.53c-2.33,0-7.24-.14-10.34-2.61-2.7-2.12-4.14-4.91-4.14-9.9,0-4.5.94-9.54,4.54-13.64,1-1.08.81-1.44-.63-1-4.41,1.3-9.27,2.88-11.65,3.87l-.86.36h-.09a3.72,3.72,0,0,1-1.75.67c-1.62,0-3.65-1.89-4.23-3.37a5,5,0,0,1-.27-1.67v-.27a.35.35,0,0,1,.31-.4Z"/><path class="cls-3" d="M408.76,132.84a2.72,2.72,0,0,0,.09,2.07,1.47,1.47,0,0,1,.18.86,1.54,1.54,0,0,1-1.58,1.57,3,3,0,0,1-1.3-.31c-3.47-1.71-8.28-6.08-8.42-14.58a40.57,40.57,0,0,1,.14-5.27c.09-.94.09-1.89.09-2.56,0-2.21-.09-3-3.2-5.27a.64.64,0,0,1-.13-.94.83.83,0,0,1,.94-.41,9.86,9.86,0,0,1,2,.68c1.53.76,3.83,2.74,3.83,4.63a10.89,10.89,0,0,1-.5,2.93,22.08,22.08,0,0,0-.85,6.3c0,5.67,2.74,8.82,4.63,10h.09a1,1,0,0,0,1.26-.22l.05-.09a60,60,0,0,0,3.87-7.56.71.71,0,0,1,1.08-.45.76.76,0,0,1,.49,1.08l-.58,1.53a60.07,60.07,0,0,0-2.16,5.89Zm19.79-5.4c-.26-2-.8-5.89-2.7-8.73a12,12,0,0,0-6.2-4.54.79.79,0,0,1-.54-1.13c.13-.49.49-.63,1.07-.63h.1a14.05,14.05,0,0,1,7.37,4.37,17.71,17.71,0,0,1,4,10.39c0,1.76-.58,2.39-1.61,2.39-.77,0-1.27-.63-1.4-1.76Z"/><path class="cls-3" d="M460.5,119.7c0,.41.14.54.54.5a44.89,44.89,0,0,0,6.13-1.35,9.48,9.48,0,0,0,1.53-.59,3.88,3.88,0,0,1,1.3-.4c.85,0,2,.49,2,1.57,0,.68-.4,1.22-1.31,1.53a43,43,0,0,1-9.58,1.94.47.47,0,0,0-.45.58l.45,5.45v1a.48.48,0,0,0,.45.49,25.71,25.71,0,0,1,10.53,4.82,3.37,3.37,0,0,1,1.35,2.47c0,.86-.41,1.35-1.17,1.35s-1.26-.45-2.12-1.21a19.43,19.43,0,0,0-8.05-4.55c-.5-.13-.67,0-.63.5v.76c0,4-3.15,6.3-8.23,6.3-4.28,0-7.52-2.16-7.52-5.35,0-3.69,4.77-5.67,10.31-5.67.85,0,1.57,0,2.2.09.45,0,.63-.09.58-.54,0-.23,0-.5,0-.81,0-1.44-.22-3-.27-4.82,0-.4-.18-.58-.58-.54-1.62.14-3.24.23-4.86.23-4.32,0-7.07-1.31-7.07-3.74a6.15,6.15,0,0,1,1.8-3.82.93.93,0,0,1,1.17-.23.61.61,0,0,1,.27,1,4.48,4.48,0,0,0-1.21,2.38c0,1.35,1.89,1.76,5,1.76a47.24,47.24,0,0,0,5-.27c.31,0,.45-.18.45-.54v-1c0-1.39,0-2.65.09-4.09,0-.45-.18-.59-.63-.54-2.16.22-4.37.36-6.35.36-3.91,0-6.48-1-8.82-4.1l-.09-.09c-.22-.27-.22-.58.14-1l.09-.09a1,1,0,0,1,1.12.09c2,1.58,3.38,2.61,7.38,2.61a51.58,51.58,0,0,0,6.75-.49.51.51,0,0,0,.45-.54c.05-1.31.05-2.34.09-3.11l0-.81c0-.72-.14-.85-.81-1.07a10.36,10.36,0,0,0-2.57-.37.8.8,0,0,1-.85-.76V105a.69.69,0,0,1,.58-.95,6.81,6.81,0,0,1,2.39-.4c1.8,0,4.63,1.4,4.63,2.57a2.77,2.77,0,0,1-.36,1.3v.09a8,8,0,0,0-.45,1v.09l-.31,1.89c-.09.5.13.68.62.59a41.93,41.93,0,0,0,6.44-1.53l1.08-.41a4.1,4.1,0,0,1,1.48-.45c1.09,0,2.17.59,2.17,1.49s-.68,1.21-1.45,1.53A78.19,78.19,0,0,1,461,114a.48.48,0,0,0-.44.49c-.05,1.31-.1,2.84-.1,4.64Zm-12.82,15.71c0,1.44,1.53,2.7,4.59,2.7,5.22,0,6.44-1.58,6.57-5.18a.44.44,0,0,0-.4-.54,21.15,21.15,0,0,0-3.42-.27C450.47,132.12,447.68,133.7,447.68,135.41Z"/><path class="cls-3" d="M520.17,113.49a41.16,41.16,0,0,0-6.12-.4c-1.62,0-3.64.09-6,.27-.36,0-.49.18-.49.54v2.56c0,1.13,0,2.12,0,3.2a.5.5,0,0,0,.18.36,9.6,9.6,0,0,1,1.71,6.07C509.51,134,504,139,496,141.53a1,1,0,0,1-1.31-.5c-.31-.58-.18-1,.45-1.21,4.55-1.8,8.14-4.41,10-7.74.36-.68.18-.86-.58-.68a5.64,5.64,0,0,1-1.22.14c-3.15,0-5.49-3-5.49-6.75,0-3.29,2.16-6.48,5.94-6.48a5.47,5.47,0,0,1,1.21.13c.32,0,.46,0,.41-.36v-.54l-.13-3.37c0-.41-.18-.54-.59-.5a97.12,97.12,0,0,0-11.52,2.12c-.85.22-1.44.49-2,.67h-.09a4.14,4.14,0,0,1-1.93.45c-1.4,0-3.6-2-4.05-3.19l-.05-.09a6.29,6.29,0,0,1-.4-2.3.66.66,0,0,1,.54-.76.52.52,0,0,1,.76.22l.09.09c.86,1.26,1.62,2.52,2.88,2.52.86,0,4.23-.45,7.74-.94,2.75-.36,5.67-.68,8-1a.54.54,0,0,0,.5-.59c0-1.3-.19-2.52-.23-3.6-.13-.76-.22-.9-.85-1.07a10.53,10.53,0,0,0-2.34-.23h-.32a.39.39,0,0,1-.4-.36l-.14-.77v-.09a.48.48,0,0,1,.23-.36c.13,0,.18,0-.05,0a7.7,7.7,0,0,1,2.84-.81c1.71,0,4.49,1,4.49,2.29a3.22,3.22,0,0,1-.31,1.4,5,5,0,0,0-.4,1.44,9.82,9.82,0,0,0-.05,1.3,2.93,2.93,0,0,1,0,.59c0,.36.13.49.49.45l1.53-.18c4.9-.59,8.5-.9,9.36-.9,1.44,0,3.73.85,3.73,2.34,0,.81-.4,1.26-1.17,1.26a4.49,4.49,0,0,1-1.26-.14Zm-20.38,11.12c0,2.56,1.58,4.14,3.6,4.14,2.21,0,3.38-.9,3.38-4s-1.44-4.23-3.38-4.23C501.14,120.56,499.79,122.45,499.79,124.61Z"/><path class="cls-3" d="M541.51,124.15a8.73,8.73,0,1,1-8.58,8.7A8.67,8.67,0,0,1,541.51,124.15Zm-6.3,8.7a6.27,6.27,0,0,0,12.54,0,6.27,6.27,0,0,0-12.54,0Z"/></g></g></svg>