<svg xmlns="http://www.w3.org/2000/svg" viewBox="0 0 180 483"><defs><style>.cls-1{fill:none;}.cls-2{opacity:0.2;}.cls-3{fill:#3f3b52;}</style></defs><title>アセット 12</title><g id="レイヤー_2" data-name="レイヤー 2"><g id="レイヤー_4" data-name="レイヤー 4"><rect class="cls-1" width="180" height="483"/><g class="cls-2"><path class="cls-3" d="M82.88,49A38.76,38.76,0,0,1,93.23,59.82a26.43,26.43,0,0,1,3.9,14.33q0,8.1-4.12,12.15a13.92,13.92,0,0,1-10.13,4,17.63,17.63,0,0,1-10.72-4A44.88,44.88,0,0,1,62.48,76a58.56,58.56,0,0,1-7-14,45.92,45.92,0,0,1-2.7-15.22,54,54,0,0,1,1.8-14.63,32.79,32.79,0,0,1,5.1-10.8,22.7,22.7,0,0,1,7.8-6.75,21.24,21.24,0,0,1,9.9-2.32,26.72,26.72,0,0,1,12.9,2.92,33.15,33.15,0,0,1,9.45,7.65,54.63,54.63,0,0,1,7.2,11q3.15,6.22,6,12.68a34.91,34.91,0,0,0,2.18,4.05,6.55,6.55,0,0,0,2.62,2.32A12.94,12.94,0,0,0,122,53.9a64.16,64.16,0,0,0,7,.3,37.28,37.28,0,0,1,12.53,2.1A29.78,29.78,0,0,1,152,62.67a30.46,30.46,0,0,1,7.27,10.8,39.64,39.64,0,0,1,2.7,15.23,32.13,32.13,0,0,1-.82,7.2,20.42,20.42,0,0,1-2.7,6.52,15.7,15.7,0,0,1-4.8,4.8,12.67,12.67,0,0,1-7,1.88,17.39,17.39,0,0,1-8.85-2.25,21.76,21.76,0,0,1-6.6-5.85,26,26,0,0,1-4.05-8,28.75,28.75,0,0,1-1.35-8.55,26.61,26.61,0,0,1,.3-4,14.07,14.07,0,0,1,.6-2.7l1.65.15a20.35,20.35,0,0,0-.75,6.6,14.58,14.58,0,0,0,2.1,7.87,20.46,20.46,0,0,0,5.1,5.63,22.65,22.65,0,0,0,6.3,3.37,18.45,18.45,0,0,0,5.85,1.13q6.9,0,10-4t3.15-11.25a20,20,0,0,0-2.92-11.1,23,23,0,0,0-7.35-7.2,32.32,32.32,0,0,0-9.6-3.9,42.45,42.45,0,0,0-9.53-1.2,18,18,0,0,1-9.6-2.4,16.84,16.84,0,0,1-6.3-7.65q-2.7-5.85-5.4-11.63a45.49,45.49,0,0,0-6.52-10.27,29.66,29.66,0,0,0-9.3-7.28Q88.14,21.8,79.73,21.8a22.81,22.81,0,0,0-9.15,1.95,24.55,24.55,0,0,0-7.87,5.4A27,27,0,0,0,55.13,48.2a43,43,0,0,0,1.65,11.4,38.55,38.55,0,0,0,4.95,11A28.75,28.75,0,0,0,70.06,79a20.94,20.94,0,0,0,11.77,3.3q6.6,0,10-2.7t3.45-8.7a17.38,17.38,0,0,0-1.12-6.15,25.92,25.92,0,0,0-3-5.7,34,34,0,0,0-4.28-5,37.32,37.32,0,0,0-4.8-4Z"/><path class="cls-3" d="M137.48,249.35a9.43,9.43,0,0,0,5,4.12,18.05,18.05,0,0,0,6.37,1.28,6.37,6.37,0,0,0,4.88-2,7.51,7.51,0,0,0,1.87-5.32,19.17,19.17,0,0,0-3.3-10.2,62.44,62.44,0,0,0-8.1-10.2,90.27,90.27,0,0,0-10.35-9.15q-5.55-4.2-10-7.2a339,339,0,0,0-32.7-18.38q-18-8.93-37.2-17.32v-1a86.45,86.45,0,0,0,17.25,1.8A122.07,122.07,0,0,0,86,174.8q7.35-.9,14.85-2t14.7-1.95a122.07,122.07,0,0,1,14.85-.9c1.8,0,3.58,0,5.33.07s3.57.08,5.47.08v-.3q-6-2.85-14.77-6.83t-18.53-9q-9.75-5-19.35-11.1A135.6,135.6,0,0,1,71.26,130,68.66,68.66,0,0,1,58.73,115.7a28.54,28.54,0,0,1-4.8-15.6,17.71,17.71,0,0,1,.45-3.83,15.19,15.19,0,0,1,1.35-3.75,8.41,8.41,0,0,1,2.4-2.85,5.83,5.83,0,0,1,3.6-1.12,5.27,5.27,0,0,1,4,1.65,5.64,5.64,0,0,1,1.57,4,4.36,4.36,0,0,1-4.5,4.5,6.85,6.85,0,0,1-2.17-.38,2.08,2.08,0,0,1-1.43-1.57,3.69,3.69,0,0,0-1.8,1.5,6.83,6.83,0,0,0-1.05,4.2,24.47,24.47,0,0,0,4.58,13.72A68.45,68.45,0,0,0,73,129.57a132.62,132.62,0,0,0,17.33,12.6q9.82,6.08,20.17,11.55T131.11,164q10.27,4.8,18.82,8.55c1,.2,2.18.47,3.53.82a16.37,16.37,0,0,1,3.9,1.58,11.76,11.76,0,0,1,3.22,2.62,5.49,5.49,0,0,1,1.35,3.68,21.56,21.56,0,0,1-3.07-1.2A22.47,22.47,0,0,0,155,178.7a46.56,46.56,0,0,0-5.47-1,62.5,62.5,0,0,0-8.33-.45,83.24,83.24,0,0,0-12.22.9q-6.07.9-12.53,2T103.13,182a113.79,113.79,0,0,1-14.7.9,70.34,70.34,0,0,1-9-.6,72.39,72.39,0,0,1-10.05-2.1l-.3.3q6,2.7,13.43,6.15t14.92,7.27q7.5,3.83,14.7,7.88t12.75,7.65q8,5.25,14.48,10.5a101.59,101.59,0,0,1,11.32,10.5,48.4,48.4,0,0,1,7.43,10.35,21.57,21.57,0,0,1,2.62,9.9,11.72,11.72,0,0,1-2.77,8.17,9,9,0,0,1-7,3.08,10.91,10.91,0,0,1-4.95-1.13,16.71,16.71,0,0,1-4.12-2.92,19.5,19.5,0,0,1-3.23-4,22.73,22.73,0,0,1-2.1-4.5Z"/><path class="cls-3" d="M161.18,313a64.6,64.6,0,0,0-14.32-13.65A114.28,114.28,0,0,0,130,289.62a194.33,194.33,0,0,0-18.3-7.42q-9.45-3.3-18.6-7a176.41,176.41,0,0,1-17.77-8.32,76.66,76.66,0,0,1-16-11.55l-.3.3q5.25,8.84,10.13,16.72t9.52,15.08q12.15,18.9,23.25,29.85t20.33,16.5q9.22,5.54,16.12,7.05a54.54,54.54,0,0,0,10.35,1.5,4.05,4.05,0,0,1,2-2.63,7.33,7.33,0,0,1,3.3-.67,5.65,5.65,0,0,1,5.85,5.85q0,3.9-2.62,5.32a14.65,14.65,0,0,1-7,1.43,31.65,31.65,0,0,1-12.37-2.78,66.94,66.94,0,0,1-13.2-7.65,134.8,134.8,0,0,1-13.43-11.32q-6.75-6.47-13-13.73T86.18,301q-5.7-7.87-10.35-15.37L65,268q-5.4-8.86-11.1-18.45l.75-.75a98.53,98.53,0,0,0,16.43,9.07q8.77,3.82,18.07,7.13t18.6,6.67a162.19,162.19,0,0,1,17.93,7.73,92.17,92.17,0,0,1,16.12,10.35,60.74,60.74,0,0,1,13,14.55l.3-.3a57.84,57.84,0,0,1-5-13.65q-1.72-7.35-3.83-15a108.23,108.23,0,0,0-3.6-10.73A49.14,49.14,0,0,0,137,253.85a35.29,35.29,0,0,0-8.25-8.33,18.49,18.49,0,0,0-11-3.37q-5.25,0-8.1,3.3a11.53,11.53,0,0,0-2.85,7.8,13.39,13.39,0,0,0,1.13,5.32,16.14,16.14,0,0,0,3,4.65,13.9,13.9,0,0,0,4.57,3.23,14.24,14.24,0,0,0,5.85,1.2H124a12.43,12.43,0,0,0,2.55-.3V269l-2.55.3c-.9.09-1.9.15-3,.15a14.53,14.53,0,0,1-6-1.28,16.94,16.94,0,0,1-5.1-3.52,17.28,17.28,0,0,1-3.6-5.33,16.06,16.06,0,0,1-1.35-6.52,15.67,15.67,0,0,1,3.68-10.58q3.67-4.28,10.12-4.27a19.25,19.25,0,0,1,11.93,3.67,33.43,33.43,0,0,1,8.25,9.08,55.37,55.37,0,0,1,5.47,11.55c1.4,4.09,2.55,7.8,3.45,11.1q1.2,3.9,2.33,9.07t2.62,10.43a84.34,84.34,0,0,0,3.68,10.27,33,33,0,0,0,5.47,8.78Z"/><path class="cls-3" d="M159.53,467.14l-99-64.35q-9.45-6.75-18.3-14a126.37,126.37,0,0,1-15.75-15.15,72.05,72.05,0,0,1-11-16.8,43.85,43.85,0,0,1-4.13-18.75,37.35,37.35,0,0,1,1.2-9.52,25,25,0,0,1,3.68-8.1,18.64,18.64,0,0,1,6.22-5.63,17.82,17.82,0,0,1,8.85-2.1,17.07,17.07,0,0,1,7.28,1.5,16.66,16.66,0,0,1,5.4,3.9,17.23,17.23,0,0,1,3.37,5.63,18.56,18.56,0,0,1,1.2,6.52,22.22,22.22,0,0,1-1.2,7.05,27.05,27.05,0,0,1-2.85,6.15l-1.2-.6q1-2.55,1.95-5.25a17,17,0,0,0,.9-5.4q0-4.35-3.9-7.87t-12-3.53q-7.95,0-12.52,5.33t-4.58,13.87A28.08,28.08,0,0,0,17,354a63.7,63.7,0,0,0,10.28,13.35,137.29,137.29,0,0,0,14.32,12.53q7.95,6.07,16,11.47t15.6,10.13q7.5,4.73,12.75,8.62l.3-.3q-5.25-4.35-11-10.12a112.8,112.8,0,0,1-10.5-12.08A76.76,76.76,0,0,1,57,375a27.89,27.89,0,0,1-3.08-12.08q0-6.6,3-9.6t8.7-3q4.65,0,11.55,3.68a161.56,161.56,0,0,1,14.93,9.15q8,5.47,16.72,11.92t17,11.93a158.75,158.75,0,0,0,15.45,9.15q7.2,3.67,12.15,3.67a6.62,6.62,0,0,0,4.88-1.87,7.43,7.43,0,0,0,1.87-5.48,35.6,35.6,0,0,0-3.3-13.95A58.69,58.69,0,0,0,148,364.17,54.42,54.42,0,0,0,135.38,353a26.7,26.7,0,0,0-14.55-4.5,13,13,0,0,0-7.72,2.18q-3.08,2.18-3.08,6.82a20.85,20.85,0,0,0,.9,6.3,19.84,19.84,0,0,0,2.48,5.18,24.75,24.75,0,0,0,3.67,4.27q2.1,2,4.35,3.75l-.15,1.2a35.39,35.39,0,0,1-9.15-8.77,20.64,20.64,0,0,1-3.9-12.53q0-6.3,4-9a15.51,15.51,0,0,1,8.92-2.7q6.9,0,14.1,4.65a58.89,58.89,0,0,1,13.13,11.7,66.6,66.6,0,0,1,9.75,15.53,39.49,39.49,0,0,1,3.82,16.27q0,7.2-2.92,10.88t-9.68,3.67q-4.65,0-11.7-3.67a163.39,163.39,0,0,1-15.22-9.15q-8.18-5.47-17-11.93T88.58,371.22a168.89,168.89,0,0,0-15-9.15q-6.9-3.68-11.25-3.68-3.9,0-5.25,1.8a6.17,6.17,0,0,0-1.35,3.75q0,4.8,3.53,11.7A83.55,83.55,0,0,0,68.78,390a140.09,140.09,0,0,0,30.75,27.82l60,39.15Z"/></g><path class="cls-3" d="M91.47,153.69c-.2-.7-1.1-.85-2.75-1-.6-.05-.85-.4-.85-1a1,1,0,0,1,.85-1.05,9.58,9.58,0,0,1,2-.25c2.3,0,4.9,2.15,4.9,3.2a1.51,1.51,0,0,1-.35,1.1,2.41,2.41,0,0,0-.6,1.6c-.15,1.6-.2,4-.25,6,0,.5.2.7.7.65,3.25-.35,4.7-.45,5.65-.6a8.37,8.37,0,0,1,1.4-.15c1.85,0,4.6,1,4.6,2.5,0,.8-.25,1.3-1.25,1.3-.35,0-.8-.05-1.35-.1a32.92,32.92,0,0,0-4.85-.3c-1.25,0-2.75,0-4.4.1-.4.05-.55.2-.55.6-.25,5.75-.55,12-3.65,16.3-2,2.75-6,6-11.4,8.25a1.09,1.09,0,0,1-1.45-.45c-.4-.6-.3-1.1.35-1.35h.1c3.7-1.85,7.6-4.5,10-8.2s3.1-8.9,3.15-14.3c0-.45-.2-.65-.65-.6-3.25.2-6.4.5-9.4.85-.4.05-.55.2-.55.6,0,3.75,0,7.4,0,8.6,0,2.2-.35,3-1.35,3-1.3,0-1.95-2.15-1.95-3.55a10.12,10.12,0,0,1,.2-2.15,50.39,50.39,0,0,0,.55-5.55c0-.5-.2-.65-.7-.6q-2.92.38-4.65.75l-.7.15s-1,.3-1.5.45h-.1a5.62,5.62,0,0,1-2,.5c-1.15,0-3.3-2.3-3.8-3.5a10,10,0,0,1-.3-2.35.78.78,0,0,1,.45-.75c.1-.05.1-.05.15-.05a.71.71,0,0,1,.8.35v.1c.8,1.3,1.6,2.5,2.6,2.5,1.75,0,5.75-.5,8.65-.75l.55-.05c.35,0,.5-.2.5-.55a50.64,50.64,0,0,0-.35-7c-.2-.7-1-1-2.6-1.1a.81.81,0,0,1-.8-.9,1,1,0,0,1,.8-1.05,10,10,0,0,1,1.85-.25c1.55,0,4.5,1.5,4.5,2.9a2,2,0,0,1-.25,1v.1a3.35,3.35,0,0,0-.4,1.45v.1a25.28,25.28,0,0,0-.15,4.3c0,.45.2.65.65.6l9.65-.95c.25-.05.3-.1.3-.35v-.35c0-1.95.05-3.55.05-4.9a38.22,38.22,0,0,0-.15-3.85Z"/><path class="cls-3" d="M102,217c1.8,0,4.6,1.25,4.6,2.65,0,.75-.2,1.35-1.4,1.35a11.37,11.37,0,0,1-1.2-.05c-1-.05-2.25-.2-3.65-.2-1.95,0-5.4,0-9.35.35-.7,0-.8.3-.25.85a2.15,2.15,0,0,1,.6,1.35,1.49,1.49,0,0,1-.65,1.25,3.41,3.41,0,0,0-.9,1.15c-1.6,5.1-4.3,13.5-15.85,20.4a1.23,1.23,0,0,1-1.6-.2.75.75,0,0,1,.15-1.3c11.75-8,14.25-19,14.25-21.2a2.45,2.45,0,0,0-.65-1.6c-.15-.15-.25-.25-.5-.2-4.3.55-8.9,1.25-10.35,1.65-.45.15-.8.2-1.2.35a7.49,7.49,0,0,1-2.55.6c-1,0-3.2-1.85-3.9-3.4a7.31,7.31,0,0,1-.35-2,.75.75,0,0,1,.5-.75h.1a.65.65,0,0,1,.75.2l.05.1c.8,1.15,1.7,2.3,2.75,2.3,1.85,0,6.25-.55,11.25-1.15,4.4-.55,9.7-1.15,14.15-1.55a26.57,26.57,0,0,0,4-.7l1.05-.2Zm-26.45-9.25a.86.86,0,0,1,1.2,0,6.35,6.35,0,0,0,4,1.65,42.92,42.92,0,0,0,8.9-1.1,17,17,0,0,0,3.2-1,3.75,3.75,0,0,1,1.55-.4c2,0,3.65.8,3.65,2,0,.8-.7,1.4-2.35,1.65-.35,0-.65.15-1,.2-3.9.65-10.25,1.7-14,1.7-2.25,0-3.7-1.25-5.35-3.45-.3-.45-.25-.85.1-1.1Z"/><path class="cls-3" d="M74.22,275c2.85,0,17.5-1.8,21.3-2.4a3.51,3.51,0,0,0,1.5-.5,2.6,2.6,0,0,1,1-.4c1.45,0,4.25,2.6,4.25,3.75,0,.7-.6,1.1-1.15,1.5a3.67,3.67,0,0,0-1.2,1.05c-5,9.85-12.1,17.8-24.15,22.9a1,1,0,0,1-1.4-.45.85.85,0,0,1,.4-1.35c10.55-5.65,18.3-13.65,22.35-23.6.15-.35,0-.45-.45-.4-4.4.4-15.45,2-18.9,2.65a8.65,8.65,0,0,0-1.7.7,3.74,3.74,0,0,1-1.6.5c-1,0-3.25-1.9-3.8-3.15a8.78,8.78,0,0,1-.7-2.3,1,1,0,0,1,.45-.95.38.38,0,0,1,.2-.05.78.78,0,0,1,.9.3C72.32,274.14,73,275,74.22,275Zm1.1-11.5a.62.62,0,0,1,.15-1,.91.91,0,0,1,1.15-.05c1.6,1.15,2.65,1.7,4.1,1.7a36,36,0,0,0,8-1.05,14.46,14.46,0,0,0,3.25-1,3.87,3.87,0,0,1,1.6-.45c2,0,3.65.7,3.65,2,0,.8-.85,1.35-2.4,1.65-3.6.65-10,1.85-14.15,1.85-2.2,0-3.7-1.05-5.3-3.45Z"/><path class="cls-3" d="M122.38,165.45a.64.64,0,0,1-.18.06c-.1,0-.16.08-.16.18a18.9,18.9,0,0,1-.89,5.15.17.17,0,0,0,.06.21,2.74,2.74,0,0,1,1.11,1.86c0,.42-.27.64-.61.48a.28.28,0,0,1-.18-.21,4.73,4.73,0,0,0-.63-1c-.12-.16-.21-.15-.3,0a8.09,8.09,0,0,1-2.54,2.94.2.2,0,0,1-.3,0c-.07-.12-.07-.22,0-.28l0,0a9.91,9.91,0,0,0,2.31-3.38.15.15,0,0,0-.05-.19c-.25-.26-.55-.53-.85-.81s-.24-.12-.29.09l-.06.31v.11a.32.32,0,0,0,0,.09l-.08.07a.12.12,0,0,1-.1.09.91.91,0,0,1-.39,0,.32.32,0,0,1-.29-.44c.32-1.24.71-3.21,1-5.08,0-.15,0-.21-.18-.21h-.63a.37.37,0,0,1-.38-.32.22.22,0,0,1,.24-.3H119a.17.17,0,0,0,.18-.15c.13-1,.25-1.93.33-2.65a.35.35,0,0,1,.43-.35l.56.06c.27,0,.4.23.27.41l0,0a.34.34,0,0,1-.24.13.23.23,0,0,0-.17.17c-.07.6-.19,1.3-.31,2.14,0,.15,0,.21.18.21H121a.16.16,0,0,0,.14-.06l.21-.22a.37.37,0,0,1,.55,0l.51.47c.17.16.17.33,0,.45Zm-2.4,0a.17.17,0,0,0-.18.15c-.19,1.33-.43,2.7-.67,4,0,.09,0,.13.1.18.36.22.68.37,1,.57.14.1.23.06.27-.09a20.08,20.08,0,0,0,.63-4.58c0-.13,0-.19-.18-.19Zm2.15,9.87a.29.29,0,0,1-.35,0c-.12-.07-.12-.19,0-.31a8.2,8.2,0,0,0,2.19-5.51c0-.34-.09-.4-.32-.1s-.54.67-.85,1a.17.17,0,0,0-.05.12l0,.21,0,0c0,.12-.21.1-.33,0l-.39-.45a.35.35,0,0,1,.06-.58l1.92-1.46a.17.17,0,0,0,.07-.13v-4.43c0-.36.21-.46.5-.33l.45.21a.15.15,0,0,0,.09,0h2.13c.13,0,.18-.05.18-.18v-1.37a.36.36,0,0,1,.4-.39h0l.54.05h0c.23.06.39.21.26.39l0,0a.44.44,0,0,1-.21.13c-.09,0-.14.09-.14.2v1c0,.13.05.18.18.18h1.38c.06,0,.09,0,.14-.08l.34-.43a.35.35,0,0,1,.53,0c.22.17.49.41.78.66a.27.27,0,0,1,.06.36.41.41,0,0,1-.36.15H125c-.14,0-.18.05-.18.18v3.53c0,2.52-.29,5.4-2.7,7.36Zm1.11-8.19a.36.36,0,0,1-.11-.27,3.71,3.71,0,0,0-.3-1.25,6.72,6.72,0,0,0-.6-1.2c-.06-.1,0-.18.06-.21h0a.25.25,0,0,1,.26,0,3,3,0,0,1,1.41,2.25c0,.59-.35.86-.72.68Zm.58,8.11c-.07-.13-.06-.24.09-.31a6.21,6.21,0,0,0,3.59-4.82c0-.15,0-.21-.17-.21h-2a.36.36,0,0,1-.38-.31c0-.2.05-.3.24-.3h2.22c.11,0,.15-.05.17-.15.07-.68.09-1.35.1-2.12,0-.13,0-.18-.18-.18h-.76a.16.16,0,0,0-.15.11,7.73,7.73,0,0,1-1.25,1.9.3.3,0,0,1-.24,0l-.09,0a.23.23,0,0,1,0-.24,12.3,12.3,0,0,0,1.33-3.84.35.35,0,0,1,.48-.31l.6.15c.24.06.33.22.21.4l0,0a1.28,1.28,0,0,1-.25.11.2.2,0,0,0-.14.13c-.07.26-.15.48-.22.68s0,.25.16.25h2.25c.06,0,.09,0,.14-.07l.31-.38a.39.39,0,0,1,.56-.06c.19.17.45.38.69.62l0,0a.24.24,0,0,1,.06.33.45.45,0,0,1-.36.16h-2.12c-.12,0-.16,0-.18.17,0,.76,0,1.41-.09,2.07,0,.15,0,.21.18.21h1.19c.06,0,.09,0,.13-.08l.3-.39a.36.36,0,0,1,.57-.06c.2.17.47.39.71.62s.15.24.07.34v0a.35.35,0,0,1-.34.15h-2.57c-.16,0-.22.06-.18.23a7,7,0,0,0,3,4.44h0a.3.3,0,0,1,.09.21.08.08,0,0,1,0,.06.29.29,0,0,1-.16.15l-.05,0a.46.46,0,0,0-.31.15c-.18.18-.36.28-.6.09a7.38,7.38,0,0,1-2.12-3.8c-.12-.46-.24-.46-.42,0a6.73,6.73,0,0,1-3.78,3.9.26.26,0,0,1-.36-.08Z"/><path class="cls-3" d="M117.84,195.52c-.08-.19,0-.31.24-.31h1.39a.15.15,0,0,0,.17-.14c.24-1.09.43-2.17.6-3a.34.34,0,0,1,.46-.31l.57.12c.26,0,.39.25.21.43a.63.63,0,0,1-.27.14.16.16,0,0,0-.16.15l-.5,2.38c0,.17,0,.23.17.24H122a.14.14,0,0,0,.13-.06l.21-.22a.38.38,0,0,1,.56,0l.54.48c.18.18.16.39,0,.47l-.2.06c-.09,0-.13.06-.15.15a17.68,17.68,0,0,1-1.17,4.84.16.16,0,0,0,.06.21,3.15,3.15,0,0,1,1.32,2.18c0,.46-.25.69-.6.57l-.06,0a.44.44,0,0,1-.16-.21v0a5.07,5.07,0,0,0-.9-1.48c-.09-.14-.18-.14-.29,0a8.62,8.62,0,0,1-3.07,2.94.21.21,0,0,1-.29-.06.2.2,0,0,1,0-.29,8.77,8.77,0,0,0,2.81-3.28.15.15,0,0,0,0-.21,14.57,14.57,0,0,0-1.2-1c-.13-.11-.21-.06-.27.1L119,201a.37.37,0,0,1-.15.2h0a1.08,1.08,0,0,1-.4,0,.32.32,0,0,1-.29-.45c.38-1.24.9-3,1.32-4.77,0-.16,0-.22-.18-.22h-1a.35.35,0,0,1-.38-.29Zm2.64.32c-.11,0-.15,0-.17.13-.3,1.22-.58,2.43-.9,3.56a.17.17,0,0,0,.09.22,12.19,12.19,0,0,1,1.4.69c.13.08.21.05.27-.09a18.5,18.5,0,0,0,.9-4.32c0-.13,0-.19-.18-.19Zm7.15-2.49a.17.17,0,0,0-.18.13,16.17,16.17,0,0,1-1.62,4.08c0,.06,0,.09,0,.12l0,0s0,0,.08,0h3.54a.17.17,0,0,0,.13-.07l.2-.23a.36.36,0,0,1,.54,0l.58.45h0c.17.18.2.38,0,.48l0,0a.51.51,0,0,1-.22.09c-.09,0-.15.09-.15.2v6.22l0,.08a1.06,1.06,0,0,1-.69.36h0l0,0a.09.09,0,0,1-.09-.06v0a.15.15,0,0,1,0-.09v-.94c0-.14,0-.18-.18-.18H126c-.13,0-.18,0-.18.18V205a.69.69,0,0,1-.67.39h-.06a.1.1,0,0,1-.09-.06l0,0a.32.32,0,0,1,0-.09V199.6c0-.36-.12-.4-.33-.1a16.14,16.14,0,0,1-1.65,1.86.25.25,0,0,1-.3,0l0,0a.24.24,0,0,1,0-.3,19.3,19.3,0,0,0,3.78-7.49c0-.16,0-.22-.18-.22h-2.74a.39.39,0,0,1-.38-.3v0a.23.23,0,0,1,.25-.29h6.27a.18.18,0,0,0,.15-.07c.11-.17.23-.3.36-.47a.4.4,0,0,1,.56-.06l.82.72c.08.08.12.21.08.27v0a.37.37,0,0,1-.38.2Zm-1.65,5c-.13,0-.18,0-.18.18v4.66c0,.14,0,.18.18.18h3.57c.14,0,.18,0,.18-.18v-4.66c0-.14,0-.18-.18-.18Z"/><path class="cls-3" d="M120.9,233.14c-1,0-2-1.57-2-3.46a5.73,5.73,0,0,1,2-4.23,6.39,6.39,0,0,1,4.37-1.62c3,0,5.41,2,5.41,5.13,0,2.38-1.42,5-6.13,5.41a.29.29,0,0,1-.32-.25.25.25,0,0,1,.23-.32c3.54-.64,5.23-2.35,5.23-5.05a4.2,4.2,0,0,0-4.47-4.25.82.82,0,0,0-.21,0c-.12,0-.16.06-.09.16a2.41,2.41,0,0,1,.39,1.28,7.64,7.64,0,0,1-.46,2.4C124.17,230.14,122.38,233.14,120.9,233.14Zm3.06-5a6.35,6.35,0,0,0,.49-2.21,2.53,2.53,0,0,0-.31-1.18.16.16,0,0,0-.2-.09,6.13,6.13,0,0,0-2.7,1.42,4.77,4.77,0,0,0-1.56,3.44c0,1.45.66,2.49,1.25,2.49C121.89,232,123.33,229.62,124,228.12Z"/><path class="cls-3" d="M129.52,253.05a.16.16,0,0,0,.14-.06l.39-.51a.34.34,0,0,1,.54,0l.85.72a.25.25,0,0,1,.08.37.41.41,0,0,1-.36.15H120c-.14,0-.18,0-.18.18V257c0,2.46-.09,5.76-1.77,8.15v0c-.06.1-.17.12-.3.05a.2.2,0,0,1-.06-.29c1.15-2.4,1.24-5.29,1.24-7.92v-3.88c0-.37.21-.47.51-.33l.45.21h4.37c.13,0,.18-.05.18-.18V252c0-.29.15-.42.43-.39l.6.07c.24,0,.44.23.27.41a.74.74,0,0,1-.27.16c-.09,0-.15.09-.15.2v.43c0,.13.05.18.18.18Zm-.37,9.16s-.05,0-.08.05a.6.6,0,0,1-.43.24.15.15,0,0,0-.14.1l-.16.38q-.14.28.18.27H129c.21,0,.26-.12.12-.24l-.24-.26a.15.15,0,0,1,0-.23h0a.33.33,0,0,1,.29,0c.87.34,1.17.86,1.17,1.22a.4.4,0,0,1-.54.41s-.08,0-.09-.06l-.06-.09,0,0,0-.14a.17.17,0,0,0-.18-.07l-.68.12-1.11.21a.41.41,0,0,0-.12.09l-.12.1c-.15.08-.25.05-.31-.13l-.17-.42c-.1-.25,0-.41.29-.41h.28a.16.16,0,0,0,.17-.12,7.94,7.94,0,0,0,.24-1,.35.35,0,0,1,.43-.31l.56.09c.07,0,.1,0,.1-.09s0-.11-.1-.11h-2.19c-.14,0-.18,0-.18.18v2.32c0,.16,0,.17.63.17h1.68c.73,0,1.36,0,1.6,0a.31.31,0,0,0,.27-.17,3.67,3.67,0,0,0,.3-1c0-.1.08-.12.17-.12a.11.11,0,0,1,.12.12l0,.93a.19.19,0,0,0,.12.16.4.4,0,0,1,.27.36c0,.43-.43.58-2.91.58H127c-1.15,0-1.38-.21-1.38-.88v-2.46c0-.14,0-.18-.18-.18h-1c-.1,0-.15,0-.16.13-.53,2.11-2,3-4.55,3.54-.15,0-.25,0-.28-.15v0c0-.13,0-.21.13-.26,2.22-.61,3.32-1.49,3.72-3,0-.16,0-.22-.16-.22h-.8c-.13,0-.18,0-.18.18v.33c0,.12-.33.34-.67.34h-.06a.08.08,0,0,1-.09-.06l0,0a.28.28,0,0,1,0-.09v-4.05c0-.33.16-.4.45-.28l.43.17s0,0,.06,0h1.77a.2.2,0,0,0,.17-.09c.07-.19.19-.42.27-.64a.37.37,0,0,1,.46-.26h0l.53.17c.25.07.36.28.18.42a1.31,1.31,0,0,1-.33.12c-.06,0-.09,0-.14.07l-.09.09c-.1.09-.09.12,0,.12h3.59a.16.16,0,0,0,.13-.06l.2-.21a.4.4,0,0,1,.52,0l.54.43h0c.19.18.21.37,0,.51h0l-.24.1a.17.17,0,0,0-.12.17v2.62a.1.1,0,0,1,0,.07h0a.1.1,0,0,1-.06.08,1.36,1.36,0,0,1-.51.26Zm-6.68-5.46c0-.33-.1-.37-.33-.13a9.64,9.64,0,0,1-2,1.46.22.22,0,0,1-.31-.06.22.22,0,0,1,.06-.33,7.37,7.37,0,0,0,1.87-1.92c.12-.15.06-.26-.15-.26h-1.12a.35.35,0,0,1-.38-.3.22.22,0,0,1,.24-.3h1.89c.14,0,.18,0,.18-.18v-.67c0-.29.15-.42.44-.39l.49.06c.23,0,.38.19.26.37l0,0a.41.41,0,0,1-.18.12.2.2,0,0,0-.14.2v.28c0,.14,0,.18.18.18h.26c.06,0,.09,0,.13-.08l.26-.31a.39.39,0,0,1,.54-.06l.63.54a.32.32,0,0,1,.07.32s0,0,0,0a.44.44,0,0,1-.35.15h-1.63c-.06,0-.08,0-.08.07s0,.08.08.09c1.2.25,1.59.79,1.59,1.15a.41.41,0,0,1-.54.4l-.08,0-.13-.14a5.58,5.58,0,0,0-.63-.68c-.17-.17-.29-.11-.29.13v1.3c0,.12-.34.31-.63.31h-.09a.12.12,0,0,1-.12-.12Zm-.24,2.75c0,.13,0,.18.18.18H125c.13,0,.18-.05.18-.18v-.42c0-.13,0-.18-.18-.18h-2.54c-.13,0-.18.05-.18.18Zm0,1.47c0,.14,0,.18.18.18H125c.13,0,.18,0,.18-.18v-.48c0-.13,0-.18-.18-.18h-2.54c-.13,0-.18.05-.18.18Zm7.13-5.46c-.27,0-.33.12-.11.28a9.47,9.47,0,0,0,2.09,1.15h0a.24.24,0,0,1,.11.2v0a.23.23,0,0,1-.17.19.58.58,0,0,0-.28.18.5.5,0,0,1-.65.13,7,7,0,0,1-1.59-1.46c-.24-.33-.36-.28-.36.11v1.43c0,.12-.33.28-.64.28h-.09a.11.11,0,0,1-.12-.12V256.5c0-.27-.11-.33-.32-.13a7.89,7.89,0,0,1-1.62,1.05.28.28,0,0,1-.36-.08l0,0a.28.28,0,0,1,.09-.33,5.86,5.86,0,0,0,1.41-1.2c.17-.16.11-.27-.12-.27H126a.34.34,0,0,1-.37-.3c0-.19,0-.3.24-.3h1.59c.13,0,.18,0,.18-.18v-.58a.35.35,0,0,1,.43-.4l.5.05h0c.21.06.36.21.28.39l0,0a.94.94,0,0,1-.22.12c-.09,0-.14.09-.14.2v.19c0,.14.05.18.18.18h1.13c.06,0,.09,0,.13-.08a4,4,0,0,1,.27-.34.34.34,0,0,1,.54,0c.18.16.41.36.65.55a.25.25,0,0,1,.07.35.44.44,0,0,1-.36.16Zm-3.38,4c0,.13,0,.18.18.18h2.64c.14,0,.18-.05.18-.18v-.42c0-.13,0-.18-.18-.18h-2.64c-.13,0-.18.05-.18.18Zm.18.81c-.13,0-.18.05-.18.18V261c0,.14,0,.18.18.18h2.64c.14,0,.18,0,.18-.18v-.48c0-.13,0-.18-.18-.18Z"/><path class="cls-3" d="M129.4,285.56c.06,0,.09,0,.14-.07L130,285a.37.37,0,0,1,.54-.06,9,9,0,0,1,.92.75h0a.27.27,0,0,1,.06.35.43.43,0,0,1-.38.18h-2.56c-.11,0-.14,0-.17.13a13.08,13.08,0,0,1-2.14,5.18c-.11.12-.09.21.06.28,3.25,1.37,4.21,2.6,4.21,3.24a.4.4,0,0,1-.55.41.13.13,0,0,1-.08,0l-.09-.06,0,0a17.6,17.6,0,0,0-4.23-2.88.14.14,0,0,0-.19,0c-1.56,1.46-3.87,2.42-7.28,3a.24.24,0,0,1-.28-.2c0-.13,0-.22.15-.25a13.65,13.65,0,0,0,6.43-2.85c.14-.12.12-.21,0-.29-1-.42-2.15-.87-3.27-1.23a.14.14,0,0,0-.18.06l-.06.14-.24.45v0a.29.29,0,0,1-.2.15,1,1,0,0,1-.49,0c-.27,0-.33-.28-.21-.51a48,48,0,0,0,2.17-4.5c.08-.18,0-.25-.16-.25h-3.53a.37.37,0,0,1-.37-.3l0,0a.24.24,0,0,1,.26-.29h4.06a.17.17,0,0,0,.17-.1c.58-1.34,1-2.58,1.35-3.53a.35.35,0,0,1,.45-.28l.66.13c.25.05.39.24.22.42a.6.6,0,0,1-.33.15.23.23,0,0,0-.15.12c-.28.72-.66,1.68-1.15,2.84-.08.18,0,.25.16.25Zm-6.28.62a.17.17,0,0,0-.17.1c-.55,1.28-1.09,2.52-1.65,3.66-.06.14,0,.21.11.26,1.42.37,2.61.72,3.69,1.09a.14.14,0,0,0,.19-.06,11.35,11.35,0,0,0,2.1-4.83c0-.16,0-.22-.18-.22Z"/></g></g></svg>