<svg xmlns="http://www.w3.org/2000/svg" viewBox="0 0 56.88 55.74"><defs><style>.cls-1{fill:#fff;}</style></defs><title>アセット 1</title><g id="レイヤー_2" data-name="レイヤー 2"><g id="検索_-_PC" data-name="検索 - PC"><g id="憶病な魔女"><path class="cls-1" d="M0,24.12a7,7,0,0,1,.57-2.37q.57-1.47,1.29-3.09T3.3,15.48a18.13,18.13,0,0,0,1-2.64,1.07,1.07,0,0,0,.09-.3q0-.18.27-.18.42,0,.75,1A18.59,18.59,0,0,1,6,15.69a23.05,23.05,0,0,1,.33,2.49q.09,1.2.09,1.62a8.67,8.67,0,0,1-1,4.68,4,4,0,0,1-2.22,1.83A2.61,2.61,0,0,1,1,26,2.11,2.11,0,0,1,0,24.12ZM29.88,35.28a5.82,5.82,0,0,0-.81.48q-.75.48-1.83,1.05a20.08,20.08,0,0,1-2.37,1,7,7,0,0,1-2.43.48.53.53,0,0,1-.6-.6V19.68q0-.72-.45-.81a2.19,2.19,0,0,0-1.05.09,9.75,9.75,0,0,0-1.2.45,2.52,2.52,0,0,1-1,.27,2.43,2.43,0,0,1-1.2-.3,1.13,1.13,0,0,1-.54-1.08v-1a6.74,6.74,0,0,0-.09-1.11,2.05,2.05,0,0,0-.39-.93,1.06,1.06,0,0,0-.9-.39.34.34,0,0,0-.33.18.8.8,0,0,0-.09.36V53.64q0,.72-1,1.2a7.82,7.82,0,0,1-2.16.69,13.4,13.4,0,0,1-2.31.21,2.17,2.17,0,0,1-1.41-.3.69.69,0,0,0-.06-.21A.69.69,0,0,1,7.68,55V.6a.53.53,0,0,1,.6-.6,29.77,29.77,0,0,1,3.51.21q1.77.21,3.51.51a1.23,1.23,0,0,0,.39.06q.21,0,.21.3a.48.48,0,0,1-.24.36l-.51.39a2.34,2.34,0,0,0-.48.51,1.33,1.33,0,0,0-.21.78q0,.3.06,1.29t.12,2.13q.06,1.14.12,2.07a5.21,5.21,0,0,0,.12,1.05,3.61,3.61,0,0,0,.84,1.11q.6.57,1.29,1.17t1.38,1.14a6.37,6.37,0,0,1,1.11,1.08q.36.42.93,1.23a4.31,4.31,0,0,0,.93,1.05h5.58q.54,0,.54-.6A10.45,10.45,0,0,0,27.15,14q-.33-1.41-.78-2.94a21.37,21.37,0,0,0-1-2.73q-.54-1.2-.9-1.2l-1,.06q-.78.06-1.62.06a8.44,8.44,0,0,1-1.5-.12q-.66-.12-.66-.42a.37.37,0,0,1,.42-.42H31.44q.72,0,.72-1A20.17,20.17,0,0,0,32,3.18,15.53,15.53,0,0,1,32,1.08q0-1,.81-1l1.68,0q1.26,0,2.61.15a18,18,0,0,1,2.4.36q1,.24,1,.66A.77.77,0,0,1,40,2a.77.77,0,0,0-.51.72V6.24l-.18.42-.24.24-.42.18q-.6,0-1.71-.06T34.62,7a19.07,19.07,0,0,0-2.22.12A2.74,2.74,0,0,0,31,7.56l-.12.3a1.83,1.83,0,0,0,.45.75q.39.45.87.93t.87.9a3.26,3.26,0,0,1,.51.66,2.41,2.41,0,0,1,.06,1.44l-.36,1.77a7.56,7.56,0,0,0-.18,1.5q0,.63.54.63H38q.36,0,.75-1.26t.72-2.85q.33-1.59.54-3t.27-1.62q.06-.18.21-.84t.33-.66l.9,0q.6,0,1.29,0a12.1,12.1,0,0,0,1.26-.06,1.9,1.9,0,0,0,.75-.18,3.19,3.19,0,0,0,.84-1l.75-1.29a13.79,13.79,0,0,1,.84-1.26,2.39,2.39,0,0,1,1.11-.84l.3.06q.42.3,1.44.93t2,1.35a17.71,17.71,0,0,1,1.8,1.44A1.94,1.94,0,0,1,55,6.72a.29.29,0,0,1-.21.27.91.91,0,0,1-.33.09H47.25A5.33,5.33,0,0,0,46,7.14a1,1,0,0,0-.36.66.91.91,0,0,0,.54.87,5.41,5.41,0,0,0,1.17.42l1.17.27q.54.12.54.42,0,.6-1.38,1.26l-3,1.44a28.59,28.59,0,0,0-3,1.65,2.41,2.41,0,0,0-1.38,1.95.29.29,0,0,0,.21.27.91.91,0,0,0,.33.09h5.52a1.62,1.62,0,0,0,1-.63,16.29,16.29,0,0,0,1.17-1.38L49.62,13a2.66,2.66,0,0,1,.84-.81,5.47,5.47,0,0,1,1.17.75q.93.69,1.89,1.56t1.74,1.62q.78.75.78.93t-.15.15l-.27,0q-8.28,0-16.44.21t-16.44.21a.73.73,0,0,0-.48.21.6.6,0,0,0-.24.45q0,.36,1,.93a22.78,22.78,0,0,0,2.31,1.11q1.29.54,2.49.93a6.63,6.63,0,0,0,1.62.39h1.65l2.85,0q1.62,0,3.39,0h3.27q1.5,0,2.49-.06a5.68,5.68,0,0,0,1.11-.12l1.44-1.29q.72-.63,1.44-1.29.3-.24,1.35.09a11.2,11.2,0,0,1,2.16,1,15.3,15.3,0,0,1,2,1.35q.9.72.9,1.2a.39.39,0,0,1-.27.36l-.57.24a3.1,3.1,0,0,0-.57.3.51.51,0,0,0-.27.42V36.06q0,.6-.87.93a9,9,0,0,1-2,.48,20.62,20.62,0,0,1-2.19.18l-1.5,0a.47.47,0,0,1-.48-.27,1.94,1.94,0,0,1-.15-.63q0-.36-.09-.72a1.35,1.35,0,0,0-.24-.6l-.42-.18ZM16.44,49.44A3.17,3.17,0,0,1,17,47.7a10.65,10.65,0,0,1,1.29-1.62q.75-.78,1.56-1.47a14.3,14.3,0,0,0,1.35-1.29,5.73,5.73,0,0,0,.72-.87q.3-.45.66-.93.48-.66.78-.3a2.72,2.72,0,0,1,.48,1.08,9,9,0,0,1,.24,1.5q.06.78.06,1,0,1.08-.06,2.49A10.13,10.13,0,0,1,23.61,50,5,5,0,0,1,22.38,52a3.16,3.16,0,0,1-2.34.84,3.67,3.67,0,0,1-2.52-1A3.14,3.14,0,0,1,16.44,49.44ZM34,40.68a2.6,2.6,0,0,1-.21.61,1.33,1.33,0,0,0-.15.6v6l.18.42.42.43.42.18h8.16a1.24,1.24,0,0,0,.87-.3,3.56,3.56,0,0,0,.57-.66q.24-.36.45-.72a1.35,1.35,0,0,1,.57-.54.55.55,0,0,1,.3.3,1.51,1.51,0,0,0,.18.36,3.05,3.05,0,0,0,.63.93l.78.78a3.94,3.94,0,0,1,.66.86A2.13,2.13,0,0,1,48.12,51a2.91,2.91,0,0,1-1.41,2.73,8.84,8.84,0,0,1-3.33,1.1,21.32,21.32,0,0,1-3.93.18q-2-.09-3.21-.09-1,0-2.49.06a14.55,14.55,0,0,1-3-.18,6.39,6.39,0,0,1-2.49-.93,2.43,2.43,0,0,1-1.05-2.19V40.38q0-.6.48-.6a15.56,15.56,0,0,1,3.06.3,25.6,25.6,0,0,0,3.06.42Zm-5.16-6.84a.53.53,0,0,0,.6.6h14.4a.53.53,0,0,0,.6-.6V23.46a.53.53,0,0,0-.6-.6H29.46a.53.53,0,0,0-.6.6ZM30.3,28.2a6.35,6.35,0,0,1,1.14-.09l2.31-.06q1.35,0,2.91,0t2.91,0l2.31.06A6.35,6.35,0,0,1,43,28.2l.12.18a.24.24,0,0,1-.18.06H41.49l-2.43,0q-1.38,0-2.88,0t-2.79,0l-2.19,0a4.25,4.25,0,0,1-1-.06Zm3.06,9.12q0-.36.42-.42a5.21,5.21,0,0,1,.72-.06,15.32,15.32,0,0,1,2.46.24,11.85,11.85,0,0,1,2.76.81A7.43,7.43,0,0,1,42,39.36a3,3,0,0,1,.93,2.22,3.37,3.37,0,0,1-.12.78,6.06,6.06,0,0,1-.33,1,3,3,0,0,1-.51.81.88.88,0,0,1-.66.33H38.4a.83.83,0,0,1-.54-.3,3.86,3.86,0,0,1-.54-.75q-.3-.51-.6-1.11t-.63-1.17q-.33-.57-.57-.93a10.17,10.17,0,0,0-1.11-1.38A6.12,6.12,0,0,1,33.36,37.32ZM47,40.8q-.18-.12,0-.24a.45.45,0,0,1,.27-.12,11,11,0,0,1,3.33.54,10.06,10.06,0,0,1,3.09,1.59A9.31,9.31,0,0,1,56,45.06a6,6,0,0,1,.9,3.24A4.27,4.27,0,0,1,56,51a3.06,3.06,0,0,1-2.58,1.08,2.39,2.39,0,0,1-1.5-.51,5.72,5.72,0,0,1-1.17-1.23,9.91,9.91,0,0,1-.9-1.56q-.39-.84-.63-1.5-.6-1.62-1.08-3.27A29.07,29.07,0,0,0,47,40.8Z"/></g></g></g></svg>