<svg xmlns="http://www.w3.org/2000/svg" viewBox="0 0 56.04 56.28"><defs><style>.cls-1{fill:#fff;}</style></defs><title>アセット 2</title><g id="レイヤー_2" data-name="レイヤー 2"><g id="検索_-_PC" data-name="検索 - PC"><g id="憶病な魔女"><path class="cls-1" d="M30.12,26.22a1.21,1.21,0,0,1-1,.24l-1.41-.15a5.68,5.68,0,0,0-1.29,0,.55.55,0,0,0-.57.6q0,4,.09,7.86T26,42.6q0,.48,0,2.31t-.12,3.84q-.09,2-.18,3.66a6.23,6.23,0,0,1-.21,1.77,4.37,4.37,0,0,1-1.2.93,7.94,7.94,0,0,1-1.53.63,9.27,9.27,0,0,1-1.65.33,14.24,14.24,0,0,1-1.5.09.53.53,0,0,1-.6-.6V24.24a.93.93,0,0,0-.33-.63,2.39,2.39,0,0,0-.57-.45,1.26,1.26,0,0,0-.36.54q-.06.24-.18.6a9.82,9.82,0,0,0-.15,1.29c0,.42-.05.84-.09,1.28-.12,1.84-.3,3.6-.54,5.27a54.56,54.56,0,0,1-1.44,6.68,33.13,33.13,0,0,1-2.58,6.53,25.76,25.76,0,0,1-4,5.6,16.14,16.14,0,0,1-5.58,3.89.92.92,0,0,1-.36.12q-.36.12-.36-.3a2.91,2.91,0,0,1,.39-1.34q.39-.75.87-1.56t1-1.56a12,12,0,0,0,.81-1.35,53.58,53.58,0,0,0,2.91-8.14,32.63,32.63,0,0,0,1.17-8.57,3.6,3.6,0,0,0-.06-.47q-.06-.36-.3-.36c-.2,0-.56.39-1.08,1.16s-1.07,1.67-1.65,2.67S5.46,37.11,5,38s-.78,1.55-.9,1.83l-.24.18-.36-.18q-.24-.6-.81-1.71c-.38-.74-.76-1.49-1.14-2.27S.8,34.38.48,33.7A4.13,4.13,0,0,1,0,32.26L.18,32c.32-.19,1-.54,2.1-1s2.19-1,3.33-1.59,2.16-1.1,3.06-1.62S10,26.89,10,26.69V21.78a.89.89,0,0,0-.6-.9.49.49,0,0,0-.36.12,2.84,2.84,0,0,0-.69.84,4,4,0,0,1-.48.75,2,2,0,0,1-.72.54,3.53,3.53,0,0,1-1.41.21,6.88,6.88,0,0,1-1.29-.12,2.31,2.31,0,0,1-1.11-.54.58.58,0,0,1-.18-.42q-.3-2.76-.51-5.43a26.92,26.92,0,0,0-1-5.37l.12-.24a4,4,0,0,1,2.4.69,7.7,7.7,0,0,1,1.71,1.71,21.54,21.54,0,0,1,1.38,2.13,10.6,10.6,0,0,0,1.47,2l.33.33q.21.21.33.15a.83.83,0,0,0,.45-.45,1.52,1.52,0,0,0,.15-.63V5a1.13,1.13,0,0,1,.09-.45.38.38,0,0,1,.39-.21,1,1,0,0,1,.42.12q1.62.78,2.7,1.44a22,22,0,0,0,2.1,1.14A10.52,10.52,0,0,0,18,7.83a16.3,16.3,0,0,0,3.3.27q1.56,0,3.06,0t3.06,0a.53.53,0,0,0,.6-.6V.6a.53.53,0,0,1,.6-.6q.48,0,1.86.09L33.36.3q1.5.12,2.79.27A10.73,10.73,0,0,1,37.8.84q.6.18.45.42a1.59,1.59,0,0,1-.57.48,9.88,9.88,0,0,0-.84.54.83.83,0,0,0-.42.66q0,.3-.06,1.14T36.3,5.79a7.37,7.37,0,0,0,.15,1.56Q36.6,8,37,8h8.16a1.75,1.75,0,0,0,1.47-.78,10.47,10.47,0,0,0,1-1.74q.45-1,.9-1.8a1.48,1.48,0,0,1,1.17-.9l.42.12a7.1,7.1,0,0,0,1.23,1.17q1,.81,2,1.68t1.83,1.59q.81.72.81.9t-.24.36l-.42.18H18.18a.53.53,0,0,0-.6.6V20a3.09,3.09,0,0,0,.81,2.19,6.3,6.3,0,0,0,2.1,1.44,16.31,16.31,0,0,0,2.79.93q1.5.36,2.91.6t2.49.48A3.7,3.7,0,0,1,30.12,26.22ZM27.6,43.8a3.71,3.71,0,0,1,.3-1q.24-.54.57-1.14l.63-1.17a9.27,9.27,0,0,0,.48-1.05,31.63,31.63,0,0,0,2-8.61Q32,26.4,32,22V19.5q0-.24,0-.63a3.1,3.1,0,0,0,0-.75,2,2,0,0,0-.21-.63.54.54,0,0,0-.51-.27H19.92a.27.27,0,0,1-.3-.3.26.26,0,0,1,.3-.29H45q.42,0,1.08-.75t1.35-1.65q.69-.9,1.29-1.65t1-.75a3.1,3.1,0,0,1,1,.63q.81.63,1.77,1.41l1.86,1.5,1.2,1,.12.3-.12.3-.12.12-.42.18H40.26a.72.72,0,0,0-.69.42,3.41,3.41,0,0,0-.3,1,7.88,7.88,0,0,0-.09,1.17v.87q0,1.38.06,2.67A20.06,20.06,0,0,1,39.18,26a30.34,30.34,0,0,1-1.11,5.52,21.93,21.93,0,0,1-2.22,5,20.32,20.32,0,0,1-3.39,4.23A17.32,17.32,0,0,1,27.78,44ZM40.26,25.92a3.17,3.17,0,0,1,.81-.09q.69,0,1.53,0h2.58q.3,0,.9-.63t1.23-1.38l1.18-1.38c.37-.42.63-.63.79-.63a4.89,4.89,0,0,1,1,.66l2,1.47c.73.54,1.4,1.06,2,1.56l1.23,1a.52.52,0,0,1,.24.42.44.44,0,0,1-.27.39l-.6.36a3.51,3.51,0,0,0-.6.48.93.93,0,0,0-.27.69V49.2a6,6,0,0,1-.76,3.09,6.84,6.84,0,0,1-2,2.16,9.44,9.44,0,0,1-2.79,1.32,12.79,12.79,0,0,1-3.1.51,1.25,1.25,0,0,1-.48-.06q-.12-.06-.24-.42t-.3-.93q-.12-.45-.3-.93A4.66,4.66,0,0,0,43,52.17q-.75-.75-1.47-1.59a4.22,4.22,0,0,0-.27-.36.64.64,0,0,1-.15-.42q0-.36.63-.45a13.93,13.93,0,0,1,1.44-.12l1.59-.06a1.91,1.91,0,0,0,1.08-.27.73.73,0,0,0,.36-.39q.06-.21.18-.51a18.7,18.7,0,0,0,.39-2.73q.09-1.35.09-2.73,0-.78-.45-.87a2.32,2.32,0,0,0-1.08.09,10.57,10.57,0,0,0-1.26.45,2.73,2.73,0,0,1-1,.27,3.07,3.07,0,0,1-2.22-.75,5,5,0,0,1-1.2-1.89,8.76,8.76,0,0,1-.51-2.43q-.09-1.29-.09-2.31,0-.24,0-.75a9.19,9.19,0,0,1,0-1.05,3.42,3.42,0,0,1,.18-1,.53.53,0,0,1,.51-.42,3.1,3.1,0,0,1,1.26.33,10.88,10.88,0,0,1,1.41.78,15.9,15.9,0,0,1,1.32,1l1,.87a3.45,3.45,0,0,1,.54.54,2,2,0,0,0,.54.48.41.41,0,0,0,.21.09l.21,0q.54-.06.54-.81V32.52q0-1.08-.06-2.22t-.12-2.13a5.13,5.13,0,0,0-.18-1.29l-.18-.36q-.06-.12-.36-.12-.48,0-1.29.06t-1.71.06a10.48,10.48,0,0,1-1.65-.12A1.4,1.4,0,0,1,40.26,25.92Z"/></g></g></g></svg>