<svg xmlns="http://www.w3.org/2000/svg" viewBox="0 0 50.1 52.08"><defs><style>.cls-1{fill:#fff;}</style></defs><title>アセット 3</title><g id="レイヤー_2" data-name="レイヤー 2"><g id="検索_-_PC" data-name="検索 - PC"><g id="憶病な魔女"><path class="cls-1" d="M21.66,9.24l1.26-.66q.78-.42,1.65-.84a15.42,15.42,0,0,1,1.65-.69,4.08,4.08,0,0,1,1.26-.27q2.7,0,2.7,2.76a3.48,3.48,0,0,1-.63,2.19,4.73,4.73,0,0,1-1.65,1.32,8.72,8.72,0,0,1-2.28.75l-2.52.51a24,24,0,0,0-2.37.63A4.5,4.5,0,0,0,18.9,16a6.13,6.13,0,0,0-1.11,1.53A12.35,12.35,0,0,0,17,19.32q-.48,1.32-1.14,3.57t-1.53,4.92q-.87,2.67-1.95,5.43a38.56,38.56,0,0,1-2.34,5,15.79,15.79,0,0,1-2.73,3.63A4.5,4.5,0,0,1,4.2,43.26,2.33,2.33,0,0,1,1.86,42a6.4,6.4,0,0,1-.6-2.73A8.44,8.44,0,0,1,2,35.64a19.29,19.29,0,0,1,1.89-3.21Q5,30.9,6.3,29.43a20.08,20.08,0,0,0,2.16-3l.9-1.59q.66-1.17,1.35-2.49t1.23-2.46a5.08,5.08,0,0,0,.54-1.44q0-.42,0-1.17t-.63-.75q-2,0-4.17-.12a12,12,0,0,1-3.84-.81,6.33,6.33,0,0,1-2.79-2.16A7,7,0,0,1,0,9.24Q0,8.7.6,8.7A4.17,4.17,0,0,1,1.92,9q.78.27,1.59.63l1.59.72a10.71,10.71,0,0,0,1.38.54A6.67,6.67,0,0,0,9,11.31q1.29,0,2.67,0a10.12,10.12,0,0,0,2-.15,1.64,1.64,0,0,0,1-.6,2.55,2.55,0,0,0,.42-1.23q.09-.78.15-2a3.74,3.74,0,0,0-.51-2.22A7.66,7.66,0,0,0,13.5,3.54q-.72-.66-1.32-1.17a1.51,1.51,0,0,1-.6-1.17.79.79,0,0,1,.51-.69A3.49,3.49,0,0,1,13.26.15Q13.92.06,14.58,0l1,0,1.68,0a18.47,18.47,0,0,1,2.07.18,6.73,6.73,0,0,1,1.89.54,2.42,2.42,0,0,1,1.2,1.11,2.49,2.49,0,0,1,.15,1.5,14.18,14.18,0,0,1-.42,1.71q-.27.87-.57,1.74a4.92,4.92,0,0,0-.3,1.59q0,.24,0,.57T21.66,9.24Zm8.58,25,.06-.06.18-.42q0-1.2,0-2.73T30.66,28a21.26,21.26,0,0,1,.45-3,7.63,7.63,0,0,1,1-2.49,8.26,8.26,0,0,1,1.59-1.68q1.29-1.14,2.7-2.31l2.55-2.13a5.69,5.69,0,0,0,1.14-1.08,1.57,1.57,0,0,0-.63-1.32A5.41,5.41,0,0,0,38,13.14q-.84-.3-1.74-.54A4.87,4.87,0,0,1,34.8,12l-.12-.24a.9.9,0,0,1,.51-.54,3.66,3.66,0,0,1,.9-.27,8.89,8.89,0,0,1,1-.12l.78,0a36.28,36.28,0,0,1,4.5.27,10.36,10.36,0,0,1,3.78,1.17,6.82,6.82,0,0,1,2.61,2.61,9,9,0,0,1,1,4.53,2.65,2.65,0,0,1-.48,1.89,2.92,2.92,0,0,1-1.92.45,8.17,8.17,0,0,1-2.1-.27q-1-.27-2-.6t-2-.6a8.17,8.17,0,0,0-2.1-.27,5.62,5.62,0,0,0-3.45.93,3.86,3.86,0,0,0-1.23,3.27q0,1,.06,2.61T34.77,30a22,22,0,0,0,.6,3,5.24,5.24,0,0,0,1.11,2.19A7.65,7.65,0,0,0,39,37.08a26.26,26.26,0,0,0,2.94,1.14l3,.93a8.23,8.23,0,0,1,2.61,1.32,6.57,6.57,0,0,1,1.86,2.28,8.29,8.29,0,0,1,.72,3.75v.69a1.41,1.41,0,0,1-.12.63,3.31,3.31,0,0,1-2.52,1.44,3.63,3.63,0,0,1-2.58-1A27.93,27.93,0,0,1,42.78,46a27.93,27.93,0,0,0-2.1-2.22,3.63,3.63,0,0,0-2.58-1,1.88,1.88,0,0,0-.51.06.54.54,0,0,0-.33.36,4.23,4.23,0,0,0-.15.9q0,.48-.09.9A7.36,7.36,0,0,1,34,50.1a9.67,9.67,0,0,1-3.63,1.56,19.19,19.19,0,0,1-3.93.42,18.8,18.8,0,0,1-3.81-.39,11,11,0,0,1-3.45-1.32,7.51,7.51,0,0,1-2.52-2.43,6.77,6.77,0,0,1-1-3.72A7.54,7.54,0,0,1,17,39.6a10.3,10.3,0,0,1,3.45-3A16,16,0,0,1,25.05,35a34.93,34.93,0,0,1,4.77-.6Zm.24,6.42q0-.42,0-.81a1.41,1.41,0,0,0-.21-.81.89.89,0,0,0-.51-.39,5.15,5.15,0,0,0-.84-.24,6.94,6.94,0,0,0-.9-.12l-.69,0q-1.2,0-2.82.09a13.59,13.59,0,0,0-3.06.51A6,6,0,0,0,19,40.26a3.45,3.45,0,0,0-1,2.64,2.69,2.69,0,0,0,.57,1.77A4,4,0,0,0,20,45.75a6.71,6.71,0,0,0,1.86.54,12.88,12.88,0,0,0,1.86.15,11.25,11.25,0,0,0,2.67-.3,5.94,5.94,0,0,0,2.16-1A4.57,4.57,0,0,0,30,43.35,6.36,6.36,0,0,0,30.48,40.68Z"/></g></g></g></svg>