<svg xmlns="http://www.w3.org/2000/svg" viewBox="0 0 56.4 55.44"><defs><style>.cls-1{fill:#fff;}</style></defs><title>アセット 4</title><g id="レイヤー_2" data-name="レイヤー 2"><g id="検索_-_PC" data-name="検索 - PC"><g id="憶病な魔女"><path class="cls-1" d="M44.1,44.52a1.32,1.32,0,0,0,.51.24,2.62,2.62,0,0,0,.57.06,2,2,0,0,0,1.32-.3,1.2,1.2,0,0,0,.36-.63q.06-.33.09-.63t.57-.3a3.2,3.2,0,0,1,1.32.33,6.33,6.33,0,0,1,1.35.84,5.12,5.12,0,0,1,1.05,1.14,2.3,2.3,0,0,1,.42,1.29,1.42,1.42,0,0,1-.78,1.29,3,3,0,0,1-1.5.45,1.21,1.21,0,0,1-.78-.24,3.45,3.45,0,0,1-.54-.54,3.45,3.45,0,0,0-.54-.54,1.31,1.31,0,0,0-.84-.24,7.49,7.49,0,0,0-1.29.15,7.64,7.64,0,0,0-1.59.48,4.76,4.76,0,0,0-1.32.81,1.42,1.42,0,0,0-.54,1.08,1.22,1.22,0,0,0,.09.42.33.33,0,0,0,.33.24h7.2a1.68,1.68,0,0,0,1.32-.63,8.48,8.48,0,0,0,1-1.38q.42-.75.81-1.38a1.11,1.11,0,0,1,.93-.63.56.56,0,0,1,.57.36,2.09,2.09,0,0,1,.15.81,7.5,7.5,0,0,1-.06.93,6.37,6.37,0,0,0-.06.72.54.54,0,0,0,.36.48,6.19,6.19,0,0,1,.75.45,3,3,0,0,1,.75.81A2.68,2.68,0,0,1,56.4,52a2,2,0,0,1-.84,1.65,6.36,6.36,0,0,1-2.16,1,15.5,15.5,0,0,1-2.91.48q-1.59.12-3.15.15t-2.85,0q-1.29-.06-2-.06H36.9q-.84,0-1.86-.09a6.73,6.73,0,0,1-1.92-.45,4.49,4.49,0,0,1-1.53-1A2.31,2.31,0,0,1,31,51.9V39.48q0-.3-.39-.36a4.21,4.21,0,0,0-.57-.06q-.24,0-.69.57a12.57,12.57,0,0,0-.9,1.32l-.87,1.44q-.42.69-.6.93a42.42,42.42,0,0,1-3.3,4.11,34,34,0,0,1-4.2,3.93,22.79,22.79,0,0,1-4.83,2.94,12.47,12.47,0,0,1-5.13,1.14,2.53,2.53,0,0,1-.42-.06q-.3-.06-.3-.24a.54.54,0,0,1,.36-.48,5.34,5.34,0,0,0,.54-.3,27.18,27.18,0,0,0,3.42-2.25,28.07,28.07,0,0,0,3.15-2.82A22.55,22.55,0,0,0,18.84,46a19.22,19.22,0,0,0,1.86-3.6.35.35,0,0,0,.06-.24q0-.84-.87-.72a11.88,11.88,0,0,0-1.92.45q-1,.33-1.92.51t-.87-.6v-17a.53.53,0,0,1,.6-.6,7.55,7.55,0,0,1,2.22.33q1.08.33,2.16.69t2.16.69a7.76,7.76,0,0,0,2.28.33l1,0a1.37,1.37,0,0,0,.93-.21,1.14,1.14,0,0,0,.33-.75q.09-.57.18-1.2A7.12,7.12,0,0,1,27.27,23q.15-.48.51-.48a2.39,2.39,0,0,1,.63.09,2.39,2.39,0,0,0,.63.09,4.41,4.41,0,0,0,2.34-.66,9.5,9.5,0,0,0,2-1.62A14.78,14.78,0,0,0,35,18.39q.72-1.11,1.32-2.07.3-.48.63-.93a3.57,3.57,0,0,0,.51-1,2.37,2.37,0,0,0,.06-.57q0-.33-.36-.33l-2.37,0q-1.59,0-3.3,0t-3.21.12a7.56,7.56,0,0,0-2.1.33q-.6-.06-.51.36a2.35,2.35,0,0,0,.27.72,1.92,1.92,0,0,0,1.14.45A15.09,15.09,0,0,1,29,15.9a5.51,5.51,0,0,1,1.8.93,2.25,2.25,0,0,1,.81,1.89A1.31,1.31,0,0,1,30.69,20,4.32,4.32,0,0,1,29,20.4a1.41,1.41,0,0,1-1.23-.54,4.22,4.22,0,0,1-.6-1.2,6.56,6.56,0,0,0-.51-1.2,1,1,0,0,0-1-.54q-.12,0-.21.21a.91.91,0,0,0-.09.33,9,9,0,0,0-.15,2.43q.09,1.23.09,2.43,0,.3-.72.6a10.31,10.31,0,0,1-1.62.51q-.9.21-1.77.36a8.57,8.57,0,0,1-1.17.15,1,1,0,0,1-.75-.27A1.59,1.59,0,0,1,19,23a3.17,3.17,0,0,1-.15-.78q0-.42,0-.78a1.25,1.25,0,0,0-.09-.54q-.09-.18-.51-.18a2.39,2.39,0,0,0-1,.36q-.66.36-1.35.81t-1.38.87a9.45,9.45,0,0,1-1.11.6l-.18-.12a6.29,6.29,0,0,1,.66-1.65q.66-1.35,1.5-2.94t1.53-2.94A5.71,5.71,0,0,0,17.52,14a.38.38,0,0,0-.21-.39l-.39-.15H13l-.42-.18-.12-.18.12-.3a5.37,5.37,0,0,1,1-.09q.84,0,1.89,0h3.27q.24,0,.36-.63a4.86,4.86,0,0,0,0-1.44,6.37,6.37,0,0,0-.39-1.59,2.31,2.31,0,0,0-.84-1.14,3.16,3.16,0,0,0-1.05-.21Q16,7.62,15,7.59l-2-.06-1.32,0a.37.37,0,0,0-.39.24,2.2,2.2,0,0,0-.12.57,3.64,3.64,0,0,0,0,.66q0,.33,0,.51a6.2,6.2,0,0,0,.21,1.62,6.2,6.2,0,0,1,.21,1.62v3.66q0,4.14-.15,8.7a79.71,79.71,0,0,1-.81,9,46.93,46.93,0,0,1-2.13,8.67,28.77,28.77,0,0,1-4,7.68q-.18.24-.75.87T2.46,52.62q-.66.66-1.26,1.17a1.81,1.81,0,0,1-.84.51A.29.29,0,0,1,0,54a4.21,4.21,0,0,1,0-.45A17.74,17.74,0,0,1,.6,49q.6-2.25,1.29-4.44t1.29-4.44a17.74,17.74,0,0,0,.6-4.59V4.38q0-.66.54-.66a5,5,0,0,1,1.77.42L8.28,5q1.14.48,2.31.9a6.5,6.5,0,0,0,2.19.42q2.7,0,5.4.18t5.4.18l1,0a.56.56,0,0,0,.6-.63V.6q0-.6.72-.6l1.62,0q1.2,0,2.49.15a17,17,0,0,1,2.31.36q1,.24,1,.6a.6.6,0,0,1-.09.36L33,1.8a4,4,0,0,0-.63,1.83q-.09,1-.09,2a5.64,5.64,0,0,0,.06.69q.06.45.42.45h12A1.86,1.86,0,0,0,46,6.09a13.13,13.13,0,0,0,1.29-1.44A14,14,0,0,0,48.36,3,9.92,9.92,0,0,0,49,1.68l.36-.18a5.38,5.38,0,0,1,1.2.84q1,.78,2,1.74t1.86,1.83q.84.87.84,1t-.42.48a1.49,1.49,0,0,1-.6.24H41.64a1,1,0,0,0-.3.06.24.24,0,0,0-.18.24q0,.54.72.72a15.46,15.46,0,0,0,1.56.3A15.46,15.46,0,0,1,45,9.3q.72.18.72.6a2.74,2.74,0,0,1-.12.81,2.74,2.74,0,0,0-.12.81q0,.84.33,1a2.48,2.48,0,0,0,1.11.18,2.08,2.08,0,0,0,1.38-.45,5.36,5.36,0,0,0,1-1,12.57,12.57,0,0,1,.87-1.11,1.93,1.93,0,0,1,1.17-.63l.21.09.21.09a6.31,6.31,0,0,1,.69.54q.57.48,1.2,1.08l1.11,1.08a2.66,2.66,0,0,1,.48.54q0,.48-1.17.63a21.19,21.19,0,0,1-2.67.15q-1.5,0-2.91-.09t-1.83-.09l-.42.18-.12.24s.06.07.06.09,0,.05.06.09a7.87,7.87,0,0,0,2,1.5,16.49,16.49,0,0,0,2.16.9l2.19.75a10,10,0,0,1,2.13,1.05l.27.24a.37.37,0,0,1,.15.3.49.49,0,0,1-.06.27,1.45,1.45,0,0,1-.18.21,11.35,11.35,0,0,0-.63,1.05q-.45.81-1,1.68l-.93,1.56q-.42.69-.6.69-.36,0-1.17-1.05T49,20.85q-.84-1.35-1.56-2.61t-1-1.74l-.24-.18a.65.65,0,0,0-.48.18l-.18.42v6.6q0,.48.75,1.05A16.31,16.31,0,0,0,48,25.68q.93.54,1.68,1.08t.75,1q0,.42-.51.6t-.51.6v9.54a.58.58,0,0,1-.18.42A6.39,6.39,0,0,1,48,40.14q-.87.72-1.71,1.47a17.68,17.68,0,0,0-1.5,1.5A2.21,2.21,0,0,0,44.1,44.52ZM20.7,8.1q-.06.36.69.54a15.76,15.76,0,0,0,1.71.3l1.83.24a3.5,3.5,0,0,1,1.17.3q-.3.48-.45.75a2.06,2.06,0,0,0-.15.93,1.86,1.86,0,0,0,.18.84.73.73,0,0,0,.72.36,1,1,0,0,0,.87-.45,6.85,6.85,0,0,0,.6-1q.27-.54.51-1a.7.7,0,0,1,.6-.45.2.2,0,0,1,.18.09,1.45,1.45,0,0,0,.18.21,6.14,6.14,0,0,0,3,2.46,13.53,13.53,0,0,0,3.87.48,9.77,9.77,0,0,1,1.08.06,3.6,3.6,0,0,0,.93,0,1,1,0,0,0,.66-.39,1.9,1.9,0,0,0,.27-1.17,4.43,4.43,0,0,0-.09-.78q-.09-.48-.21-1a4.38,4.38,0,0,0-.33-.9A1.67,1.67,0,0,0,38.1,8a5.59,5.59,0,0,0-1.86-.3q-1.62-.12-3.6-.15l-3.78-.06-2.4,0q-1.38,0-2.76.06a16.31,16.31,0,0,0-2.76.36Zm.48,29.4.3.27a.56.56,0,0,0,.36.15h6.3a.53.53,0,0,0,.6-.6V28.08a.53.53,0,0,0-.6-.6h-6.3a.56.56,0,0,0-.36.15l-.3.27q0,.66,0,1.29t0,1.29a2.88,2.88,0,0,0,.18,1,3,3,0,0,1,0,2,2.88,2.88,0,0,0-.18,1q0,.72,0,1.47T21.18,37.5Zm1.32-4.86a.29.29,0,0,1,.21-.27.91.91,0,0,1,.33-.09h3.84a.91.91,0,0,1,.33.09.29.29,0,0,1,.21.27,2.6,2.6,0,0,1-.81.09q-.75,0-1.65,0t-1.65,0A2.6,2.6,0,0,1,22.5,32.64ZM38,19.08l-.87.51-1.44.84q-.75.45-1.35.87t-.66.48a.53.53,0,0,0-.06.15.53.53,0,0,1-.06.15,1.71,1.71,0,0,0,.39.57.8.8,0,0,1,.27.57q0,.3-.57.63t-1.29.66q-.72.33-1.29.66t-.57.69a.41.41,0,0,0,.12.3,2.6,2.6,0,0,0,.81.09l1.89.06q1.14,0,2.43,0l2.49,0h3.36a1.19,1.19,0,0,0,.69-.3,5,5,0,0,0,.75-.72,6.39,6.39,0,0,0,.63-.87,2.52,2.52,0,0,0,.33-.75l-.06-.24-.36-.3a7.36,7.36,0,0,0-1,.12q-.72.12-1.47.21a8.05,8.05,0,0,1-1.35.06q-.6,0-.6-.39v-2q0-.6,0-1.14a2.33,2.33,0,0,0-.09-.66,1.37,1.37,0,0,0-.51-.18A3.25,3.25,0,0,0,38,19.08Zm-2.22,8.4a.53.53,0,0,0-.6.6v9.24a.53.53,0,0,0,.6.6h6.42a.53.53,0,0,0,.6-.6V28.08a.53.53,0,0,0-.6-.6ZM37,32.28h3.9l.42.18.12.18a2.77,2.77,0,0,1-.84.09q-.78,0-1.68,0t-1.65,0a2.6,2.6,0,0,1-.81-.09l.12-.18Zm.12,7.44a32.14,32.14,0,0,0,.24,3.93,32.14,32.14,0,0,1,.24,3.93q0,.3,0,.87a1.75,1.75,0,0,0,.09.81,1.35,1.35,0,0,0,.84.51,4.32,4.32,0,0,0,1,.15q1.08,0,1.2-.57A2.3,2.3,0,0,0,40.56,48a12,12,0,0,0-.75-1.53,2.74,2.74,0,0,1-.45-1.26q0-.48.54-.33a3.38,3.38,0,0,0,.84.15q.42,0,.66-.72a10.7,10.7,0,0,0,.39-1.62A13.62,13.62,0,0,0,42,41q0-.87,0-1.17a1.22,1.22,0,0,0-.09-.42.33.33,0,0,0-.33-.24l-1,0q-.6,0-1.26,0a11.78,11.78,0,0,0-1.23.06,2.57,2.57,0,0,0-.81.18Z"/></g></g></g></svg>