<svg xmlns="http://www.w3.org/2000/svg" viewBox="0 0 55.49 55.62"><defs><style>.cls-1{fill:#fff;}</style></defs><title>アセット 5</title><g id="レイヤー_2" data-name="レイヤー 2"><g id="検索_-_PC" data-name="検索 - PC"><g id="憶病な魔女"><path class="cls-1" d="M.18,16.44l1.56,0q1.08,0,2.46,0l2.88,0q1.5,0,2.79,0l2.22.06a7.61,7.61,0,0,1,1.17.09l-.42.18a1.38,1.38,0,0,1-.42.12H.18L0,16.62ZM17.94,35.22q1.56,0,3.06.12a21.08,21.08,0,0,1,3.06.48,18.37,18.37,0,0,0,2.28.45,17.92,17.92,0,0,0,2.34.15q.6,0,1.26-.93a13.1,13.1,0,0,0,1.29-2.4q.63-1.47,1.2-3.27t1-3.45q.48-1.65.81-3t.45-1.95q.06-.24.18-.78t.27-1.11l.27-1.05a3.61,3.61,0,0,0,.12-.6,1.68,1.68,0,0,0-.18-.69.58.58,0,0,0-.54-.39H25.5a.3.3,0,0,1,0-.6H42.84q.66,0,1.38-1a23.14,23.14,0,0,0,1.41-2.13q.69-1.17,1.29-2.13t1-1a7,7,0,0,1,1.26.9l2.52,2Q53,14,54.18,15a12.63,12.63,0,0,1,1.26,1.17q.12.36-.06.48a2.28,2.28,0,0,1-.75.09l-1.74.06q-1.05,0-2.25,0l-2.31,0H45.24q-.36,0-.69.51a5.57,5.57,0,0,0-.57,1.2,11.88,11.88,0,0,0-.39,1.38q-.15.69-.21,1-.24,1.32-.39,2.61A12.67,12.67,0,0,1,42.42,26a20.65,20.65,0,0,1-1.29,3q-.87,1.71-1.74,3.48T37.86,36a7.89,7.89,0,0,0-.66,2.85q0,.3.09.36l.33.18,4.41,2a26.89,26.89,0,0,1,4.41,2.46,13.9,13.9,0,0,1,3.42,3.33,7.71,7.71,0,0,1,1.38,4.62,4.2,4.2,0,0,1-.93,2.79,3.29,3.29,0,0,1-2.67,1.11,6.8,6.8,0,0,1-1.5-.15,3.62,3.62,0,0,1-1.32-.63,9.77,9.77,0,0,1-2.22-2q-1-1.2-2-2.28-.3-.3-1.44-1.29l-2.4-2.07q-1.26-1.08-2.37-1.92a4.34,4.34,0,0,0-1.35-.84h-.78a4.26,4.26,0,0,0-1,.66l-.87.78a11.59,11.59,0,0,1-2,1.47L26.4,48.54a48.18,48.18,0,0,1-9,4.08A59.49,59.49,0,0,1,7.92,55q-.9.12-1.83.3a9.62,9.62,0,0,1-1.83.18,1.82,1.82,0,0,1-.81-.09q-.09-.09.45-.57a9.26,9.26,0,0,1,2.31-1.44l2.55-1.2q2.94-1.38,5.22-2.4t4.35-2.16a32.93,32.93,0,0,0,4.11-2.7,38.27,38.27,0,0,0,4.38-4,.66.66,0,0,1,0-.21.49.49,0,0,0,0-.15,1.45,1.45,0,0,0-.72-.87,15.88,15.88,0,0,0-1.65-1q-1-.51-2.13-1l-2.13-.9q-1-.42-1.71-.81t-.78-.63ZM30.6,2.16a2.85,2.85,0,0,1-.93.72,4.27,4.27,0,0,0-1,.66,5.56,5.56,0,0,0-.51,1.14q-.39,1-.84,2.28t-.84,2.4L26,10.86l-1.23,3.45q-.87,2.43-2,5.52t-2.52,6.42q-1.35,3.33-2.64,6.15t-2.4,4.71Q14,39,13.32,39.18a2.65,2.65,0,0,1-.9.09q-.48,0-1,0H10.2q-1,0-2-.09a11.27,11.27,0,0,1-1.83-.3q-.81-.21-.81-.63A7.36,7.36,0,0,1,6.15,36q.57-1.53,1.47-3.48t2-4.14q1.08-2.19,2.13-4.23t1.86-3.75q.81-1.71,1.23-2.73.9-2.28,1.65-4.65t1.47-4.77q.12-.42.54-1.77t.9-2.79a25.33,25.33,0,0,1,1-2.55Q20.88,0,21.24,0q.72,0,2.1.12t2.88.39A19.87,19.87,0,0,1,29,1.2,3.12,3.12,0,0,1,30.6,2.16Z"/></g></g></g></svg>