<svg xmlns="http://www.w3.org/2000/svg" viewBox="0 0 208.17 28.29"><defs><style>.cls-1{fill:#fff;}</style></defs><title>アセット 13</title><g id="レイヤー_2" data-name="レイヤー 2"><g id="レイヤー_6" data-name="レイヤー 6"><path class="cls-1" d="M3.07,12.42l-.15.06c-.13.12-.31.31-.56.59s-.52.55-.81.84a11.1,11.1,0,0,1-.84.76A1.18,1.18,0,0,1,.12,15C0,15,0,14.94,0,14.82a.63.63,0,0,1,.07-.24A10.36,10.36,0,0,1,.79,12.9c.27-.54.54-1.09.78-1.65.49-1.16,1-2.33,1.42-3.5s.84-2.36,1.18-3.58c.25-.86.45-1.73.63-2.61,0-.22.09-.43.14-.63s.1-.4.17-.6A.74.74,0,0,1,5.2.15s.07-.06.17-.06A2.39,2.39,0,0,1,5.74.2c.22.07.45.14.7.24l.73.25.45.15q.57.21,1.14.36l1.17.3.19.06a.15.15,0,0,1,.09.15A9.6,9.6,0,0,0,9.11,3q-.64.88-1.26,1.89a18,18,0,0,0-1,2,4,4,0,0,0-.43,1.56.35.35,0,0,0,.31.39A1.4,1.4,0,0,1,7.21,9l0,.12A.4.4,0,0,1,7,9.46a.3.3,0,0,0-.17.29V27q0,.33-.45.54a4.62,4.62,0,0,1-1,.33q-.58.12-1.14.18c-.37,0-.63.06-.79.06a.26.26,0,0,1-.3-.3V12.51ZM20,15.6a5.63,5.63,0,0,1-.26,1.69c-.17.56-.36,1.1-.55,1.64s-.39,1.08-.56,1.62a5.47,5.47,0,0,0-.26,1.65.54.54,0,0,0,.05.26.61.61,0,0,0,.2.16,2.81,2.81,0,0,0,.76.24q.56.12,1.29.24l1.58.23,1.6.19,1.38.15c.41,0,.73.06.94.06h.4l.59,0a2.94,2.94,0,0,1,.55.07q.24.06.24.15a.19.19,0,0,1-.07.12c-.47.46-.91.87-1.29,1.23a4,4,0,0,0-.93,1.53.88.88,0,0,0-.08.32c0,.12-.05.25-.09.38a1.27,1.27,0,0,1-.16.33.24.24,0,0,1-.24.14,5.93,5.93,0,0,1-1.57-.25,17,17,0,0,1-1.71-.64c-.57-.25-1.14-.52-1.69-.82l-1.58-.82q-.73-.37-1.32-.63a2.5,2.5,0,0,0-.92-.26,3.43,3.43,0,0,0-1.55.49c-.6.33-1.24.7-1.89,1.1s-1.33.77-2,1.1a4.32,4.32,0,0,1-1.9.49h-.2c-.09,0-.14-.06-.14-.14s.14-.33.42-.57.63-.51,1-.79.86-.6,1.35-.92.94-.64,1.35-1a10.07,10.07,0,0,0,1-.92,1.3,1.3,0,0,0,.42-.81,1.71,1.71,0,0,0-.28-.93,6.39,6.39,0,0,0-.61-.89A9.76,9.76,0,0,1,12.7,20a1.39,1.39,0,0,1-.28-.8c0-.1.05-.15.16-.15a1.49,1.49,0,0,1,.46.3c.25.2.51.43.79.68l.8.67a1.54,1.54,0,0,0,.44.3c.14,0,.26-.17.39-.52a7.19,7.19,0,0,0,.28-1.19c.07-.44.12-.86.17-1.27s.05-.68.05-.82V.45c0-.18.09-.27.28-.27a13.63,13.63,0,0,1,2,.15c.67.1,1.34.18,2,.24.12.06.17.13.17.2a.41.41,0,0,1-.05.21.85.85,0,0,1-.19.19L20,1.32,20,1.53ZM9.21,5a.26.26,0,0,1,.28-.21c.68,0,1.35,0,2,.06s1.35.07,2,.09h.93a3,3,0,0,1,.9.1l-.48.18H9.49l-.21-.09v0Zm.16,12.27V7.53a.62.62,0,0,1,0-.23.2.2,0,0,1,.2-.1.48.48,0,0,1,.21.06c.93.42,1.82.78,2.65,1.07a9.64,9.64,0,0,0,2.81.49l.09.09L15.28,9H13.47a.45.45,0,0,0-.32.21.64.64,0,0,0-.19.33V15c0,.2.13.31.38.33a5.83,5.83,0,0,0,.83,0,8.17,8.17,0,0,1,.82-.05c.25,0,.38.08.38.24s-.09.16-.26.2a3.32,3.32,0,0,1-.57,0h-.62l-.38,0a.24.24,0,0,0-.23.11l-.14.19a3,3,0,0,1-1.51,1.23,6.31,6.31,0,0,1-2,.36l-.21-.09ZM27.84,4.92a.54.54,0,0,1-.54.3H21A.66.66,0,0,1,20.55,5,2.35,2.35,0,0,0,22,4.56a5.78,5.78,0,0,0,1-1.06,12.25,12.25,0,0,0,.68-1.08c.19-.34.33-.5.45-.5a2,2,0,0,1,.68.41c.37.26.77.58,1.19.92s.8.7,1.15,1A4,4,0,0,1,27.84,4.92Zm-.26,4.47a.8.8,0,0,1-.21.19c-.11.08-.2.15-.3.21l-.28.21c-.08.08-.12.14-.12.2v6c0,.16-.14.3-.45.42a9.3,9.3,0,0,1-1,.32c-.38.09-.76.16-1.13.21a6.57,6.57,0,0,1-.74.07.37.37,0,0,1-.35-.17.89.89,0,0,1-.17-.38,2.45,2.45,0,0,1,0-.48v-.41a1,1,0,0,1,.09-.45,1.34,1.34,0,0,0,.09-.45V9.54a.6.6,0,0,0-.18-.33A.5.5,0,0,0,22.45,9H20.71c-.11,0-.16-.05-.16-.15s.08-.15.23-.16a3.35,3.35,0,0,1,.54,0q.32,0,.63,0a.9.9,0,0,0,.5-.12,3.59,3.59,0,0,0,.38-.39c.18-.2.37-.4.54-.61a7.3,7.3,0,0,1,.53-.56.73.73,0,0,1,.38-.24,2.37,2.37,0,0,1,.56.35l1.06.76L27,8.73l.65.51Zm-6.93,6h1.61l.1.09-.1.09H20.65l-.1-.09Z"/><path class="cls-1" d="M31.24,4.71a.38.38,0,0,1,.25-.13l.29,0a6.66,6.66,0,0,1,1.92.3,6.44,6.44,0,0,1,1.81.87,5,5,0,0,1,1.35,1.39A3.4,3.4,0,0,1,37.38,9a6,6,0,0,1-.25,1.74c-.17.56-.36,1.12-.55,1.67S36.19,13.48,36,14a6,6,0,0,0-.26,1.74A6.53,6.53,0,0,0,35.9,17a6,6,0,0,0,.42,1.32,3.32,3.32,0,0,0,.75,1.07,1.61,1.61,0,0,0,1.15.43,1.73,1.73,0,0,0,1.11-.37,4,4,0,0,0,.86-.93,8.69,8.69,0,0,0,.68-1.2c.19-.43.38-.83.55-1.21a9.44,9.44,0,0,1,.48-.92c.15-.25.31-.38.5-.38s.12,0,.13.14a1.49,1.49,0,0,1,0,.19,8,8,0,0,1-.12,1.38c-.08.46-.17.92-.28,1.37s-.21.89-.28,1.35a6.88,6.88,0,0,0-.12,1.36A8.71,8.71,0,0,0,41.88,22a5.59,5.59,0,0,1,.11,1.5,2.2,2.2,0,0,1-.42,1.2,1.67,1.67,0,0,1-1.4.49A4.54,4.54,0,0,1,38.81,25a5.6,5.6,0,0,1-1.27-.57,8.07,8.07,0,0,1-1.67-1.32,9.8,9.8,0,0,1-1.4-1.79,10,10,0,0,1-1-2,6.67,6.67,0,0,1-.35-2.08V8.61a3.06,3.06,0,0,0-.29-1.28,7.74,7.74,0,0,0-.65-1.13c-.23-.35-.46-.66-.65-.92A1.46,1.46,0,0,1,31.24,4.71ZM54.61,19.62a1.76,1.76,0,0,1-1.6-.81,3.22,3.22,0,0,1-.54-1.38q-.12-.78-.18-1.62c0-.56-.08-1.11-.13-1.66a4.74,4.74,0,0,0-.41-1.55,3.24,3.24,0,0,0-.4-.64c-.21-.29-.46-.62-.73-1s-.58-.74-.89-1.12l-.86-1.06L48.23,8A2.56,2.56,0,0,1,48,7.59a.16.16,0,0,1,.14-.17h.22a5.35,5.35,0,0,1,1.13.12,9.38,9.38,0,0,1,1.07.3,10.09,10.09,0,0,1,2.53,1.3,9.12,9.12,0,0,1,2,1.94,9,9,0,0,1,1.29,2.45,8.43,8.43,0,0,1,.46,2.8,9.25,9.25,0,0,1-.07,1.16,3.54,3.54,0,0,1-.31,1.06,2.18,2.18,0,0,1-.66.78A2,2,0,0,1,54.61,19.62Z"/><path class="cls-1" d="M63.37,17.64a.92.92,0,0,0-.09-.27q-.11-.18-.21-.18a.78.78,0,0,0-.47.17,3.66,3.66,0,0,0-.45.37l-.45.42a1.12,1.12,0,0,1-.44.27s0,0,0,0,0,0-.06-.05a2.64,2.64,0,0,1-.29-.64c-.15-.4-.31-.82-.46-1.29s-.31-.91-.44-1.32a4,4,0,0,1-.2-.77l.07-.12.76-.14c.39-.06.79-.14,1.2-.23s.77-.2,1.09-.3.49-.22.49-.32V.3a.26.26,0,0,1,.3-.3l.85,0q.65,0,1.32.12A10.28,10.28,0,0,1,67,.38c.35.08.53.19.53.31s-.11.27-.31.45a.72.72,0,0,0-.3.48l.21,5.1.09.09.16,0a2.77,2.77,0,0,0,.61-1,2.42,2.42,0,0,1,.62-1h0a.06.06,0,0,1,0,0,1.74,1.74,0,0,1,.4.33c.23.22.48.48.73.77l.75.82c.25.26.4.43.49.51a.85.85,0,0,1,.06.31c0,.14-.08.2-.21.2H67.47l-.21.09-.21.21L67,8.13v3.93c0,.22.12.32.37.3a4.34,4.34,0,0,0,.79-.15c.29-.08.55-.14.8-.19s.36,0,.36.19-.12.25-.35.46-.48.43-.76.65-.54.43-.77.63-.35.34-.35.42V24.81a2.44,2.44,0,0,1-.38,1.36,3.77,3.77,0,0,1-1,1,4.74,4.74,0,0,1-1.31.66,6,6,0,0,1-1.38.3h-.08c-.11,0-.21-.14-.3-.43s-.2-.62-.3-1-.2-.71-.29-1.05a2.37,2.37,0,0,0-.25-.66l-.32-.36a.65.65,0,0,1-.22-.39c0-.06,0-.1.13-.12l.2,0a2.91,2.91,0,0,1,.64.05,1.38,1.38,0,0,0,.45,0A.64.64,0,0,0,63,24a2,2,0,0,0,.35-.59ZM60.28,7.53l-.07-.09a1.28,1.28,0,0,1,.41,0h1.67a1.42,1.42,0,0,1,.42,0l-.06.09-.22.09H60.49Zm10,8.07h5.76a.27.27,0,0,0,.31-.3V7.41a.63.63,0,0,0-.19-.36.5.5,0,0,0-.35-.21,2.35,2.35,0,0,0-1.41.58c-.5.4-1,.83-1.5,1.29A18.67,18.67,0,0,1,71.43,10a2.13,2.13,0,0,1-1.35.59q-.24,0-.24-.18a.28.28,0,0,1,0-.16.76.76,0,0,1,.11-.14l1.88-2.43a26,26,0,0,0,1.74-2.55,23.5,23.5,0,0,0,1.24-2.31q.52-1.17,1-2.4A1.22,1.22,0,0,1,76,.25a.25.25,0,0,1,.17,0l1,.06c.49,0,1,.11,1.5.19A8.66,8.66,0,0,1,80,.81c.41.14.61.3.61.48a.35.35,0,0,1-.19.27,13.64,13.64,0,0,0-1,.93q-.68.66-1.35,1.41a16.16,16.16,0,0,0-1.18,1.47,2.15,2.15,0,0,0-.51,1.14c0,.2.18.35.54.44a9,9,0,0,0,1.22.21c.46,0,.91.08,1.34.09a3.12,3.12,0,0,1,.88.1c.11.06.16.11.16.15a.34.34,0,0,1-.07.18.32.32,0,0,0-.06.18v2.19a.41.41,0,0,0,0,.16c0,.08.06.11.11.11a.63.63,0,0,0,.44-.25,6.62,6.62,0,0,0,.47-.56c.15-.2.29-.39.42-.55s.23-.26.31-.26a1.42,1.42,0,0,1,.51.32c.28.21.58.44.89.72s.59.52.83.76.35.39.35.45,0,.16-.17.18l-.28,0-.51,0L83,11.07l-1,0h-.9a2.57,2.57,0,0,0-.68.1c-.18.06-.26.15-.26.27v3.75a.45.45,0,0,0,.16.29.5.5,0,0,0,.29.16l.42,0,.63-.06.61-.07a3.19,3.19,0,0,0,.38-.08,1.67,1.67,0,0,0,.46-.45c.19-.24.38-.5.59-.79s.38-.58.55-.86l.37-.63a2,2,0,0,1,.77.37c.33.24.66.5,1,.8a11.09,11.09,0,0,1,.91.9,5.5,5.5,0,0,1,.55.69.8.8,0,0,1,.08.28c0,.1-.07.14-.23.14H70.29l-.12-.12Zm1.38,2a3.48,3.48,0,0,1,.91.29l1,.47c.37.18.71.33,1,.47a2,2,0,0,0,.81.21h6l.21-.09c.25-.26.5-.53.73-.81l.71-.84a.16.16,0,0,1,.09,0l.09,0s.25.09.58.33.68.51,1.06.81.73.6,1,.89.46.47.46.55a.37.37,0,0,1-.11.24,2.15,2.15,0,0,1-.28.23,1.43,1.43,0,0,0-.26.22.35.35,0,0,0-.12.24V27c0,.12-.16.23-.45.33a7.58,7.58,0,0,1-1,.25c-.39.08-.76.13-1.13.17s-.59.06-.71.06-.33-.1-.33-.3a3.89,3.89,0,0,1,0-.59,1.47,1.47,0,0,0-.07-.58.43.43,0,0,0-.09-.22.7.7,0,0,1-.08-.23.31.31,0,0,1,0-.33.37.37,0,0,0,.12-.27V19.92a.26.26,0,0,0-.29-.3h-6a.26.26,0,0,0-.3.3v5.49a.26.26,0,0,0,.3.3H76.8c.58,0,1.2,0,1.83,0s1.22,0,1.74,0a3.42,3.42,0,0,1,.88.09,1.7,1.7,0,0,1-.18.21l-.21.09H75.58c-.07,0-.12,0-.17.14a1.26,1.26,0,0,0-.13.31c0,.12-.08.24-.12.37a.64.64,0,0,1-.19.29,2.23,2.23,0,0,1-.63.39,4.23,4.23,0,0,1-.76.24c-.27.06-.54.11-.79.14s-.5,0-.72,0a.27.27,0,0,1-.31-.3c0-1.68,0-3.35-.1-5s-.11-3.33-.11-5Zm1-6.78h2.79l.19,0c.09,0,.15.08.16.14a2,2,0,0,1-.49,0H72.7l-.12-.12Zm7.73-8a2.92,2.92,0,0,1,.53.27l.74.48c.26.18.51.36.76.52s.45.3.58.38A16.12,16.12,0,0,0,85.4,5.54c.81.29,1.62.59,2.44.91l.19.08a.17.17,0,0,1,.09.16.25.25,0,0,1-.05.15L88,7q-.42.45-.75.84c-.21.26-.42.53-.59.79a5.24,5.24,0,0,0-.47.87,9.62,9.62,0,0,0-.35,1.07l-.12.09-.18-.09c-.46-.5-1-1-1.55-1.62a22.23,22.23,0,0,1-1.66-1.84,12.79,12.79,0,0,1-1.33-2,5.16,5.16,0,0,1-.64-2.11Z"/><path class="cls-1" d="M106.38,7.29a.72.72,0,0,0-.07-.33.28.28,0,0,0-.28-.15,8,8,0,0,0-3.19.69A33.67,33.67,0,0,0,99.77,9c-1,.55-1.94,1.05-2.84,1.51a5.45,5.45,0,0,1-2.46.69,2.77,2.77,0,0,1-1.33-.34A4.08,4.08,0,0,1,92,10a4.58,4.58,0,0,1-.76-1.21A3.51,3.51,0,0,1,91,7.41c0-.22,0-.44,0-.66a1.62,1.62,0,0,1,.17-.66L91.26,6a2,2,0,0,1,.7.2c.21.11.42.23.62.36a6.34,6.34,0,0,0,.62.34,1.53,1.53,0,0,0,.67.15,19,19,0,0,0,4.58-.56c1.49-.38,3-.79,4.47-1.24s3-.86,4.47-1.23A18.46,18.46,0,0,1,112,3.42a9.81,9.81,0,0,1,1.26.09,5.59,5.59,0,0,1,1.31.33,2.77,2.77,0,0,1,1,.68A1.73,1.73,0,0,1,116,5.71a1.29,1.29,0,0,1-1.36,1.34h-2.14a10.88,10.88,0,0,0-2.12.21,9.67,9.67,0,0,0-3.12,1.12,7,7,0,0,0-2,1.9,7.54,7.54,0,0,0-1.12,2.6,14.5,14.5,0,0,0-.34,3.26,6.11,6.11,0,0,0,.71,3.21A4.65,4.65,0,0,0,106.25,21a7,7,0,0,0,2.31.75q1.25.21,2.31.42a5.87,5.87,0,0,1,1.79.68,1.65,1.65,0,0,1,.71,1.5,1.55,1.55,0,0,1-.22.86,2.06,2.06,0,0,1-.57.57,2.74,2.74,0,0,1-.78.33,4.27,4.27,0,0,1-.85.1,15.68,15.68,0,0,1-4-.48,9,9,0,0,1-3.24-1.52,7.26,7.26,0,0,1-2.2-2.68,8.91,8.91,0,0,1-.8-4,11.55,11.55,0,0,1,1.48-5.76,12.89,12.89,0,0,1,4-4.38Z"/><path class="cls-1" d="M133.45,25.71c0-.06.07-.12.17-.18.92-.54,1.79-1,2.6-1.44s1.54-.84,2.2-1.26a15,15,0,0,0,1.78-1.33,6.6,6.6,0,0,0,1.31-1.68,8.08,8.08,0,0,0,.82-2.3,17.19,17.19,0,0,0,.26-3.21,14.32,14.32,0,0,0-.23-2.52,11.13,11.13,0,0,0-.78-2.41,9,9,0,0,0-1.38-2.09,7,7,0,0,0-2-1.53,5.86,5.86,0,0,0-1.91-.63,15.47,15.47,0,0,0-2-.12H134l-.34,0a.79.79,0,0,0-.32.06.27.27,0,0,0-.17.18,1,1,0,0,0,.26.75l.7,1a14.05,14.05,0,0,1,.73,1.27,3.14,3.14,0,0,1,.32,1.42,13.49,13.49,0,0,1-.3,2.63,20.71,20.71,0,0,1-.88,3.06,25.14,25.14,0,0,1-1.41,3.1,15.78,15.78,0,0,1-1.84,2.72,9.82,9.82,0,0,1-2.25,1.92,5,5,0,0,1-2.58.73,3.12,3.12,0,0,1-2.17-.82,6.67,6.67,0,0,1-1.46-2,10.23,10.23,0,0,1-.84-2.52,11.35,11.35,0,0,1-.28-2.33,10.69,10.69,0,0,1,1.17-5,12.59,12.59,0,0,1,3.09-3.85,14.06,14.06,0,0,1,4.39-2.49,14.66,14.66,0,0,1,5-.89,12.81,12.81,0,0,1,4.57.83,11.84,11.84,0,0,1,3.81,2.3,11.39,11.39,0,0,1,2.61,3.55,10.44,10.44,0,0,1,1,4.54,9.14,9.14,0,0,1-1.09,4.5,10.63,10.63,0,0,1-2.87,3.34,12.32,12.32,0,0,1-4,2.07,15.24,15.24,0,0,1-4.57.71h-.42A.5.5,0,0,1,133.45,25.71ZM124,14.91a10,10,0,0,0,.11,1.28,7.44,7.44,0,0,0,.36,1.48,3.69,3.69,0,0,0,.7,1.23,1.46,1.46,0,0,0,1.15.51,2.62,2.62,0,0,0,1.64-.64,8.23,8.23,0,0,0,1.54-1.69,17.83,17.83,0,0,0,1.33-2.3,23.53,23.53,0,0,0,1.05-2.54,23.25,23.25,0,0,0,.69-2.37,8.49,8.49,0,0,0,.26-1.8c0-.18,0-.42,0-.72a4.53,4.53,0,0,0-.18-.89,2.52,2.52,0,0,0-.38-.75.71.71,0,0,0-.6-.31,4.73,4.73,0,0,0-2,.45,7.12,7.12,0,0,0-1.81,1.2,10.59,10.59,0,0,0-1.55,1.71,12.71,12.71,0,0,0-1.22,2,11.39,11.39,0,0,0-.77,2.13A7.63,7.63,0,0,0,124,14.91Z"/><path class="cls-1" d="M154.9,9a.37.37,0,0,1-.11,0l-.11.05c-.08,0-.14.24-.19.6s-.09.8-.12,1.31-.06,1.07-.08,1.67,0,1.2-.1,1.76a13,13,0,0,1-.21,1.49,2,2,0,0,1-.35.88,1.11,1.11,0,0,1-.49.28,2.9,2.9,0,0,1-.69.16,6.28,6.28,0,0,1-.75,0h-1.19c-.23,0-.35-.09-.35-.31a17.82,17.82,0,0,1,.16-2.43c.11-.8.22-1.61.35-2.43.09-.56.17-1.11.22-1.66s.11-1.11.19-1.67a2.51,2.51,0,0,1,0-.39,5,5,0,0,1,.07-.54,1.69,1.69,0,0,1,.14-.48q.07-.21.24-.21l.23.08c.14,0,.3.11.47.17l.48.21a1.7,1.7,0,0,0,.32.14c.45.16.91.31,1.36.45a4.65,4.65,0,0,0,1.4.21l.33,0c.13,0,.21-.08.21-.18V2.82a.27.27,0,0,0-.3-.3h-5.49c-.15,0-.21-.07-.21-.21s.06-.21.21-.21h5.28c.07,0,.19-.08.35-.24s.33-.33.5-.53.34-.37.53-.55a2.16,2.16,0,0,1,.44-.36,1.9,1.9,0,0,1,.62.33c.33.22.67.47,1,.75s.69.54,1,.79.44.41.44.47-.12.28-.35.36a1.58,1.58,0,0,0-.49.24.14.14,0,0,1,0,.06.14.14,0,0,0,0,.06V9.6c0,.14-.13.26-.41.36a6,6,0,0,1-1,.25,9.71,9.71,0,0,1-1,.16l-.68,0a.2.2,0,0,1-.21-.16,1.49,1.49,0,0,1-.09-.39c0-.15-.05-.31-.08-.45a.7.7,0,0,0-.2-.38,1.68,1.68,0,0,0-.64-.06Zm3.18,4h.29a1.54,1.54,0,0,1,.5.33,11.35,11.35,0,0,1,.84.77c.29.29.55.56.78.82s.34.42.34.48a.56.56,0,0,1-.08.3,2,2,0,0,1-.2.21l-.22.19a.52.52,0,0,0-.16.26,1.75,1.75,0,0,0-.07.51c0,.24,0,.49,0,.77s0,.53,0,.78,0,.44,0,.58c-.07.76-.14,1.55-.23,2.37a13.49,13.49,0,0,1-.48,2.39,8.62,8.62,0,0,1-1,2.16,5,5,0,0,1-1.72,1.63,5.13,5.13,0,0,1-1.15.47,5.31,5.31,0,0,1-1.22.16c-.11,0-.17,0-.2-.08a1.39,1.39,0,0,1-.11-.19c-.06-.22-.11-.43-.16-.64a2.9,2.9,0,0,0-.23-.62,1.77,1.77,0,0,0-.34-.5l-.45-.44a6.14,6.14,0,0,1-.42-.47,1.22,1.22,0,0,1-.25-.54c0-.1.17-.17.4-.19a5.78,5.78,0,0,1,.75-.05l.78,0h.56c.26,0,.49-.19.7-.57a7.06,7.06,0,0,0,.57-1.47,16.33,16.33,0,0,0,.42-2c.11-.72.2-1.41.28-2.07s.14-1.26.17-1.8,0-.92,0-1.14-.11-.31-.34-.33a6,6,0,0,0-.75,0c-.27,0-.52,0-.74,0s-.33-.08-.33-.24.07-.14.2-.18a2.55,2.55,0,0,1,.45-.09l.5-.05h.33a1.14,1.14,0,0,0,.49-.21A3.07,3.07,0,0,0,157,14c.15-.14.29-.29.43-.44l.4-.41Zm8.67,8.58s-.09.09-.26.14a1.53,1.53,0,0,1-.32.07h-5.39c-.17,0-.24-.06-.24-.19s.07-.2.24-.2h5.39a1.16,1.16,0,0,1,.32.06A.7.7,0,0,1,166.75,21.6Zm.54-12.87,0,0L167,8.61h-1.76a.27.27,0,0,0-.31.3V16.8c0,.1.07.16.21.2a3.52,3.52,0,0,0,.5.05,5.25,5.25,0,0,0,.56,0,.78.78,0,0,1,.38.11.25.25,0,0,1-.22.1,2.3,2.3,0,0,1-.39,0l-.43,0a.36.36,0,0,0-.3.13l-.54.72a2.46,2.46,0,0,1-1.19.87,4.86,4.86,0,0,1-1.46.21.27.27,0,0,1-.3-.3q0-3-.12-5.94t-.12-5.94a.47.47,0,0,1,0-.16c0-.07.07-.11.11-.11a2.12,2.12,0,0,1,.87.23l1,.48,1.07.48a2.3,2.3,0,0,0,.89.22H173a.83.83,0,0,0,.49-.28,6.57,6.57,0,0,0,.55-.62l.51-.61c.16-.19.28-.29.36-.29a1.76,1.76,0,0,1,.67.29q.47.29,1,.66a10.79,10.79,0,0,1,.85.75c.25.25.37.43.37.55s0,.11-.13.15l-.3.14a1.43,1.43,0,0,0-.3.16.25.25,0,0,0-.13.21v8.49c0,.06-.07.13-.19.21l-.4.26a4.92,4.92,0,0,1-.45.24l-.32.13-.05.15c0,.12.17.31.46.59s.6.54,1,.82.64.55.93.81.42.43.42.51-.08.15-.21.2a1.14,1.14,0,0,1-.3.07h-5.53a.76.76,0,0,1-.31-.07l-.28-.14a.1.1,0,0,1,.07-.07l.1-.05a9.8,9.8,0,0,1,1.13-.28,3.76,3.76,0,0,0,1-.33,1.89,1.89,0,0,0,.67-.65,2.4,2.4,0,0,0,.26-1.23,4,4,0,0,1-.33-.27,3.79,3.79,0,0,1-.42-.38,3.54,3.54,0,0,1-.39-.38,2.66,2.66,0,0,1-.24-.29.38.38,0,0,1-.09-.18.56.56,0,0,0-.1-.15,1.05,1.05,0,0,0-.39-.05l-.46,0a3.23,3.23,0,0,1-.44,0,.46.46,0,0,1-.32-.14A.31.31,0,0,1,172,17l.6.09a3,3,0,0,0,.55.06q.24,0,.24-.3V8.91a.26.26,0,0,0-.29-.3,4.37,4.37,0,0,1-.44,0H172a6.05,6.05,0,0,0-.63,0c-.19,0-.3.06-.31.12l-.07.21V20.13c0,.14,0,.41,0,.81s0,.87,0,1.41,0,1.11,0,1.69,0,1.14,0,1.64-.05.92-.07,1.26a4,4,0,0,1,0,.54,1,1,0,0,1-.45.3,7.29,7.29,0,0,1-.79.27,6.37,6.37,0,0,1-.82.18,4.59,4.59,0,0,1-.59.06.56.56,0,0,1-.54-.42,5,5,0,0,1-.12-.87c0-.4,0-.83,0-1.27V23.4c-.07-2.42-.08-4.83-.07-7.23s0-4.81,0-7.23Zm-4.36-3a16.76,16.76,0,0,0-.6-2.19q-.36-1-.66-2.16a.34.34,0,0,1,0-.26c0-.06.1-.1.23-.1a3.35,3.35,0,0,1,1.33.3,4.81,4.81,0,0,1,2.2,1.92,2.5,2.5,0,0,1,.38,1.29,1.72,1.72,0,0,1-.26,1,1.51,1.51,0,0,1-.66.57,1.86,1.86,0,0,1-.88.15,2.11,2.11,0,0,1-.94-.3Zm3,7.32a.5.5,0,0,1-.16,0,.07.07,0,0,1-.08-.07s0-.07.1-.09l.16,0h.49c.16,0,.25,0,.26.11s-.06.1-.23.1Zm3.14-7.2a6.3,6.3,0,0,1-.65,0,1,1,0,0,1-.57-.32,2.68,2.68,0,0,1-.32-.78c-.15-.46-.3-1-.45-1.51s-.28-1.07-.39-1.56a6.46,6.46,0,0,1-.17-.92.27.27,0,0,1,.3-.3,2.89,2.89,0,0,1,1.31.35,4.78,4.78,0,0,1,1.23.88,5,5,0,0,1,.91,1.2,2.59,2.59,0,0,1,.37,1.29,1.89,1.89,0,0,1-.4,1.23A1.41,1.41,0,0,1,169.05,5.82Zm2.28.93a4.88,4.88,0,0,1,.28-1.25c.18-.58.39-1.2.63-1.84s.47-1.25.72-1.84a9.57,9.57,0,0,1,.57-1.25.34.34,0,0,1,.35-.21,3.44,3.44,0,0,1,.79.19c.37.14.76.3,1.16.49s.76.38,1.09.57.48.34.48.46-.13.26-.38.54-.57.6-1,1-.82.76-1.29,1.16-.92.76-1.35,1.09-.81.61-1.14.83a1.72,1.72,0,0,1-.67.33C171.42,7,171.33,6.91,171.33,6.75Zm1.35,6.15s-.06.07-.18.09a2.22,2.22,0,0,1-.37,0,2,2,0,0,1-.36,0c-.11,0-.16-.05-.16-.09s0-.07.14-.09a1.69,1.69,0,0,1,.33,0,1.14,1.14,0,0,1,.37.05Z"/><path class="cls-1" d="M180.58,27.93l.09-.18A30.85,30.85,0,0,0,183,25.62a26,26,0,0,0,2.44-2.78,18.46,18.46,0,0,0,1.92-3.05,6.65,6.65,0,0,0,.79-3q0-.27-.63-.81a17.09,17.09,0,0,0-1.45-1.09c-.54-.37-1.06-.71-1.57-1s-.87-.52-1.06-.62l-.09-.18.12-.09a7,7,0,0,1,1.29.13l1.26.29,1.25.29a6.14,6.14,0,0,0,1.29.13.47.47,0,0,0,.39-.18c0-.62.1-1.23.15-1.83s.11-1.21.16-1.83c0-.22,0-.45.05-.67s0-.46,0-.68,0-.29,0-.4a.7.7,0,0,0-.17-.38.46.46,0,0,1,.1-.32.4.4,0,0,0,.09-.25V.69a.26.26,0,0,1,.3-.3,16.3,16.3,0,0,1,2.09.14,14.72,14.72,0,0,1,2,.4L194,1c.07,0,.12.08.12.14s-.09.22-.24.36a.85.85,0,0,0-.3.42s0,.13,0,.33,0,.42,0,.66l0,.71c0,.23,0,.37,0,.43,0,.82-.07,1.63-.09,2.41s-.08,1.59-.17,2.39c-.13,1-.26,2.08-.42,3.11a19,19,0,0,0-.25,3.1,1.32,1.32,0,0,0,.51.9L194.17,17a11.35,11.35,0,0,1,1.11,1.26,2.56,2.56,0,0,1,.51,1.56,2,2,0,0,1-.54,1.4,1.82,1.82,0,0,1-1.38.58,1.34,1.34,0,0,1-1-.37,3.79,3.79,0,0,1-.62-.85c-.18-.3-.37-.58-.56-.84a1,1,0,0,0-.82-.37l-.16.12a21.74,21.74,0,0,1-1.85,2.71,22.83,22.83,0,0,1-2.37,2.54,16.4,16.4,0,0,1-2.77,2A11,11,0,0,1,180.67,28Zm8.13-20.16a1.1,1.1,0,0,1-.56.12q-.47,0-1,0h-1.76l-1.7.06c-.57,0-1.13,0-1.71,0-.29,0-.41-.06-.37-.19a.28.28,0,0,1,.31-.2h6.53l.11,0,.11,0Zm9.26.36L197.86,8l-.21-.09-.77,0h-1.11q-.59,0-1.08,0a2,2,0,0,1-.61-.09.7.7,0,0,1,.42-.33c.75,0,1.35,0,1.79.06a2.8,2.8,0,0,0,1.12-.09,1.94,1.94,0,0,0,.85-.63,12.6,12.6,0,0,0,1-1.53l.18-.09a3.24,3.24,0,0,1,.62.42c.31.24.64.52,1,.82l1,.91a6.61,6.61,0,0,1,.57.58s0,0,0,0a.22.22,0,0,1-.11.17,1.36,1.36,0,0,1-.24.13,1.38,1.38,0,0,0-.24.14.21.21,0,0,0-.11.19V22.8a.59.59,0,0,0,.2.41.56.56,0,0,0,.41.19h2.18a1.06,1.06,0,0,0,.91-.54,5.13,5.13,0,0,0,.58-1.2c.15-.44.29-.84.41-1.21s.23-.57.35-.59a1.93,1.93,0,0,1,.05.48c0,.28,0,.58,0,.91V22.8a.69.69,0,0,0,.18.49c.12.16.24.3.37.46s.25.32.38.5a1.22,1.22,0,0,1,.17.65,1.84,1.84,0,0,1-.47,1.34,3,3,0,0,1-1.19.68,5.62,5.62,0,0,1-1.48.28c-.53,0-1,0-1.41,0l-1.41,0a11.36,11.36,0,0,1-1.85-.09,4.82,4.82,0,0,1-1.61-.47,1.12,1.12,0,0,1-.68-1.09V8.34Z"/></g></g></svg>