<svg xmlns="http://www.w3.org/2000/svg" viewBox="0 0 33.18 242.55"><defs><style>.cls-1{fill:#fff;}</style></defs><title>アセット 15</title><g id="レイヤー_2" data-name="レイヤー 2"><g id="レイヤー_7" data-name="レイヤー 7"><path class="cls-1" d="M3.85,14.38l-.18.08c-.13.13-.35.36-.64.68s-.61.64-.95,1a12.75,12.75,0,0,1-1,.89,1.38,1.38,0,0,1-.68.39c-.12,0-.16-.07-.14-.22a1,1,0,0,1,.07-.27,13.6,13.6,0,0,1,.84-2c.33-.63.63-1.28.91-1.93.58-1.35,1.14-2.71,1.66-4.08A42.59,42.59,0,0,0,5.14,4.76c.28-1,.53-2,.74-3,0-.25.1-.5.16-.73s.12-.47.19-.7a1.78,1.78,0,0,0,.1-.21S6.43,0,6.54,0L7,.12,7.79.4l.85.3.53.18a13.52,13.52,0,0,0,1.33.41l1.37.36.21.06a.19.19,0,0,1,.1.18A11,11,0,0,0,10.9,3.41c-.5.69-1,1.43-1.47,2.21A19,19,0,0,0,8.21,7.91,4.68,4.68,0,0,0,7.7,9.73a.4.4,0,0,0,.37.45,1.54,1.54,0,0,1,.61.25l.07.14a.51.51,0,0,1-.26.37.33.33,0,0,0-.2.33V31.4c0,.25-.17.46-.52.63a5.38,5.38,0,0,1-1.21.38c-.45.09-.9.16-1.33.21a8.76,8.76,0,0,1-.93.07A.31.31,0,0,1,4,32.34V14.49Zm19.7,3.71a6.59,6.59,0,0,1-.29,2c-.2.64-.42,1.28-.65,1.91s-.45,1.26-.65,1.89a6.3,6.3,0,0,0-.29,1.92.58.58,0,0,0,0,.3.74.74,0,0,0,.22.2,4.21,4.21,0,0,0,.9.28q.64.13,1.5.27c.57.1,1.19.19,1.84.27l1.87.22c.6.08,1.13.13,1.61.18s.85.07,1.1.07h.46l.7,0a3.86,3.86,0,0,1,.63.08c.19.05.28.11.28.18a.19.19,0,0,1-.07.14l-1.51,1.43a4.69,4.69,0,0,0-1.08,1.79,1.36,1.36,0,0,0-.11.37A2.42,2.42,0,0,1,30,32a2.4,2.4,0,0,1-.17.39.35.35,0,0,1-.29.15,6.31,6.31,0,0,1-1.83-.29,18,18,0,0,1-2-.74q-1-.43-2-1l-1.83-1c-.57-.29-1.09-.54-1.54-.74a2.92,2.92,0,0,0-1.07-.3,4,4,0,0,0-1.82.58c-.7.39-1.43.81-2.21,1.28s-1.54.89-2.32,1.28a5.09,5.09,0,0,1-2.23.57h-.22c-.11,0-.16-.07-.16-.16s.16-.38.49-.67.73-.58,1.21-.92,1-.7,1.57-1.07,1.1-.75,1.58-1.12a11.2,11.2,0,0,0,1.2-1.08,1.42,1.42,0,0,0,.49-.93,2.14,2.14,0,0,0-.31-1.1,9.7,9.7,0,0,0-.72-1,11.62,11.62,0,0,1-.72-1,1.72,1.72,0,0,1-.31-.93.15.15,0,0,1,.17-.17,1.65,1.65,0,0,1,.55.35c.29.23.6.5.93.79s.63.55.92.78a1.9,1.9,0,0,0,.51.36c.16,0,.32-.21.45-.62a7.74,7.74,0,0,0,.34-1.38c.08-.51.14-1,.19-1.48s.07-.8.07-1V.42a.27.27,0,0,1,.31-.31,15.65,15.65,0,0,1,2.37.17c.78.12,1.57.21,2.36.28.14.07.21.15.21.23a.44.44,0,0,1-.07.24.9.9,0,0,1-.21.23l-.21.17-.11.25ZM11,5.74a.31.31,0,0,1,.32-.24c.79,0,1.59,0,2.38.07s1.59.08,2.38.1c.35,0,.71,0,1.08,0a3.22,3.22,0,0,1,1.05.13L17.67,6H11.34l-.25-.11v0Zm.18,14.31V8.68a.75.75,0,0,1,.05-.26.23.23,0,0,1,.23-.13.52.52,0,0,1,.24.08c1.1.49,2.13.9,3.1,1.24a11,11,0,0,0,3.27.57l.11.11-.11.11H16a.57.57,0,0,0-.39.24.68.68,0,0,0-.21.39V17.4c0,.23.14.36.44.38a5.23,5.23,0,0,0,1,0c.35,0,.67-.05,1-.05s.44.09.44.28-.1.19-.3.23a4.43,4.43,0,0,1-.66.05l-.72,0h-.46a.31.31,0,0,0-.26.12l-.16.22A3.49,3.49,0,0,1,13.88,20a7.17,7.17,0,0,1-2.3.42l-.24-.11ZM32.76,5.63a.64.64,0,0,1-.63.36H24.81a.76.76,0,0,1-.56-.21A2.72,2.72,0,0,0,26,5.21,5.86,5.86,0,0,0,27.19,4,10.9,10.9,0,0,0,28,2.71c.21-.38.38-.58.52-.58a2.45,2.45,0,0,1,.79.48c.43.31.9.67,1.38,1.08s.94.81,1.35,1.19A6.33,6.33,0,0,1,32.76,5.63Zm-.32,5.22a.76.76,0,0,1-.24.23l-.35.24a2.81,2.81,0,0,0-.31.25c-.1.08-.15.15-.15.22v7c0,.19-.17.36-.52.5a9.4,9.4,0,0,1-1.19.36,12.56,12.56,0,0,1-1.31.25,7.91,7.91,0,0,1-.86.09.48.48,0,0,1-.42-.2,1.08,1.08,0,0,1-.19-.45,2.53,2.53,0,0,1-.06-.56V18.3a1.31,1.31,0,0,1,.11-.52,1.32,1.32,0,0,0,.1-.53V11a.68.68,0,0,0-.21-.39.53.53,0,0,0-.38-.24h-2a.16.16,0,0,1-.18-.18c0-.12.09-.18.27-.19a4.57,4.57,0,0,1,.63,0,6,6,0,0,0,.73,0,1.06,1.06,0,0,0,.58-.14,4.3,4.3,0,0,0,.46-.45l.62-.72a7.86,7.86,0,0,1,.62-.65c.2-.19.34-.28.43-.28a2.12,2.12,0,0,1,.67.4l1.22.89c.45.33.86.65,1.25.95l.75.59Zm-8.08,7h1.89l.1.11-.1.1H24.36l-.11-.1Z"/><path class="cls-1" d="M1.71,40.39a.56.56,0,0,1,.3-.16l.33,0a7.48,7.48,0,0,1,2.24.36,7.53,7.53,0,0,1,2.12,1,5.7,5.7,0,0,1,1.58,1.63,3.91,3.91,0,0,1,.61,2.15,6.88,6.88,0,0,1-.3,2c-.2.65-.41,1.3-.65,1.94s-.44,1.29-.64,2a6.86,6.86,0,0,0-.3,2,7.27,7.27,0,0,0,.16,1.44,6.29,6.29,0,0,0,.49,1.54,3.85,3.85,0,0,0,.87,1.24A1.89,1.89,0,0,0,9.87,58a2.08,2.08,0,0,0,1.3-.44,4.68,4.68,0,0,0,1-1.08,10,10,0,0,0,.79-1.4l.65-1.4a9.87,9.87,0,0,1,.56-1.09c.17-.29.36-.44.57-.44s.15.06.16.16,0,.18,0,.23a9.73,9.73,0,0,1-.14,1.61q-.13.81-.33,1.59c-.13.53-.24,1-.34,1.58A9.31,9.31,0,0,0,14,58.94a8.81,8.81,0,0,0,.18,1.66,6.65,6.65,0,0,1,.12,1.75,2.49,2.49,0,0,1-.49,1.4,1.92,1.92,0,0,1-1.63.58,5.17,5.17,0,0,1-1.59-.25,6.84,6.84,0,0,1-1.49-.66,9.71,9.71,0,0,1-1.94-1.54A11.28,11.28,0,0,1,5.5,59.8a11.47,11.47,0,0,1-1.12-2.38A7.31,7.31,0,0,1,4,55V44.94a3.56,3.56,0,0,0-.34-1.49,9,9,0,0,0-.75-1.33c-.28-.41-.54-.76-.77-1.07A2.06,2.06,0,0,1,1.71,40.39ZM29,57.79a2,2,0,0,1-1.86-.95,3.79,3.79,0,0,1-.62-1.61,18.83,18.83,0,0,1-.21-1.89c-.05-.65-.1-1.3-.16-1.94a5.82,5.82,0,0,0-.47-1.81,5.5,5.5,0,0,0-.48-.75c-.24-.34-.53-.72-.85-1.15s-.68-.87-1-1.31l-1-1.25-.75-1a2.44,2.44,0,0,1-.29-.42c0-.12.05-.18.15-.19l.27,0a6.48,6.48,0,0,1,1.31.14,9.84,9.84,0,0,1,1.24.35,11.67,11.67,0,0,1,3,1.52,10.33,10.33,0,0,1,2.31,2.26A10.49,10.49,0,0,1,31,50.66a9.93,9.93,0,0,1,.55,3.27,12.24,12.24,0,0,1-.09,1.35,3.87,3.87,0,0,1-.37,1.25,2.41,2.41,0,0,1-.77.9A2.21,2.21,0,0,1,29,57.79Z"/><path class="cls-1" d="M4.2,90.47a.71.71,0,0,0-.11-.31Q4,89.95,3.85,90a.87.87,0,0,0-.54.19,6.85,6.85,0,0,0-.53.44l-.52.49a1.29,1.29,0,0,1-.51.31l-.07,0-.07,0a3.75,3.75,0,0,1-.33-.75c-.18-.46-.36-1-.55-1.51S.38,88,.23,87.48A4.61,4.61,0,0,1,0,86.59l.07-.14L1,86.29c.46-.08.92-.17,1.4-.28a10.11,10.11,0,0,0,1.28-.35c.37-.13.56-.25.56-.37v-15a.31.31,0,0,1,.35-.35l1,0c.5,0,1,.07,1.54.14a13.6,13.6,0,0,1,1.4.26c.41.11.61.23.61.37s-.12.31-.35.52a.86.86,0,0,0-.35.57l.24,5.95.11.1.17,0a3.07,3.07,0,0,0,.72-1.22,2.89,2.89,0,0,1,.72-1.19l.05,0h.05s.21.12.48.38.55.55.85.89l.88,1c.28.31.47.51.56.6a.79.79,0,0,1,.07.37c0,.15-.08.23-.25.23H9l-.25.1-.25.24-.1.25V84q0,.39.42.36a6.29,6.29,0,0,0,.93-.18c.33-.09.64-.17.92-.23s.42,0,.42.23-.13.3-.4.54-.56.5-.89.75-.63.51-.89.74-.41.4-.41.49V98.84a2.8,2.8,0,0,1-.45,1.59,4.41,4.41,0,0,1-1.14,1.18,5.87,5.87,0,0,1-1.52.77,7.14,7.14,0,0,1-1.61.34H3.67c-.11,0-.23-.16-.34-.5s-.24-.72-.36-1.14-.22-.83-.33-1.22a2.21,2.21,0,0,0-.3-.78c-.07-.09-.19-.23-.36-.41a.78.78,0,0,1-.27-.46c0-.07.06-.12.16-.14l.23,0a4,4,0,0,1,.75,0,2,2,0,0,0,.53,0,.8.8,0,0,0,.42-.23,2.57,2.57,0,0,0,.4-.68ZM.59,78.68l-.07-.1a1.28,1.28,0,0,1,.48,0H2.94a1.27,1.27,0,0,1,.49,0l-.07.1-.24.11H.84Zm11.7,9.41H19c.24,0,.35-.11.35-.34V78.54a.64.64,0,0,0-.21-.42.56.56,0,0,0-.42-.24,2.69,2.69,0,0,0-1.64.68c-.58.45-1.17,1-1.75,1.5s-1.16,1-1.71,1.51a2.63,2.63,0,0,1-1.58.68c-.19,0-.28-.07-.28-.21a.41.41,0,0,1,.05-.19l.12-.16,2.21-2.83a31.82,31.82,0,0,0,2-3,27,27,0,0,0,1.43-2.7c.42-.9.83-1.84,1.23-2.8l.1-.19a.32.32,0,0,1,.21,0c.19,0,.57,0,1.14.07s1.16.12,1.75.23a9.69,9.69,0,0,1,1.59.4c.47.16.71.35.71.56a.4.4,0,0,1-.21.31,12.46,12.46,0,0,0-1.21,1.09c-.53.51-1.05,1.06-1.58,1.65A19.91,19.91,0,0,0,20,76.16a2.59,2.59,0,0,0-.6,1.33q0,.35.63.51a12.32,12.32,0,0,0,1.44.24c.54.06,1.06.1,1.56.11a3.6,3.6,0,0,1,1,.12c.12.07.17.13.17.18a.45.45,0,0,1-.06.21.34.34,0,0,0-.08.21v2.55a.45.45,0,0,0,.06.19q0,.12.12.12a.77.77,0,0,0,.53-.29c.18-.2.36-.42.54-.65s.33-.45.49-.65.27-.3.36-.3a2.13,2.13,0,0,1,.6.37c.33.25.67.53,1,.84s.69.62,1,.9.43.45.43.52-.08.19-.22.21l-.31,0-.59,0-1-.07-1.12,0q-.57,0-1.05,0a2.78,2.78,0,0,0-.78.12c-.21.07-.32.17-.32.32v4.37a.72.72,0,0,0,.53.52l.48,0,.74-.07c.26,0,.49,0,.72-.09a4.15,4.15,0,0,0,.44-.08,2.12,2.12,0,0,0,.54-.53c.22-.28.45-.59.68-.93s.45-.67.65-1,.34-.58.43-.74a2.23,2.23,0,0,1,.9.44,14.83,14.83,0,0,1,1.17.93,13.31,13.31,0,0,1,1.07,1,6.66,6.66,0,0,1,.64.81,1.17,1.17,0,0,1,.09.33c0,.11-.07.16-.26.16H12.29l-.15-.14Zm1.6,2.32a3.68,3.68,0,0,1,1,.33c.4.17.81.36,1.23.56l1.19.54a2.49,2.49,0,0,0,.94.24h7l.25-.1c.3-.3.59-.62.86-.94s.54-.66.82-1l.1,0,.11,0c.07,0,.3.1.68.38s.8.59,1.25.95.84.69,1.2,1,.55.55.55.65a.41.41,0,0,1-.15.28,2,2,0,0,1-.31.26,2.78,2.78,0,0,0-.32.26.4.4,0,0,0-.13.28v7.32c0,.14-.18.26-.53.38a7.92,7.92,0,0,1-1.21.3c-.45.08-.89.14-1.31.19a8.35,8.35,0,0,1-.84.07c-.26,0-.39-.12-.39-.35s0-.46,0-.68a1.85,1.85,0,0,0-.07-.69.85.85,0,0,0-.11-.26,1.17,1.17,0,0,1-.1-.26.38.38,0,0,1,.07-.39.43.43,0,0,0,.14-.31V93.13a.31.31,0,0,0-.35-.34h-7a.31.31,0,0,0-.35.34v6.41a.31.31,0,0,0,.35.35l1.33,0H22c.75,0,1.43,0,2,0a3.41,3.41,0,0,1,1,.11,1.37,1.37,0,0,1-.21.24l-.25.1H18.44c-.06,0-.13.06-.19.16a2.57,2.57,0,0,0-.16.37c0,.14-.09.29-.13.44a.67.67,0,0,1-.21.33,2.41,2.41,0,0,1-.74.45,6.18,6.18,0,0,1-.89.29,8.15,8.15,0,0,1-.93.15,6.28,6.28,0,0,1-.84,0,.31.31,0,0,1-.35-.34q0-2.94-.12-5.85c-.09-1.94-.13-3.89-.13-5.85Zm1.19-7.91h3.26a.67.67,0,0,1,.23,0,.24.24,0,0,1,.19.16,2.78,2.78,0,0,1-.58,0h-3.1l-.14-.14Zm9-9.32a4.71,4.71,0,0,1,.61.32c.27.16.55.35.85.56l.9.61c.29.2.52.35.68.44a18.82,18.82,0,0,0,2.75,1.24c.94.34,1.89.7,2.85,1.07a1,1,0,0,1,.21.09.19.19,0,0,1,.11.19.28.28,0,0,1-.06.18.71.71,0,0,1-.12.13c-.33.36-.62.68-.88,1s-.48.61-.69.92a6.25,6.25,0,0,0-.55,1,9.06,9.06,0,0,0-.4,1.24l-.14.11L30,82.18c-.54-.58-1.14-1.21-1.82-1.89a24.54,24.54,0,0,1-1.92-2.15,15,15,0,0,1-1.56-2.35A6.11,6.11,0,0,1,24,73.33Z"/><path class="cls-1" d="M19.39,113.4a.86.86,0,0,0-.09-.39.35.35,0,0,0-.33-.17,9.21,9.21,0,0,0-3.71.81,39.79,39.79,0,0,0-3.59,1.76q-1.72,1-3.3,1.77A6.41,6.41,0,0,1,5.5,118a3.25,3.25,0,0,1-1.56-.41,4.9,4.9,0,0,1-1.32-1,5.08,5.08,0,0,1-.89-1.42,4,4,0,0,1-.33-1.59c0-.26,0-.51,0-.77a2,2,0,0,1,.19-.77l.14-.14a2,2,0,0,1,.8.23,7.5,7.5,0,0,1,.74.42,6.3,6.3,0,0,0,.72.4,1.71,1.71,0,0,0,.78.17,21.63,21.63,0,0,0,5.34-.65q2.61-.66,5.22-1.44t5.21-1.45a21.7,21.7,0,0,1,5.34-.66,11.6,11.6,0,0,1,1.47.11,6.77,6.77,0,0,1,1.52.38,3.28,3.28,0,0,1,1.21.8,1.94,1.94,0,0,1,.49,1.39A1.49,1.49,0,0,1,29,113.12h-2.5a12.11,12.11,0,0,0-2.47.25,10.82,10.82,0,0,0-3.63,1.31,7.67,7.67,0,0,0-2.39,2.2,9,9,0,0,0-1.31,3.05,16.63,16.63,0,0,0-.4,3.79,7,7,0,0,0,.84,3.75,5.39,5.39,0,0,0,2.08,2,8.72,8.72,0,0,0,2.7.87c1,.15,1.86.32,2.69.49a6.65,6.65,0,0,1,2.09.79,1.91,1.91,0,0,1,.83,1.75,1.75,1.75,0,0,1-.26,1,2.08,2.08,0,0,1-.66.66,2.85,2.85,0,0,1-.91.39,4.34,4.34,0,0,1-1,.12,18.62,18.62,0,0,1-4.62-.56,10.47,10.47,0,0,1-3.78-1.77,8.58,8.58,0,0,1-2.56-3.13,10.37,10.37,0,0,1-.94-4.62,13.51,13.51,0,0,1,1.73-6.72,15.14,15.14,0,0,1,4.71-5.11Z"/><path class="cls-1" d="M16,169.89a.42.42,0,0,1,.21-.21q1.6-.94,3-1.68c.94-.49,1.8-1,2.57-1.47A14.81,14.81,0,0,0,23.83,165a7.5,7.5,0,0,0,1.55-2,9.7,9.7,0,0,0,.94-2.68,19,19,0,0,0,.31-3.74,15.41,15.41,0,0,0-.28-2.94,11.2,11.2,0,0,0-.91-2.82,9.51,9.51,0,0,0-1.61-2.43,7.86,7.86,0,0,0-2.37-1.78,6.79,6.79,0,0,0-2.23-.74,18.43,18.43,0,0,0-2.32-.14l-.3,0h-.4a.82.82,0,0,0-.37.07.3.3,0,0,0-.2.21,1.26,1.26,0,0,0,.3.87c.25.35.52.75.82,1.21a10.42,10.42,0,0,1,.84,1.47A3.68,3.68,0,0,1,18,151.2a15.85,15.85,0,0,1-.35,3.06,23.65,23.65,0,0,1-1,3.57A30.1,30.1,0,0,1,15,161.46a17.69,17.69,0,0,1-2.15,3.16,10.63,10.63,0,0,1-2.63,2.24,5.78,5.78,0,0,1-3,.86,3.56,3.56,0,0,1-2.51-1,7.6,7.6,0,0,1-1.72-2.35,12.54,12.54,0,0,1-1-2.94,14,14,0,0,1-.32-2.71A12.31,12.31,0,0,1,3,153a14.5,14.5,0,0,1,3.61-4.5,16.68,16.68,0,0,1,5.1-2.91,17.17,17.17,0,0,1,5.85-1,15,15,0,0,1,5.34,1,13.71,13.71,0,0,1,4.44,2.7,13.09,13.09,0,0,1,3,4.13,12.17,12.17,0,0,1,1.14,5.3,10.68,10.68,0,0,1-1.28,5.25,12.56,12.56,0,0,1-3.34,3.9,15.07,15.07,0,0,1-4.7,2.42,17.61,17.61,0,0,1-5.31.82l-.49,0A.68.68,0,0,1,16,169.89ZM4.9,157.29A11.58,11.58,0,0,0,5,158.78a8.56,8.56,0,0,0,.42,1.73A4.59,4.59,0,0,0,6.26,162a1.74,1.74,0,0,0,1.33.59,3.08,3.08,0,0,0,1.93-.75,9,9,0,0,0,1.78-2,19.31,19.31,0,0,0,1.56-2.7,26.51,26.51,0,0,0,1.23-3c.33-1,.6-1.9.8-2.76a9.7,9.7,0,0,0,.3-2.1c0-.21,0-.49,0-.84a6.07,6.07,0,0,0-.21-1,2.9,2.9,0,0,0-.44-.88.86.86,0,0,0-.7-.36,5.52,5.52,0,0,0-2.33.52,8.75,8.75,0,0,0-2.12,1.4,12.86,12.86,0,0,0-1.8,2,14.49,14.49,0,0,0-1.42,2.36A13.79,13.79,0,0,0,5.21,155,9.53,9.53,0,0,0,4.9,157.29Z"/><path class="cls-1" d="M6,185.4l-.12,0-.12.05c-.09.05-.17.28-.23.7s-.1.93-.14,1.52-.06,1.25-.08,2-.07,1.4-.13,2a16.83,16.83,0,0,1-.24,1.73,2.41,2.41,0,0,1-.41,1,1.48,1.48,0,0,1-.57.33,4,4,0,0,1-.81.17,6.35,6.35,0,0,1-.87.05H1.54l-.66,0c-.29,0-.42-.11-.42-.36a20.53,20.53,0,0,1,.19-2.84c.13-.93.26-1.88.4-2.83.12-.66.2-1.31.26-1.95s.14-1.29.23-1.94a3.39,3.39,0,0,1,0-.45c0-.21,0-.42.08-.63a3,3,0,0,1,.16-.57c.07-.16.16-.24.28-.24l.28.09.54.21.56.24c.18.08.3.14.37.16l1.59.53a5.59,5.59,0,0,0,1.63.24l.39,0q.24,0,.24-.21v-6.31a.31.31,0,0,0-.35-.35H.94a.21.21,0,0,1-.24-.24.22.22,0,0,1,.24-.25H7.1q.15,0,.42-.27c.19-.19.38-.4.58-.62s.4-.44.61-.65a2.56,2.56,0,0,1,.53-.42,2.3,2.3,0,0,1,.72.39c.38.26.79.55,1.21.88s.79.63,1.13.92.51.47.51.55-.14.32-.4.42a1.83,1.83,0,0,0-.58.28.14.14,0,0,1,0,.06.24.24,0,0,0,0,.08v7.13c0,.17-.16.31-.49.42a7,7,0,0,1-1.1.3q-.62.12-1.2.18l-.81,0a.25.25,0,0,1-.25-.19,2.44,2.44,0,0,1-.1-.46,4.71,4.71,0,0,0-.09-.52.78.78,0,0,0-.23-.44,2,2,0,0,0-.75-.07C6.5,185.38,6.24,185.4,6,185.4Zm3.71,4.68H10c.08,0,.27.13.58.39a12.75,12.75,0,0,1,1,.89c.34.34.64.66.91,1a1.85,1.85,0,0,1,.41.55.59.59,0,0,1-.11.36,1.75,1.75,0,0,1-.23.24l-.26.23a.59.59,0,0,0-.18.29,2.32,2.32,0,0,0-.08.6c0,.28,0,.58,0,.89s0,.62,0,.91,0,.52,0,.68c-.07.89-.16,1.81-.26,2.77a15.92,15.92,0,0,1-.56,2.78A10,10,0,0,1,10,205.15a5.85,5.85,0,0,1-2,1.91,5.45,5.45,0,0,1-1.33.54,5.59,5.59,0,0,1-1.44.19c-.11,0-.19,0-.22-.08a1.61,1.61,0,0,1-.12-.23c-.08-.26-.14-.51-.2-.75a3.1,3.1,0,0,0-.26-.72,2,2,0,0,0-.4-.58l-.53-.52c-.17-.18-.34-.36-.49-.54a1.53,1.53,0,0,1-.3-.63c.05-.12.21-.2.48-.23a6,6,0,0,1,.87,0H5l.65,0c.3,0,.58-.22.82-.66a8.23,8.23,0,0,0,.67-1.72,19,19,0,0,0,.49-2.31c.13-.84.24-1.64.33-2.42s.16-1.46.19-2.09.06-1.08.06-1.33-.14-.37-.41-.39a8.16,8.16,0,0,0-.87,0l-.86,0c-.26,0-.39-.09-.39-.28s.08-.16.23-.21a3.28,3.28,0,0,1,.53-.11l.57-.05h.39a1.38,1.38,0,0,0,.58-.25,6.06,6.06,0,0,0,.56-.47l.51-.53.45-.47Zm10.12,10s-.1.1-.3.16a1.91,1.91,0,0,1-.37.09h-6.3c-.18,0-.28-.08-.28-.23s.1-.23.28-.23h6.3a1.24,1.24,0,0,1,.37.08A.86.86,0,0,1,19.81,200.09Zm.63-15,0,0-.25-.1H18.09a.31.31,0,0,0-.34.35v9.21c0,.11.08.19.24.22a3.07,3.07,0,0,0,.58.07l.64,0a.85.85,0,0,1,.46.12.32.32,0,0,1-.26.12l-.46,0-.51,0a.48.48,0,0,0-.35.15l-.63.85a2.73,2.73,0,0,1-1.38,1,5.77,5.77,0,0,1-1.7.25c-.23,0-.34-.12-.34-.36q0-3.49-.15-6.93t-.14-6.92a.49.49,0,0,1,.06-.2q0-.12.12-.12a2.64,2.64,0,0,1,1,.26l1.23.56c.42.2.83.39,1.24.56a2.71,2.71,0,0,0,1,.27h8.61a.88.88,0,0,0,.58-.34,9.17,9.17,0,0,0,.65-.72l.6-.71c.18-.22.32-.34.41-.34a2,2,0,0,1,.77.34,9.73,9.73,0,0,1,1.12.77,9.91,9.91,0,0,1,1,.87c.29.29.44.51.44.65s0,.13-.16.17l-.35.16a2,2,0,0,0-.35.2.31.31,0,0,0-.16.24v9.9c0,.07-.06.16-.21.25l-.47.3c-.17.1-.35.2-.52.28l-.37.16-.07.17c0,.14.2.37.54.68s.71.64,1.1,1,.76.64,1.09.94.49.5.49.6-.08.16-.25.22a1.11,1.11,0,0,1-.35.09H26.14a.87.87,0,0,1-.36-.09l-.34-.16a.22.22,0,0,1,.09-.08l.13,0a11,11,0,0,1,1.31-.34,4,4,0,0,0,1.13-.38,2.11,2.11,0,0,0,.79-.75,2.81,2.81,0,0,0,.3-1.44l-.39-.31-.49-.44c-.16-.15-.31-.31-.45-.46a3.55,3.55,0,0,1-.28-.33,1.06,1.06,0,0,1-.11-.21.4.4,0,0,0-.1-.18,1.21,1.21,0,0,0-.45-.05l-.55,0h-.5a.58.58,0,0,1-.39-.16.37.37,0,0,1,.44-.24,6.54,6.54,0,0,1,.7.1,3.19,3.19,0,0,0,.64.07c.19,0,.28-.12.28-.35v-9.24a.31.31,0,0,0-.35-.35l-.5,0h-.77c-.27,0-.52,0-.74,0s-.34.07-.37.14l-.06.25v13c0,.16,0,.48,0,1s0,1,0,1.64,0,1.29,0,2,0,1.32-.06,1.91,0,1.07-.06,1.47a2.45,2.45,0,0,1-.08.63,1.09,1.09,0,0,1-.52.34,6.91,6.91,0,0,1-.91.32,9.25,9.25,0,0,1-1,.21,4.88,4.88,0,0,1-.69.07.64.64,0,0,1-.63-.49,4.12,4.12,0,0,1-.13-1c0-.47,0-1,0-1.49V202.2q-.1-4.24-.07-8.44t0-8.43Zm-5.07-3.54a25.07,25.07,0,0,0-.7-2.55c-.29-.82-.54-1.66-.78-2.52a.55.55,0,0,1,0-.3c0-.08.12-.12.28-.12a3.93,3.93,0,0,1,1.54.35,5.38,5.38,0,0,1,1.47.93,5.29,5.29,0,0,1,1.1,1.31,2.93,2.93,0,0,1,.44,1.51,2,2,0,0,1-.3,1.11,1.72,1.72,0,0,1-.77.67,2.2,2.2,0,0,1-1,.18,2.51,2.51,0,0,1-1.09-.36Zm3.46,8.54h-.17c-.08,0-.11,0-.11-.09s0-.08.12-.1a.58.58,0,0,1,.2,0h.55c.19,0,.3,0,.32.12s-.07.12-.28.12Zm3.67-8.4a4.67,4.67,0,0,1-.77-.05,1.17,1.17,0,0,1-.66-.37,3.57,3.57,0,0,1-.37-.9c-.17-.54-.35-1.13-.52-1.77s-.33-1.25-.46-1.82a6.76,6.76,0,0,1-.19-1.07.31.31,0,0,1,.35-.35,3.29,3.29,0,0,1,1.52.4,5.87,5.87,0,0,1,1.44,1,6.22,6.22,0,0,1,1.07,1.39,3.29,3.29,0,0,1,.42,1.51,2.21,2.21,0,0,1-.46,1.43A1.64,1.64,0,0,1,22.5,181.68Zm2.67,1.09a5.84,5.84,0,0,1,.31-1.45c.21-.69.45-1.41.73-2.15s.56-1.47.84-2.16a13,13,0,0,1,.67-1.45.41.41,0,0,1,.42-.24,3.45,3.45,0,0,1,.91.22,13.66,13.66,0,0,1,1.37.56c.46.22.88.45,1.25.67s.56.4.56.54-.14.3-.43.63-.67.71-1.12,1.14-1,.88-1.51,1.34-1.07.9-1.57,1.28-1,.71-1.33,1a2,2,0,0,1-.79.38C25.27,183.05,25.17,183,25.17,182.77ZM26.74,190s-.07.08-.21.1a3.15,3.15,0,0,1-.44,0,2.77,2.77,0,0,1-.42,0c-.13,0-.19-.06-.19-.1s.06-.09.18-.11a2.11,2.11,0,0,1,.38,0,1.52,1.52,0,0,1,.42.06A1,1,0,0,1,26.74,190Z"/><path class="cls-1" d="M.94,242.48l.11-.21a36.09,36.09,0,0,0,2.75-2.48,34,34,0,0,0,2.85-3.24A22,22,0,0,0,8.89,233a7.85,7.85,0,0,0,.91-3.48c0-.21-.25-.53-.74-.95a17.91,17.91,0,0,0-1.68-1.28c-.63-.43-1.24-.83-1.83-1.19s-1-.6-1.25-.71l-.1-.21.14-.11a6.82,6.82,0,0,1,1.5.16c.49.1,1,.21,1.47.33s1,.23,1.48.33a6.76,6.76,0,0,0,1.5.16.57.57,0,0,0,.46-.21c0-.72.1-1.44.17-2.14s.13-1.41.17-2.13c0-.26.05-.52.08-.79s0-.53,0-.79,0-.34,0-.47a.87.87,0,0,0-.19-.43.55.55,0,0,1,.1-.37.4.4,0,0,0,.11-.3v-7.7a.31.31,0,0,1,.35-.35,18.33,18.33,0,0,1,2.45.16,16.7,16.7,0,0,1,2.38.47l.21.09c.09,0,.14.09.14.15s-.09.26-.28.43a1.05,1.05,0,0,0-.35.48s0,.16,0,.39,0,.49,0,.77,0,.55,0,.82,0,.44,0,.51c-.05,1-.09,1.9-.11,2.82a26.2,26.2,0,0,1-.21,2.78c-.14,1.21-.3,2.42-.49,3.62a23.14,23.14,0,0,0-.28,3.62,1.54,1.54,0,0,0,.59,1l1.3,1.23a10.13,10.13,0,0,1,1.29,1.47,3,3,0,0,1,.6,1.82,2.33,2.33,0,0,1-.63,1.63,2.11,2.11,0,0,1-1.61.68,1.56,1.56,0,0,1-1.16-.44,5.1,5.1,0,0,1-.73-1,9.8,9.8,0,0,0-.65-1,1.13,1.13,0,0,0-1-.44l-.18.15a25.5,25.5,0,0,1-2.17,3.16,24.19,24.19,0,0,1-2.76,3,18.73,18.73,0,0,1-3.22,2.36,12.39,12.39,0,0,1-3.57,1.42ZM10.43,219a1.24,1.24,0,0,1-.65.14c-.36,0-.76,0-1.19,0h-2l-2,.08c-.65,0-1.32,0-2,0-.32,0-.46-.07-.42-.23a.33.33,0,0,1,.35-.22h7.64l.12,0,.12,0Zm10.82.42-.15-.14-.24-.11-.89,0c-.41,0-.84,0-1.3,0s-.87,0-1.26,0a2.39,2.39,0,0,1-.72-.1.83.83,0,0,1,.49-.38c.89,0,1.59,0,2.11.06a3.08,3.08,0,0,0,1.29-.1,2.36,2.36,0,0,0,1-.73,17,17,0,0,0,1.21-1.79L23,216a4.44,4.44,0,0,1,.71.48c.36.28.75.61,1.16,1s.79.71,1.13,1.05a9.17,9.17,0,0,1,.67.68,0,0,0,0,1,0,0c0,.07-.05.13-.13.19a1.06,1.06,0,0,1-.28.15,1.87,1.87,0,0,0-.28.16.28.28,0,0,0-.12.23V236.5a.81.81,0,0,0,.7.7h2.56a1.25,1.25,0,0,0,1.05-.63,6.73,6.73,0,0,0,.68-1.4l.47-1.42c.14-.43.28-.66.42-.68a2.48,2.48,0,0,1,0,.55c0,.33,0,.69,0,1.07v1.81a.87.87,0,0,0,.21.57c.14.18.29.35.44.53a4.74,4.74,0,0,1,.43.59,1.34,1.34,0,0,1,.21.76,2,2,0,0,1-.56,1.55,3.51,3.51,0,0,1-1.38.81,7,7,0,0,1-1.73.31c-.61,0-1.16,0-1.64,0l-1.65,0a14,14,0,0,1-2.15-.1,6,6,0,0,1-1.87-.55,1.33,1.33,0,0,1-.81-1.27V219.62Z"/></g></g></svg>