<svg xmlns="http://www.w3.org/2000/svg" viewBox="0 0 194.4 17.1"><title>アセット 12</title><g id="レイヤー_2" data-name="レイヤー 2"><g id="レイヤー_6" data-name="レイヤー 6"><path d="M7.94,7.78A1.31,1.31,0,0,0,7.57,8l-.44.3-.44.33-.35.26L5,9.75c-.53.35-1.09.69-1.68,1a16.8,16.8,0,0,1-1.73.82,4.37,4.37,0,0,1-1.51.36L0,11.86l.06-.12c.39-.25.9-.62,1.54-1.09S2.93,9.63,3.66,9,5.14,7.76,5.89,7.07,7.32,5.7,7.93,5A15.1,15.1,0,0,0,9.42,3.08,3.11,3.11,0,0,0,10,1.48a1.07,1.07,0,0,0-.15-.6A1.64,1.64,0,0,0,9.53.52,2.79,2.79,0,0,0,9.21.29.25.25,0,0,1,9.06.08s0-.08.1-.08a8.8,8.8,0,0,1,1.26.1,6.13,6.13,0,0,1,1.37.36,3.21,3.21,0,0,1,1.1.71,1.55,1.55,0,0,1,.45,1.15,1.27,1.27,0,0,1-.29.8,3.59,3.59,0,0,1-.72.67,10.61,10.61,0,0,1-.93.6c-.33.19-.64.39-.93.59a3.49,3.49,0,0,0-.72.64,1.17,1.17,0,0,0-.29.76.4.4,0,0,0,.19.34l.41.29a2.64,2.64,0,0,1,.41.34.66.66,0,0,1,.19.49c0,1,0,2,0,3s0,2,0,3c0,.36,0,.74,0,1.15a3.46,3.46,0,0,1-.1,1.13,1,1,0,0,1-.37.64,1.34,1.34,0,0,1-.73.16,1.53,1.53,0,0,1-.74-.17,1.41,1.41,0,0,1-.49-.45,1.74,1.74,0,0,1-.27-.64,3.65,3.65,0,0,1-.08-.74A25.52,25.52,0,0,1,8,12.1a25.52,25.52,0,0,0,.15-2.76c0-.11,0-.23,0-.36s0-.27,0-.41a2.73,2.73,0,0,0,0-.41A1.39,1.39,0,0,0,8,7.82Z"/><path d="M37.14,4.06l.08.08a3.37,3.37,0,0,1-.52,1.19A16.85,16.85,0,0,1,35.51,7c-.49.61-1,1.25-1.66,1.93s-1.27,1.35-1.94,2-1.35,1.29-2,1.9-1.33,1.14-1.94,1.6a14.25,14.25,0,0,1-1.65,1.1,2.71,2.71,0,0,1-1.18.41,2.59,2.59,0,0,1-1.29-.34,4,4,0,0,1-1.08-.88,4.66,4.66,0,0,1-.75-1.2,3.24,3.24,0,0,1-.28-1.3c0-.12.07-.18.2-.18a.61.61,0,0,1,.36.15l.43.33a4.2,4.2,0,0,0,.49.33,1,1,0,0,0,.52.15,5.73,5.73,0,0,0,2.07-.47,17,17,0,0,0,2.44-1.24,30.67,30.67,0,0,0,2.57-1.74c.87-.65,1.69-1.3,2.48-2s1.5-1.29,2.15-1.9S36.59,4.56,37,4.12ZM26.52,6.72a1.7,1.7,0,0,1-1-.44,9.61,9.61,0,0,1-1.11-1c-.37-.4-.71-.8-1-1.2l-.75-.92c-.15-.17-.29-.34-.44-.5s-.29-.33-.42-.5A.3.3,0,0,1,21.71,2c0-.07,0-.1.09-.1A10.06,10.06,0,0,1,23,2a13,13,0,0,1,1.32.22,9.26,9.26,0,0,1,1.33.41,5,5,0,0,1,1.17.63,3.21,3.21,0,0,1,.82.87,2.12,2.12,0,0,1,.31,1.16,1.61,1.61,0,0,1-.35,1.06A1.26,1.26,0,0,1,26.52,6.72Z"/><path d="M42.46,2.4a.74.74,0,0,1,.13.08l.11.08a4.3,4.3,0,0,0,.85.5,2.4,2.4,0,0,0,1,.2l1.32,0q.72,0,1.47-.12a13.28,13.28,0,0,0,1.45-.25A7,7,0,0,0,50,2.46,5.11,5.11,0,0,0,50.74,2a1.41,1.41,0,0,1,.8-.26,2,2,0,0,1,.81.21,4.32,4.32,0,0,1,.89.54,3.5,3.5,0,0,1,.71.73,1.34,1.34,0,0,1,.29.76.76.76,0,0,1-.15.48,2.38,2.38,0,0,1-.35.36l-.43.3a1.64,1.64,0,0,0-.39.36,5.74,5.74,0,0,0-.7.94c-.2.33-.41.66-.62,1a6.87,6.87,0,0,1-.7.89,10.4,10.4,0,0,0-.72.87.2.2,0,0,0-.06.14.18.18,0,0,0,.12.2,3.41,3.41,0,0,0,.73.2,4.56,4.56,0,0,1,.75.18,13.81,13.81,0,0,1,1.51.62,6.28,6.28,0,0,1,1.43.93,5.08,5.08,0,0,1,1.06,1.26,3,3,0,0,1,.42,1.57,1.55,1.55,0,0,1-.37,1.09,1.38,1.38,0,0,1-1.07.41,1.42,1.42,0,0,1-1-.43,5.72,5.72,0,0,1-.85-1.08c-.27-.43-.52-.9-.77-1.4s-.49-1-.74-1.41a5.87,5.87,0,0,0-.77-1.1,1.26,1.26,0,0,0-.88-.46,1.59,1.59,0,0,0-.36.26l-.57.49-.59.52-.4.35c-.45.39-1,.84-1.69,1.35s-1.38,1-2.13,1.47a17.94,17.94,0,0,1-2.23,1.19,5,5,0,0,1-2,.49c-.24,0-.29-.09-.14-.28a2.92,2.92,0,0,1,.72-.66q.47-.31,1-.63l1-.61a6.09,6.09,0,0,0,.88-.6c.61-.49,1.22-1,1.82-1.59s1.18-1.16,1.73-1.79,1.07-1.27,1.56-1.94a20.65,20.65,0,0,0,1.31-2c.15-.25.29-.52.44-.81a1.87,1.87,0,0,0,.22-.87c0-.15,0-.23-.11-.26a.78.78,0,0,0-.29,0,3.82,3.82,0,0,0-1.44.29c-.47.19-.92.41-1.37.64s-.88.45-1.31.64a3.06,3.06,0,0,1-1.24.29,1.54,1.54,0,0,1-.92-.28,2.48,2.48,0,0,1-.67-.7,3.32,3.32,0,0,1-.41-.92,3.65,3.65,0,0,1-.14-1V2.65A.46.46,0,0,1,42.46,2.4Z"/><path d="M60.4,17.06l.06-.12a27.1,27.1,0,0,0,4.36-3.06,46.24,46.24,0,0,0,3.84-3.7l.09-.12a.24.24,0,0,0,0-.14.82.82,0,0,0-.25-.57,3.54,3.54,0,0,0-.64-.53,9.48,9.48,0,0,0-.83-.48l-.83-.42c-.26-.13-.47-.25-.64-.35s-.25-.19-.25-.27,0-.06.15-.06h.19a3.36,3.36,0,0,1,1.06.17c.33.11.67.24,1,.38s.67.27,1,.38a3.29,3.29,0,0,0,1,.17.59.59,0,0,0,.39-.25,4.63,4.63,0,0,0,.47-.64c.16-.26.32-.55.48-.86s.3-.62.43-.91a8.57,8.57,0,0,0,.31-.8A1.88,1.88,0,0,0,72,4.36c0-.19-.06-.29-.17-.3l-.37,0a2.81,2.81,0,0,0-.77.11c-.25.07-.49.15-.74.24s-.49.17-.74.24a2.78,2.78,0,0,1-.75.11A.81.81,0,0,1,68,4.59a.81.81,0,0,0-.45-.15,2,2,0,0,0-.52.44L66,6c-.43.43-.91.91-1.44,1.42s-1.05,1-1.58,1.42a14.67,14.67,0,0,1-1.5,1.09,2.43,2.43,0,0,1-1.19.44l-.08,0a.05.05,0,0,1,0-.06,2.52,2.52,0,0,1,.42-.52L61.6,8.57c.43-.47.89-1,1.38-1.6s1-1.2,1.38-1.81a13.28,13.28,0,0,0,1.07-1.8,3.62,3.62,0,0,0,.43-1.58,1.28,1.28,0,0,0-.07-.48A1.74,1.74,0,0,0,65.61,1a1.75,1.75,0,0,0-.26-.29,1.57,1.57,0,0,1-.29-.36L65,.2a2,2,0,0,1,1-.2,6.3,6.3,0,0,1,1.48.18A4.79,4.79,0,0,1,68.88.7a1,1,0,0,1,.58.82.74.74,0,0,1-.12.39,3.27,3.27,0,0,1-.25.36l-.25.33a.53.53,0,0,0-.12.3c0,.13.06.2.18.2A3.65,3.65,0,0,0,70,2.93c.35-.11.7-.23,1-.36s.68-.25,1-.36A3.59,3.59,0,0,1,73.14,2a2.3,2.3,0,0,1,.79.18,4.78,4.78,0,0,1,.9.46,3.06,3.06,0,0,1,.73.65,1.17,1.17,0,0,1,.3.73,1.31,1.31,0,0,1-.29.67c-.19.27-.43.58-.72.92l-.93,1.07q-.49.56-.93,1.11a9,9,0,0,0-.72,1,1.79,1.79,0,0,0-.29.85.93.93,0,0,0,.19.27l.23.23a5.53,5.53,0,0,1,.79.88,2,2,0,0,1,.29,1.14,1.24,1.24,0,0,1-.36,1,1.46,1.46,0,0,1-1,.32,1.08,1.08,0,0,1-.75-.29,3.22,3.22,0,0,1-.53-.64c-.15-.23-.28-.45-.4-.64s-.24-.3-.36-.31l-.14.06a22.64,22.64,0,0,1-2.07,1.8,22.36,22.36,0,0,1-2.31,1.57,19.72,19.72,0,0,1-2.48,1.23,13.58,13.58,0,0,1-2.62.78Z"/><path d="M97.14,4.06l.08.08a3.37,3.37,0,0,1-.52,1.19A16.85,16.85,0,0,1,95.51,7c-.49.61-1,1.25-1.66,1.93s-1.27,1.35-1.94,2-1.35,1.29-2,1.9-1.33,1.14-1.94,1.6a14.25,14.25,0,0,1-1.65,1.1,2.71,2.71,0,0,1-1.18.41,2.59,2.59,0,0,1-1.29-.34,4,4,0,0,1-1.08-.88,4.66,4.66,0,0,1-.75-1.2,3.24,3.24,0,0,1-.28-1.3c0-.12.07-.18.2-.18a.61.61,0,0,1,.36.15l.43.33a4.2,4.2,0,0,0,.49.33,1,1,0,0,0,.52.15,5.73,5.73,0,0,0,2.07-.47,17,17,0,0,0,2.44-1.24,30.67,30.67,0,0,0,2.57-1.74c.87-.65,1.69-1.3,2.48-2s1.5-1.29,2.15-1.9S96.59,4.56,97,4.12ZM86.52,6.72a1.7,1.7,0,0,1-1-.44,9.61,9.61,0,0,1-1.11-1c-.37-.4-.71-.8-1-1.2l-.75-.92c-.15-.17-.29-.34-.44-.5s-.29-.33-.42-.5A.3.3,0,0,1,81.71,2c0-.07,0-.1.09-.1A10.06,10.06,0,0,1,83,2a13,13,0,0,1,1.32.22,9.26,9.26,0,0,1,1.33.41,5,5,0,0,1,1.17.63,3.21,3.21,0,0,1,.82.87,2.12,2.12,0,0,1,.31,1.16,1.61,1.61,0,0,1-.35,1.06A1.26,1.26,0,0,1,86.52,6.72Z"/><path d="M103.88.7c0-.11.08-.2.23-.28a2.93,2.93,0,0,1,.53-.21,4.49,4.49,0,0,1,.59-.13,2.83,2.83,0,0,1,.41,0,3.59,3.59,0,0,1,.82.12,4.81,4.81,0,0,1,1,.35,3.27,3.27,0,0,1,.79.55,1,1,0,0,1,.33.7,4.49,4.49,0,0,1-.23,1.42,9.25,9.25,0,0,0-.35,1.4,7.37,7.37,0,0,0-.08.78c0,.25,0,.51,0,.78,0,.08.06.14.17.18a2,2,0,0,0,.4.09l.44,0h.31a13,13,0,0,1,1.65.25,7.25,7.25,0,0,1,1.7.58,4.22,4.22,0,0,1,1.33,1,2.31,2.31,0,0,1,.54,1.58,1.57,1.57,0,0,1-.31,1,1.12,1.12,0,0,1-1,.4,1.55,1.55,0,0,1-.93-.33,5.66,5.66,0,0,1-.89-.83A12.1,12.1,0,0,1,110.47,9c-.27-.39-.55-.76-.83-1.09a5.94,5.94,0,0,0-.84-.83,1.39,1.39,0,0,0-.86-.33c-.13,0-.2.06-.2.18,0,1.47,0,2.93.07,4.38s.07,2.91.07,4.38a1.41,1.41,0,0,1-.22.88,1,1,0,0,1-.86.28,1.37,1.37,0,0,1-1-.3,1.71,1.71,0,0,1-.48-.76,3.47,3.47,0,0,1-.17-1c0-.35,0-.67,0-1q0-1.63.15-3.27t.15-3.27c0-.28,0-.65,0-1.11s0-.93,0-1.42,0-.95,0-1.39a5.2,5.2,0,0,0-.14-1,2.23,2.23,0,0,0-.36-.79A2.35,2.35,0,0,0,104.3,1l-.21-.11a1.2,1.2,0,0,1-.21-.13Z"/><path d="M123.72,4.64l.06-.1a3.42,3.42,0,0,1,1.5-.06,3.93,3.93,0,0,1,1.46.56,3.38,3.38,0,0,1,1.06,1.07,2.29,2.29,0,0,1,.32,1.47,3.29,3.29,0,0,1-.47.59c-.18.18-.35.36-.51.55-.35.35-.69.68-1,1l-1,1a15.06,15.06,0,0,1-2.57,2q-1.33.81-2.85,1.59l-.44.22a2.67,2.67,0,0,1-.46.2l0,0,1.09-1.06c.42-.4.85-.84,1.3-1.31s.89-1,1.34-1.47a15.87,15.87,0,0,0,1.19-1.53,9.32,9.32,0,0,0,.85-1.52,3.51,3.51,0,0,0,.33-1.41,1.45,1.45,0,0,0-.32-.92,4.21,4.21,0,0,0-.7-.7Zm6.2,0c.05,0,.16,0,.33,0a3.75,3.75,0,0,1,.53.22l.54.28.36.2c.6.35,1.21.72,1.82,1.13a10.14,10.14,0,0,1,1.66,1.38,6.82,6.82,0,0,1,1.2,1.72,4.73,4.73,0,0,1,.46,2.11,3.59,3.59,0,0,1-.08.71,2.51,2.51,0,0,1-.25.68,1.41,1.41,0,0,1-.46.51,1.24,1.24,0,0,1-.71.2,1.14,1.14,0,0,1-1-.55,5.1,5.1,0,0,1-.65-1.3c-.17-.5-.32-1-.44-1.5a9.4,9.4,0,0,0-.34-1.17A7.54,7.54,0,0,0,132.33,8c-.23-.39-.48-.78-.74-1.15s-.53-.74-.81-1.1l-.84-1.08A.08.08,0,0,1,129.92,4.62Zm1.8-2.38.06-.06a3.65,3.65,0,0,1,.88.17,4.66,4.66,0,0,1,1,.4,2.87,2.87,0,0,1,.76.61,1.2,1.2,0,0,1,.31.82,1,1,0,0,1-.14.49.48.48,0,0,1-.44.23.85.85,0,0,1-.54-.33c-.21-.22-.44-.47-.67-.76s-.45-.57-.65-.84a5.76,5.76,0,0,0-.48-.59Zm2-1.34c0-.05.22-.07.53,0a4.38,4.38,0,0,1,1,.24,3.22,3.22,0,0,1,1,.56,1.15,1.15,0,0,1,.44.92.75.75,0,0,1-.15.46.51.51,0,0,1-.43.2,1,1,0,0,1-.57-.21,4.41,4.41,0,0,1-.58-.51,7.46,7.46,0,0,1-.53-.61L134,1.4l-.19-.24A1.35,1.35,0,0,1,133.68.9Z"/><path d="M143.2,4.18a1.3,1.3,0,0,0-.25-.86,2.39,2.39,0,0,0-.54-.48,3.62,3.62,0,0,0-.54-.29c-.17-.07-.25-.16-.25-.27a.34.34,0,0,1,.2-.28,1.85,1.85,0,0,1,.47-.2l.53-.12a2.31,2.31,0,0,1,.38,0,4.75,4.75,0,0,1,.89.11,4.42,4.42,0,0,1,1,.33,2.83,2.83,0,0,1,.82.56,1.08,1.08,0,0,1,.34.8,1.68,1.68,0,0,1-.2.79,6.21,6.21,0,0,0-.34.75,6.81,6.81,0,0,0-.33,1.51c-.07.59-.12,1.21-.15,1.85s0,1.27-.05,1.88,0,1.15,0,1.6.2.64.6.64a4.2,4.2,0,0,0,1.31-.26,13.53,13.53,0,0,0,1.58-.67c.55-.27,1.12-.59,1.7-.94s1.14-.71,1.67-1.06,1-.69,1.48-1l1.14-.85a14.65,14.65,0,0,0,1.1-1,5.27,5.27,0,0,1,1.2-.87l.16-.07s.08,0,.08.13a.32.32,0,0,1,0,.16,10.32,10.32,0,0,1-1.26,2,15.07,15.07,0,0,1-1.6,1.69,17.48,17.48,0,0,1-1.83,1.46c-.65.45-1.3.9-2,1.34l-2,1.32c-.65.44-1.28.91-1.88,1.4l-.28.26-.34.31a2.7,2.7,0,0,1-.36.26.72.72,0,0,1-.36.11,1.71,1.71,0,0,1-.84-.27,4.48,4.48,0,0,1-1.55-1.53,1.71,1.71,0,0,1-.27-.84,1.16,1.16,0,0,1,.08-.42,3.49,3.49,0,0,1,.19-.39,3.49,3.49,0,0,0,.19-.39,1.23,1.23,0,0,0,.08-.44Z"/><path d="M162.26,6.76c0-.13.06-.2.18-.2a2.46,2.46,0,0,1,1.08.27,4.36,4.36,0,0,1,1,.69,3.83,3.83,0,0,1,.76,1,2.14,2.14,0,0,1,.3,1.07,1.12,1.12,0,0,1-.25.77,1,1,0,0,1-.75.29c-.2,0-.44-.16-.71-.49A7.81,7.81,0,0,1,163.12,9a10.73,10.73,0,0,1-.61-1.29A2.88,2.88,0,0,1,162.26,6.76Zm1.14,9.9,1-.67c.33-.22.64-.45.95-.69.61-.47,1.28-1,2-1.67a19.38,19.38,0,0,0,2-2.11A13.34,13.34,0,0,0,171,9.14a5.32,5.32,0,0,0,.64-2.48.86.86,0,0,0-.08-.36,1.41,1.41,0,0,0-.18-.29,3,3,0,0,1-.18-.25.46.46,0,0,1-.08-.24.17.17,0,0,1,.1-.17l.24-.08a1.33,1.33,0,0,1,.28,0h.2a2.27,2.27,0,0,1,.8.16,3.25,3.25,0,0,1,.82.44,2.77,2.77,0,0,1,.63.65,1.33,1.33,0,0,1,.25.77.87.87,0,0,1-.09.36,2.65,2.65,0,0,1-.22.4l-.27.38a3.13,3.13,0,0,0-.22.32c-.51.75-1,1.51-1.62,2.29a20.71,20.71,0,0,1-1.86,2.21A16.73,16.73,0,0,1,168,15.1a9.64,9.64,0,0,1-2.48,1.3l-.45.14-.61.14a4.57,4.57,0,0,1-.61.07,1,1,0,0,1-.43-.05Zm2.38-11.28a3.73,3.73,0,0,1,1.37.33,3.25,3.25,0,0,1,1.62,1.66,2.13,2.13,0,0,1,.19.91,1.07,1.07,0,0,1-.28.7,1,1,0,0,1-.78.28h-.25a.69.69,0,0,1-.25,0,3.86,3.86,0,0,1-.56-.79,9,9,0,0,1-.44-.94q-.19-.5-.36-1c-.11-.33-.21-.65-.3-.94a.37.37,0,0,1,0-.12Z"/><path d="M183.88.7c0-.11.08-.2.23-.28a2.93,2.93,0,0,1,.53-.21,4.49,4.49,0,0,1,.59-.13,2.83,2.83,0,0,1,.41,0,3.59,3.59,0,0,1,.82.12,4.81,4.81,0,0,1,1,.35,3.27,3.27,0,0,1,.79.55,1,1,0,0,1,.33.7,4.49,4.49,0,0,1-.23,1.42,9.25,9.25,0,0,0-.35,1.4,7.37,7.37,0,0,0-.08.78c0,.25,0,.51,0,.78,0,.08.06.14.17.18a2,2,0,0,0,.4.09l.44,0h.31a13,13,0,0,1,1.65.25,7.25,7.25,0,0,1,1.7.58,4.22,4.22,0,0,1,1.33,1,2.31,2.31,0,0,1,.54,1.58,1.57,1.57,0,0,1-.31,1,1.12,1.12,0,0,1-1,.4,1.55,1.55,0,0,1-.93-.33,5.66,5.66,0,0,1-.89-.83A12.1,12.1,0,0,1,190.47,9c-.27-.39-.55-.76-.83-1.09a5.94,5.94,0,0,0-.84-.83,1.39,1.39,0,0,0-.86-.33c-.13,0-.2.06-.2.18,0,1.47,0,2.93.07,4.38s.07,2.91.07,4.38a1.41,1.41,0,0,1-.22.88,1,1,0,0,1-.86.28,1.37,1.37,0,0,1-1-.3,1.71,1.71,0,0,1-.48-.76,3.47,3.47,0,0,1-.17-1c0-.35,0-.67,0-1q0-1.63.15-3.27t.15-3.27c0-.28,0-.65,0-1.11s0-.93,0-1.42,0-.95,0-1.39a5.2,5.2,0,0,0-.14-1,2.23,2.23,0,0,0-.36-.79A2.35,2.35,0,0,0,184.3,1l-.21-.11a1.2,1.2,0,0,1-.21-.13Z"/></g></g></svg>