<svg xmlns="http://www.w3.org/2000/svg" viewBox="0 0 32.41 344.5"><title>アセット 14</title><g id="レイヤー_2" data-name="レイヤー 2"><g id="レイヤー_7" data-name="レイヤー 7"><path d="M16.17,13.62a2.21,2.21,0,0,0-.65.29c-.24.15-.5.33-.77.53L14,15l-.61.45c-.63.44-1.41,1-2.34,1.59s-1.92,1.21-2.94,1.77a29.47,29.47,0,0,1-3,1.44,8.21,8.21,0,0,1-2.64.63l-.14-.15.1-.21c.68-.44,1.58-1.07,2.7-1.9s2.32-1.78,3.6-2.85,2.58-2.21,3.9-3.42a48.12,48.12,0,0,0,3.57-3.58,26.77,26.77,0,0,0,2.61-3.4,5.47,5.47,0,0,0,1-2.8,1.82,1.82,0,0,0-.27-1A2.68,2.68,0,0,0,19,.91a4.24,4.24,0,0,0-.56-.4.46.46,0,0,1-.26-.37c0-.09.06-.14.18-.14a15.78,15.78,0,0,1,2.2.18,9.64,9.64,0,0,1,2.4.63,5.44,5.44,0,0,1,1.92,1.24,2.69,2.69,0,0,1,.79,2,2.18,2.18,0,0,1-.51,1.4,6.47,6.47,0,0,1-1.26,1.17,18.09,18.09,0,0,1-1.62,1c-.59.34-1.13.69-1.63,1a6.94,6.94,0,0,0-1.26,1.11,2,2,0,0,0-.51,1.34.71.71,0,0,0,.33.59l.72.51a4.52,4.52,0,0,1,.72.59,1.17,1.17,0,0,1,.33.86c0,1.75,0,3.48-.07,5.2s-.07,3.45-.07,5.2c0,.63,0,1.3.07,2a6.08,6.08,0,0,1-.17,2A1.8,1.8,0,0,1,20,29.23a2.46,2.46,0,0,1-1.28.27,2.56,2.56,0,0,1-1.29-.29,2.51,2.51,0,0,1-.86-.79,3.21,3.21,0,0,1-.47-1.12A5.57,5.57,0,0,1,16,26a43.37,43.37,0,0,1,.26-4.82,46,46,0,0,0,.26-4.83c0-.19,0-.4,0-.63s0-.48,0-.72a4.2,4.2,0,0,0-.06-.72,2.2,2.2,0,0,0-.15-.59Z"/><path d="M32.27,42.11l.14.14a6,6,0,0,1-.91,2.08,30,30,0,0,1-2.08,2.9q-1.28,1.59-2.91,3.38t-3.39,3.52q-1.77,1.73-3.57,3.32c-1.2,1.06-2.34,2-3.4,2.8a24.5,24.5,0,0,1-2.88,1.93,4.71,4.71,0,0,1-2.07.72,4.55,4.55,0,0,1-2.26-.6,7.14,7.14,0,0,1-1.89-1.54,7.88,7.88,0,0,1-1.31-2.1,5.74,5.74,0,0,1-.49-2.27c0-.21.12-.32.35-.32a1.1,1.1,0,0,1,.63.26l.75.58a8.62,8.62,0,0,0,.86.58,1.85,1.85,0,0,0,.91.26,9.83,9.83,0,0,0,3.62-.82,29.17,29.17,0,0,0,4.27-2.17q2.22-1.35,4.5-3c1.52-1.13,3-2.27,4.34-3.43S28.11,46,29.24,45,31.3,43,32,42.21ZM13.69,46.76A3,3,0,0,1,12,46,16.23,16.23,0,0,1,10,44.17c-.64-.7-1.25-1.4-1.82-2.1L6.9,40.46l-.78-.88c-.25-.27-.5-.57-.73-.87a.54.54,0,0,1-.12-.24c0-.12,0-.18.16-.18a19.47,19.47,0,0,1,2,.12,21.43,21.43,0,0,1,2.31.39,14.53,14.53,0,0,1,2.33.72,9,9,0,0,1,2,1.1,5.32,5.32,0,0,1,1.44,1.52,3.78,3.78,0,0,1,.54,2A2.8,2.8,0,0,1,15.49,46,2.21,2.21,0,0,1,13.69,46.76Z"/><path d="M6.58,74.2a1.54,1.54,0,0,1,.23.14l.19.14a8,8,0,0,0,1.49.88,4.17,4.17,0,0,0,1.7.35q1.05,0,2.31-.06c.84,0,1.69-.1,2.57-.21A22.8,22.8,0,0,0,17.61,75a12.32,12.32,0,0,0,2.17-.69,8.63,8.63,0,0,0,1.29-.74,2.45,2.45,0,0,1,1.4-.45,3.65,3.65,0,0,1,1.42.36,7.4,7.4,0,0,1,1.56,1,6.24,6.24,0,0,1,1.24,1.28A2.27,2.27,0,0,1,27.2,77a1.36,1.36,0,0,1-.27.84,3.25,3.25,0,0,1-.61.62l-.75.53a2.87,2.87,0,0,0-.68.63,9.83,9.83,0,0,0-1.23,1.65q-.53.87-1.08,1.71a13.63,13.63,0,0,1-1.23,1.56,18.82,18.82,0,0,0-1.26,1.52.38.38,0,0,0,.11.6,5.16,5.16,0,0,0,1.27.34,9.09,9.09,0,0,1,1.32.32,22.14,22.14,0,0,1,2.64,1.09,11.41,11.41,0,0,1,2.5,1.62,8.72,8.72,0,0,1,1.86,2.21A5.29,5.29,0,0,1,30.52,95a2.72,2.72,0,0,1-.65,1.9,2.38,2.38,0,0,1-1.87.72,2.52,2.52,0,0,1-1.77-.75A9.27,9.27,0,0,1,24.75,95c-.47-.76-.92-1.58-1.35-2.45s-.87-1.7-1.3-2.47a10.53,10.53,0,0,0-1.34-1.92,2.17,2.17,0,0,0-1.54-.81,3,3,0,0,0-.63.46c-.31.25-.64.54-1,.85l-1,.91-.7.62c-.8.67-1.78,1.46-3,2.36s-2.42,1.75-3.73,2.57a30.86,30.86,0,0,1-3.9,2.08,8.72,8.72,0,0,1-3.52.86c-.42,0-.5-.16-.24-.49a5.28,5.28,0,0,1,1.26-1.15c.53-.38,1.11-.75,1.73-1.11l1.84-1.07a10.54,10.54,0,0,0,1.54-1C9,92.34,10,91.42,11.06,90.42s2.06-2,3-3.13S16,85.06,16.82,83.9a36.44,36.44,0,0,0,2.29-3.57c.26-.45.51-.92.77-1.42a3.27,3.27,0,0,0,.39-1.52c0-.26-.07-.41-.2-.46a1.4,1.4,0,0,0-.5-.07,6.45,6.45,0,0,0-2.52.51c-.82.34-1.62.71-2.4,1.12s-1.55.78-2.29,1.12a5.23,5.23,0,0,1-2.17.51,2.7,2.7,0,0,1-1.61-.5A4.29,4.29,0,0,1,7.4,78.4a6.48,6.48,0,0,1-1-3.29v-.47A.82.82,0,0,1,6.58,74.2Z"/><path d="M3,134.86l.1-.21a47.34,47.34,0,0,0,7.63-5.36,83.76,83.76,0,0,0,6.72-6.47l.16-.21a.38.38,0,0,0,.09-.25,1.48,1.48,0,0,0-.44-1,6.4,6.4,0,0,0-1.12-.92,12.17,12.17,0,0,0-1.45-.84l-1.46-.74c-.45-.23-.83-.44-1.12-.61s-.43-.33-.43-.47.08-.11.26-.11h.33a5.75,5.75,0,0,1,1.86.3c.58.2,1.16.42,1.75.66s1.16.47,1.75.67a5.56,5.56,0,0,0,1.82.3c.18,0,.41-.15.68-.44a7.41,7.41,0,0,0,.82-1.12c.28-.46.56-1,.84-1.51s.53-1.08.75-1.59.41-1,.55-1.4a3.31,3.31,0,0,0,.21-.91c0-.33-.1-.5-.3-.52a4.45,4.45,0,0,0-.65,0,4.64,4.64,0,0,0-1.35.19q-.64.19-1.29.42c-.43.15-.87.29-1.3.42a4.51,4.51,0,0,1-1.31.19,1.4,1.4,0,0,1-.79-.26,1.48,1.48,0,0,0-.78-.26c-.1,0-.4.26-.91.77l-1.91,1.91c-.76.76-1.6,1.59-2.52,2.48s-1.85,1.73-2.77,2.49a24.83,24.83,0,0,1-2.62,1.91,4.25,4.25,0,0,1-2.08.77.33.33,0,0,1-.14,0,.1.1,0,0,1-.07-.1,4.11,4.11,0,0,1,.73-.92l1.86-2c.74-.83,1.55-1.76,2.41-2.8s1.67-2.1,2.42-3.17a24.07,24.07,0,0,0,1.87-3.15,6.45,6.45,0,0,0,.75-2.76,2.41,2.41,0,0,0-.12-.84,2.33,2.33,0,0,0-.32-.58,3.57,3.57,0,0,0-.45-.51,2.8,2.8,0,0,1-.51-.63l0-.21a3.44,3.44,0,0,1,1.8-.35,11.12,11.12,0,0,1,2.59.32,8.51,8.51,0,0,1,2.33.91,1.69,1.69,0,0,1,1,1.43,1.26,1.26,0,0,1-.21.68c-.14.22-.29.43-.44.63l-.43.58a.9.9,0,0,0-.21.53c0,.23.1.35.31.35a6.2,6.2,0,0,0,1.91-.3c.62-.2,1.22-.41,1.82-.63s1.19-.43,1.8-.63a6,6,0,0,1,1.89-.3,4.06,4.06,0,0,1,1.38.32,8.09,8.09,0,0,1,1.58.8,5.64,5.64,0,0,1,1.28,1.14,2,2,0,0,1,.52,1.28,2.24,2.24,0,0,1-.51,1.17c-.34.48-.76,1-1.26,1.61s-1,1.22-1.62,1.87-1.13,1.3-1.63,1.94a17.78,17.78,0,0,0-1.26,1.82,3,3,0,0,0-.51,1.49,1.65,1.65,0,0,0,.33.47l.41.41a9.36,9.36,0,0,1,1.38,1.54,3.43,3.43,0,0,1,.51,2,2.2,2.2,0,0,1-.63,1.72,2.57,2.57,0,0,1-1.75.56,1.85,1.85,0,0,1-1.32-.51,5.43,5.43,0,0,1-.92-1.12l-.7-1.12c-.21-.34-.43-.52-.63-.54l-.25.1a41.07,41.07,0,0,1-3.62,3.15,40.49,40.49,0,0,1-4,2.75,33,33,0,0,1-4.34,2.15,25.16,25.16,0,0,1-4.59,1.37Z"/><path d="M32.27,147.11l.14.14a6,6,0,0,1-.91,2.08,30,30,0,0,1-2.08,2.9q-1.28,1.59-2.91,3.38t-3.39,3.52q-1.77,1.73-3.57,3.32c-1.2,1.06-2.34,2-3.4,2.8a24.5,24.5,0,0,1-2.88,1.93,4.71,4.71,0,0,1-2.07.72,4.55,4.55,0,0,1-2.26-.6,7.14,7.14,0,0,1-1.89-1.54,7.88,7.88,0,0,1-1.31-2.1,5.74,5.74,0,0,1-.49-2.27c0-.21.12-.32.35-.32a1.1,1.1,0,0,1,.63.26l.75.58a8.62,8.62,0,0,0,.86.58,1.85,1.85,0,0,0,.91.26,9.83,9.83,0,0,0,3.62-.82,29.17,29.17,0,0,0,4.27-2.17q2.22-1.35,4.5-3c1.52-1.13,3-2.27,4.34-3.43S28.11,151,29.24,150s2.06-2,2.79-2.75Zm-18.58,4.65A3,3,0,0,1,12,151,16.23,16.23,0,0,1,10,149.17c-.64-.7-1.25-1.4-1.82-2.1L6.9,145.46l-.78-.88c-.25-.27-.5-.57-.73-.87a.54.54,0,0,1-.12-.24c0-.12,0-.18.16-.18a19.47,19.47,0,0,1,2,.12,21.43,21.43,0,0,1,2.31.39,14.53,14.53,0,0,1,2.33.72,9,9,0,0,1,2,1.1,5.32,5.32,0,0,1,1.44,1.52,3.78,3.78,0,0,1,.54,2,2.8,2.8,0,0,1-.61,1.86A2.21,2.21,0,0,1,13.69,151.76Z"/><path d="M9.07,176.23c0-.19.13-.35.4-.49a5,5,0,0,1,.93-.37,6.59,6.59,0,0,1,1-.23,5.49,5.49,0,0,1,.72-.07,6.38,6.38,0,0,1,1.43.21,8,8,0,0,1,1.67.61,5.3,5.3,0,0,1,1.39,1,1.66,1.66,0,0,1,.58,1.22,7.73,7.73,0,0,1-.4,2.49,15.4,15.4,0,0,0-.61,2.45,13.07,13.07,0,0,0-.14,1.36c0,.44,0,.9,0,1.37,0,.14.1.24.3.31a3.83,3.83,0,0,0,.7.16,6.93,6.93,0,0,0,.77.05h.54a24,24,0,0,1,2.89.44,12.53,12.53,0,0,1,3,1,7.53,7.53,0,0,1,2.33,1.77,4.06,4.06,0,0,1,.95,2.76,2.75,2.75,0,0,1-.55,1.75,2,2,0,0,1-1.66.71,2.78,2.78,0,0,1-1.63-.58,10.32,10.32,0,0,1-1.55-1.45,21,21,0,0,1-1.49-1.91c-.48-.69-1-1.33-1.45-1.91a10,10,0,0,0-1.47-1.45,2.41,2.41,0,0,0-1.51-.58c-.23,0-.35.11-.35.32,0,2.56,0,5.12.12,7.66s.13,5.1.13,7.67a2.47,2.47,0,0,1-.39,1.54,1.87,1.87,0,0,1-1.5.48,2.4,2.4,0,0,1-1.67-.52,3.1,3.1,0,0,1-.84-1.33,6.38,6.38,0,0,1-.29-1.71c0-.61,0-1.18,0-1.72,0-1.91.09-3.82.26-5.72s.27-3.81.27-5.72c0-.49,0-1.14,0-1.95s0-1.63,0-2.48,0-1.66-.07-2.43a10.08,10.08,0,0,0-.24-1.79,4.44,4.44,0,0,0-.63-1.38,4,4,0,0,0-1.16-1c-.12-.07-.24-.14-.37-.2a1.34,1.34,0,0,1-.36-.22Z"/><path d="M8.79,218.12l.1-.17a5.78,5.78,0,0,1,2.63-.11,6.88,6.88,0,0,1,2.55,1,5.83,5.83,0,0,1,1.86,1.87,4.11,4.11,0,0,1,.56,2.58,6.24,6.24,0,0,1-.83,1c-.31.31-.61.63-.89,1-.61.61-1.21,1.2-1.82,1.77l-1.82,1.73a26.42,26.42,0,0,1-4.5,3.48q-2.33,1.42-5,2.79a7.85,7.85,0,0,0-.77.38,4.83,4.83,0,0,1-.81.35L0,235.69c.54-.54,1.17-1.15,1.91-1.86s1.49-1.46,2.27-2.29,1.57-1.68,2.35-2.57a27.33,27.33,0,0,0,2.08-2.68,17,17,0,0,0,1.49-2.66,6.19,6.19,0,0,0,.58-2.46,2.5,2.5,0,0,0-.56-1.61,8,8,0,0,0-1.23-1.23Zm10.85,0c.09-.06.28-.05.57,0a6.77,6.77,0,0,1,.93.38l.95.5.63.35c1.05.6,2.11,1.26,3.18,2a18,18,0,0,1,2.91,2.42,11.81,11.81,0,0,1,2.1,3,8.46,8.46,0,0,1,.8,3.69,6,6,0,0,1-.14,1.24,4.12,4.12,0,0,1-.44,1.19,2.57,2.57,0,0,1-.8.9,2.16,2.16,0,0,1-1.24.35,2,2,0,0,1-1.7-1,8.77,8.77,0,0,1-1.14-2.27c-.3-.88-.56-1.75-.77-2.63a19.26,19.26,0,0,0-.59-2,12.94,12.94,0,0,0-1-2.19c-.41-.69-.84-1.36-1.29-2s-.93-1.29-1.42-1.92l-1.47-1.89A.16.16,0,0,1,19.64,218.08Zm3.15-4.16.1-.1a6.72,6.72,0,0,1,1.54.29,8.7,8.7,0,0,1,1.66.7,4.71,4.71,0,0,1,1.33,1.07,2.16,2.16,0,0,1,.55,1.44,1.62,1.62,0,0,1-.25.85.83.83,0,0,1-.77.41A1.52,1.52,0,0,1,26,218c-.38-.39-.77-.83-1.18-1.33s-.78-1-1.13-1.47a9.22,9.22,0,0,0-.84-1Zm3.43-2.34c.07-.1.37-.12.92-.08a6.91,6.91,0,0,1,1.79.43,5.79,5.79,0,0,1,1.73,1,2,2,0,0,1,.77,1.61,1.32,1.32,0,0,1-.26.8.9.9,0,0,1-.75.35,1.68,1.68,0,0,1-1-.37,7.37,7.37,0,0,1-1-.89,11.35,11.35,0,0,1-.92-1.07c-.28-.36-.51-.66-.67-.89s-.23-.28-.33-.42A2,2,0,0,1,26.22,211.58Z"/><path d="M7.88,252.32a2.3,2.3,0,0,0-.44-1.51,3.91,3.91,0,0,0-1-.84,8.18,8.18,0,0,0-.94-.51c-.29-.13-.44-.28-.44-.47a.59.59,0,0,1,.35-.49,3.43,3.43,0,0,1,.82-.35,8.76,8.76,0,0,1,.93-.21,4.42,4.42,0,0,1,.67-.07,7.7,7.7,0,0,1,1.55.19,8.16,8.16,0,0,1,1.77.58,5,5,0,0,1,1.44,1,1.94,1.94,0,0,1,.59,1.4,2.89,2.89,0,0,1-.35,1.38,9.68,9.68,0,0,0-.59,1.32,12.41,12.41,0,0,0-.58,2.64c-.13,1-.22,2.12-.26,3.24s-.08,2.21-.09,3.29,0,2,0,2.8.35,1.12,1.05,1.12a7.24,7.24,0,0,0,2.29-.46,23,23,0,0,0,2.77-1.17q1.46-.72,3-1.65c1-.61,2-1.23,2.93-1.85s1.79-1.22,2.59-1.79,1.45-1.06,2-1.48,1.32-1.11,1.93-1.7a8.56,8.56,0,0,1,2.1-1.52l.28-.13c.09,0,.14,0,.14.23a.72.72,0,0,1-.07.28,17.58,17.58,0,0,1-2.21,3.52,26.09,26.09,0,0,1-2.8,3,30.67,30.67,0,0,1-3.2,2.56c-1.13.79-2.28,1.58-3.43,2.35l-3.45,2.3c-1.14.78-2.24,1.59-3.29,2.46a5.82,5.82,0,0,0-.49.45,7.55,7.55,0,0,1-.59.54,5,5,0,0,1-.63.46,1.18,1.18,0,0,1-.63.19,3,3,0,0,1-1.47-.47,8.4,8.4,0,0,1-1.53-1.17A7.32,7.32,0,0,1,7.4,270.2a3,3,0,0,1-.47-1.47,2,2,0,0,1,.14-.73,4.83,4.83,0,0,1,.33-.69,6.16,6.16,0,0,0,.34-.68,2.11,2.11,0,0,0,.14-.77Z"/><path d="M10.68,287.39c0-.24.1-.35.31-.35a4.25,4.25,0,0,1,1.89.47,7.42,7.42,0,0,1,1.79,1.21A6.84,6.84,0,0,1,16,290.38a3.75,3.75,0,0,1,.52,1.87,2,2,0,0,1-.44,1.35,1.63,1.63,0,0,1-1.31.51c-.35,0-.76-.29-1.24-.86a12.45,12.45,0,0,1-1.35-2A18.31,18.31,0,0,1,11.11,289,5.24,5.24,0,0,1,10.68,287.39Zm2,17.32c.56-.4,1.13-.79,1.7-1.17s1.12-.79,1.66-1.21c1.07-.82,2.25-1.79,3.52-2.92a35.61,35.61,0,0,0,3.57-3.69,22.93,22.93,0,0,0,2.78-4.17A9.35,9.35,0,0,0,27,287.21a1.46,1.46,0,0,0-.14-.63,3.14,3.14,0,0,0-.31-.51,5.29,5.29,0,0,1-.32-.43.78.78,0,0,1-.14-.42.31.31,0,0,1,.18-.3,1.38,1.38,0,0,1,.42-.14,2,2,0,0,1,.49,0h.35A4.3,4.3,0,0,1,29,285a5.68,5.68,0,0,1,1.43.78,4.53,4.53,0,0,1,1.1,1.13,2.38,2.38,0,0,1,.44,1.35,1.47,1.47,0,0,1-.16.63,4.82,4.82,0,0,1-.38.7c-.15.23-.31.45-.47.66a4.18,4.18,0,0,0-.39.57c-.89,1.3-1.83,2.64-2.83,4a37.9,37.9,0,0,1-3.26,3.87A28.75,28.75,0,0,1,20.65,302a16.52,16.52,0,0,1-4.34,2.27,6.3,6.3,0,0,1-.79.25c-.34.09-.69.18-1.06.25a7,7,0,0,1-1.07.12,1.85,1.85,0,0,1-.75-.09ZM16.84,285a6.32,6.32,0,0,1,2.39.58A5.6,5.6,0,0,1,21,286.83a5.84,5.84,0,0,1,1.07,1.62A3.75,3.75,0,0,1,22.4,290a1.87,1.87,0,0,1-.49,1.23,1.76,1.76,0,0,1-1.36.49h-.44a1.31,1.31,0,0,1-.44-.07,6.71,6.71,0,0,1-1-1.38,16.64,16.64,0,0,1-.77-1.65c-.23-.57-.44-1.15-.63-1.73s-.36-1.13-.52-1.64a.41.41,0,0,1,0-.21Z"/><path d="M9.07,316.23c0-.19.13-.35.4-.49a5,5,0,0,1,.93-.37,6.59,6.59,0,0,1,1-.23,5.49,5.49,0,0,1,.72-.07,6.38,6.38,0,0,1,1.43.21,8,8,0,0,1,1.67.61,5.3,5.3,0,0,1,1.39,1,1.66,1.66,0,0,1,.58,1.22,7.73,7.73,0,0,1-.4,2.49,15.4,15.4,0,0,0-.61,2.45,13.07,13.07,0,0,0-.14,1.36c0,.44,0,.9,0,1.37,0,.14.1.24.3.31a3.83,3.83,0,0,0,.7.16,6.93,6.93,0,0,0,.77,0h.54a24,24,0,0,1,2.89.44,12.53,12.53,0,0,1,3,1,7.53,7.53,0,0,1,2.33,1.77,4.06,4.06,0,0,1,.95,2.76,2.75,2.75,0,0,1-.55,1.75,2,2,0,0,1-1.66.71,2.78,2.78,0,0,1-1.63-.58,10.32,10.32,0,0,1-1.55-1.45,21,21,0,0,1-1.49-1.91c-.48-.69-1-1.33-1.45-1.91a10,10,0,0,0-1.47-1.45,2.41,2.41,0,0,0-1.51-.58c-.23,0-.35.11-.35.32,0,2.56,0,5.12.12,7.66s.13,5.1.13,7.67a2.47,2.47,0,0,1-.39,1.54,1.87,1.87,0,0,1-1.5.48,2.4,2.4,0,0,1-1.67-.52,3.1,3.1,0,0,1-.84-1.33,6.38,6.38,0,0,1-.29-1.71c0-.61,0-1.18,0-1.72,0-1.91.09-3.82.26-5.72s.27-3.81.27-5.72c0-.49,0-1.14,0-1.95s0-1.63,0-2.48,0-1.66-.07-2.43a10.08,10.08,0,0,0-.24-1.79,4.44,4.44,0,0,0-.63-1.38,4,4,0,0,0-1.16-1c-.12-.07-.24-.14-.37-.2a1.34,1.34,0,0,1-.36-.22Z"/></g></g></svg>