<svg xmlns="http://www.w3.org/2000/svg" viewBox="0 0 37.72 648.8"><defs><style>.cls-1{fill:#fff;}</style></defs><title>アセット 18</title><g id="レイヤー_2" data-name="レイヤー 2"><g id="レイヤー_8" data-name="レイヤー 8"><path class="cls-1" d="M11,1.08c-.29,0-.44-.13-.44-.4s.15-.4.44-.4q6.6,0,13.08-.14T37.2,0a.35.35,0,0,1,.4.4q0,3-.14,5.88t-.14,5.88a.35.35,0,0,1-.4.4c-.35,0-.52-.13-.52-.4V1.56a.44.44,0,0,0-.18-.32.51.51,0,0,0-.34-.16Z"/><path class="cls-1" d="M7.08,37.2a.29.29,0,0,1,.28.24c.21.48.42,1,.62,1.52s.41,1,.62,1.56A11.11,11.11,0,0,0,9.34,42a6.64,6.64,0,0,0,1,1.3,5.6,5.6,0,0,0,1.38.94,7.79,7.79,0,0,0,1.64.58,12.83,12.83,0,0,0,1.72.28c.57.05,1.13.08,1.66.08a14.74,14.74,0,0,0,2.72-.26c.91-.17,1.8-.37,2.68-.58s1.77-.41,2.66-.58a14.63,14.63,0,0,1,2.74-.26,6.86,6.86,0,0,1,1.42.16,5.57,5.57,0,0,1,1.44.5,3.65,3.65,0,0,1,1.12.9A2.06,2.06,0,0,1,32,46.4a1.92,1.92,0,0,1-.66,1.48,5.46,5.46,0,0,1-1.7,1,10.89,10.89,0,0,1-2.3.6c-.84.13-1.67.23-2.5.3s-1.59.11-2.3.12l-1.66,0-2.84,0c-1,0-1.91,0-2.84-.06a12.1,12.1,0,0,1-1.72-.28,11.58,11.58,0,0,1-1.64-.52,7.75,7.75,0,0,1-4.3-3.14,10.24,10.24,0,0,1-1.18-5.22c0-.51,0-1.1.06-1.78a3.26,3.26,0,0,1,.5-1.66ZM13,29.44a1.74,1.74,0,0,1,.68-.94,10.27,10.27,0,0,1,1.1-.7,6.74,6.74,0,0,0,1-.7,1.16,1.16,0,0,0,.46-.94.23.23,0,0,0-.14-.2,2.75,2.75,0,0,0-.34-.16l-.4-.14a1.16,1.16,0,0,0-.28-.06c-.59-.16-1.26-.37-2-.64a13.81,13.81,0,0,1-2.18-1A8.51,8.51,0,0,1,9.08,22.6a3.46,3.46,0,0,1-1-1.8c-.11-.11-.1-.19,0-.24a.87.87,0,0,1,.26-.08,5.62,5.62,0,0,1,1.6.22c.51.15,1,.31,1.54.5s1,.35,1.54.5a5.62,5.62,0,0,0,1.6.22,13.48,13.48,0,0,0,2.12-.16c.69-.11,1.39-.23,2.08-.38s1.39-.27,2.08-.38A13.48,13.48,0,0,1,23,20.84,10.19,10.19,0,0,1,24.7,21a9,9,0,0,1,1.9.54,5.12,5.12,0,0,1,1.56,1A1.93,1.93,0,0,1,28.8,24a1.84,1.84,0,0,1-.38,1.16,2.84,2.84,0,0,1-1,.78,6.38,6.38,0,0,1-1.24.48l-1.18.3a17.17,17.17,0,0,1-2.66.36,15.13,15.13,0,0,0-2.66.4,11.09,11.09,0,0,0-1.5.48l-1.92.72c-.65.24-1.27.45-1.86.64a4.71,4.71,0,0,1-1.28.28Z"/><path class="cls-1" d="M18,89.48a.54.54,0,0,1,.24-.24c1.23-.72,2.38-1.36,3.46-1.92s2.06-1.12,2.94-1.68A17.12,17.12,0,0,0,27,83.86a8.69,8.69,0,0,0,1.76-2.24,10.8,10.8,0,0,0,1.08-3.06,21.71,21.71,0,0,0,.36-4.28,18.2,18.2,0,0,0-.32-3.36,13.46,13.46,0,0,0-1-3.22A11.1,11.1,0,0,0,27,64.92a9,9,0,0,0-2.72-2A8,8,0,0,0,21.7,62,19.91,19.91,0,0,0,19,61.88l-.34,0-.46,0a1.08,1.08,0,0,0-.42.08.35.35,0,0,0-.22.24,1.39,1.39,0,0,0,.34,1c.28.4.59.86.94,1.38a13.61,13.61,0,0,1,1,1.68,4.31,4.31,0,0,1,.44,1.9,17.7,17.7,0,0,1-.4,3.5A27.61,27.61,0,0,1,18.7,75.7a33.21,33.21,0,0,1-1.88,4.14,19.81,19.81,0,0,1-2.46,3.62,12.38,12.38,0,0,1-3,2.56,6.63,6.63,0,0,1-3.44,1A4.13,4.13,0,0,1,5,85.9a8.76,8.76,0,0,1-2-2.68A14,14,0,0,1,2,79.86a16,16,0,0,1-.36-3.1,14.09,14.09,0,0,1,1.56-6.6A16.62,16.62,0,0,1,7.28,65a19.1,19.1,0,0,1,5.84-3.32,19.52,19.52,0,0,1,6.68-1.18,17.13,17.13,0,0,1,6.1,1.1A15.75,15.75,0,0,1,31,64.7a15,15,0,0,1,3.48,4.72,13.93,13.93,0,0,1,1.3,6.06,12.22,12.22,0,0,1-1.46,6,14.28,14.28,0,0,1-3.82,4.46,17.13,17.13,0,0,1-5.36,2.76,20.14,20.14,0,0,1-6.08.94l-.56,0A.84.84,0,0,1,18,89.48ZM5.32,75.08a13.56,13.56,0,0,0,.14,1.7,9.54,9.54,0,0,0,.48,2,5,5,0,0,0,.94,1.64,2,2,0,0,0,1.52.68,3.52,3.52,0,0,0,2.2-.86,10.41,10.41,0,0,0,2-2.24,23.07,23.07,0,0,0,1.78-3.08,31,31,0,0,0,1.4-3.38,30.76,30.76,0,0,0,.92-3.16,11.08,11.08,0,0,0,.34-2.4q0-.36-.06-1a6,6,0,0,0-.24-1.18,3.23,3.23,0,0,0-.5-1,1,1,0,0,0-.8-.42,6.29,6.29,0,0,0-2.66.6,9.68,9.68,0,0,0-2.42,1.6,15,15,0,0,0-2.06,2.28,16.1,16.1,0,0,0-1.62,2.7,15.49,15.49,0,0,0-1,2.84A10.85,10.85,0,0,0,5.32,75.08Z"/><path class="cls-1" d="M.4,107.36l-.08-.12a2.91,2.91,0,0,1,.76,0H4.14a2.75,2.75,0,0,1,.74,0,.46.46,0,0,1-.22.16.87.87,0,0,1-.26.08H.68ZM11,128.12l.26.26a.49.49,0,0,0,.3.18l16.64-.28q.41,0,.9-.6a10.59,10.59,0,0,0,.94-1.34c.29-.49.57-.94.82-1.34s.45-.6.58-.6a3.24,3.24,0,0,1,.82.56c.47.37,1,.79,1.52,1.26s1,.92,1.5,1.36a5.33,5.33,0,0,1,.76.82c.19.37.08.56-.32.56H11.64c-.27,0-.4.15-.4.44a2.74,2.74,0,0,1-.48,1.68,3.32,3.32,0,0,1-1.2,1,5.06,5.06,0,0,1-1.6.48,12.76,12.76,0,0,1-1.72.12.35.35,0,0,1-.4-.4V96.88c0-.21.09-.32.28-.32A24.8,24.8,0,0,1,9,96.72l2.86.32a1.18,1.18,0,0,1,.32.28,1.56,1.56,0,0,1-.44.38,1.56,1.56,0,0,0-.44.38,5.9,5.9,0,0,0-.16,1.34c0,.81-.09,1.86-.12,3.14s-.05,2.74-.06,4.38,0,3.33,0,5.06,0,3.45,0,5.16,0,3.29,0,4.74,0,2.71,0,3.76v2.18Zm1.08-20.76s.11-.1.32-.14a4,4,0,0,1,.74-.06,7.38,7.38,0,0,1,.82,0,.92.92,0,0,1,.52.16c0,.08-.09.13-.26.14l-.34,0-.4,0-.56,0a2.82,2.82,0,0,1-.52,0A.46.46,0,0,1,12.12,107.36Zm9.76-11a.49.49,0,0,1-.22.28l-.36.24-.34.24a.33.33,0,0,0-.16.28v21c0,.53,0,1.07-.06,1.6a12.55,12.55,0,0,1-.22,1.6q-.07.36-.66.6a6,6,0,0,1-1.3.36,14,14,0,0,1-1.42.16c-.47,0-.81,0-1,0a.35.35,0,0,1-.4-.4V96c0-.27.16-.4.48-.4A15.91,15.91,0,0,1,19,95.8c.91.16,1.81.31,2.72.44ZM22,107.48a.61.61,0,0,1-.22-.06.2.2,0,0,1-.14-.18,1.34,1.34,0,0,1,.5,0h2a1.34,1.34,0,0,1,.5,0l-.08.12-.28.12Zm0,10.68h1.38l.78,0a1.86,1.86,0,0,1,.48.06l.08.12a1.48,1.48,0,0,1-.48.06l-.9,0-1,0-.62,0-.08-.08,0,0ZM32,96.92l-.12.24-.58.38a.7.7,0,0,0-.38.54v8a.24.24,0,0,0,.28.28c.21,0,.43-.15.64-.46a11.84,11.84,0,0,0,.64-1c.21-.39.42-.73.62-1s.39-.46.58-.46.27.13.56.38.62.55,1,.88l1,1,.64.62.18.18c.09.09.19.19.28.3a3.71,3.71,0,0,0,.26.28c.08.08.12.13.12.16a.34.34,0,0,1-.2.24.76.76,0,0,1-.32.08h-6a.35.35,0,0,0-.4.4v12.68c0,.21-.21.39-.64.54a8.68,8.68,0,0,1-1.48.36c-.56.09-1.1.16-1.62.2s-.87.06-1.06.06a.35.35,0,0,1-.4-.4V96.68a.35.35,0,0,1,.4-.4,36.62,36.62,0,0,1,5.88.48Z"/><path class="cls-1" d="M15.72,158.56a24.2,24.2,0,0,1-.46,3.9,14.28,14.28,0,0,1-1.18,3.48,11.83,11.83,0,0,1-2.08,3,11.47,11.47,0,0,1-3.2,2.3,9.65,9.65,0,0,1-2.26.76,11.18,11.18,0,0,1-2.38.28H3.78c-.17,0-.26-.07-.26-.2a.36.36,0,0,1,.16-.26,3.11,3.11,0,0,0,.24-.22c1-.75,1.83-1.4,2.52-2A21.07,21.07,0,0,0,8.2,168a6.38,6.38,0,0,0,1.12-1.52,7.3,7.3,0,0,0,.62-1.78,13.64,13.64,0,0,0,.28-2.34c0-.89.06-2,.06-3.26a.35.35,0,0,0-.4-.4,4.73,4.73,0,0,0-1.8.38c-.61.25-1.24.53-1.88.82s-1.29.57-2,.82a5.67,5.67,0,0,1-2,.38H2a.42.42,0,0,1-.22-.08l1.56-.9c.67-.39,1.38-.83,2.14-1.32s1.53-1,2.3-1.6,1.47-1.15,2.1-1.72a10.71,10.71,0,0,0,1.54-1.7,2.71,2.71,0,0,0,.6-1.52.26.26,0,0,0-.2-.26,1.23,1.23,0,0,0-.36-.06,3.3,3.3,0,0,0-1.38.3,14,14,0,0,0-1.28.66,14,14,0,0,1-1.28.66,3.3,3.3,0,0,1-1.38.3l-.52,0c-.19,0-.28-.14-.28-.38,0-2.91-.05-5.79-.14-8.66S5,139.07,5,136.16a.73.73,0,0,1,.06-.3.26.26,0,0,1,.26-.14,2.61,2.61,0,0,1,.86.34c.44.23,1,.47,1.52.74s1.17.51,1.78.74a4.78,4.78,0,0,0,1.68.34H26.64a1,1,0,0,0,.8-.36,7,7,0,0,0,.62-.82l.58-.9a1.48,1.48,0,0,1,.72-.6,4.86,4.86,0,0,1,1,.6c.49.35,1,.73,1.52,1.14s1,.81,1.4,1.18.62.61.62.72-.07.16-.2.24-.27.17-.42.28-.29.21-.42.32a.48.48,0,0,0-.2.36v12.24c0,.21-.21.39-.62.52a9.37,9.37,0,0,1-1.4.32c-.52.08-1,.14-1.52.18l-1,.06a.35.35,0,0,1-.34-.24c-.07-.16-.13-.34-.2-.54a2.61,2.61,0,0,0-.26-.56.54.54,0,0,0-.48-.26l-.8,0-1,0c-.35,0-.67,0-1,0a1.81,1.81,0,0,1-.74-.2c.05-.13.3-.19.74-.18l1.4,0a11.78,11.78,0,0,0,1.36,0c.41,0,.62-.18.62-.42V138.8a.35.35,0,0,0-.4-.4H21.72a.35.35,0,0,0-.4.4V151a1.38,1.38,0,0,1,.08.2.56.56,0,0,0,.12.2.69.69,0,0,1-.4.28,3.44,3.44,0,0,1-.72.18,7.37,7.37,0,0,1-.78.08l-.54,0-.28.12q-1,1-2,2A11.48,11.48,0,0,1,14.68,156l-.38.26a.49.49,0,0,0-.18.42c0,.24.17.39.52.44l1,.14a1.11,1.11,0,0,1,.68.26c.12.13-.05.39-.5.76Zm-5.6-7.76a.35.35,0,0,0,.4.4h5.32a.35.35,0,0,0,.4-.4v-12a.35.35,0,0,0-.4-.4H10.52a.35.35,0,0,0-.4.4Zm5.16-6-.9,0-1.38,0-1.3,0a3.18,3.18,0,0,1-.7-.06l.08-.12a3.09,3.09,0,0,1,.68-.06l1.2,0H15l.28.12,0,0Zm7-.24h4l.28.12,0,0-.08.08H22.24l-.12-.12Zm.8,8.24a1.37,1.37,0,0,1,.52.18l.78.4.82.44a5.39,5.39,0,0,0,.6.3,22.7,22.7,0,0,0,5.34,1.94q2.74.62,5.58,1l.12.12-.12.24a6.61,6.61,0,0,0-1.56,1.5,10.13,10.13,0,0,0-1,1.9l-.26.78c-.12.36-.29.54-.5.54a3.34,3.34,0,0,1-1.66-.5A14.64,14.64,0,0,1,30,160.52l-1.52-1.18a3.72,3.72,0,0,0-1.14-.66l-.2.08-.08.08-.12.28v12.36c0,.24-.2.43-.6.58a7.66,7.66,0,0,1-1.36.36,13.25,13.25,0,0,1-1.48.18c-.48,0-.81,0-1,0a.32.32,0,0,1-.36-.36v-15.2a.81.81,0,0,1,.06-.24c0-.11.1-.16.18-.16a3.9,3.9,0,0,1,.54.06,6.43,6.43,0,0,0,.78.08,2.32,2.32,0,0,0,.68-.06.37.37,0,0,0,.28-.4,1.36,1.36,0,0,0-.26-.68c-.17-.27-.37-.55-.58-.84s-.41-.6-.6-.92a2.27,2.27,0,0,1-.32-1Z"/><path class="cls-1" d="M11.32,194.68l.12.12a5,5,0,0,1-.16,1.24,12.57,12.57,0,0,1-.4,1.28c-.16.43-.33.85-.5,1.28s-.31.83-.42,1.2a17.1,17.1,0,0,0-.68,4.72,9,9,0,0,0,.26,1.9,12.56,12.56,0,0,1,.3,2.22,3.65,3.65,0,0,1-.36,1.86c-.27.52-.85.78-1.76.78a3.31,3.31,0,0,1-2-.62A5.15,5.15,0,0,1,4.3,209a10.32,10.32,0,0,1-1-2.26,22.81,22.81,0,0,1-.6-2.54,22.26,22.26,0,0,1-.3-2.46c0-.79-.08-1.46-.08-2a22.42,22.42,0,0,1,.38-4.1c.25-1.35.53-2.69.84-4s.59-2.69.84-4a22.42,22.42,0,0,0,.38-4.1,4.14,4.14,0,0,0-.22-1.34q-.23-.66-.48-1.26t-.48-1.2a3.3,3.3,0,0,1-.22-1.16c0-.27.12-.4.36-.4a4.49,4.49,0,0,1,2.22.64A8.84,8.84,0,0,1,8,180.36a8.87,8.87,0,0,1,1.5,2.12,5,5,0,0,1,.58,2.24,7.61,7.61,0,0,1-.76,3.18c-.51,1.11-1.06,2.26-1.66,3.46a38.76,38.76,0,0,0-1.64,3.76,11.42,11.42,0,0,0-.74,4c0,.16,0,.4,0,.72a6.56,6.56,0,0,0,.14.92,2.46,2.46,0,0,0,.32.78.66.66,0,0,0,.58.34c.4,0,.83-.31,1.28-.94A20.81,20.81,0,0,0,9,198.82q.66-1.22,1.2-2.4a9.7,9.7,0,0,1,.9-1.66Zm13.23-8.12c0-.88,0-1.67,0-2.38a5.32,5.32,0,0,0-.24-1.86A2.87,2.87,0,0,0,23.3,181a6.52,6.52,0,0,0-2.36-.92l-.12-.16a.24.24,0,0,0,0-.08.12.12,0,0,1,0-.08c0-.32.18-.6.62-.84A6.51,6.51,0,0,1,23,178.3a9.14,9.14,0,0,1,2.15-.2,7.62,7.62,0,0,1,2.14.32,4.14,4.14,0,0,1,1.65.92,2.17,2.17,0,0,1,.66,1.66,5.5,5.5,0,0,1-.4,2.08,5.5,5.5,0,0,0-.4,2.08c0,.24.13.36.4.36a2.58,2.58,0,0,0,.92-.16L31,185l.88-.34a2.58,2.58,0,0,1,.92-.16,3.81,3.81,0,0,1,.92.12,2.68,2.68,0,0,1,.86.38,2.43,2.43,0,0,1,.64.64,1.56,1.56,0,0,1,.26.9,1.88,1.88,0,0,1-.42,1.28,2.71,2.71,0,0,1-1.08.74,7.43,7.43,0,0,1-1.5.4l-1.64.28a10,10,0,0,0-1.48.36,2.54,2.54,0,0,0-1.08.66,8.09,8.09,0,0,0-.08,1.08v1.08c0,.56,0,1.16,0,1.8s0,1.29,0,1.94a14.6,14.6,0,0,0,.16,1.9,7.14,7.14,0,0,0,.46,1.68,1.54,1.54,0,0,0,.8.66c.43.2.94.42,1.54.66s1.23.51,1.9.8A8.25,8.25,0,0,1,34.86,203a5.88,5.88,0,0,1,1.38,1.52,3.83,3.83,0,0,1,.56,2.08,2.12,2.12,0,0,1-.48,1.44,1.76,1.76,0,0,1-1.4.56,2.3,2.3,0,0,1-1.5-.54,10.77,10.77,0,0,1-1.24-1.2A15.42,15.42,0,0,0,31,205.6a2.07,2.07,0,0,0-1.42-.56c-.08,0-.22.19-.42.56s-.41.79-.64,1.26-.46.92-.7,1.36a3.15,3.15,0,0,1-.6.86,5.5,5.5,0,0,1-1.16.64,8.05,8.05,0,0,1-1.44.44,13.72,13.72,0,0,1-1.5.24c-.49,0-.94.08-1.34.08a11.49,11.49,0,0,1-2.54-.28,7.18,7.18,0,0,1-2.28-.92,5.26,5.26,0,0,1-1.66-1.66,4.67,4.67,0,0,1-.64-2.54,4.51,4.51,0,0,1,.76-2.68,5.8,5.8,0,0,1,1.94-1.74,9.18,9.18,0,0,1,2.6-1,18.37,18.37,0,0,1,2.74-.38h.48a4.21,4.21,0,0,0,.62,0,1.59,1.59,0,0,0,.52-.16.38.38,0,0,0,.22-.36V191.2a.35.35,0,0,0-.4-.4H18.64a2.12,2.12,0,0,1-1.16-.5,10.18,10.18,0,0,1-1.32-1.18,7.84,7.84,0,0,1-1.08-1.42,2.59,2.59,0,0,1-.44-1.22.32.32,0,0,1,.36-.36,1.64,1.64,0,0,1,.68.16c.24.11.5.23.76.38a6.86,6.86,0,0,0,.83.38,2.3,2.3,0,0,0,.86.16h5.61a.64.64,0,0,0,.38-.16,3.25,3.25,0,0,0,.35-.28ZM16.2,204.68a1.64,1.64,0,0,0,.36,1.1,2.36,2.36,0,0,0,.88.64,3.81,3.81,0,0,0,1.14.28q.62.06,1.14.06a13.75,13.75,0,0,0,2-.14,4.56,4.56,0,0,0,1.62-.54,2.8,2.8,0,0,0,1.1-1.16,4.38,4.38,0,0,0,.4-2,.57.57,0,0,0-.32-.48,2.4,2.4,0,0,0-.76-.18c-.35,0-.72-.07-1.12-.08l-1.14,0h-.86c-.43,0-.89,0-1.4.08a4.91,4.91,0,0,0-1.44.36,3.3,3.3,0,0,0-1.14.78A1.88,1.88,0,0,0,16.2,204.68Z"/><path class="cls-1" d="M11.8,238.25a2.27,2.27,0,0,1,.8-.8,5.48,5.48,0,0,1,1.12-.53,6.38,6.38,0,0,1,1.24-.28,10.13,10.13,0,0,1,1.16-.08,4.83,4.83,0,0,1,2.46.62A3.26,3.26,0,0,1,20,239.24a6,6,0,0,1,.1.6c0,.29.09.59.16.9s.14.58.22.82.17.36.28.36a1.74,1.74,0,0,0,.82-.34c.36-.23.78-.48,1.26-.76a13,13,0,0,1,1.54-.76,4.34,4.34,0,0,1,1.7-.34,7.77,7.77,0,0,1,.8,0,2.54,2.54,0,0,1,.8.2,1.61,1.61,0,0,1,.6.46,1.21,1.21,0,0,1,.24.78,2.14,2.14,0,0,1-.5,1.4,4.46,4.46,0,0,1-1.24,1,8.51,8.51,0,0,1-1.62.7l-1.62.54a11.71,11.71,0,0,0-1.24.5c-.33.16-.5.33-.5.52a3.75,3.75,0,0,0,.14.82,6.63,6.63,0,0,0,.38,1.08,4.93,4.93,0,0,0,.54.94.83.83,0,0,0,.66.4,3.83,3.83,0,0,0,1.6-.34c.51-.23,1-.48,1.52-.76s1-.54,1.52-.78a3.78,3.78,0,0,1,1.64-.36,7.47,7.47,0,0,1,.92.06,2.55,2.55,0,0,1,.86.26,1.8,1.8,0,0,1,.64.56,1.56,1.56,0,0,1,.26.92A1.85,1.85,0,0,1,32,250a5.16,5.16,0,0,1-1.28,1,13.07,13.07,0,0,1-1.68.76q-.91.34-1.68.6c-.51.17-.93.33-1.28.48s-.52.29-.52.42.11.25.34.52l.86,1L27.9,256l1.18,1.3c.37.41.7.79,1,1.14s.47.6.58.76a2.29,2.29,0,0,1,.28.6,2.64,2.64,0,0,1,.08.68,4.84,4.84,0,0,1-.16,1.2,3.77,3.77,0,0,1-.5,1.16,3.13,3.13,0,0,1-.84.86,1.94,1.94,0,0,1-1.14.34,5.53,5.53,0,0,1-2.5-.66c-.87-.44-1.79-.93-2.76-1.48a26.08,26.08,0,0,0-3.1-1.48,9.21,9.21,0,0,0-3.48-.66,12.25,12.25,0,0,0-2,.18,7.21,7.21,0,0,0-2,.64A4.66,4.66,0,0,0,11,261.81a3,3,0,0,0-.62,1.93,2.59,2.59,0,0,0,.68,1.87,4.37,4.37,0,0,0,1.66,1.07,8.71,8.71,0,0,0,2.1.48,18.74,18.74,0,0,0,2,.12,31.66,31.66,0,0,0,3.24-.16,31.66,31.66,0,0,1,3.24-.16c.35,0,.74,0,1.18,0a4.4,4.4,0,0,1,1.2.24,2.32,2.32,0,0,1,.92.61,1.64,1.64,0,0,1,.38,1.13,1.79,1.79,0,0,1-.86,1.59,6.35,6.35,0,0,1-2,.83,11.66,11.66,0,0,1-2.36.32c-.8,0-1.44,0-1.92,0-.75,0-1.57,0-2.48-.06a22,22,0,0,1-2.76-.3,20.36,20.36,0,0,1-2.72-.66,8.51,8.51,0,0,1-2.36-1.16,5.7,5.7,0,0,1-1.66-1.8,5.08,5.08,0,0,1-.62-2.58,5,5,0,0,1,1.12-3.36A8.05,8.05,0,0,1,11,259.76a13.15,13.15,0,0,1,3.56-1.06,22.91,22.91,0,0,1,3.52-.3,18.7,18.7,0,0,1,3.28.28,18.7,18.7,0,0,0,3.28.28.31.31,0,0,0,.36-.28,3.08,3.08,0,0,0,0-.48,3,3,0,0,0-.36-.76c-.24-.43-.51-.88-.8-1.36s-.58-.91-.86-1.3a3.55,3.55,0,0,0-.54-.66,3,3,0,0,0-.88-.06,13.76,13.76,0,0,0-1.48.12l-1.54.2-1,.14c-1.09.16-2.17.27-3.24.34s-2.16.1-3.28.1a6.2,6.2,0,0,1-1.5-.2,4.86,4.86,0,0,1-1.42-.6,3.39,3.39,0,0,1-1.06-1,2.64,2.64,0,0,1-.42-1.48,4.1,4.1,0,0,1,.12-.82,5.3,5.3,0,0,1,.36-1.06,3.94,3.94,0,0,1,.56-.9.91.91,0,0,1,.68-.38c.13,0,.21.06.22.18s0,.22,0,.3a2.5,2.5,0,0,0,.28,1.28,1.93,1.93,0,0,0,.76.74,3.65,3.65,0,0,0,1.1.36,7.48,7.48,0,0,0,1.26.1c.32,0,.87,0,1.64-.1l2.46-.24q1.3-.14,2.4-.3a5.78,5.78,0,0,0,1.42-.32.38.38,0,0,0,.28-.36v-.52A2.11,2.11,0,0,0,20,249c-.15-.32-.32-.66-.52-1l-.56-1a1.86,1.86,0,0,0-.38-.52,1.89,1.89,0,0,0-.86-.1c-.44,0-.93,0-1.46.08l-1.56.14c-.51.05-.87.08-1.08.08h-4a2.68,2.68,0,0,1-1.28-.4,7.47,7.47,0,0,1-1.4-1A7,7,0,0,1,5.78,244a2.22,2.22,0,0,1-.46-1.23c0-.27.12-.4.36-.4a5.47,5.47,0,0,1,2,.38,11.69,11.69,0,0,0,1.92.58,15.1,15.1,0,0,0,1.58.16c.79,0,1.59.07,2.42,0a10.27,10.27,0,0,0,2.22-.3c.65-.17,1-.45,1-.82a3.33,3.33,0,0,0-.28-1.49,2.48,2.48,0,0,0-.72-.89,3.31,3.31,0,0,0-1-.48c-.37-.11-.74-.2-1.1-.28s-.71-.18-1.06-.28a1.93,1.93,0,0,1-.84-.49Z"/><path class="cls-1" d="M19.08,301.48l.6-.2.86-.24.9-.22.68-.18a22.51,22.51,0,0,0,3.24-1.26,13.49,13.49,0,0,0,3-1.9,9.54,9.54,0,0,0,2.16-2.62,6.88,6.88,0,0,0,.84-3.42,7.53,7.53,0,0,0-.3-2.14,5.11,5.11,0,0,0-.92-1.78,4.57,4.57,0,0,0-3.66-1.68,5.86,5.86,0,0,0-2.6.58,12,12,0,0,0-2.3,1.46c-.73.59-1.44,1.21-2.12,1.88s-1.35,1.29-2,1.88a11.69,11.69,0,0,1-2,1.46,4,4,0,0,1-2,.58,3.34,3.34,0,0,1-1.68-.44,4.74,4.74,0,0,1-1.32-1.12,5,5,0,0,1-.86-1.54,5.12,5.12,0,0,1-.3-1.7c0-.21.09-.32.28-.32a2.2,2.2,0,0,1,.66.12l.74.26a1.75,1.75,0,0,0,.52.14,9.34,9.34,0,0,0,3.66-.76c1.21-.51,2.44-1.06,3.68-1.66s2.52-1.15,3.84-1.66a11.48,11.48,0,0,1,4.18-.76,10.65,10.65,0,0,1,3.36.54,9.26,9.26,0,0,1,2.9,1.54,7.53,7.53,0,0,1,2,2.48,7.12,7.12,0,0,1,.76,3.32,7.83,7.83,0,0,1-1.5,4.94,10.84,10.84,0,0,1-3.8,3.08,17.4,17.4,0,0,1-5,1.58,32.16,32.16,0,0,1-5.1.44H19.8a8,8,0,0,1-.88,0c-.27,0-.42-.09-.46-.18S18.63,301.69,19.08,301.48Z"/><path class="cls-1" d="M14.2,333a.55.55,0,0,0,0-.6c-.32-.48-.63-.93-.94-1.36a6.62,6.62,0,0,1-.78-1.44,15.29,15.29,0,0,1-.74-2.46q-.3-1.38-.66-2.76a19.18,19.18,0,0,0-.88-2.62,6.05,6.05,0,0,0-1.4-2.08,2.81,2.81,0,0,0-.38-.28c-.2-.13-.41-.28-.62-.44l-.88-.6q-.08-.29.36-.48a4.91,4.91,0,0,1,1-.32,9.46,9.46,0,0,1,1.14-.16c.37,0,.63,0,.76,0a7.36,7.36,0,0,1,2.44.44,4.71,4.71,0,0,1,2,1.36,5.21,5.21,0,0,1,.5.66,2,2,0,0,1,.3.78,1.5,1.5,0,0,1,0,.6,4.22,4.22,0,0,0,0,.6c0,.75,0,1.48,0,2.2a20.33,20.33,0,0,0,0,2.2,7.62,7.62,0,0,0,.22,1.08,7.78,7.78,0,0,0,.5,1.34,5,5,0,0,0,.74,1.14,1.2,1.2,0,0,0,.9.48,3.81,3.81,0,0,0,1-.48c.56-.32,1.17-.68,1.82-1.08l1.86-1.16a13.21,13.21,0,0,0,1.12-.76,7.43,7.43,0,0,0,.62-.52,1,1,0,0,0,.3-.72,1.63,1.63,0,0,0-.2-.6l-.38-.78a2.42,2.42,0,0,1-.22-.66c0-.19.07-.28.28-.28a8.09,8.09,0,0,1,2.08.3,7.85,7.85,0,0,1,2.08.88,5.91,5.91,0,0,1,1.62,1.44,3.15,3.15,0,0,1,.66,2c0,.48-.5,1-1.5,1.48s-2.25,1.06-3.76,1.66-3.14,1.26-4.9,2a34.49,34.49,0,0,0-4.9,2.46,15.84,15.84,0,0,0-3.76,3.1,5.71,5.71,0,0,0-1.5,3.84,2.57,2.57,0,0,0,.74,1.92,4.73,4.73,0,0,0,1.78,1.08,9.72,9.72,0,0,0,2.22.48c.79.08,1.47.12,2.06.12a19.58,19.58,0,0,0,2.54-.16c.84-.11,1.68-.23,2.52-.38s1.69-.27,2.54-.38a20,20,0,0,1,2.56-.16c.45,0,.92,0,1.4.06a4.55,4.55,0,0,1,1.32.3,2.45,2.45,0,0,1,1,.74,2.12,2.12,0,0,1,.4,1.38,2.31,2.31,0,0,1-1,2,6.78,6.78,0,0,1-2.34,1,13.61,13.61,0,0,1-2.78.4c-1,0-1.71.06-2.3.06l-2.92,0c-1.09,0-2.21-.07-3.34-.18A22,22,0,0,1,13.2,350a10.66,10.66,0,0,1-2.92-1.2,6.22,6.22,0,0,1-2.06-2,5.68,5.68,0,0,1-.78-3.08,7.53,7.53,0,0,1,.66-3.06,15,15,0,0,1,1.66-2.86,24.38,24.38,0,0,1,2.18-2.58C12.73,334.37,13.48,333.63,14.2,333Z"/><path class="cls-1" d="M11.76,379c-.13,0-.23.16-.28.4s-.1.51-.14.82-.07.61-.08.9,0,.49,0,.6c-.05.93-.09,1.85-.1,2.74s-.05,1.81-.1,2.74c-.08,1.44-.12,2.89-.12,4.36,0,.21-.17.39-.52.54a5.46,5.46,0,0,1-1.18.34,11.82,11.82,0,0,1-1.3.16c-.43,0-.72,0-.88,0a.35.35,0,0,1-.4-.4V381.56a.25.25,0,0,0-.16-.24,1.68,1.68,0,0,0-.72.66,15.12,15.12,0,0,0-.94,1.44c-.33.57-.68,1.19-1,1.84s-.72,1.26-1.08,1.82a11.32,11.32,0,0,1-1,1.4,1.34,1.34,0,0,1-.9.56.64.64,0,0,1-.38-.14c-.12-.09-.11-.21,0-.34.4-1.44.75-2.9,1-4.38a23.35,23.35,0,0,0,.44-4.5c0-.13,0-.34,0-.62s.1-.42.34-.42a2.15,2.15,0,0,1,.7.18l1,.38c.36.13.73.26,1.12.38a3.71,3.71,0,0,0,1.1.18,1.37,1.37,0,0,0,.34,0,.22.22,0,0,0,.18-.24V376a.35.35,0,0,0-.4-.4,4.21,4.21,0,0,0-1.48.28c-.51.19-1,.39-1.42.6a12.24,12.24,0,0,0-1.12.6,3.05,3.05,0,0,1-.5.28.32.32,0,0,1-.32-.28,4.26,4.26,0,0,1-.3-.82C1,376,1,375.69.88,375.4a9.86,9.86,0,0,0-.38-1.08q-.23-.52-.42-1.08l0-.08c0-.24.13-.36.4-.36H4.8A1.5,1.5,0,0,0,6,372,12,12,0,0,0,7,369.9c.35-.84.69-1.76,1-2.76l1-2.88c.32-.92.65-1.74,1-2.46a3.5,3.5,0,0,1,1-1.44l.28,0a18.46,18.46,0,0,0,2.5.88,11,11,0,0,1,2.46,1,.64.64,0,0,0,.16.1c.08,0,.12.09.12.14a.36.36,0,0,1-.26.34,1.25,1.25,0,0,0-.42.26L6.4,372.56v.2H9.5c.65,0,1.25,0,1.8,0a4.65,4.65,0,0,0,1-.12q.6-.28.48-.78a3.55,3.55,0,0,0-.4-1A5.44,5.44,0,0,1,12,370q-.13-.36.42-.36a5,5,0,0,1,1.68.32,5.79,5.79,0,0,1,1.6.88,5.28,5.28,0,0,1,1.2,1.3,2.9,2.9,0,0,1,.48,1.62,2.34,2.34,0,0,1-.6,1.6,2,2,0,0,1-1.56.68,1.5,1.5,0,0,1-1.22-.42,3,3,0,0,1-.52-.94,9.64,9.64,0,0,0-.38-.94.83.83,0,0,0-.84-.42c-.53,0-.85.21-.94.62a5.71,5.71,0,0,0-.14,1.22,4.64,4.64,0,0,0,.46,2.24,4.58,4.58,0,0,0,1.14,1.38,8.1,8.1,0,0,0,1.5.94,9.93,9.93,0,0,1,1.5.9,4.51,4.51,0,0,1,1.14,1.24,3.78,3.78,0,0,1,.46,2,3.51,3.51,0,0,1-.44,1.86,1.87,1.87,0,0,1-1.72.7,3.64,3.64,0,0,1-1-.14,1.41,1.41,0,0,1-.78-.62,3.13,3.13,0,0,1-.26-1.28c0-.64-.09-1.33-.14-2.06a10.94,10.94,0,0,0-.34-2.06A1.85,1.85,0,0,0,11.76,379Zm.08-21.44a.3.3,0,0,1-.12.16.83.83,0,0,0-.16.12,11.09,11.09,0,0,0-1.32.94,11.58,11.58,0,0,0-1.14,1.08L8,361c-.35.39-.72.77-1.12,1.14a4.45,4.45,0,0,1-.42.34l-.64.48a5.12,5.12,0,0,0-.58.5q-.24.24-.24.36a1.29,1.29,0,0,0,.22.62l.48.82c.17.29.33.58.48.86a1.66,1.66,0,0,1,.22.78,1.94,1.94,0,0,1-.52,1.42,1.85,1.85,0,0,1-1.4.54,2.23,2.23,0,0,1-1.64-.67,5.26,5.26,0,0,1-.7-1.06,14.92,14.92,0,0,1-.64-1.39c-.2-.49-.38-1-.54-1.45s-.31-.89-.44-1.23a.4.4,0,0,1,0-.2,2.66,2.66,0,0,1,0-.3c0-.09.1-.14.26-.14a2.89,2.89,0,0,1,1.48.42,3,3,0,0,0,1.56.42c.24,0,.45-.16.62-.48a5.26,5.26,0,0,0,.44-1.23c.12-.49.23-1,.32-1.63s.17-1.16.24-1.73.13-1.06.18-1.5a6.89,6.89,0,0,1,.16-.95.32.32,0,0,1,.32-.28,5.89,5.89,0,0,1,1.12.26c.59.17,1.21.38,1.86.62s1.25.47,1.8.7A3,3,0,0,1,11.84,357.56Zm14.68,10.52c.08-.19.27-.57.58-1.14s.62-1.17.94-1.8.61-1.19.88-1.7a5.13,5.13,0,0,0,.4-.84c0-.45-.09-.69-.28-.7l-.8,0-.78,0-1.12.06-1.08.1a6.05,6.05,0,0,0-.66.1,2.09,2.09,0,0,0-.76.64l-.68.8c-.61.64-1.24,1.27-1.88,1.9a14.83,14.83,0,0,1-2.08,1.7l-.62.44a12.4,12.4,0,0,1-1,.68,4.91,4.91,0,0,1-.92.44c-.25.08-.34,0-.26-.24a14.82,14.82,0,0,1,1.6-3.46c.69-1.11,1.35-2.21,2-3.3a23.67,23.67,0,0,0,1.76-4q.16-.48.3-1a5.91,5.91,0,0,1,.34-1,.4.4,0,0,1,.4-.28,4.09,4.09,0,0,1,1,.28c.53.19,1.08.41,1.64.66s1.07.51,1.52.76.68.43.68.54-.12.2-.36.44-.5.51-.78.82a11.69,11.69,0,0,0-.78,1,1.58,1.58,0,0,0-.36.9c0,.11,0,.21,0,.32s.1.16.26.16h3.2c.13,0,.33-.13.6-.38s.54-.53.82-.82l.8-.84c.25-.27.42-.4.5-.4a1.91,1.91,0,0,1,1.06.4,11.49,11.49,0,0,1,1.4,1,9.7,9.7,0,0,1,1.2,1.2c.33.4.49.69.46.88a.62.62,0,0,1-.24.26c-.13.09-.28.19-.44.28l-.48.28-.36.22a4.61,4.61,0,0,0-.66.78c-.23.33-.46.69-.7,1.08s-.47.77-.68,1.14a7.37,7.37,0,0,1-.6.92L31,368c-.24.31-.49.63-.76,1s-.51.64-.72.92a1.9,1.9,0,0,0-.32.5c0,.19.17.39.52.62a8.15,8.15,0,0,0,1.36.68c.56.23,1.17.45,1.82.68l1.9.66,1.64.56a8,8,0,0,1,1,.4.24.24,0,0,0,0,.08.24.24,0,0,1,0,.08,4.06,4.06,0,0,1-.5.76c-.33.45-.71.94-1.14,1.46s-.83,1-1.2,1.4a3,3,0,0,1-.64.62,3.25,3.25,0,0,1-1.46-.7c-.68-.47-1.39-1-2.14-1.64s-1.44-1.24-2.08-1.84-1.08-1-1.32-1.3a1.2,1.2,0,0,0-.52-.16,3.24,3.24,0,0,0-1,.32c-.48.21-1,.49-1.72.84L21.7,375l-2.22,1.18q-1.08.58-2,1a13.76,13.76,0,0,1-1.38.6l-.12-.12.12-.2c.61-.37,1.35-.85,2.22-1.42s1.73-1.2,2.6-1.88a22,22,0,0,0,2.34-2.1A6.75,6.75,0,0,0,24.72,370a.24.24,0,0,1,0-.08.24.24,0,0,0,0-.08,3.53,3.53,0,0,0-.24-.64c-.16-.37-.33-.8-.52-1.28s-.37-1-.54-1.48a5.76,5.76,0,0,1-.3-1.32.16.16,0,0,1,.16-.12c.13,0,.33.17.58.5s.52.71.8,1.12.55.79.8,1.12.45.5.58.5A.62.62,0,0,0,26.52,368.08Zm-6.88,17a9.76,9.76,0,0,1,1.88-.22l1.92,0c.56,0,1.21,0,2,.08s1.52.15,2.32.28a15.39,15.39,0,0,1,2.34.58,9.08,9.08,0,0,1,2.06,1,4.91,4.91,0,0,1,1.48,1.42,3.56,3.56,0,0,1,.56,2,2.52,2.52,0,0,1-.62,1.76,2.24,2.24,0,0,1-1.74.68,3,3,0,0,1-.88-.42l-1.78-1.06c-.71-.43-1.47-.9-2.28-1.42s-1.6-1-2.36-1.48l-2-1.24c-.59-.36-1-.61-1.24-.74s-.6-.29-.92-.46a3.37,3.37,0,0,1-.8-.58Zm8.76-2.32-.4,0a.92.92,0,0,1-.4-.14,2.15,2.15,0,0,1-.5-.4,4.73,4.73,0,0,0-.46-.44l-.92-.74c-.45-.36-.92-.75-1.4-1.18s-.91-.82-1.28-1.18-.56-.61-.56-.74.11-.23.34-.3a5.09,5.09,0,0,1,.78-.16c.29,0,.57-.07.84-.08l.56,0a7.86,7.86,0,0,1,4.12.84A3.2,3.2,0,0,1,30.68,380a2.08,2.08,0,0,1-.44,1.86A2.24,2.24,0,0,1,28.4,382.72Z"/><path class="cls-1" d="M8.32,397.36c0-.27.25-.47.66-.62a4.56,4.56,0,0,1,1.54-.22,9.59,9.59,0,0,1,2,.22,8.86,8.86,0,0,1,2,.66A4.43,4.43,0,0,1,16,398.56a2.54,2.54,0,0,1,.6,1.68,2.58,2.58,0,0,1-.16.92,8.35,8.35,0,0,1-.38.88c-.15.29-.28.59-.4.88a3.17,3.17,0,0,0-.22.92l.12.28.86.86c.28.28.55.57.82.86a.64.64,0,0,1,0,.78,6.07,6.07,0,0,1-.62.94c-.25.32-.51.63-.76.92a1.27,1.27,0,0,0-.38.68c0,.27.12.4.36.4a9,9,0,0,0,2.46-.34c.81-.23,1.63-.47,2.46-.74s1.66-.51,2.5-.74a9.86,9.86,0,0,1,2.62-.34h1a7.28,7.28,0,0,1,1,.08,6.57,6.57,0,0,1,1.72.48,14.66,14.66,0,0,1,1.64.76A9.75,9.75,0,0,1,35,412.2a9.36,9.36,0,0,1,1.26,4.88,10,10,0,0,1-.7,3.76A12.08,12.08,0,0,1,33.7,424a14.76,14.76,0,0,1-2.76,2.58,18,18,0,0,1-3.36,1.92,19.79,19.79,0,0,1-3.68,1.2,17.14,17.14,0,0,1-3.7.42.24.24,0,0,1-.16-.08,2.6,2.6,0,0,1,.9-.7c.55-.33,1.23-.77,2-1.3a31.13,31.13,0,0,0,2.6-1.92,17,17,0,0,0,2.58-2.64,14,14,0,0,0,2-3.44,11.39,11.39,0,0,0,.78-4.32,9.17,9.17,0,0,0-.42-2.8,6.9,6.9,0,0,0-1.24-2.32,5.62,5.62,0,0,0-2-1.56,6.73,6.73,0,0,0-2.82-.56,12.49,12.49,0,0,0-2.26.22,19.26,19.26,0,0,0-2.46.62,20,20,0,0,0-2.38.94,12.93,12.93,0,0,0-2,1.14,5.89,5.89,0,0,0-1,.94,2.88,2.88,0,0,0-.68,1.22,4.17,4.17,0,0,0-.12,1.32c0,.45,0,.89,0,1.32a37.24,37.24,0,0,0,.3,4.74,37.24,37.24,0,0,1,.3,4.74c0,.51,0,1.09-.08,1.76a7.81,7.81,0,0,1-.38,1.9,4,4,0,0,1-.88,1.52,2.13,2.13,0,0,1-1.62.62,1.83,1.83,0,0,1-1.4-.56,3.93,3.93,0,0,1-.82-1.4,10.77,10.77,0,0,1-.46-1.8q-.17-1-.36-1.8a6.15,6.15,0,0,0-.48-1.4A.91.91,0,0,0,6.8,424a1.11,1.11,0,0,0-.92.46,12.09,12.09,0,0,0-.7,1,6.55,6.55,0,0,1-.78,1,1.41,1.41,0,0,1-1.08.46,1.35,1.35,0,0,1-.86-.24,1.38,1.38,0,0,1-.44-.6,2.53,2.53,0,0,1-.16-.8c0-.29,0-.57,0-.84v-.62a4.4,4.4,0,0,1,0-.62,3.42,3.42,0,0,1,.78-1.46c.47-.6,1-1.27,1.7-2s1.39-1.51,2.16-2.32,1.49-1.61,2.14-2.4a19.4,19.4,0,0,0,1.64-2.28,3.89,3.89,0,0,0,.66-1.94,1.12,1.12,0,0,0-.1-.52.47.47,0,0,0-.46-.2,1.76,1.76,0,0,0-1.12.38,8,8,0,0,0-.92.84,8.79,8.79,0,0,1-.9.84,1.64,1.64,0,0,1-1.06.38,3.28,3.28,0,0,1-1.76-.5,5.3,5.3,0,0,1-1.4-1.28,6.58,6.58,0,0,1-.94-1.7,5.07,5.07,0,0,1-.34-1.8c0-.24.13-.35.38-.32a3.75,3.75,0,0,1,.86.22l1,.38a2.19,2.19,0,0,0,.72.2,13.83,13.83,0,0,0,3.42-.34,4,4,0,0,0,2-1.14,4.23,4.23,0,0,0,1-2.16,20.09,20.09,0,0,0,.24-3.4,2.63,2.63,0,0,0-.3-1.46,1.83,1.83,0,0,0-.74-.62,10.08,10.08,0,0,0-1-.38,2.74,2.74,0,0,1-1.08-.7Zm1.12,26.92a1,1,0,0,0,.66-.66,4.06,4.06,0,0,0,.28-1.2,11.64,11.64,0,0,0,0-1.32c0-.44,0-.78,0-1,0-.08,0-.22,0-.42s0-.41,0-.62a4.71,4.71,0,0,0-.06-.58c0-.17-.08-.26-.16-.26s-.28.21-.6.62-.66.88-1,1.4-.68,1-1,1.5a2.82,2.82,0,0,0-.42.92.7.7,0,0,0,.28.5,5.69,5.69,0,0,0,.64.5,6.08,6.08,0,0,0,.74.42A3,3,0,0,0,9.44,424.28Z"/><path class="cls-1" d="M19.08,461.48l.6-.2.86-.24.9-.22.68-.18a22.51,22.51,0,0,0,3.24-1.26,13.49,13.49,0,0,0,3-1.9,9.54,9.54,0,0,0,2.16-2.62,6.88,6.88,0,0,0,.84-3.42,7.53,7.53,0,0,0-.3-2.14,5.11,5.11,0,0,0-.92-1.78,4.57,4.57,0,0,0-3.66-1.68,5.86,5.86,0,0,0-2.6.58,12,12,0,0,0-2.3,1.46c-.73.59-1.44,1.21-2.12,1.88s-1.35,1.29-2,1.88a11.69,11.69,0,0,1-2,1.46,4,4,0,0,1-2,.58,3.34,3.34,0,0,1-1.68-.44,4.74,4.74,0,0,1-1.32-1.12,5,5,0,0,1-.86-1.54,5.12,5.12,0,0,1-.3-1.7c0-.21.09-.32.28-.32a2.2,2.2,0,0,1,.66.12l.74.26a1.75,1.75,0,0,0,.52.14,9.34,9.34,0,0,0,3.66-.76c1.21-.51,2.44-1.06,3.68-1.66s2.52-1.15,3.84-1.66a11.48,11.48,0,0,1,4.18-.76,10.65,10.65,0,0,1,3.36.54,9.26,9.26,0,0,1,2.9,1.54,7.53,7.53,0,0,1,2,2.48,7.12,7.12,0,0,1,.76,3.32,7.83,7.83,0,0,1-1.5,4.94,10.84,10.84,0,0,1-3.8,3.08,17.4,17.4,0,0,1-5,1.58,32.16,32.16,0,0,1-5.1.44H19.8a8,8,0,0,1-.88,0c-.27,0-.42-.09-.46-.18S18.63,461.69,19.08,461.48Z"/><path class="cls-1" d="M21.88,484.92a.92.92,0,0,0-.1-.44.39.39,0,0,0-.38-.2,10.63,10.63,0,0,0-4.24.92c-1.41.61-2.78,1.29-4.1,2s-2.58,1.41-3.78,2a7.34,7.34,0,0,1-3.28.92,3.69,3.69,0,0,1-1.78-.46,5.56,5.56,0,0,1-1.5-1.18,5.69,5.69,0,0,1-1-1.62,4.71,4.71,0,0,1-.38-1.82c0-.29,0-.59,0-.88a2.38,2.38,0,0,1,.22-.88l.16-.16a2.49,2.49,0,0,1,.92.26q.44.22.84.48a7.41,7.41,0,0,0,.82.46,2.12,2.12,0,0,0,.9.2,24.92,24.92,0,0,0,6.1-.75c2-.51,4-1.06,6-1.65s4-1.14,6-1.65a24.92,24.92,0,0,1,6.1-.75,13,13,0,0,1,1.68.12,7.16,7.16,0,0,1,1.74.44,3.58,3.58,0,0,1,1.38.91,2.22,2.22,0,0,1,.56,1.59,1.71,1.71,0,0,1-1.8,1.78H30a14,14,0,0,0-2.82.28,12.62,12.62,0,0,0-4.16,1.5,8.79,8.79,0,0,0-2.72,2.52,10.15,10.15,0,0,0-1.5,3.48,19,19,0,0,0-.46,4.34,8,8,0,0,0,1,4.28,6.19,6.19,0,0,0,2.38,2.26,10,10,0,0,0,3.08,1c1.11.17,2.13.36,3.08.56a7.3,7.3,0,0,1,2.38.9,2.18,2.18,0,0,1,1,2,2.06,2.06,0,0,1-.3,1.14,2.5,2.5,0,0,1-.76.76,3.23,3.23,0,0,1-1,.44,5.07,5.07,0,0,1-1.14.14,20.87,20.87,0,0,1-5.28-.64,12.3,12.3,0,0,1-4.32-2A9.71,9.71,0,0,1,15.44,504a11.9,11.9,0,0,1-1.08-5.28,15.42,15.42,0,0,1,2-7.68,17.17,17.17,0,0,1,5.38-5.84Z"/><path class="cls-1" d="M19.44,536.28a1.36,1.36,0,0,1,1.22.66,2.53,2.53,0,0,1,.42,1.38A1.88,1.88,0,0,1,20.3,540a4.65,4.65,0,0,1-1.86.7,10.86,10.86,0,0,1-2.22.14c-.76,0-1.39,0-1.9,0A.4.4,0,0,0,14,541a.88.88,0,0,0-.14.44c0,.17,0,.35,0,.52v.42q0,5.68,5.8,5.68a8.53,8.53,0,0,0,3-.52,8.08,8.08,0,0,0,2.52-1.46,7,7,0,0,0,1.74-2.28,6.78,6.78,0,0,0,.64-3,8.45,8.45,0,0,0-.72-3.44,18.53,18.53,0,0,0-1.6-2.94,18,18,0,0,0-1.6-2.08,5.08,5.08,0,0,1-.72-.86.2.2,0,0,1,.2-.22.79.79,0,0,1,.32,0,9,9,0,0,1,3.24,1.48,14,14,0,0,1,2.86,2.68,14.51,14.51,0,0,1,2,3.36,8.88,8.88,0,0,1-.18,7.66,9,9,0,0,1-2.54,3,11,11,0,0,1-3.64,1.76,15.35,15.35,0,0,1-4.22.58q-4.92,0-7.08-2.62c-1.44-1.75-2.16-4.19-2.16-7.34a4,4,0,0,1,0-.66,1.71,1.71,0,0,0-.08-.7l-.16-.28a1.73,1.73,0,0,0-.2-.28,4.16,4.16,0,0,0-1.62-1.26c-.6-.25-1.17-.52-1.7-.8a3.78,3.78,0,0,1-1.34-1.18,4.11,4.11,0,0,1-.54-2.36,3.64,3.64,0,0,1,.6-2A11.5,11.5,0,0,1,8,530.58c.47-.49.9-.93,1.3-1.3a1.52,1.52,0,0,0,.6-1c0-.21-.21-.51-.62-.88s-.87-.81-1.38-1.3a11.65,11.65,0,0,1-1.38-1.6,3,3,0,0,1-.62-1.78,1.91,1.91,0,0,1,0-.2c0-.08,0-.12.1-.12a3.1,3.1,0,0,1,1.3.46q.86.46,2,1a24,24,0,0,0,2.4,1,7.31,7.31,0,0,0,2.52.46c.21,0,.39-.17.52-.5A6.23,6.23,0,0,0,15,523.7a11.82,11.82,0,0,0,.16-1.3c0-.43,0-.72,0-.88v-1.1c0-.23,0-.44,0-.64a1.06,1.06,0,0,0-.06-.38,1.63,1.63,0,0,0-.44-.66,7,7,0,0,0-.66-.56c-.23-.17-.42-.33-.58-.46s-.24-.24-.24-.32.09-.2.26-.28a2.82,2.82,0,0,1,.62-.2,4.37,4.37,0,0,1,.7-.1l.46,0a7,7,0,0,1,1.9.28,7.48,7.48,0,0,1,1.9.82,5.07,5.07,0,0,1,1.46,1.34,3,3,0,0,1,.58,1.84,2.16,2.16,0,0,1-.36,1c-.24.41-.51.83-.82,1.26s-.58.82-.82,1.18a1.83,1.83,0,0,0-.36.74c0,.16.11.31.32.46s.45.33.7.54a3.81,3.81,0,0,1,.7.78,2.05,2.05,0,0,1,.32,1.18,1.33,1.33,0,0,1-.58,1.24,3.56,3.56,0,0,1-1.3.48,9.78,9.78,0,0,1-1.38.14,1.33,1.33,0,0,0-.86.22,3.34,3.34,0,0,0-.6,1,13.05,13.05,0,0,0-.58,1.54c-.17.56-.32,1.09-.44,1.6a5.48,5.48,0,0,0-.18,1.16c0,.13,0,.28,0,.44s.11.24.3.24ZM12.12,536a2.17,2.17,0,0,0,.64-1.1,11.23,11.23,0,0,0,.38-1.72c.09-.63.15-1.23.18-1.82s0-1.05,0-1.4-.13-.36-.4-.36a5.6,5.6,0,0,0-1.58.28,9.08,9.08,0,0,0-1.82.78,6.11,6.11,0,0,0-1.5,1.16,2.05,2.05,0,0,0-.62,1.42A1.58,1.58,0,0,0,8,534.36a4.92,4.92,0,0,0,1.28.88,7,7,0,0,0,1.54.54A6.2,6.2,0,0,0,12.12,536Z"/><path class="cls-1" d="M1.68,561.48A.54.54,0,0,1,2,561.3l.38,0a8.68,8.68,0,0,1,2.56.4,8.59,8.59,0,0,1,2.42,1.16,6.63,6.63,0,0,1,1.8,1.86,4.44,4.44,0,0,1,.7,2.46,7.85,7.85,0,0,1-.34,2.32c-.23.75-.47,1.49-.74,2.22s-.51,1.47-.74,2.22a7.85,7.85,0,0,0-.34,2.32,8.62,8.62,0,0,0,.18,1.64,8.2,8.2,0,0,0,.56,1.76,4.44,4.44,0,0,0,1,1.42,2.15,2.15,0,0,0,1.54.58,2.36,2.36,0,0,0,1.48-.5,5.23,5.23,0,0,0,1.14-1.24,12.29,12.29,0,0,0,.9-1.6c.27-.57.51-1.11.74-1.6a13.8,13.8,0,0,1,.64-1.24c.2-.33.42-.5.66-.5s.17.06.18.18,0,.21,0,.26a10.4,10.4,0,0,1-.16,1.84c-.11.61-.23,1.22-.38,1.82s-.27,1.2-.38,1.8a10.09,10.09,0,0,0-.16,1.82,10.69,10.69,0,0,0,.2,1.9,8.19,8.19,0,0,1,.14,2,2.91,2.91,0,0,1-.56,1.6,2.2,2.2,0,0,1-1.86.66,6,6,0,0,1-1.82-.28,7.88,7.88,0,0,1-1.7-.76A10.79,10.79,0,0,1,7.86,586,13,13,0,0,1,6,583.66a13.48,13.48,0,0,1-1.28-2.72,8.65,8.65,0,0,1-.48-2.78V566.68a4,4,0,0,0-.38-1.7A10.15,10.15,0,0,0,3,563.46c-.32-.47-.61-.87-.88-1.22A2.17,2.17,0,0,1,1.68,561.48Zm31.16,19.88a2.67,2.67,0,0,1-1.2-.24,2.64,2.64,0,0,1-.92-.84,4.39,4.39,0,0,1-.72-1.84q-.16-1-.24-2.16t-.18-2.22A6.46,6.46,0,0,0,29,572a5.24,5.24,0,0,0-.54-.86c-.28-.39-.61-.83-1-1.32s-.77-1-1.18-1.5L25.2,566.9l-.86-1.1a2.5,2.5,0,0,1-.34-.48c0-.13.06-.21.18-.22l.3,0a6.82,6.82,0,0,1,1.5.16,12.31,12.31,0,0,1,1.42.4,13.51,13.51,0,0,1,3.38,1.74A11.55,11.55,0,0,1,33.42,570a12.1,12.1,0,0,1,1.72,3.26,11.68,11.68,0,0,1,.52,5.28,4.6,4.6,0,0,1-.42,1.42,2.79,2.79,0,0,1-.88,1A2.54,2.54,0,0,1,32.84,581.36Z"/><path class="cls-1" d="M1.68,601.48A.54.54,0,0,1,2,601.3l.38,0a8.68,8.68,0,0,1,2.56.4,8.59,8.59,0,0,1,2.42,1.16,6.63,6.63,0,0,1,1.8,1.86,4.44,4.44,0,0,1,.7,2.46,7.85,7.85,0,0,1-.34,2.32c-.23.75-.47,1.49-.74,2.22s-.51,1.47-.74,2.22a7.85,7.85,0,0,0-.34,2.32,8.62,8.62,0,0,0,.18,1.64,8.2,8.2,0,0,0,.56,1.76,4.44,4.44,0,0,0,1,1.42,2.15,2.15,0,0,0,1.54.58,2.36,2.36,0,0,0,1.48-.5,5.23,5.23,0,0,0,1.14-1.24,12.29,12.29,0,0,0,.9-1.6c.27-.57.51-1.11.74-1.6a13.8,13.8,0,0,1,.64-1.24c.2-.33.42-.5.66-.5s.17.06.18.18,0,.21,0,.26a10.4,10.4,0,0,1-.16,1.84c-.11.61-.23,1.22-.38,1.82s-.27,1.2-.38,1.8a10.09,10.09,0,0,0-.16,1.82,10.69,10.69,0,0,0,.2,1.9,8.19,8.19,0,0,1,.14,2,2.91,2.91,0,0,1-.56,1.6,2.2,2.2,0,0,1-1.86.66,6,6,0,0,1-1.82-.28,7.88,7.88,0,0,1-1.7-.76A10.79,10.79,0,0,1,7.86,626,13,13,0,0,1,6,623.66a13.48,13.48,0,0,1-1.28-2.72,8.65,8.65,0,0,1-.48-2.78V606.68a4,4,0,0,0-.38-1.7A10.15,10.15,0,0,0,3,603.46c-.32-.47-.61-.87-.88-1.22A2.17,2.17,0,0,1,1.68,601.48Zm31.16,19.88a2.67,2.67,0,0,1-1.2-.24,2.64,2.64,0,0,1-.92-.84,4.39,4.39,0,0,1-.72-1.84q-.16-1-.24-2.16t-.18-2.22A6.46,6.46,0,0,0,29,612a5.24,5.24,0,0,0-.54-.86c-.28-.39-.61-.83-1-1.32s-.77-1-1.18-1.5L25.2,606.9l-.86-1.1a2.5,2.5,0,0,1-.34-.48c0-.13.06-.21.18-.22l.3,0a6.82,6.82,0,0,1,1.5.16,12.31,12.31,0,0,1,1.42.4,13.51,13.51,0,0,1,3.38,1.74A11.55,11.55,0,0,1,33.42,610a12.1,12.1,0,0,1,1.72,3.26,11.68,11.68,0,0,1,.52,5.28,4.6,4.6,0,0,1-.42,1.42,2.79,2.79,0,0,1-.88,1A2.54,2.54,0,0,1,32.84,621.36Z"/><path class="cls-1" d="M26.52,647.76c.29,0,.44.13.44.4s-.15.4-.44.4q-6.6,0-13.06.12T.4,648.8a.35.35,0,0,1-.4-.4c0-2,0-3.93.12-5.86s.12-3.89.12-5.86a.4.4,0,0,1,.14-.34.44.44,0,0,1,.32-.08.73.73,0,0,1,.34.12.33.33,0,0,1,.16.3v10.68a.35.35,0,0,0,.4.4Z"/></g></g></svg>