<svg xmlns="http://www.w3.org/2000/svg" viewBox="0 0 589.32 976.5"><defs><style>.cls-1{fill:#fff;}</style></defs><title>アセット 10</title><g id="レイヤー_2" data-name="レイヤー 2"><g id="レイヤー_6" data-name="レイヤー 6"><path class="cls-1" d="M87.87,976.5,90.48,954c.32-2.79.53-5.59.61-8.4l.5-17.49-2.21-6.42c-.8-2.33-1.69-4.64-2.65-6.91l-1.53-3.61q-1.36-3.21-2.54-6.5l-.76-2.11a78.31,78.31,0,0,1-3.57-13.71l-.7-4.15-1.72-10.65a15.41,15.41,0,0,1-.18-1.65L75.24,864,61.1,859.87a95.84,95.84,0,0,1-9.18-3.2l-11.09-4.49q-3.73-1.51-7.33-3.33L22,843c-2.32-1.18-4.6-2.43-6.84-3.77L6.27,834l-4.76-3.1a2,2,0,0,1-.71-.79h0a7.48,7.48,0,0,1-.71-4.46L.18,825c.23-1.54.51-3.08.85-4.6l3.15-14.17,5.75-29.79L16.72,736l7-37.93c.21-1.18.39-2.38.53-3.58l2.67-23.8,8.62-66.35L39.19,563l-1.32-9.92a159.54,159.54,0,0,1-1.36-23.63l.2-11.48a132.8,132.8,0,0,1,1.09-14.9l.33-2.53a150.52,150.52,0,0,1,4-20.06l3.33-12.31,3.95-16.48q.75-3.12,1.71-6.16l7.66-24.38-9.14-18L38.75,381.62c-.76-1.49-1.56-2.95-2.42-4.37l-2.49-4.16a45.34,45.34,0,0,0-7.92-9.8h0a67.79,67.79,0,0,1-6.43-6.91l-4.86-6L8.9,342.54a25.24,25.24,0,0,1-2.3-3.83L4,333.32a22,22,0,0,1-1.38-3.59h0A64.75,64.75,0,0,1,.07,313.26L0,310.42v-12.8l.15-4.41a149.61,149.61,0,0,1,2.36-21.83l.8-4.31a140.15,140.15,0,0,1,3.61-15l2.75-9.16q1.3-4.35,2.91-8.59l6-15.75a21.2,21.2,0,0,1,2.79-5.09h0a54.21,54.21,0,0,0,8.56-17.21l.63-2.17a48.78,48.78,0,0,0,1.3-5.72l3.08-18.68c.41-2.51.89-5,1.44-7.49l4.81-21.85a50.17,50.17,0,0,0,.94-5.85l1.53-14.81,3.13-25.08L48.58,79.7a113.86,113.86,0,0,1,2.33-12.83v-.05a104,104,0,0,1,5.69-17h0c.4-.93.84-1.85,1.32-2.75l2.24-4.19a104.61,104.61,0,0,1,6.77-11l1.26-1.78A29.21,29.21,0,0,1,71,26.68h0A72.76,72.76,0,0,1,84.39,15.8h0a68.27,68.27,0,0,1,7-3.88l7.87-3.75h0a75.55,75.55,0,0,1,19.82-3.61l1.08,0h12.62q4.1,0,8.18.34l12.1,1c1.75.15,3.5.34,5.24.59l4.65.67a51.79,51.79,0,0,1,14.15,4.12h0a71,71,0,0,1,13.28,7.84h0a39.3,39.3,0,0,0,5,3.17l6,3.17,7,.62c1.82.16,3.64.25,5.46.28l17,.24H257c1.75,0,3.51-.08,5.26-.24h0a20,20,0,0,0,11.41-4.95l10-8.8L298.16,0,289,10.85l-7.09,8a57.92,57.92,0,0,1-5,4.95h0A55,55,0,0,1,266.52,31h0c-1.95,1-3.93,2-6,2.85l-9,3.84,5.93.19a49,49,0,0,0,6.41-.22l8.23-.82,11.71-1.72-5.24,2.31a31.25,31.25,0,0,1-3.9,1.41l-4,1.14-5.35,1.23a27.14,27.14,0,0,1-4.2.64l-5.59.41-11.42.57H234.12a36.45,36.45,0,0,1-4.43-.26l-7.22-.88-7.14-.57L225,53.7l6.57,9.42L238.42,73c1.43,2.07,2.76,4.19,4,6.37L253.5,98.8c1,1.73,1.91,3.49,2.78,5.29l9,18.59c.62,1.28,1.2,2.58,1.75,3.9l8.32,20.17,9.5,24.62-5.35-10.7c-.89-1.78-1.84-3.52-2.85-5.24l-3.06-5.16-7.73-13.36-6-10.55-2.24-3.56a75.54,75.54,0,0,0-8.51-11.07l-4.72-5.06L238.1,100l2.26,9.89q.55,2.41.9,4.86l.59,4.07a48.32,48.32,0,0,1,.47,6.69v11.83a109.35,109.35,0,0,0,.91,14.24l1.56,12.12,6.2,6.51,8.26,8a8.85,8.85,0,0,0,.89.73l.33.23a28.52,28.52,0,0,0,9.78,4.44l3.67.89-4,.32a91.27,91.27,0,0,1-14.88,0h0l7.48,6.28a2.78,2.78,0,0,0,.59.37h0a35.73,35.73,0,0,0,11,2.89l3.08.3c2.6.26,5.21.41,7.82.47l6.63.14c2.47.06,4.94,0,7.41-.18l.64,0,4.39-2.38a55.61,55.61,0,0,1,6.27-2.9l4.11-1.59c1.51-.58,3.05-1.1,4.61-1.54l6.19-1.77a30.23,30.23,0,0,1,4.71-.95l5.27-.62a50.47,50.47,0,0,1,5.77-.33h3.92A57,57,0,0,0,361,186.74l5.64.5,17,.62-14.24,5.81q-2.49,1-5.07,1.8l-4.18,1.28a75.82,75.82,0,0,1-8.93,2.14l-6,1.06-10.6,1.89A97.14,97.14,0,0,1,321,203.31l-17.31.67h-5.2a100.48,100.48,0,0,1-12.5-.78l-.89-.11a28.5,28.5,0,0,1-5.47-1.24l-1.09-.36a20.83,20.83,0,0,0-5.64-1.06l-3.68-.17a89.76,89.76,0,0,1-12.77-1.54l-4.83-.94L242,196c-1.42-.27-2.83-.6-4.22-1h0a65.35,65.35,0,0,1-12.64-5.11l-.43-.23c-1.88-1-3.8-1.92-5.77-2.74l-6.66-2.79v23.24l1.86,2.48,2.79,2.79,1,1.08a81.81,81.81,0,0,0,10.53,9.32l2.7,2L242,232.8l9.61,6.51,8.89,6.2a22.57,22.57,0,0,1,2.53,2l5.22,4.86a29.48,29.48,0,0,1,4.51,5.33l2.58,3.94a26.24,26.24,0,0,1,3.08,6.51l.34,1.08a61.16,61.16,0,0,1,2.33,11l0,.22a39.4,39.4,0,0,1-.06,9.46l-1.25,9.53-1.19-4.95A56,56,0,0,0,277,289h0a30.66,30.66,0,0,0-2.25-4.91l-1.39-2.43a38.49,38.49,0,0,0-2.14-3.33l-5.72-8c-1.2-1.67-2.48-3.29-3.84-4.84l-4.47-5.11.11,2.46a57.47,57.47,0,0,1-.27,8.7h0a67.49,67.49,0,0,1-1.48,8.58l-1.15,4.74-.19-4c-.08-1.65-.23-3.29-.46-4.92l-.29-2.16a33.48,33.48,0,0,0-2.35-8.45h0a47.77,47.77,0,0,0-2.37-4.75l-1-1.69a41.67,41.67,0,0,0-3.21-4.79l-4.44-5.71a3.54,3.54,0,0,0-.68-.66h0a60.39,60.39,0,0,1-12.3-12.38l-.71-.95c-.16-.22-.31-.44-.46-.67l-2.75-4.23a11.18,11.18,0,0,0-3.71-3.53h0a30.37,30.37,0,0,0-5.55-2.49h0a7.87,7.87,0,0,1-4-3.08l-.86-1.3a7,7,0,0,1-1-2.48L207,211.31c-.16-.76-.33-1.52-.53-2.28l-2.55-9.75-3.07-9.81a51.19,51.19,0,0,1-1.36-5.32l-2.05-10.26-3.37,6h0A73.47,73.47,0,0,1,183,191.09l-5.61,4.59-11.53,9.08-4.63,3.34a14.18,14.18,0,0,1-3.23,1.74h0a5.38,5.38,0,0,1-3,.26l-1.58-.32a8.39,8.39,0,0,1-3.27-1.42l-1.95-1.42c-.65-.47-1.33-.91-2-1.33l-.31-.18a37.46,37.46,0,0,0-7.5-3.45l-1.95-.65,2,3.43,3.07,4.53a53.28,53.28,0,0,0,3.42,4.5l5,5.94,6.56,8.14,2.76-3a9.93,9.93,0,0,1,2.05-1.67h0a6.32,6.32,0,0,1,4.43-.85h0a9.35,9.35,0,0,1,3.33,1.29l.38.24a49.3,49.3,0,0,1,8.63,6.88l5,5a59.2,59.2,0,0,1,5.63,6.51l5.41,7.26a60.53,60.53,0,0,1,3.79,5.74l1.45,2.48a41.53,41.53,0,0,1,4.38,10.79h0c.35,1.42.65,2.86.88,4.32l1.37,8.6,8.58,5.15,10.79,5.89,15,7.68a51.45,51.45,0,0,0,5.54,2.44l4.68,1.72a61.83,61.83,0,0,0,13.26,3.28l11.58,1.55,20.83,2.45,22.8,2,12.5.76a62.21,62.21,0,0,1,7.32.88l10.78,1.94a61.15,61.15,0,0,1,6.39,1.52l5,1.46a17.78,17.78,0,0,1,7.58,4.5h0a59.5,59.5,0,0,1,4.56,5.1l5.47,6.88L370,329.2a20.17,20.17,0,0,0-3.2-2.31h0a46.22,46.22,0,0,0-8.75-4l-.44-.15a33.53,33.53,0,0,0-4.76-1.21l-7.14-1.28L337,318.85a48.81,48.81,0,0,0-6.49-.62l-12.92-.39-17.89-.49L281,316.92c-1.78,0-3.56-.14-5.33-.3l-8.46-.76c-1.74-.15-3.47-.37-5.2-.65l-3.13-.51a74.26,74.26,0,0,1-12.31-3.12l-6-2.08-4.82-1.73a70.83,70.83,0,0,1-9.19-4l-4.86-2.55-6.33-3.55a68.31,68.31,0,0,1-7.16-4.63L205,290.63V297h0a18.27,18.27,0,0,1,5.83,6.31l.79,1.4a19.88,19.88,0,0,0,1.06,1.69h0a77.06,77.06,0,0,0,9.16,10.76l3.76,3.67a26.7,26.7,0,0,0,4.26,3.38l6.21,3.93a98.3,98.3,0,0,0,8.71,4.93l2.31,1.16a71.34,71.34,0,0,1,6.81,3.86h0a8.46,8.46,0,0,1,3.64,5.07h0a1.75,1.75,0,0,1-.16,1.27h0a16.56,16.56,0,0,1-3.58,4.53L251.52,351q-2.37,2.1-4.92,4l-11.17,8.18-6.28,4.52q-6,4.31-11.6,9.08l-.64.55a60.64,60.64,0,0,0-6.59,6.53h0a179.45,179.45,0,0,0-14.24,18.91l-.39.6c-1.57,2.39-3.23,4.73-5,7l-6.49,8.43,27.34-9.11,28.24-10.93,31-12.45,37.05-13.67L341.54,362l41-12.14,25.82-7.29,21.26-6.08,14.47-3.68q3.44-.87,6.95-1.47l10.77-1.83,3.08-.45a93.31,93.31,0,0,1,18.82-.83h.21a110.45,110.45,0,0,1,12.18,1.39l5.07.86a51.72,51.72,0,0,1,9.7,2.63h0a23.22,23.22,0,0,1,7.33,4.48l5.87,5.27,7.15,6.71a43.68,43.68,0,0,1,4.72,5.18h0a50.78,50.78,0,0,1,6.85,11.77l1.31,3.14a91,91,0,0,1,4.42,13.56l.57,2.38a115.45,115.45,0,0,1,2.5,14.29l.72,6.44-2.24-5.93a71.8,71.8,0,0,0-4.83-10.23h0c-.55-1-1.14-1.91-1.78-2.82L541,383.84c-1.38-2-2.82-3.95-4.3-5.86l-1.7-2.2q-3.36-4.33-7.08-8.39h0a28.61,28.61,0,0,0-6.76-5.44h0a99.14,99.14,0,0,0-16.16-7.5h0a64.83,64.83,0,0,0-7-2.07l-2.34-.55a89.5,89.5,0,0,0-21.94-2.39l-8.32.13-24.9,1.22-12,.64a200.54,200.54,0,0,0-21.45,2.3L393.47,356l-16.37,2.47q-5.81.87-11.51,2.2L344,365.67,327.33,370q-5.54,1.44-10.92,3.35l-8.28,2.95L300,379.35q-6.45,2.41-12.68,5.33l-8,3.77-20.35,10.32-21.66,10.09q-5.07,2.37-10.26,4.4l-10.62,4.15q-5.13,2-10.4,3.69l-24.05,7.65,19.41,14.12,23.19-.25,8.82-.1a171.53,171.53,0,0,1,29.07,2.17l6,.95,23.44,4,18,3.85q3.19.69,6.43,1.18l10.09,1.54q4.83.74,9.56,1.91l3.53.87a116.51,116.51,0,0,1,19.67,6.75h0a110.09,110.09,0,0,1,13.23,7l1.1.68a30.53,30.53,0,0,1,6.86,5.86l6.16,7.07c.62.72,1.27,1.42,1.94,2.09l3.44,3.44a69.49,69.49,0,0,0,14.21,10.93h0l6.61.31q4.23.19,8.46.13l3.3-.05A136.76,136.76,0,0,0,442,501.85l3.33-.48q5.29-.76,10.52-1.94l2.5-.56a146.07,146.07,0,0,0,18-5.27l4.3-1.57q5.52-2,10.87-4.47l10-4.61L517,475.64l9.25-4.84A137.34,137.34,0,0,0,540,462.54l6-4,6.56-4.76q3.53-2.55,6.82-5.39l14.85-12.79-11.84,12.86-3,3.49a154.19,154.19,0,0,1-19.25,18.56l-1.41,1.14L532.83,476q-5.52,4.19-11.37,7.9l-1.43.91q-3.81,2.43-7.79,4.6l-7.12,3.88-12.88,6.26q-4.77,2.31-9.68,4.28l-12.73,5.09-6.27,2.21a101.23,101.23,0,0,1-13.43,3.72h0a131,131,0,0,1-13.65,2l-1.88.18a65,65,0,0,1-8.71.25h0a105.06,105.06,0,0,1-17.32-2.1h0l.75.85a60.33,60.33,0,0,0,11.35,10h0l8.32,5.8,4.44,2.83a91.56,91.56,0,0,0,13.93,7.24h0a76.31,76.31,0,0,0,8.82,3h0c3.22.86,6.47,1.59,9.74,2.17l6,1a31.41,31.41,0,0,0,4,.44l14.88.66h13.73a25.66,25.66,0,0,0,4.28-.35L520.14,547q3.39-.56,6.7-1.4l5.39-1.38c2.76-.7,5.5-1.54,8.19-2.5l7.36-2.64c1.31-.47,2.59-1,3.85-1.59l11-5.17,4.75-2.5a68.23,68.23,0,0,0,8.29-5.16h0a42.46,42.46,0,0,0,6.16-5.44l7.52-8.07-.44.71a174.18,174.18,0,0,1-14.69,20.21h0a139.42,139.42,0,0,1-21.35,13.2l-1.33.67-6.57,2.9a178.27,178.27,0,0,1-18,6.83l-2.67.85-9.71,3.55a52,52,0,0,1-6.94,2l-9.32,2h0a160.84,160.84,0,0,1-26.7-.21l-.52,0,2.9,1.37a168,168,0,0,1,20.14,11.24l1.92,1.25h0a141.31,141.31,0,0,1,19.75,25.47l.92,1.5-2.56-3a95,95,0,0,0-12.06-11.67h0l-2.26-1.69a91,91,0,0,0-10-6.55l-4.59-2.6h0a162.56,162.56,0,0,0-25.14-11l-2.59-.88-11.6-3.27-13.11-3.78-14.37-3.53-11.8-3q-5.09-1.29-10.25-2.26l-7.48-1.42q-6-1.14-12.09-1.86l-13.08-1.55L350.84,545l7,5.67a31.17,31.17,0,0,1,4.25,4.19h0a173.85,173.85,0,0,0,12.5,13.39l.65.63q6.6,6.36,12.65,13.28h0q6.32,7.2,12,14.9l1.12,1.52a48.2,48.2,0,0,1,4.39,7.16h0a209.38,209.38,0,0,1,10.32,24.37l2.42,6.9L415,630.13a155.24,155.24,0,0,0-8.21-15.58h0a135.46,135.46,0,0,0-10.69-11l-3.93-3.62-2.7-2.52q-5.12-4.78-10.66-9l-2.44-1.88a117.14,117.14,0,0,0-10.65-7.29l-9.85-6-17.39-9.83-15.63-8.32-16.64-9.58L286.3,534.63l-6.44-2.09Q275.47,531.1,271,530l-12.15-3.13-13.67-3.33a108.24,108.24,0,0,1-11.79-3.6h0q-5.81-2.14-11.75-3.86l-4.17-1.2c-3.17-.92-6.37-1.7-9.6-2.37l-14.82-3,.6,3a76.48,76.48,0,0,0,4.13,13.79h0a73.74,73.74,0,0,0,4.91,9.92h0a75.84,75.84,0,0,0,8.18,11.25l7.89,9c.56.64,1.14,1.25,1.74,1.84l14.79,14.47L251.47,588l7.88,7.19A191.7,191.7,0,0,0,275,608l2.65,1.94,31.05,20.93,23.12,14.17L351,657.39l40.16,25,30.72,20.08,21.6,13.33,18.39,10.39q7.59,4.29,14.82,9.18l12.17,8.23q4.58,3.09,9,6.44L508,757.8l8.61,7.26,14.18,12.49-5.23,3.71-.68,6.08h0a24.05,24.05,0,0,1-7.56,2.77l-4.08.77-8,1.92a47.05,47.05,0,0,0-4.95,1.5h0a128.46,128.46,0,0,0-15.92,7.06l-8,4.2-3.38,1.93a244,244,0,0,1-27.15,13.37l-8.63,3.6-12.67,4.66q-7.07,2.6-14.29,4.75l-.71.21h0a119.44,119.44,0,0,1-15,1.76l-1.75.1-3.87.17q-7.26.33-14.54.15l-6.06-.15-1.88-.1a152.46,152.46,0,0,1-16.39-1.7l-2.49-.4-11-2.19L329,830.57q-5.81-.87-11.54-2.15l-7.94-1.76L302.7,825a128.17,128.17,0,0,0-19.57-3.1h0q-2.29-.18-4.59-.18h-.19a55.57,55.57,0,0,0-8.15.6h0a26.74,26.74,0,0,0-3.31.72h0c-2,.58-4,1.24-5.92,2l-.86.33a45.84,45.84,0,0,0-6.81,3.28h0a63.77,63.77,0,0,0-7.27,5l-6.34,5q-1,.82-2,1.74h0q-9,8.58-18.87,16.27l-1.08.85c-.53.41-1.07.8-1.63,1.18h0a140.61,140.61,0,0,1-15.75,9.07h0l-11.71,5.49-11.83,5.61-10,23.54-12.68,26.46-7.2,15.73-.12,31.71ZM176.32,452l3.07,4.25a22.58,22.58,0,0,0,2.63,3.06l8,7.79,5.05,5.31a50.94,50.94,0,0,0,9.23,7.65h0a33.07,33.07,0,0,0,6.25,3.17h0a87.36,87.36,0,0,0,13.56,3.95l2.79.58a116.63,116.63,0,0,0,12.75,1.89l16.47,1.53-9.32-7a66.33,66.33,0,0,0-6.14-4.11l-5.55-3.31-3.49-2.2a75,75,0,0,0-11.47-5.94h0c-.57-.24-1.14-.49-1.69-.76l-9.32-4.55-6.33-3.42q-2.4-1.31-4.73-2.74l-3.27-2c-2.4-1.48-4.74-3.07-7-4.76l-2.72-2q-3.34-2.5-6.5-5.24L174.9,440Zm52.41,4.25A87.81,87.81,0,0,0,248.85,466l2.33.78c2.66.89,5.27,1.87,7.85,2.94l4.29,1.79c2.12.88,4.25,1.7,6.41,2.46l8.07,2.85q4.74,1.68,9.62,3l6.29,1.65c2.16.57,4.33,1.07,6.51,1.52l3.48.7a117.71,117.71,0,0,0,14.47,2l7.57.6,12.75.95-5-5a41.41,41.41,0,0,0-8.92-6.77h0a64.21,64.21,0,0,0-8.89-4.16l-7.2-2.74-16.29-5.43-12.86-3.63q-5.55-1.56-11.23-2.58l-2.85-.51a85.33,85.33,0,0,0-9.44-1.14l-1.19-.08a94.85,94.85,0,0,0-9.83-.12l-3,.13q-3.41.13-6.8.47l-6.28.62ZM132.61,212.94a71.84,71.84,0,0,0-.19,7.19l.18,8.4,1,1.57a46.46,46.46,0,0,0,9.84,11.49h0l.26-7.23a1.91,1.91,0,0,1,.07-.47h0a6.75,6.75,0,0,1,2.51-3.72l2.22-1.64-4.73-3.86a22.28,22.28,0,0,1-1.9-1.73h0a64.94,64.94,0,0,1-6.83-8.33l-2.26-3.28Zm-106,13.5A83.66,83.66,0,0,0,22,233.89l-1.22,2.24-1.29,2.38a74.54,74.54,0,0,0-4.06,8.8l0,.11a47.21,47.21,0,0,0-1.65,5.22h0c-.29,1.18-.55,2.37-.77,3.57l-1.33,7.34-.81,3.8a105.41,105.41,0,0,0-1.7,10.75v.06a97.71,97.71,0,0,0-.53,10.12v6.06a66.21,66.21,0,0,0,1,11.42l.12.7.19,1.31a64.93,64.93,0,0,0,3,12.05l1,2.72c.2.54.4,1.08.62,1.61h0A111.6,111.6,0,0,0,20,335.53l2.17,3.88L21.31,327l-1.4-19.57c-.17-2.46-.28-4.92-.31-7.38l-.23-16.52.16-10.41a125.58,125.58,0,0,1,1.29-16.2l.77-5.23,2.49-13.29,2.49-11.91Zm14.92,59.17L41,292.88c-.2,3-.29,6.09-.29,9.13v4.69l.51,10.8.77,8,1.07,7.45c.14,1,.32,2.07.53,3.09l1.67,8.37a31.09,31.09,0,0,0,.84,3.29l1.32,4.23c.5,1.58,1,3.15,1.66,4.69l.47,1.2a30.41,30.41,0,0,0,7.36,10.89h0l7.2,6.43L69,379.48V360.86q0-3-.27-5.95l-.11-1.22a76.67,76.67,0,0,0-2.51-13.52h0a59.47,59.47,0,0,0-4.76-11.91L60,325.73l-4.45-4.46a42.16,42.16,0,0,1-6.5-8.36h0a23.51,23.51,0,0,1-2.2-5h0a84.93,84.93,0,0,1-2.42-9.83L44,295.87q-.46-2.55-1.13-5.05Z"/></g></g></svg>