<svg xmlns="http://www.w3.org/2000/svg" viewBox="0 0 930.57 455.34"><defs><style>.cls-1{fill:#eddb8d;opacity:0.8;}.cls-2{fill:#fff;}.cls-3{fill:#43445b;}.cls-4{fill:#d35b6e;}.cls-5,.cls-7,.cls-8,.cls-9{fill:none;}.cls-5{stroke:#f5f5f5;}.cls-5,.cls-7,.cls-9{stroke-linecap:round;}.cls-5,.cls-7{stroke-linejoin:round;}.cls-5,.cls-7,.cls-8{stroke-width:3px;}.cls-6{fill:#f5f5f5;}.cls-7,.cls-8{stroke:#fff;}.cls-8,.cls-9{stroke-miterlimit:10;}.cls-9{stroke:#d35b6e;stroke-width:19px;}.cls-10{fill:#c45c66;}.cls-11{fill:#faf7d9;}.cls-12{fill:#4aa9a4;}.cls-13{fill:#e58840;}</style></defs><title>アセット 2</title><g id="レイヤー_2" data-name="レイヤー 2"><g id="レイヤー_1-2" data-name="レイヤー 1"><g id="logo"><path class="cls-1" d="M428.43,0A226.61,226.61,0,0,0,311.11,32.52a200.49,200.49,0,0,1,55.45-7.77C477.27,24.75,567,114.49,567,225.2S477.27,425.64,366.56,425.64A200,200,0,0,1,296,412.86a226.61,226.61,0,0,0,132.46,42.48c125.74,0,227.67-101.93,227.67-227.67S554.17,0,428.43,0Z"/><g id="yui540"><polygon class="cls-2" points="642.02 216.49 631.88 217.45 632.87 227.93 654.38 225.91 655.58 238.73 595.19 244.41 596.34 256.6 754.78 241.7 755.63 250.8 865.73 240.44 865.24 235.29 852.06 236.53 851.41 229.63 864.59 228.39 863.99 221.92 872.48 221.12 873.09 227.59 929.43 222.3 919.71 118.95 880.48 122.64 882.63 145.5 861.59 147.48 860.97 140.79 810.22 145.56 809.58 138.74 860.32 133.97 859.44 124.61 790.74 131.08 791.83 142.72 779.61 143.87 778.51 132.23 707.22 138.93 708.46 152.11 725.94 150.47 728.66 179.4 639.33 187.8 642.02 216.49"/><rect class="cls-2" x="873.86" y="231.83" width="56.59" height="5.17" transform="translate(-17.99 85.49) rotate(-5.37)"/><polygon class="cls-3" points="664.32 217.66 654.75 203.29 643.92 204.36 659.96 227.65 664.32 217.66"/><polygon class="cls-3" points="669.43 249.73 689.22 199.89 678.67 200.93 669.43 225.32 665.36 235.49 659.06 250.7 669.43 249.73"/><path class="cls-3" d="M717.37,230.61a9.44,9.44,0,0,1-1.24.2q-7.93.8-8.92-9.26l-2.29-23.21-9.35.92,2.32,23.42a23.08,23.08,0,0,0,2,8.27,14.31,14.31,0,0,0,4.67,5.28A17.72,17.72,0,0,0,717,239.16c.42,0,.83-.11,1.24-.17Z"/><path class="cls-3" d="M720.78,196.77,723.07,220c0,.45.07.88.09,1.31l1.54,15.58a16.28,16.28,0,0,0,3.89-3,14.16,14.16,0,0,0,3.47-6.09,26.17,26.17,0,0,0,.37-8.5l-2.31-23.42Z"/><polygon class="cls-3" points="744.73 223.19 745.91 235.13 755.25 234.2 753.07 212.15 744.73 223.19"/><polygon class="cls-3" points="752.1 202.33 751.26 193.76 741.91 194.68 743.76 213.38 752.1 202.33"/><path class="cls-3" d="M744.31,171.38a6.14,6.14,0,0,0-5.47,6.62,6.13,6.13,0,0,0,6.71,5.55,5.79,5.79,0,0,0,4.1-2.21,5.92,5.92,0,0,0,1.36-4.5,5.78,5.78,0,0,0-2.21-4.1A5.93,5.93,0,0,0,744.31,171.38Z"/><path class="cls-3" d="M780.21,195.3a15.47,15.47,0,0,1,2.8,0l1.46-8.77a25.33,25.33,0,0,0-3.35.11c-.36,0-.76.09-1.18.16s-.87.16-1.34.26l2.11-10.94,19.76-2-.89-9.06-26.49,2.62-6.76,34.72,3.19-.32Q773.69,196,780.21,195.3Z"/><path class="cls-3" d="M797.06,191.41a20.18,20.18,0,0,0-5.35-3.36L790,198.11l.33.25a13.71,13.71,0,0,1,4.9,9.67,14.42,14.42,0,0,1-2.94,10.56,12.92,12.92,0,0,1-6.42,4.44l-1.54,9.31a23.49,23.49,0,0,0,15.14-8.09,22.26,22.26,0,0,0,5.16-17.36Q803.71,197.08,797.06,191.41Z"/><path class="cls-3" d="M776.87,232.35l1.48-8.94a11.25,11.25,0,0,1-3.1-1.12,22.76,22.76,0,0,1-6.82-6.66l-6.7,6.9Q768.12,230.95,776.87,232.35Z"/><polygon class="cls-3" points="853.85 206.39 848.81 155.4 813.57 219.26 838.65 216.78 837.78 207.98 829.39 208.81 842.05 185.88 844.17 207.35 844.16 207.35 845.03 216.15 845.04 216.15 845.94 225.24 855.62 224.29 854.72 215.19 861.53 214.52 860.66 205.72 853.85 206.39"/><path class="cls-3" d="M902.27,162.19c-3.81-4-8-6.26-12.61-6.73l.91,9.21c2.31.82,4.43,2.65,6.37,5.51q4.42,6.57,5.46,17.08t-2,17.76c-1.34,3.21-3.06,5.43-5.16,6.69l.92,9.26q6.61-2,11-9.07,6.24-9.84,4.69-25.54T902.27,162.19Z"/><path class="cls-3" d="M887.51,212.3a13.75,13.75,0,0,1-6-5.41q-4.39-6.7-5.45-17.37-1-10.26,2-17.48a13.91,13.91,0,0,1,4.77-6.41L882,156.3q-6.39,2.12-10.69,8.95-6.24,9.84-4.72,25.17,1.59,16.11,9.63,24.54,5.59,5.85,12.23,6.68Z"/></g><g id="臆病な魔女"><g id="女"><polygon class="cls-4" points="564.4 212.89 566.99 240.49 550.99 231.06 564.4 212.89"/><line class="cls-5" x1="509.07" y1="188.04" x2="608.78" y2="178.66"/><polyline class="cls-5" points="590.49 255.31 523.33 215.12 554.04 146.09"/><line class="cls-5" x1="527.66" y1="261.22" x2="577.55" y2="194.65"/><path class="cls-6" d="M578.85,198l-4.52-1.52c.34-.46,2.28-3.57,2.69-3.46,1.56.42,11.2,4.27,13.21,2.8l5.19-3.81c.36-.26,1.77-1,1.86-1.55.14-.92-1.5-2.24-1.85-3.15-1.94-5.16,4.76-8.32,8.67-5.56a4.55,4.55,0,0,1,1.76,5.41c-1.56,3.75-6.46,3.23-9.09,5.77a10.28,10.28,0,0,0-2.8,5.26c-.25,1.23,5.34,1.71,6.07,1.7,4,0,8.16-3.36,12.15-1.53,6.12,2.82,1.23,10.14-4.3,8.62a5.74,5.74,0,0,1-3-1.89c-.78-1-.51-3.06-1.24-3.74-1-1-3.54.25-4.66.39a14.23,14.23,0,0,1-3,0c-.71-.07-3.32-.89-3.79-.54-7.19,5.18-14.56,12.81-24.06,12.5l17-14.19Zm27.38,6.13c2.47,3.72,10,.28,6.52-3.63C610.29,197.67,603.64,200.07,606.23,204.09ZM603,188.25c4.37-2.83-1-8-4.77-5.47C593.84,185.65,598.93,190.81,603,188.25Z"/></g><g id="魔"><path class="cls-4" d="M419.51,232.29l25.65-9.57-.92-11.05-25,2.36a1.41,1.41,0,0,0-1.27,1.53Z"/><line class="cls-7" x1="435.62" y1="156.47" x2="436.54" y2="166.29"/><line class="cls-7" x1="483.75" y1="161.85" x2="393.86" y2="170.3"/><path class="cls-7" d="M395.2,176.82c-.91,37.64-5,95.95-5,95.95"/><path class="cls-2" d="M392.12,178.76l4.55,1.46c0-.57.28-4.22-.11-4.38-1.51-.58-11.55-3.21-12.29-5.59l-1.92-6.15c-.13-.43-.84-1.84-.57-2.35.43-.83,2.53-.91,3.36-1.44,4.63-3,1.11-9.52-3.67-9.62a4.55,4.55,0,0,0-4.64,3.3c-1,3.95,3.28,6.45,3.89,10a10.34,10.34,0,0,1-.87,5.9c-.53,1.13-5.31-1.81-5.89-2.24-3.25-2.4-4.58-7.56-8.87-8.45-6.6-1.37-7,7.43-1.66,9.49a5.71,5.71,0,0,0,3.51.24c1.21-.32,2.23-2.16,3.22-2.27,1.4-.16,2.7,2.3,3.52,3.08a13.41,13.41,0,0,0,2.41,1.76c.61.37,3.19,1.26,3.37,1.82,2.7,8.44,4.1,19,11.93,24.35l-5.25-21.51Zm-25.66-11.33c-4.2,1.52-8.18-5.69-3.09-6.79C367,159.85,370.93,165.73,366.46,167.43Zm12-10.8c-1.83-4.87,5.51-5.86,7.09-1.57C387.37,160,380.22,161.08,378.49,156.63Z"/><line class="cls-7" x1="407.46" y1="181.22" x2="435.41" y2="178.59"/><line class="cls-7" x1="420.42" y1="173.14" x2="423.12" y2="201.85"/><path class="cls-7" d="M417.57,183.32C419.2,200.69,407.8,201,407.8,201"/><path class="cls-7" d="M425.88,182.53c1.63,17.38,14.4,15.42,14.4,15.42"/><line class="cls-7" x1="448.25" y1="177.38" x2="476.2" y2="174.75"/><line class="cls-7" x1="461.21" y1="169.31" x2="463.91" y2="198.01"/><path class="cls-7" d="M458.36,179.48c1.63,17.37-9.77,17.68-9.77,17.68"/><path class="cls-7" d="M466.67,178.7c1.63,17.37,14.4,15.41,14.4,15.41"/><rect class="cls-7" x="412.33" y="208.86" width="68.28" height="28.83" transform="translate(-18.94 42.78) rotate(-5.37)"/><line class="cls-7" x1="472.89" y1="212.41" x2="420.67" y2="232.56"/><line class="cls-7" x1="443.97" y1="212.84" x2="445.96" y2="233.99"/><line class="cls-7" x1="434.59" y1="202.29" x2="424.62" y2="210.14"/><polyline class="cls-7" points="449.76 242.02 452.1 266.94 498.18 262.61 496.97 249.77"/><line class="cls-5" x1="434.65" y1="243.44" x2="417.36" y2="270.21"/><polyline class="cls-7" points="474.44 240.23 465.34 253.5 487.23 251.45"/><line class="cls-7" x1="482.35" y1="243.63" x2="491.1" y2="255.91"/></g><g id="な"><line class="cls-7" x1="302.04" y1="228.59" x2="319.18" y2="226.97"/><line class="cls-7" x1="309.03" y1="214.21" x2="312.76" y2="253.81"/><polygon class="cls-4" points="338.46 210.16 340.2 228.58 366.79 226.07 338.46 210.16"/><circle class="cls-8" cx="335.85" cy="264.76" r="13.65"/><circle class="cls-8" cx="335.85" cy="264.76" r="8.31"/><line class="cls-7" x1="341.34" y1="234.43" x2="344.16" y2="264.39"/><line class="cls-7" x1="345.12" y1="254.77" x2="363.65" y2="268.71"/></g><g id="病"><polygon class="cls-4" points="274.2 202.51 244.25 224.38 242.48 205.51 274.2 202.51"/><line class="cls-7" x1="194.16" y1="189.85" x2="284.05" y2="181.39"/><line class="cls-7" x1="239.38" y1="176.45" x2="240.18" y2="184.92"/><path class="cls-7" d="M194,196c3.62,38.52-4.65,96.46-4.65,96.46"/><line class="cls-7" x1="183.85" y1="209.87" x2="185.76" y2="230.26"/><line class="cls-7" x1="179.26" y1="258.31" x2="190.89" y2="244.26"/><line class="cls-7" x1="211.09" y1="208.07" x2="273.79" y2="202.17"/><polyline class="cls-7" points="212.65 289.46 206.97 229.03 281.75 222 287.5 283.18 274.66 284.39"/><line class="cls-7" x1="241.78" y1="205.66" x2="243.56" y2="224.59"/><polyline class="cls-9" points="240.11 246.36 241.31 259.18 254.13 257.98"/></g><g id="臆"><polygon class="cls-4" points="50.2 223.2 70.59 221.28 69.64 223.27 51.7 243.25 50.2 223.2"/><polyline class="cls-7" points="57.11 304.85 46.88 196.07 71.81 193.73 82.11 303.26 68.06 291.63"/><polyline class="cls-7" points="120.01 187.67 120.94 197.49 88.45 200.55 156.44 194.16 139.06 195.79 105.34 218.01 85.7 219.86 161.24 212.75"/><polyline class="cls-7" points="75.03 241.55 52.63 243.65 73.04 220.32 50.23 222.46"/><line class="cls-7" x1="95.91" y1="279.86" x2="97.9" y2="301.01"/><polyline class="cls-7" points="108.87 271.79 111.43 298.98 152.22 295.14 144.21 282.94"/><line class="cls-7" x1="122.18" y1="267.49" x2="149.38" y2="264.93"/><line class="cls-7" x1="163.9" y1="273.47" x2="165.89" y2="294.62"/><polyline class="cls-7" points="151.87 226.59 154.5 254.54 100.86 259.58 151.87 226.59 97.48 231.71 99.47 252.86"/></g></g><line id="lline" class="cls-8" x1="765.34" y1="248.45" x2="18.87" y2="318.65"/><path class="cls-2" d="M19,318.79c12.74-28.83-18.6-25.44,0,0-18.6-25.44-31.34,3.39,0,0-31.34,3.39-12.74,28.83,0,0-12.74,28.83,18.6,25.45,0,0,18.6,25.45,31.34-3.38,0,0C50.36,315.41,31.76,290,19,318.79Z"/></g><path class="cls-10" d="M145.51,334.26c.25-3.7.4-7.3.45-10.86l2,.12-.56-6,3.91-.37.59,6.3,4-.38-.88-1.33-2.39.23-.32-3.41,7.26-.68-.18-2,4.81-.45.18,2,7.44-.7.32,3.4-2.84.27c-.12.31-.41,1.12-.58,1.47l4.06-.38.31,3.32-18.88,1.77c.08.23.2.49.28.75l17.6-1.65.8,8.6-.86.09a60.79,60.79,0,0,1,3.15,5.34l-3.07,2a28.87,28.87,0,0,0-1.63-2.92c0,1.57-.3,2.56-1,3s-2.34.79-5,1c-1.74.16-2.57.21-3.63.22a4.34,4.34,0,0,1-2-.27c-.88-.4-1-1.29-1.19-3.08l-.06-.57a17.65,17.65,0,0,1-1.92,4.19l-2.06-1,.15,1.58-3.91.37-1.46-15.56c-.08,2.05-.2,4-.35,5.93Zm8.38-3.71-.78.35-.73-2.07,1,11.05a24.55,24.55,0,0,0,1.31-3.47l2.72.77-.06-.66,3.52-.33.76-.88-7.26.68Zm13.76-2-9.29.87.08.78,9.29-.88Zm.36,3.76-.08-.81-9.29.88.08.8Zm-8.24-11,.85,1.34,3.41-.32c.26-.66.49-1.16.61-1.47Zm9.7,16-1-1.42,2.1-1.34-5.25.49c.75.66,1.31,1.12,1.64,1.48l-2.17,2.82a33.6,33.6,0,0,0-3.23-2.62l.18,2c.05.51.17.83.39.9a8.31,8.31,0,0,0,2-.07,4.71,4.71,0,0,0,2.27-.51,3.5,3.5,0,0,0,.3-2Z"/><path class="cls-10" d="M188,313l4.66-.44.18,1.94,9.32-.87.35,3.79-19.68,1.85.74,7.85a28.23,28.23,0,0,1-.16,8.27,15.45,15.45,0,0,1-2.52,5.9l-3.7-2.84a10.78,10.78,0,0,0,2.14-5.08c-1,.63-1.85,1.07-2.43,1.37L175.39,331a29.83,29.83,0,0,0,4-2.22c-.09-1.29-.17-2.39-.26-3.32l-1,.75a60.63,60.63,0,0,0-3.66-5l2.91-2.36.72.9.55.73-.43-4.51,9.95-.93Zm-3.9,10.76-.34-3.56,18.58-1.74.33,3.55-7,.66.14,1.41,6.63-.63,1.08,11.5c.16,1.8.06,2.92-.32,3.41s-1.28.81-2.8,1c-.9.09-2.37.17-4.37.26l-.59-3.68c1.38,0,2.34-.07,2.76-.11.93-.08.9-.05.8-1.07l-.1-1.07-1.19,1.44a25.73,25.73,0,0,0-3.08-2.37,12.93,12.93,0,0,1-2.64,3.66l-2.42-2.31.59,6.24-4.42.42-1.46-15.56,6.93-.65-.13-1.41Zm4.91,4.51.39,4.18a6.65,6.65,0,0,0,1.94-4.4Zm9.29-.87-2.39.22c-.06.64-.11,1.1-.17,1.4a29.49,29.49,0,0,1,2.89,1.9Z"/><path class="cls-11" d="M217.39,330.53l-3.57-3a21.26,21.26,0,0,0,4.54-7.75l-4.45.42-.41-4.36,5.62-.53a35.83,35.83,0,0,0-.4-4l4.67-.65c.36,3,.42,3.55.45,4.18l4.06-.38.41,4.36-5,.46a21.71,21.71,0,0,1-4.44,9.46Zm20.71,3.69a25.92,25.92,0,0,0-3.42-3.45,6.3,6.3,0,0,1-1.32,2.72,7,7,0,0,1-4.93,2.93,5.58,5.58,0,0,1-5-2.15,5.89,5.89,0,0,1,1.53-8.16,8,8,0,0,1,5.21-1.64,21,21,0,0,0-1.25-4.91l5-1.59-4.2-4.87,3.67-2.94,7.32,8.65-3.6,3-1-1.14-1.85.5a24.51,24.51,0,0,1,.68,4.43,20.93,20.93,0,0,1,6.52,5.5Zm-10.36-4.51a1.45,1.45,0,0,0-.46,1.88c1,1.41,2.84-1.26,3-2.66A3.91,3.91,0,0,0,227.74,329.71Z"/><path class="cls-12" d="M278.58,327.46a11.63,11.63,0,0,1-.06,2.63c-.18.89-.09,1-.68,1.42a2.61,2.61,0,0,1-.71.46c-.2,0-.58.15-1.21.26a15.21,15.21,0,0,1-1.54.24l-2.15.2c-1.88.18-3.2.24-4,.23-1.57-.07-1.93-.4-2-1.56l-.43-4.51-.92.09c-.25,3.73-2.8,6.16-8.21,7.52l-1.52-3a20.11,20.11,0,0,1-1.19,3.33l-3.49-3.8a18.48,18.48,0,0,0,.87-4.81,77.3,77.3,0,0,0-.45-8.61l-.75-8.06,10.72-1-.21-2.27,4.8-.45.22,2.27,10.6-1,.33,3.49-4.21.4.07.77,3.61-.34.26,2.69-2.18.2a16,16,0,0,0,3.3,1.8L276,318.25l.67,7.19.71-.18c.29.87.51,1.58.65,2.14Zm-21.65.2-.71-7.62-1-1.35.19,2a34.93,34.93,0,0,1-.22,10.24c3.45-.84,5-1.95,5.3-3.63ZM255.54,316l-.25-2.69,3-.28-.07-.77-3.52.33.47,5.07a16.31,16.31,0,0,0,2.27-1.84Zm6,3.44.4-.46-3.16.3-.13-1.35a10.7,10.7,0,0,1-1.74,1.94Zm2.57,2.11-3.34.31.05.57,3.35-.32Zm.29,3.07-.05-.59-3.35.31.06.6Zm1.48-9.6-.25-2.68,3-.28-.08-.78-6.6.62.08.78,3-.28.26,2.68-1.5.14,2,1a9.56,9.56,0,0,0,2.06-1.4Zm-3.38,3.15,1.63,0c-.77-.5-1.35-.9-1.73-1.13Zm2.65-1-.75,1h1.69Zm1.31,1.78,8.64-.81a19.49,19.49,0,0,1-2.28-1.75L273,318l-3.8.36-.14-1.49a17,17,0,0,1-2.35,1.93Zm5.3,1.85-3.35.31.06.57,3.34-.31Zm.29,3.08-.06-.6-3.34.31.05.6Zm-.89,2.4-1.19.11.1,1.17c.21,0,.6-.12.75-.13Zm-.91,3.1c0,.18.11.29.33.3s.81,0,1.82-.11c1.76-.17,2.2-.3,2.29-1C273.29,328.9,271.81,329.19,270.3,329.42Zm4.82-3.47-1.34.13a6.27,6.27,0,0,1-.27,1l1.07-.22.76-.17Z"/><path class="cls-12" d="M293,303.72a35.11,35.11,0,0,1-.58,4.43l13.83-1.3.37,3.91-4.24.4a27.35,27.35,0,0,1-3.08,10.5,77.76,77.76,0,0,1,8.09,4.7l-2.73,3.3a86.24,86.24,0,0,0-7.91-4.65c-2.91,3-7.45,5.06-13.6,6.36l-1.09-3.66c4.75-1.08,8.28-2.62,10.47-4.63-1.82-.73-3.69-1.4-5.64-2-.56.75-1,1.33-1.29,1.69l-3.73-2.21a28,28,0,0,0,4.44-7.92l-6.45.6-.37-3.91,8-.75c.31-1.47.58-3,.79-4.71Zm4.66,7.88-6.24.59a31.24,31.24,0,0,1-2.32,5.43,51.72,51.72,0,0,1,6.07,2.14A22.81,22.81,0,0,0,297.67,311.6Z"/><path class="cls-11" d="M318.08,318.45l2,2.68-5.5,4a17,17,0,0,1-3.32-15.39l.64-2.23,4.5,1.12-.57,2.25a13.66,13.66,0,0,0,.64,8.74Zm17.22,5.92c-.58-.7-1.33-1.59-2.33-2.61a7.08,7.08,0,0,1-1.32,2.95,6.52,6.52,0,0,1-4.51,2.63,5.81,5.81,0,0,1-5.07-2.06,5.65,5.65,0,0,1-1.06-4.21,6.3,6.3,0,0,1,2.48-4.36,8.1,8.1,0,0,1,5.48-1.66,43.82,43.82,0,0,0-.52-5.22l-8.27.77-.42-4.42,7.44-.69a26.5,26.5,0,0,0-1.32-3.44l4.46-1.62c.14.26.89,2.15,1.7,4.6l3.82-.36.41,4.42-3.13.3a40.82,40.82,0,0,1,.52,7.18,18.12,18.12,0,0,1,4.94,4.48Zm-9.81-2.75a.91.91,0,0,0,.95,1.14c1.47,0,1.88-1.8,2.09-3.12a1.39,1.39,0,0,0-.58,0A2.63,2.63,0,0,0,325.49,321.62Z"/><path class="cls-11" d="M344.13,316.37c2.48,2.39,4.55,4.48,6.25,6.22l-3.23,2.84c-1.38-1.53-3.44-3.54-6.11-6Z"/><path class="cls-13" d="M374.83,320.48l-6.38-21.4,5.14-.48L377.42,315h.06l.5-16.83,6.15-.58,3.62,16.44h.06l.71-16.85,5-.47-2.29,22.21-5.91.55-3.83-16.42h-.06l-.71,16.85Z"/><path class="cls-13" d="M401.77,311.53c.49,2.37,1.86,3.17,4.7,2.91a17,17,0,0,0,4.43-1.26l.33,3.46a21.09,21.09,0,0,1-5.16,1.21c-5.41.5-8.72-2-9.21-7.27s1.93-8.32,6.86-8.78,7.48,2,8,7.32a10.07,10.07,0,0,1,0,1.48Zm5.29-3.39q-.36-3.34-2.95-3.1c-1.88.18-2.63,1.19-2.61,3.62Z"/><path class="cls-13" d="M415.63,316.65l-2.1-22.4,4.8-.45.8,8.42h.05a6.59,6.59,0,0,1,4.31-2.27c3.7-.35,6.34,2.33,6.82,7.5a9.34,9.34,0,0,1-1.14,6.1,5.44,5.44,0,0,1-4.17,2.53,6,6,0,0,1-5-1.82H420l.13,2Zm6.55-13a3.06,3.06,0,0,0-2,1,2.42,2.42,0,0,0-.73,1.91l.35,3.7a2.41,2.41,0,0,0,1.07,1.74,3,3,0,0,0,2.17.61c1.82-.17,2.84-1.74,2.56-4.76S424.19,303.49,422.18,303.68Z"/><path class="cls-11" d="M459.6,300.23l-3.82.36a30.76,30.76,0,0,1-1.45,6.67,29.88,29.88,0,0,1-5,8.91l-3.78-2.72a26.33,26.33,0,0,0,4.26-7.57,21.52,21.52,0,0,0,1.14-4.84l-7.85.74.71,3.7,2.27-.52.66,3.23-6.85,1.45-1.51-7.42-4.63.44-.42-4.51,4.18-.4-1.11-5.68,4.65-.86,1.15,6.1,8.9-.83a38.75,38.75,0,0,0-1.24-6.45l4.66-1a46.13,46.13,0,0,1,1.3,7l3.37-.31Z"/><path class="cls-11" d="M487.82,288.21a21.85,21.85,0,0,1-7.18,9.8L482,313l-4.81.45-1.18-12.58a42,42,0,0,1-11.59,3.32l-.75-4.51c4.66-.77,8.91-1.71,12.74-4.21a16.8,16.8,0,0,0,5.71-5.93l-1.75-.68,1.28-3Z"/><path class="cls-11" d="M498.77,310.8l-2.4-25.62,4.69-.44,2.4,25.62Zm20.35-14.41-2.24,7.29a36.27,36.27,0,0,1-7.68-2.78,22.17,22.17,0,0,1-6.23-5.14l3.61-3.23a21.69,21.69,0,0,0,3.92,3.58,18.22,18.22,0,0,0,4.57,2.07l.76-2.75Z"/><path class="cls-11" d="M540.45,302c-.06.06-5.75,3.91-5.75,3.91-1.56-2.2-6-8.84-3.53-20.94l4.69.86c-1.66,8.38.09,12.83.92,14.62l1.75-1.22Zm11.87-10.91-2.94-1.77,1.36-2.21a6.87,6.87,0,0,0-5.83-.2,27.32,27.32,0,0,0-2.92,1.36l-2.14-4.23a23.33,23.33,0,0,1,5.94-2.22c2.9-.48,6,.16,10.42,3.18Zm-7.2,8a6.2,6.2,0,0,0,3.54,1.84,5.4,5.4,0,0,0,4.11-2.53l3.87,2.77a10.23,10.23,0,0,1-7.24,4.39c-2.69.25-5.34-1.07-7.48-2.92Z"/><path class="cls-10" d="M596,297.7a11.69,11.69,0,0,1,0,2.62c-.19.89-.09,1-.68,1.42a2.77,2.77,0,0,1-.71.46c-.21.05-.59.15-1.21.27s-1.13.19-1.55.23l-2.15.2c-1.88.18-3.2.24-4,.23-1.58-.07-1.94-.39-2.05-1.56l-.42-4.51-.93.09c-.25,3.73-2.79,6.17-8.21,7.52l-1.52-3a19.78,19.78,0,0,1-1.19,3.33l-3.49-3.8a17.68,17.68,0,0,0,.87-4.81,74.32,74.32,0,0,0-.44-8.61l-.76-8.06,10.72-1-.21-2.27,4.81-.45.21,2.27,10.61-1,.32,3.49-4.21.4.07.77,3.62-.34.25,2.69-2.18.21a17.55,17.55,0,0,0,3.3,1.8l-1.42,2.18.68,7.2.7-.19c.3.87.51,1.58.66,2.14Zm-21.64.19-.72-7.62-1-1.35.19,2a34.64,34.64,0,0,1-.21,10.24c3.45-.84,5-1.95,5.29-3.63ZM573,286.24l-.25-2.69,3-.28-.07-.77-3.53.33.48,5.08a16.28,16.28,0,0,0,2.26-1.84Zm6,3.44.41-.46-3.17.3-.12-1.35a10.41,10.41,0,0,1-1.75,1.94Zm2.58,2.11-3.35.31.06.57,3.34-.31Zm.29,3.07-.06-.59-3.34.31,0,.6Zm1.48-9.6-.25-2.68,3-.28-.07-.78-6.6.62.07.78,3-.28.25,2.69-1.49.14,2,1a9.91,9.91,0,0,0,2.07-1.4ZM580,288.41l1.63,0c-.77-.5-1.35-.9-1.74-1.13Zm2.65-1-.75,1h1.69Zm1.31,1.78,8.63-.81a20.22,20.22,0,0,1-2.27-1.75l.14,1.53-3.79.35-.14-1.49a19.29,19.29,0,0,1-2.35,1.94Zm5.3,1.85-3.35.31.05.57,3.35-.31Zm.28,3.08,0-.6-3.35.31.06.6Zm-.89,2.4-1.19.11.11,1.17c.21,0,.59-.12.74-.13Zm-.91,3.1a.31.31,0,0,0,.33.3c.21,0,.81,0,1.83-.11,1.76-.17,2.2-.3,2.28-1C590.73,299.13,589.26,299.42,587.74,299.65Zm4.83-3.47-1.35.13a6.31,6.31,0,0,1-.26,1l1.06-.22c.44-.1.71-.16.77-.16Z"/><path class="cls-10" d="M620.64,288.37c2,3.19,3.8,6.42,5.55,9.69l-4,1.91-1.13-2.09c-5.95,1.16-11,2-15.25,2.54l-.61-3.92c.69-.09,1.79-.22,3.33-.46a73.44,73.44,0,0,0,2.11-7.7l-5.76.54L604.6,286l-2.26,3.26c-1.82-1.46-3.78-2.81-5.81-4.13l2.33-3.2a58.56,58.56,0,0,1,5.72,3.89l-.08-.86,7.47-.7-.35-3.68-6.18.58-.36-3.82,6.19-.58-.28-2.9,4.66-.43.27,2.89,6.69-.62.36,3.82-6.69.63.35,3.67,8-.75L625,287l-9.38.88c-.48,2.22-1.13,4.66-1.92,7.41.68-.09,1.69-.28,3.08-.53s2.1-.37,2.25-.42c-.29-.54-1.08-1.89-2.4-4Zm-14.9,2.75a37.28,37.28,0,0,1-3.28,10.58l-3.89-2a45.34,45.34,0,0,0,3.22-9.65Zm-6.34-15.95a58.6,58.6,0,0,1,5.28,3.39L602.41,282c-1.42-1.07-3.19-2.23-5.3-3.51Z"/><path class="cls-11" d="M648.6,277.45l-.19,1.44a8.34,8.34,0,0,1,4,2.3,20.19,20.19,0,0,1,2.49-1.08l-.4-1.37,3.25-1,1.73,5.86a27.54,27.54,0,0,0-4.6,1.46,31.65,31.65,0,0,1,1.2,3.74l-4.42,1.08c-.24-1-.47-1.74-.68-2.38a8.78,8.78,0,0,0-2.29,2.84c-.42,1-.22,1.83,1.69,1.95a31.12,31.12,0,0,0,7.9-1.26l.93,4.53a41.82,41.82,0,0,1-8.58,1.34c-2.35,0-4.51-.54-5.9-2.54-2.72-3.94.52-8.22,3.37-10.57-1.11-.67-2.55-.93-5-.76l.72-5.16-6.42.6-.43-4.57,7.62-.71.44-3,4.48.6-.26,2,12.06-1.13.43,4.56Z"/><path class="cls-11" d="M686.27,293.83,679,292.14l.81-3.21,2.84.7c.79-3.06,1-6.4-.93-8.32a5.71,5.71,0,0,0-2.46-1.43l-3.39,14.24L671.15,293l3.36-13.36a27.3,27.3,0,0,0-6.81,1.64L666.21,277a27.22,27.22,0,0,1,9.4-2l1.58-7.2,4.6.89-1.49,6.86a12.16,12.16,0,0,1,5.13,2.62c1.89,1.91,2.48,4.65,2.46,7.31A27.49,27.49,0,0,1,686.27,293.83Zm4-11.52a10.75,10.75,0,0,0-6-8.78l1.92-4.24a15.54,15.54,0,0,1,8.72,12.59Z"/><path class="cls-11" d="M705.72,281.52l1.83,2.75-6,4.22a20.69,20.69,0,0,1-3.38-6.2c-1.34-4.36-.66-7.65.85-12.1l4.48,1.48c-1.37,4-2.05,7.33,0,11.39Zm16.59-6.89-2.87.27a23.06,23.06,0,0,1,.36,3.8c.07,5-1.3,8.34-4.17,12.44l-3.91-2.56c2.18-3.12,3.52-5.84,3.34-10a23.55,23.55,0,0,0-.37-3.25l-9.28.87-.42-4.45,8.51-.8a40.85,40.85,0,0,0-2.1-5l4.31-1.91a60.73,60.73,0,0,1,2.63,6.45l3.55-.34Z"/><path class="cls-11" d="M737,271.21l-2.6,15.28-4.59-.78,2.33-14-5.26.49-.43-4.57,6.42-.6c.16-.89.3-1.69.79-4.78l4.58.66c-.18,1.25-.34,2.5-.53,3.66l8.39-.79.43,4.57Zm16.52,12.58c-2.43,3-6.13,4.94-10.08,3.93-3.37-.89-5.78-3.8-6.25-7.82l4.7-.59c.23,1.75,1,3.49,2.72,4,2.57.69,4.4-1.29,5.27-2.3Zm-3.16-4.8-3.13-1.21.48-1.31a8.08,8.08,0,0,0-4.73.6l-1.64-4.25c4.84-2.08,9.19-.38,11.33.62Z"/><path class="cls-11" d="M757.35,282.28a4.91,4.91,0,0,1,1.1-3.66,5,5,0,0,1,7-.66,5,5,0,0,1-2.73,8.81,5,5,0,0,1-5.42-4.49Zm3.74,1a1.93,1.93,0,0,0,2.69-.26,1.91,1.91,0,0,0-2.94-2.43A1.93,1.93,0,0,0,761.09,283.29Z"/></g></g></svg>