<svg xmlns="http://www.w3.org/2000/svg" viewBox="0 0 762.98 373.34"><defs><style>.cls-1{fill:#eddb8d;opacity:0.8;}.cls-2{fill:#fff;}.cls-3{fill:#43445b;}.cls-4{fill:#d35b6e;}.cls-5,.cls-7,.cls-8,.cls-9{fill:none;}.cls-5{stroke:#f5f5f5;}.cls-5,.cls-7,.cls-9{stroke-linecap:round;}.cls-5,.cls-7{stroke-linejoin:round;}.cls-5,.cls-7,.cls-8{stroke-width:3px;}.cls-6{fill:#f5f5f5;}.cls-7,.cls-8{stroke:#fff;}.cls-8,.cls-9{stroke-miterlimit:10;}.cls-9{stroke:#d35b6e;stroke-width:19px;}.cls-10{fill:#c45c66;}.cls-11{fill:#faf7d9;}.cls-12{fill:#4aa9a4;}.cls-13{fill:#e58840;}</style></defs><title>logo</title><g id="レイヤー_2" data-name="レイヤー 2"><g id="ogp"><g id="logo"><path class="cls-1" d="M351.27,0a185.87,185.87,0,0,0-96.19,26.66,164.35,164.35,0,1,1-12.41,311.85,185.82,185.82,0,0,0,108.6,34.83c103.1,0,186.67-83.57,186.67-186.67S454.37,0,351.27,0Z"/><g id="yui540"><polygon class="cls-2" points="526.4 177.51 518.09 178.29 518.9 186.88 536.53 185.22 537.52 195.74 488 200.39 488.94 210.39 618.86 198.18 619.56 205.63 709.82 197.14 709.43 192.92 698.61 193.94 698.08 188.28 708.89 187.26 708.39 181.96 715.36 181.3 715.86 186.61 762.06 182.26 754.09 97.53 721.92 100.55 723.68 119.3 706.43 120.92 705.92 115.44 664.31 119.35 663.78 113.75 705.39 109.84 704.67 102.17 648.34 107.47 649.23 117.02 639.21 117.96 638.31 108.41 579.86 113.91 580.87 124.72 595.21 123.37 597.44 147.09 524.19 153.98 526.4 177.51"/><rect class="cls-2" x="716.49" y="190.08" width="46.4" height="4.24" transform="translate(-14.75 70.1) rotate(-5.37)"/><polygon class="cls-3" points="544.69 178.46 536.84 166.68 527.96 167.56 541.11 186.65 544.69 178.46"/><polygon class="cls-3" points="548.88 204.76 565.1 163.89 556.45 164.74 548.87 184.75 545.54 193.08 540.38 205.55 548.88 204.76"/><path class="cls-3" d="M588.18,189.08a10.12,10.12,0,0,1-1,.17q-6.51.65-7.32-7.6l-1.88-19-7.66.75,1.9,19.21a19,19,0,0,0,1.63,6.78,11.87,11.87,0,0,0,3.83,4.33,14.55,14.55,0,0,0,10.17,2.4c.35,0,.69-.09,1-.14Z"/><path class="cls-3" d="M591,161.33l1.88,19c0,.36.06.72.07,1.07l1.26,12.77a13,13,0,0,0,3.19-2.47,11.6,11.6,0,0,0,2.85-5,21.46,21.46,0,0,0,.3-7l-1.89-19.2Z"/><polygon class="cls-3" points="610.62 183 611.58 192.78 619.24 192.03 617.46 173.94 610.62 183"/><polygon class="cls-3" points="616.66 165.9 615.97 158.87 608.31 159.62 609.82 174.95 616.66 165.9"/><path class="cls-3" d="M610.27,140.52a4.8,4.8,0,0,0-3.36,1.81,4.74,4.74,0,0,0-1.12,3.62,4.91,4.91,0,0,0,1.81,3.43,4.84,4.84,0,0,0,3.69,1.11,4.76,4.76,0,0,0,3.36-1.81,4.87,4.87,0,0,0,1.12-3.68,4.79,4.79,0,0,0-1.81-3.37A4.85,4.85,0,0,0,610.27,140.52Z"/><path class="cls-3" d="M639.71,160.13a11.71,11.71,0,0,1,2.29,0l1.2-7.19a21.35,21.35,0,0,0-2.75.09c-.29,0-.62.07-1,.13l-1.09.21,1.72-9,16.21-1.6-.73-7.42-21.73,2.14L628.32,166l2.62-.26A11.74,11.74,0,0,1,639.71,160.13Z"/><path class="cls-3" d="M653.52,156.94a16.5,16.5,0,0,0-4.38-2.75l-1.37,8.24.27.21a11.22,11.22,0,0,1,4,7.92,11.83,11.83,0,0,1-2.41,8.67,10.65,10.65,0,0,1-5.26,3.64l-1.26,7.63a19.26,19.26,0,0,0,12.41-6.63,19.9,19.9,0,0,0-2-26.93Z"/><path class="cls-3" d="M637,190.51l1.21-7.33a9.73,9.73,0,0,1-2.54-.92,18.43,18.43,0,0,1-5.59-5.47l-5.5,5.67Q629.8,189.36,637,190.51Z"/><polygon class="cls-3" points="700.08 169.22 695.95 127.41 667.06 179.77 687.62 177.74 686.91 170.52 680.03 171.2 690.41 152.41 692.15 170.01 692.14 170.01 692.85 177.22 692.86 177.22 693.6 184.68 701.53 183.9 700.8 176.44 706.38 175.89 705.67 168.67 700.08 169.22"/><path class="cls-3" d="M739.79,133c-3.13-3.31-6.57-5.14-10.34-5.52l.75,7.55a11,11,0,0,1,5.21,4.52q3.63,5.39,4.48,14t-1.65,14.57a11,11,0,0,1-4.24,5.48l.75,7.6c3.62-1.11,6.64-3.58,9.06-7.44q5.12-8.07,3.85-20.94T739.79,133Z"/><path class="cls-3" d="M727.68,174.07a11.19,11.19,0,0,1-4.9-4.44q-3.6-5.49-4.47-14.24-.82-8.41,1.68-14.33a11.43,11.43,0,0,1,3.91-5.26l-.75-7.65a16.54,16.54,0,0,0-8.76,7.34q-5.11,8.07-3.88,20.64,1.31,13.2,7.9,20.12a16.7,16.7,0,0,0,10,5.47Z"/></g><g id="臆病な魔女"><g id="女"><polygon class="cls-4" points="462.76 174.55 464.88 197.18 451.77 189.45 462.76 174.55"/><line class="cls-5" x1="417.39" y1="154.17" x2="499.15" y2="146.49"/><polyline class="cls-5" points="484.15 209.33 429.08 176.38 454.27 119.78"/><line class="cls-5" x1="432.64" y1="214.17" x2="470.7" y2="163.38"/><path class="cls-6" d="M472,166.69l-4.53-1.51c.35-.47,2.29-3.57,2.69-3.46,1.56.42,11.2,4.27,13.21,2.8,1.73-1.28,3.47-2.54,5.2-3.81.36-.27,1.76-1,1.85-1.55.15-.93-1.5-2.24-1.84-3.16-1.95-5.16,4.76-8.32,8.66-5.56a4.55,4.55,0,0,1,1.77,5.41c-1.57,3.76-6.47,3.24-9.1,5.77a10.46,10.46,0,0,0-2.8,5.27c-.25,1.22,5.34,1.7,6.07,1.7,4,0,8.17-3.37,12.15-1.54,6.13,2.82,1.23,10.15-4.3,8.62a5.65,5.65,0,0,1-3-1.89c-.79-1-.52-3.06-1.25-3.74-1-1-3.53.25-4.66.39a13.5,13.5,0,0,1-3,0c-.71-.07-3.32-.88-3.79-.54-7.19,5.19-14.57,12.82-24.07,12.5l17-14.18Zm27.37,6.13c2.48,3.72,10,.28,6.52-3.63C503.44,166.4,496.8,168.8,499.38,172.82ZM496.12,157c4.37-2.83-1-8-4.78-5.46C487,154.38,492.08,159.54,496.12,157Z"/></g><g id="魔"><path class="cls-4" d="M344,190.46l21-7.85-.75-9.06-20.53,1.93a1.16,1.16,0,0,0-1,1.26Z"/><line class="cls-7" x1="357.17" y1="128.29" x2="357.93" y2="136.34"/><line class="cls-7" x1="396.64" y1="132.7" x2="322.93" y2="139.63"/><path class="cls-7" d="M323.9,149.73c-.95,30.77-4,73.92-4,73.92"/><path class="cls-2" d="M320.78,151.62l4.53,1.5c0-.58.31-4.23-.08-4.38-1.5-.6-11.52-3.31-12.24-5.69-.62-2.06-1.25-4.11-1.87-6.17-.13-.43-.82-1.84-.56-2.35.44-.83,2.55-.9,3.37-1.42,4.66-3,1.19-9.51-3.59-9.64a4.54,4.54,0,0,0-4.66,3.26c-1,3.94,3.23,6.47,3.81,10.07a10.44,10.44,0,0,1-.92,5.9c-.53,1.13-5.29-1.85-5.87-2.28-3.23-2.43-4.51-7.6-8.8-8.53-6.59-1.42-7.07,7.38-1.74,9.48a5.71,5.71,0,0,0,3.51.27c1.21-.31,2.25-2.14,3.24-2.25,1.4-.15,2.68,2.33,3.49,3.11a13.45,13.45,0,0,0,2.4,1.78c.61.38,3.18,1.29,3.35,1.85,2.64,8.46,4,19,11.75,24.44q-2.55-10.78-5.09-21.55ZM295.2,140.08c-4.21,1.49-8.13-5.75-3-6.81C295.81,132.51,299.68,138.42,295.2,140.08Zm12.12-10.7c-1.79-4.89,5.56-5.82,7.1-1.51C316.18,132.77,309,133.85,307.32,129.38Z"/><line class="cls-7" x1="334.09" y1="148.58" x2="357" y2="146.43"/><line class="cls-7" x1="344.71" y1="141.96" x2="346.92" y2="165.5"/><path class="cls-7" d="M342.37,150.3c1.34,14.25-8,14.5-8,14.5"/><path class="cls-7" d="M349.18,149.66C350.52,163.91,361,162.3,361,162.3"/><line class="cls-7" x1="367.53" y1="145.44" x2="390.45" y2="143.28"/><line class="cls-7" x1="378.15" y1="138.82" x2="380.37" y2="162.35"/><path class="cls-7" d="M375.81,147.16c1.34,14.24-8,14.5-8,14.5"/><path class="cls-7" d="M382.63,146.52c1.34,14.24,11.81,12.63,11.81,12.63"/><rect class="cls-7" x="338.08" y="171.25" width="55.99" height="23.64" transform="translate(-15.53 35.08) rotate(-5.37)"/><line class="cls-7" x1="387.73" y1="174.16" x2="344.92" y2="190.68"/><line class="cls-7" x1="364.02" y1="174.51" x2="365.65" y2="191.85"/><line class="cls-7" x1="356.33" y1="165.86" x2="348.15" y2="172.3"/><polyline class="cls-7" points="368.76 198.43 370.69 218.87 408.47 215.32 407.48 204.79"/><line class="cls-5" x1="356.38" y1="199.6" x2="342.2" y2="221.55"/><polyline class="cls-7" points="389 196.97 381.54 207.85 399.48 206.17"/><line class="cls-7" x1="395.49" y1="199.75" x2="402.66" y2="209.83"/></g><g id="な"><line class="cls-7" x1="247.64" y1="187.42" x2="261.7" y2="186.1"/><line class="cls-7" x1="253.38" y1="175.64" x2="256.43" y2="208.11"/><polygon class="cls-4" points="277.51 172.31 278.93 187.41 300.74 185.36 277.51 172.31"/><circle class="cls-8" cx="275.37" cy="217.08" r="11.2"/><circle class="cls-8" cx="275.37" cy="217.08" r="6.81"/><line class="cls-7" x1="279.87" y1="192.21" x2="282.18" y2="216.78"/><line class="cls-7" x1="282.97" y1="208.89" x2="298.16" y2="220.32"/></g><g id="病"><polygon class="cls-4" points="224.82 166.04 200.26 183.97 198.81 168.5 224.82 166.04"/><line class="cls-7" x1="159.19" y1="155.66" x2="232.89" y2="148.73"/><line class="cls-7" x1="196.27" y1="144.67" x2="196.93" y2="151.62"/><path class="cls-7" d="M159,160.67c3,31.59-3.81,79.09-3.81,79.09"/><line class="cls-7" x1="150.74" y1="172.07" x2="152.31" y2="188.8"/><line class="cls-7" x1="146.98" y1="211.79" x2="156.51" y2="200.27"/><line class="cls-7" x1="173.08" y1="170.6" x2="224.48" y2="165.76"/><polyline class="cls-7" points="174.35 237.33 169.69 187.78 231.01 182.02 235.73 232.19 225.2 233.18"/><line class="cls-7" x1="198.24" y1="168.62" x2="199.7" y2="184.15"/><polyline class="cls-9" points="196.87 202 197.86 212.51 208.37 211.52"/></g><g id="臆"><polygon class="cls-4" points="41.16 183 57.88 181.43 57.09 183.07 42.39 199.44 41.16 183"/><polyline class="cls-7" points="46.83 249.95 38.44 160.76 58.88 158.84 67.32 248.65 55.8 239.11"/><polyline class="cls-7" points="98.4 153.88 99.16 161.93 72.53 164.43 128.27 159.19 114.02 160.53 86.37 178.75 70.27 180.26 132.2 174.44"/><polyline class="cls-7" points="61.52 198.05 43.15 199.78 59.88 180.64 41.19 182.4"/><line class="cls-7" x1="78.64" y1="229.46" x2="80.27" y2="246.81"/><polyline class="cls-7" points="89.27 222.84 91.36 245.14 124.81 241.99 118.24 231.99"/><line class="cls-7" x1="100.18" y1="219.32" x2="122.48" y2="217.22"/><line class="cls-7" x1="134.38" y1="224.22" x2="136.01" y2="241.56"/><polyline class="cls-7" points="124.52 185.78 126.67 208.7 82.7 212.84 124.52 185.78 79.93 189.98 81.56 207.32"/></g></g><line id="lline" class="cls-8" x1="627.51" y1="203.71" x2="15.47" y2="261.27"/><path class="cls-2" d="M15.6,261.38c10.44-23.63-15.25-20.86,0,0-15.25-20.86-25.7,2.78,0,0-25.7,2.78-10.45,23.64,0,0-10.45,23.64,15.24,20.87,0,0,15.24,20.87,25.69-2.77,0,0C41.29,258.61,26,237.75,15.6,261.38Z"/><path class="cls-10" d="M123.72,282.86l-.53-2.4a20.09,20.09,0,0,1-.59,2.92l-2.72-2.58a20.15,20.15,0,0,0,.34-4.1c0-1.43-.2-3.62-.58-6.6l-1.08-8.58,6.7-.85,2.32,18.4a14.34,14.34,0,0,0,.88-2.75l2.12.61-.08-.64,2.63-.33.6-.79-5.6.71-.9-7.14L140.92,267l.9,7.14-.7.09a45.87,45.87,0,0,1,2.72,4.37l-2.28,1.7c-.32-.59-.77-1.36-1.37-2.27,0,1.25-.19,2.06-.67,2.42a8.64,8.64,0,0,1-3.59.94c-.72.09-1.26.16-1.69.18a5.69,5.69,0,0,1-2.1,0,1.36,1.36,0,0,1-.93-.79,9,9,0,0,1-.38-1.87l-.07-.52a12.11,12.11,0,0,1-1.44,3.58l-1.57-.73c-.07,1.09-.44,1.34-1.63,1.49C125.7,282.76,124.92,282.81,123.72,282.86Zm-.94-18.67-.87.11.34,2.75.87-.11Zm1.07,8.53-.36-2.9-.87.1.23,1.84c0,.27.1.79.13,1.07Zm.37,2.92-1,.13a30,30,0,0,1,0,3.9c.4,0,.75-.05,1.07-.09s.37,0,.25-1Zm17.14-12.13.35,2.77-15,1.89-.36-2.77,2.73-.35c-.16-.25-.63-.82-.79-1.08l-2,.25-.36-2.83,5.21-.65L131,259.1l3.94-.5.21,1.64,5.36-.68.35,2.83-1.66.21a13,13,0,0,1-.42,1.24Zm-4,6-6.25.78.08.65,6.25-.79Zm.4,3.12-.09-.67-6.25.79.09.67Zm-5.74-9.13.74,1.09,2.26-.28c.23-.56.38-1,.47-1.24Zm4,14.95a16.42,16.42,0,0,0-2.36-2.08l.19,1.44c.06.5.17.76.33.84a5.3,5.3,0,0,0,1.48-.06q1.33-.16,1.53-.42c.16-.17.22-.66.16-1.5Zm1.44-1.95,1.78.18c-.36-.51-.64-.9-.85-1.15l1.57-1.14-3.54.45c.34.29.76.69,1.34,1.24Z"/><path class="cls-10" d="M154.16,256.66l3.82-.36.15,1.6,7.64-.72.29,3.11-16.14,1.51.61,6.44a23.27,23.27,0,0,1-.13,6.79,12.69,12.69,0,0,1-2.07,4.83l-3-2.33a8.8,8.8,0,0,0,1.75-4.17c-.84.53-1.52.89-2,1.13l-1.26-3.14a23.94,23.94,0,0,0,3.29-1.82c-.07-1-.14-2-.21-2.72l-.8.62a48.8,48.8,0,0,0-3-4.12l2.39-1.93.59.74.45.6-.35-3.7,8.16-.76Zm-3.2,8.83-.27-2.92,15.23-1.43.27,2.92-5.75.54.1,1.15,5.44-.51.89,9.43c.13,1.47,0,2.39-.26,2.79s-1.05.66-2.3.78c-.73.07-1.94.13-3.59.21l-.48-3c1.14,0,1.92-.06,2.27-.09.76-.07.73-.05.66-.88l-.09-.88-1,1.18a20.87,20.87,0,0,0-2.53-1.94,10.53,10.53,0,0,1-2.17,3l-2-1.89.48,5.11-3.62.34-1.2-12.75,5.68-.54-.1-1.15Zm4,3.7.32,3.42a5.44,5.44,0,0,0,1.59-3.6Zm7.61-.72-2,.18a9.9,9.9,0,0,1-.14,1.15,23.3,23.3,0,0,1,2.37,1.56Z"/><path class="cls-11" d="M178.24,271l-2.93-2.49a17.36,17.36,0,0,0,3.73-6.35l-3.65.34-.33-3.57,4.6-.44a29.59,29.59,0,0,0-.33-3.25l3.83-.53c.3,2.42.34,2.9.37,3.42l3.33-.31.33,3.57-4.09.39a17.81,17.81,0,0,1-3.64,7.75Zm17,3a20.14,20.14,0,0,0-2.81-2.82,5.18,5.18,0,0,1-1.07,2.22,5.77,5.77,0,0,1-4.05,2.41,4.58,4.58,0,0,1-4.07-1.77,4.82,4.82,0,0,1,1.25-6.69,6.55,6.55,0,0,1,4.27-1.34,17,17,0,0,0-1-4l4.1-1.3-3.43-4,3-2.41,6,7.1-3,2.45-.78-.94-1.52.42a19.39,19.39,0,0,1,.57,3.62,17.39,17.39,0,0,1,5.34,4.52Zm-8.5-3.7a1.2,1.2,0,0,0-.37,1.54c.85,1.16,2.32-1,2.46-2.18A3.3,3.3,0,0,0,186.72,270.33Z"/><path class="cls-12" d="M228.41,268.49a10.19,10.19,0,0,1,0,2.16c-.16.73-.08.79-.56,1.16a2.27,2.27,0,0,1-.58.38c-.17,0-.49.12-1,.21s-.92.16-1.26.2l-1.77.16a31.69,31.69,0,0,1-3.26.19c-1.29-.06-1.59-.32-1.68-1.28l-.35-3.7-.76.07c-.2,3.06-2.29,5.06-6.73,6.17l-1.24-2.45a16.9,16.9,0,0,1-1,2.73l-2.86-3.11a15,15,0,0,0,.71-3.95,61,61,0,0,0-.36-7.06l-.62-6.61,8.79-.82-.18-1.86,3.94-.37.18,1.86,8.69-.82.27,2.87-3.45.32.06.64,3-.28.21,2.2-1.79.17a14.56,14.56,0,0,0,2.71,1.48l-1.17,1.78.56,5.91.58-.16c.24.72.41,1.3.53,1.76Zm-17.75.16-.58-6.24-.82-1.11.15,1.66a28.33,28.33,0,0,1-.17,8.4c2.82-.69,4.1-1.6,4.34-3Zm-1.14-9.55-.21-2.2,2.43-.23-.06-.64-2.89.27.39,4.17A14.66,14.66,0,0,0,211,259Zm5,2.82.33-.38-2.59.25-.11-1.11a9.09,9.09,0,0,1-1.43,1.6Zm2.11,1.73-2.74.26,0,.46,2.75-.26Zm.24,2.52-.05-.49-2.74.26.05.49ZM218,258.3l-.2-2.2,2.42-.23-.06-.64-5.41.51.06.64,2.45-.23.2,2.2-1.22.12,1.66.83a7.63,7.63,0,0,0,1.69-1.15Zm-2.77,2.58,1.34,0c-.63-.41-1.11-.74-1.42-.93Zm2.17-.79-.61.82h1.38Zm1.08,1.45,7.08-.66a16.08,16.08,0,0,1-1.87-1.43l.12,1.25-3.11.29-.12-1.23a13.7,13.7,0,0,1-1.92,1.59Zm4.34,1.52-2.74.26,0,.46,2.74-.25Zm.24,2.52,0-.49-2.74.26,0,.49Zm-.73,2-1,.1.09,1c.17,0,.48-.09.61-.11Zm-.75,2.54a.25.25,0,0,0,.27.25,13.33,13.33,0,0,0,1.5-.09c1.44-.14,1.8-.24,1.87-.84C224.07,269.67,222.86,269.9,221.62,270.09Zm4-2.84-1.11.11a4.37,4.37,0,0,1-.21.83l.87-.18c.36-.08.58-.13.63-.13Z"/><path class="cls-12" d="M240.25,249a31.46,31.46,0,0,1-.48,3.62l11.34-1.06.3,3.21-3.48.32a22.32,22.32,0,0,1-2.52,8.62,64.3,64.3,0,0,1,6.63,3.84l-2.24,2.71a69.71,69.71,0,0,0-6.48-3.81c-2.39,2.44-6.11,4.15-11.15,5.22l-.9-3c3.9-.88,6.79-2.14,8.59-3.79-1.49-.6-3-1.15-4.62-1.62-.47.61-.82,1.09-1.06,1.39l-3.06-1.82a22.89,22.89,0,0,0,3.64-6.49l-5.29.5-.3-3.21,6.54-.61c.25-1.21.48-2.5.65-3.87Zm3.81,6.46L239,256a25.28,25.28,0,0,1-1.91,4.45,42.78,42.78,0,0,1,5,1.76A18.69,18.69,0,0,0,244.06,255.49Z"/><path class="cls-11" d="M260.8,261.11l1.64,2.19-4.51,3.26A13.93,13.93,0,0,1,255.21,254l.52-1.83,3.69.91-.47,1.85a11.21,11.21,0,0,0,.53,7.16ZM274.92,266c-.48-.58-1.09-1.31-1.91-2.15a5.9,5.9,0,0,1-1.08,2.43,5.37,5.37,0,0,1-3.7,2.15,4.78,4.78,0,0,1-4.16-1.69,4.66,4.66,0,0,1-.87-3.45,5.16,5.16,0,0,1,2-3.57,6.6,6.6,0,0,1,4.5-1.36,37.7,37.7,0,0,0-.43-4.29l-6.78.64-.34-3.63,6.09-.57a21.18,21.18,0,0,0-1.08-2.81l3.66-1.33c.12.21.73,1.76,1.39,3.77l3.14-.29.34,3.62-2.57.24a33.91,33.91,0,0,1,.42,5.89,14.73,14.73,0,0,1,4.05,3.67Zm-8.05-2.26c-.05.5.17.95.78.94,1.21,0,1.54-1.48,1.71-2.56a1.39,1.39,0,0,0-.47,0A2.2,2.2,0,0,0,266.87,263.7Z"/><path class="cls-11" d="M282.16,259.4c2,2,3.73,3.67,5.12,5.1l-2.65,2.32c-1.13-1.25-2.81-2.9-5-4.94Z"/><path class="cls-13" d="M307.33,262.77l-5.23-17.55,4.21-.39,3.14,13.46h.05l.41-13.8,5-.48,3,13.49h0l.58-13.81,4.12-.39L320.8,261.5,316,262l-3.14-13.47h-.05l-.58,13.81Z"/><path class="cls-13" d="M329.42,255.43c.4,1.94,1.53,2.6,3.85,2.38a13.31,13.31,0,0,0,3.63-1l.27,2.84a17.21,17.21,0,0,1-4.23,1c-4.43.41-7.15-1.65-7.55-6s1.58-6.82,5.62-7.2,6.14,1.62,6.55,6a7.82,7.82,0,0,1,0,1.2Zm4.33-2.78c-.2-1.83-1-2.67-2.41-2.54s-2.16,1-2.14,3Z"/><path class="cls-13" d="M340.78,259.63l-1.72-18.37,3.94-.37.65,6.9h.05a5.3,5.3,0,0,1,3.53-1.86c3-.29,5.19,1.91,5.59,6.14a7.74,7.74,0,0,1-.94,5,4.47,4.47,0,0,1-3.41,2.07,4.93,4.93,0,0,1-4.07-1.49h0l.1,1.62ZM346.16,249a2.5,2.5,0,0,0-1.66.82,2,2,0,0,0-.59,1.57l.28,3a2,2,0,0,0,.88,1.43,2.5,2.5,0,0,0,1.77.5c1.5-.14,2.34-1.43,2.11-3.91S347.8,248.84,346.16,249Z"/><path class="cls-11" d="M376.84,246.16l-3.14.3a24.71,24.71,0,0,1-1.19,5.47,24.34,24.34,0,0,1-4.11,7.3L365.3,257a21.68,21.68,0,0,0,3.5-6.21,17.53,17.53,0,0,0,.94-4l-6.45.6.59,3,1.86-.43.54,2.65-5.62,1.19-1.24-6.08-3.79.35-.35-3.7,3.43-.32-.91-4.66,3.82-.7.94,5,7.29-.68a31.38,31.38,0,0,0-1-5.29l3.82-.86a36.28,36.28,0,0,1,1.06,5.78l2.77-.26Z"/><path class="cls-11" d="M400,236.31a17.91,17.91,0,0,1-5.89,8l1.15,12.25-3.94.37-1-10.31a34.26,34.26,0,0,1-9.5,2.72l-.62-3.7c3.82-.63,7.31-1.4,10.45-3.45a13.87,13.87,0,0,0,4.68-4.86l-1.44-.56,1.06-2.49Z"/><path class="cls-11" d="M409,254.83l-2-21,3.85-.36,2,21ZM425.63,243l-1.83,6a29.62,29.62,0,0,1-6.3-2.27,18.55,18.55,0,0,1-5.11-4.22l3-2.65a18.17,18.17,0,0,0,3.22,2.94,15.34,15.34,0,0,0,3.74,1.7l.63-2.26Z"/><path class="cls-11" d="M443.12,247.65s-4.71,3.21-4.71,3.21c-1.28-1.81-4.88-7.25-2.9-17.17l3.85.7c-1.36,6.87.07,10.51.75,12l1.44-1Zm9.74-9-2.41-1.45,1.11-1.81a5.63,5.63,0,0,0-4.78-.17,22.64,22.64,0,0,0-2.39,1.12l-1.76-3.47a19.52,19.52,0,0,1,4.87-1.82c2.38-.39,4.93.13,8.54,2.61ZM447,245.26a5.13,5.13,0,0,0,2.91,1.51,4.42,4.42,0,0,0,3.36-2.07L456.4,247a8.4,8.4,0,0,1-5.94,3.59,8.49,8.49,0,0,1-6.13-2.38Z"/><path class="cls-10" d="M488.69,244.09a9.34,9.34,0,0,1-.05,2.15c-.15.73-.07.8-.55,1.16a2.13,2.13,0,0,1-.59.38c-.17,0-.48.12-1,.22s-.92.16-1.27.19l-1.76.16a31.71,31.71,0,0,1-3.27.19c-1.29,0-1.58-.32-1.67-1.28l-.35-3.7-.76.08c-.21,3.05-2.29,5.05-6.73,6.16l-1.25-2.45a16,16,0,0,1-1,2.73L465.61,247a14.58,14.58,0,0,0,.72-3.95A61.41,61.41,0,0,0,466,236l-.62-6.62,8.8-.82-.18-1.86,3.94-.37.18,1.86,8.69-.82.27,2.87-3.45.32.06.64,3-.28.21,2.2-1.79.17a14,14,0,0,0,2.71,1.48l-1.17,1.79.56,5.9.57-.15c.24.71.42,1.29.54,1.75Zm-17.75.15-.58-6.24-.83-1.11.16,1.67a28.62,28.62,0,0,1-.17,8.39c2.82-.69,4.09-1.6,4.34-3Zm-1.14-9.55-.21-2.2,2.43-.23-.06-.64-2.89.28.39,4.16a13.84,13.84,0,0,0,1.86-1.51Zm5,2.82.33-.37-2.59.24-.11-1.1a9.05,9.05,0,0,1-1.43,1.59Zm2.11,1.73-2.74.26,0,.46,2.74-.25Zm.24,2.52-.05-.49-2.74.26,0,.49Zm1.21-7.87-.21-2.2,2.43-.23-.06-.64-5.41.51.06.64,2.44-.23.21,2.2-1.22.12,1.66.83a7.87,7.87,0,0,0,1.69-1.15Zm-2.77,2.59,1.33,0c-.63-.41-1.1-.74-1.42-.93Zm2.17-.8-.61.82h1.38Zm1.08,1.45,7.07-.66A16.82,16.82,0,0,1,484,235l.12,1.25-3.11.29-.12-1.23a13.7,13.7,0,0,1-1.92,1.59Zm4.34,1.52-2.74.26,0,.47,2.74-.26Zm.24,2.53-.05-.49-2.74.25,0,.49Zm-.73,2-1,.09.09.95c.17,0,.48-.09.61-.1Zm-.75,2.54c0,.14.09.23.27.24a13.44,13.44,0,0,0,1.5-.09c1.44-.13,1.8-.24,1.87-.84C484.35,245.26,483.14,245.5,481.9,245.69Zm4-2.85-1.11.11a6.67,6.67,0,0,1-.21.83l.87-.18c.36-.08.58-.13.63-.13Z"/><path class="cls-10" d="M508.87,236.44c1.61,2.61,3.11,5.26,4.55,7.94L510.14,246l-.93-1.72c-4.88,1-9,1.64-12.5,2.09l-.5-3.21c.56-.08,1.46-.19,2.73-.38a63,63,0,0,0,1.73-6.32l-4.73.45-.22-2.35-1.85,2.67c-1.49-1.2-3.11-2.31-4.76-3.39l1.9-2.62a47.36,47.36,0,0,1,4.7,3.19l-.07-.71,6.12-.58-.28-3-5.07.48-.29-3.14,5.07-.47-.23-2.38,3.82-.36.23,2.38,5.48-.51.3,3.13-5.49.51.28,3,6.57-.62.3,3.21-7.69.72c-.4,1.82-.93,3.82-1.58,6.08.56-.08,1.39-.23,2.53-.44l1.84-.34c-.24-.45-.88-1.55-2-3.3Zm-12.21,2.25a30.56,30.56,0,0,1-2.7,8.68l-3.19-1.63a35.91,35.91,0,0,0,2.64-7.9Zm-5.21-13.07a47,47,0,0,1,4.34,2.78l-1.86,2.79c-1.17-.88-2.62-1.83-4.35-2.88Z"/><path class="cls-11" d="M531.8,227.49l-.16,1.18a6.7,6.7,0,0,1,3.31,1.88,17.44,17.44,0,0,1,2-.88l-.33-1.13,2.67-.79,1.42,4.8a22.8,22.8,0,0,0-3.77,1.2,25.83,25.83,0,0,1,1,3.07l-3.62.88c-.2-.8-.38-1.42-.56-1.95a7.35,7.35,0,0,0-1.88,2.33c-.34.8-.18,1.5,1.39,1.6a25.47,25.47,0,0,0,6.47-1l.77,3.71a35,35,0,0,1-7,1.1,5.36,5.36,0,0,1-4.84-2.09c-2.23-3.22.43-6.73,2.77-8.66a6.75,6.75,0,0,0-4.08-.63l.59-4.23-5.27.5-.35-3.75,6.25-.59.36-2.48,3.68.5-.22,1.62,9.89-.92.35,3.74Z"/><path class="cls-11" d="M562.68,240.92l-6-1.39.67-2.63,2.32.57c.66-2.51.82-5.24-.76-6.82a4.56,4.56,0,0,0-2-1.17l-2.79,11.67-3.86-.92,2.75-11a23,23,0,0,0-5.58,1.34l-1.22-3.54a22.38,22.38,0,0,1,7.7-1.63l1.3-5.91,3.77.73-1.22,5.63A9.83,9.83,0,0,1,562,228a8.17,8.17,0,0,1,2,6A22.23,22.23,0,0,1,562.68,240.92Zm3.26-9.45a8.79,8.79,0,0,0-4.9-7.2l1.58-3.48a12.74,12.74,0,0,1,7.14,10.32Z"/><path class="cls-11" d="M578.63,230.83l1.5,2.25-4.94,3.45a16.7,16.7,0,0,1-2.77-5.07c-1.1-3.58-.54-6.28.7-9.92l3.67,1.21c-1.13,3.26-1.69,6,0,9.34Zm13.6-5.65-2.35.22a19,19,0,0,1,.29,3.11c.06,4.07-1.06,6.84-3.41,10.2l-3.21-2.1c1.78-2.56,2.88-4.79,2.74-8.18a20.17,20.17,0,0,0-.3-2.67l-7.62.72-.34-3.65,7-.66a34.94,34.94,0,0,0-1.72-4.09l3.54-1.56A51.38,51.38,0,0,1,589,221.8l2.91-.27Z"/><path class="cls-11" d="M604.25,222.37l-2.14,12.53-3.76-.64,1.91-11.52-4.31.41-.36-3.75,5.27-.49c.13-.73.24-1.39.65-3.92l3.75.54c-.15,1-.28,2.05-.43,3l6.88-.64.35,3.74Zm13.54,10.31c-2,2.44-5,4.06-8.27,3.22a7.1,7.1,0,0,1-5.12-6.41l3.86-.48c.18,1.44.83,2.86,2.23,3.25,2.1.57,3.6-1.06,4.32-1.89Zm-2.59-3.93-2.57-1,.4-1.08a6.68,6.68,0,0,0-3.88.49l-1.34-3.48a11.1,11.1,0,0,1,9.28.51Z"/><path class="cls-11" d="M621,231.45a4,4,0,0,1,.91-3,3.89,3.89,0,0,1,2.77-1.47,4.1,4.1,0,0,1,4.48,3.7,3.89,3.89,0,0,1-.93,3,4,4,0,0,1-2.78,1.47,4.08,4.08,0,0,1-4.45-3.68Zm3.07.82a1.57,1.57,0,1,0-.21-2.2A1.57,1.57,0,0,0,624,232.27Z"/></g></g></g></svg>