<svg xmlns="http://www.w3.org/2000/svg" viewBox="0 0 360.86 101.86"><defs><style>.cls-1{fill:#fff;}.cls-2{fill:#4aa9a4;}.cls-3{fill:#283c5f;}.cls-4{fill:none;stroke:#283c5f;stroke-linecap:round;stroke-linejoin:round;stroke-dasharray:6.98 6.98;}</style></defs><title>share</title><g id="レイヤー_2" data-name="レイヤー 2"><g id="product-page"><rect class="cls-1" x="0.03" width="360.83" height="101.85" rx="10.21" ry="10.21"/><path class="cls-2" d="M0,60.78H360.84a0,0,0,0,1,0,0V91.86a10,10,0,0,1-10,10H10.14A10.14,10.14,0,0,1,0,91.72V60.78A0,0,0,0,1,0,60.78Z"/><path class="cls-3" d="M33.23,43.42V38.49h19.6v4.93H46.08V64H40V43.42Z"/><path class="cls-3" d="M60,64l-4.13-18.2h5.67l2.06,13.65h.07l2.24-13.65h6.51l2.24,13.65h.07l2.07-13.65h5.53L78.21,64H71.49l-2.35-13.3h-.07L66.73,64Z"/><path class="cls-3" d="M92.73,37.79v4.55h-6V37.79Zm0,8.05V64h-6V45.84Z"/><path class="cls-3" d="M101,39.89h5.68v6.65h5.7v4h-5.7v6.3a6.32,6.32,0,0,0,.38,2.8,2.16,2.16,0,0,0,1.82.6A10.34,10.34,0,0,0,112,59.7v4.23a19.88,19.88,0,0,1-4.52.46c-2.38,0-4.06-.49-5-1.51S101,60,101,57.39v-6.9H97.35v-4H101Z"/><path class="cls-3" d="M119.82,39.89h5.67v6.65h5.71v4h-5.71v6.3a6.27,6.27,0,0,0,.39,2.8,2.14,2.14,0,0,0,1.82.6,10.33,10.33,0,0,0,3.11-.49v4.23a19.82,19.82,0,0,1-4.52.46c-2.37,0-4.06-.49-5-1.51s-1.43-2.87-1.43-5.49v-6.9h-3.68v-4h3.68Z"/><path class="cls-3" d="M140.19,56.58c.31,2.8,1.82,3.89,5.14,3.89a19.6,19.6,0,0,0,5.29-1v4.06a24.24,24.24,0,0,1-6.12.84c-6.34,0-9.91-3.29-9.91-9.45s3.15-9.45,8.92-9.45S152,48.6,152,54.87a11.38,11.38,0,0,1-.14,1.71Zm6.51-3.36c0-2.62-1-3.92-3.08-3.92-2.2,0-3.19,1.09-3.43,3.92Z"/><path class="cls-3" d="M161.37,64h-5.82V45.84h5.64v3.5h.07a8.89,8.89,0,0,1,7.35-3.5h.7v4.27h-.7c-4.51,0-7.24,2.41-7.24,6.23Z"/><path class="cls-3" d="M203.61,67c-5.63-2.74-9-6.31-10.08-10.79-.84-3.67-.14-7.77,2.07-12.11l-12.22,1-.63-7.39,3.88-.31.21,2.2,24.23-1.85.38,5.25-9,.66c-2.24,3.43-4.27,7.63-3.43,11.31.66,2.73,3.25,5.14,7.42,7.07ZM204,54l-1-5.15,3.36-.66,1,5.25Zm4.76.31-.95-5.18,3.33-.7.94,5.29Z"/><path class="cls-3" d="M232.07,53.4l-14.18-.07V47.87l14.21.07Zm1.05-7.56L218,42.09l1.37-5.21,15,3.71Zm-7,20.86-2.91-7,3.68-1.51.84,2.1a36.31,36.31,0,0,0,8.47-5.63A30.61,30.61,0,0,0,242.53,46l4.87,2.49a40.62,40.62,0,0,1-4.38,7C238.61,60.61,232.87,64,226.08,66.7Z"/><path class="cls-3" d="M279.28,59.38v4.94H255.9V59.38h9.35v-10l-6.87.49-.49-6.44,3.61-.28.14,1.68,15.68-1.15.39,4.86-7.28.46V59.38Z"/><path class="cls-3" d="M305.92,52.91l3.43-9H287.92V38.59h29.51L311.17,54.8ZM292.16,63.09c3.67-3.36,6.48-7.52,6.69-12.39h-2.39V46.85h7.88c.11,8.12-2,14.21-8.09,19.88Z"/><rect class="cls-4" x="10.79" y="9.79" width="339.66" height="83.99" rx="13.58" ry="13.58"/></g></g></svg>