<svg xmlns="http://www.w3.org/2000/svg" viewBox="0 0 33.22 31.81"><defs><style>.cls-1{fill:#faf7d9;}</style></defs><title>star</title><g id="レイヤー_2" data-name="レイヤー 2"><g id="レイヤー_1-2" data-name="レイヤー 1"><path class="cls-1" d="M18.56,1.21,22,8.2a2.18,2.18,0,0,0,1.64,1.19l7.71,1.12a2.18,2.18,0,0,1,1.21,3.71L27,19.66a2.18,2.18,0,0,0-.62,1.92l1.32,7.69a2.18,2.18,0,0,1-3.16,2.29l-6.9-3.63a2.18,2.18,0,0,0-2,0L8.7,31.56a2.17,2.17,0,0,1-3.15-2.29l1.32-7.69a2.18,2.18,0,0,0-.63-1.92L.66,14.22a2.18,2.18,0,0,1,1.2-3.71L9.58,9.39A2.15,2.15,0,0,0,11.21,8.2l3.45-7A2.18,2.18,0,0,1,18.56,1.21Z"/></g></g></svg>