<svg xmlns="http://www.w3.org/2000/svg" viewBox="0 0 42.5 594.9"><defs><style>.cls-1{fill:#fff;}</style></defs><title>アセット 29</title><g id="レイヤー_2" data-name="レイヤー 2"><g id="レイヤー_8" data-name="レイヤー 8"><path class="cls-1" d="M12.42,1.21c-.33,0-.5-.14-.5-.45s.17-.45.5-.45q7.43,0,14.71-.15T41.85,0a.4.4,0,0,1,.45.45c0,2.22,0,4.43-.16,6.61S42,11.46,42,13.68a.4.4,0,0,1-.45.45c-.4,0-.59-.15-.59-.45V1.75a.53.53,0,0,0-.2-.36.69.69,0,0,0-.38-.18Z"/><path class="cls-1" d="M.27,40.37a.49.49,0,0,1,0-.23c.77-2,1.59-4.06,2.43-6.08S4.33,30,5,28c.36-1.15.66-2.31.92-3.49s.52-2.37.79-3.54A13.91,13.91,0,0,0,7,19.19a10.37,10.37,0,0,1,.38-1.69c.07-.14.12-.25.16-.31a.37.37,0,0,1,.3-.09,9.72,9.72,0,0,1,2,.27,23.69,23.69,0,0,1,2.56.74,27,27,0,0,1,2.72,1.13,15.52,15.52,0,0,1,2.48,1.44,8.38,8.38,0,0,1,1.8,1.69,3,3,0,0,1,.7,1.8,1.91,1.91,0,0,1-.48,1.34,2.59,2.59,0,0,1-1.14.79,3.12,3.12,0,0,1-1.42.18A2.46,2.46,0,0,1,15.75,26c-.06,0-.12-.29-.18-.78s-.13-1-.2-1.64-.15-1.19-.23-1.76a6.66,6.66,0,0,0-.2-1.12.5.5,0,0,0-.4-.23,5.44,5.44,0,0,0-.66.92l-1,1.65c-.37.62-.76,1.29-1.14,2s-.75,1.36-1.06,2-.58,1.16-.79,1.64a3.38,3.38,0,0,0-.32.94.49.49,0,0,0,.23.43,2,2,0,0,0,.54.27,5.1,5.1,0,0,0,.63.2,5.26,5.26,0,0,1,.5.18l.09.19a1.11,1.11,0,0,1-.43.63.74.74,0,0,0-.34.67V57.6c0,.36-.22.64-.68.86A8,8,0,0,1,8.55,59a11.22,11.22,0,0,1-1.76.27c-.57,0-1,.07-1.25.07a.4.4,0,0,1-.46-.45V36.58c0-.2-.08-.31-.26-.31a1.68,1.68,0,0,0-1,.54,15,15,0,0,0-1.26,1.26L1.33,39.46a7.36,7.36,0,0,1-1,.95ZM21.51,47.7H18.9l-1.87,0q-1,0-1.8,0l-1.44,0a4.26,4.26,0,0,1-.74-.07L13,47.47a.25.25,0,0,1,.13,0h1l1.71,0c.64,0,1.32,0,2,0s1.36,0,2,0l1.51,0a3.49,3.49,0,0,1,.69,0ZM38,24.93a3,3,0,0,1,.89.45,12.46,12.46,0,0,1,1.29.95,15.16,15.16,0,0,1,1.15,1.05c.32.35.49.61.49.79s-.17.4-.52.47a5.94,5.94,0,0,1-1.3.11c-.53,0-1.1,0-1.71-.08s-1.19-.09-1.71-.09a8.24,8.24,0,0,0-1.33.09q-.54.09-.54.45a.84.84,0,0,0,.65.78l1.06.39.13.17-.13.18a6.47,6.47,0,0,0-1.62,1.06c-.57.5-1.16,1-1.75,1.49s-1.19.93-1.76,1.32a2.8,2.8,0,0,1-1.57.59c-.3,0-.46-.16-.46-.5a4.06,4.06,0,0,1,.25-1.21c.17-.48.36-1,.59-1.58s.42-1.09.58-1.57A3.4,3.4,0,0,0,30.94,29a.47.47,0,0,0-.52-.49c-.36,0-.94,0-1.75-.09l-2.52-.18c-.88-.06-1.68-.1-2.41-.11a6.75,6.75,0,0,0-1.42.06.58.58,0,0,0-.45.46l.09.22c.36.36.7.68,1,1a5.83,5.83,0,0,1,.83.9,4.31,4.31,0,0,1,.59,1,4,4,0,0,1,.23,1.4,2.49,2.49,0,0,1-.32,1.21A2.57,2.57,0,0,0,24,35.64c0,.15,0,.24.09.27a2,2,0,0,0,.26.13,7.93,7.93,0,0,0,1.76.21c.93,0,1.93.06,3,0s2.06,0,3-.09a7.28,7.28,0,0,0,1.73-.2,2.24,2.24,0,0,0,.7-.52,7.84,7.84,0,0,0,.75-.85c.23-.32.47-.62.69-.9a5.73,5.73,0,0,1,.65-.7l.14,0a.24.24,0,0,1,.14,0,2.63,2.63,0,0,1,.87.48c.47.31,1,.66,1.49,1s1,.78,1.44,1.17a4.7,4.7,0,0,1,.74.77l-.13.18a49.5,49.5,0,0,1-5.56.22c-1.85,0-3.7,0-5.56,0a.4.4,0,0,0-.45.45v.9c0,.45,0,.92,0,1.42s0,.94.05,1.35.05.62.11.65l.27.13c.15,0,.38,0,.7,0s.64,0,1-.07a7,7,0,0,0,1-.13,2,2,0,0,0,.59-.18,2.65,2.65,0,0,0,.63-.7l.77-1.08c.26-.37.52-.71.76-1s.43-.45.58-.45a2.45,2.45,0,0,1,.93.49c.46.34.94.71,1.44,1.13s.93.83,1.33,1.24.58.67.58.78-.08.21-.25.27a3.43,3.43,0,0,1-.56.16,3.33,3.33,0,0,1-.61.09,3.75,3.75,0,0,1-.42,0c-1.2.07-2.4.1-3.58.12l-3.62,0a8.87,8.87,0,0,1-1,0,.65.65,0,0,0-.74.45,9.85,9.85,0,0,0-.37,1.65,14.29,14.29,0,0,1-.35,1.73,21,21,0,0,1-2,4.75,17,17,0,0,1-3.1,3.93,14.26,14.26,0,0,1-4.12,2.7,12.59,12.59,0,0,1-5,1,1.72,1.72,0,0,1-.4-.08l.09-.09,1.57-1.08q.77-.55,1.53-1.17a19.15,19.15,0,0,0,4.68-5.88,16.21,16.21,0,0,0,1.57-7.31,3.39,3.39,0,0,0,0-.45c0-.21-.12-.31-.27-.31H14.62c-.15,0-.22-.08-.22-.23s.07-.23.22-.23h8.6a.39.39,0,0,0,.45-.45v-4a.4.4,0,0,0-.45-.45h-9.4c-.22,0-.32-.1-.32-.31s.08-.2.25-.23a.83.83,0,0,0,.33-.09c.25,0,.68,0,1.31,0s1.28.07,2,.09,1.29.05,1.84.05a1.84,1.84,0,0,0,1-.14.76.76,0,0,0,.22-.58A7.33,7.33,0,0,0,20.09,34c-.19-.77-.42-1.55-.69-2.37s-.54-1.53-.82-2.16-.46-.94-.58-.94H14.13a.74.74,0,0,1-.22-.05c-.09,0-.14-.07-.14-.13a.65.65,0,0,1,.07-.29.23.23,0,0,1,.24-.16h6.75a.4.4,0,0,0,.46-.45V17.87c0-.28.14-.41.45-.41.14,0,.44,0,.87.07s.89.1,1.38.18a9.2,9.2,0,0,1,1.26.27c.36.1.54.22.54.33v9.32c0,.12.11.2.33.25a4.18,4.18,0,0,0,.72.07,2.37,2.37,0,0,0,.72-.1c.23-.06.34-.13.34-.22V17.87a.4.4,0,0,1,.45-.45c.19,0,.51,0,1,0s1,.08,1.45.16a8.68,8.68,0,0,1,1.34.29c.4.12.59.29.59.5v9a.42.42,0,0,0,.2.36.73.73,0,0,0,.42.14,5.43,5.43,0,0,0,1.73-.21,2.51,2.51,0,0,0,1-.56,4.09,4.09,0,0,0,.72-.92,6.72,6.72,0,0,1,1-1.24ZM30.2,49.41c0-.12.07-.18.22-.18a6.87,6.87,0,0,1,.9.25c.54.16,1.2.38,2,.65l2.57.88c.92.31,1.8.61,2.61.9l2.09.74c.58.21.93.35,1,.4s.32.17.32.32-.06.15-.18.27a3.26,3.26,0,0,1-.43.36l-.47.34a3.67,3.67,0,0,0-.32.24,4.83,4.83,0,0,0-.85,1.06,9.2,9.2,0,0,0-.54,1.15c-.15.39-.31.77-.47,1.15A6.6,6.6,0,0,1,38,59a.38.38,0,0,1-.32.22.69.69,0,0,1-.27-.09,20.46,20.46,0,0,1-2.29-1.77A21.16,21.16,0,0,1,32.78,55a16.37,16.37,0,0,1-1.84-2.79A6,6,0,0,1,30.2,49.41Zm12-1.85a.62.62,0,0,0-.16.1.29.29,0,0,1-.16,0H31.62a1.34,1.34,0,0,1-.52-.14.93.93,0,0,1-.43-.27c.18,0,.45,0,.81-.06s.73,0,1.1,0,.75,0,1.13,0l.92,0,.32-.13a22.66,22.66,0,0,0,1.39-1.83,14.5,14.5,0,0,1,1.4-1.73l.18-.05a3.87,3.87,0,0,1,.87.57c.41.31.84.66,1.29,1l1.28,1.1c.4.37.7.63.88.81l.09.23ZM35.33,19l.11-.07s.05,0,.11-.07a2.76,2.76,0,0,1,1,.27c.55.21,1.15.46,1.77.74s1.21.59,1.74.9.79.54.79.65-.07.13-.21.21a7.62,7.62,0,0,1-1,.42l-.33.14a5.14,5.14,0,0,0-1.33,1c-.44.45-.88.9-1.33,1.33a11.77,11.77,0,0,1-1.37,1.15,2.57,2.57,0,0,1-1.51.49c-.12,0-.17-.09-.16-.29a4,4,0,0,1,.12-.67,6.37,6.37,0,0,1,.2-.75c.07-.23.13-.4.16-.49.23-.84.47-1.67.69-2.5S35.17,19.88,35.33,19Z"/><path class="cls-1" d="M12.74,84l.13.14a5.64,5.64,0,0,1-.18,1.39A12.6,12.6,0,0,1,12.24,87c-.18.48-.37,1-.56,1.44a11.58,11.58,0,0,0-.47,1.35,18.79,18.79,0,0,0-.77,5.31,10.15,10.15,0,0,0,.29,2.14,13.15,13.15,0,0,1,.34,2.5,4.27,4.27,0,0,1-.4,2.09c-.3.59-1,.88-2,.88a3.66,3.66,0,0,1-2.23-.7,5.61,5.61,0,0,1-1.62-1.82,11.49,11.49,0,0,1-1.08-2.54,24.22,24.22,0,0,1-.68-2.86A25.7,25.7,0,0,1,2.75,92c-.07-.88-.09-1.64-.09-2.27a25.26,25.26,0,0,1,.42-4.61c.29-1.52.6-3,1-4.55s.66-3,.94-4.54a24.57,24.57,0,0,0,.43-4.61,4.6,4.6,0,0,0-.25-1.51,14,14,0,0,0-.54-1.42q-.29-.67-.54-1.35a3.91,3.91,0,0,1-.24-1.31c0-.29.13-.45.4-.45a5.11,5.11,0,0,1,2.5.72A9.77,9.77,0,0,1,9,67.91a9.14,9.14,0,0,1,1.69,2.38,5.56,5.56,0,0,1,.65,2.52,8.61,8.61,0,0,1-.85,3.58c-.57,1.24-1.19,2.54-1.87,3.89a44.94,44.94,0,0,0-1.84,4.23A12.67,12.67,0,0,0,6,89.05c0,.18,0,.45,0,.82a6.91,6.91,0,0,0,.16,1,2.55,2.55,0,0,0,.36.88.75.75,0,0,0,.65.38c.45,0,.93-.35,1.44-1.06a21.87,21.87,0,0,0,1.51-2.43q.74-1.36,1.35-2.7a11,11,0,0,1,1-1.87Zm14.87-9.13c0-1,0-1.88.05-2.68a5.67,5.67,0,0,0-.27-2.09,3.2,3.2,0,0,0-1.17-1.53,7.36,7.36,0,0,0-2.67-1l-.13-.17a.3.3,0,0,0,0-.1.14.14,0,0,1,0-.09c0-.35.21-.67.7-.94a7.12,7.12,0,0,1,1.85-.65,10.26,10.26,0,0,1,2.42-.23,9.15,9.15,0,0,1,2.41.36,4.65,4.65,0,0,1,1.85,1,2.4,2.4,0,0,1,.74,1.86A6.44,6.44,0,0,1,32.9,71a6.09,6.09,0,0,0-.45,2.34c0,.28.14.41.45.41a3,3,0,0,0,1-.18l1-.38q.49-.21,1-.39a3.24,3.24,0,0,1,1-.18,4.24,4.24,0,0,1,1,.14,2.93,2.93,0,0,1,1,.43,2.74,2.74,0,0,1,.72.72,1.77,1.77,0,0,1,.29,1,2.13,2.13,0,0,1-.47,1.44,3,3,0,0,1-1.22.83,7.69,7.69,0,0,1-1.69.45l-1.84.32a11.89,11.89,0,0,0-1.66.4,2.84,2.84,0,0,0-1.22.74,8.77,8.77,0,0,0-.09,1.22V81.5c0,.62,0,1.3,0,2s0,1.45,0,2.18a18.33,18.33,0,0,0,.18,2.14,8.17,8.17,0,0,0,.52,1.89,1.7,1.7,0,0,0,.9.74c.48.23,1.06.48,1.73.74s1.39.58,2.14.91a9.71,9.71,0,0,1,2,1.21A6.83,6.83,0,0,1,40.77,95a4.27,4.27,0,0,1,.63,2.34A2.4,2.4,0,0,1,40.86,99a2,2,0,0,1-1.57.63A2.57,2.57,0,0,1,37.6,99a11.12,11.12,0,0,1-1.4-1.35,15.9,15.9,0,0,0-1.35-1.37,2.31,2.31,0,0,0-1.6-.63c-.08,0-.24.21-.47.63s-.46.89-.72,1.42-.52,1-.78,1.53a3.66,3.66,0,0,1-.68,1,6,6,0,0,1-1.31.72,8.76,8.76,0,0,1-1.62.5q-.86.18-1.68.27a14.26,14.26,0,0,1-1.51.09,13.2,13.2,0,0,1-2.86-.32,8,8,0,0,1-2.56-1,5.76,5.76,0,0,1-1.87-1.87,5.25,5.25,0,0,1-.72-2.86,5,5,0,0,1,.86-3,6.43,6.43,0,0,1,2.18-2,10.6,10.6,0,0,1,2.92-1.08,22,22,0,0,1,3.09-.43h.53a5.27,5.27,0,0,0,.7,0,1.7,1.7,0,0,0,.59-.18.43.43,0,0,0,.24-.41V80.1a.4.4,0,0,0-.45-.45H21a2.35,2.35,0,0,1-1.3-.56,10.77,10.77,0,0,1-1.49-1.33A9,9,0,0,1,17,76.16a2.84,2.84,0,0,1-.49-1.37.37.37,0,0,1,.41-.41,2,2,0,0,1,.76.18c.27.13.56.27.86.43a6.52,6.52,0,0,0,.93.43,2.65,2.65,0,0,0,1,.18h6.31a.77.77,0,0,0,.43-.18,2.25,2.25,0,0,0,.38-.32ZM18.23,95.26a1.81,1.81,0,0,0,.4,1.24,2.54,2.54,0,0,0,1,.72,4.37,4.37,0,0,0,1.28.32c.47,0,.89.06,1.29.06a15.73,15.73,0,0,0,2.25-.15,5.43,5.43,0,0,0,1.82-.61,3.18,3.18,0,0,0,1.24-1.3,5.14,5.14,0,0,0,.45-2.3.63.63,0,0,0-.37-.54,2.51,2.51,0,0,0-.85-.2,12,12,0,0,0-1.26-.09l-1.28,0h-1c-.48,0-1,0-1.57.09a6.21,6.21,0,0,0-1.62.41,3.48,3.48,0,0,0-1.29.88A2.13,2.13,0,0,0,18.23,95.26Z"/><path class="cls-1" d="M13.09,141.25a2.73,2.73,0,0,1-.85.07l-2.05.07-2.67.11c-1,.05-1.86.08-2.68.09l-2.14,0a6.07,6.07,0,0,1-1,0c-.37-.07-.47-.23-.32-.5,0,0,.14-.05.4-.07l.91,0,.94,0H7.22c1,0,2,0,3.08.05l1.22,0a8,8,0,0,1,1.17,0,.71.71,0,0,1,.31.09ZM30.6,158a.4.4,0,0,0-.45-.45H16.65a.4.4,0,0,0-.45.45v9.18a.4.4,0,0,0,.45.45H29.38c.12,0,.19,0,.19.13a.4.4,0,0,1-.45.46H16.47c-.12,0-.2.08-.22.26a3.93,3.93,0,0,0-.07.66c0,.25,0,.51-.07.76a1,1,0,0,1-.23.57,2.75,2.75,0,0,1-1,.65,8.23,8.23,0,0,1-1.36.38,11.83,11.83,0,0,1-1.41.18c-.47,0-.87,0-1.19,0a.38.38,0,0,1-.41-.26,1.66,1.66,0,0,1-.09-.5c0-1.53,0-3.07,0-4.61a41.79,41.79,0,0,1,.2-4.62c.06-.6.11-1.19.16-1.77s.06-1.18.06-1.78v-.32a2.88,2.88,0,0,0,0-.42,1,1,0,0,0-.09-.36.21.21,0,0,0-.2-.16,3.15,3.15,0,0,0-1.73.74c-.68.5-1.38,1-2.12,1.62s-1.46,1.13-2.18,1.62a3.51,3.51,0,0,1-1.93.74c-.19,0-.28-.05-.28-.17a.33.33,0,0,1,.12-.25l.2-.21c1.23-1.25,2.32-2.42,3.29-3.48a35.46,35.46,0,0,0,2.6-3.27,30.51,30.51,0,0,0,2.17-3.57c.65-1.28,1.32-2.75,2-4.43.23-.67.48-1.31.74-1.94a17,17,0,0,0,.65-2,.93.93,0,0,0,0-.5,2.85,2.85,0,0,1,0-.49,8.12,8.12,0,0,1,.25-1.69c.16-.73.33-1.48.49-2.25s.3-1.47.41-2.11a2.87,2.87,0,0,0,0-1.29,4.84,4.84,0,0,0-.76-.06l-1.58-.05-2,0H5.9c-.34,0-.47-.13-.41-.38a.43.43,0,0,1,.45-.39H28c.09,0,.25-.12.49-.38s.5-.54.77-.85l.78-.92c.26-.3.43-.5.52-.59l.23-.09a4.82,4.82,0,0,1,.85.54l1.64,1.17c.59.42,1.13.82,1.62,1.19s.77.59.84.66.17.36.06.47a2,2,0,0,1-.45.33,5.34,5.34,0,0,0-.56.41.77.77,0,0,0-.27.63V150c0,.33-.22.59-.68.79a8.12,8.12,0,0,1-1.55.47,15,15,0,0,1-1.71.25c-.55,0-1,.06-1.19.06s-.26-.11-.34-.35-.14-.52-.2-.84-.11-.61-.16-.9-.08-.48-.11-.6a1.23,1.23,0,0,1,.16-.43,1,1,0,0,0,.11-.43V134.28a.4.4,0,0,0-.45-.45H25.16l-1.87,0a4.85,4.85,0,0,0-.92.07.3.3,0,0,0-.14.13l-.09.18a4.74,4.74,0,0,0-.29.9c-.11.43-.2.87-.3,1.33s-.17.92-.26,1.37-.17.81-.23,1.09c-.12.45-.31,1.13-.58,2s-.58,1.86-.93,2.84-.69,1.89-1,2.74a7.5,7.5,0,0,1-.88,1.73v.32a2.54,2.54,0,0,1-.49,1.12c-.34.52-.72,1-1.15,1.6s-.87,1.08-1.29,1.58a10.61,10.61,0,0,1-.94,1,4.63,4.63,0,0,0-.49.43,1.69,1.69,0,0,0-.41.47.47.47,0,0,0,0,.38,1,1,0,0,0,.24.34,2.74,2.74,0,0,0,.59.2l1.19.36c.44.14.85.26,1.24.36a4.19,4.19,0,0,0,.68.16h13l.32-.14L32.58,154l.27-.09a7.34,7.34,0,0,1,1,.63,20.2,20.2,0,0,1,1.62,1.22c.56.45,1.05.87,1.49,1.28s.65.67.65.78a.48.48,0,0,1-.18.36,3.26,3.26,0,0,1-.4.34,2.85,2.85,0,0,0-.41.34.52.52,0,0,0-.18.36v10.62q0,.4-.72.63a10.62,10.62,0,0,1-1.66.36,17,17,0,0,1-1.83.16l-1.19,0-.31-.13-.14-.32ZM9.54,149a.63.63,0,0,1-.45.18,4.51,4.51,0,0,1-.54,0l-.74.05c-.38,0-.77,0-1.17,0a8.54,8.54,0,0,1-1.08-.06c-.32,0-.48-.14-.48-.29a.51.51,0,0,1,.09-.25c.07-.11.14-.16.23-.16h.92c.41,0,.81,0,1.22,0s.79.08,1.17.14A2.17,2.17,0,0,1,9.54,149Zm9.54-.14c.36,0,1,0,1.84,0l2.73,0q1.41,0,2.61,0a6.77,6.77,0,0,1,1.46.11,1,1,0,0,1-.27.18.69.69,0,0,1-.27.09h-8.1L18.9,149Zm2.79-7.56a2.23,2.23,0,0,0,.34-.13.81.81,0,0,1,.29-.09h4.68a.77.77,0,0,1,.54.22,3.29,3.29,0,0,1-.94.07c-.61,0-1.26,0-2,0s-1.37,0-2,0A3.49,3.49,0,0,1,21.87,141.25Zm13.37-.08a.24.24,0,0,1-.09-.19,2.3,2.3,0,0,1,.35-.63c.25-.35.51-.75.79-1.19s.57-.84.86-1.24l.56-.76.23,0,.22.09,3.74,3.73.09.23-.14.13h-6.3Z"/><path class="cls-1" d="M20.21,213.17a.5.5,0,0,1,.27-.28c1.37-.81,2.67-1.52,3.89-2.16s2.32-1.26,3.3-1.89a18.84,18.84,0,0,0,2.66-2,9.53,9.53,0,0,0,2-2.52,12.3,12.3,0,0,0,1.22-3.44,25.26,25.26,0,0,0,.4-4.82,20,20,0,0,0-.36-3.77,15.25,15.25,0,0,0-1.17-3.63,12.46,12.46,0,0,0-2.07-3.12,10.26,10.26,0,0,0-3.06-2.3,9,9,0,0,0-2.86-1,25,25,0,0,0-3-.17l-.38,0-.52,0a1.13,1.13,0,0,0-.47.09.39.39,0,0,0-.25.27,1.56,1.56,0,0,0,.38,1.12c.32.45.67,1,1.06,1.56A15.54,15.54,0,0,1,22.32,187a4.79,4.79,0,0,1,.5,2.13,20.07,20.07,0,0,1-.45,3.94A32.14,32.14,0,0,1,21,197.66a36.57,36.57,0,0,1-2.12,4.66,22.84,22.84,0,0,1-2.76,4.07,13.78,13.78,0,0,1-3.38,2.88,7.4,7.4,0,0,1-3.87,1.11,4.65,4.65,0,0,1-3.24-1.24,10,10,0,0,1-2.21-3,15.83,15.83,0,0,1-1.25-3.78,18,18,0,0,1-.41-3.49,15.86,15.86,0,0,1,1.75-7.42,18.8,18.8,0,0,1,4.64-5.78,21.5,21.5,0,0,1,6.57-3.74,22.16,22.16,0,0,1,7.52-1.33,19.34,19.34,0,0,1,6.86,1.24,17.78,17.78,0,0,1,5.71,3.47,16.75,16.75,0,0,1,3.92,5.31,15.74,15.74,0,0,1,1.46,6.82,13.82,13.82,0,0,1-1.64,6.75,16.21,16.21,0,0,1-4.3,5,19.17,19.17,0,0,1-6,3.11,22.9,22.9,0,0,1-6.84,1.05,5.78,5.78,0,0,0-.63,0A1,1,0,0,1,20.21,213.17ZM6,197a15.27,15.27,0,0,0,.15,1.92,12,12,0,0,0,.54,2.22A5.57,5.57,0,0,0,7.74,203a2.18,2.18,0,0,0,1.71.76,3.93,3.93,0,0,0,2.47-1,11.79,11.79,0,0,0,2.3-2.52,24.87,24.87,0,0,0,2-3.47A34.79,34.79,0,0,0,17.8,193a35.47,35.47,0,0,0,1-3.55,12.38,12.38,0,0,0,.38-2.7c0-.28,0-.63-.06-1.09a7.36,7.36,0,0,0-.27-1.32,4,4,0,0,0-.56-1.13,1.12,1.12,0,0,0-.9-.47,7,7,0,0,0-3,.68,11.32,11.32,0,0,0-2.72,1.79,16.89,16.89,0,0,0-2.32,2.57,19.1,19.1,0,0,0-1.82,3A17.12,17.12,0,0,0,6.39,194,12.27,12.27,0,0,0,6,197Z"/><path class="cls-1" d="M41.76,244.67c0,.12-.17.22-.43.31a1.93,1.93,0,0,1-.56.14H.9a.29.29,0,0,1-.32-.32c0-.18.11-.27.32-.27H13.32a.4.4,0,0,0,.45-.45V239a.78.78,0,0,0-.11-.41.73.73,0,0,1-.12-.41.64.64,0,0,1,.12-.38.66.66,0,0,0,.11-.38v-6.57a.4.4,0,0,0-.45-.45c-.15,0-.38,0-.67-.05s-.62,0-1,0a3.1,3.1,0,0,0-.86.11.43.43,0,0,0-.35.43v6.75c0,.18.11.28.35.29a4,4,0,0,0,.77,0,6.85,6.85,0,0,1,.77,0c.24,0,.36.07.36.22s-.07.14-.19.16l-.26,0a2.73,2.73,0,0,0-1.47.65c-.37.35-.78.72-1.21,1.1A6.92,6.92,0,0,1,8,241a5.44,5.44,0,0,1-2.49.47.4.4,0,0,1-.46-.45q0-3.33-.15-6.63t-.16-6.64c0-.27.15-.41.45-.41a4.5,4.5,0,0,1,1.8.39c.6.25,1.22.54,1.85.85s1.26.6,1.91.86a5.47,5.47,0,0,0,2,.38,1.72,1.72,0,0,0,.68-.14.56.56,0,0,0,.31-.58v-4.59a.4.4,0,0,0-.45-.45c-1.68,0-3.35,0-5,0s-3.31,0-4.95,0H3.15l-.38,0L2.25,224a.38.38,0,0,1,0-.43.42.42,0,0,1,.36-.2h30.1c.16,0,.35-.17.59-.52s.49-.72.77-1.15a11.3,11.3,0,0,1,.85-1.17,1.41,1.41,0,0,1,.9-.58,3,3,0,0,1,1,.52c.51.34,1,.74,1.61,1.19a17.58,17.58,0,0,1,1.51,1.3c.44.43.65.7.65.82s-.08.17-.26.17H28.94a.4.4,0,0,0-.45.46v4.9l.13.31.05.05.31.13a8.71,8.71,0,0,0,1.71-.06,2.91,2.91,0,0,0,1.1-.43,4.23,4.23,0,0,0,.9-.81l1.1-1.26.28-.13a4.64,4.64,0,0,1,1,.56c.47.31,1,.67,1.51,1.08s1,.78,1.49,1.15a10.13,10.13,0,0,1,.89.76l.1.27a.52.52,0,0,1-.3.2,2.16,2.16,0,0,0-.34.16,1.11,1.11,0,0,0-.33.25c-.11.1-.22.2-.34.29l-.09.22v7.07c0,.24-.2.44-.61.58a7.76,7.76,0,0,1-1.39.37c-.53.09-1,.15-1.53.2s-.84.06-1,.06a6.08,6.08,0,0,1-.7,0,.46.46,0,0,1-.3-.11.4.4,0,0,1-.08-.29,4,4,0,0,0-.09-.61c-.12-.51-.38-.79-.77-.85l-1.22-.19a.69.69,0,0,1-.24-.06c-.11-.05-.16-.1-.16-.16s.12-.26.36-.25l.77.09a3.35,3.35,0,0,0,.76.05c.24,0,.36-.13.36-.34v-6.75a.4.4,0,0,0-.45-.45c-.15,0-.38,0-.67-.05s-.62,0-.95,0a3.1,3.1,0,0,0-.86.11.43.43,0,0,0-.35.43v13.23a.39.39,0,0,0,.45.45h4.27a1.49,1.49,0,0,0,1.06-.47,8,8,0,0,0,.88-1.08c.27-.41.54-.81.83-1.22a2.23,2.23,0,0,1,1-.83,4.27,4.27,0,0,1,1,.58l1.41,1.08c.5.4,1,.79,1.4,1.17S41.52,244.46,41.76,244.67ZM.58,255.92a2.42,2.42,0,0,1,.46-.84c.29-.43.68-.93,1.14-1.48s1-1.14,1.53-1.76,1.08-1.18,1.58-1.71.93-.95,1.3-1.28.62-.5.74-.5.33.18.43.52A6.44,6.44,0,0,1,8,250.06c0,.45.07.89.09,1.31s0,.69,0,.81a9.71,9.71,0,0,1-.56,3.53,5.79,5.79,0,0,1-1.4,2.18,3.72,3.72,0,0,1-1.8,1,3.21,3.21,0,0,1-1.8-.09,2.94,2.94,0,0,1-2-2.85ZM27,255.64a1.61,1.61,0,0,0,1.21-.44,4.46,4.46,0,0,0,.77-1c.21-.39.4-.77.59-1.12a1.67,1.67,0,0,1,.67-.77.3.3,0,0,1,.22.29V253a4.5,4.5,0,0,0,.46,1.64,5.92,5.92,0,0,0,.74,1.14,5.39,5.39,0,0,0,.7.72c.2.18.31.31.31.4v.53a2.35,2.35,0,0,1-.7,1.79,4.93,4.93,0,0,1-1.82,1.05,10.86,10.86,0,0,1-2.5.49c-.91.07-1.82.12-2.72.13s-1.74,0-2.52,0-1.41-.07-1.89-.07H16.09a8.3,8.3,0,0,1-2.16-.27,4.46,4.46,0,0,1-1.76-.9,2.48,2.48,0,0,1-.79-1.85c-.06-1.59-.11-3.16-.15-4.72s-.1-3.13-.16-4.73c0-.23.1-.37.29-.4a3.61,3.61,0,0,1,.52-.05l1.24,0q.92,0,1.89.09a12.78,12.78,0,0,1,1.71.22c.49.11.74.25.74.43a.61.61,0,0,1-.18.43.65.65,0,0,0-.18.43v1.14c0,.6,0,1.24,0,1.92s0,1.29.05,1.83a3.21,3.21,0,0,0,.07.86,1.22,1.22,0,0,0,.35.27l.41.18Zm-4.37-2.52a10.19,10.19,0,0,1-.94-1.16c-.42-.57-.83-1.18-1.24-1.83s-.76-1.26-1.08-1.87a3.35,3.35,0,0,1-.47-1.3c0-.3.14-.45.4-.45a16.72,16.72,0,0,1,2.28.18,10.85,10.85,0,0,1,2.43.63,5.3,5.3,0,0,1,1.93,1.28,2.93,2.93,0,0,1,.79,2.1,2.39,2.39,0,0,1-.72,2,3.08,3.08,0,0,1-2,.59l-.68,0A3.76,3.76,0,0,1,22.63,253.12Zm-3.46-9a.4.4,0,0,0,.45.45h2.7a.4.4,0,0,0,.45-.45V224.55a.4.4,0,0,0-.45-.45h-2.7a.4.4,0,0,0-.45.45Zm1.21-6.16a5.68,5.68,0,0,1,1.27-.14.2.2,0,0,1,.22.22c0,.16-.08.23-.22.23H20.41a.4.4,0,0,1-.25,0A1.23,1.23,0,0,1,20.38,237.92Zm.14-7.66c0-.14.14-.19.43-.13a1.24,1.24,0,0,1,.51.18c0,.09-.13.14-.4.16S20.61,230.42,20.52,230.26Zm18.18,28.4a1.92,1.92,0,0,1-1.21-.38,7.13,7.13,0,0,1-1-.88,18.84,18.84,0,0,1-2.27-3.31c-.65-1.18-1.27-2.38-1.87-3.58-.15-.3-.35-.65-.58-1a4.65,4.65,0,0,1-.5-1.06c-.06-.18,0-.28.09-.29a2.19,2.19,0,0,1,.36,0,10.39,10.39,0,0,1,3.17.54,12.41,12.41,0,0,1,3.13,1.51,8.84,8.84,0,0,1,2.39,2.37,5.38,5.38,0,0,1,.94,3.05,3.68,3.68,0,0,1-.65,2.21A2.37,2.37,0,0,1,38.7,258.66Z"/><path class="cls-1" d="M7.7,295.56a2.07,2.07,0,0,1,.38.67,5,5,0,0,1,.22.95,8.28,8.28,0,0,1,.09,1q0,.49,0,.81a7,7,0,0,1-.57,3,5.34,5.34,0,0,1-1.39,1.91,4,4,0,0,1-1.83.9,3.48,3.48,0,0,1-1.82-.06,3,3,0,0,1-1.39-1A2.73,2.73,0,0,1,.86,302a2.59,2.59,0,0,1,.81-1.71,15.27,15.27,0,0,1,1.88-1.76c.73-.56,1.45-1.1,2.19-1.61a19.25,19.25,0,0,0,1.68-1.27Zm5.93-4.41c-.12.12-.3.32-.56.61s-.52.57-.81.85-.56.54-.83.77a1.22,1.22,0,0,1-.59.33H10.1A9.83,9.83,0,0,1,9,293.65a4.36,4.36,0,0,1-1-.23c-.29-.1-.43-.25-.43-.42V279.31a3.36,3.36,0,0,0-.32-1.19,2.48,2.48,0,0,0-.67-1,1.73,1.73,0,0,0-.88-.14c-.46,0-1,0-1.53,0l-1.62.09a6.43,6.43,0,0,1-1.1,0L1.15,277c-.17,0-.25-.12-.25-.27s.1-.27.31-.27l4.06,0c1.35,0,2.69,0,4.05,0h1.57c.33,0,.64,0,.92,0a2.33,2.33,0,0,0,.57-.07l.13-.29a.81.81,0,0,0,.09-.29c0-.36,0-.82-.07-1.39a16.11,16.11,0,0,0-.24-1.76,10.51,10.51,0,0,0-.46-1.66,2.59,2.59,0,0,0-.67-1.13,6.61,6.61,0,0,0-1.17,0H3.2a.2.2,0,0,1-.23-.23c0-.15.07-.22.23-.22H17.55c.33,0,.5-.25.52-.75A14.15,14.15,0,0,0,18,267a14.32,14.32,0,0,1-.07-1.67c0-.49.19-.74.52-.74a32.35,32.35,0,0,1,5.89.54l.3.07c.1,0,.15.09.15.25s-.13.35-.4.54a.71.71,0,0,0-.4.58v2.84a.41.41,0,0,1-.45.45H16.29c-.27,0-.41.12-.41.35a1,1,0,0,0,.3.63l.65.84a5.51,5.51,0,0,1,.65,1.1,3.43,3.43,0,0,1,.3,1.48c0,.13,0,.34,0,.64a6.06,6.06,0,0,1-.11.92,7.46,7.46,0,0,1-.22.85c-.09.26-.2.38-.32.38H8.19l-.14.1a1.07,1.07,0,0,0-.22.63c0,.24.26.5.79.8a16.21,16.21,0,0,0,1.82.91c.69.29,1.36.54,2,.74a5.93,5.93,0,0,0,1.33.29H27.9a1.09,1.09,0,0,0,.77-.38,8.35,8.35,0,0,0,.69-.84c.23-.29.45-.57.68-.83a1,1,0,0,1,.7-.38,3.16,3.16,0,0,1,1.19.43,17.67,17.67,0,0,1,1.71,1,13.34,13.34,0,0,1,1.53,1.19c.43.41.65.72.65.93a.38.38,0,0,1-.2.31c-.14.09-.29.19-.47.29a3.11,3.11,0,0,0-.48.34.55.55,0,0,0-.2.4v8.33c0,.33-.22.6-.68.81a6.42,6.42,0,0,1-1.55.49c-.58.12-1.15.21-1.71.28s-1,.09-1.19.09a.38.38,0,0,1-.4-.23,1.89,1.89,0,0,1-.12-.52c0-.19,0-.39,0-.61a.83.83,0,0,0-.09-.44L28.4,291H14Zm16.92,6.3a4.36,4.36,0,0,0,.1,2.23,4.46,4.46,0,0,0,.76,1.41,4.77,4.77,0,0,0,.86.84c.27.19.4.36.4.52v.49a2.07,2.07,0,0,1-.7,1.62,4.86,4.86,0,0,1-1.82,1,10.89,10.89,0,0,1-2.5.47c-.91.08-1.81.11-2.7.11s-1.71,0-2.47,0-1.36,0-1.78,0c-.6,0-1.42,0-2.47.07a16.89,16.89,0,0,1-3.11-.15,7.61,7.61,0,0,1-2.63-.86A2.19,2.19,0,0,1,11.38,303v-8.37c0-.3.14-.45.41-.45a2.59,2.59,0,0,1,.65.07l.65.15a8.82,8.82,0,0,0,1.42.16c.47,0,.94,0,1.42,0,.09,0,.25,0,.47,0h.7a4.76,4.76,0,0,0,.63-.09c.18-.05.27-.14.27-.3a1.81,1.81,0,0,0,0-.29.77.77,0,0,1-.05-.29.41.41,0,0,1,.27-.36,2.22,2.22,0,0,1,.63-.2,3.51,3.51,0,0,1,.72-.07h.54c.57,0,1.22,0,1.93.11a7.63,7.63,0,0,1,2,.47,4.43,4.43,0,0,1,1.53,1.06,2.74,2.74,0,0,1,.63,1.87,2.44,2.44,0,0,1-.75,2,3.05,3.05,0,0,1-2,.63,2,2,0,0,1-1.51-.68A11.18,11.18,0,0,1,20.63,297c-.37-.54-.74-1-1.1-1.49a1.49,1.49,0,0,0-1.12-.67,1.66,1.66,0,0,0-.88.25.79.79,0,0,0-.43.74c0,.81,0,1.63,0,2.45s0,1.64,0,2.45a2.52,2.52,0,0,0,.61.32,1.83,1.83,0,0,0,.65.18h6.62a4.66,4.66,0,0,0,3.21-1,8.66,8.66,0,0,0,2-2.79l.22-.14Zm-1.93-7.16.05,0,.13-.32v-8.05a.4.4,0,0,0-.45-.45H13.63c-.3,0-.44.15-.44.45v7.79c0,.24.14.38.44.45a6.25,6.25,0,0,0,2,.13,14.56,14.56,0,0,1,2,0c1.81.06,3.59.1,5.36.13l5.35.09Zm-14.35-4.5-.1-.13a.21.21,0,0,1,.14,0H27.67a.18.18,0,0,1,.14,0l-.09.13-.31.14H14.58ZM19,276.93a.24.24,0,0,1-.18-.09c0-.21.29-.34.81-.41s1.07-.09,1.68-.09,1.22,0,1.8.07,1,.07,1.15.07.24,0,.27-.09.07-.15.14-.27a4.42,4.42,0,0,0,.17-1.06c0-.43.06-.89.07-1.37s0-.94,0-1.4v-1.12a4,4,0,0,0,0-.43q0-.28,0-.63a4,4,0,0,1,.09-.58c.05-.17.13-.25.25-.25h6.39l.32-.14a19.09,19.09,0,0,0,1.32-1.68c.41-.59.84-1.15,1.29-1.69l.27-.14a5.18,5.18,0,0,1,1,.63c.52.4,1.07.82,1.64,1.29s1.08.91,1.53,1.33.68.67.68.76-.1.23-.27.23H38.25l-1.84,0-2.19,0H32.11l-1.65,0a4.76,4.76,0,0,0-.8.07l-.28.59a1,1,0,0,0,.52.54,3.33,3.33,0,0,0,.81.26l.81.18a.64.64,0,0,1,.48.32c0,.12-.35.37-.95.74l-2,1.26c-.75.47-1.48.92-2.16,1.37a8.47,8.47,0,0,0-1.35,1,.42.42,0,0,0,.13.31,1.81,1.81,0,0,0,.74.11c.41,0,.84,0,1.28,0h1.27a1.34,1.34,0,0,1,.67.09l-.09.08-.31.14Zm13.13,0a2.32,2.32,0,0,1-.56-.07,3.55,3.55,0,0,1-.52-.15,1.18,1.18,0,0,1,.37,0,3.77,3.77,0,0,0,2.13-.7,5.08,5.08,0,0,0,1.26-1.33c.32-.47.59-.91.81-1.3a1.12,1.12,0,0,1,.88-.63l.27.09,1,.79c.48.37,1,.77,1.49,1.19l1.39,1.15a3.29,3.29,0,0,1,.72.7l-.09.17-.31.14Zm6.44,27.58a2.42,2.42,0,0,1-1.73-.83,12.94,12.94,0,0,1-1.58-1.93,18.53,18.53,0,0,1-1.3-2.28c-.38-.77-.67-1.39-.88-1.84a6.18,6.18,0,0,0-.41-.86,7.38,7.38,0,0,1-.4-.85,1.18,1.18,0,0,1-.11-.54q0-.18.51-.18a11.1,11.1,0,0,1,2.8.4,11.4,11.4,0,0,1,2.85,1.2,7.88,7.88,0,0,1,2.23,1.93,4.18,4.18,0,0,1,.9,2.64,3.31,3.31,0,0,1-.81,2.15A2.56,2.56,0,0,1,38.52,304.51Z"/><path class="cls-1" d="M31.19,322.33l.18-.17a12.92,12.92,0,0,1,2.65.38,9.16,9.16,0,0,1,2.56,1,6.44,6.44,0,0,1,2,1.78,4.2,4.2,0,0,1,.79,2.57,1.21,1.21,0,0,1-.34,1,3.69,3.69,0,0,1-.92.49,15.44,15.44,0,0,1-1.54.49l-2.52.73-3,.83c-1,.28-2,.56-2.84.83s-1.6.51-2.18.72-.91.38-1,.5,0,.11-.06.15l-.07.16v7a1.47,1.47,0,0,1-.75,1.35,3.31,3.31,0,0,1-1.68.47,4,4,0,0,1-1.68-.29,1,1,0,0,1-.75-.94v-5.18c0-.27-.15-.41-.45-.41a4.19,4.19,0,0,0-2.14.72,10.72,10.72,0,0,0-2.11,1.78,11,11,0,0,0-1.62,2.27,4.68,4.68,0,0,0-.66,2.16,2.06,2.06,0,0,0,.59,1.53,3.53,3.53,0,0,0,1.44.88,7.12,7.12,0,0,0,1.8.38,14.85,14.85,0,0,0,1.66.09,20.22,20.22,0,0,0,2.93-.2q1.44-.19,2.88-.45t2.88-.45a21.85,21.85,0,0,1,2.93-.2c.45,0,.92,0,1.43.07a4.17,4.17,0,0,1,1.4.34,2.74,2.74,0,0,1,1.06.78,2.21,2.21,0,0,1,.43,1.42A2.24,2.24,0,0,1,33.28,349a9.9,9.9,0,0,1-2.93,1,20.47,20.47,0,0,1-3.39.39l-2.62,0-3,0c-1,0-2,0-3-.06a7.1,7.1,0,0,1-1.39-.25c-.46-.14-.89-.28-1.31-.43a8.89,8.89,0,0,1-3.42-2.27,5.39,5.39,0,0,1-1.4-3.8,5.72,5.72,0,0,1,.7-2.73,12.41,12.41,0,0,1,1.74-2.4,17.78,17.78,0,0,1,2.25-2.08l2.25-1.75c.69-.54,1.26-1,1.73-1.44a1.71,1.71,0,0,0,.7-1.13c0-.44,0-.92-.05-1.41a4.7,4.7,0,0,0-.29-1.38A2.71,2.71,0,0,0,19,328.3a2.06,2.06,0,0,0-1.4-.43,4.29,4.29,0,0,0-2.56.79,9.24,9.24,0,0,0-2.05,2,21.79,21.79,0,0,0-1.74,2.54c-.54.91-1.08,1.76-1.62,2.54a10.78,10.78,0,0,1-1.71,2,2.94,2.94,0,0,1-2,.79,1.72,1.72,0,0,1-1.2-.39,2.27,2.27,0,0,1-.63-1,4.48,4.48,0,0,1-.24-1.26c0-.45,0-.85,0-1.21a2.27,2.27,0,0,1,.63-1c.42-.5,1-1.09,1.6-1.78l2.09-2.25c.75-.81,1.45-1.6,2.09-2.36a21.06,21.06,0,0,0,1.6-2.12,3.13,3.13,0,0,0,.63-1.55c0-.3-.13-.45-.4-.45H7.79a2.48,2.48,0,0,1-1.49-.52A5.38,5.38,0,0,1,5,321.32a6.15,6.15,0,0,1-.85-1.6,4.23,4.23,0,0,1-.32-1.52.77.77,0,0,1,.07-.34c0-.11.14-.16.29-.16a2.23,2.23,0,0,1,.43.13l.74.32.79.36a3.36,3.36,0,0,0,.52.22,7.16,7.16,0,0,0,1.82.41c.61.06,1.24.09,1.87.09a18,18,0,0,0,2-.11A4.56,4.56,0,0,0,14,318.6a3,3,0,0,0,1.15-1.15,4,4,0,0,0,.43-2,2.15,2.15,0,0,0-.41-1.37,4.58,4.58,0,0,0-.88-.88c-.31-.24-.6-.44-.85-.61s-.39-.34-.39-.51.21-.36.64-.52a6.65,6.65,0,0,1,1.57-.39,13.29,13.29,0,0,1,2.05-.11,9.41,9.41,0,0,1,2,.27,4.05,4.05,0,0,1,1.57.77,1.62,1.62,0,0,1,.63,1.32,2.24,2.24,0,0,1-.25.66c-.16.34-.33.71-.52,1.1s-.35.75-.51,1.08a3.4,3.4,0,0,0-.25.54c0,.21.1.32.22.32h.41a3.22,3.22,0,0,0,1.37-.3c.44-.19.86-.4,1.29-.63s.84-.43,1.28-.63a3.45,3.45,0,0,1,1.41-.29,3.14,3.14,0,0,1,1.67.47,1.65,1.65,0,0,1,.77,1.51,2.14,2.14,0,0,1-1.06,1.89,10.13,10.13,0,0,1-2.64,1.12c-1,.31-2.19.6-3.41.88A18.54,18.54,0,0,0,18,322.27a7.4,7.4,0,0,0-2.64,1.89,4.61,4.61,0,0,0-1.05,3.17c0,.27.15.4.44.4a3,3,0,0,0,1-.2c.37-.13.76-.29,1.15-.47a9.5,9.5,0,0,1,1.19-.47,3.7,3.7,0,0,1,1.23-.21,3.22,3.22,0,0,1,1.92.63,11.07,11.07,0,0,1,1.57,1.38c.47.49.86.94,1.2,1.35s.58.6.76.6a3.23,3.23,0,0,0,1.06-.31,16.92,16.92,0,0,0,1.64-.83c.6-.35,1.23-.73,1.89-1.15s1.26-.83,1.8-1.24a13.11,13.11,0,0,0,1.33-1.12c.34-.35.52-.61.52-.79a1.76,1.76,0,0,0-.57-1.31,11.27,11.27,0,0,0-1.1-.94Z"/><path class="cls-1" d="M1.3,380.61c.24-1.17.51-2.33.79-3.49s.52-2.33.7-3.53c.15-.87.26-1.73.34-2.59s.17-1.71.29-2.58c.06-.42.11-.84.13-1.24a5.53,5.53,0,0,1,.23-1.2c.06-.27.19-.4.41-.4a.67.67,0,0,1,.22,0c1,.36,2,.71,3,1s2.06.62,3.11.85a14.63,14.63,0,0,0,2.12.32c.72.06,1.42.15,2.11.27a.2.2,0,0,1,.23.23c0,.15-.08.22-.23.22H9.27c-.09,0-.18.14-.27.43a5.59,5.59,0,0,0-.22,1c-.07.35-.12.7-.16,1a5.22,5.22,0,0,0-.07.68l-.18,1.95c-.09,1-.21,2-.36,3s-.32,2-.52,2.88-.4,1.37-.61,1.48a4.09,4.09,0,0,1-1.17.25,14.26,14.26,0,0,1-1.88.12,11.87,11.87,0,0,1-1.78-.12c-.53-.07-.79-.22-.79-.43A.44.44,0,0,1,1.3,380.61Zm21.52-21.87a.5.5,0,0,1-.23.4,3.13,3.13,0,0,1-.5.34,4.37,4.37,0,0,0-.47.34.51.51,0,0,0-.2.36v9.72c0,.24-.22.43-.67.58a8.73,8.73,0,0,1-1.54.36c-.57.09-1.12.16-1.66.21s-.9.07-1.08.07-.26-.17-.34-.5-.13-.7-.18-1.12-.07-.83-.07-1.22v-.77c0-1.43,0-2.88.07-4.34s.07-2.9.07-4.34a.4.4,0,0,0-.45-.45H2.38c-.21,0-.31-.1-.31-.32a.28.28,0,0,1,.31-.31H15.12c.15,0,.36-.14.63-.43s.55-.59.83-.92.57-.64.84-.92.47-.43.62-.43a2.38,2.38,0,0,1,.88.49c.47.34,1,.71,1.49,1.13s1,.83,1.48,1.24S22.67,358.59,22.82,358.74Zm-.63,21.15a41.38,41.38,0,0,0-.77,4.52,33.49,33.49,0,0,1-.83,4.48,13.12,13.12,0,0,1-1.78,4,8.56,8.56,0,0,1-3.6,2.95,7.2,7.2,0,0,1-.88.36c-.34.12-.7.23-1.08.34s-.74.18-1.1.24a5.79,5.79,0,0,1-.94.09.5.5,0,0,1-.5-.35,7.4,7.4,0,0,1-.38-1.06,5.23,5.23,0,0,0-.43-1.06,3.2,3.2,0,0,0-.83-1.13,4.19,4.19,0,0,0-.86-.49l-.88-.38a2.9,2.9,0,0,1-.94-.84.41.41,0,0,1-.14-.31.25.25,0,0,1,.19-.25.94.94,0,0,1,.31-.06h5.54a1.86,1.86,0,0,0,1.44-.77,7.08,7.08,0,0,0,1.07-1.94,17.26,17.26,0,0,0,.77-2.61c.21-1,.38-1.9.5-2.83s.2-1.78.24-2.54.07-1.36.07-1.78c0-.27-.31-.43-.94-.49a16.31,16.31,0,0,0-2.14,0c-.8,0-1.58.08-2.34.13a5.4,5.4,0,0,1-1.55,0,2.33,2.33,0,0,1-.39-.11.33.33,0,0,1-.24-.29,2.8,2.8,0,0,1,1.05-.11q1,0,2.16,0t2.25,0l1.33,0c.09-.09.32-.29.7-.61l1.19-1,1.12-.95a2.15,2.15,0,0,1,.59-.4.52.52,0,0,1,.36.18l.27.27c.12.12.39.35.81.7l1.33,1.08c.46.37.88.73,1.23,1.06s.54.52.54.58q0,.41-.6.72a5,5,0,0,0-.88.54ZM39.33,356a1.13,1.13,0,0,1-.41.4,6,6,0,0,1-.56.36,4.15,4.15,0,0,0-.52.39.53.53,0,0,0-.22.38v37.35a1,1,0,0,1-.65.88,7.21,7.21,0,0,1-1.51.54,14.57,14.57,0,0,1-1.69.29c-.55.06-1,.09-1.23.09a.4.4,0,0,1-.46-.45c0-1.92,0-3.84,0-5.76s0-3.84-.06-5.76c-.07-4.05-.1-8.07-.12-12.06s0-8,0-12.06c0-.81,0-1.63,0-2.45s-.05-1.64-.05-2.46c0-.2.07-.33.2-.38a1.55,1.55,0,0,1,.43-.07,31.47,31.47,0,0,1,3.38.19c1.1.12,2.22.25,3.33.4Z"/><path class="cls-1" d="M13.28,403a2.55,2.55,0,0,1,.89-.9,5.66,5.66,0,0,1,1.27-.59,7,7,0,0,1,1.39-.32,10.66,10.66,0,0,1,1.3-.09,5.33,5.33,0,0,1,2.77.7,3.59,3.59,0,0,1,1.64,2.31c0,.12.07.35.12.68a9.33,9.33,0,0,0,.18,1c.07.35.16.65.24.92s.2.41.32.41a2,2,0,0,0,.92-.38c.41-.26.88-.54,1.42-.86a14.63,14.63,0,0,1,1.73-.85,4.87,4.87,0,0,1,1.91-.39c.28,0,.58,0,.91.05a2.59,2.59,0,0,1,.9.23,1.79,1.79,0,0,1,.67.51,1.38,1.38,0,0,1,.27.88,2.4,2.4,0,0,1-.56,1.57,4.8,4.8,0,0,1-1.4,1.15,9.09,9.09,0,0,1-1.82.79c-.66.21-1.27.41-1.82.61a13.08,13.08,0,0,0-1.4.56c-.37.18-.56.38-.56.59a3.82,3.82,0,0,0,.16.92,7.3,7.3,0,0,0,.43,1.21,5.07,5.07,0,0,0,.6,1.06,1,1,0,0,0,.74.45,4.4,4.4,0,0,0,1.8-.38c.58-.26,1.15-.54,1.72-.86s1.14-.6,1.71-.88a4.34,4.34,0,0,1,1.84-.4,7.57,7.57,0,0,1,1,.07,2.69,2.69,0,0,1,1,.29,2,2,0,0,1,.72.63,1.67,1.67,0,0,1,.29,1,2.12,2.12,0,0,1-.58,1.49,5.6,5.6,0,0,1-1.44,1.1,13.79,13.79,0,0,1-1.89.86c-.69.25-1.32.48-1.89.67s-1.05.38-1.44.54-.59.33-.59.47.13.29.39.59.57.67,1,1.1.81.91,1.28,1.42l1.32,1.46q.63.71,1.11,1.29c.31.38.53.67.65.85a3.34,3.34,0,0,1,.32.67,3.39,3.39,0,0,1,.09.77,6.12,6.12,0,0,1-.18,1.35,4.17,4.17,0,0,1-.57,1.31,3.44,3.44,0,0,1-.94,1,2.21,2.21,0,0,1-1.28.38,6.15,6.15,0,0,1-2.82-.74c-1-.49-2-1.05-3.1-1.66A30.38,30.38,0,0,0,22.5,428a10.51,10.51,0,0,0-3.92-.74,14.41,14.41,0,0,0-2.25.2,8.13,8.13,0,0,0-2.25.73,5.09,5.09,0,0,0-1.73,1.38,3.34,3.34,0,0,0-.69,2.17,2.88,2.88,0,0,0,.76,2.1,4.86,4.86,0,0,0,1.87,1.2,9.8,9.8,0,0,0,2.36.54,21.26,21.26,0,0,0,2.21.14c1.22,0,2.44-.06,3.64-.18s2.42-.18,3.65-.18c.39,0,.83,0,1.32.05a4.32,4.32,0,0,1,1.35.26,2.64,2.64,0,0,1,1,.69,1.87,1.87,0,0,1,.43,1.28,2,2,0,0,1-1,1.78,7.24,7.24,0,0,1-2.28.94,13.1,13.1,0,0,1-2.65.36l-2.16,0c-.84,0-1.77,0-2.79-.07a25.87,25.87,0,0,1-3.11-.33,23.82,23.82,0,0,1-3-.75,9.55,9.55,0,0,1-2.66-1.3,6.57,6.57,0,0,1-1.87-2,5.69,5.69,0,0,1-.7-2.9,5.59,5.59,0,0,1,1.27-3.78,8.83,8.83,0,0,1,3.1-2.34,14.86,14.86,0,0,1,4-1.19,25.32,25.32,0,0,1,4-.34,22.44,22.44,0,0,1,3.7.31,21.2,21.2,0,0,0,3.69.32.36.36,0,0,0,.4-.32,3.71,3.71,0,0,0,0-.54,3.25,3.25,0,0,0-.4-.85q-.4-.72-.9-1.53c-.33-.54-.65-1-1-1.46a4.43,4.43,0,0,0-.61-.75,3.34,3.34,0,0,0-1-.06c-.51,0-1.06.06-1.66.13l-1.73.23-1.15.15c-1.23.18-2.45.31-3.64.39s-2.43.11-3.7.11a6.72,6.72,0,0,1-1.68-.23,5.31,5.31,0,0,1-1.6-.67A3.8,3.8,0,0,1,8,419.76a2.94,2.94,0,0,1-.47-1.67,4.68,4.68,0,0,1,.13-.92,6.66,6.66,0,0,1,.4-1.19,4.36,4.36,0,0,1,.64-1,1,1,0,0,1,.76-.43.22.22,0,0,1,.25.2c0,.14,0,.25,0,.34a2.84,2.84,0,0,0,.32,1.44,2.12,2.12,0,0,0,.85.83,3.85,3.85,0,0,0,1.24.41,9.36,9.36,0,0,0,1.41.11c.37,0,1,0,1.85-.11l2.77-.27c1-.11,1.87-.22,2.7-.34a6.73,6.73,0,0,0,1.6-.36.44.44,0,0,0,.31-.41v-.58a2.38,2.38,0,0,0-.25-.68c-.16-.36-.36-.74-.58-1.14l-.63-1.1a2.15,2.15,0,0,0-.43-.59,2,2,0,0,0-1-.11c-.49,0-1,0-1.64.09s-1.19.1-1.75.15a10.5,10.5,0,0,1-1.22.09H10.8a3,3,0,0,1-1.44-.44A9,9,0,0,1,7.79,411a7.76,7.76,0,0,1-1.29-1.43A2.56,2.56,0,0,1,6,408.15c0-.3.13-.45.4-.45a6,6,0,0,1,2.25.43,13.65,13.65,0,0,0,2.16.65,16.9,16.9,0,0,0,1.78.18,24.5,24.5,0,0,0,2.72,0,11,11,0,0,0,2.5-.33c.73-.2,1.1-.5,1.1-.92a3.78,3.78,0,0,0-.32-1.68,2.69,2.69,0,0,0-.8-1,3.69,3.69,0,0,0-1.13-.54c-.42-.12-.83-.23-1.24-.32s-.8-.2-1.19-.32a2.16,2.16,0,0,1-.94-.54Z"/><path class="cls-1" d="M11.7,472.27a.57.57,0,0,0-.32.3,3.17,3.17,0,0,0-.24.58,3.35,3.35,0,0,0-.16.68,3.76,3.76,0,0,0,0,.47v11.16q0,.32-.75.63a9.83,9.83,0,0,1-1.66.52,6.31,6.31,0,0,1-1.67.15c-.49,0-.74-.19-.74-.49V476.05a.4.4,0,0,0-.45-.45c-.24,0-.55.39-.92,1.15l-1.26,2.54A22,22,0,0,1,2,481.84C1.48,482.6,1,483,.45,483c-.06,0-.11,0-.16-.13a.56.56,0,0,1-.06-.23,8.92,8.92,0,0,1,0-1.93c.07-.66.17-1.33.29-2s.25-1.35.38-2,.25-1.33.34-2a14.93,14.93,0,0,0,.09-1.65,7.56,7.56,0,0,1,.18-1.64Q1.62,471,2,471a3.8,3.8,0,0,1,1.78.43,3.9,3.9,0,0,0,1.78.43.41.41,0,0,0,.45-.45v-3.47a2.24,2.24,0,0,0-.12-.29c0-.11-.14-.16-.29-.16a2,2,0,0,0-.81.29l-1.1.63c-.38.23-.73.43-1.06.61s-.57.24-.72.18-.29-.25-.49-.65a12.64,12.64,0,0,1-.61-1.33c-.2-.48-.37-.94-.52-1.37a3.59,3.59,0,0,1-.23-.88c0-.27.22-.44.66-.49a7.65,7.65,0,0,1,1.48-.07q.84,0,1.62,0a1.33,1.33,0,0,0,1.06-.4,7.53,7.53,0,0,0,1.06-1.82c.34-.8.69-1.66,1-2.59s.67-1.89,1-2.88l.83-2.74c.26-.84.5-1.56.72-2.14a2.8,2.8,0,0,1,.57-1.06.52.52,0,0,1,.4-.14,3.41,3.41,0,0,1,.88.3c.46.19,1,.42,1.53.7l1.57.76c.5.24.82.41,1,.49l.09.14c0,.06,0,.13-.14.23a32.9,32.9,0,0,0-2.47,2.54l-2.34,2.63c-.57.63-1.12,1.27-1.66,1.91l-1.62,2-.72.88c-.24.28-.49.58-.73.88,0,0,0,0,0,0s0,0,0,0a.48.48,0,0,0,.54.37,15,15,0,0,0,2.32-.19,16.14,16.14,0,0,1,2.32-.18,4.5,4.5,0,0,1,.72.07.63.63,0,0,0,.63-.24v-.37a2.88,2.88,0,0,0-.46-1.53,2.9,2.9,0,0,1-.45-1.53c0-.29.12-.44.37-.44a2.72,2.72,0,0,1,1.08.58c.54.39,1.09.78,1.66,1.17a8.11,8.11,0,0,0,1.53.85c.45.19.68.07.68-.35q0-3.93-.12-7.75t-.11-7.74a.4.4,0,0,1,.45-.45,17.9,17.9,0,0,1,2.75.21l2.7.42.13.19-.09.22-.41.4-.13.32q0,8-.16,15.89t-.16,15.88c0,.42,0,.86,0,1.33a4.86,4.86,0,0,0,.09,1.33.74.74,0,0,0,.09.31.25.25,0,0,0,.18.13.82.82,0,0,0,.22,0H34.47a1.39,1.39,0,0,0,1-.58,13.51,13.51,0,0,0,1-1.29c.32-.46.6-.89.86-1.28s.45-.59.6-.59a2.54,2.54,0,0,1,.79.52c.44.35.91.74,1.42,1.19s1,.89,1.44,1.31.75.69.9.81a.37.37,0,0,1,.07.43.46.46,0,0,1-.43.2H22.28l-.19.09c-.44.51-.82.93-1.12,1.26a4.31,4.31,0,0,1-1,.81,3.34,3.34,0,0,1-1.17.43,11.19,11.19,0,0,1-1.73.11.4.4,0,0,1-.45-.45v-6.3c0-.09-.06-.16-.18-.2a.76.76,0,0,0-.27-.07c-.21,0-.47-.05-.76-.07a6.53,6.53,0,0,1-.9-.09,3.09,3.09,0,0,1-.81-.22,1,1,0,0,1-.54-.52,3.33,3.33,0,0,1-.32-1.46c0-.65-.07-1.31-.11-2a11.44,11.44,0,0,0-.27-1.83A1.26,1.26,0,0,0,11.7,472.27Zm-.13-25.42a1,1,0,0,1-.34.81,10.65,10.65,0,0,1-1.15,1c-.48.38-1,.77-1.6,1.17s-1.13.82-1.64,1.24a9,9,0,0,0-1.28,1.26A1.93,1.93,0,0,0,5,453.55a1.48,1.48,0,0,0,.2.75c.14.22.28.45.43.67s.29.48.43.74a2.09,2.09,0,0,1,.2.91c0,.92-.22,1.52-.68,1.77a3.8,3.8,0,0,1-1.88.38H3.35a2,2,0,0,1-.38,0c-.09,0-.27-.32-.54-.88s-.54-1.17-.81-1.87-.51-1.35-.72-2a5.31,5.31,0,0,1-.32-1.21c0-.24.12-.36.34-.36a2.76,2.76,0,0,1,.79.13l1,.32a2.54,2.54,0,0,0,.85.18,1.25,1.25,0,0,0,.43-.07.36.36,0,0,0,.25-.29l1.12-7.52c.06-.26.19-.4.4-.4a3.77,3.77,0,0,1,1,.29l1.69.65,1.77.7A7.41,7.41,0,0,0,11.57,446.85Zm5,21.24a1.85,1.85,0,0,0-.82-.16l-.85.05a3.69,3.69,0,0,1-.88-.07,1.77,1.77,0,0,1-.83-.49,2.72,2.72,0,0,1-.34-.52c-.13-.26-.27-.53-.4-.81s-.27-.54-.41-.77-.22-.34-.25-.34a.69.69,0,0,0-.51.36,1.12,1.12,0,0,0-.25.59v3.28c0,.21.24.57.72,1.06a20.52,20.52,0,0,0,1.64,1.51c.62.51,1.21,1,1.78,1.35a2.8,2.8,0,0,0,1.17.58c.24,0,.36-.09.36-.26v-5Zm6.47,8.73a4.55,4.55,0,0,1,.43-1.71c.29-.66.5-1.23.66-1.71l.78-2.32c.29-.82.55-1.66.79-2.5s.44-1.67.61-2.52a12.63,12.63,0,0,0,.24-2.38c0-.3-.17-.47-.54-.5a7.22,7.22,0,0,0-1.21,0l-1.22.09c-.35,0-.54-.09-.54-.3a.2.2,0,0,1,.23-.22h4.86c.18,0,.29-.15.32-.45s0-.51,0-.63,0-.34,0-.68-.05-.67-.09-1a5.39,5.39,0,0,0-.21-.95c-.09-.27-.21-.4-.35-.4a1.59,1.59,0,0,0-1,.34,2.06,2.06,0,0,1-1.19.33,2.5,2.5,0,0,1-.72-.09,1.16,1.16,0,0,1-.64-.4,2.79,2.79,0,0,1-.15-.65c-.08-.41-.16-.9-.25-1.49s-.19-1.22-.29-1.91-.2-1.34-.29-2-.17-1.15-.23-1.62-.09-.75-.09-.88.12-.31.36-.31a2,2,0,0,1,.94.56c.45.38.92.8,1.4,1.26l1.3,1.26a2.57,2.57,0,0,0,.68.56.74.74,0,0,0,.4-.15.42.42,0,0,0,.23-.34v-6.93a.4.4,0,0,1,.45-.45l1.12,0c.58,0,1.15.09,1.74.16s1.11.17,1.57.27.7.23.7.38a.81.81,0,0,1-.31.59.75.75,0,0,0-.32.54V462a.51.51,0,0,0,.25.5,1.13,1.13,0,0,0,.56.13,1.9,1.9,0,0,0,1.31-.4,3.83,3.83,0,0,0,.76-1c.21-.39.4-.79.59-1.21a3,3,0,0,1,.76-1.08l.22-.09a.42.42,0,0,1,.32.13l.74.72c.41.39.82.8,1.24,1.24l1.15,1.17a3.57,3.57,0,0,1,.51.56.89.89,0,0,1-.15.43c-.11.16-.22.25-.34.25H33.75l-.27.13a6.68,6.68,0,0,0-.16,1.21c0,.63-.08,1.38-.11,2.23s-.05,1.78-.07,2.77,0,1.94,0,2.86,0,1.74,0,2.47v1.6c0,.48,0,1,0,1.46a7.08,7.08,0,0,1-.11,1.46,1.12,1.12,0,0,1-.54.73,4.42,4.42,0,0,1-1.06.42,6.49,6.49,0,0,1-1.22.21c-.4,0-.72,0-1,0a.71.71,0,0,1-.57-.2,1.12,1.12,0,0,1-.2-.5,2.38,2.38,0,0,1,0-.6c0-.21,0-.41,0-.59,0-1.26,0-2.5.16-3.74s.15-2.47.15-3.73c0-.18-.08-.27-.26-.27s-.52.29-.91.88-.83,1.24-1.32,2a21.34,21.34,0,0,1-1.53,1.95,2.14,2.14,0,0,1-1.46.88ZM35.87,449.1a9.13,9.13,0,0,1,1.14.36l1.8.67c.62.25,1.16.49,1.65.72s.71.43.71.54a2,2,0,0,1-.44.77c-.31.39-.67.85-1.11,1.37s-.92,1.08-1.46,1.67l-1.51,1.62c-.46.49-.87.9-1.21,1.23s-.56.5-.65.5-.25-.06-.27-.18a1.49,1.49,0,0,1-.05-.36A19.68,19.68,0,0,1,35,453.6a35.57,35.57,0,0,0,.73-4.37ZM34.47,466c0-.23.14-.35.41-.35a3.64,3.64,0,0,1,2.07.74,8.6,8.6,0,0,1,1.93,1.84,12.45,12.45,0,0,1,1.42,2.32,5.32,5.32,0,0,1,.56,2.16,2.82,2.82,0,0,1-.58,1.84,2.16,2.16,0,0,1-1.76.73,1.91,1.91,0,0,1-1.55-.84,7,7,0,0,1-1.08-2,12.51,12.51,0,0,1-.65-2.3c-.16-.78-.28-1.4-.36-1.85s-.15-.77-.25-1.14A4.24,4.24,0,0,1,34.47,466Z"/><path class="cls-1" d="M13,510.17a3,3,0,0,0-.16,1.12,2,2,0,0,0,.34,1.08,2.8,2.8,0,0,0,.59.52,6.56,6.56,0,0,0,.67.42q1.85,1.1,4.32,2.5A41.5,41.5,0,0,1,23.45,519a20.41,20.41,0,0,1,3.8,3.87,7.66,7.66,0,0,1,1.55,4.6c0,1.43-.34,2.35-1,2.74a6.2,6.2,0,0,1-3,.58,2.35,2.35,0,0,1-1.71-.85,11.73,11.73,0,0,1-1.5-2c-.47-.77-.91-1.54-1.33-2.32a17.55,17.55,0,0,0-1.08-1.8,14.43,14.43,0,0,0-1.26-1.44c-.45-.45-.93-.88-1.44-1.31l-2.14-1.8c-.88-.75-1.75-1.55-2.58-2.4a21.35,21.35,0,0,1-2.19-2.61,4.4,4.4,0,0,1-.92-2.41c0-.24,0-.49,0-.74a2.71,2.71,0,0,1,.16-.75,4.78,4.78,0,0,1,.76-1.21c1.36-1.65,2.75-3.24,4.19-4.77s2.84-3.11,4.19-4.73l1.53-1.82a8.87,8.87,0,0,0,1.26-2,2.53,2.53,0,0,0,.27-1.08,2.42,2.42,0,0,0-.27-1.06,9.73,9.73,0,0,0-.57-1,8.18,8.18,0,0,0-.56-.79,1,1,0,0,1-.27-.52c0-.18.12-.28.36-.29l.54,0a7.65,7.65,0,0,1,2.61.52,10.64,10.64,0,0,1,2.59,1.4,8.11,8.11,0,0,1,2,2.07,4.54,4.54,0,0,1,.78,2.54c0,.24-.33.68-1,1.31s-1.51,1.36-2.52,2.2-2.14,1.73-3.36,2.65-2.39,1.82-3.53,2.66-2.15,1.6-3,2.27S13.29,509.87,13,510.17Zm20.75-1.9a2.62,2.62,0,0,1-1.42-.81,21.34,21.34,0,0,1-1.85-1.84,18,18,0,0,1-1.6-2.07,3.46,3.46,0,0,1-.67-1.53c0-.06,0-.1.13-.14a1.39,1.39,0,0,1,.23,0,5.27,5.27,0,0,1,2,.36,9,9,0,0,1,2.18,1.13A7.19,7.19,0,0,1,34.45,505a3.15,3.15,0,0,1,.7,1.91,1.43,1.43,0,0,1-.34,1.1A1.66,1.66,0,0,1,33.71,508.27Zm4.45-3.91a2.29,2.29,0,0,1-1.33-.47,7.8,7.8,0,0,1-1.24-1.15,12.78,12.78,0,0,1-1.05-1.4c-.32-.47-.59-.88-.83-1.21a3.35,3.35,0,0,0-.3-.38,7.17,7.17,0,0,1-.45-.63,2.92,2.92,0,0,1-.27-.59c0-.16,0-.24.25-.24a7.64,7.64,0,0,1,2,.31,9.09,9.09,0,0,1,2.18.92A7.18,7.18,0,0,1,38.88,501a2.74,2.74,0,0,1,.72,1.83,1.73,1.73,0,0,1-.38,1.1A1.31,1.31,0,0,1,38.16,504.36Z"/><path class="cls-1" d="M23.08,557.87c0,.42,0,.8,0,1.14a5.56,5.56,0,0,0,.05,1,2.66,2.66,0,0,0,.31,1,3.51,3.51,0,0,0,.75.9,7.93,7.93,0,0,0,2.25,1.42c.87.37,1.76.72,2.7,1.05s1.84.68,2.74,1a10.54,10.54,0,0,1,2.41,1.33A6.33,6.33,0,0,1,36,568.64a5.9,5.9,0,0,1,.65,2.9,2.23,2.23,0,0,1-.5,1.65,2.39,2.39,0,0,1-1.66.47,3.71,3.71,0,0,1-1.78-.45,8,8,0,0,1-1.6-1.15,20.42,20.42,0,0,1-1.46-1.48,15.3,15.3,0,0,0-1.44-1.46A8.17,8.17,0,0,0,26.64,568a3.23,3.23,0,0,0-1.71-.41,1,1,0,0,0-.49.18c-.15.09-.26.34-.32.75A11.45,11.45,0,0,1,23.8,570a8.9,8.9,0,0,1-.69,1.73,5.67,5.67,0,0,1-1.46,1.69,8,8,0,0,1-2.57,1.28,13.59,13.59,0,0,1-4,.49,15.6,15.6,0,0,1-3.13-.31,9,9,0,0,1-2.84-1.08,6.29,6.29,0,0,1-2.07-2,5.68,5.68,0,0,1-.79-3.08,6.52,6.52,0,0,1,.66-3.2,4.49,4.49,0,0,1,1.73-1.78,6.85,6.85,0,0,1,2.45-.78c.92-.12,1.85-.23,2.79-.32s1.86-.2,2.75-.34a6.19,6.19,0,0,0,2.32-.79.38.38,0,0,0,.22-.4,9.09,9.09,0,0,0,.11-1.73c0-.59,0-1.16,0-1.74,0-1.55-.05-3.12-.14-4.67s-.16-3.13-.22-4.69c0-.92,0-1.91,0-2.94a9.33,9.33,0,0,0-.32-2.86,4.09,4.09,0,0,0-.56-1.24,3,3,0,0,0-.81-.78,7,7,0,0,0-1.05-.57c-.4-.16-.8-.35-1.22-.56-.21-.06-.32-.16-.32-.32,0-.36.27-.65.79-.87a6.36,6.36,0,0,1,2-.45,12.1,12.1,0,0,1,2.54,0,10.69,10.69,0,0,1,2.55.61,5.3,5.3,0,0,1,1.95,1.26,2.77,2.77,0,0,1,.79,2,4.36,4.36,0,0,1-.27,1.5c-.18.5-.38,1-.59,1.44s-.4.93-.58,1.37a3.62,3.62,0,0,0-.27,1.36c0,.29.13.45.41.45a6,6,0,0,0,2.09-.37c.67-.24,1.35-.5,2-.78s1.35-.55,2-.79a6.27,6.27,0,0,1,2.13-.36,8.39,8.39,0,0,1,1.27.11,4.65,4.65,0,0,1,1.26.41,2.74,2.74,0,0,1,1,.79,1.88,1.88,0,0,1,.38,1.21,2.24,2.24,0,0,1-.83,1.82,5.55,5.55,0,0,1-2,1.06,12.17,12.17,0,0,1-2.43.49,20.39,20.39,0,0,1-2.07.14,5.17,5.17,0,0,1-1.44-.2,13.56,13.56,0,0,1-1.31-.48c-.42-.17-.81-.33-1.19-.47a3.33,3.33,0,0,0-1.1-.2.4.4,0,0,0-.45.4,11.22,11.22,0,0,0-.18,1.65c0,.64,0,1.3,0,2s0,1.34,0,2S23.08,557.36,23.08,557.87Zm-15,10.34a2,2,0,0,0,.48,1.38,3.48,3.48,0,0,0,1.14.81,5.68,5.68,0,0,0,1.47.4,9.35,9.35,0,0,0,1.41.12,10.69,10.69,0,0,0,2.41-.28,7.42,7.42,0,0,0,2.25-.87,5,5,0,0,0,1.65-1.6,4.36,4.36,0,0,0,.63-2.38.6.6,0,0,0-.32-.52,2.63,2.63,0,0,0-.72-.32,3.88,3.88,0,0,0-.83-.13l-.66,0c-.6,0-1.4,0-2.4.05a16,16,0,0,0-3,.36,7.5,7.5,0,0,0-2.5,1A2.27,2.27,0,0,0,8.05,568.21Z"/><path class="cls-1" d="M29.83,593.73c.34,0,.5.15.5.45s-.16.45-.5.45q-7.42,0-14.69.13T.45,594.9a.4.4,0,0,1-.45-.45q0-3.33.13-6.59c.1-2.18.14-4.37.14-6.6a.43.43,0,0,1,.16-.38.54.54,0,0,1,.36-.09.93.93,0,0,1,.38.14.37.37,0,0,1,.18.33v12a.4.4,0,0,0,.45.45Z"/></g></g></svg>