<svg xmlns="http://www.w3.org/2000/svg" viewBox="0 0 42.44 527.4"><defs><style>.cls-1{fill:#fff;}</style></defs><title>アセット 30</title><g id="レイヤー_2" data-name="レイヤー 2"><g id="レイヤー_8" data-name="レイヤー 8"><path class="cls-1" d="M12.42,1.21c-.33,0-.5-.14-.5-.45s.17-.45.5-.45q7.43,0,14.71-.15T41.85,0a.4.4,0,0,1,.45.45c0,2.22,0,4.43-.16,6.61S42,11.46,42,13.68a.4.4,0,0,1-.45.45c-.4,0-.59-.15-.59-.45V1.75a.53.53,0,0,0-.2-.36.69.69,0,0,0-.38-.18Z"/><path class="cls-1" d="M13.09,28.75a2.73,2.73,0,0,1-.85.07l-2.05.07L7.52,29c-1,.05-1.86.08-2.68.09l-2.14.05a6.07,6.07,0,0,1-1,0c-.37-.07-.47-.23-.32-.5,0,0,.14-.05.4-.07l.91,0,.94,0H7.22c1,0,2,0,3.08.05l1.22,0a8,8,0,0,1,1.17,0,.71.71,0,0,1,.31.09ZM30.6,45.45a.4.4,0,0,0-.45-.45H16.65a.4.4,0,0,0-.45.45v9.18a.4.4,0,0,0,.45.45H29.38c.12,0,.19,0,.19.13a.4.4,0,0,1-.45.46H16.47c-.12,0-.2.08-.22.26a3.93,3.93,0,0,0-.07.66c0,.25,0,.51-.07.76a1,1,0,0,1-.23.57,2.75,2.75,0,0,1-1,.65,8.23,8.23,0,0,1-1.36.38,11.83,11.83,0,0,1-1.41.18c-.47,0-.87,0-1.19,0a.38.38,0,0,1-.41-.26,1.66,1.66,0,0,1-.09-.5c0-1.53,0-3.07,0-4.61a41.79,41.79,0,0,1,.2-4.62c.06-.6.11-1.19.16-1.77s.06-1.18.06-1.78v-.32a2.88,2.88,0,0,0,0-.42,1,1,0,0,0-.09-.36.21.21,0,0,0-.2-.16,3.15,3.15,0,0,0-1.73.74c-.68.5-1.38,1-2.12,1.62S5.22,47.86,4.5,48.35a3.51,3.51,0,0,1-1.93.74c-.19,0-.28-.05-.28-.17a.33.33,0,0,1,.12-.25l.2-.21C3.84,47.21,4.93,46,5.9,45a35.46,35.46,0,0,0,2.6-3.27,30.51,30.51,0,0,0,2.17-3.57c.65-1.28,1.32-2.75,2-4.43.23-.67.48-1.31.74-1.94a17,17,0,0,0,.65-2,.93.93,0,0,0,0-.5,2.85,2.85,0,0,1,0-.49,8.12,8.12,0,0,1,.25-1.69c.16-.73.33-1.48.49-2.25s.3-1.47.41-2.11a2.87,2.87,0,0,0,0-1.29,4.84,4.84,0,0,0-.76-.06l-1.58,0-2,0H5.9c-.34,0-.47-.13-.41-.38a.43.43,0,0,1,.45-.39H28c.09,0,.25-.12.49-.38s.5-.54.77-.85l.78-.92c.26-.3.43-.5.52-.59l.23-.09a4.82,4.82,0,0,1,.85.54l1.64,1.17c.59.42,1.13.82,1.62,1.19s.77.59.84.66.17.36.06.47a2,2,0,0,1-.45.33,5.34,5.34,0,0,0-.56.41.77.77,0,0,0-.27.63v14.4c0,.33-.22.59-.68.79a8.12,8.12,0,0,1-1.55.47,15,15,0,0,1-1.71.25c-.55,0-1,.06-1.19.06s-.26-.11-.34-.35-.14-.52-.2-.84-.11-.61-.16-.9-.08-.48-.11-.6a1.23,1.23,0,0,1,.16-.43,1,1,0,0,0,.11-.43V21.78a.4.4,0,0,0-.45-.45H25.16l-1.87,0a4.85,4.85,0,0,0-.92.07.3.3,0,0,0-.14.13l-.09.18a4.74,4.74,0,0,0-.29.9c-.11.43-.2.87-.3,1.33s-.17.92-.26,1.37-.17.81-.23,1.09c-.12.45-.31,1.13-.58,2s-.58,1.86-.93,2.84-.69,1.89-1,2.74a7.5,7.5,0,0,1-.88,1.73v.32a2.54,2.54,0,0,1-.49,1.12c-.34.52-.72,1-1.15,1.6s-.87,1.08-1.29,1.58a10.61,10.61,0,0,1-.94,1,4.63,4.63,0,0,0-.49.43,1.69,1.69,0,0,0-.41.47.47.47,0,0,0,0,.38,1,1,0,0,0,.24.34,2.74,2.74,0,0,0,.59.2l1.19.36c.44.14.85.26,1.24.36a4.19,4.19,0,0,0,.68.16h13l.32-.14,2.47-2.47.27-.09a7.34,7.34,0,0,1,1,.63,20.2,20.2,0,0,1,1.62,1.22c.56.45,1.05.87,1.49,1.28s.65.67.65.78a.48.48,0,0,1-.18.36A3.26,3.26,0,0,1,37,46a2.85,2.85,0,0,0-.41.34.52.52,0,0,0-.18.36V57.33q0,.41-.72.63a10.62,10.62,0,0,1-1.66.36,17,17,0,0,1-1.83.16l-1.19,0-.31-.13-.14-.32Zm-21.06-9a.63.63,0,0,1-.45.18,4.51,4.51,0,0,1-.54,0l-.74,0c-.38,0-.77,0-1.17,0a8.54,8.54,0,0,1-1.08-.06c-.32-.05-.48-.14-.48-.29a.51.51,0,0,1,.09-.25c.07-.11.14-.16.23-.16h.92c.41,0,.81,0,1.22,0s.79.08,1.17.14A2.17,2.17,0,0,1,9.54,36.45Zm9.54-.14c.36,0,1,0,1.84,0l2.73,0q1.41,0,2.61,0a6.77,6.77,0,0,1,1.46.11,1,1,0,0,1-.27.18.69.69,0,0,1-.27.09h-8.1l-.18-.18Zm2.79-7.56a2.23,2.23,0,0,0,.34-.13.81.81,0,0,1,.29-.09h4.68a.77.77,0,0,1,.54.22,3.29,3.29,0,0,1-.94.07c-.61,0-1.26,0-2,0s-1.37,0-2,0A3.49,3.49,0,0,1,21.87,28.75Zm13.37-.08a.24.24,0,0,1-.09-.19,2.3,2.3,0,0,1,.35-.63c.25-.35.51-.75.79-1.19s.57-.84.86-1.24l.56-.76.23,0,.22.09,3.74,3.73.09.23-.14.13h-6.3Z"/><path class="cls-1" d="M21.2,68a1.56,1.56,0,0,1-.09,1.43,12,12,0,0,1-1,1.6c-.42.56-.82,1.12-1.21,1.69a3,3,0,0,0-.59,1.71,3.21,3.21,0,0,0,0,.36.33.33,0,0,0,.25.22,2.54,2.54,0,0,0,.72.09,5.81,5.81,0,0,1,.72.05,18.07,18.07,0,0,1,2.79.49,5.31,5.31,0,0,1,2.39,1.44,6.12,6.12,0,0,1,1,1.49,7.61,7.61,0,0,1,.56,1.73A14.69,14.69,0,0,1,27,82.17c0,.63,0,1.23,0,1.8,0,1.08-.05,2.27-.16,3.58a29.28,29.28,0,0,1-.58,3.91,24.25,24.25,0,0,1-1.17,3.8,13.21,13.21,0,0,1-1.89,3.29,8.77,8.77,0,0,1-2.75,2.29,7.73,7.73,0,0,1-3.71.86l-.76,0a2.43,2.43,0,0,1-.77-.07c-.18,0-.47-.33-.88-.9a22.32,22.32,0,0,1-1.19-1.93c-.39-.71-.74-1.4-1-2.06a4.11,4.11,0,0,1-.45-1.31c0-.16.09-.23.26-.23a2.67,2.67,0,0,1,.91.18l1.05.38a11.77,11.77,0,0,0,1.15.36,4.29,4.29,0,0,0,1.17.16,4,4,0,0,0,2.5-.83,6.8,6.8,0,0,0,1.78-2.18,14.81,14.81,0,0,0,1.17-3,30.82,30.82,0,0,0,.69-3.36c.17-1.13.28-2.2.34-3.21s.09-1.87.09-2.56a3.56,3.56,0,0,0-.85-2.52,3.28,3.28,0,0,0-2.48-.9,7.74,7.74,0,0,0-1.69.16,2.43,2.43,0,0,0-1.28,1.06,9.17,9.17,0,0,0-.72,1.35c-.24.54-.47,1.1-.7,1.67s-.43,1.13-.63,1.68-.38,1.06-.56,1.51-.47,1.14-.88,2.07-.86,2-1.37,3.1S10.55,92.64,10,93.87s-1.15,2.38-1.69,3.44-1,2-1.49,2.75a6.59,6.59,0,0,1-1.08,1.5,5.16,5.16,0,0,1-.83.57,2.21,2.21,0,0,1-1,.2A2.21,2.21,0,0,1,2.72,102a2.47,2.47,0,0,1-.76-.75,2.85,2.85,0,0,1-.41-1,6.62,6.62,0,0,1-.11-1.17,7,7,0,0,1,.68-3,15.92,15.92,0,0,1,1.71-2.88c.68-1,1.43-1.91,2.22-2.88s1.54-2,2.23-2.93a16.8,16.8,0,0,0,1.71-3,8,8,0,0,0,.68-3.22c0-.27-.16-.41-.46-.41A3.14,3.14,0,0,0,9,81c-.4.18-.81.39-1.23.61a13,13,0,0,1-1.31.61,3.61,3.61,0,0,1-1.35.27A2.85,2.85,0,0,1,3.4,82a4.58,4.58,0,0,1-1.24-1.35,6.25,6.25,0,0,1-.74-1.78A7.1,7.1,0,0,1,1.17,77a2.45,2.45,0,0,1,.13-.83,1.18,1.18,0,0,1,.54-.61c.1-.06.27,0,.52.18s.55.4.88.65a7.41,7.41,0,0,0,1.08.7,2.32,2.32,0,0,0,1.08.32,17.58,17.58,0,0,0,3.83-.37A7.14,7.14,0,0,0,12,75.85a5.53,5.53,0,0,0,1.75-2.41,10.47,10.47,0,0,0,.61-3.87A1.89,1.89,0,0,0,14,68.24a2.48,2.48,0,0,0-.9-.56l-1.06-.36a1.48,1.48,0,0,1-.85-.77.48.48,0,0,1,.17-.69,3,3,0,0,1,1.06-.45,10,10,0,0,1,1.31-.23q.64-.06.87-.06a10.68,10.68,0,0,1,1.71.17,10.45,10.45,0,0,1,2,.57,8.61,8.61,0,0,1,1.76.92A3.48,3.48,0,0,1,21.2,68Zm9.4,20.33.14-.17,1.64-.54a6,6,0,0,0,1.39-.7,3.15,3.15,0,0,0,1-1.11,3.67,3.67,0,0,0,.36-1.75,8.91,8.91,0,0,0-.72-3.76,12,12,0,0,0-1.6-2.61,11.16,11.16,0,0,0-1.59-1.62c-.48-.37-.73-.63-.73-.78s.09-.19.25-.21l.34,0a8,8,0,0,1,4.1,1.08,11.11,11.11,0,0,1,3.17,2.79,13.28,13.28,0,0,1,2.76,8A10.39,10.39,0,0,1,41,88.47,4.61,4.61,0,0,1,40.52,90a3.19,3.19,0,0,1-.9,1.12,2.25,2.25,0,0,1-1.46.45,4.75,4.75,0,0,1-1.78-.38c-.61-.26-1.24-.55-1.89-.88l-1.93-1a9.5,9.5,0,0,0-1.82-.72Zm6-14.49a2.36,2.36,0,0,1-1.28-.72,16.24,16.24,0,0,1-1.66-1.66,14.8,14.8,0,0,1-1.44-1.89,3.07,3.07,0,0,1-.61-1.4c0-.17.06-.27.18-.29l.36,0a5.8,5.8,0,0,1,1.8.34,8.91,8.91,0,0,1,2,.9,6,6,0,0,1,1.57,1.35,2.57,2.57,0,0,1,.66,1.68,1.92,1.92,0,0,1-.41,1.2A1.37,1.37,0,0,1,36.58,73.84Zm4.64-3.64A2.63,2.63,0,0,1,40,69.55a17.5,17.5,0,0,1-1.71-1.49,17.73,17.73,0,0,1-1.51-1.7,2.59,2.59,0,0,1-.65-1.24.25.25,0,0,1,.18-.28,2.2,2.2,0,0,1,.36,0,7.7,7.7,0,0,1,1.8.24,7.31,7.31,0,0,1,1.85.74A5.11,5.11,0,0,1,41.71,67a2.58,2.58,0,0,1,.59,1.69,2.61,2.61,0,0,1-.22,1A.86.86,0,0,1,41.22,70.2Z"/><path class="cls-1" d="M11.83,147.92c0,.26-.2.48-.6.65a7.79,7.79,0,0,1-1.4.4,10.44,10.44,0,0,1-1.55.2l-1.08.05a.4.4,0,0,1-.45-.45v-11c0-.25-.09-.37-.27-.37a1.34,1.34,0,0,0-.94.61,11.29,11.29,0,0,0-1,1.51c-.33.6-.66,1.25-1,2s-.66,1.36-1,2a10.54,10.54,0,0,1-1,1.5,1.32,1.32,0,0,1-.95.61c-.27,0-.4-.12-.4-.36a18.25,18.25,0,0,1,.44-4c.3-1.31.58-2.64.82-4,.09-.54.15-1.09.2-1.65s.1-1.1.15-1.64a.74.74,0,0,1,0-.22c0-.1.07-.14.14-.14a3.18,3.18,0,0,1,1.05.18l1,.38c.34.14.69.27,1,.38a3.23,3.23,0,0,0,1.06.18.3.3,0,0,0,.27-.13,4.26,4.26,0,0,0,.07-.74c0-.41,0-.86,0-1.35v-2.32c0-.27-.15-.41-.45-.41a2.51,2.51,0,0,0-1,.34l-1.35.7c-.47.24-.9.44-1.31.61s-.66.19-.78.07l-.23-.23c-.06-.12-.16-.4-.32-.83S.82,129.5.65,129s-.31-.89-.42-1.29A3.35,3.35,0,0,1,0,127c0-.28.16-.41.46-.41H5.08q.31,0,.66-.54a9.23,9.23,0,0,0,.63-1.26c.19-.48.36-1,.51-1.4a8,8,0,0,0,.28-.94L7,122.22a1.77,1.77,0,0,0-.94-.14,3.38,3.38,0,0,1-1,0,3.89,3.89,0,0,1-1.42-.45,2.8,2.8,0,0,1-.85-.79,3.64,3.64,0,0,1-.54-1.1c-.14-.42-.28-.88-.43-1.4a4.49,4.49,0,0,0-.25-.63c-.13-.29-.27-.62-.4-1s-.27-.65-.38-.9a2.35,2.35,0,0,1-.19-.43c0-.18.06-.27.19-.27a2.75,2.75,0,0,1,.87.18l1.06.34a4.94,4.94,0,0,0,1,.18.92.92,0,0,0,.76-.3,3.43,3.43,0,0,0,.13-.6c.07-.35.14-.78.23-1.31s.18-1.09.27-1.71.18-1.2.27-1.77.17-1.08.25-1.54a3.87,3.87,0,0,1,.25-1l.13-.26c0-.07.12-.1.27-.1a5.88,5.88,0,0,1,1.17.3c.63.19,1.3.42,2,.67s1.36.51,2,.75a3.36,3.36,0,0,1,1,.49c0,.12,0,.19-.11.2a.49.49,0,0,0-.2.11,7.13,7.13,0,0,0-1.56,1.11,18.66,18.66,0,0,0-1.32,1.35c-.43.46-.85.94-1.29,1.41a11.23,11.23,0,0,1-1.37,1.31c-.15.12-.4.29-.74.52s-.52.43-.52.6a1.46,1.46,0,0,0,.59,1c.39.38.67.67.85.88a3.59,3.59,0,0,1,.52.77,5,5,0,0,0,.47.76.53.53,0,0,0,.45.27c.45,0,.78-.34,1-1a23.08,23.08,0,0,0,.56-2.28,20.19,20.19,0,0,1,.59-2.27c.22-.69.58-1,1.05-1a5.41,5.41,0,0,1,1.11.27l1.82.61c.63.23,1.22.46,1.76.7a2.71,2.71,0,0,1,.89.5c0,.15-.1.26-.31.35a7.32,7.32,0,0,0-1.55,1.22,16,16,0,0,0-1.31,1.53c-.4.54-.8,1.1-1.19,1.66a15.66,15.66,0,0,1-1.22,1.58c-.69.81-1.4,1.61-2.13,2.38s-1.5,1.57-2.27,2.34l-.1.23.14.13,1.35,0c.54,0,1.09,0,1.67,0s1.1,0,1.62-.09a5.83,5.83,0,0,0,1.21-.21.5.5,0,0,0,.41-.49A2.47,2.47,0,0,0,13,125c-.17-.38-.32-.75-.45-1.13a4,4,0,0,1-.25-1q0-.45.36-.45a3.84,3.84,0,0,1,1.85.56,9.33,9.33,0,0,1,1.84,1.4,8.21,8.21,0,0,1,1.42,1.82,3.83,3.83,0,0,1,.56,1.84,2.46,2.46,0,0,1-.72,1.78,2.33,2.33,0,0,1-1.76.74,1.65,1.65,0,0,1-1.41-.51,3.13,3.13,0,0,1-.54-1.17c-.11-.44-.22-.83-.34-1.17a.76.76,0,0,0-.81-.52,1,1,0,0,0-.54.16.5.5,0,0,0-.27.47V132c0,.36.32.74.95,1.15s1.32.88,2.07,1.44a13.23,13.23,0,0,1,2.06,1.91,3.71,3.71,0,0,1,.95,2.56,3.58,3.58,0,0,1-.41,1.87c-.26.47-.84.7-1.71.7a4.76,4.76,0,0,1-.94-.09,1.36,1.36,0,0,1-.77-.45,2.5,2.5,0,0,1-.31-1.21c-.06-.64-.13-1.3-.2-2a15.12,15.12,0,0,0-.36-2,1.81,1.81,0,0,0-.79-1.22.74.74,0,0,0-.4.23,1.32,1.32,0,0,0-.28.4Zm7.52-25.47c0-.37-.15-.49-.45-.39a8.19,8.19,0,0,0-1,.45c-.36.2-.69.36-1,.5s-.45,0-.45-.3a1.35,1.35,0,0,1,.05-.4,7.69,7.69,0,0,1,.4-.88c.15-.28.3-.57.45-.88.33-.59.64-1.2.95-1.82s.58-1.23.85-1.86a54.91,54.91,0,0,0,2.16-6.08,14.11,14.11,0,0,0,.36-1.53,9.34,9.34,0,0,1,.4-1.49.48.48,0,0,1,.45-.35,6.81,6.81,0,0,1,1.42.26c.71.19,1.44.4,2.21.66s1.44.51,2,.76.88.44.88.57-.13.35-.38.51-.54.36-.83.59a4.27,4.27,0,0,0-.84.81,1.76,1.76,0,0,0-.38,1.14c0,.4.13.62.38.68a3.67,3.67,0,0,0,.84.09A3.11,3.11,0,0,0,29.5,113a7.41,7.41,0,0,0,1.3-1c.38-.36.69-.69.95-1s.47-.45.65-.45a2.63,2.63,0,0,1,.9.54c.48.36,1,.77,1.51,1.24s1,.9,1.42,1.3.63.65.63.74,0,.25-.14.28l-2,1.08c-.73.38-1.45.8-2.16,1.25s-1.37.93-2,1.44a7.47,7.47,0,0,0-1.57,1.72.29.29,0,0,0-.1.22c0,.15.11.22.32.22s.53,0,1.06,0,1.08,0,1.66-.09l1.6-.13a1.77,1.77,0,0,0,.85-.2l.48-.52c.22-.26.46-.51.72-.77s.49-.48.72-.67a1.34,1.34,0,0,1,.52-.34c.09,0,.37.12.85.45s1,.71,1.53,1.15,1,.85,1.44,1.23.63.64.63.73a.61.61,0,0,1-.45.58.61.61,0,0,0-.45.58v11c0,.22-.23.41-.67.59a10.66,10.66,0,0,1-1.53.47c-.58.14-1.13.25-1.67.34a8,8,0,0,1-1.08.13.39.39,0,0,1-.45-.38,4,4,0,0,1,0-.85,4.31,4.31,0,0,0,0-.88.4.4,0,0,0-.45-.4l-9.14-.32a.9.9,0,0,0-.49.18.51.51,0,0,0-.27.4c0,1.08,0,2.16.07,3.24s.09,2.17.15,3.25q0,.23,0,.6c0,.26,0,.52,0,.79v.76a1.87,1.87,0,0,0,0,.5,1.36,1.36,0,0,0,.3.52.67.67,0,0,0,.47.29H36.9a1.21,1.21,0,0,0,1-.61,7.82,7.82,0,0,0,.72-1.35c.2-.49.38-1,.54-1.37s.31-.63.49-.63.18.15.27.45.17.64.25,1,.13.77.18,1.13a6.31,6.31,0,0,0,.11.72,1.48,1.48,0,0,0,.43.76c.19.18.39.35.58.5a2.62,2.62,0,0,1,.54.56,1.6,1.6,0,0,1,.25,1,2,2,0,0,1-.56,1.42,4.55,4.55,0,0,1-1.35.9,7.12,7.12,0,0,1-1.67.47,10.33,10.33,0,0,1-1.55.14H22.5a2.23,2.23,0,0,1-1.1-.32,4,4,0,0,1-1-.81,5.06,5.06,0,0,1-.74-1.06,2.41,2.41,0,0,1-.29-1.1Zm7-8.42c-.12,0-.42.23-.9.7s-1,1-1.53,1.57-1,1.15-1.44,1.69a3.1,3.1,0,0,0-.63,1,.57.57,0,0,0,.32.54,3.56,3.56,0,0,0,.92.38,13.3,13.3,0,0,0,1.35.36,13.65,13.65,0,0,0,1.37.25,8.36,8.36,0,0,0,1,.09,1.4,1.4,0,0,0,1.14-.77,7.93,7.93,0,0,0,.9-1.77,14.1,14.1,0,0,0,.61-2,8.15,8.15,0,0,0,.23-1.53c0-.3-.14-.45-.41-.45Zm-1.8,17.23a.39.39,0,0,0,.45.45h1.8c.18,0,.29,0,.34-.11a.69.69,0,0,0,.07-.34v-9.58c0-.18-.14-.31-.41-.41a2.67,2.67,0,0,0-.92-.11,3.13,3.13,0,0,0-.92.18c-.27.11-.41.27-.41.47Zm7.93-10a.4.4,0,0,0-.46.45v9.58c0,.31.15.45.46.45h1.83a.4.4,0,0,0,.46-.45v-9.58a.4.4,0,0,0-.46-.45Z"/><path class="cls-1" d="M10.08,167.4H18a1.08,1.08,0,0,1,1,.74,2.67,2.67,0,0,1,.16,1.67,2.9,2.9,0,0,1-1,1.66,3.78,3.78,0,0,1-2.56.74H6.3a2,2,0,0,1-1-.26,2.44,2.44,0,0,1-.77-.73,3.18,3.18,0,0,1-.47-1,3.49,3.49,0,0,1-.16-1.06v-9c0-.3-.19-.46-.56-.49a6.5,6.5,0,0,0-1.24,0c-.45,0-.86.06-1.24.06s-.56-.11-.56-.36.11-.26.31-.26H7.65a.4.4,0,0,0,.45-.46v-5.94a.35.35,0,0,1,.4-.4,14.65,14.65,0,0,1,2.21.16l2.21.29.76.07a3.76,3.76,0,0,1,.77.11.59.59,0,0,1,.17,0,.16.16,0,0,1,.09.14.4.4,0,0,1-.17.34l-.43.27a1.43,1.43,0,0,0-.43.42,1.39,1.39,0,0,0-.18.77c0,.57,0,1.15,0,1.73a7.18,7.18,0,0,0,.25,1.69,1.06,1.06,0,0,0,.16.31c0,.07.14.09.29.09a1.27,1.27,0,0,0,1-.47,6.84,6.84,0,0,0,.76-1l.63-1c.2-.32.37-.48.52-.48a2.7,2.7,0,0,1,.88.52c.46.35.94.73,1.44,1.15s.93.83,1.33,1.24.58.65.58.74-.12.27-.36.27H9.45a.4.4,0,0,0-.45.45c0,.84,0,1.67.07,2.5s.08,1.66.11,2.5v.72a2.82,2.82,0,0,0,.09.71,1,1,0,0,0,.2.34c.08.08.17.18.3.29Zm26.19,20.83.5.32c.27.18.57.41.92.67s.72.57,1.12.88l1.11.88.83.7q.33.28.33.33a.33.33,0,0,1-.13.41.72.72,0,0,1-.45.18H1.44q-.45,0-.45-.36a.26.26,0,0,1,.18-.09H17.55a.4.4,0,0,0,.45-.45V179.1a.4.4,0,0,0-.45-.45H3.92a.29.29,0,0,1-.32-.32c0-.17.11-.27.32-.27H31.19a1.25,1.25,0,0,0,.76-.33,5.72,5.72,0,0,0,.76-.79,4.1,4.1,0,0,0,.59-.94,2.17,2.17,0,0,0,.23-.86l-.19-.18a2.78,2.78,0,0,0-.63-.11c-.21,0-.43,0-.67,0a.65.65,0,0,1-.63-.45c-.15-.34-.29-.65-.41-.95a3.31,3.31,0,0,0-.54-.9,10.26,10.26,0,0,0-.83-1.08,4.21,4.21,0,0,1-.69-1.17c0-.18.14-.28.44-.32s.64,0,1,0l1.05,0a1.86,1.86,0,0,0,.74-.06,1.29,1.29,0,0,0,.52-.59,9.1,9.1,0,0,0,.56-1.08,9.84,9.84,0,0,0,.46-1.15,3.33,3.33,0,0,0,.17-.83,1,1,0,0,0-.15-.65.51.51,0,0,1-.16-.38,6.23,6.23,0,0,1,.31-2,6.18,6.18,0,0,0,.32-2,1,1,0,0,0-.11-.44,1.68,1.68,0,0,1-.16-.46.79.79,0,0,0,.27-.58v-3.29a.4.4,0,0,0-.45-.45h-4.5l-.31.14a2.44,2.44,0,0,0-.39.92,5.85,5.85,0,0,0-.15,1.31,3.76,3.76,0,0,0,.18,1.19.83.83,0,0,0,.67.63,4.22,4.22,0,0,0,.88,0l1.15-.09a4,4,0,0,1,1.1,0,1.06,1.06,0,0,1,.74.4,1.43,1.43,0,0,1-.7.11c-.4,0-.85,0-1.33,0s-.94,0-1.39,0l-.9,0c-.15,0-.3.2-.45.61a9.8,9.8,0,0,0-.4,1.37c-.12.51-.21,1-.28,1.49s-.09.79-.09.94a1.32,1.32,0,0,1,0,.4,5.42,5.42,0,0,1-.47,1c-.2.33-.38.66-.57,1a25.12,25.12,0,0,1-3.35,4.72,12.87,12.87,0,0,1-4.74,3.25l-.14-.09a3.33,3.33,0,0,1,.34-.82c.16-.3.35-.6.56-.92l.61-.92a6.8,6.8,0,0,0,.47-.86,23.3,23.3,0,0,0,1.67-4.47,36.33,36.33,0,0,0,.85-4.57c.18-1.53.29-3.07.34-4.64s.06-3.15.06-4.76c0-.28.16-.41.45-.41a5.57,5.57,0,0,1,1.9.34c.63.22,1.27.47,1.93.74s1.35.52,2.07.74a7.35,7.35,0,0,0,2.25.34l1.26,0a2,2,0,0,0,1.17-.34,3.81,3.81,0,0,0,.5-.5c.2-.23.44-.48.69-.74s.49-.48.7-.67.37-.3.49-.3a2.57,2.57,0,0,1,.77.52l1.42,1.15c.52.42,1,.83,1.46,1.24s.73.67.85.79v.31a1.85,1.85,0,0,0-.26.16,3.55,3.55,0,0,1-.39.2l-.56.27a2,2,0,0,0-.29,1.28c0,.68,0,1.51,0,2.5s-.05,2.08-.11,3.26A23.34,23.34,0,0,1,39,167.8a17.42,17.42,0,0,1-1.06,3.4A8.19,8.19,0,0,1,36,174a2.32,2.32,0,0,1-.41.34.5.5,0,0,0-.22.43,1.38,1.38,0,0,0,.61,1,11,11,0,0,0,1.32,1c.49.3.92.58,1.31.83s.59.46.59.61a.4.4,0,0,1-.45.45H24.44a.39.39,0,0,0-.45.45v12.46a.39.39,0,0,0,.45.45H33a1.18,1.18,0,0,0,.83-.47,9,9,0,0,0,.83-1.08c.27-.4.52-.81.77-1.21a7.5,7.5,0,0,1,.62-.92ZM5.58,184.81H17l.14.14-.14.18H5.58L5.4,185Zm24.53-.27.58-.71.85-1,.84-1a3.38,3.38,0,0,1,.52-.54.2.2,0,0,1,.13,0,.17.17,0,0,0,.14,0c.14.09.47.32,1,.68s1,.74,1.53,1.15,1,.79,1.42,1.14.63.59.63.68l-.09.14-.32.13H25.16q-.32,0-.12-.18a1,1,0,0,1,.38-.23,7.57,7.57,0,0,1,2.16-.13c.79.06,1.52.09,2.21.09Zm-1.53-19.16a3.2,3.2,0,0,1,.71-.07c.39,0,.82,0,1.29,0s.89,0,1.28,0a4.28,4.28,0,0,1,.72.09.1.1,0,0,1-.09.11l-.18.07a3.61,3.61,0,0,1-1.15.09c-.4,0-.78-.05-1.14-.05l-.34,0a4.17,4.17,0,0,1-.5,0,2.5,2.5,0,0,1-.43-.09C28.63,165.53,28.58,165.46,28.58,165.38Z"/><path class="cls-1" d="M38.61,223.65c.12.09.14.29,0,.58a5.3,5.3,0,0,1-.39,1,7.35,7.35,0,0,1-.52.92c-.17.29-.29.49-.35.61-.52.9-1,1.79-1.6,2.66a14.53,14.53,0,0,1-2,2.42,18.21,18.21,0,0,1-6.19,4.14,19.18,19.18,0,0,1-7.31,1.45A12.29,12.29,0,0,1,15,236.25a8.45,8.45,0,0,1-3.82-3.78,7.14,7.14,0,0,1-.41-.83,10.45,10.45,0,0,1-.4-1.06c-.12-.36-.23-.71-.32-1.06a6.43,6.43,0,0,1-.18-.92c-.06-.72-.09-1.45-.09-2.18v-2.19q0-4.32.34-8.55c.22-2.81.34-5.67.34-8.55a13.31,13.31,0,0,0-.14-1.91,4.34,4.34,0,0,0-.68-1.77,4.19,4.19,0,0,0-.69-.84L8.24,202l-.72-.51a2.85,2.85,0,0,1-.64-.61,1.19,1.19,0,0,1,.54-.52,6.26,6.26,0,0,1,.93-.34,7.4,7.4,0,0,1,1-.18c.33,0,.6,0,.81,0a7.38,7.38,0,0,1,2.34.47,11.64,11.64,0,0,1,2.57,1.28,9.74,9.74,0,0,1,2.07,1.85,3.4,3.4,0,0,1,.85,2.16,4.07,4.07,0,0,1-.2,1.24,9.39,9.39,0,0,1-.5,1.19c-.19.39-.4.78-.6,1.17a6.53,6.53,0,0,0-.5,1.17,46.9,46.9,0,0,0-1.6,7.2,53.5,53.5,0,0,0-.52,7.34c0,2.49.57,4.24,1.69,5.26s2.9,1.53,5.34,1.53a18.63,18.63,0,0,0,5-.65,21.93,21.93,0,0,0,4.34-1.76,33.1,33.1,0,0,0,4-2.54c1.31-1,2.63-2,4-3A.16.16,0,0,1,38.61,223.65Z"/><path class="cls-1" d="M11.88,258.66a.4.4,0,0,0-.45-.45c-.93,0-1.93,0-3-.11a10.73,10.73,0,0,1-3-.63,5.48,5.48,0,0,1-2.27-1.55A4.3,4.3,0,0,1,2.29,253c0-.3.21-.43.61-.38a5.63,5.63,0,0,1,1.38.34c.51.17,1,.37,1.46.58a5.53,5.53,0,0,0,.92.36,5.51,5.51,0,0,0,1.42.25l1.42,0,1.93,0a2.86,2.86,0,0,0,1.35-.34,1.92,1.92,0,0,0,.81-1,5.76,5.76,0,0,0,.27-2c0-.51,0-1.11.07-1.81a5,5,0,0,0-.16-1.75,2.62,2.62,0,0,0-.58-1,6.36,6.36,0,0,0-.84-.74l-.74-.56c-.21-.17-.32-.29-.32-.38s.13-.28.37-.37a4.25,4.25,0,0,1,.8-.2l.88-.09.57,0,1.73,0a12,12,0,0,1,2.16.25,5.42,5.42,0,0,1,1.82.72,1.61,1.61,0,0,1,.76,1.44A4.11,4.11,0,0,1,20,248a17.3,17.3,0,0,1-.79,1.55c-.29.5-.55,1-.79,1.49a3.24,3.24,0,0,0-.36,1.42c0,.15.09.22.27.22a3,3,0,0,0,1.48-.47c.54-.32,1.12-.66,1.71-1s1.22-.72,1.85-1a4.13,4.13,0,0,1,1.89-.47,5.18,5.18,0,0,1,1.17.13,3.13,3.13,0,0,1,1,.43,2.56,2.56,0,0,1,.74.76,2.21,2.21,0,0,1,.29,1.15,1.86,1.86,0,0,1-.79,1.46,7.72,7.72,0,0,1-1.95,1.15,22,22,0,0,1-2.57.88c-.93.25-1.82.48-2.65.67l-2.16.52a3,3,0,0,0-1.08.4,8.64,8.64,0,0,0-1.78,3.22c-.53,1.49-1.05,3.15-1.55,5s-1,3.75-1.51,5.71a46.28,46.28,0,0,1-1.69,5.38,17.66,17.66,0,0,1-2.09,4A3.3,3.3,0,0,1,6,282.06a2.22,2.22,0,0,1-1.17-.31,3.44,3.44,0,0,1-1.4-1.92,4.12,4.12,0,0,1-.17-1.19,7.56,7.56,0,0,1,.63-2.84,25.36,25.36,0,0,1,1.59-3.17c.65-1.09,1.34-2.22,2.07-3.4S9,266.89,9.65,265.7a24.13,24.13,0,0,0,1.6-3.55A10.43,10.43,0,0,0,11.88,258.66Zm7.79,11.65.17.14a10,10,0,0,0,1,2,10.18,10.18,0,0,0,1.42,1.78,7.85,7.85,0,0,0,1.8,1.35,6.54,6.54,0,0,0,2.07.72,11.66,11.66,0,0,0,2.3.13c.77,0,1.56-.08,2.34-.15l2.31-.23c.77-.07,1.54-.11,2.32-.11a11.36,11.36,0,0,1,1.37.09,5.09,5.09,0,0,1,1.38.36,2.66,2.66,0,0,1,1.05.79,2,2,0,0,1,.43,1.32,2.32,2.32,0,0,1-.68,1.78,4.18,4.18,0,0,1-1.66,1,8.44,8.44,0,0,1-2.09.43q-1.11.09-1.92.09c-1.71,0-3.4-.07-5.08-.2a13.7,13.7,0,0,1-4.52-1.11,7.5,7.5,0,0,1-3.24-2.74,9,9,0,0,1-1.24-5.08c0-.39,0-.76,0-1.11a4.71,4.71,0,0,1,.21-1.1Zm8.63-5.85c.1-.08.27-.24.52-.47s.52-.46.79-.72a7.86,7.86,0,0,0,.7-.74,1.21,1.21,0,0,0,.29-.49.66.66,0,0,0-.29-.57,2.36,2.36,0,0,0-.7-.31,3.89,3.89,0,0,0-.83-.14l-.7,0h-5a1.46,1.46,0,0,1-.29,0,.23.23,0,0,1-.2-.23.27.27,0,0,1,.07-.18.86.86,0,0,1,.16-.18,6.87,6.87,0,0,1,2.25-1.21,18.32,18.32,0,0,1,3.23-.86,20.45,20.45,0,0,1,3.61-.32,13,13,0,0,1,3.35.41,5.56,5.56,0,0,1,2.47,1.33,3.14,3.14,0,0,1,1,2.4v.55a1.79,1.79,0,0,1-.09.54,1.29,1.29,0,0,1-1.15.8c-.55.07-1,.11-1.46.14-1.29.12-2.56.29-3.83.49a22,22,0,0,1-3.82.32l-.18-.18Z"/><path class="cls-1" d="M8,311.85c.16,0,.26.09.32.27.24.54.47,1.11.7,1.71s.45,1.19.69,1.75a13.45,13.45,0,0,0,.84,1.65,7.54,7.54,0,0,0,1.15,1.46,6.34,6.34,0,0,0,1.55,1.06,8.93,8.93,0,0,0,1.84.65,13,13,0,0,0,1.94.31,17.07,17.07,0,0,0,1.87.09,15.93,15.93,0,0,0,3.06-.29c1-.19,2-.41,3-.65s2-.46,3-.65a15.84,15.84,0,0,1,3.08-.29,8.73,8.73,0,0,1,1.6.17,6,6,0,0,1,1.62.57,3.78,3.78,0,0,1,1.26,1A2.31,2.31,0,0,1,36,322.2a2.19,2.19,0,0,1-.74,1.67A6.31,6.31,0,0,1,33.34,325a13.49,13.49,0,0,1-2.58.68c-1,.14-1.88.26-2.81.33s-1.8.12-2.59.14l-1.87,0-3.2,0c-1.08,0-2.14,0-3.19-.06a14.94,14.94,0,0,1-1.93-.32,12.06,12.06,0,0,1-1.85-.59,8.66,8.66,0,0,1-4.84-3.53,11.57,11.57,0,0,1-1.32-5.87c0-.57,0-1.24.06-2a3.66,3.66,0,0,1,.57-1.87Zm6.66-8.73a2,2,0,0,1,.77-1.06,13.82,13.82,0,0,1,1.24-.79,7.68,7.68,0,0,0,1.17-.78,1.35,1.35,0,0,0,.52-1.06.27.27,0,0,0-.16-.22l-.38-.19-.45-.15a1.23,1.23,0,0,0-.32-.07c-.66-.18-1.42-.42-2.27-.72a15.49,15.49,0,0,1-2.45-1.1,9.06,9.06,0,0,1-2.08-1.56,3.86,3.86,0,0,1-1.12-2c-.12-.12-.11-.21,0-.27a.85.85,0,0,1,.3-.09,6.31,6.31,0,0,1,1.8.25c.56.16,1.14.35,1.73.56s1.16.4,1.73.56a6.26,6.26,0,0,0,1.8.25,15.83,15.83,0,0,0,2.39-.18c.77-.12,1.56-.26,2.34-.43s1.55-.3,2.34-.43a15.51,15.51,0,0,1,2.38-.17,11.82,11.82,0,0,1,1.87.17,10.57,10.57,0,0,1,2.13.61,5.73,5.73,0,0,1,1.76,1.1A2.22,2.22,0,0,1,32.4,297a2,2,0,0,1-.43,1.3,3,3,0,0,1-1.08.88,6.47,6.47,0,0,1-1.39.54c-.5.14-.94.25-1.33.34a19,19,0,0,1-3,.4,16.75,16.75,0,0,0-3,.46,9.53,9.53,0,0,0-1.69.54c-.71.26-1.43.54-2.16.8s-1.44.52-2.09.72a5.24,5.24,0,0,1-1.45.32Z"/><path class="cls-1" d="M20.21,370.67a.5.5,0,0,1,.27-.28c1.37-.81,2.67-1.52,3.89-2.16s2.32-1.26,3.3-1.89a18.84,18.84,0,0,0,2.66-2,9.53,9.53,0,0,0,2-2.52,12.3,12.3,0,0,0,1.22-3.44,25.26,25.26,0,0,0,.4-4.82,20,20,0,0,0-.36-3.77,15.25,15.25,0,0,0-1.17-3.63A12.46,12.46,0,0,0,30.33,343a10.26,10.26,0,0,0-3.06-2.3,9,9,0,0,0-2.86-.95,25,25,0,0,0-3-.17l-.38,0-.52,0a1.13,1.13,0,0,0-.47.09.39.39,0,0,0-.25.27,1.56,1.56,0,0,0,.38,1.12c.32.45.67,1,1.06,1.56a15.54,15.54,0,0,1,1.08,1.89,4.79,4.79,0,0,1,.5,2.13,20.07,20.07,0,0,1-.45,3.94A32.14,32.14,0,0,1,21,355.16a36.57,36.57,0,0,1-2.12,4.66,22.84,22.84,0,0,1-2.76,4.07,13.78,13.78,0,0,1-3.38,2.88,7.4,7.4,0,0,1-3.87,1.11,4.65,4.65,0,0,1-3.24-1.24,10,10,0,0,1-2.21-3,15.83,15.83,0,0,1-1.25-3.78,18,18,0,0,1-.41-3.49,15.86,15.86,0,0,1,1.75-7.42,18.8,18.8,0,0,1,4.64-5.78,21.5,21.5,0,0,1,6.57-3.74,22.16,22.16,0,0,1,7.52-1.33,19.34,19.34,0,0,1,6.86,1.24,17.78,17.78,0,0,1,5.71,3.47,16.75,16.75,0,0,1,3.92,5.31,15.74,15.74,0,0,1,1.46,6.82,13.82,13.82,0,0,1-1.64,6.75,16.21,16.21,0,0,1-4.3,5,19.17,19.17,0,0,1-6,3.11,22.9,22.9,0,0,1-6.84,1,5.78,5.78,0,0,0-.63,0A1,1,0,0,1,20.21,370.67ZM6,354.46a15.27,15.27,0,0,0,.15,1.92,12,12,0,0,0,.54,2.22,5.57,5.57,0,0,0,1.06,1.85,2.18,2.18,0,0,0,1.71.76,3.93,3.93,0,0,0,2.47-1,11.79,11.79,0,0,0,2.3-2.52,24.87,24.87,0,0,0,2-3.47,34.79,34.79,0,0,0,1.58-3.8,35.47,35.47,0,0,0,1-3.55,12.38,12.38,0,0,0,.38-2.7c0-.28,0-.63-.06-1.09a7.36,7.36,0,0,0-.27-1.32,4,4,0,0,0-.56-1.13,1.12,1.12,0,0,0-.9-.47,7,7,0,0,0-3,.68,11.32,11.32,0,0,0-2.72,1.79,16.89,16.89,0,0,0-2.32,2.57,19.1,19.1,0,0,0-1.82,3,17.12,17.12,0,0,0-1.17,3.19A12.27,12.27,0,0,0,6,354.46Z"/><path class="cls-1" d="M.45,390.78l-.09-.14a4.4,4.4,0,0,1,.85,0H4.66a4.27,4.27,0,0,1,.83,0c0,.07-.11.12-.25.19a.81.81,0,0,1-.29.09H.77Zm12,23.35.29.3a.59.59,0,0,0,.34.2l18.72-.32a1.47,1.47,0,0,0,1-.67,10.91,10.91,0,0,0,1.06-1.51l.92-1.51c.29-.45.5-.67.66-.67a3.76,3.76,0,0,1,.92.63c.52.42,1.09.89,1.71,1.42s1.17,1,1.69,1.53a5.82,5.82,0,0,1,.85.92q.31.63-.36.63H13.09c-.3,0-.44.16-.44.5a3.13,3.13,0,0,1-.54,1.88,3.82,3.82,0,0,1-1.36,1.13,5.74,5.74,0,0,1-1.79.54,14.48,14.48,0,0,1-1.94.13.4.4,0,0,1-.45-.45V379c0-.24.1-.36.31-.36a28.69,28.69,0,0,1,3.22.18l3.22.36a1.32,1.32,0,0,1,.36.31,1.63,1.63,0,0,1-.49.43,1.85,1.85,0,0,0-.5.43,6.58,6.58,0,0,0-.18,1.51c-.06.91-.11,2.09-.13,3.53s-.06,3.08-.07,4.93,0,3.74-.05,5.69,0,3.89,0,5.8,0,3.7,0,5.34,0,3,0,4.23v2.45Zm1.21-23.35c0-.06.12-.11.37-.16a5,5,0,0,1,.83-.07c.31,0,.62,0,.92.05a1,1,0,0,1,.58.18c0,.09-.09.14-.29.16l-.38,0-.45,0c-.21,0-.42,0-.63,0a3.45,3.45,0,0,1-.58,0A.56.56,0,0,1,13.63,390.78Zm11-12.33a.61.61,0,0,1-.25.31L24,379l-.38.26a.4.4,0,0,0-.18.32V403.2c0,.6,0,1.2-.07,1.8a12.37,12.37,0,0,1-.25,1.8c-.06.27-.3.49-.74.67a6.1,6.1,0,0,1-1.46.41,14.78,14.78,0,0,1-1.6.18c-.52,0-.9,0-1.15,0a.38.38,0,0,1-.44-.44V378c0-.3.18-.46.54-.46a17.78,17.78,0,0,1,3.1.27c1,.19,2,.35,3.06.5Zm.17,12.47a.75.75,0,0,1-.24-.07.23.23,0,0,1-.16-.21,2.09,2.09,0,0,1,.56,0h2.3a2.09,2.09,0,0,1,.56,0l-.09.14-.31.14Zm0,12H26.3l.88,0a2.82,2.82,0,0,1,.54.07l.09.14a1.91,1.91,0,0,1-.54.06c-.3,0-.64,0-1,0s-.74,0-1.08,0l-.7,0-.09-.09.05-.05ZM36,379l-.13.26c-.16.09-.37.24-.66.43a.8.8,0,0,0-.42.61v9a.28.28,0,0,0,.31.32c.24,0,.48-.17.72-.52a12,12,0,0,0,.72-1.17c.24-.43.47-.82.7-1.17s.44-.51.65-.51.3.14.63.42l1.1,1,1.15,1.08.72.7.2.2.32.34.29.32a.46.46,0,0,1,.14.17.45.45,0,0,1-.23.28.8.8,0,0,1-.36.09H35.1a.4.4,0,0,0-.45.45v14.26c0,.24-.24.44-.72.61a10.38,10.38,0,0,1-1.66.4c-.64.11-1.24.18-1.83.23s-1,.06-1.19.06a.39.39,0,0,1-.45-.45V378.76a.4.4,0,0,1,.45-.45,42.61,42.61,0,0,1,6.62.54Z"/><path class="cls-1" d="M17.69,448.38a29.14,29.14,0,0,1-.52,4.39,16.24,16.24,0,0,1-1.33,3.91A13.19,13.19,0,0,1,13.5,460a12.79,12.79,0,0,1-3.6,2.59,11.27,11.27,0,0,1-2.54.86,13.54,13.54,0,0,1-2.68.31H4.25c-.19,0-.29-.08-.29-.23a.45.45,0,0,1,.18-.29c.12-.1.21-.19.27-.25,1.11-.83,2.05-1.57,2.84-2.2a21.73,21.73,0,0,0,2-1.78,7.23,7.23,0,0,0,1.26-1.71,8,8,0,0,0,.69-2,15.63,15.63,0,0,0,.32-2.63c0-1,.07-2.23.07-3.67a.4.4,0,0,0-.45-.45,5.22,5.22,0,0,0-2,.43c-.69.28-1.39.59-2.11.92s-1.46.64-2.21.92a6.19,6.19,0,0,1-2.25.43H2.23a.45.45,0,0,1-.25-.09l1.76-1c.74-.44,1.55-.93,2.4-1.49s1.72-1.15,2.59-1.8a28.78,28.78,0,0,0,2.36-1.93A12,12,0,0,0,12.83,443a3,3,0,0,0,.67-1.71.3.3,0,0,0-.22-.29,1.69,1.69,0,0,0-.41-.06,3.75,3.75,0,0,0-1.55.33,14,14,0,0,0-1.44.75c-.47.26-1,.51-1.44.74a3.84,3.84,0,0,1-1.56.34l-.58,0c-.21,0-.31-.16-.31-.42,0-3.27-.06-6.52-.16-9.75s-.16-6.47-.16-9.74a.8.8,0,0,1,.07-.34.28.28,0,0,1,.29-.16,3,3,0,0,1,1,.39c.49.25,1.06.53,1.71.83s1.31.58,2,.83a5.41,5.41,0,0,0,1.89.39H30a1.16,1.16,0,0,0,.9-.41,8.85,8.85,0,0,0,.7-.92c.22-.35.44-.68.65-1a1.64,1.64,0,0,1,.81-.67,6.32,6.32,0,0,1,1.1.67c.56.4,1.13.82,1.71,1.29s1.11.9,1.58,1.32.7.7.7.82-.08.18-.23.26a5.62,5.62,0,0,0-.47.32c-.17.12-.33.24-.47.36a.5.5,0,0,0-.23.4v13.77c0,.25-.23.44-.7.59a10.13,10.13,0,0,1-1.57.36c-.59.09-1.16.16-1.71.2s-.92.07-1.11.07a.4.4,0,0,1-.38-.27c-.07-.18-.15-.38-.22-.61a4.51,4.51,0,0,0-.29-.63.61.61,0,0,0-.54-.29l-.91,0c-.35,0-.73,0-1.12,0s-.76,0-1.1,0a2,2,0,0,1-.83-.23c.05-.14.33-.21.83-.2l1.57.05a12.34,12.34,0,0,0,1.53-.05c.47,0,.7-.2.7-.47V426.15a.4.4,0,0,0-.45-.45h-6a.39.39,0,0,0-.45.45v13.77c0,.06.05.13.09.22a.48.48,0,0,0,.13.23.78.78,0,0,1-.45.31,4.34,4.34,0,0,1-.81.21l-.88.09-.61,0-.31.13c-.78.75-1.52,1.52-2.23,2.3a12.59,12.59,0,0,1-2.4,2.07,3.58,3.58,0,0,0-.43.29.57.57,0,0,0-.21.47c0,.28.2.44.59.5l1.15.16a1.17,1.17,0,0,1,.76.29c.14.15-.05.44-.56.85Zm-6.31-8.73a.4.4,0,0,0,.45.45h6a.4.4,0,0,0,.45-.45v-13.5a.4.4,0,0,0-.45-.45h-6a.4.4,0,0,0-.45.45Zm5.81-6.75-1,0c-.5,0-1,0-1.56,0s-1,0-1.46,0a3.56,3.56,0,0,1-.78-.07l.08-.13a4.51,4.51,0,0,1,.77-.07l1.35,0h2.34l.32.13,0,.05Zm7.83-.27h4.5l.31.13.05.05-.09.09H25l-.14-.14Zm.9,9.27a1.57,1.57,0,0,1,.58.2l.88.45.92.5a5.51,5.51,0,0,0,.68.33,25.56,25.56,0,0,0,6,2.19c2,.46,4.14.85,6.28,1.14l.13.14-.13.27a7.33,7.33,0,0,0-1.76,1.69A11.17,11.17,0,0,0,38.34,451l-.29.87c-.14.41-.33.61-.56.61a3.73,3.73,0,0,1-1.87-.56,15.41,15.41,0,0,1-1.89-1.29L32,449.26a4.22,4.22,0,0,0-1.28-.75l-.23.09-.09.1-.13.31v13.91c0,.26-.23.48-.68.65a9.43,9.43,0,0,1-1.53.4,12.3,12.3,0,0,1-1.66.2l-1.13.05a.37.37,0,0,1-.41-.41v-17.1a1.13,1.13,0,0,1,.07-.26c.05-.12.12-.19.21-.19a5.79,5.79,0,0,1,.6.07,6.4,6.4,0,0,0,.88.09,2,2,0,0,0,.77-.07.41.41,0,0,0,.31-.44,1.54,1.54,0,0,0-.29-.77c-.2-.3-.42-.61-.65-.94a12.4,12.4,0,0,1-.68-1,2.56,2.56,0,0,1-.36-1.08Z"/><path class="cls-1" d="M12.74,489l.13.14a5.64,5.64,0,0,1-.18,1.39,12.6,12.6,0,0,1-.45,1.44c-.18.48-.37,1-.56,1.44a11.58,11.58,0,0,0-.47,1.35,18.79,18.79,0,0,0-.77,5.31,10.15,10.15,0,0,0,.29,2.14,13.15,13.15,0,0,1,.34,2.5,4.27,4.27,0,0,1-.4,2.09c-.3.59-1,.88-2,.88a3.66,3.66,0,0,1-2.23-.7,5.61,5.61,0,0,1-1.62-1.82,11.49,11.49,0,0,1-1.08-2.54,24.22,24.22,0,0,1-.68-2.86A25.7,25.7,0,0,1,2.75,497c-.07-.88-.09-1.64-.09-2.27a25.26,25.26,0,0,1,.42-4.61c.29-1.52.6-3,1-4.55s.66-3,.94-4.54a24.57,24.57,0,0,0,.43-4.61,4.6,4.6,0,0,0-.25-1.51,14,14,0,0,0-.54-1.42q-.29-.67-.54-1.35a3.91,3.91,0,0,1-.24-1.31c0-.29.13-.45.4-.45a5.11,5.11,0,0,1,2.5.72A9.77,9.77,0,0,1,9,472.91a9.14,9.14,0,0,1,1.69,2.38,5.56,5.56,0,0,1,.65,2.52,8.61,8.61,0,0,1-.85,3.58c-.57,1.24-1.19,2.54-1.87,3.89a44.94,44.94,0,0,0-1.84,4.23A12.67,12.67,0,0,0,6,494.05c0,.18,0,.45,0,.82a6.91,6.91,0,0,0,.16,1,2.55,2.55,0,0,0,.36.88.75.75,0,0,0,.65.38c.45,0,.93-.35,1.44-1.06a21.87,21.87,0,0,0,1.51-2.43q.74-1.37,1.35-2.7a11,11,0,0,1,1-1.87Zm14.87-9.13c0-1,0-1.88.05-2.68a5.67,5.67,0,0,0-.27-2.09,3.2,3.2,0,0,0-1.17-1.53,7.36,7.36,0,0,0-2.67-1l-.13-.17a.3.3,0,0,0,0-.1.14.14,0,0,1,0-.09c0-.35.21-.67.7-.94a7.12,7.12,0,0,1,1.85-.65,10.26,10.26,0,0,1,2.42-.23,9.15,9.15,0,0,1,2.41.36,4.65,4.65,0,0,1,1.85,1,2.4,2.4,0,0,1,.74,1.86A6.44,6.44,0,0,1,32.9,476a6.09,6.09,0,0,0-.45,2.34c0,.28.14.41.45.41a3,3,0,0,0,1-.18l1-.38,1-.39a3.24,3.24,0,0,1,1-.18,4.24,4.24,0,0,1,1,.14,2.93,2.93,0,0,1,1,.43,2.74,2.74,0,0,1,.72.72,1.77,1.77,0,0,1,.29,1,2.13,2.13,0,0,1-.47,1.44,3,3,0,0,1-1.22.83,7.69,7.69,0,0,1-1.69.45l-1.84.32a11.89,11.89,0,0,0-1.66.4,2.84,2.84,0,0,0-1.22.74,8.77,8.77,0,0,0-.09,1.22v1.22c0,.62,0,1.3,0,2s0,1.45,0,2.18a18.33,18.33,0,0,0,.18,2.14,8.17,8.17,0,0,0,.52,1.89,1.7,1.7,0,0,0,.9.74c.48.23,1.06.48,1.73.74s1.39.58,2.14.91a9.71,9.71,0,0,1,2,1.21A6.83,6.83,0,0,1,40.77,500a4.27,4.27,0,0,1,.63,2.34,2.4,2.4,0,0,1-.54,1.62,2,2,0,0,1-1.57.63A2.57,2.57,0,0,1,37.6,504a11.12,11.12,0,0,1-1.4-1.35,15.9,15.9,0,0,0-1.35-1.37,2.31,2.31,0,0,0-1.6-.63c-.08,0-.24.21-.47.63s-.46.89-.72,1.42-.52,1-.78,1.53a3.66,3.66,0,0,1-.68,1,6,6,0,0,1-1.31.72,8.76,8.76,0,0,1-1.62.5q-.86.18-1.68.27a14.26,14.26,0,0,1-1.51.09,13.2,13.2,0,0,1-2.86-.32,8,8,0,0,1-2.56-1,5.76,5.76,0,0,1-1.87-1.87,5.25,5.25,0,0,1-.72-2.86,5,5,0,0,1,.86-3,6.43,6.43,0,0,1,2.18-2,10.6,10.6,0,0,1,2.92-1.08,22,22,0,0,1,3.09-.43h.53a5.27,5.27,0,0,0,.7,0,1.7,1.7,0,0,0,.59-.18.43.43,0,0,0,.24-.41v-8.5a.4.4,0,0,0-.45-.45H21a2.35,2.35,0,0,1-1.3-.56,10.77,10.77,0,0,1-1.49-1.33,9,9,0,0,1-1.22-1.6,2.84,2.84,0,0,1-.49-1.37.37.37,0,0,1,.41-.41,2,2,0,0,1,.76.18c.27.13.56.27.86.43a6.52,6.52,0,0,0,.93.43,2.65,2.65,0,0,0,1,.18h6.31a.77.77,0,0,0,.43-.18,2.25,2.25,0,0,0,.38-.32Zm-9.38,20.38a1.81,1.81,0,0,0,.4,1.24,2.54,2.54,0,0,0,1,.72,4.37,4.37,0,0,0,1.28.32c.47,0,.89.06,1.29.06a15.73,15.73,0,0,0,2.25-.15,5.43,5.43,0,0,0,1.82-.61,3.18,3.18,0,0,0,1.24-1.3,5.14,5.14,0,0,0,.45-2.3.63.63,0,0,0-.37-.54,2.51,2.51,0,0,0-.85-.2,12,12,0,0,0-1.26-.09l-1.28,0h-1c-.48,0-1,0-1.57.09a6.21,6.21,0,0,0-1.62.41,3.48,3.48,0,0,0-1.29.88A2.13,2.13,0,0,0,18.23,500.26Z"/><path class="cls-1" d="M29.83,526.23c.34,0,.5.15.5.45s-.16.45-.5.45q-7.42,0-14.69.13T.45,527.4A.4.4,0,0,1,0,527q0-3.33.13-6.59c.1-2.18.14-4.37.14-6.6a.43.43,0,0,1,.16-.38.54.54,0,0,1,.36-.09.93.93,0,0,1,.38.14.37.37,0,0,1,.18.33v12a.4.4,0,0,0,.45.45Z"/></g></g></svg>