<svg xmlns="http://www.w3.org/2000/svg" viewBox="0 0 67.95 487.69"><defs><style>.cls-1{fill:#fff;}</style></defs><title>アセット 8</title><g id="レイヤー_2" data-name="レイヤー 2"><g id="レイヤー_2-2" data-name="レイヤー 2"><path class="cls-1" d="M52.61,38.39a.88.88,0,0,0,.66-.34c.59-.61,1.25-1.22,1.91-2a2,2,0,0,1,2.64-.21c1.11.75,2.58,1.77,4,2.93a1.28,1.28,0,0,1,.37,1.84,2.61,2.61,0,0,1-1.69.55H37.33c-.66,0-.89.2-.89.82V56.39c0,.61.23.82.89.82H57.6a.89.89,0,0,0,.67-.35l2.13-2.31A1.92,1.92,0,0,1,63,54.27a53.21,53.21,0,0,1,4.26,3.41l.15.14a1,1,0,0,1,.29,1.5,2.19,2.19,0,0,1-1.83.68h-63a1.6,1.6,0,0,1-1.76-1.29c-.37-1,0-1.5,1-1.5H31.08c.66,0,.88-.21.88-.82V42c0-.62-.22-.82-.88-.82H9.77a1.73,1.73,0,0,1-1.83-1.43c-.22-.89.22-1.37,1.17-1.37Zm8.23-10.83c.59-.07.88-.21,1-.48a42.21,42.21,0,0,0,1.61-6.54l.15-.69a.77.77,0,0,1,.81-.61.63.63,0,0,1,.66.61l.29,6.62c0,.34.22.54.52.75a1.9,1.9,0,0,1,1.32,1.83c0,2.05-2.06,2.73-13.23,2.73H46.36c-5.29,0-6.46-1-6.46-4.22V13.17c0-.61-.22-.81-.88-.81H31.15a.81.81,0,0,0-.88.68c-2.79,12.47-10.21,19-26,22.83H4.12c-.52.21-1,0-1.18-.68s0-.95.59-1.16c13.3-4.57,19.25-10.56,21.6-20.72.15-.68-.07-1-.88-1H12.05c-.58,0-.81.2-.88.75-.37,4.15-2.06,7-3.75,8.38S3.24,23.4,2.06,22,2,19,3.46,17.94C6.1,16,8.6,11.54,8.6,6.36a.82.82,0,0,1,.88-.82,1.06,1.06,0,0,1,1.1.82A20.05,20.05,0,0,1,11,9c.08.41.37.61.89.61H31.08c.66,0,.88-.2.88-.82V1.79C32,.5,32.7-.12,34.09,0l3.09.27h.15c1.17.27,1.83,1,1.25,1.77a3.31,3.31,0,0,1-1.4.82c-.44.21-.74.41-.74.89v5c0,.62.23.82.89.82H59.15a.8.8,0,0,0,.59-.27L61.13,8a1.88,1.88,0,0,1,2.72-.07l3.09,2.8c.8.82.8,1.77-.15,2h-.15a3.87,3.87,0,0,1-1.39.21.57.57,0,0,0-.52.27,55.16,55.16,0,0,1-9.26,7.91,1.32,1.32,0,0,1-1.32.07c-.51-.21-.59-.55-.29-.89v-.14c1.47-2,3-4.43,4.26-6.61.51-.88.22-1.22-.74-1.22H45.19c-.66,0-.88.2-.88.81v13.7c0,.69.14.82,2.71.82h7.06a59.62,59.62,0,0,0,6.61-.13Z"/><path class="cls-1" d="M15.65,95.44q0-3.16-1.76-.41A48.44,48.44,0,0,1,1.77,107.58a1.37,1.37,0,0,1-1.25,0,.46.46,0,0,1-.37-.35.87.87,0,0,1,.15-1.15A56.18,56.18,0,0,0,13.45,86.45c.29-.75,0-1.1-.81-1.1H2.94A1.8,1.8,0,0,1,1,83.92c-.22-.88.15-1.43,1.25-1.43H14.77c.66,0,.88-.2.88-.82V73.09c0-1.3.74-1.91,2.13-1.78l2.87.28c1.17.13,2,1,1.47,1.77L22,73.5a3.08,3.08,0,0,1-1.32.68c-.44.2-.66.41-.66.88v6.61c0,.62.22.82.88.82H24.1a.81.81,0,0,0,.74-.41l1.61-1.77A1.86,1.86,0,0,1,29.24,80c1.11.82,2.5,1.91,3.68,2.93a1.33,1.33,0,0,1,.37,1.7,2,2,0,0,1-1.69.68H20.87c-.66,0-.88.21-.88.82v3a.74.74,0,0,0,.59.75c8,2.52,10.94,6.55,10.94,8.8a2.17,2.17,0,0,1-3,2.18,1.57,1.57,0,0,1-.88-.89,27.61,27.61,0,0,0-6.32-7c-.81-.75-1.32-.41-1.32.61v16.29c0,.82-1.84,1.84-3.38,1.84h-.44a.48.48,0,0,1-.52-.47ZM1,130.14c-.51-1.3.22-2.73,1.47-3.75l.3-.14A16.67,16.67,0,0,0,11.1,116a.91.91,0,0,1,.88-.82h.22a1.15,1.15,0,0,1,.88.82v.14c0,7.08-3.75,11.92-6.69,13.76-1.83,1.1-4.18,1.44-5.21.55Zm18.52-14.73c0-1.29.73-1.9,2.13-1.77l2.57.27c1.1.14,1.84.89,1.32,1.71a2.34,2.34,0,0,1-1,.75c-.44.2-.66.41-.66.88v10.43c0,.68.3.82,3.6.82h9.77c4.71,0,8.16.07,9.33-.14a1.49,1.49,0,0,0,1.25-.61c.66-1.09,1.33-4,2-7.29a.81.81,0,0,1,.88-.62.64.64,0,0,1,.66.62l.15,6.81a.89.89,0,0,0,.58.82,1.8,1.8,0,0,1,1.33,1.64c0,2.18-2.28,2.86-16.17,2.86H27c-6.32,0-7.49-1-7.49-4.36Zm7.86-4.15a1.61,1.61,0,0,1,1.47-.34C38,113.44,41,117.59,41,120.39a2.26,2.26,0,0,1-3,2.39,1.57,1.57,0,0,1-1-1c-1.39-3.34-5.58-7.15-9.55-9.4C27,111.94,27,111.67,27.41,111.26Zm8.45.34a.49.49,0,0,1-.52-.48V75.74c0-1.43,1-2,2.35-1.36l2,1,.44.2H57.31a.84.84,0,0,0,.66-.27l1-1.09a1.93,1.93,0,0,1,2.65-.28L64.51,76a1.31,1.31,0,0,1,.07,2.31h-.14l-1.18.48a.75.75,0,0,0-.59.75V108.8a.7.7,0,0,1-.07.34l-.07.14-.22.34a8.48,8.48,0,0,1-3,1.23.33.33,0,0,1-.36,0h-.08a.67.67,0,0,1-.44-.41,1,1,0,0,1-.14-.48v-2c0-.62-.22-.82-.89-.82H40.56c-.66,0-.88.2-.88.82v1.9c0,.69-1.69,1.78-3.38,1.78Zm4.7-33.33c-.66,0-.88.2-.88.81v5c0,.61.22.82.88.82H57.38c.67,0,.89-.21.89-.82v-5c0-.61-.22-.81-.89-.81Zm0,9.47c-.66,0-.88.21-.88.82v5c0,.62.22.82.88.82H57.38c.67,0,.89-.2.89-.82v-5c0-.61-.22-.82-.89-.82Zm0,9.54c-.66,0-.88.21-.88.82v5.32c0,.61.22.82.88.82H57.38c.67,0,.89-.21.89-.82V98.1c0-.61-.22-.82-.89-.82Zm22.63,31.56c-1.62-4.36-7.35-9.68-11.9-13-.37-.2-.44-.54-.15-.95l.15-.14a1.2,1.2,0,0,1,1.25-.13h.14c11.24,3.81,14.84,9.47,14.84,12.74,0,2.12-1.54,3.41-3.3,2.59l-.22-.07a1.93,1.93,0,0,1-.81-.88Z"/><path class="cls-1" d="M13.67,152.23a1.3,1.3,0,0,1,.07-2.59,17,17,0,0,1,3.6-.21c3.24.21,7.94,3.68,7.94,5.52a3.27,3.27,0,0,1-.59,1.71,6.93,6.93,0,0,0-1.25,3.06,219.73,219.73,0,0,0-2.28,27.34c0,8.52,2.65,11.79,10.58,11.79a33.7,33.7,0,0,0,26.82-13.63l.07-.21a1.54,1.54,0,0,1,1.84-.27,1.16,1.16,0,0,1,.44,1.7A33.42,33.42,0,0,1,32,203.55c-9.92,0-14.76-4.5-14.76-16.15,0-6.89.66-15.88,1.24-22.56.3-3.82.52-7,.52-8.39,0-2.11-.37-2.45-1.47-3l-.22-.06a9.62,9.62,0,0,0-3.45-1.16Zm22.85,8.65c-.66-.34-.74-.95-.29-1.63a1.54,1.54,0,0,1,1.76-.41,31.7,31.7,0,0,1,7.71,4.36c2.13,1.57,3.38,3.61,3.31,5.18a1.75,1.75,0,0,1-1.84,1.84c-1,0-1.76-.95-2.94-2.38l-1-1.23a30.77,30.77,0,0,0-6.53-5.73Zm6.61-5.72a.84.84,0,0,1-.29-1.43,1.71,1.71,0,0,1,1.83-.48,29.9,29.9,0,0,1,7.87,3.88c2.35,1.71,3.52,3.55,3.52,5.39a1.68,1.68,0,0,1-1.76,1.91c-.81,0-1.54-.68-2.65-2L50.33,161a36.92,36.92,0,0,0-7-5.79Z"/><path class="cls-1" d="M32,239.12c.22.27.37.34.66.2,7.72-3.48,14.63-6.13,20.72-6.13,6.84,0,11.39,3.68,11.39,9.13,0,5.86-5.44,8.86-11.9,8.86a16.2,16.2,0,0,1-11.9-5.66.81.81,0,0,1,0-1.22l.14-.14a1.3,1.3,0,0,1,1.47.07,17.17,17.17,0,0,0,10.07,3.13c4.77,0,7.93-2.11,7.93-5.86,0-3.47-3.16-5.72-7.56-5.72-5.37,0-11.69,2.79-18,6.13-.52.34-.67.68-.3,1.09a151.13,151.13,0,0,1,7.64,14.86A19.91,19.91,0,0,1,44.23,265c0,1.7-.81,2.93-2.27,2.93-1.11,0-1.84-.61-2.28-2.32l-.52-2c-.36-1.44-.81-3.28-1.54-5.39a82.59,82.59,0,0,0-6.32-13.43.74.74,0,0,0-1.1-.27c-.88.48-1.76,1-2.57,1.5l-1.25.75-2.06,1.36a5.53,5.53,0,0,1-3.16,1.37c-1.69,0-4.11-1.57-5.21-3.14a5.37,5.37,0,0,1-.74-3,1.07,1.07,0,0,1,.44-.82,1,1,0,0,1,.37-.13,1.15,1.15,0,0,1,1,.2l.07.14c.81,1,1.69,1.91,2.79,1.91a13.18,13.18,0,0,0,4.78-1.57L28,241.5c.58-.34.66-.68.22-1.16-.81-1-1.47-1.7-2.06-2.45l-.52-.61c-.8-1-1.69-2.12-1.17-3.82.81-2.52,2.79-2.73,4.26-2.86l.74-.07c4.4-.41,8.74-.41,10.5-.61h.15c.37-.14.51-.35.37-.69-.59-1-2.21-2.25-5.15-3.27-.58-.2-.81-.61-.66-1.09,0-.07,0-.07.08-.2a1.56,1.56,0,0,1,1.39-.69c4.12.48,6.69,2,8.08,3.41a5.79,5.79,0,0,1,1.84,4c0,1.37-.66,2.12-1.84,2.12a3.69,3.69,0,0,1-1.54-.27h-.15l-1.61-.35h-.15c-1,0-2.64-.13-4.34-.13a54.65,54.65,0,0,0-5.95.27c-1.54.21-2,.27-2,1s1.69,2.93,3.23,4.71Z"/><path class="cls-1" d="M33.43,298.61c.74-.27.74-.27.88-.41s.08,0,.08-.07a4.93,4.93,0,0,1,2.2-.61,2.53,2.53,0,0,1,2.5,2.25c0,1.36-1.69,2.25-2.65,2.72a56.12,56.12,0,0,1-11,3.41.61.61,0,0,0-.58.55c-2.57,7.63-7.94,19.9-14,27.74-.88,1.16-1.62,2.11-3.09,2.11s-2-1.43-2-2.59a5.52,5.52,0,0,1,1.25-3.27c4-5.18,10.28-13.63,13.52-22.42.29-.89.07-1.23-1-1.1-1.4.07-2.72.14-4.11.14-5,0-7.65-1.7-10.07-5.86a1,1,0,0,1,.29-1.57,1.68,1.68,0,0,1,1.69-.07l.15.14c2.35,2.18,4.19,3.27,8.82,3.27a39,39,0,0,0,5.43-.54.78.78,0,0,0,.67-.62,47.46,47.46,0,0,0,1.17-6.95c.07-1.09-.15-1.43-1.17-1.91h-.15a23.73,23.73,0,0,0-2.65-.68,1.08,1.08,0,0,1-1-1.16,1.16,1.16,0,0,1,1-1.29,17.1,17.1,0,0,1,3.24-.41,11,11,0,0,1,5.14,1.09c1.17.75.95,1.84-1.18,9.27-.29.88.22,1.29,1.18,1a39.91,39.91,0,0,0,5.22-2.11ZM46.22,330a.75.75,0,0,0,.66.68,38.54,38.54,0,0,1,11.24,5c3.16,2,4.55,3.95,4.55,5.52,0,1.3-.51,2.25-1.76,2.25-.95,0-1.76-.61-2.86-1.64l-.59-.54a28.56,28.56,0,0,0-9.77-5.93c-.74-.27-1-.07-1,.61a7.73,7.73,0,0,1,.07,1.16c0,5.73-4.55,9.27-11.9,9.27-7.64,0-11.68-3.54-11.68-7.57,0-5.52,6-9,15.65-9h2.35c.81.07,1-.21,1-1L42,327.78a54,54,0,0,1-.44-6.75,10.79,10.79,0,0,1,3.67-8.65c2.06-1.84,4.85-2.8,7.2-3.75l1-.41c1.32-.55,1-1.16-.07-1.91-1.69-1.29-4.34-1.84-7.28-1.91a1.22,1.22,0,0,1-1.39-1.29c0-.89.51-1.3,1.39-1.43h1.62A18.27,18.27,0,0,1,55,302.84c4.19,1.56,6.54,4.56,6.54,7.08,0,1.71-.66,2.59-2.13,2.59a4.51,4.51,0,0,1-1.69-.27,14.15,14.15,0,0,0-3.75-.41h-.14A12.27,12.27,0,0,0,47,314.49c-1.68,1.5-2.13,3.41-2.05,5.79.07,1.3.37,3.62.73,6.28Zm-3.68,4.36c0-.34-.07-.41-.44-.47a34.14,34.14,0,0,0-5.51-.48c-6.76,0-10.28,2.39-10.28,4.7s2.42,4,7.71,4c7.2,0,8.52-3.28,8.52-7.16Z"/><path class="cls-1" d="M27.26,405.66a3.88,3.88,0,0,0,.15,3.14,2,2,0,0,1,.29,1.29,2.42,2.42,0,0,1-2.57,2.39A5.07,5.07,0,0,1,23,412c-5.66-2.59-13.52-9.2-13.74-22.08a56.9,56.9,0,0,1,.22-8,37.27,37.27,0,0,0,.15-3.88c0-3.34-.15-4.57-5.22-8a.94.94,0,0,1-.22-1.43A1.38,1.38,0,0,1,5.73,368a17.42,17.42,0,0,1,3.24,1c2.5,1.16,6.24,4.16,6.24,7a15.36,15.36,0,0,1-.81,4.43A31.27,31.27,0,0,0,13,390.05c0,8.59,4.48,13.36,7.57,15.2h.14a1.63,1.63,0,0,0,2.06-.34l.07-.13a88.1,88.1,0,0,0,6.32-11.45,1.2,1.2,0,0,1,1.77-.69c.88.34,1.1.89.8,1.64l-.95,2.32c-1.47,3.54-3.31,7.63-3.53,8.93Zm32.33-8.18c-.44-3.06-1.32-8.93-4.41-13.22-2.35-3.34-5.73-5.32-10.14-6.88a1.2,1.2,0,0,1-.88-1.71c.22-.75.81-.95,1.76-.95h.15a23.4,23.4,0,0,1,12,6.61c4,4.09,6.46,11.38,6.46,15.74,0,2.66-.95,3.62-2.64,3.62-1.25,0-2.06-1-2.28-2.66Z"/><path class="cls-1" d="M31.67,442.16l-.07.06-1.18,2.53L29,447.81c-.44,1-.14,1.37,1,1.16a34.62,34.62,0,0,1,4.26-.34c5.51,0,8.67,2.93,8.67,10.91s-2.86,17.79-6.9,22.9a11.29,11.29,0,0,1-9,4.5c-2.2,0-2.42-.89-3.52-2.32l-.3-.48V484a47.82,47.82,0,0,0-4.7-4.43,1,1,0,0,1-.22-1.37,1,1,0,0,1,1.47-.34c3.53,2.18,6.61,3.82,8.16,3.82,2.27,0,3.82-.75,5.8-3.68,2.28-3.27,5.07-11.25,5.07-19.09,0-5-1.18-7-5.22-7a31,31,0,0,0-6.46.89,1.29,1.29,0,0,0-.59.48c-2.06,4.56-4.48,9.4-6.91,14-4,7.7-7.71,14.31-10.87,18.47-1,1.3-2,2-2.87,2a2.52,2.52,0,0,1-2.13-2.59A4.77,4.77,0,0,1,4.93,482a129.35,129.35,0,0,0,11.53-16.7,82.64,82.64,0,0,0,4.85-9.54c.44-1,.07-1.43-1.1-1.09-1.84.54-3.53,1.09-4.63,1.5l-2.72,1a9.58,9.58,0,0,1-3.45.89c-1.84,0-4.7-2.53-5.29-4.77A8.25,8.25,0,0,1,4,449.93v-.14a1.58,1.58,0,0,1,1.33-1c.51-.07.81.06.88.47l.14.48c.52,1.57,1.11,3.13,2.87,3.13s5.66-.95,9.77-1.77c1.55-.34,2.87-.68,4.26-.95a.93.93,0,0,0,.66-.48c2.14-5.11,3.68-9.27,3.68-10.36a1.35,1.35,0,0,0-1-1.36h-.14c-.89-.48-2.72-.55-4.41-.75a1.19,1.19,0,0,1-1.25-1.3,1.32,1.32,0,0,1,1.1-1.43h.15a12.15,12.15,0,0,1,3.3-.41c2.94,0,8.31,2.46,8.31,4.23a4,4,0,0,1-1,2.38ZM48.27,450a1.66,1.66,0,0,1,2-.95c5.58,1,8.59,2.86,11.31,5.79,2.57,2.66,4.26,7.16,4.26,12.41,0,2.73-.88,5-3,5a2.58,2.58,0,0,1-2.13-1.16,2.15,2.15,0,0,0-1.69-.95,42.17,42.17,0,0,0-7.71.48,1.4,1.4,0,0,1-1.62-1.09c-.15-.75.22-1.3,1.1-1.5,2.57-.55,6.76-1.37,8.75-1.91a2,2,0,0,0,1.39-2.46,15.83,15.83,0,0,0-3.09-7.22c-1.76-2.39-4.4-3.89-8.81-4.91C48.13,451.36,47.91,450.81,48.27,450Z"/></g></g></svg>