<svg xmlns="http://www.w3.org/2000/svg" viewBox="0 0 533.73 1071.11"><defs><style>.cls-1{fill:#e58840;}</style></defs><title>char-2</title><g id="レイヤー_2" data-name="レイヤー 2"><g id="レイヤー_4" data-name="レイヤー 4"><path class="cls-1" d="M384.36,438.92l-1.22,4.89Q381.84,449,380,454.1l-3.12,8.7q-1,2.88-2.24,5.68l-3,6.84a96.45,96.45,0,0,1-6.14,11.86l-1.14,1.87c-.9,1.48-1.85,2.94-2.83,4.38l-8.76,12.78,4.33-1.12a33.87,33.87,0,0,0,12.93-6.56h0a30.86,30.86,0,0,0,6.23-6.92l8.93-13.56,1.59,23.45c.08,1.15.19,2.3.33,3.44l2.35,19.19,1.35-9.64a113.33,113.33,0,0,1,7.84-28.33l.3-.72a145.87,145.87,0,0,1,7.51-15.2l4.14-7.29q2.33-4.09,4.31-8.38l11.25-24.31.43,9.85a73.74,73.74,0,0,1-1.51,18.51h0a113.1,113.1,0,0,1-3.85,13.87l-4.46,12.81-9,23.9,27.31-18.78,22.19-16.21-.43,30.29V513l1.33-2a168.42,168.42,0,0,0,21.79-46.34l.35-1.18,4.18-14.41a204.18,204.18,0,0,0,5.5-24.42l2.69-16.64,1.23,9.39a92.28,92.28,0,0,0,4.88,19.93h0a73.29,73.29,0,0,0,7.37,14.77l2.09,3.22a80.57,80.57,0,0,0,8.14,10.53l4.45,4.89,12.8,12.8-6.88-16.25q-3.78-8.93-6.72-18.17l-8.63-27.11a93.45,93.45,0,0,1-4.17-21.66l-1.4-19.18a186.37,186.37,0,0,1,.57-33.32l2.17-20.21a147.47,147.47,0,0,0,.71-21.94l-1.7-41.08a184.58,184.58,0,0,0-1.84-19.49l-2.77-18.68q-.92-6.18-2.27-12.28l-2.12-9.54a72.17,72.17,0,0,0-8.37-21.16h0a34.11,34.11,0,0,0-2.07-3.1l-4-5.33,3.32-4.16a59.75,59.75,0,0,0,10.28-19.19l.7-2.19a45.69,45.69,0,0,0,2.16-15h0A64.25,64.25,0,0,0,497,114.67h0a85.68,85.68,0,0,0-8.93-18h0a103.14,103.14,0,0,0-14.88-18h0a62.61,62.61,0,0,0-7.44-6.15l-7.56-5.32-.55-.89a177.72,177.72,0,0,0-25.81-32.72h0A7.65,7.65,0,0,0,429.68,32l-18-8.39-6.33-2.81a71.62,71.62,0,0,0-26.95-6.15h0l-5.8.54a76.73,76.73,0,0,0-24.07,6.29h0l-13.66-.43-2.19-2.54A48.84,48.84,0,0,0,312,4.36h0A77.54,77.54,0,0,0,292.4.19h0A57.47,57.47,0,0,0,281,.4l-2.63.31A39.5,39.5,0,0,0,266.52,4l-5.33,2.44A33.34,33.34,0,0,0,253.88,11l-4.11,3.37a45.1,45.1,0,0,0-7.89,8.38h0l-28.43-.72q-5.28-.14-10.56.21L191,23a75.78,75.78,0,0,0-17.41,3.19L168,28A69.4,69.4,0,0,0,155,33.4h0A113.5,113.5,0,0,0,132,50l-2.33,2.17-3.44,1.08A135,135,0,0,0,94.1,68.17L92,69.52a70.68,70.68,0,0,0-9.39,7.12l-4.2,3.79A121.57,121.57,0,0,0,63,97.11L49.63,114.6a90.37,90.37,0,0,0-5.86,8.68l-6.71,11.28h0a97.92,97.92,0,0,0-18.69,26.15h0q-3.92,8-7,16.32h0a172.71,172.71,0,0,0-9.9,41.74l-.22,2L.5,227.84a95.84,95.84,0,0,0,1.15,27.47h0l3.7,12.12q2.7,8.79,6.14,17.33L16,295.86a141,141,0,0,0,6.2,13.31l5.06,9.54q2.59,4.88,4.7,10L39.2,346.2l-2.74,3a5.86,5.86,0,0,0-1.53,4h0a62.54,62.54,0,0,0,.54,8.21l.51,3.77a93.22,93.22,0,0,0,1.84,9.79h0a72.78,72.78,0,0,0,8.5,20.57h0a22.81,22.81,0,0,0,3.33,4.24l8.75,8.75.22,6.66a47.69,47.69,0,0,0,2,12h0A61.6,61.6,0,0,0,64.94,438h0a36.62,36.62,0,0,0,7.32,9.68l5.17,4.88a111.2,111.2,0,0,0,12.13,10l7,4.94A145.67,145.67,0,0,0,117.78,480l19.13,9.16,9.43,4.38a204,204,0,0,0,29.8,11.1h0c1.72.49,3.47.9,5.23,1.22h0A76.48,76.48,0,0,0,195,507.06h0a37,37,0,0,0,4.21-.24l9-1h0a22.7,22.7,0,0,1,8.67,6.4l2.85,3.42-9.52,4.52-11.38,5.21a11.07,11.07,0,0,0-4.76,4.15l-.31.49a35.68,35.68,0,0,0-2.36,4.34h0a47,47,0,0,0-3.62,12.06h0a66.94,66.94,0,0,0-.84,8.93l-.11,3.79-3.72,5.5a32.66,32.66,0,0,0-3.78,7.51h0a58.87,58.87,0,0,0-2.36,8.75l-1.26,6.62a13.84,13.84,0,0,0,.2,6l1.42,5.53,2.19,8-8.6,23.54q-1.63,4.47-3,9l-12.28,41.47-17.29,57.23-15.84,49.2L113,818.24l10.92,3.37-1.72,2.95a38.38,38.38,0,0,0-4.54,12.12l-1,5.38a60.85,60.85,0,0,0-1.08,11.42v13.17l.15,8.42a14.39,14.39,0,0,0,3.26,8.85h0a8.17,8.17,0,0,0,6,3l1.72.07a49.24,49.24,0,0,0,14.79-1.72h0a14.08,14.08,0,0,0,4.3-2l4.18-2.9c2.12-1.46,4.3-2.84,6.53-4.11h0l1.82,11.4q.83,5.13,1.94,10.2l9.24,41.72,10.61,46.51c.73,3.19,1.56,6.36,2.49,9.49l5.33,18q1.37,4.59,2.44,9.24l2.41,10.47a54.48,54.48,0,0,0,4.64,12.66l.62,1.21a10.44,10.44,0,0,0,3.66,4h0a6.21,6.21,0,0,0,3.35,1h0a6.78,6.78,0,0,0,4.92-2.11l1.22-1.29a31.83,31.83,0,0,0,3.27-4h0a51.15,51.15,0,0,0,7.45-16.54h0a40.88,40.88,0,0,0,1.21-9l.33-15.72a108.56,108.56,0,0,0-.44-12.36l-2.78-30.35L216,920.32l-2.51-41L212.7,849l22.86,3.62-.28,46L235,943.74l.56,60.21-.28,30.66-.56,34.29,1.94.65a30.32,30.32,0,0,0,11.46,1.5h0a30.71,30.71,0,0,0,14.4-4.61h0a25.73,25.73,0,0,0,11.41-16h0a153.6,153.6,0,0,0,3.93-29.89l1.72-53.16q.3-9.2,1.27-18.35l7.39-69.46,3.9-38.47,7.53-.5a43.75,43.75,0,0,0,6.35-.91l2.62-.57a26.91,26.91,0,0,0,10-4.47h0a52.77,52.77,0,0,0,8.78-8l3.75-4.27L323,807.39h0A111.38,111.38,0,0,1,313,778l-2.8-14.64q-1.08-5.73-2.57-11.37L300,723.06l-4.56-16.81A161.27,161.27,0,0,0,285,678.13h0a120.35,120.35,0,0,0-16.42-25.3l-2.8-3.33,2.34-16.58q.59-4.23,1.41-8.41l1.45-7.33a96.84,96.84,0,0,0,1.83-18.76v-9.87l6.46,11.07q3.79,6.51,6.93,13.37l8.05,17.69c1.53,3.36,2.92,6.8,4.14,10.29l2.24,6.34a51.92,51.92,0,0,1,2.23,8.68l1.28,7.69a33.65,33.65,0,0,0,.87,3.83l.41,1.42a68.85,68.85,0,0,0,8.47,18.49l3.17,4.87,12.35,19.56a115.89,115.89,0,0,0,6.88,9.76l7.37,9.38a44.56,44.56,0,0,1,3.33,4.87h0a52.62,52.62,0,0,1,6.12,15.84l.41,2a69,69,0,0,0,1.92,7.21l.67,2.07a105.44,105.44,0,0,1,3.21,12.4l.79,4.06c.22,1.1.48,2.2.78,3.28l.72,2.56a9.4,9.4,0,0,0,6.69,6.55h0a7.94,7.94,0,0,0,3.07.21h0a10.07,10.07,0,0,0,5.48-2.51h0a1.46,1.46,0,0,0,.48-1.3l-.5-3.85a42.23,42.23,0,0,0-.75-4.19l-.49-2.1a22.62,22.62,0,0,1-.5-7h0l4.08,1.42a49.11,49.11,0,0,1,5.2,2.16l4.85,2.35a43.23,43.23,0,0,1,4.41,2.47l2.89,1.86a50.08,50.08,0,0,0,6.65,3.59l.84.37a8.07,8.07,0,0,0,7.09-.25h0a1.63,1.63,0,0,0,.86-1.52l-.24-4.83v-3.22l3.18-1.5a3.15,3.15,0,0,0,1.8-2.84h0a4.93,4.93,0,0,0-2.64-4.37h0a38.81,38.81,0,0,0-9.84-3.52l-7-1.48a50.71,50.71,0,0,1-6.05-1.69h0a12.11,12.11,0,0,1-4.95-3.29l-7.37-8.15a48.4,48.4,0,0,1-7.27-10.6l-10.26-20.3-21.1-46.3L325,639.25l-17.88-46.31-6.76-18.5A153.9,153.9,0,0,1,295,556.62l-3.81-16.22a16,16,0,0,0-3-6.21h0a35.76,35.76,0,0,0-9.53-8.53l-5.28-3.23a67.71,67.71,0,0,1-6.79-4.75l-8.18-6.5-.58-16.71,37.22-14.06,28.13-11A85.64,85.64,0,0,0,334,464.29l9.63-5.4a97.26,97.26,0,0,0,12.46-8.33l12-9.42,10.55-8.79,9.08.29h0A14.92,14.92,0,0,0,384.36,438.92Z"/></g></g></svg>