<svg xmlns="http://www.w3.org/2000/svg" viewBox="0 0 562.15 1159.54"><defs><style>.cls-1{fill:#a81e5b;}</style></defs><title>char-1</title><g id="レイヤー_2" data-name="レイヤー 2"><g id="レイヤー_2-2" data-name="レイヤー 2"><path class="cls-1" d="M336,1144.55a51,51,0,0,1-12.6,1.59h-.42c-2.13,0-4.25-.07-6.38-.2l-4.75-.29a74.06,74.06,0,0,1-11.37-1.58h0a12,12,0,0,1-2.35-.78h0a22,22,0,0,1-6.57-4.53l-.78-.78c-1.46-1.46-2.85-3-4.15-4.58l-1.05-1.28v-6.51l.67-13,1.33-14.87a74.74,74.74,0,0,1,1.08-7.58l2.1-10.59,8.84-49.22,7.91-40.57a119.71,119.71,0,0,0,1.81-13l3.79-45.65,4.34-45.22-6.84-.83-5.61-.63a58.09,58.09,0,0,1-12.17-2.72l-.25-.09a11.15,11.15,0,0,1-3.85-2.25l-3.15-2.82-12.34,3.17L271,897.49q-.31,2.55-.78,5.07l-3.54,19.17-9.49,48.06q-.69,3.5-1.64,6.92l-10.89,39.12-11.16,39.06q-.85,3-1.44,6l-7.76,40.33-7.17,37-2.23,9.07a3.87,3.87,0,0,1-1.11,1.9l-1.73,1.64a4.34,4.34,0,0,1-1.37.88l-6,2.39c-.51.2-1,.38-1.58.54l-13.88,3.94-.19,0a70.47,70.47,0,0,1-18.69.44h0a39.93,39.93,0,0,1-5.54-1l-2.81-.7a1.5,1.5,0,0,1-1.13-1.45v-3.76a10.14,10.14,0,0,1,.23-2.13l1.1-5.12,2.21-9.37q.47-2,1.11-3.9l3.19-9.42,1.34-12.52,6-38.71,5-42.71,6.67-43.55,4.51-39.54,5.17-38.71,3.34-27.69-5.25-2.49,2.21-11.69-8.22-1.58c-1.52-.3-3-.67-4.52-1.11l-7.2-2.11a2.58,2.58,0,0,1-1.83-2.78h0a2.91,2.91,0,0,1,.49-1.32l4.17-6.17-1-.09a4.66,4.66,0,0,1-1.87-.55h0a2.64,2.64,0,0,1-1.38-2.22l-.12-3.24-.51-8.81-1.35,5.76-.65,2.37a12.45,12.45,0,0,1-3.24,5.58h0a5.62,5.62,0,0,1-2.41,1.44h0a2.64,2.64,0,0,1-2.59-.66l-.48-.48a3,3,0,0,1-.81-1.49l-.45-2.09a9.51,9.51,0,0,0-1.4-3.31h0l-.68,1.94a15.48,15.48,0,0,0-.55,1.91l-.8,3.6-.4,2.26a6.13,6.13,0,0,1-2.52,3.93l-.31.22a3.64,3.64,0,0,1-2.24.65l-1.31-.07a3.55,3.55,0,0,1-1.84-.62l-.15-.11a1.92,1.92,0,0,1-.81-1.37l-.32-3.24a12.7,12.7,0,0,1,0-1.95l.7-12.42c.06-1.12.07-2.24,0-3.36l-.41-9.43a52,52,0,0,1,.38-8.91h0a52.05,52.05,0,0,1,2-9.24h0a46.57,46.57,0,0,1,2.23-5.71l4.2-9.06a40.87,40.87,0,0,0,1.9-4.89l3.35-10.53c.29-.91.54-1.83.76-2.76l3.61-15.43a83.36,83.36,0,0,1,2.36-8.24l9.79-28.8,10.17-26.26,8-19.85a54.28,54.28,0,0,0,1.95-5.81l3.09-11.44-6.24-2.73a29.32,29.32,0,0,0-3.88-1.38h0a34.54,34.54,0,0,1-9.87-4.53h0l1.87-3,5.92-10.07c.57-1,1.1-1.95,1.59-2.95l5.87-11.88,4.64-8.73q1.11-2.12,2.39-4.14l3.81-6.1.85-7.29.21-2.67a35.71,35.71,0,0,1,1.38-7.38l.23-.76a35,35,0,0,1,1.77-4.67l1.09-2.34a27.86,27.86,0,0,1,2.56-4.43l2-2.83a36.88,36.88,0,0,1,3.11-3.83l.71-.76A26.16,26.16,0,0,1,229.8,560l2.29-1.43-9.22-9.91-9-9.69-10.14,15.91L192,571.92l-4.85-6.23-4.56-5.36a61.59,61.59,0,0,1-5.87-8.21L164.3,531.33l2.07,12,3.92,23.5c.31,1.86.69,3.71,1.16,5.53l3.68,14.56-3.48-1.51a73.42,73.42,0,0,1-12.63-7l-2.72-1.89a51,51,0,0,1-6.21-5.06l-9.79-9.35q-2.52-2.4-4.86-5l-8.75-9.66a86.76,86.76,0,0,1-8.34-10.77l-5.11-7.77a75.8,75.8,0,0,1-4-6.92l-5.54-10.73L91.2,485.45l2.08,36,1.84,36.43,4.93,10a85.29,85.29,0,0,0,4.39,7.87l5.15,8.2a101.13,101.13,0,0,0,11.14,14.6l1.6,1.74-5.07-2.53a63.3,63.3,0,0,1-7.12-4.16L102,588.12q-2.49-1.68-4.88-3.52l-9.49-7.37a72.65,72.65,0,0,1-6.78-6l-8.73-8.73c-1.88-1.88-3.68-3.85-5.39-5.89l-8.48-10.15c-1.24-1.49-2.44-3-3.57-4.59l-8.44-11.71,2.07,7.38,7.61,28.13,5.31,18.45-7.79-7.49a71.67,71.67,0,0,1-7.71-8.71l-3.32-4.43a67.53,67.53,0,0,1-6.22-10l-7.66-15.16q-1.2-2.39-2.24-4.85l-9-21.29a78.44,78.44,0,0,1-3.3-9.42L7.5,479.68,3.74,463.17a78.34,78.34,0,0,1-1.87-13.72l-.37-7.81L.07,400.78c-.12-3.5-.09-7,.09-10.52l1.57-30L5,329.46q.48-4.5,1.3-8.94l5.63-30.15,6.92-34.58L21.73,240c.5-2.72,1.12-5.41,1.83-8.07l2.63-9.76A70.81,70.81,0,0,1,29,213.91l3-7.39A58.72,58.72,0,0,1,36.29,198l2.57-4.19-2.31-.92-3.78,2c-1,.53-2,1-3.09,1.49l-.9.4a6.09,6.09,0,0,1-3.5.44l-2.6-.43a6.48,6.48,0,0,1-2.1-.73h0a17.7,17.7,0,0,1-5.38-4.62l-1.33-1.73a6.93,6.93,0,0,1-.66-1h0a49.69,49.69,0,0,1-3.64-8.95h0A42.55,42.55,0,0,1,8,171.74H8a54.25,54.25,0,0,1-.24-6.25L8,157.33,8.88,144l1-8.33A65.27,65.27,0,0,1,12,125.25l2.35-8.18c.37-1.29.79-2.58,1.24-3.84l3.07-8.54a66.47,66.47,0,0,1,3.68-8.39l5.48-10.46L34,73.16,33.26,70q-.4-1.67-.93-3.27l-.39-1.15a47.77,47.77,0,0,1-1.49-5.64h0a29.56,29.56,0,0,1-.58-5.86h0a36.48,36.48,0,0,1,.29-4.67l.41-3.31a41.45,41.45,0,0,1,1.51-7l.62-2a36.62,36.62,0,0,1,2.85-6.77l.34-.63a41.13,41.13,0,0,1,5.45-7.77l1.13-1.27a32.34,32.34,0,0,1,7-5.92l1.32-.82a38.89,38.89,0,0,1,4.4-2.38l4-1.84a47,47,0,0,1,9.89-3.27l2.94-.62A42.27,42.27,0,0,1,80,4.83h0A48.1,48.1,0,0,1,95.15,7l2.28.71,5.89,1.63,4.46-2.11a54.28,54.28,0,0,1,7-2.73L119.47,3l5.92-1.6a30.69,30.69,0,0,1,4.37-.86l2.46-.31A27.7,27.7,0,0,1,140.3.4l7.32,1.27,7.95,1.8a36.67,36.67,0,0,1,7,2.34l2.2,1a37.18,37.18,0,0,1,10,6.63l.38.35a22.24,22.24,0,0,1,5.74,8.54h0a22.21,22.21,0,0,1,1.42,7.81v.38a27.06,27.06,0,0,1-.66,5.95l0,.08a16.27,16.27,0,0,1-3.28,6.71l-5.64,6.86,6.87-2.53c2.55-.93,5.13-1.74,7.76-2.43l3-.77a60.62,60.62,0,0,1,8.13-1.52L215.05,41l5.79-2.29a84.17,84.17,0,0,1,9.56-3.15l9.09-2.42L249,30.77A86.34,86.34,0,0,1,258.5,29l10-1.31c2.32-.31,4.65-.51,7-.62l17.43-.82c1.61-.07,3.23-.1,4.84-.09l14.65.15a81,81,0,0,1,10.33.75l14.68,2a77.51,77.51,0,0,1,8.28,1.59l16.87,4.18a80.08,80.08,0,0,1,9,2.79l9.56,3.62a81,81,0,0,1,7.71,3.37l8.39,4.19q4,2,7.77,4.38l9.55,6A88.23,88.23,0,0,1,426,67.75l11.18,9.88q2.21,2,4.27,4l16,15.95q2.28,2.27,4.38,4.7L472,114q2.13,2.46,4.08,5l8,10.63q2,2.7,4.31,5.22l3.36,3.7A94.19,94.19,0,0,1,500.53,150l3.54,5.39a84.4,84.4,0,0,1,4.64,8l6.62,12.91,7.79,17.06c.92,2,1.76,4.05,2.54,6.13l6.48,17.4L537,231.67l5.33,17.55c.48,1.6.91,3.2,1.29,4.82l5,21.28,3.76,20.1,2.24,16.5q.38,2.79.56,5.61l1.94,28.9,2.13,29.26,2.16,22.94q.29,3,.33,6.12l.38,25.19a79.4,79.4,0,0,1-.44,9.5L558.64,468c-.24,2.19-.56,4.36-1,6.52l-4.48,23.16c-.41,2.12-.92,4.23-1.53,6.31l-4.56,15.66q-.57,2-1.26,3.93L542.18,534a78.56,78.56,0,0,1-3.6,8.58l-4.74,9.68c-.59,1.22-1.23,2.42-1.9,3.6l-4.56,8.07a50.54,50.54,0,0,1-4.83,7l-6.77,8.28,3-10.29a60.3,60.3,0,0,0,1.72-8l.8-5.44q.4-2.76.54-5.57l.68-14.85,1.31-20.93-2.06,3.73q-2.19,4-4.73,7.68l-3.39,5c-1.17,1.71-2.39,3.39-3.68,5l-4.85,6.14a95.65,95.65,0,0,1-6.44,7.35l-4.43,4.56a80.35,80.35,0,0,1-6.2,5.76l-5.86,4.9a70.39,70.39,0,0,1-5.88,4.41l-5.41,3.62a63.49,63.49,0,0,1-10.4,5.67l-10.07,4.35-8.5,12.42,5.4-12.91,4.27-10.41c.42-1,.8-2,1.15-3.09l3.4-10.37,3.39-10.16a19.61,19.61,0,0,0,.8-3.28h0a35.86,35.86,0,0,0-.84-15.11h0c-.49-1.78-1.06-3.54-1.72-5.26l-2.89-7.56a80.34,80.34,0,0,1-2.84-9l-2.6-10.15-1.72,7.32a76.92,76.92,0,0,1-2.17,7.47l-1.38,4a72.31,72.31,0,0,1-3.35,8l-3.63,7.45q-1,2-2.15,4l-7.18,12-3.83,6a66.6,66.6,0,0,1-8.47,10.68h0q-1.75,1.8-3.65,3.45l-5.76,5c-1,.88-2,1.72-3.08,2.53l-5.45,4.18-.33-6.87-.49-8.66-.51-7.11c-.09-1.25-.24-2.5-.43-3.74L394,541.29l-2-15.37-1.47-11.44-1.63-14.55-1.2,3.95a36.82,36.82,0,0,1-2.38,5.94l-2.53,4.95c-.4.79-.82,1.56-1.27,2.31l-2.67,4.48a60.41,60.41,0,0,1-4.93,7.07l-2.65,3.28a42.82,42.82,0,0,1-3.19,3.54l-6.9,6.91a51.93,51.93,0,0,1-4.65,4.11l-15.2,11.82h0c1.19,1.41,2.44,2.79,3.74,4.11l3,3a60.47,60.47,0,0,1,4.57,5.28l1,1.25a63.87,63.87,0,0,1,6.77,10.94l1,2a57.45,57.45,0,0,1,3.4,8.79l3.73,12.63,6.7,10.46,8.3,12.16c.79,1.16,1.54,2.34,2.24,3.56L396,650.16l-10.3,5.56,7.84,21.41,10.3,24.69,10,21.09L429,756.09l9.67,23a63.84,63.84,0,0,0,3.7,7.4l1.91,3.25a38.23,38.23,0,0,0,3.51,5h0a25.22,25.22,0,0,1,5.28,11.33l.61,3.3,2.78,7.52,4.91,12.92,1.95,5.08a7.41,7.41,0,0,1,.5,2.68h0a1.68,1.68,0,0,1-1.55,1.67l-.29,0a2.44,2.44,0,0,1-.89-.1l-3.64-1a6.8,6.8,0,0,1-1.85-.87l-6.66-4.49-4.78-3.49c-.84-.62-1.72-1.19-2.61-1.72l-3.89-2.31v3.17a15.2,15.2,0,0,1-.46,3.74h0a3.91,3.91,0,0,1-1.56,2.27L434,835.58a1.3,1.3,0,0,1-.9.22h0a7.68,7.68,0,0,1-3.8-1.58h0a9.06,9.06,0,0,1-2.31-2.73l-1-1.74a23.79,23.79,0,0,1-1.34-2.9h0c-.27-.75-.52-1.5-.74-2.26h0l1.63-3.11,2.62-5.56h0a64,64,0,0,1-4.43-7.15l-2.11-4-2.19-4a60.1,60.1,0,0,0-3.43-5.5l-2.65-3.78-6.16-8.93A86.37,86.37,0,0,1,402,774.1l-7-13.05-5.7-11.76-3.16-6.87a90.83,90.83,0,0,1-5.29-14.65l-1.47-5.5L377,712.71l-5.51-8.45-4.91-8c-1.39-2.25-2.67-4.57-3.86-6.94l-1.4-2.81a76.7,76.7,0,0,1-4.53-11.16l-1.85-5.82.68,9.83a58.74,58.74,0,0,0,.92,7.12l.52,2.72a30.36,30.36,0,0,0,2,6.39l2.17,4.93a53.32,53.32,0,0,1,1.9,5l1.75,5.44a42.34,42.34,0,0,1,1.43,5.8l1.6,9.26c.31,1.78.55,3.57.74,5.37l1.67,16.07a61.44,61.44,0,0,0,1.44,8.31h0a23.85,23.85,0,0,0,2.63,6.47l2.34,4a39.7,39.7,0,0,1,4.42,11h0a86.75,86.75,0,0,0,4.09,12.68l.41,1-3.86,2.2,5.1,7.59a79.66,79.66,0,0,0,6.1,8h0a107.91,107.91,0,0,1,7.55,9.75l3.55,5.17q1.41,2.06,2.67,4.2l5.54,9.43,8.64,16.18L410,861l2.62,4.68a12.48,12.48,0,0,1,1.61,6.14h0a4.52,4.52,0,0,1-1.54,3.4l-1.79,1.56a20.94,20.94,0,0,1-5.68,3.55l-1.21.5a2.86,2.86,0,0,1-2.62-.2l-1.08-.65a5.82,5.82,0,0,0-2.09-.78L396.6,879a6.23,6.23,0,0,0-1.06-.09H392l-1.29,13.79-2.94,20.4-6.61,38.6-4.78,26.46-3.08,15a143.83,143.83,0,0,1-4.94,18.14l-3,8.67L359.68,1035q-2.25,5.93-4,12l-2.26,7.9-8,28-5,19-6,23,1.47,7.34a22,22,0,0,1,.4,5.37l-.34,6.89ZM39.19,76.54A38.16,38.16,0,0,0,41.75,71l1.15-3.1,1.93-5.22A54.65,54.65,0,0,1,47,57.62l1.25-2.57q1.11-2.25,2.37-4.41l1.31-2.23q2-3.44,4.35-6.66h0a78.85,78.85,0,0,1,7.56-9l3.2-3.28,4.83-4.61A23.07,23.07,0,0,1,77.43,21l2.07-1a34.57,34.57,0,0,1,4.12-1.74l1.74-.61a38.41,38.41,0,0,1,7.09-1.73h0a67.92,67.92,0,0,1,9.45-.67h2.57l-3-1.48a28.14,28.14,0,0,0-10.28-2.86h0a12.15,12.15,0,0,0-2.09,0l-5.59.57-4.87.76a54.43,54.43,0,0,0-5.51,1.15h0A34.31,34.31,0,0,0,66,16.15l-1.44.75a50.21,50.21,0,0,0-6.29,3.89l-.72.53q-1.89,1.38-3.66,2.92h0a41.61,41.61,0,0,0-6.51,7.2l-1.78,2.5a37.07,37.07,0,0,0-3,5l-.34.67a59.5,59.5,0,0,0-3.29,8h0a40.23,40.23,0,0,0-1.52,6.49h0A53.9,53.9,0,0,0,37,63.82l.11,2.64A65.6,65.6,0,0,0,38.48,77.8h0Zm-.71,4.32a27.31,27.31,0,0,0-6.11,8.7l-.93,2.1A47.25,47.25,0,0,0,29,98.48l-.94,3.44a73.52,73.52,0,0,0-1.82,8.68L25.75,114q-.7,4.8-.93,9.65l-.34,7.77c-.08,1.79-.11,3.59-.08,5.38l.06,3.66c.05,3.14.25,6.26.6,9.38l.42,3.73a44.65,44.65,0,0,0,1.42,7.23l1.56,5.53c.22.74.45,1.48.7,2.22l1.09,3.14a56.93,56.93,0,0,0,4.46,9.8h0a39.09,39.09,0,0,0,2.69,4.06l.24.33a74.81,74.81,0,0,0,7.81,8.78h0l2.89-11.23,2.38-9,1.46-4.81a67.06,67.06,0,0,1,5.11-12.33l.75-1.4-4.21-1.63a9,9,0,0,1-2-1.07l-1.47-1a14.09,14.09,0,0,1-3-2.82l-2.25-2.88a16,16,0,0,1-1.32-2L42.4,142a16.7,16.7,0,0,1-1.77-4.41l-.73-3a34,34,0,0,1-.82-4.7l-.77-7.32-1.09-16.07c-.07-1.07-.1-2.16-.08-3.24l.08-5.76c0-3.35.24-6.7.58-10l.68-6.56Z"/></g></g></svg>