<svg xmlns="http://www.w3.org/2000/svg" viewBox="0 0 840.12 984.45"><defs><style>.cls-1{fill:#c3ce5f;}</style></defs><title>char-3</title><g id="レイヤー_2" data-name="レイヤー 2"><g id="レイヤー_3" data-name="レイヤー 3"><path class="cls-1" d="M485.63,506a64,64,0,0,0-9.83-15.05h0q-2.83-3.26-5.49-6.68l-5.68-7.38a95.36,95.36,0,0,1-6.16-9l-2.9-4.8a88.93,88.93,0,0,1-7.28-15.14l-4.64-12.57L446.17,458l3.15,23.32-5.6-10.76a52.25,52.25,0,0,1-3.7-9.08l-2.16-7.22a50.61,50.61,0,0,1-1.67-7.78l-2-14.95-2.37,16.61q-.46,3.24-1.15,6.45l-3.23,15.08a98.54,98.54,0,0,1-4.87,16l-3.82,9.57.31-20.8V455.52l-6.39,11.13A99.64,99.64,0,0,1,402,481.84l-1.32,1.54a97.92,97.92,0,0,1-7.79,8.12l-9.95,9.26a83.26,83.26,0,0,1-8.19,6.69l-12.39,8.89-.64-46.64-14.49,15.76-16.08,17,7.25,34.35L346.92,549a77.85,77.85,0,0,1,7,12.25l9.33,20.34,4.73,11h0a9.77,9.77,0,0,1-4.24,5.87l-.49.3q-2.2,1.4-4.28,3l-7.38,5.66.09.4a65.87,65.87,0,0,0,7,18.32l1.75,3.11a53.56,53.56,0,0,1,3.28,7l7.44,19.39,5.92,17.77a92.15,92.15,0,0,0,5.57,13.21l2.06,4,.89.59a66.05,66.05,0,0,1,15,13.75h0a27.76,27.76,0,0,1,3.88,6.52l.13.31a4.87,4.87,0,0,1-.2,4.2l-1.1,2,3.78,2.52,1.67,16c.36,3.41.86,6.8,1.53,10.16l.43,2.21a79.77,79.77,0,0,0,6.72,19.89l6.35,12.88,8.47,18.48a75.76,75.76,0,0,0,4.37,8.14L444.51,821c.68,1.11,1.4,2.19,2.14,3.26l8.46,12.14a72.92,72.92,0,0,0,5.92,7.42l4,4.43a58.92,58.92,0,0,0,5.39,5.21l3.34,2.83a54.06,54.06,0,0,0,9,6.2l1.22.67a56.31,56.31,0,0,0,7.71,3.51h0a7.32,7.32,0,0,0,4.09.3h0a11.51,11.51,0,0,0,6.46-3.88h0a6.06,6.06,0,0,0,.94-1.59h0a8.91,8.91,0,0,0,.53-4.71l-.41-2.64a16.43,16.43,0,0,0-.4-1.82l-.78-2.77A31.88,31.88,0,0,1,501,841h0a12.19,12.19,0,0,1,.8-4.35h0a29,29,0,0,1,4.8-8.24h0a59.33,59.33,0,0,1,6.31-6.57l5.42-4.83v-1.52a16.92,16.92,0,0,1,3.15-9.83h0l-.74-2.07a65.46,65.46,0,0,1-3.3-13.87l-.37-3-.38-3.16a62.44,62.44,0,0,1-.42-9.47l.41-13.35c0-1.59.06-3.18,0-4.77l-.58-25.66-.63-41.92h0a45.14,45.14,0,0,1-12.17-9.69l-4.53-5.12-.28,18c0,1.46-.1,2.92-.22,4.37l-.72,8.85a47.71,47.71,0,0,1-7.53,22.06h0a6,6,0,0,1-2.76,2.3h0a2.88,2.88,0,0,1-3.39-.91l-2.1-2.75a7.24,7.24,0,0,1-1-1.84l-6.56-16.94c-.42-1.07-.79-2.15-1.13-3.25l-.85-2.74a32.77,32.77,0,0,1-1.48-9.74V676.13l-.26-22.91a56.93,56.93,0,0,0-.93-9.57l-1.64-8.92c-.21-1.19-.47-2.36-.76-3.53l-1.23-4.93a51.28,51.28,0,0,1-1.46-9.46l-.65-10.8a60.12,60.12,0,0,1,.26-10.39l.05-.49,4.73-3.15a40.07,40.07,0,0,1,5.95-3.28l6-2.71.79-1.63a49.92,49.92,0,0,1,7.58-11.43l1.44-1.63c.82-.92,1.68-1.8,2.57-2.64l4.48-4.18a40.48,40.48,0,0,1,8-5.79l3.49-1.94a46.92,46.92,0,0,1,7.31-3.28l2.73-1a64.26,64.26,0,0,1,12.47-3h0a56.21,56.21,0,0,1,10-.47l6.85.29q3,.12,5.9.44l3.52.37a60,60,0,0,1,16.14,4l2.52,1a34.78,34.78,0,0,1,8.34,4.8l7.75,6a40.85,40.85,0,0,1,6.9,6.82h0a74,74,0,0,1,10.75,18.51l1.87,4.69c1.11,2.78,2.14,5.6,3.07,8.46L623,628.23l11,39.39,6.94,9.46,12.53,16.12q2.91,3.74,5.6,7.62l9.28,13.44h0a114.46,114.46,0,0,1,12.41,28.82l.83,3L689.16,777l7.56,31.2.14-.48a146.51,146.51,0,0,1,13.64-32.07h0q1-1.8,2-3.66l5-10.19q2.28-4.65,4.92-9.12l6-10.16c1.19-2,2.45-4,3.78-5.92l7.46-10.83A84,84,0,0,1,748,715.42l4.6-4.82a68,68,0,0,1,8-7.18l10.83-8.32c1.69-1.3,3.44-2.54,5.22-3.72l14-9.26-11,10.4-17.34,16.39,10.93-4.59A30.15,30.15,0,0,1,791,702.6h0v5l7.57,1.26,2.2,5L812,718.84a73,73,0,0,1,14.31,8.24l13.8,10.19-6.82.46a74.77,74.77,0,0,0-22.74,5.19h0a94.42,94.42,0,0,0-9.36,4.33l-1.42.75a89.12,89.12,0,0,0-9.12,5.56l-2.34,1.63a88.33,88.33,0,0,0-14.22,12.33l-6.47,6.94h2.12a81.18,81.18,0,0,1,10.22.65h0a59.26,59.26,0,0,1,14,3.57h0a94.53,94.53,0,0,1,11.91,5.64l6.53,3.69-6.46,1.46c-2.2.5-4.39,1.09-6.54,1.76l-2.13.66a42,42,0,0,0-9,4l-9,5.35-.6.53a61.21,61.21,0,0,0-13.37,17.1l-3.68,7-6.76,14.29A111.78,111.78,0,0,0,748,858.8L745.55,868a134.27,134.27,0,0,1-4.48,13.69l-1.17,3-2.35,1.47a71.64,71.64,0,0,1-13,6.44L721.09,894q-1.76.66-3.54,1.2l-14.76,4.45-.9,1.81c-.86,1.71-1.64,3.45-2.36,5.23L697.8,911a56.47,56.47,0,0,0-3.5,12.77h0a16.13,16.13,0,0,1-2.7,6.79h0a2.36,2.36,0,0,1-1.86,1h0a99.8,99.8,0,0,1-12-.2l-2.47-.19a17.38,17.38,0,0,1-7-2.08h0a13.14,13.14,0,0,0-6.37-1.64h-.59a19.93,19.93,0,0,0-5.64.81l-5.46,1.59a43.3,43.3,0,0,0-8.75,3.66l-5.61,3.12c-1,.54-2,1-3,1.51l-4.44,2.06a16.83,16.83,0,0,1-5.85,1.53l-6.68.52a27.43,27.43,0,0,1-12.51-2h0a17.24,17.24,0,0,1-7.48-5.94l-1.8-2.51L586,929.93v6.38a4.82,4.82,0,0,1-.76,2.61h0a11.2,11.2,0,0,1-5.6,4.46L578,944a18.65,18.65,0,0,1-5.21,1.06l-8.25.48-12,.9a60.79,60.79,0,0,0-9,1.36L534.08,950a26.55,26.55,0,0,1-8,.58h0a19.17,19.17,0,0,1-7.71-2.27h0a30.27,30.27,0,0,1-7-5.22h0l4.19-4.89a36.27,36.27,0,0,1,3-3.15l1.76-1.61a48.78,48.78,0,0,1,8.24-6l10.54-6.16-4-3.47a37,37,0,0,1-8.25-10.13h0c-1-1.75-1.87-3.55-2.68-5.38l-7.52-16.92-2-5.06a45.63,45.63,0,0,0-7.37-12.42h0l-2.88,3.79a52.91,52.91,0,0,1-4.58,5.23h0a8.94,8.94,0,0,1-4.55,2.44h0a7.21,7.21,0,0,1-4-.34l-6.17-2.38h0a145.42,145.42,0,0,1-14.69-13.49l-1.77-1.87a69.39,69.39,0,0,0-6.14-5.74l-1.05-.86q-4.76-3.95-9.14-8.33L450.12,844c-1.8-1.8-3.53-3.67-5.2-5.59l-5.62-6.48-7.18-8.43-1.88-2.28a101.84,101.84,0,0,1-10-14.41l-.15-.25a60.75,60.75,0,0,1-3.09-6.27l-2.7-6.45-3.43-8.74-2.09-5.88a64.92,64.92,0,0,1-2.22-7.73l-1.07-4.85-4.5-3.09h0a92.91,92.91,0,0,1-15.47-18.93l-1.68-2.72-4.78-8.16-2.44-1.14A5.88,5.88,0,0,1,374,730h0a39.44,39.44,0,0,1-2.66-6.33h0a41.59,41.59,0,0,1-1.4-5.91l-2.33-14.43-8.16-12.09-9.56-15.19-2.25-3.65A126,126,0,0,1,341,660.22l-3.12-6.57q-2.06-4.3-3.87-8.72l-4.13-10q-1.92-4.68-3.5-9.49l-3.49-10.66h-6.75l-.28,11.53v18.85l1.84,2.06c1.77,2,3.61,3.94,5.5,5.83l1.27,1.27a8.1,8.1,0,0,1,2.36,5.71h0a4.55,4.55,0,0,1-1.13,3l-.84,1,1.33,5.31c.61,2.46,1.12,4.94,1.51,7.44l1.35,8.62a85.76,85.76,0,0,1,1,11.32l.17,8.08,5.89,7.92a96.27,96.27,0,0,1,5.75,8.66l3,5q1.69,2.86,3.19,5.85l1.41,2.82a109,109,0,0,0,17.48,25.28h0a73.57,73.57,0,0,1,6,7.41l1,1.43a15.18,15.18,0,0,1,2.75,7.53h0a5.39,5.39,0,0,1-1.69,4.39l-1.45,1.35a7.6,7.6,0,0,1-1.92,1.31l-3.83,1.84a56,56,0,0,0-15.36,10.87h0l7.88,25.31,4.66,13.53a77.61,77.61,0,0,0,10.58,20.3l2.07,2.84q4.62,6.36,8.62,13.13l1.17,2a146.32,146.32,0,0,1,8.76,17.37l.53,1.24a110.45,110.45,0,0,1,5.68,17.15l3.2,13.13,2.9,14.91a68.27,68.27,0,0,1,1,7.93l.58,8.22a93.05,93.05,0,0,1-.2,15.48l-.1,1L406,971.88a43.31,43.31,0,0,1-10.4,3.77l-1.74.38a21.23,21.23,0,0,1-5.95.47l-10.49-.66L370.09,964l-9.28-15.75-10.45-19.82q-3.33-6.33-6-13l-6-14.65q-1.43-3.48-2.61-7l-8.38-25.12-4.27-11.59A102.44,102.44,0,0,0,314,838.46h0a60.51,60.51,0,0,1-3.29-6.09l-12-25.82-11.06,1.61c-1.63.24-3.26.42-4.89.56l-14.14,1.2,5.9-9.56h0a41.55,41.55,0,0,0-11.19.4l-.28,0a19.86,19.86,0,0,0-4.46,1.31l-7.13,3L251.13,842l2.66,10.24q1.28,4.95,2.08,10l1.53,9.63a34,34,0,0,1,.41,6.13l-1.33,55.69v39.09l-1.5,1.42A33.26,33.26,0,0,1,244.25,981h0a55.65,55.65,0,0,1-9.55,2.81h0a30.44,30.44,0,0,1-9.94.35h0A22.41,22.41,0,0,1,214,979.78h0L213.45,966l-2-51.74L209.94,897a110.61,110.61,0,0,0-4.2-21.93l-.73-2.47-2.71-10.44a62.74,62.74,0,0,1-1.45-7.32l-2.23-16.44c-.24-1.76-.52-3.51-.86-5.25l-4.28-22.41-13.95-.23c-2.14,0-4.27-.14-6.4-.32l-7.31-.6a32.19,32.19,0,0,1-12.53-3.68h0a6,6,0,0,1-3.09-4.21l-.16-.86a1.11,1.11,0,0,1,.55-1.18l4.36-2.42L149,792.33q-3.88-3.21-7.46-6.79h0a6.14,6.14,0,0,1-1.62-2.87h0a3.88,3.88,0,0,1,.58-3.17l3.49-5-13.5-1.69-2.81-19.69-5.35-33.74-1.66-8.14a42.43,42.43,0,0,1-.87-8.56h0a9.27,9.27,0,0,1,2.71-6.54h0a8.31,8.31,0,0,1,3.55-2.11l7.52-2.21,1.13-28.12.7-24.68a34.54,34.54,0,0,0-1.07-9.55l-.92-3.6c-.27-1-.58-2.05-.93-3.05l-1.72-5,1.46-2.94a15.94,15.94,0,0,1,2.71-3.85l2.36-2.5a13.08,13.08,0,0,1,2.36-2l2.84-1.85a8.06,8.06,0,0,1,3.24-1.2l1.68-.22a7.5,7.5,0,0,1,1.57-.05l6.37.44a18.45,18.45,0,0,1,2,.23l3.61.6a7.25,7.25,0,0,1,5.43,4.2l.15.35a5.91,5.91,0,0,1,.52,2.42V624l12.65,9.28,5.63-9.56,1.21-1.86a31.34,31.34,0,0,0,4.26-9.95l.65-2.74q.35-1.49.6-3l1.43-8.35-2.14-1.61a60.8,60.8,0,0,1-8.48-7.71h0a27.46,27.46,0,0,1-3.12-4.15h0a12.08,12.08,0,0,1-1.33-3.06h0a3.72,3.72,0,0,1,.36-2.79l1.2-2.1a56.92,56.92,0,0,1,3.08-4.82l4-5.64a60.32,60.32,0,0,1,7.47-8.65l9.36-9,.57-1.34a99.78,99.78,0,0,1,5.79-11.56l2-3.43c1-1.67,2-3.31,3.1-4.9l4.13-6q2.67-3.93,5.65-7.64l7.15-9-3.37-3.93-11.53-14.06-4.79,7-6.18,8.95q-2,2.87-4.14,5.56l-10.2,12.76,8.43,16.32-11.81-7-9.62-5.82c-.71-.43-1.44-.84-2.17-1.22l-6.76-3.53a56,56,0,0,1-9.51-6.26h0a32.89,32.89,0,0,1-5.6-5.83h0a59.85,59.85,0,0,1-6-9.8L146.8,493l-6.47-12.93-2.09,4.83c-1,2.4-2.19,4.76-3.43,7.06l-5.73,10.61L121.49,516l.28-6.75V485.11l-2.12,5.94c-.46,1.29-1,2.56-1.51,3.81L117,497.51a36.79,36.79,0,0,1-5,8.28L110.25,508a22.74,22.74,0,0,1-4.56,4.31h0a68.38,68.38,0,0,1-11.2,6.51l-2.79,1.29c-1.51.7-3,1.35-4.6,2l-14.3,5.68q-2.49,1-5,1.84l-12.64,4.21,4.5-12.09,5.08-12.24c.74-1.78,1.42-3.58,2.06-5.39l5.51-15.84-6.46-9.28L59.34,468.8h0a41.31,41.31,0,0,1-3.48,7l-3.55,5.67L41.9,499.17,45.84,486l3.94-14.62-5.62,11.76a8.44,8.44,0,0,1-.67,1.17h0a100,100,0,0,1-14,16.49l-3.09,2.92L14.9,514.92l3.18-15.16c.32-1.52.6-3,.82-4.58l2.47-16.54,2.25-19.12,3.64-32c.2-1.73.34-3.46.42-5.2l1.17-24.73c.08-1.65.1-3.3.08-4.95L28.49,364q-.09-5.7.29-11.39l1.61-24q.25-4,.77-8l2.31-18.23-13.22-1.12L11,300.06l8-2.59c1-.33,2-.7,3.05-1.09l6.36-2.5,7-3.1L36.84,277l.82-8.8c.2-2.19.47-4.38.79-6.55l2-13.61,3.93-20.25.52-1.62a105.26,105.26,0,0,1,9-20.53l.85-1.47-13-1.37a58.43,58.43,0,0,0-6.06-.32h-9.2a24.31,24.31,0,0,1-6.88-1h0a19.72,19.72,0,0,1-7.52-4.18h0a10.68,10.68,0,0,1-2.7-3.74h0a12.3,12.3,0,0,1-.93-3.68l-.18-2.07a20.22,20.22,0,0,1,.07-4.4l1.08-8.65a81.45,81.45,0,0,1,1.81-9.69l2.74-11-5.92-5.48a25,25,0,0,1-3-3.38h0a40.75,40.75,0,0,1-3.56-5.63h0A13.58,13.58,0,0,1,0,133.35H0c0-.78,0-1.57.07-2.35l.3-5a47.16,47.16,0,0,1,.79-6.16l.54-2.78a15.51,15.51,0,0,1,3.78-7.52L7.9,106.9a100.93,100.93,0,0,1,7.66-7.54l1.89-1.67a78.74,78.74,0,0,1,8.27-6.41l.69-.47a74.43,74.43,0,0,1,15-7.79L43,82.4l7.06-4.66a109.72,109.72,0,0,1,12.8-7.26l8.54-4.11,10-4.59a94.22,94.22,0,0,1,14.76-5.34l3.16-.86a35,35,0,0,1,5.55-1h0a88.84,88.84,0,0,1,21.86.48l.63.09L128,48c.16-1.81.24-3.62.24-5.44V39.9a54.75,54.75,0,0,0-1.77-13.77l-.69-2.65a55.48,55.48,0,0,0-2.29-6.88l-.9-2.18a73.11,73.11,0,0,0-6.88-13l-1-1.46L122,4.84c1.35.9,2.66,1.85,3.93,2.87l5,4c1.05.84,2.06,1.73,3,2.66L138.68,19a68.51,68.51,0,0,1,8.95,10.72l2.59,3.84a54.4,54.4,0,0,1,3,5l5,9.57a13.4,13.4,0,0,1,1.33,4h0a44,44,0,0,1,.26,12.71h0a15,15,0,0,1-1.54,5h0a38.1,38.1,0,0,1-6.9,9.42L149.61,81l11.25,6.47L165,90.13a14.5,14.5,0,0,1,4.61,4.74h0a6,6,0,0,1,.84,2.83l.22,5.79h0a180.39,180.39,0,0,1,20.65-6.62l3.82-1,10-2.07q6.33-1.31,12.76-2.18l6.33-.86q10-1.37,20.14-1.81l.5,0a169.52,169.52,0,0,1,17,.1l16.8.93,15.05,1.26a157.53,157.53,0,0,1,17,2.35l11.8,2.3h0a138,138,0,0,1,30.9,9.83l3.13,1.42,2.4,1a185.75,185.75,0,0,1,23.63,11.56h0q6,3.51,11.82,7.4l6.35,4.26q5,3.38,9.71,7.18l5.71,4.63.67.59A182.46,182.46,0,0,1,440.68,169h0l2.64,3.63a220.92,220.92,0,0,1,13.26,20.48h0q4.07,7.11,7.67,14.46l.29.6q3.69,7.51,6.71,15.33l.07.18a129.42,129.42,0,0,1,6.68,24h0a166,166,0,0,1,2.08,17h0q.53,7.74.44,15.48l-.09,8.44q-.1,8.83-1,17.65l-.19,1.91a192.64,192.64,0,0,1-4,24.44l-1.16,5.06-2.81,11.53-.2-1a138,138,0,0,0-3.83-15.14l-.75-2.38-3.66-12.66-.32,6.55q-.24,4.69-.73,9.38l-.63,6-1.41,17.72,1.4,7.17q.57,3,1.31,5.86L467.17,389q1.62,6.39,2.83,12.87l6.11,32.89L482,469.08l2.38,14.79a192.13,192.13,0,0,1,2.11,19.47l.29,5.11ZM143.68,652.29a46.28,46.28,0,0,0,.53,10.71l.13.77q.49,3,1.25,5.92l1.66,6.45,2.44-5.76a44.7,44.7,0,0,1,2-4.12l1.31-2.38c.61-1.11,1.18-2.23,1.73-3.37l2.51-5.25-1.08-.79a37.68,37.68,0,0,0-12.23-5.87h0ZM388.1,733.43a9.49,9.49,0,0,0,.56,4.69h0A8.54,8.54,0,0,0,390,740.5l1,1.25A62.56,62.56,0,0,0,399,750l7.2,6.21-.77-3.25a103,103,0,0,1-1.9-10.59L402,730.18h-.41A33.14,33.14,0,0,0,391,732.34l-2.86,1.09Z"/></g></g></svg>