<svg xmlns="http://www.w3.org/2000/svg" viewBox="0 0 1180.02 1180.02"><defs><style>.cls-1{fill:none;}.cls-2{fill:#e58840;}</style></defs><title>アセット 2</title><g id="レイヤー_2" data-name="レイヤー 2"><g id="レイヤー_5" data-name="レイヤー 5"><rect class="cls-1" width="1180.02" height="1180.02"/><path class="cls-2" d="M399.63,438.65c4.5,5.5,9,12.5,9,19.5,0,13-54,46.5-66.5,46.5-14,0-24-7-33.5-16.5-19.5-19.5-118.5-144.5-118.5-165.5,0-24,44.5-50.5,66-50.5,31,0,38,41.5,62,41.5,20,0,97-62.5,97-82.5,0-23-117-22-136-22q-37.5,0-75,1.5c-10,.5-19.5,1-29.5,1-18.5,0-45-5.5-45-28.5,0-10,1.5-20.5,6-30s13.5-15,23-19c28-11,91-11,122.5-12.5,14-.5,27.5-1,41.5-1,34,0,180.5-5.5,210,24,11.5,11.5,16.5,37,16.5,53,0,100.5-163.5,186-163.5,211.5,0,12,7.5,21,14.5,30Z"/><path class="cls-2" d="M809.13,273.15c0,20-9,50-33.5,50a269.5,269.5,0,0,1-60-7c-19.5-4.5-39.5-8.5-59.5-12-8-1.5-15-3-22-7-8-4.5-11-10-11-19,0-20,10-54,34.5-54C686.63,224.15,809.13,232.65,809.13,273.15Zm-154.5,148c10.5-6,51.5-11.5,66-13.5,52.5-8,98-17.5,141.5-50,41-31,66.5-68.5,79.5-118,2.5-9,4.5-19.5,8.5-28,6-14,17.5-19.5,32.5-19.5,26,0,69.5,6.5,69.5,40.5,0,18-8,36-15.5,52-59,124.5-136.5,185-271,214.5-18.5,4-37,7-56,7-39.5,0-62.5-34-62.5-71C647.13,429.15,649.13,424.15,654.63,421.15Zm-3-245.5c0-20,13-64,38.5-64s148,4,148,40.5c0,21-6.5,59-34,59C783.63,211.15,651.63,195.15,651.63,175.65Zm303.5-89c15.5,0,46,47.5,46,62,0,15-25,25-37.5,25-10.5,0-44-51.5-44-62.5C919.63,96.65,942.63,86.65,955.13,86.65Zm128.5,60.5c0,15-24.5,23-36.5,23-12.5,0-50-49.5-50-61.5,0-15.5,21-25,34.5-25C1042.63,83.65,1083.63,138.15,1083.63,147.15Z"/><path class="cls-2" d="M291.46,773.89c0-15-7.5-25-23-25-38,0-76,1-114,1-19,0-31-4-31-25.5s11-34,30.5-41c32-11.5,121-12.5,158-12.5,48,0,97.5-2,145,4,21.5,3,43.5,1.5,64.5,8,9,3,17.5,7.5,24,15,7.5,9,9,22,9,33.5,0,17-18,18.5-31,18.5-34,0-68-3-102-3-17.5,0-34.5,7-34.5,27,0,15.5-.5,42,18,47a62.11,62.11,0,0,0,16.5,2,113.76,113.76,0,0,0,13-1c16-2,32.5-2,48.5-2,40,0,66.5-5.5,66.5,44,0,6-.5,12.5-3.5,17.5-3,5.5-9.5,8-15.5,9-16.5,3-119.5-3.5-119.5,16.5,0,6,8.5,17,12.5,22,38,48.5,66.5,58.5,117.5,86.5,5.5,3,12,7,12,14,0,16.5-18.5,40-31,50-3.5,3-11,9-16,9-66,0-142-119-162.5-119-21.5,0-110.5,120-166.5,120-19.5,0-54.5-43-54.5-62,31.5-25,143-77,143-119.5,0-15.5-39-15-49.5-15-14.5,0-29,1.5-43,1.5-24.5,0-44-4.5-44-33.5,0-9-.5-19.5,4-27.5,7.5-13.5,52-14,66.5-14,13.5,0,26.5,1.5,40,1.5C286.46,820.89,291.46,822.39,291.46,773.89Z"/><path class="cls-2" d="M661.46,702.39c2.5-7,5.5-13.5,8.5-20,6.5-15,14-19.5,30-19.5,12.5,0,36,2.5,47.5,7.5,3,1.5,7,3.5,7,7.5,0,6.5,19.5,7.5,24,7.5,14,0,61,.5,72-9,4-3.5,4.5-5,4.5-10,0-15.5,26.5-14.5,36.5-14.5,6,0,12-.5,18-.5,8.5,0,22,2,29.5,7,14.5,10.5-9,29,40,29,12,0,24-.5,36-.5,35,0,61,12.5,61,51,0,17.5-12.5,20-27.5,20-28,0-56-2.5-84-2.5-4.5,0-13.5,2.5-13.5,8,0,10.5,46,9.5,54,9.5a201.4,201.4,0,0,1,24.5,1.5,51.81,51.81,0,0,1,19,5.5c17,9,19.5,45,19.5,62.5,0,8-.5,16.5-.5,24.5,0,14.5,1,29,1,43.5,0,37.5-15,52-52,52-8.5,0-35,.5-35-12,0-13-12.5-12-22-12-16.5,0-28,41-28,54.5,0,38,124.5,14.5,142.5,38.5v3c0,41.5-22,59-62,59-47.5,0-94-17-141.5-17-29.5,0-55,21-84.5,21a31.42,31.42,0,0,1-18.5-6c-12.5-9.5-28-31.5-28-47.5,0-24,41.5-17,41.5-31s-26-21-26-38c0-16,27-22.5,27-29,0-8.5-18-6.5-24-6.5-21.5,0-19.5-59.5-19.5-72.5,0-19,0-38,1.5-57,1-10,3-21.5,10.5-28.5,17.5-17,74-6.5,98-12,3.5-1,8-3,8-7,0-12-50.5-8.5-54-8.5-13,0-59,0-68.5,6s-11,96-11,110.5c0,26.5.5,53,1,79.5,0,15.5,0,30.5.5,46,.5,19,1.5,38.5,1.5,57.5,0,20-2,45.5-28,45.5-13.5,0-30-.5-40.5-10.5-12.5-12-16.5-75-17.5-93.5s-1-46.5-5.5-64c-.5-1.5-1.5-6-3.5-6-7,0-13,17-21,17-12,0-20-74.5-20-86,0-20,45.5-84,55-109ZM840,876.89c3.5,0,6.5-.5,10-.5,7.5-6.5,7.5-13.5,7.5-22.5,0-13.5,3-20.5-13.5-20.5H833c-9,0-11.5,9-11.5,16.5v12.5c0,10.5,2.5,14.5,13.5,14.5Zm-10,63-3,3.5c0,5,11,16.5,16,16.5,6,0,8.5-3.5,8.5-9,0-8.5-6.5-11-14-11Zm131-105.5c-9,0-9.5,23-9.5,29.5,0,10.5,1.5,13,12.5,13,17.5,0,19-5.5,19-21.5,0-10,0-21-13-21Z"/></g></g></svg>