<svg xmlns="http://www.w3.org/2000/svg" viewBox="0 0 252.9 18.97"><defs><style>.cls-1{fill:#283c5f;}</style></defs><title>project</title><g id="レイヤー_2" data-name="レイヤー 2"><g id="profile-page"><g id="title"><path class="cls-1" d="M10.58,11.18c.46,0,.72.12.72.62a3.53,3.53,0,0,1-.44,2c-.66.66-3.06.86-4,.86C2.78,14.7,0,11.44,0,7.46S2.7.24,6.7.24c.34,0,.68,0,1,0,.74,0,2.48.32,3,.88a3.36,3.36,0,0,1,.42,2.08c0,.34-.06.58-.46.58-1.08,0-2.08-.46-3.16-.46-2.28,0-3.32,2-3.32,4s1.06,4.28,3.5,4.28C8.66,11.64,9.58,11.18,10.58,11.18Z"/><path class="cls-1" d="M24.18,9.56a5.27,5.27,0,0,1-5.54,5.24,5.29,5.29,0,0,1-5.5-5.1,5.2,5.2,0,0,1,5.5-5.36A5.26,5.26,0,0,1,24.18,9.56Zm-3.88,0c0-1.16-.12-2.7-1.64-2.7S17,8.42,17,9.58s.18,2.72,1.76,2.72C20.2,12.3,20.3,10.64,20.3,9.58Z"/><path class="cls-1" d="M32.76,9.68c-.46,1.4-.14,3.24-1.2,4.38a1.94,1.94,0,0,1-1.5.5,3.41,3.41,0,0,1-1.84-.34c-1.42-.88-2.46-6-2.46-7.62s.6-1.94,2.16-1.94a2,2,0,0,1,.7.1.91.91,0,0,1,.42.52c.2.52.38,3.1.5,3.88a6.42,6.42,0,0,0,.14.86s.1.44.18.4a2.52,2.52,0,0,0,.3-.9c.16-.92.34-1.84.48-2.76a4.42,4.42,0,0,1,.3-1.12,2,2,0,0,1,.66-.8,3.08,3.08,0,0,1,1.8-.3,2.11,2.11,0,0,1,1.54.5c1,1.12.7,4.06,1.4,5.48.5-.14.64-4.22.74-4.86a1.13,1.13,0,0,1,.42-.8,1.68,1.68,0,0,1,.88-.2c1.34,0,2,.18,2,1.68,0,1.8-.92,6.56-2.32,7.72a3.19,3.19,0,0,1-2.14.52,2.51,2.51,0,0,1-1.42-.36c-.52-.42-.84-3.48-1-4.24-.06-.2-.12-.74-.4-.74S32.82,9.52,32.76,9.68Z"/><path class="cls-1" d="M47.26,6.88c-1.34,0-2.6.4-3.94.4-.5,0-.42-.44-.42-.8a3.34,3.34,0,0,1,.12-1c.32-.92,3.42-1.14,4.26-1.14,2.52,0,5.14,1.08,5.14,4,0,1.12,0,2.22,0,3.34,0,1.68-.56,2.86-2.42,2.86h-.64c-.2,0-.46,0-.58-.18s-.08-.56-.22-.56c-.5,0-1.66,1-2.8,1a3.54,3.54,0,0,1-3.56-3.36,2.4,2.4,0,0,1,.62-1.74A5.41,5.41,0,0,1,46.28,8.3c.36,0,1.92-.06,2.12-.12s.12-.14.12-.24A1.13,1.13,0,0,0,47.26,6.88ZM46.6,12.3a1.88,1.88,0,0,0,2-1.7c0-.1,0-.28-.12-.32a3.82,3.82,0,0,0-.84,0c-.86,0-2,.2-2,1.26A.92.92,0,0,0,46.6,12.3Z"/><path class="cls-1" d="M58.62,13.36c0,.84-.62,1.18-1.4,1.18a2.39,2.39,0,0,1-2.16-.82c-.46-.8-.46-3.76-.46-4.78s0-3.9,1.2-4.2a6.91,6.91,0,0,1,1.7-.16c.54,0,1.12.24,1.12.86a2.2,2.2,0,0,1,0,.36l.14.12c1.2-.56,2-1.22,3.4-1.22,1.16,0,1,1.58,1,2.36,0,.2-.16.28-.34.28s-.34,0-.52,0a3.51,3.51,0,0,0-3.68,3.24c0,.36,0,.72,0,1.08Z"/><path class="cls-1" d="M73,.12a2.26,2.26,0,0,1,1.4.3c1.24.84,1.2,4.88,1.2,6.28,0,.64,0,1.26,0,1.9,0,1.44,0,4.18-1,5.32-.48.56-.9.42-1.54.48a4.87,4.87,0,0,1-.54,0c-.52,0-.76-.16-.72-.72-.76,0-1.56,1-2.9,1-2.64,0-4.38-2.9-4.38-5.3s1.22-5.1,4.1-5.1c.94,0,1.72.64,2.64.64.42,0,.42-1.44.42-1.74,0-.6-.08-1.18-.08-1.78C71.6.44,72,.12,73,.12ZM71.8,8.76A1.64,1.64,0,0,0,69.94,7c-1.16,0-1.62,1.26-1.62,2.24S68.56,12,69.92,12s1.88-.8,1.88-2.1Z"/><path class="cls-1" d="M82.52,4.84c0,.42,0,.84,0,1.26,0,1,.06,1.94.06,2.92,0,1.26,0,5.52-1.88,5.52a1.82,1.82,0,0,1-1.72-.7c-.66-1.08-.58-5.34-.58-6.74,0-.72,0-1.46,0-2.18A11.08,11.08,0,0,1,79,.78,1.31,1.31,0,0,1,79.54.2,2.23,2.23,0,0,1,80.68,0C82.52,0,82.52,3.6,82.52,4.84Z"/><path class="cls-1" d="M88.06,14.88a6.63,6.63,0,0,0-.42-2.24c-.58-1.6-1.32-3.12-1.92-4.7a5.89,5.89,0,0,1-.44-2.1c0-1.06,1.46-1.12,2.22-1.12,2.54,0,1.56,5.3,2.76,5.3.22,0,.34-.22.42-.4a5.44,5.44,0,0,0,.26-1,13.9,13.9,0,0,1,.64-2.54,2.87,2.87,0,0,1,.64-1,1.37,1.37,0,0,1,1.06-.38c.9,0,1.9,0,1.9,1.22C95.18,7.8,92,16.1,90.86,17.8a3.36,3.36,0,0,1-.7.8,2,2,0,0,1-1.54.36c-.48,0-1.42-.08-1.42-.72C87.2,17.06,88.06,16.08,88.06,14.88Z"/><path class="cls-1" d="M110,.58a1.3,1.3,0,0,1,1.24,1.32c.12,1.22.24,2.44.38,3.66l.2,1.7c0,.12.08,1.24.3,1.24.38,0,.6-2.48.64-2.86C113,4.2,112.9,1.82,114,.8a3,3,0,0,1,2-.38c2.6,0,2.54,3.18,2.72,5,.06.68.12,1.36.2,2,0,.16.1,1,.28,1s.28-.38.32-.54c.34-1.2.42-6.44,1-7a1.31,1.31,0,0,1,1-.34c1.8,0,2.24.46,2.24,2.26,0,2.34-1.36,10-3.3,11.34a4.47,4.47,0,0,1-2.24.3,1.21,1.21,0,0,1-.58-.16c-.92-.5-1.16-3.46-1.26-4.44,0-.42-.1-.84-.12-1.26S116,6.1,115.66,6.1c-.06,0-.08.08-.1.12a10.08,10.08,0,0,0-.32,1.94c-.06.4-.1.78-.14,1.18-.1,1.1-.22,4.56-1.42,5a3.69,3.69,0,0,1-1.32.16,2.77,2.77,0,0,1-1.5-.34,2.79,2.79,0,0,1-.94-1.16,31.5,31.5,0,0,1-2.24-10.34C107.68.9,108.44.58,110,.58Z"/><path class="cls-1" d="M130.68,6.9c0,1,0,2.1,0,3.14,0,1.72.28,4.48-2.2,4.48-2,0-2-3.4-2-4.78,0-.58,0-1.14,0-1.72,0-2-.16-3.56,2.42-3.56C130.34,4.46,130.68,5.7,130.68,6.9ZM128.74,0c1.58,0,1.84.62,1.84,2.08,0,.6-.62.7-1.1.7l-2.3,0c-.52,0-.54-.74-.54-1.12C126.64.18,127.48,0,128.74,0Z"/><path class="cls-1" d="M133.78,5l.4,0c.44,0,.64-.22.8-.62a4.38,4.38,0,0,0,.16-1.36c0-1.44.48-1.86,1.9-1.86,1,0,1.86.24,1.86,1.4,0,.32,0,.64,0,1,0,1.16.66,1.4,1.68,1.4,1.48,0,1.56.36,1.56,1.74,0,1.06-2.18.54-2.78.92-.44.28-.42,1.3-.42,1.76s0,.64,0,1c0,.64.1,1.64.94,1.64.56,0,1.08-.24,1.64-.24.3,0,.3.44.3.66,0,2.28-1.36,2.32-3.24,2.32-3,0-3.48-2.34-3.48-4.84A9,9,0,0,0,135,7.84c-.46-1.08-2,.56-2-1.62C132.94,5.56,133,5,133.78,5Z"/><path class="cls-1" d="M148.88,4.34c1.62,0,3.78,0,3.78,2.14,0,.6,0,.82-.66.82s-1.5-.22-2.28-.22c-1.48,0-1.88,1.24-1.88,2.5,0,1.54.58,2.48,2.22,2.48.82,0,1.6-.26,2.44-.26a.78.78,0,0,1,.34.7A2.29,2.29,0,0,1,152.5,14c-.5.56-2.82.76-3.58.76a5.14,5.14,0,0,1-5.18-5.38A5.13,5.13,0,0,1,148.88,4.34Z"/><path class="cls-1" d="M155.26,6.32c0-1.3,0-5,1-5.84A2.51,2.51,0,0,1,158,.1c1.12,0,1.24,1,1.24,1.9,0,.6-.08,1.2-.08,1.82,0,.26.06,1.16.44,1.16.88,0,1.6-.66,2.5-.66,3.5,0,3.58,2.4,3.58,5.18,0,.68,0,1.36,0,2a2.89,2.89,0,0,1-1.06,2.54,3.48,3.48,0,0,1-1.8.38c-.94,0-1-.76-1-1.5,0-1.32.06-2.64.06-4,0-.92-.06-1.82-1.22-1.82a1.63,1.63,0,0,0-1.54,1.38c0,1.38,0,2.74,0,4.12,0,1-.06,1.78-1.26,1.78a3.09,3.09,0,0,1-1.58-.34c-1-.56-1.08-4.76-1.08-5.86Z"/><path class="cls-1" d="M178.06,6.32c0-1.26,0-5,1.32-5.64a12.37,12.37,0,0,1,3.88-.46c3.06,0,6.24,1.7,6.24,5.12,0,5.58-6.88,4.52-7.26,4.9a3.35,3.35,0,0,0-.2,1.36c0,.5.06,1,.06,1.5,0,.86-.22,1.32-1.16,1.32a4.1,4.1,0,0,1-1.56-.22c-1.26-.5-1.32-4.56-1.32-5.72Zm4,0c0,1,.34,1.14,1.3,1.14a2.31,2.31,0,0,0,2.4-2.4c0-1.3-1.36-1.92-2.5-1.92h-.5c-.56,0-.68.4-.7.86Z"/><path class="cls-1" d="M195,13.36c0,.84-.62,1.18-1.4,1.18a2.39,2.39,0,0,1-2.16-.82C191,12.92,191,10,191,8.94s0-3.9,1.2-4.2a6.91,6.91,0,0,1,1.7-.16c.54,0,1.12.24,1.12.86a2.2,2.2,0,0,1,0,.36l.14.12c1.2-.56,2-1.22,3.4-1.22,1.16,0,1,1.58,1,2.36,0,.2-.16.28-.34.28s-.34,0-.52,0A3.51,3.51,0,0,0,195,10.54c0,.36,0,.72,0,1.08Z"/><path class="cls-1" d="M211.86,9.56a5.53,5.53,0,0,1-11,.14,5.2,5.2,0,0,1,5.5-5.36A5.26,5.26,0,0,1,211.86,9.56Zm-3.88,0c0-1.16-.12-2.7-1.64-2.7s-1.64,1.54-1.64,2.7.18,2.72,1.76,2.72C207.88,12.3,208,10.64,208,9.58Z"/><path class="cls-1" d="M215,7.12c0-1.22.08-2.56,1.64-2.56,1.1,0,2.14,0,2.32,1.36a15.7,15.7,0,0,1,.16,2.16c0,.82,0,1.66,0,2.48s0,1.36,0,2c0,3.42-.78,6.14-4.74,6.14-1.7,0-2.5-.2-2.5-2.1,0-.6.26-.82.86-.82.28,0,.56.06.86.06,1.1,0,1.4-.44,1.4-1.5Zm0-6c0-.82.5-1,1.24-1,1.76,0,2.68.24,2.68,2.22,0,.18,0,.46-.22.54A8,8,0,0,1,216.9,3c-1,0-1.84-.38-1.84-1.52Z"/><path class="cls-1" d="M230.14,10.62c-.76,0-1.54-.06-2.3-.06-.38,0-2.66,0-2.66.48,0,1,1.6,1.24,2.36,1.24.94,0,1.8-.34,2.74-.34.4,0,.58.26.58.64a2.14,2.14,0,0,1-.42,1.56c-.52.46-2.78.66-3.5.66-3.18,0-5.8-2.08-5.8-5.38s2.74-5.1,5.86-5.1a4.75,4.75,0,0,1,4.48,3.34,6.22,6.22,0,0,1,.34,2.18C231.82,10.6,230.68,10.62,230.14,10.62Zm-2.84-2c.38,0,.86-.06.86-.54a1.33,1.33,0,0,0-1.5-1.28A1.47,1.47,0,0,0,225,8.22c0,.34.8.38,1,.38Z"/><path class="cls-1" d="M237.92,4.34c1.62,0,3.78,0,3.78,2.14,0,.6,0,.82-.66.82s-1.5-.22-2.28-.22c-1.48,0-1.88,1.24-1.88,2.5,0,1.54.58,2.48,2.22,2.48.82,0,1.6-.26,2.44-.26a.78.78,0,0,1,.34.7,2.29,2.29,0,0,1-.34,1.54c-.5.56-2.82.76-3.58.76a5.14,5.14,0,0,1-5.18-5.38A5.13,5.13,0,0,1,237.92,4.34Z"/><path class="cls-1" d="M244.56,5l.4,0c.44,0,.64-.22.8-.62a4.38,4.38,0,0,0,.16-1.36c0-1.44.48-1.86,1.9-1.86,1,0,1.86.24,1.86,1.4,0,.32,0,.64,0,1,0,1.16.66,1.4,1.68,1.4,1.48,0,1.56.36,1.56,1.74,0,1.06-2.18.54-2.78.92-.44.28-.42,1.3-.42,1.76s0,.64,0,1c0,.64.1,1.64.94,1.64.56,0,1.08-.24,1.64-.24.3,0,.3.44.3.66,0,2.28-1.36,2.32-3.24,2.32-3,0-3.48-2.34-3.48-4.84a9,9,0,0,0-.08-2.06c-.46-1.08-2,.56-2-1.62C243.72,5.56,243.76,5,244.56,5Z"/></g></g></g></svg>