<svg xmlns="http://www.w3.org/2000/svg" viewBox="0 0 43.74 41.88"><defs><style>.cls-1{fill:#283c5f;}</style></defs><title>star</title><g id="レイヤー_2" data-name="レイヤー 2"><g id="profile-page"><path class="cls-1" d="M24.43,1.59,29,10.8a2.84,2.84,0,0,0,2.15,1.56l10.16,1.48a2.86,2.86,0,0,1,1.58,4.88l-7.35,7.16a2.87,2.87,0,0,0-.82,2.53l1.74,10.12a2.86,2.86,0,0,1-4.15,3L23.2,36.77a2.85,2.85,0,0,0-2.66,0l-9.09,4.78a2.86,2.86,0,0,1-4.15-3L9,28.41a2.87,2.87,0,0,0-.82-2.53L.87,18.72a2.86,2.86,0,0,1,1.58-4.88l10.16-1.48a2.84,2.84,0,0,0,2.15-1.56l4.55-9.21A2.86,2.86,0,0,1,24.43,1.59Z"/></g></g></svg>