<svg xmlns="http://www.w3.org/2000/svg" viewBox="0 0 409.68 54.48"><defs><style>.cls-1{fill:#fff;}</style></defs><title>title_1</title><g id="レイヤー_2" data-name="レイヤー 2"><g id="product-page"><path class="cls-1" d="M52,24.66H44.28a61,61,0,0,1-4.14,13c-2.7,6.06-6.36,11.16-11.64,16.8l-7-6.12c4.5-4.92,7.56-9.12,9.9-14.28a42.53,42.53,0,0,0,3.18-9.42H18.78l.72,7.5,4.62-.6.72,6.54L10.92,39.72,9.3,24.66H0V15.6H8.4L7.26,4.08l9.42-.84L17.82,15.6H35.7A77.22,77.22,0,0,0,34.44,2.52l9.48-1.2A90.93,90.93,0,0,1,45.18,15.6H52Z"/><path class="cls-1" d="M110.4,6A43.92,43.92,0,0,1,94.26,24.18v30H84.6V28.92c-7.44,2.82-15.24,3.78-23.7,4.44l-.66-9.12c9.42-.66,18.06-1.74,26.16-6A33.73,33.73,0,0,0,98.88,7.5L95.52,5.82,98.64,0Z"/><path class="cls-1" d="M128,53V1.56h9.42V53Zm43.2-24.9-5.82,14.1a72.58,72.58,0,0,1-14.76-7c-4.68-3.06-8-6.84-11.46-11.4l7.8-5.76A43.87,43.87,0,0,0,154.08,26a37.06,37.06,0,0,0,8.7,5l2-5.34Z"/><path class="cls-1" d="M198.6,43.38c-.12.12-12.18,6.72-12.18,6.72-2.7-4.68-10.2-18.72-3.12-42.36l9.18,2.58c-4.86,16.38-2.22,25.56-.9,29.28l3.72-2.1Zm25.68-19.5-5.52-4.08,3.12-4.14a13.78,13.78,0,0,0-11.58-1.5,57.79,57.79,0,0,0-6.06,2.16L200.76,7.5c4-1.44,8-3,12.24-3.3,5.88-.42,11.94,1.44,20.16,8.28ZM208.44,38.46c2.34,2.58,5,4.2,6.72,4.32,3.84.24,6.66-2,8.64-4.26l7.2,6.24c-4.44,4.86-9.66,7.38-15.24,7.38-5.4,0-10.44-3.12-14.34-7.2Z"/><path class="cls-1" d="M260.88,43c6-1.08,12-3.12,16.08-7.26a12.19,12.19,0,0,0,1.14-15.06c-3.12-4.62-9.48-5.16-14.7-5-7.26.24-14.28,2-21.66,4l-3.3-12.24,6.42-1.86.84,3.18a84.48,84.48,0,0,1,19.8-2.64c9.48,0,16.86,3.24,20.94,9.12,5.16,7.68,5,18.06-.48,25.14-6.72,8.52-18.24,11.4-23.16,12.3Z"/><path class="cls-1" d="M328,38.88l-5.28,13.68-4.56-1.68c-16.26-6.06-19.56-19.56-19.56-38V8.1h9.72v4.8c0,19.14,4.08,25.08,11.4,28.32l1.86-4.68ZM352.44,37h-9.78V32.22c0-6.84-2-11.4-5.7-14.1l-1.74,4L329,19.5,334.8,6.42l4.86,2.22c5.88,2.76,12.78,9.36,12.78,23.58Z"/><path class="cls-1" d="M396.24,54.24c-9.66-4.68-15.48-10.8-17.28-18.48-1.44-6.3-.24-13.32,3.54-20.76l-20.94,1.62L360.48,4l6.66-.54.36,3.78L409,4l.66,9-15.42,1.14c-3.84,5.88-7.32,13.08-5.88,19.38,1.14,4.68,5.52,8.82,12.72,12.12Z"/></g></g></svg>