<svg xmlns="http://www.w3.org/2000/svg" viewBox="0 0 411.27 36.07"><defs><style>.cls-1{fill:#fff;}</style></defs><title>アセット 3</title><g id="レイヤー_2" data-name="レイヤー 2"><g id="レイヤー_1-2" data-name="レイヤー 1"><path class="cls-1" d="M15.29,28.88,28.18,12.8h2.66L15.39,32,0,12.8H2.36Z"/><path class="cls-1" d="M36.6,32V12.8H68.24V23.2H38.61v7.19H66.24V29.12h2V32Zm2-17.59v7.2H66.24V14.4Z"/><path class="cls-1" d="M103.79,12.8v7.68h-2V14.4h-22V32h-2V12.8Z"/><path class="cls-1" d="M112.62,30.39h21.66V23.2H110.61V12.8h25.68v1.92h-2V14.4H112.62v7.2h23.67V32H110.61V29.92h2Z"/><path class="cls-1" d="M149.32,6.32h-2.5v-2h2.5Zm-.25,6.48V32h-2V12.8Z"/><path class="cls-1" d="M192.24,32H160.6V12.8h31.64Zm-29.63-1.6h27.63v-16H162.61Z"/><path class="cls-1" d="M229.25,12.8V32h-2V14.4H204.13V32h-2V12.8Z"/><path class="cls-1" d="M268.91,34.47v1.6H238v-1.6Z"/><path class="cls-1" d="M276.53,6.52V4.8L289.17,0V32h-2V2.48Z"/><path class="cls-1" d="M309.73,32h-2.41V30.07h2.41Z"/><path class="cls-1" d="M321.66,32V0H353.3V32Zm2.41-1.6h26.82V1.6H324.07Z"/><path class="cls-1" d="M367.69,32h-2.4V30.07h2.4Z"/><path class="cls-1" d="M379.63,32V0h31.64V32Zm2.4-1.6h26.83V1.6H382Z"/></g></g></svg>