<svg xmlns="http://www.w3.org/2000/svg" viewBox="0 0 931.03 70.58"><defs><style>.cls-1{fill:#fff;}</style></defs><title>アセット 2</title><g id="レイヤー_2" data-name="レイヤー 2"><g id="レイヤー_1-2" data-name="レイヤー 1"><path class="cls-1" d="M.44,36.35c-.49-.21-.56-.7-.28-1.26A133.55,133.55,0,0,0,13.61,2,1.6,1.6,0,0,1,15.85.65l3.29.91c1.12.28,1.54,1.4.84,2.1h-.07a3,3,0,0,1-1.26.63,1,1,0,0,0-.7.56,118,118,0,0,1-5.11,13.09c-.21.42-.07.63.28.77l.63.28c.84.35,1.19,1.12.7,1.75a2.82,2.82,0,0,1-.92.56,1.06,1.06,0,0,0-.69,1V62.61a.7.7,0,0,1-.07.34l-.07.15-.21.35a5.61,5.61,0,0,1-2.8,1.19H9.54l-.13-.07A.42.42,0,0,1,9,64.28l-.08-.13a1,1,0,0,1-.13-.42V28.93c0-2-.57-2.1-1.62-.35C5.48,31.31,4,34,1.91,36.14l-.14.14a1.06,1.06,0,0,1-1.19.07ZM56,12.62c-.42.21-.7.42-.7.91v12.6c0,.63.21.84.84.84h1.47a.72.72,0,0,0,.56-.28l1-1.05a1.69,1.69,0,0,1,2.59-.07l2.66,2.59.07.14c.63.84.7,1.68-.21,2a5,5,0,0,1-1.4.28.59.59,0,0,0-.42.14c-1.4,1.12-3.78,2.87-5.6,4.06h-.14c0,.07-.14.14,0,.14,3.29,2,4.62,4.41,4.62,6.09s-1.05,2.52-2.66,2h-.14c-.28-.07-.49-.42-.77-.77v-.07A32.16,32.16,0,0,0,49,33.83l-.21-.21a.76.76,0,0,1,0-1,1.46,1.46,0,0,1,1.4-.35A28.62,28.62,0,0,1,55.12,34v-.14l1.47-2.66c.49-.91.21-1.26-.77-1.26H23.48a.78.78,0,0,0-.84.63,11.1,11.1,0,0,1-3.5,5.39c-1.4,1-3.43,1-4.41.14l-.14-.28a3,3,0,0,1,1.47-3.5,12.18,12.18,0,0,0,5.18-7v-.14a.68.68,0,0,1,.84-.63h.14a.8.8,0,0,1,.91.7v1c.07.56.28.77.84.77h.84c.63,0,.84-.21.84-.84V10c0-1.82.84-2.38,2.45-1.61l2.1,1a.89.89,0,0,0,.42.07h5.74c.49,0,.63-.21.77-.63l.35-1.61c.07-.7-.14-1-.84-1H22a1.67,1.67,0,0,1-1.75-1.47c-.21-.91.21-1.4,1.12-1.4H54.49c.28,0,.42-.14.63-.35L56.94.86A1.77,1.77,0,0,1,59.46.65a45.37,45.37,0,0,1,3.71,3.08h.07a1.16,1.16,0,0,1,.42,1.61,2,2,0,0,1-1.75.84H42.8c-.35,0-.49.14-.7.42a15,15,0,0,1-.91,1.54c-.63.84-.35,1.26.7,1.26h8.4a.76.76,0,0,0,.63-.28l.84-.91A1.78,1.78,0,0,1,54.28,8l2.52,2c.84.63.91,1.75,0,2.17Zm-.91,36.05a6.14,6.14,0,0,1-1.4.28c-.28,0-.42.14-.63.35a35,35,0,0,1-6.86,6c-.91.63-.91,1.19.14,1.55a92.41,92.41,0,0,0,18.2,2.66c.63,0,.84.34.77.91a1,1,0,0,1-.84,1A3.48,3.48,0,0,0,62.68,63a2.16,2.16,0,0,1-2.24,1.27C52,63,46,61.49,40.91,58.69a.84.84,0,0,0-.84,0c-6.51,2.87-14.7,4.9-23.87,6.09a1.15,1.15,0,0,1-1.33-.91.91.91,0,0,1,.84-1.19,75.73,75.73,0,0,0,20.23-5.81c.84-.42.84-.84.07-1.41a47.47,47.47,0,0,1-4.55-4.62.66.66,0,0,0-1.12-.14,53.93,53.93,0,0,1-12.46,7.71,1.38,1.38,0,0,1-1.47-.29L16.34,58a.71.71,0,0,1,.28-1.19A49.94,49.94,0,0,0,31.74,43.42q.53-.63-.21-1.26a3.89,3.89,0,0,1-1-2.8v-6c0-1.26.7-1.89,2-1.75l2,.21h.14c.84.28,1.61.84,1.12,1.68a2.67,2.67,0,0,1-.63.63c-.49.35-.7.63-.7,1v3.57c0,.42.07.49,1.82.49h5.11c2.45,0,4.13,0,4.9-.07h.14a1.25,1.25,0,0,0,.77-.56A19,19,0,0,0,48.54,35v-.14a.63.63,0,0,1,.7-.49.52.52,0,0,1,.56.56L50,38.1a1,1,0,0,0,.49.77,1.78,1.78,0,0,1,1.12,1.68c0,1.89-1.61,2.52-10.22,2.52H40.07a.88.88,0,0,0-.77.42,3.47,3.47,0,0,1-2.45,1,1.13,1.13,0,0,0-.49.28l-.21.21-.42.49c-.28.28-.21.35.14.35h13.3a.72.72,0,0,0,.56-.28l1.05-1a1.71,1.71,0,0,1,2.52,0l2.1,1.89c.84.7.77,1.89-.21,2.17Zm-27.16-16c.56,5.32-2,8.61-4.06,9.87-1.54.91-3.71,1.26-4.34-.14-.56-1.12.49-2.59,1.75-3.43h.14a9.69,9.69,0,0,0,4.69-6.44.9.9,0,0,1,.84-.84h.14a.9.9,0,0,1,.84.84Zm2.73-20.44c-.63,0-.84.21-.84.84v1.26c0,.63.21.84.84.84H50.29c.63,0,.84-.21.84-.84V13.11c0-.63-.21-.84-.84-.84Zm0,5.81c-.63,0-.84.21-.84.84v1.33c0,.63.21.84.84.84H50.29c.63,0,.84-.21.84-.84V18.92c0-.63-.21-.84-.84-.84Zm-.84,8.05c0,.63.21.84.84.84H50.29c.63,0,.84-.21.84-.84V24.8c0-.63-.21-.84-.84-.84H30.62c-.63,0-.84.21-.84.84Zm4.83,22.61c-1.26,0-1.54.56-.49,1.4a34.65,34.65,0,0,0,6,4.2.63.63,0,0,0,.77-.07,29.25,29.25,0,0,0,5.6-4.2c.91-.77.63-1.33-.49-1.33Zm1.47-17.5a.76.76,0,0,1,0-1,1.6,1.6,0,0,1,1.33-.35h.14c5.67,1.4,7.56,3.92,7.56,5.88,0,1.4-1,2.45-2.38,2h-.14c-.35-.07-.56-.42-.77-.63l-.07-.21c-1-1.89-3.29-3.85-5.39-5.39Z"/><path class="cls-1" d="M112,52a1,1,0,0,1,1.25-.2.89.89,0,0,1,.3,1.25c-4,7.6-11.45,12.55-19.71,12.55-6.75,0-10.05-3.3-10.05-11.85,0-5,.45-11.65.85-16.55.2-2.8.35-5.15.35-6.15,0-1.55-.25-1.8-1-2.2l-.15,0a6.28,6.28,0,0,0-2.35-.85h-.1a.83.83,0,0,1-.8-.95.84.84,0,0,1,.85-.95,11,11,0,0,1,2.45-.15c2.2.15,5.4,2.7,5.4,4.05a2.47,2.47,0,0,1-.4,1.25,5.29,5.29,0,0,0-.85,2.25,172.52,172.52,0,0,0-1.55,20c0,6.25,1.8,8.65,7.21,8.65a22.5,22.5,0,0,0,18.25-10Z"/><path class="cls-1" d="M141.62,56.93a3.09,3.09,0,0,0,.11,2.3,1.69,1.69,0,0,1,.19,1,1.71,1.71,0,0,1-1.75,1.75,3.32,3.32,0,0,1-1.45-.36c-3.85-1.89-9.2-6.75-9.35-16.2a44.06,44.06,0,0,1,.15-5.85c.1-1.05.1-2.1.1-2.85,0-2.45-.1-3.35-3.55-5.85a.72.72,0,0,1-.15-1,.91.91,0,0,1,1-.45,11.42,11.42,0,0,1,2.2.75c1.7.85,4.25,3.05,4.25,5.15a12.25,12.25,0,0,1-.55,3.25,24.38,24.38,0,0,0-1,7c0,6.3,3.05,9.8,5.15,11.15h.1a1.05,1.05,0,0,0,1.4-.25l.05-.1a66,66,0,0,0,4.31-8.4.79.79,0,0,1,1.19-.5.85.85,0,0,1,.56,1.2l-.65,1.7c-1,2.6-2.25,5.6-2.41,6.55Zm22-6c-.3-2.25-.9-6.55-3-9.7-1.6-2.45-3.9-3.9-6.9-5a.88.88,0,0,1-.6-1.25c.15-.55.55-.7,1.2-.7h.1a15.64,15.64,0,0,1,8.2,4.85A19.73,19.73,0,0,1,167,50.63c0,1.95-.65,2.65-1.8,2.65-.85,0-1.4-.7-1.55-2Z"/><path class="cls-1" d="M186.66,33.62a2.42,2.42,0,0,1-.77-1c-1.48-4.06-6.17-9.59-10.16-12.95a.59.59,0,0,1,0-1l.14-.14a1.3,1.3,0,0,1,1.33-.14,39.11,39.11,0,0,1,5.61,3c.56.49,1,.35,1.26-.35,1.88-5.11,4.41-11.69,6.3-17.5.42-1.26,1.26-1.68,2.38-1.19l3.64,1.47c1.12.42,1.33,1.33.56,2a2.85,2.85,0,0,1-1.33.56.78.78,0,0,0-.63.49l-1.89,3.43c-2.52,4.55-4.83,8.89-7.15,12.74a.64.64,0,0,0,.15,1c2.73,2.73,3.85,5.25,3.85,7.14,0,2.17-1.47,3.36-3.15,2.52ZM176.15,56.37c-.63-1.47-.14-2.38,1.54-2.59s3.43-.35,5.39-.56a.84.84,0,0,0,.63-.42,320,320,0,0,0,15.55-34.72A1.67,1.67,0,0,1,201.57,17l3.29,1.12c1.19.35,1.61,1.47.77,2.1a5.94,5.94,0,0,1-1.54.63.93.93,0,0,0-.63.49,309.59,309.59,0,0,1-17.22,31.43c-.07.14-.07.14.07.07h.28l15.19-1.89c.84-.14,1.05-.49.56-1.19a53.76,53.76,0,0,0-5.67-7.49.66.66,0,0,1,.21-1,1.48,1.48,0,0,1,1.33,0c9,5.39,11.9,11.27,11.9,14.77,0,2.59-1.61,4-3.5,2.87a1.29,1.29,0,0,1-.77-1.12,17.94,17.94,0,0,0-1.54-4.48.76.76,0,0,0-.91-.42l-.84.21c-5.67,1.4-12.88,3.44-22.62,5.61a.75.75,0,0,0-.48.34l-.5.64-.14.14a1,1,0,0,1-1.47-.63ZM239.09,7.93c.91.84,1,1.82.14,2.31a4.52,4.52,0,0,1-1.47.42c-.35.07-.56.28-.56.77-.56,28.49-2.17,44.94-5.6,49.5a10.23,10.23,0,0,1-6.37,3.5c-.91.14-1.61-.35-2-1.61a2,2,0,0,0-.84-1.4c-.7-.56-3-1.05-5.46-1.55a1.17,1.17,0,0,1-1.05-1.12v-.13a1.07,1.07,0,0,1,1.05-1h.14l1.19.15c2.73.34,5.88.55,7.07.55a3.13,3.13,0,0,0,2.8-1c2.8-2.73,4.34-19.74,4.9-46.13,0-.63-.21-.84-.84-.84H204.37A1.62,1.62,0,0,1,202.62,9l-.07-.14c-.35-.91,0-1.47,1.12-1.47h28.42c.28,0,.42-.14.63-.35l1.05-1.19a1.69,1.69,0,0,1,2.59-.14Z"/><path class="cls-1" d="M262.75,24.8q0-3.26-1.68-.42a48.24,48.24,0,0,1-11.56,12.88,1.2,1.2,0,0,1-1.19,0,.45.45,0,0,1-.35-.35,1,1,0,0,1,.14-1.19,58.16,58.16,0,0,0,12.54-20.16c.28-.77,0-1.12-.77-1.12h-9.25A1.74,1.74,0,0,1,248.81,13c-.21-.91.14-1.47,1.19-1.47h11.91c.63,0,.84-.21.84-.84V1.84a1.62,1.62,0,0,1,2-1.82l2.73.28c1.12.14,1.89,1,1.4,1.82l-.14.14a2.8,2.8,0,0,1-1.26.7.9.9,0,0,0-.63.91v6.79c0,.63.21.84.84.84h3.08c.35,0,.49-.14.7-.42L273,9.26A1.69,1.69,0,0,1,275.7,9c1.05.84,2.38,2,3.5,3a1.42,1.42,0,0,1,.35,1.75,1.85,1.85,0,0,1-1.61.7H267.72c-.63,0-.84.21-.84.84v3.08a.76.76,0,0,0,.56.77c7.63,2.59,10.43,6.72,10.43,9,0,1.68-1.26,2.87-2.87,2.24a1.55,1.55,0,0,1-.84-.91,27.68,27.68,0,0,0-6-7.21c-.77-.77-1.26-.42-1.26.63V39.64c0,.84-1.75,1.89-3.22,1.89h-.42a.48.48,0,0,1-.49-.49ZM248.81,60.44a3.66,3.66,0,0,1,1.4-3.86l.28-.13a17,17,0,0,0,7.92-10.58.9.9,0,0,1,.83-.84h.21a1.13,1.13,0,0,1,.85.84V46c0,7.28-3.57,12.26-6.38,14.15-1.75,1.12-4,1.46-5,.55Zm17.65-15.13a1.62,1.62,0,0,1,2-1.82l2.45.28c1.05.14,1.75.91,1.26,1.75a2.2,2.2,0,0,1-1,.77.9.9,0,0,0-.63.91V57.91c0,.71.28.84,3.43.84h9.31c4.48,0,7.77.07,8.89-.13a1.45,1.45,0,0,0,1.19-.64c.63-1.11,1.26-4.06,1.89-7.49a.78.78,0,0,1,.84-.63.63.63,0,0,1,.63.63l.14,7a.91.91,0,0,0,.56.84A1.84,1.84,0,0,1,298.73,60c0,2.24-2.17,2.93-15.4,2.93H273.6c-6,0-7.14-1-7.14-4.48ZM274,41a1.46,1.46,0,0,1,1.4-.35c8.68,2.59,11.55,6.86,11.55,9.73,0,1.75-1.19,3-2.87,2.45a1.55,1.55,0,0,1-.91-1c-1.33-3.43-5.32-7.35-9.1-9.66C273.6,41.74,273.6,41.46,274,41Zm8.05.35a.48.48,0,0,1-.49-.49V4.57c0-1.47.91-2.1,2.24-1.4l1.89,1,.42.21h16.38a.76.76,0,0,0,.63-.28l1-1.12a1.74,1.74,0,0,1,2.52-.28l2.73,2.17a1.41,1.41,0,0,1,.07,2.38h-.14l-1.12.49a.76.76,0,0,0-.56.77v30a.76.76,0,0,1-.07.35l-.07.14-.21.35a7.75,7.75,0,0,1-2.87,1.26.31.31,0,0,1-.35,0h-.07a.62.62,0,0,1-.42-.42,1,1,0,0,1-.14-.49v-2.1c0-.63-.21-.84-.84-.84h-16c-.63,0-.84.21-.84.84v2c0,.7-1.61,1.82-3.22,1.82Zm4.48-34.23c-.63,0-.84.21-.84.84v5.11c0,.63.21.84.84.84h16c.63,0,.84-.21.84-.84V8c0-.63-.21-.84-.84-.84Zm0,9.73c-.63,0-.84.21-.84.84v5.18c0,.63.21.84.84.84h16c.63,0,.84-.21.84-.84V17.73c0-.63-.21-.84-.84-.84Zm0,9.8c-.63,0-.84.21-.84.84V33c0,.63.21.84.84.84h16c.63,0,.84-.21.84-.84V27.53c0-.63-.21-.84-.84-.84ZM308,59.11c-1.54-4.49-7-10-11.34-13.38-.35-.21-.42-.56-.14-1l.14-.14a1.08,1.08,0,0,1,1.19-.14H298c10.71,3.92,14.14,9.73,14.14,13.09,0,2.18-1.47,3.51-3.15,2.66l-.21-.06a2,2,0,0,1-.77-.92Z"/><path class="cls-1" d="M330.65,44.75a10.19,10.19,0,1,1-10,10.15A10.11,10.11,0,0,1,330.65,44.75ZM323.29,54.9a7.32,7.32,0,0,0,14.64,0,7.32,7.32,0,0,0-14.64,0Z"/><path class="cls-1" d="M417.44,60.26a2.75,2.75,0,0,1,2,2.24c0,1.14-1.1,1.66-3.13,1.66a31.65,31.65,0,0,1-6.13-.67c-4.74-1.1-9.26-4.11-9.26-9.89a12,12,0,0,1,3.22-8.27c1.3-1.4,1.09-1.82-.78-1.2a52.64,52.64,0,0,0-8,3.13c-1,.57-1.92,1.09-2.71,1.5-1.45.84-2.28,1.41-3.27,1.41A2.29,2.29,0,0,1,387.26,48a1.84,1.84,0,0,1,1.36-1.88l1.45-.52a28.81,28.81,0,0,0,3-1.09,19.27,19.27,0,0,0,5.51-4c3.18-3.18,11.5-11.45,13.68-15.3.06,0,0-.05-.05-.1a.24.24,0,0,0-.26,0c-2.7.67-6.24,1.71-8.74,2.6a9.19,9.19,0,0,0-2.18,1,3.38,3.38,0,0,1-1.72.62c-1.09,0-4-2.23-4.26-4.37v-.1a4.84,4.84,0,0,1,.05-2.13.87.87,0,0,1,.41-.58.6.6,0,0,1,.26-.05.58.58,0,0,1,.58.26v.11c.88,1.61,1.61,2.86,2.54,2.86,1.88,0,9.79-1.88,11.76-2.5a4.71,4.71,0,0,0,1.61-.78,2.28,2.28,0,0,1,1-.42c1.19,0,4.21,2.14,4.21,3.59,0,.84-.42.94-1,1.3h-.1a6.67,6.67,0,0,0-1.62,1.25c-4.16,4.42-7,7.18-10.56,10.51l-4,3.75c-.57.52-.47.67.26.41l1.19-.36c5.1-1.56,11.76-3.33,14.62-4a41.18,41.18,0,0,1,7-1.25c1.88,0,3.7,1.1,3.7,2.4,0,1-.73,1.56-2.66,1.56h-.88a26.58,26.58,0,0,0-3.49,0c-4.78.36-9.31,1.61-11.34,3.28-2.55,2-5,4.47-5,8.89,0,4.11,3.27,6.24,8.06,6.92a28.75,28.75,0,0,0,3.95.21,6.36,6.36,0,0,1,1.77,0Z"/><path class="cls-1" d="M479.13,49.6a1,1,0,0,1,1.3-.21.93.93,0,0,1,.31,1.3c-4.16,7.91-11.91,13.06-20.5,13.06-7,0-10.45-3.44-10.45-12.33,0-5.26.47-12.12.88-17.22.21-2.91.37-5.36.37-6.4,0-1.61-.26-1.87-1-2.29l-.16-.05a6.62,6.62,0,0,0-2.44-.89h-.11a.86.86,0,0,1-.83-1,.87.87,0,0,1,.88-1,11.41,11.41,0,0,1,2.55-.16c2.29.16,5.62,2.81,5.62,4.22a2.57,2.57,0,0,1-.42,1.3,5.61,5.61,0,0,0-.88,2.34,178.51,178.51,0,0,0-1.61,20.86c0,6.5,1.87,9,7.49,9a23.44,23.44,0,0,0,19-10.41Z"/><path class="cls-1" d="M493.32,29.26h.11a.57.57,0,0,1,.83.31l.05.05a4,4,0,0,0,2.86,2.08c1.62,0,5.88-1.14,11.08-2.55,3.54-1,7.18-1.87,10.56-2.65,6.09-1.4,9.84-2,11.66-2A9.16,9.16,0,0,1,534,25c1.24.63,1.5,1.09,1.5,1.87a1.51,1.51,0,0,1-1.66,1.46c-.37,0-.94,0-1.41-.05-.78-.05-2-.11-3.06-.11-2.5,0-6.3.42-8.74,1.88s-7.76,6.29-7.76,16.85c0,5.41,2.29,7.86,4.53,9.16,3.17,1.77,7,1.71,9.31,1.71h.78c1.2,0,2.92.84,2.92,2.14s-1.2,1.77-3.65,1.77c-2.7,0-8.37-.16-12-3C511.69,56.2,510,53,510,47.2c0-5.2,1.1-11,5.26-15.76,1.14-1.25.93-1.66-.73-1.19-5.1,1.5-10.72,3.32-13.47,4.47l-1,.41H500a4.25,4.25,0,0,1-2,.79c-1.87,0-4.21-2.19-4.89-3.91a5.94,5.94,0,0,1-.31-1.92v-.31a.42.42,0,0,1,.37-.47Z"/><path class="cls-1" d="M544.87,52.82a1.1,1.1,0,0,1,1.2-.26c5.72,2,8.63,4.63,10.35,7.08a5.9,5.9,0,0,1,1.25,3.69c0,1.61-.68,2.45-2,2.45-1,0-1.71-.73-2.49-2.45A23.71,23.71,0,0,0,545,54a.81.81,0,0,1-.26-1.09Z"/><path class="cls-1" d="M603.77,49.47a7.69,7.69,0,0,1,.14,2.1A16,16,0,0,1,597.32,65c-2,1.33-4.54,1.61-5.39.14s.35-3,2-4.14H594A16.5,16.5,0,0,0,602,49.33c.07-.49.42-.84.84-.77h.14a.79.79,0,0,1,.84.77ZM592.84,37.08c-.77-1.47-.14-2.52,1.61-2.73C598,34,603,33.58,608.32,33l4-.42A.75.75,0,0,0,613,32a44.66,44.66,0,0,0,.84-4.76c.07-.63-.21-.91-.84-.91H597.68A1.63,1.63,0,0,1,595.92,25l-.06-.14c-.36-.91,0-1.47,1.12-1.47h16.17c.63,0,.84-.21.84-.84V17.2c0-.63-.21-.84-.84-.84H595.44A1.63,1.63,0,0,1,593.68,15l-.06-.14c-.36-.91,0-1.47,1.12-1.47h18.41c.63,0,.84-.21.84-.84V7.12a1.64,1.64,0,0,1,1.89-1.82H616l2.59.21h.14c1.12.28,1.82,1,1.33,1.89l-.14.14a3.89,3.89,0,0,1-1.19.63.9.9,0,0,0-.63.91V24.13c0,10.92-4.27,19.74-21.71,24.78a1.12,1.12,0,0,1-1.46-.63c-.36-.63-.21-1.05.42-1.19h.13c7.92-2.8,12.54-6.16,15.2-10.15.7-1,.28-1.4-.91-1.12-3.64.91-7.91,2-13.23,3.15a.78.78,0,0,0-.49.35l-.36.49c-.06.21-.27.28-.42.35-.49.14-.91-.07-1.18-.7Zm16.95,11.06c0-1.26.7-1.89,2-1.75l2.38.28c1,.14,1.75.91,1.26,1.75a2,2,0,0,1-.91.77c-.42.21-.63.42-.63.84V63.2c0,.76.28,1,3.36,1h8.89c4.2,0,7.35-.15,8.54-.15h.14A1.44,1.44,0,0,0,636,63.2a75.05,75.05,0,0,0,2-9.32v-.14c.07-.42.35-.56.77-.56a.63.63,0,0,1,.63.63l.21,9a1,1,0,0,0,.49.77,2,2,0,0,1,1.26,1.75c0,2.31-2.17,3-15.12,3h-9.31c-6,0-7.07-1-7.07-4.55Zm6.72-3.85c-.21-.42-.28-.7-.07-1l.14-.14a1.39,1.39,0,0,1,1.26-.21c8.47,2.8,11.27,7.42,11.27,10.22,0,2-1.26,3.15-3,2.52a1.55,1.55,0,0,1-.91-1.05,24,24,0,0,0-8.47-10.22ZM627.43,7.05a1.62,1.62,0,0,1,2-1.82l2.8.28c1.26.14,2,1.12,1.19,2a3.29,3.29,0,0,1-1.12.7c-.49.21-.77.42-.77.91v3.43c0,.63.21.84.84.84h11.2c.28,0,.42-.14.63-.35l1.61-2a1.63,1.63,0,0,1,2.45-.28c1.05.84,2.38,2,3.71,3.15a1.29,1.29,0,0,1,.35,1.75,1.9,1.9,0,0,1-1.68.7H632.4c-.63,0-.84.21-.84.84v5.32c0,.63.21.84.84.84h9c.28,0,.42-.14.63-.35l1.54-1.82a1.77,1.77,0,0,1,2.52-.21l3.36,2.87a1.19,1.19,0,0,1,.35,1.75,2,2,0,0,1-1.75.7H632.4c-.63,0-.84.21-.84.84v5.74c0,.63.21.84.84.84h12.18c.28,0,.42-.14.63-.35l1.68-2.1a1.59,1.59,0,0,1,2.45-.21c1,.77,2.45,2,3.78,3.15a1.29,1.29,0,0,1,.35,1.75,1.9,1.9,0,0,1-1.68.7H632.4c-.63,0-.84.21-.84.84v6c0,.84-1.68,1.89-3.15,1.89H628a.52.52,0,0,1-.56-.56Zm22.82,56.42c-1.68-5.1-6.86-11.2-11.55-15.19a.86.86,0,0,1-.14-1.12l.14-.14A1.5,1.5,0,0,1,640,47c10.92,5,14.49,11.2,14.49,14.84,0,2.45-1.47,3.72-3.43,2.87a1.4,1.4,0,0,1-.84-1Z"/><path class="cls-1" d="M702.47,57a1,1,0,0,1,1.25-.2A.89.89,0,0,1,704,58c-4,7.6-11.45,12.55-19.7,12.55-6.75,0-10.06-3.3-10.06-11.85,0-5,.45-11.65.86-16.55.2-2.8.34-5.15.34-6.15,0-1.55-.25-1.8-1-2.2l-.14,0a6.34,6.34,0,0,0-2.36-.85h-.09a1,1,0,0,1,0-1.9,11.1,11.1,0,0,1,2.46-.15c2.2.15,5.4,2.7,5.4,4.05a2.47,2.47,0,0,1-.4,1.25,5.16,5.16,0,0,0-.85,2.25,172.35,172.35,0,0,0-1.56,20c0,6.25,1.81,8.65,7.21,8.65a22.5,22.5,0,0,0,18.25-10Z"/><path class="cls-1" d="M732.07,61.93a3,3,0,0,0,.1,2.3,1.6,1.6,0,0,1,.2,1,1.71,1.71,0,0,1-1.75,1.75,3.33,3.33,0,0,1-1.46-.36c-3.84-1.89-9.2-6.75-9.35-16.2a44.06,44.06,0,0,1,.15-5.85,27.41,27.41,0,0,0,.11-2.85c0-2.45-.11-3.35-3.56-5.85a.72.72,0,0,1-.15-1,.91.91,0,0,1,1-.45,11.51,11.51,0,0,1,2.21.75c1.7.85,4.25,3.05,4.25,5.15a12.67,12.67,0,0,1-.55,3.25,24,24,0,0,0-1,7c0,6.3,3,9.8,5.15,11.15h.1a1.06,1.06,0,0,0,1.4-.25l.05-.1a66,66,0,0,0,4.3-8.4.79.79,0,0,1,1.2-.5.84.84,0,0,1,.55,1.2l-.65,1.7a67.68,67.68,0,0,0-2.4,6.55Zm22-6c-.3-2.25-.9-6.55-3-9.7-1.6-2.45-3.9-3.9-6.9-5a.88.88,0,0,1-.6-1.25c.15-.55.55-.7,1.2-.7h.1a15.64,15.64,0,0,1,8.2,4.85,19.73,19.73,0,0,1,4.4,11.55c0,1.95-.65,2.65-1.8,2.65-.85,0-1.4-.7-1.55-2Z"/><path class="cls-1" d="M766.31,57.73a1.71,1.71,0,0,1,1.19-2.52c2.18-.56,5-1.54,8.41-2.59a.79.79,0,0,0,.56-.84V34.91c0-.63-.21-.84-.84-.84h-6.17a1.73,1.73,0,0,1-1.81-1.47c-.21-.91.13-1.47,1.18-1.47h6.8c.63,0,.84-.21.84-.84V15.45c0-.63-.21-.84-.84-.84h-6.8A1.74,1.74,0,0,1,767,13.14c-.21-.91.15-1.47,1.19-1.47h15.55a.86.86,0,0,0,.7-.35c.49-.63,1-1.26,1.61-2,.91-1,1.75-1,2.66-.28l3.64,3.15a1.41,1.41,0,0,1,.35,1.75,1.85,1.85,0,0,1-1.61.7h-9.59c-.63,0-.84.21-.84.84V30.29c0,.63.21.84.84.84h1.61c.28,0,.42-.14.63-.35.35-.56.84-1.05,1.33-1.68a1.79,1.79,0,0,1,2.73-.28c.91.77,2.1,1.82,3.15,2.87a1.69,1.69,0,0,1,.42,1.4l-.21.28a2.13,2.13,0,0,1-1.61.7h-8c-.63,0-.84.21-.84.84v15c0,.77.35,1,1.12.77l8.75-3.08h.14a1,1,0,0,1,1.19.56c.07.14.07.14.07.21a1.14,1.14,0,0,1-.7,1.33c-1.68.77-3.57,1.54-5.53,2.52-4.48,2.31-9.66,4.69-16,7.42a.93.93,0,0,0-.36.35l-.34.64a.78.78,0,0,1-.28.34c-.57.21-1,.08-1.26-.63Zm32.77-11.62c-.63,0-.84.21-.84.84v1.54c0,.63-1.61,1.75-3.22,1.75h-.42a.48.48,0,0,1-.49-.49V9.92c0-1.47.91-2.1,2.24-1.4l1.89,1,.42.21h21.42a.76.76,0,0,0,.63-.28l1-1.12a1.65,1.65,0,0,1,2.59-.21L827,10.34c.91.7,1,1.82,0,2.31a4.47,4.47,0,0,1-1.12.42.9.9,0,0,0-.63.91V47.65l-.07.35a5.11,5.11,0,0,1-3.36,1.61h-.14l-.14-.07a.44.44,0,0,1-.42-.28l-.07-.14a.89.89,0,0,1-.07-.42V47c0-.63-.21-.84-.84-.84H817c-.63,0-.84.21-.84.84V63.54c0,.64.07.7,1.68.7H822c1.33,0,2.38-.06,3.15-.06h1a.78.78,0,0,0,.7-.56,84.15,84.15,0,0,0,1.82-9.32.74.74,0,0,1,.7-.63.63.63,0,0,1,.63.63l.21,8.75c0,.36.21.57.56.77.84.5.91,1,.91,1.89,0,1.9-1.75,2.81-9.59,2.81h-5c-4.2,0-5.11-1.12-5.11-4.14V47c0-.63-.21-.84-.84-.84h-3.5a.78.78,0,0,0-.84.7c-2,12.95-9.31,19.18-24.43,22.76-.63.13-1.05-.07-1.19-.7a1,1,0,0,1,.7-1.26C795,63.12,800.2,57.45,802,47.09c.14-.7-.14-1-.84-1ZM820.15,20.7c.63,0,.84-.21.84-.84V13.28c0-.63-.21-.84-.84-.84H799.08c-.63,0-.84.21-.84.84v6.58c0,.63.21.84.84.84Zm0,11c.63,0,.84-.21.84-.84V24.34c0-.63-.21-.84-.84-.84H799.08c-.63,0-.84.21-.84.84v6.51c0,.63.21.84.84.84Zm0,11.55c.63,0,.84-.21.84-.84V35.47c0-.63-.21-.84-.84-.84H799.08c-.63,0-.84.21-.84.84V42.4c0,.63.21.84.84.84Z"/><path class="cls-1" d="M876.36,49.54c-1,0-1.26.49-.7,1.19,5.32,7.84,14.56,11.83,26.81,13.87a.8.8,0,0,1,.77.91.92.92,0,0,1-.77,1,3.89,3.89,0,0,0-2.17,1.75,2.08,2.08,0,0,1-2.38,1.12c-12.11-3.29-20.58-9-25.27-19.33a.79.79,0,0,0-.77-.49H871a.79.79,0,0,0-.77.49c-3.71,8.34-11.83,15.34-29.05,19.4a1.07,1.07,0,0,1-1.48-.77v-.14c-.21-.57.07-1.06.78-1.26,14.21-4.14,21.21-9.67,24.85-16.53.42-.84.21-1.19-.7-1.19H842.41a1.61,1.61,0,0,1-1.75-1.33l-.08-.14c-.34-.91,0-1.47,1.12-1.47h24.79a.76.76,0,0,0,.77-.56,33.48,33.48,0,0,0,1.26-6.3c.07-.63-.21-.91-.84-.91H850a1.67,1.67,0,0,1-1.75-1.47c-.21-.91.21-1.4,1.12-1.4H868c.63,0,.84-.21.77-.77V29.87c0-.63-.21-.84-.84-.84H849.06a1.67,1.67,0,0,1-1.75-1.47c-.21-.91.21-1.4,1.12-1.4h19.46c.63,0,.84-.21.84-.84V21.05a1.62,1.62,0,0,1,2-1.82l2.8.28c1.12.14,2,1.12,1.26,2a2.75,2.75,0,0,1-1.19.63.9.9,0,0,0-.63.91v2.24c0,.63.21.84.84.84H887c.28,0,.42-.14.63-.35l1.61-1.89a1.7,1.7,0,0,1,2.45-.21c1,.77,2.31,1.82,3.5,2.87a1.45,1.45,0,0,1,.42,1.75,1.9,1.9,0,0,1-1.68.7H873.84c-.63,0-.84.21-.84.84v5.25c0,.63.21.84.84.84h12c.28,0,.42-.14.63-.35l1.68-2a1.85,1.85,0,0,1,2.52-.28c1.05.84,2.52,2,3.71,3a1.37,1.37,0,0,1,.42,1.61l-.07.21a2.11,2.11,0,0,1-1.61.63H873.63c-.56,0-.77.21-.84.77a36.64,36.64,0,0,1-1,5.88c-.21.77.07,1.12.84,1.12h19.11a.86.86,0,0,0,.7-.35l1.75-2.1a1.82,1.82,0,0,1,2.59-.28l3.71,3.22h.07A1.31,1.31,0,0,1,901,48.7l-.07.21a2.17,2.17,0,0,1-1.68.63ZM892,23.22a.68.68,0,0,1-.21-1c.77-1.4,1.61-3,2.45-4.76.35-.77.07-1.12-.77-1.12H850.25c-.56,0-.77.21-.84.77a11.09,11.09,0,0,1-4.13,8.26,5.78,5.78,0,0,1-3,1.05,2.36,2.36,0,0,1-2.18-1.26c-.84-1.61.21-3.15,1.69-3.92,2.79-1.61,5.32-5.39,5.32-10.43v-.14c-.07-.35.14-.63.63-.77h.14a1,1,0,0,1,1,.77,14.67,14.67,0,0,1,.42,2.17.67.67,0,0,0,.77.63h17.85c.63,0,.84-.21.84-.84V7.12a1.62,1.62,0,0,1,2-1.82l3,.35c1.05.14,1.82,1,1.26,1.82a3.11,3.11,0,0,1-1.33.84c-.42.21-.7.42-.7.91v3.43c0,.63.21.84.84.84h20.93a.72.72,0,0,0,.56-.28L896.59,12a1.65,1.65,0,0,1,2.59,0l2.8,2.8c.77.84.77,1.75-.14,2a3.93,3.93,0,0,1-1.4.21.53.53,0,0,0-.49.28,38.18,38.18,0,0,1-6.51,6,1.05,1.05,0,0,1-1.33.07Z"/><path class="cls-1" d="M921.09,49.75a10.19,10.19,0,1,1-10,10.15A10.11,10.11,0,0,1,921.09,49.75ZM913.74,59.9a7.32,7.32,0,0,0,14.63,0,7.32,7.32,0,0,0-14.63,0Z"/></g></g></svg>