<svg xmlns="http://www.w3.org/2000/svg" viewBox="0 0 881.27 64.64"><defs><style>.cls-1{fill:#fff;}.cls-2{fill:none;stroke:#fff;stroke-miterlimit:10;stroke-width:2px;}</style></defs><title>アセット 31</title><g id="レイヤー_2" data-name="レイヤー 2"><g id="レイヤー_1-2" data-name="レイヤー 1"><path class="cls-1" d="M15.86,47.4a3,3,0,0,0,.1,2.3,1.58,1.58,0,0,1,.2.95,1.71,1.71,0,0,1-1.75,1.75A3.24,3.24,0,0,1,13,52.05c-3.85-1.9-9.2-6.75-9.35-16.2A44.06,44.06,0,0,1,3.76,30c.1-1.05.1-2.1.1-2.85,0-2.45-.1-3.35-3.55-5.85a.72.72,0,0,1-.15-1.05.91.91,0,0,1,1.05-.45,11.42,11.42,0,0,1,2.2.75c1.7.85,4.25,3.05,4.25,5.15A12.25,12.25,0,0,1,7.11,29a24.38,24.38,0,0,0-1,7c0,6.3,3.05,9.8,5.15,11.15h.1a1.05,1.05,0,0,0,1.4-.25l0-.1a66,66,0,0,0,4.3-8.4.79.79,0,0,1,1.2-.5.84.84,0,0,1,.55,1.2l-.65,1.7a67.68,67.68,0,0,0-2.4,6.55Zm22-6c-.3-2.25-.9-6.55-3-9.7-1.6-2.45-3.9-3.9-6.9-5.05a.88.88,0,0,1-.6-1.25c.15-.55.55-.7,1.2-.7h.1a15.64,15.64,0,0,1,8.2,4.85,19.73,19.73,0,0,1,4.4,11.55c0,1.95-.65,2.65-1.8,2.65-.85,0-1.4-.7-1.55-2Z"/><path class="cls-1" d="M50,29.8a4.13,4.13,0,0,0,2.9,1.45c1,0,2.2-.35,4.65-1.6,4.55-2.4,12.5-6.75,19.55-6.75,9.15,0,13.7,5.7,13.7,12,0,6.5-3.9,11-9.5,13.55-3.8,1.75-9.5,2.85-16.35,2.85h-1.8a1,1,0,0,1-1-1A1,1,0,0,1,63,49.15c6.2-.4,11.5-1.2,16.1-3.3,5.8-2.7,8.45-6.3,8.45-11.55,0-5.65-3.9-8.9-10.55-8.9-6.05,0-12.6,4-16.45,6.35-1.4.85-2.45,1.55-3.3,2.1-1.55,1-2.65,1.7-3.5,1.7-1.4,0-3.5-1.5-4.25-2.65a8.31,8.31,0,0,1-.85-2.45.91.91,0,0,1,.3-.8l.1,0a.61.61,0,0,1,.8.1Z"/><path class="cls-1" d="M118.86,21.7l0,.05L118,23.6l-1,2.25c-.3.75-.1,1,.7.85a21.31,21.31,0,0,1,2.9-.25c3.75,0,5.9,2.15,5.9,8s-2,13-4.7,16.8a7.51,7.51,0,0,1-6.1,3.3c-1.5,0-1.65-.65-2.4-1.7l-.2-.35v-.1a36.07,36.07,0,0,0-3.2-3.25.76.76,0,0,1-.15-1,.64.64,0,0,1,1-.25c2.4,1.6,4.5,2.8,5.55,2.8,1.55,0,2.6-.55,4-2.7,1.55-2.4,3.45-8.25,3.45-14,0-3.65-.8-5.15-3.55-5.15a19.9,19.9,0,0,0-4.4.65.89.89,0,0,0-.4.35c-1.4,3.35-3,6.9-4.7,10.25a108.83,108.83,0,0,1-7.4,13.55c-.65,1-1.35,1.45-2,1.45a1.8,1.8,0,0,1-1.45-1.9,3.69,3.69,0,0,1,.75-2.3,95.37,95.37,0,0,0,7.85-12.25,61.8,61.8,0,0,0,3.3-7c.3-.75,0-1-.75-.8-1.25.4-2.4.8-3.15,1.1l-1.85.75a6.17,6.17,0,0,1-2.35.65c-1.25,0-3.2-1.85-3.6-3.5a6.51,6.51,0,0,1,0-2.45v-.1a1.09,1.09,0,0,1,.9-.7c.35-.05.55,0,.6.35l.1.35c.35,1.15.75,2.3,2,2.3a54.19,54.19,0,0,0,6.65-1.3c1-.25,1.95-.5,2.9-.7a.66.66,0,0,0,.45-.35c1.45-3.75,2.5-6.8,2.5-7.6a1,1,0,0,0-.65-1h-.1a10.37,10.37,0,0,0-3-.55.84.84,0,0,1-.85-1,1,1,0,0,1,.75-1h.1a7.66,7.66,0,0,1,2.25-.3c2,0,5.65,1.8,5.65,3.1a3,3,0,0,1-.7,1.75Zm11.3,5.75a1.11,1.11,0,0,1,1.35-.7,12.21,12.21,0,0,1,7.7,4.25c1.75,2,2.9,5.25,2.9,9.1,0,2-.6,3.7-2.05,3.7a1.74,1.74,0,0,1-1.45-.85,1.44,1.44,0,0,0-1.15-.7,26.38,26.38,0,0,0-5.25.35,1,1,0,0,1-1.1-.8.89.89,0,0,1,.75-1.1c1.75-.4,4.6-1,5.95-1.4.7-.25,1.05-.8.95-1.8a12.12,12.12,0,0,0-2.1-5.3c-1.2-1.75-3-2.85-6-3.6C130.06,28.45,129.91,28.05,130.16,27.45Z"/><line class="cls-2" x1="164.8" y1="32.26" x2="403.17" y2="32.26"/><path class="cls-1" d="M421.18,51.2a1.15,1.15,0,0,1,0-1.33,76.37,76.37,0,0,0,13-26.12c.21-.77,0-1.05-.77-1.05h-9.94a1.62,1.62,0,0,1-1.75-1.4c-.21-.91.21-1.4,1.12-1.4h12.39c.63,0,.84-.21.84-.84V9.82c0-.77-.28-1.05-1-.84-3.92.91-7.84,1.54-11.69,2.1a1.2,1.2,0,0,1-1.4-.77v-.14a.91.91,0,0,1,.7-1.12A129.42,129.42,0,0,0,446.59.65a1.82,1.82,0,0,1,2,.21l2.94,2.45.07.07c.77.77,1,1.75.07,2a4,4,0,0,1-2-.14,1.19,1.19,0,0,0-.7,0c-2.24.77-5.11,1.54-8.12,2.31a.78.78,0,0,0-.63.84V19.06c0,.63.21.84.84.84h4.27a.86.86,0,0,0,.7-.35,22.69,22.69,0,0,1,1.68-2.17,1.73,1.73,0,0,1,2.66-.28c1.05.84,2.38,2,3.71,3.08l.14.14A1.51,1.51,0,0,1,454.5,22a1.9,1.9,0,0,1-1.68.7H441.06c-.63,0-.84.21-.84.84v3a.79.79,0,0,0,.49.77c8.54,3.57,11.55,8.33,11.55,11.06,0,1.89-1.33,3.08-3.08,2.31a1.31,1.31,0,0,1-.77-.84v-.14a36.46,36.46,0,0,0-6.86-9c-.77-.77-1.33-.49-1.33.63V62.47c0,.63-1.47,1.61-3.22,1.82a.42.42,0,0,1-.28-.07h-.07c-.14-.07-.35-.14-.42-.35a1,1,0,0,1-.14-.49V36.07c0-2.59-.42-2.73-1.68-.42A62,62,0,0,1,422.79,51.2l-.14.14c-.35.35-.7.35-1.26.07ZM469.9,2.82c.84.21,1.61.91,1.12,1.68l-.07.21a4,4,0,0,1-1.68,1.12.94.94,0,0,0-.63.63c-2.45,11.2-6.86,30.73-12.11,46.21-.35.91-.07,1.19.84,1.12,5.95-.56,12.74-1.26,20.09-2,.77-.07,1.05-.42.7-1.19a174.12,174.12,0,0,0-8.61-16.11.68.68,0,0,1,.21-1c.14-.07.14-.07.21-.07a1.66,1.66,0,0,1,1.33.28c11.27,12,14.91,21.57,14.91,26.26,0,3-1.47,4.34-3.43,3a1.7,1.7,0,0,1-.63-1,56.16,56.16,0,0,0-2.38-7.7.72.72,0,0,0-1-.42c-7.49,1.68-17,3.71-29.54,6a1.47,1.47,0,0,0-.56.42,3.06,3.06,0,0,0-.56.49l-.21.21q-1.05.31-1.47-.84l-1.19-3a1.68,1.68,0,0,1,1.61-2.45l6.51-.56a.75.75,0,0,0,.7-.63c3.92-15.83,8-37.74,9.87-50.13a1.69,1.69,0,0,1,2.24-1.47Z"/><path class="cls-1" d="M529,33.76A10.1,10.1,0,0,1,531.61,35c1.15.8,2.5,2.45,2.5,3.8,0,1.2-.5,1.25-2.25,1.85a96.26,96.26,0,0,0-14.15,5.7.58.58,0,0,0-.35.55c.14,2.75.14,6.2.14,7.7,0,1.25-.45,2-1.45,2-.8,0-1.59-.5-1.59-2,0-.4,0-1.1.09-2l.16-3.5c0-.7-.3-.9-.91-.5-4.34,2.8-7.3,5.5-7.3,8.25s3.4,3.85,8,3.85a41.71,41.71,0,0,0,9.66-1.1,15.84,15.84,0,0,1,3.1-.5c1.65,0,2.35.7,2.35,1.65,0,.75-.3,1.3-1.8,1.9h-.1A57.7,57.7,0,0,1,516.61,64c-9.26,0-12.36-2.9-12.36-6.9,0-3.7,4.46-7.85,10-11.6a.49.49,0,0,0,.25-.55c-.25-3.75-1.2-5.05-3.7-5.05-2.8,0-6.1,2.7-8.25,4.85-.55.55-1.05,1.2-1.6,1.8-1.05,1.2-2,2.25-2.65,2.25a1.82,1.82,0,0,1-1.7-2c0-1.15,1.15-2.25,2.55-3.6l1.75-1.7a42.78,42.78,0,0,0,6-7.65c.51-.7.3-.95-.55-.9-.55.05-1.15.05-1.8.05-3.8,0-5-.8-7-4.35v-.1a.82.82,0,0,1,.35-1.15l.05-.05a.54.54,0,0,1,.3-.1l.1,0a.72.72,0,0,1,.35.1l.15.05.1.1c1.9,1.9,2.6,2.8,6.1,2.8a16.49,16.49,0,0,0,4-.45.75.75,0,0,0,.4-.25,24.24,24.24,0,0,0,1.5-4.15c.16-.6-.05-.8-.8-1.2a8.08,8.08,0,0,0-2.1-.5.87.87,0,0,1-.8-.9v-.2a1,1,0,0,1,0-.35l.06,0a.34.34,0,0,1,.19-.2l.06,0a.33.33,0,0,1,.19-.05,10,10,0,0,1,2.25-.3c1.4,0,4.65,1,4.65,2.3a2.91,2.91,0,0,1-.55,1.55l-.39.8a12.78,12.78,0,0,1-.7,1.55c-.41.8-.16,1.15.7.9a42.29,42.29,0,0,0,5.1-1.85l1.85-.8a4.26,4.26,0,0,1,1.5-.55c1,0,2.05.45,2.05,1.45,0,.7-.45,1.25-1.35,1.6h-.1a57,57,0,0,1-11.86,3.7.62.62,0,0,0-.4.3c-.94,1.6-1.85,3.1-3,4.7-1,1.35-.8,1.6.81,1a9.38,9.38,0,0,1,3-.6c3,0,4.86,1.7,5.5,5.2.16.6.41.75,1,.45,2.35-1.25,4.7-2.4,7.1-3.45,1.65-.75,3.35-1.45,4.6-2.1.6-.3.65-.7.1-1.2a7.08,7.08,0,0,0-1.85-1.35.72.72,0,0,1-.35-1.1,1.45,1.45,0,0,1,1.3-.45Z"/><path class="cls-1" d="M554.34,45.67q0-3.16-1.68-.43A44.75,44.75,0,0,1,542.3,56.38a1.1,1.1,0,0,1-1.54-.14c-.42-.56-.42-1,0-1.4l.14-.14a49.42,49.42,0,0,0,11.48-18.91c.28-.77,0-1.12-.77-1.12h-7.77A1.74,1.74,0,0,1,542,33.2c-.21-.91.14-1.47,1.19-1.47H553.5c.63,0,.84-.21.84-.84V23.61a1.62,1.62,0,0,1,2-1.82l2.8.28h.14c1.05.28,1.89,1.05,1.26,2a2.35,2.35,0,0,1-1.4.91c-.42.14-.7.35-.7.84v5.11c0,.63.21.84.84.84h2.31a.76.76,0,0,0,.63-.28l1.54-1.82a1.82,1.82,0,0,1,2.59-.28l3.36,2.94a1.69,1.69,0,0,1,.42,1.4L570,34a2.13,2.13,0,0,1-1.61.7h-9c-.63,0-.84.21-.84.84v1.12a.76.76,0,0,0,.56.77c7.63,2.59,10.43,6.86,10.43,9.38,0,1.89-1.33,3.15-3,2.39a1.25,1.25,0,0,1-.84-.91v-.14a25.89,25.89,0,0,0-5.88-7.5c-.77-.77-1.26-.49-1.26.56V62.26c0,.84-1.75,2-3.08,2h-.49a.52.52,0,0,1-.56-.56Zm13.72-42a2.75,2.75,0,0,1-1.26.28,1.15,1.15,0,0,0-.77.49,47,47,0,0,1-4.41,6c-.49.49-.42.84.21,1.26,4.69,3.08,6.44,6.3,6.44,8.19a1.88,1.88,0,0,1-2.45,2,1.7,1.7,0,0,1-1-.63,27.21,27.21,0,0,0-6.37-6.3.66.66,0,0,0-1.05.07,64,64,0,0,1-14.56,10.64.93.93,0,0,1-1.33-.28.86.86,0,0,1,.21-1.33,60.67,60.67,0,0,0,12.39-11.2c.42-.42.35-.84-.21-1.19a59.9,59.9,0,0,0-9.66-5c-.63-.21-.7-.63-.35-1.12V5.48a1.24,1.24,0,0,1,1.47-.56,77.3,77.3,0,0,1,11.06,3.85.72.72,0,0,0,1-.28A45.69,45.69,0,0,0,562,1.21a1.66,1.66,0,0,1,2.45-1l3.15,1.47c1.12.49,1.33,1.33.7,1.89ZM606,59.53a1,1,0,0,1,.56,1,1.07,1.07,0,0,1-.77.77,3.75,3.75,0,0,0-2.1,1.4,2,2,0,0,1-2.59.84c-6-2.59-11-5.67-15.19-10.15-.28-.42-.7-.42-1.12-.07a64.28,64.28,0,0,1-20.37,10.64,1.21,1.21,0,0,1-1.54-.63c-.35-.63-.21-1.12.49-1.33A60.32,60.32,0,0,0,582.48,50.5a.66.66,0,0,0,.07-1,46.82,46.82,0,0,1-7-15.55.78.78,0,0,0-.84-.63h-2.59a1.59,1.59,0,0,1-1.68-1.33l-.07-.14a1,1,0,0,1,1-1.4h23a.79.79,0,0,0,.56-.21l1.33-1.26a1.66,1.66,0,0,1,2.52,0l2.38,2.24c.77.84.84,1.82-.07,2.17a6.32,6.32,0,0,1-1.33.28.89.89,0,0,0-.7.49,49.31,49.31,0,0,1-10.22,15.4c-.49.42-.42.78.07,1.2a43.91,43.91,0,0,0,16.87,8.82ZM568.9,28.72a1.15,1.15,0,0,1,.14-1.4c5.25-5.53,6.09-11.69,6.09-17.5V4c0-1.47,1-2.24,2.38-1.54l2.1,1a.89.89,0,0,0,.42.07h8.33a.72.72,0,0,0,.56-.28l.84-.84a1.57,1.57,0,0,1,2.38-.14l2.59,2.38c.63.63.7,1.68-.14,2l-.7.28c-.42.14-.7.35-.7.84V20.53c0,.42.07.42,1.19.42h3c1.05,0,2,0,2.59-.07.07,0,.21,0,.21-.07l.28-.14a1.21,1.21,0,0,0,.42-.42c.35-1.4.91-4.34,1.47-7.21V12.9a.67.67,0,0,1,1.33.07l.21,6.93c0,.35.21.56.56.77a1.64,1.64,0,0,1,.91,1.75c0,1.82-1.68,2.8-8,2.8h-3.85c-3.71,0-4.34-1.12-4.34-3.92V7.37c0-.63-.21-.84-.84-.84H580c-.63,0-.84.21-.84.84V9.75c0,5.67-.77,13.58-8.61,19.18l-.21.07a1.18,1.18,0,0,1-1.33-.14Zm9.66,4.55c-.77,0-1,.35-.77,1.12a38,38,0,0,0,7.14,12.32c.42.5.84.5,1.19,0A52.16,52.16,0,0,0,594,34.46c.35-.84.07-1.19-.77-1.19Z"/><path class="cls-1" d="M652.21,49.76a1,1,0,0,1,1.25-.2.89.89,0,0,1,.3,1.25c-4,7.6-11.45,12.55-19.71,12.55-6.75,0-10-3.3-10-11.85,0-5,.45-11.65.85-16.55.2-2.8.35-5.15.35-6.15,0-1.55-.25-1.8-1-2.2l-.15-.05a6.28,6.28,0,0,0-2.35-.85h-.1a.83.83,0,0,1-.8-.95.84.84,0,0,1,.85-1,11,11,0,0,1,2.45-.15c2.2.15,5.4,2.7,5.4,4.05a2.47,2.47,0,0,1-.4,1.25,5.29,5.29,0,0,0-.85,2.25,172.52,172.52,0,0,0-1.55,20c0,6.25,1.8,8.65,7.21,8.65a22.5,22.5,0,0,0,18.25-10Z"/><path class="cls-1" d="M673.15,53.61a10.38,10.38,0,0,0-.85,3.4,7,7,0,0,0,.5,2.2,7.09,7.09,0,0,1,.45,1.85c0,1-.5,1.55-1.35,1.55s-1.65-.85-2.3-1.85a25.72,25.72,0,0,1-2.8-11.2A37,37,0,0,1,668.7,38c.2-.6.35-1.2.5-1.75l.5-2a17.82,17.82,0,0,0,.75-3.6c0-1.45-.9-2.8-2.5-4.55-.35-.4-.3-.7,0-1.1a1.21,1.21,0,0,1,1.35-.1,18.88,18.88,0,0,1,1.6,1.2c1,.9,3.1,3.25,3.1,5.2a6.77,6.77,0,0,1-.8,2.6l-1.1,2.6-.2.5c-1.1,2.8-2.8,6.9-2.8,11.7,0,2.65.3,3.65.65,4.2s.65.7.9.2c1-1.5,3.65-7.45,4.85-10.25a.74.74,0,0,1,1-.45.38.38,0,0,1,.2.05.88.88,0,0,1,.35,1Zm22,6.1c-7.41,0-11.81-2.55-13.56-7.4a19.55,19.55,0,0,1-.8-4.2.7.7,0,0,1,.7-.85.76.76,0,0,1,.91.65,19.14,19.14,0,0,0,1.39,3.9c1.61,2.75,4.16,4.5,10.36,4.5a29.94,29.94,0,0,0,7.05-.65,8.87,8.87,0,0,1,1.5-.2c1.2,0,2.4.4,2.4,1.6C705.11,59.11,700.51,59.71,695.16,59.71Zm-12.31-27.6a.89.89,0,0,1,.61-1.3,26.59,26.59,0,0,1,11-2.35c3.6,0,5.4.3,7,.95a2.05,2.05,0,0,1,1.5,1.9c0,.6-.2,1.15-1.4,1.3a10.51,10.51,0,0,0-3.75,1c-2.15,1-5.2,2.8-7.45,4.2a1,1,0,0,1-1.45-.2c-.35-.45-.35-.9.09-1.2,2.36-1.6,5.91-4,6.66-4.75.25-.2.15-.3-2.55-.3a30.77,30.77,0,0,0-9,1.5c-.66.2-1.16,0-1.31-.65Z"/><path class="cls-1" d="M719.2,29.11a.75.75,0,0,1,.1-.9.71.71,0,0,1,1-.05c2.15,1.75,3.75,2.55,7.55,2.55a31.5,31.5,0,0,0,6-.85c.39-.1.55-.35.39-.8l-1.2-3.4a2.12,2.12,0,0,0-2.3-1.5c-.6,0-1.15,0-1.7.05a.75.75,0,0,1-.9-.65.85.85,0,0,1,.45-1h.11a6.92,6.92,0,0,1,3.29-.9c1.6,0,3.61.4,3.86,1.85l.25,1.45c.19,1.15.39,2.4.64,3.6.16.35.36.5.75.35a31.59,31.59,0,0,0,4-1.45c1.25-.55,2-.85,2.25-1a3.77,3.77,0,0,1,1.5-.65c1-.05,2.2.35,2.25,1.35a2.3,2.3,0,0,1-1,1.5l-.15.05a54.27,54.27,0,0,1-8.4,3.15c-.05.05-.1.05-.05.15l.05.15a39.31,39.31,0,0,0,2.3,5.6.52.52,0,0,0,.7.3,42.71,42.71,0,0,0,4.7-1.8,24.32,24.32,0,0,0,2.5-1.2,3.4,3.4,0,0,1,1.55-.6c1.2,0,2.15.35,2.1,1.35,0,.65-.15,1.1-1.1,1.7a37.78,37.78,0,0,1-7.9,3.25c-.5.15-.6.45-.3.85a34.11,34.11,0,0,0,4.8,6.25c.85.95,1.35,1.55,1.35,2.1,0,1.4-.8,3.75-2,3.75a3,3,0,0,1-2-.85h-.1l-1.6-.85a24.11,24.11,0,0,0-10-2.2c-5.41,0-9.46,2.15-9.46,5.35,0,4.6,6.51,5.1,11.46,5.1a30.66,30.66,0,0,0,4.4-.3,12.63,12.63,0,0,1,2.3-.2c1.4,0,2.35.65,2.35,1.65,0,1.45-2.65,2.35-9.46,2.35-6,0-13.5-1.9-13.5-8.1,0-4.1,4.1-8.15,12.5-8.15a40.73,40.73,0,0,1,10.31,1.45h.2a.38.38,0,0,1,.2.05c.1,0,.15,0,0-.1l-.5-.85c-.85-1.4-2.35-3.3-3.9-6.1a.62.62,0,0,0-.7-.3,53.46,53.46,0,0,1-11.51,1.25c-4.4,0-6.7-1.65-6.7-3.9,0-1.45.85-2.85,2.55-4.15a.93.93,0,0,1,1.25,0,.76.76,0,0,1,0,1.15c-1,1-1.55,1.75-1.55,2.35,0,1.1,1.5,1.7,4.95,1.7a37.42,37.42,0,0,0,9.35-1.15c.5-.15.66-.4.41-.85-.8-1.65-1.45-3.35-2.2-5.2a.59.59,0,0,0-.71-.35,32.28,32.28,0,0,1-7,1c-3.21,0-5.81-.25-8.76-4.3Z"/><path class="cls-1" d="M764.15,30.21h.1a.55.55,0,0,1,.8.3l.05,0a3.83,3.83,0,0,0,2.75,2c1.55,0,5.65-1.1,10.65-2.45,3.41-.95,6.91-1.8,10.16-2.55,5.85-1.35,9.45-1.9,11.2-1.9a8.69,8.69,0,0,1,3.4.45c1.2.6,1.45,1.05,1.45,1.8a1.45,1.45,0,0,1-1.6,1.4,13.12,13.12,0,0,1-1.35,0c-.75-.05-1.9-.1-3-.1-2.4,0-6,.4-8.4,1.8S783,37,783,47.16c0,5.2,2.2,7.55,4.35,8.8,3.05,1.7,6.7,1.65,9,1.65H797c1.15,0,2.8.8,2.8,2s-1.15,1.7-3.5,1.7c-2.6,0-8.06-.15-11.51-2.9-3-2.35-4.59-5.45-4.59-11,0-5,1-10.6,5-15.15,1.11-1.2.91-1.6-.7-1.15-4.9,1.45-10.3,3.2-12.95,4.3l-1,.4h-.1a4.14,4.14,0,0,1-1.95.75c-1.8,0-4.05-2.1-4.7-3.75a5.52,5.52,0,0,1-.3-1.85v-.3a.4.4,0,0,1,.35-.45Z"/><path class="cls-1" d="M854.06,58.66a36,36,0,0,0-2.75-2.7c-.3-.3-.6-.25-.85.2a9.42,9.42,0,0,1-8.45,5c-4,0-6.76-2-6.76-5.45,0-2.75,3.21-5.6,7.76-5.6a16.51,16.51,0,0,1,5.5.85c.45.15.7,0,.8-.4a29.51,29.51,0,0,0,.75-6.4c0-6-2.1-11.45-6.7-11.45-4,0-10.06,4-15.4,9.05a.5.5,0,0,0-.21.4c0,1-.1,2.15-.1,3.2,0,3.85.35,7.55.5,9.95l.1,1.4.1,1.35c0,.85.11,1.8.11,2.45,0,1.45-.61,3.45-2,3.45-.75,0-1.3-.65-1.5-1.8a18.31,18.31,0,0,0-.85-3,37.29,37.29,0,0,0-3.4-5.95c-.35-.5-.65-.5-1-.05-1,1.55-2,3-3,4.15-.6.75-.95,1.3-1.75,1.3s-1.3-.8-1.3-1.8a3.07,3.07,0,0,1,1.1-2.5A175.54,175.54,0,0,0,825.75,40a.71.71,0,0,0,.1-.3c.1-1,.2-2,.35-2.95s-.15-1-.9-.6c-1.45.75-2.65,1.4-3.75,2a5.31,5.31,0,0,0-1,.85c-.55.45-.8.85-1.4.85-1.3,0-3.35-1.8-3.9-3.45a6.43,6.43,0,0,1-.25-1.75.84.84,0,0,1,.6-.8h.1a.54.54,0,0,1,.8.35v.1c.6,1.15,1.2,1.75,2,1.75,1.1,0,5.85-2.2,8-3.3a.61.61,0,0,0,.3-.45l.1-.85c.3-2.55.61-4.4.65-5.65,0-.75-.25-.95-1-1.3l-.1-.05L824.5,24a.88.88,0,0,1-.8-1V23a.74.74,0,0,1,.7-.9h.1a10.51,10.51,0,0,1,2.15-.25c2,0,4.45,2.2,4.45,3.65a3.2,3.2,0,0,1-.35,1.5c-.2.55-.45,1.2-.7,2.05-.2.65-.45,1.55-.8,2.95a.58.58,0,0,0,.3.65,3,3,0,0,1,1.25,1.8c0,.6-.3.9-.75,1.45l-.45.55-1.45,1.9a.38.38,0,0,0-.1.25c0,.1,0,.1,0,0,3.3-3,10.45-8.3,15.66-8.3,7,0,9.3,7.85,9.3,13.65a34.16,34.16,0,0,1-1,8.1.5.5,0,0,0,.25.65,30,30,0,0,1,3.7,2.9,5.36,5.36,0,0,1,1.8,3.3c0,1-.4,1.8-1.2,1.8h-.1c-.4,0-.9-.5-1.9-1.5ZM825.5,46.06c0-.9-.15-1-.65-.2-1.05,1.6-2.2,3.25-3.25,4.8a.48.48,0,0,0,0,.7,5.55,5.55,0,0,1,.6.8c1.35,1.75,2.55,3.55,3.15,4.3.25.35.3.35.3-.05,0-.95,0-2.25,0-3.8s-.1-3.25-.1-5Zm16,12.1a6.74,6.74,0,0,0,6.4-3.75.48.48,0,0,0-.2-.75,12.12,12.12,0,0,0-5.05-1.15c-3.41,0-5.45,1.35-5.45,3.05C837.21,57.06,838.66,58.16,841.51,58.16Z"/><path class="cls-1" d="M871.33,44.26a10.19,10.19,0,1,1-10,10.16A10.12,10.12,0,0,1,871.33,44.26ZM864,54.42a7.32,7.32,0,0,0,14.63,0,7.32,7.32,0,0,0-14.63,0Z"/></g></g></svg>