<svg xmlns="http://www.w3.org/2000/svg" viewBox="0 0 473.16 61.44"><defs><style>.cls-1{fill:#fff;}</style></defs><title>アセット 8</title><g id="レイヤー_2" data-name="レイヤー 2"><g id="レイヤー_4" data-name="レイヤー 4"><path class="cls-1" d="M37.88,57.12c.43-1.55.84-3.12,1.24-4.72s.82-3.17,1.24-4.72c.16-.64.32-1.29.48-2a10.93,10.93,0,0,1,.64-1.88,1,1,0,0,1,1.12-.64c.54,0,1,.08,1.44.08a.71.71,0,0,1,.8.8V59.52a.71.71,0,0,1-.8.8L.52,59.76c-.37,0-.54-.16-.52-.48a.9.9,0,0,1,.44-.72,3.12,3.12,0,0,1,1.32-.36l2-.24,1.92-.24c.59-.08.94-.2,1-.36a1.23,1.23,0,0,0,.16-.56V4.56a.79.79,0,0,0-.8-.88,25.34,25.34,0,0,0-2.92-.2,6.45,6.45,0,0,1-2.84-.6A.56.56,0,0,1,0,2.2c.06-.35.24-.52.56-.52H27.24c.38,0,.55.16.52.48a.86.86,0,0,1-.44.72,3.67,3.67,0,0,1-1.16.32c-.61.11-1.29.2-2,.28s-1.46.15-2.16.2-1.14.08-1.36.08A.84.84,0,0,0,20,4a.88.88,0,0,0-.28.6V57.12a.69.69,0,0,0,.28.64,6.3,6.3,0,0,0,.68.32,5.35,5.35,0,0,0,1.28.08c.75,0,1.66,0,2.72-.08S26.92,58,28.2,58s2.51-.07,3.68-.12L35,57.72c.91,0,1.55,0,1.92,0A1.15,1.15,0,0,0,37.88,57.12Z"/><path class="cls-1" d="M52.6,24.08a19.4,19.4,0,0,1,2.48-9.68,26.57,26.57,0,0,1,6.4-7.6,30.39,30.39,0,0,1,8.84-5A28.38,28.38,0,0,1,80.12,0,25.31,25.31,0,0,1,98.64,7.52a28,28,0,0,1,5.52,8,36.92,36.92,0,0,1,3,9.52,36.26,36.26,0,0,1,.28,10,34.28,34.28,0,0,1-2.48,9.64A29.15,29.15,0,0,1,99.64,53a25.17,25.17,0,0,1-8.16,6,22.55,22.55,0,0,1-5.72,1.92,31.85,31.85,0,0,1-6,.56,27.2,27.2,0,0,1-9.68-1.84,30.31,30.31,0,0,1-8.76-5.08A26.86,26.86,0,0,1,55,46.88a19.28,19.28,0,0,1-2.44-9.52Zm41.6-2.16a26.79,26.79,0,0,0-.88-6.6,23.71,23.71,0,0,0-2.64-6.4A15.85,15.85,0,0,0,86.2,4.08,11.83,11.83,0,0,0,74.08,3.6a12.92,12.92,0,0,0-4,3.8,19.46,19.46,0,0,0-2.52,5.4,50.18,50.18,0,0,0-2.08,12.44c-.08,2.05-.12,3.88-.12,5.48s0,3.61.16,5.72a57.7,57.7,0,0,0,.68,6.36,44.81,44.81,0,0,0,1.44,6.12A18.29,18.29,0,0,0,70.12,54a14,14,0,0,0,4.12,3.92,11.74,11.74,0,0,0,11.92-.56,16.4,16.4,0,0,0,4.48-4.88,23.51,23.51,0,0,0,2.68-6.4,26.3,26.3,0,0,0,.88-6.56Z"/><path class="cls-1" d="M123.56,57.6c.11.11.51.13,1.2.08a21.65,21.65,0,0,1,2.32,0,10.76,10.76,0,0,1,2.36.32A1.67,1.67,0,0,1,130.76,59c.16.48,0,.72-.64.72H113.88c-.59,0-.8-.24-.64-.72a1.27,1.27,0,0,1,.92-.72,9.81,9.81,0,0,1,1.72-.36c.64-.08,1.27-.13,1.88-.16a5.45,5.45,0,0,0,1.4-.2,1.7,1.7,0,0,0,.92-.56,5.65,5.65,0,0,0,.44-1q3.36-10.72,6.8-21.24T134.2,13.6a11.5,11.5,0,0,0,.36-1.6,4.43,4.43,0,0,1,.52-1.52c.27-.53.51-.63.72-.28a2.91,2.91,0,0,1,.4.92A102.11,102.11,0,0,1,133.48,21q-1.6,4.84-3,9.8L130,32.44c-.21.72-.44,1.48-.68,2.28s-.44,1.57-.6,2.32a8.86,8.86,0,0,0-.24,1.6,1.39,1.39,0,0,0,.12.68c.08.13.31.2.68.2h16.48a.86.86,0,0,0,.64-.24V39.2a.44.44,0,0,0,.08-.56c-.27-.75-.52-1.47-.76-2.16s-.49-1.41-.76-2.16a48.59,48.59,0,0,1-1.44-5.48q-.55-2.76-1.28-5.48c-.37-1.39-.75-2.75-1.12-4.08s-.77-2.69-1.2-4.08c-.32-1-.67-2-1-3a14.36,14.36,0,0,0-1.44-2.88,11.8,11.8,0,0,0-.68-1,2.74,2.74,0,0,1-.44-1.08c-.05.11-.05,0,0-.16a2.34,2.34,0,0,0,.08-.48l.32-1c.21-.64.41-1.29.6-2A13,13,0,0,1,138,1.68c.11-.21.19-.36.24-.44s.21-.12.48-.12H145q.41,0,.48.12c.05.08.13.23.24.44l18.48,54.4a4,4,0,0,0,.88,1.36,1.46,1.46,0,0,0,1,.24c.51,0,1.07,0,1.68.08a10,10,0,0,1,1.8.32,2.41,2.41,0,0,1,1.36.88.39.39,0,0,1,0,.56.86.86,0,0,1-.64.24h-25c-.53,0-.75-.16-.64-.48a1.28,1.28,0,0,1,.56-.72,3,3,0,0,1,1.08-.28l1.8-.24c.64-.08,1.25-.15,1.84-.2s1-.11,1.36-.16a2.65,2.65,0,0,0,.48-.16q.16-.08.24-.48v-.72a3.68,3.68,0,0,0-.48-1.44,10,10,0,0,1-.64-1.52q-.31-.8-.84-2.64L149,46.92c-.37-1.31-.76-2.49-1.16-3.56a6.49,6.49,0,0,0-1-2,.77.77,0,0,0-.56-.24H128.84a1.33,1.33,0,0,0-.88.48,3.6,3.6,0,0,0-.64.8,4,4,0,0,0-.4,1.28,9.6,9.6,0,0,1-.24,1.28q-.41,1.6-.84,3.12c-.29,1-.6,2.05-.92,3.12,0,.16-.17.49-.36,1l-.6,1.6c-.21.56-.4,1.07-.56,1.52a5.52,5.52,0,0,0-.24.76,4.58,4.58,0,0,0,0,.64,4.58,4.58,0,0,1,0,.64Z"/><path class="cls-1" d="M199.72,59.76a1.12,1.12,0,0,1-1-.52c-.21-.35.13-.68,1-1a4.13,4.13,0,0,1,1.4-.16,5.77,5.77,0,0,0,1.56-.16,18.4,18.4,0,0,0,3.16-.76,12.87,12.87,0,0,0,2.92-1.4,17.24,17.24,0,0,0,5.32-5,25.57,25.57,0,0,0,3.2-6.4,35.28,35.28,0,0,0,1.6-7.16,62.32,62.32,0,0,0,.44-7.24,49.6,49.6,0,0,0-1-10.32,23.8,23.8,0,0,0-3.52-8.52,17.78,17.78,0,0,0-6.6-5.8A22.18,22.18,0,0,0,197.8,3.2a2.64,2.64,0,0,0-1.08.2c-.29.13-.44.44-.44.92V56.56a6.4,6.4,0,0,0,.08.84,4.53,4.53,0,0,1,0,1,1.83,1.83,0,0,1-.28.88.89.89,0,0,1-.8.36l-18.4.08a1.25,1.25,0,0,1-.56-.12c-.16-.08-.16-.25,0-.52a2,2,0,0,1,1.12-.84,8.26,8.26,0,0,1,1.76-.4c.64-.08,1.27-.13,1.88-.16s1.11,0,1.48,0a.78.78,0,0,0,.88-.88V4.56a.79.79,0,0,0-.8-.88c-.32-.05-.76-.11-1.32-.16l-1.68-.12c-.56,0-1.11-.08-1.64-.16a2.6,2.6,0,0,1-1.12-.36.7.7,0,0,1-.36-.72q0-.48.6-.48h29.28A29.66,29.66,0,0,1,212,2.2a17.58,17.58,0,0,1,5.24,1.88,26.06,26.06,0,0,1,9.76,8.8,31,31,0,0,1,4.6,11.64A32.79,32.79,0,0,1,231.36,37a31.3,31.3,0,0,1-4.76,11.32,27.1,27.1,0,0,1-9,8.24,25.1,25.1,0,0,1-12.8,3.2Z"/><path class="cls-1" d="M240.84,59.76a1.25,1.25,0,0,1-.56-.12c-.16-.08-.16-.25,0-.52a2.14,2.14,0,0,1,1.12-.88,7.23,7.23,0,0,1,1.72-.44,14.21,14.21,0,0,1,1.84-.12h1.56a.78.78,0,0,0,.88-.88V4.56a.79.79,0,0,0-.8-.88c-.37-.05-.83-.09-1.36-.12s-1.07-.07-1.6-.12-1-.12-1.56-.2a4.27,4.27,0,0,1-1.24-.36.65.65,0,0,1-.4-.68c0-.35.21-.52.64-.52h25.6c.37,0,.55.17.52.52a.72.72,0,0,1-.44.68,7.53,7.53,0,0,1-2.8.6,20.08,20.08,0,0,0-2.88.28c-.59.11-.88.4-.88.88V56.4a1.6,1.6,0,0,0,.32.8.77.77,0,0,0,.72.48h1.48a14.21,14.21,0,0,1,1.84.12,7.23,7.23,0,0,1,1.72.44,2.14,2.14,0,0,1,1.12.88c.16.27.16.44,0,.52a1.25,1.25,0,0,1-.56.12Z"/><path class="cls-1" d="M283.64,8.64a2.53,2.53,0,0,0-.28,1.56,23.25,23.25,0,0,0,.24,2.48c.13.88.27,1.73.4,2.56a13.35,13.35,0,0,1,.2,1.88v39a.76.76,0,0,0,.32.64,1.75,1.75,0,0,0,.64.32,1.5,1.5,0,0,0,.76.12,2.48,2.48,0,0,1,.76,0c.32,0,.89.12,1.72.2s1.69.19,2.6.32,1.73.27,2.48.4a6.14,6.14,0,0,1,1.44.36,1.11,1.11,0,0,1,.52.72q.12.48-.6.48H274.92c-.59,0-.8-.24-.64-.72a1.47,1.47,0,0,1,1-1.12,7.2,7.2,0,0,1,1.76-.44,15.75,15.75,0,0,1,2-.12,5.77,5.77,0,0,0,1.56-.16.72.72,0,0,0,.72-.8q0-6.88.24-13.84c0-1.07.11-2.16.16-3.28s.08-2.21.08-3.28V19.84c0-1.49,0-3,0-4.44s0-3,0-4.44c0-.64,0-1.31.08-2a8.28,8.28,0,0,0-.08-2,3.14,3.14,0,0,0-.56-1.68,3.46,3.46,0,0,0-1.16-1,7.77,7.77,0,0,0-1.52-.6c-.56-.16-1.11-.29-1.64-.4a4.29,4.29,0,0,0-.8-.2,4.29,4.29,0,0,1-.8-.2,1,1,0,0,1-.48-.72c0-.32.13-.48.56-.48h17.28a1.22,1.22,0,0,1,.76.4,6.71,6.71,0,0,1,.84,1c.27.37.53.73.8,1.08s.45.6.56.76q5.92,8.16,11.8,16.2t11.64,16.28a12.25,12.25,0,0,1,1.16,2.28,15.73,15.73,0,0,0,1.08,2.28,4.74,4.74,0,0,0,1.16,1.24c.56.45,1.13.91,1.72,1.36a10.92,10.92,0,0,1,1.52,1.4,2.17,2.17,0,0,1,.64,1.44L326,59.52c0,.32-.07.52-.2.6a1.17,1.17,0,0,1-.6.12l-1,0-1.64-.12-1.6-.16a2.26,2.26,0,0,1-.8-.16,1.64,1.64,0,0,1-.8-.64,6.6,6.6,0,0,0-.64-.88q-6.56-9.19-13-18.36L292.92,21.44q-1.37-2-2.68-4t-2.68-4c-.43-.64-.83-1.29-1.2-2A10.2,10.2,0,0,0,285,9.68a6.41,6.41,0,0,0-.56-.64,1.37,1.37,0,0,0-.72-.4Zm42.72,32.64a.68.68,0,0,1-.12.76.87.87,0,0,1-.64.28,1.11,1.11,0,0,1-.72-.32,1,1,0,0,1-.28-1,6.37,6.37,0,0,0-.08-1.12,9.06,9.06,0,0,1-.08-2.08,14.44,14.44,0,0,0,0-2.08c-.11-3.57-.17-7.12-.2-10.64s-.09-7.07-.2-10.64c0-.53,0-1.07-.08-1.6s-.08-1.07-.08-1.6c0-1.07,0-2.13.08-3.2a21.38,21.38,0,0,0-.08-3.2c-.05-.32-.49-.59-1.32-.8a23.07,23.07,0,0,0-2.8-.52c-1-.13-2-.23-3-.28s-1.6-.08-1.92-.08L314,3.12c-.48-.05-.72-.19-.72-.4V2c0-.21.19-.32.56-.32h19.92c.48,0,.69.24.64.72s-.53.69-1.28.8a17.13,17.13,0,0,1-2.48.16,16.28,16.28,0,0,0-2.44.16c-.72.11-1.08.37-1.08.8Z"/><path class="cls-1" d="M389.88,16.88a.71.71,0,0,1-.8.8h-3q-.56,0-.6-.36c0-.24-.07-.49-.12-.76a22.69,22.69,0,0,0-1-3.68c-.43-1.23-.8-2.45-1.12-3.68-.21-.8-.43-1.61-.64-2.44a19.32,19.32,0,0,0-.8-2.44,5.18,5.18,0,0,0-.44-.84,3.89,3.89,0,0,0-.68-.68A4.2,4.2,0,0,0,378,2c-1,.08-2,.12-3,.12a18.4,18.4,0,0,0-9.28,2.32,17.62,17.62,0,0,0-6.64,6.88,33.47,33.47,0,0,0-3.32,9.12,49,49,0,0,0-1.08,10.28A46.5,46.5,0,0,0,355.8,41a32.76,32.76,0,0,0,3.44,9.08,17.52,17.52,0,0,0,7,7,19.71,19.71,0,0,0,9.6,2.4c.48,0,1.12,0,1.92,0a3.74,3.74,0,0,0,1.84-.44.34.34,0,0,0,.2-.24,1.17,1.17,0,0,0,0-.32V35.6a.77.77,0,0,0-.24-.56,4.14,4.14,0,0,0-.48-.56,1,1,0,0,0-.72-.32c-.32,0-.8,0-1.44-.08s-1.31-.12-2-.2-1.35-.17-2-.28a7.44,7.44,0,0,1-1.32-.32.69.69,0,0,1-.4-.72c0-.32.19-.48.56-.48h24.72a1.25,1.25,0,0,1,.56.12c.16.08.16.25,0,.52a2.12,2.12,0,0,1-1.36.92c-.59.13-1.17.24-1.76.32a13.55,13.55,0,0,0-1.52.28c-.43.11-.64.35-.64.72V56.08a.78.78,0,0,1-.4.72,13.18,13.18,0,0,1-2.56,1.32,28.48,28.48,0,0,0-2.64,1.16,20.62,20.62,0,0,1-6.52,1.8,65,65,0,0,1-6.84.36,34,34,0,0,1-12.56-2.24,28,28,0,0,1-16.12-16,33.11,33.11,0,0,1-2.28-12.52A33.32,33.32,0,0,1,344.2,18a27.93,27.93,0,0,1,6.48-9.68,28.43,28.43,0,0,1,10-6.16A36.32,36.32,0,0,1,373.4,0c.59,0,1.77.09,3.56.28s3.64.45,5.56.8a47,47,0,0,1,5.12,1.2c1.49.45,2.24,1,2.24,1.48Z"/><path class="cls-1" d="M405.8,54.72a6.72,6.72,0,0,1,1-3.72,6.41,6.41,0,0,1,2.4-2.24,6.78,6.78,0,0,1,6.24,0A6.41,6.41,0,0,1,417.8,51a6.72,6.72,0,0,1,1,3.72,8.85,8.85,0,0,1-.36,2.56,4.36,4.36,0,0,1-1.4,2.08,5.82,5.82,0,0,1-2.16,1.2,8.55,8.55,0,0,1-2.6.4,8.16,8.16,0,0,1-2.56-.4,5.8,5.8,0,0,1-2.12-1.2,4.36,4.36,0,0,1-1.4-2.08A8.85,8.85,0,0,1,405.8,54.72Z"/><path class="cls-1" d="M433,54.72A6.72,6.72,0,0,1,434,51a6.41,6.41,0,0,1,2.4-2.24,6.78,6.78,0,0,1,6.24,0A6.41,6.41,0,0,1,445,51a6.72,6.72,0,0,1,1,3.72,8.85,8.85,0,0,1-.36,2.56,4.36,4.36,0,0,1-1.4,2.08,5.82,5.82,0,0,1-2.16,1.2,8.6,8.6,0,0,1-2.6.4,8.16,8.16,0,0,1-2.56-.4,5.72,5.72,0,0,1-2.12-1.2,4.29,4.29,0,0,1-1.4-2.08A8.85,8.85,0,0,1,433,54.72Z"/><path class="cls-1" d="M460.2,54.72a6.72,6.72,0,0,1,1-3.72,6.41,6.41,0,0,1,2.4-2.24,6.78,6.78,0,0,1,6.24,0A6.41,6.41,0,0,1,472.2,51a6.72,6.72,0,0,1,1,3.72,8.85,8.85,0,0,1-.36,2.56,4.36,4.36,0,0,1-1.4,2.08,5.82,5.82,0,0,1-2.16,1.2,8.6,8.6,0,0,1-2.6.4,8.16,8.16,0,0,1-2.56-.4,5.72,5.72,0,0,1-2.12-1.2,4.29,4.29,0,0,1-1.4-2.08A8.85,8.85,0,0,1,460.2,54.72Z"/></g></g></svg>