<svg xmlns="http://www.w3.org/2000/svg" viewBox="0 0 529.41 1215.54"><defs><style>.cls-1{fill:#fff;}</style></defs><title>eriri-2</title><g id="レイヤー_2" data-name="レイヤー 2"><g id="レイヤー_4" data-name="レイヤー 4"><path class="cls-1" d="M392,79l1.45-1.12.77-.56h0a6.41,6.41,0,0,1,3.17-1.09l.29,0a6.6,6.6,0,0,1,.77,0h0a4.51,4.51,0,0,1,2.7,1h0a21.12,21.12,0,0,1,4.35,4.89l.45.7,1.28.19a28.17,28.17,0,0,1,6.37,1.71l.18.07a33.8,33.8,0,0,1,3.34,1.56l6.34,3.4c.78.42,1.54.87,2.28,1.34l4.57,3a53.83,53.83,0,0,1,7,5.35l.74.67a2.52,2.52,0,0,1,.73,1.26h0a2.51,2.51,0,0,1-.11,1.46l0,.09a26,26,0,0,1-2.82,5.38l-1.85,2.7,3.16,1.66,7.69,3.42q1.28.57,2.58,1l10.9,4,11.12,4.23,6,2.12c1,.36,2,.76,3,1.2l4.48,2,4,1.86a28.93,28.93,0,0,1,4.95,2.91l.62.45a27.47,27.47,0,0,1,4.7,4.38l.19.22a11.72,11.72,0,0,1,1.61,2.46h0a27.76,27.76,0,0,1,1.87,5l.72,2.65-1.91,2.65L497.83,156l0-.59a23.93,23.93,0,0,0-1.14-5.81h0a21.18,21.18,0,0,0-1.17-2.88l-.25-.51a37.6,37.6,0,0,0-3.66-6l-1.38-1.83-.43-.49a21.91,21.91,0,0,0-5.3-4.33h0a35.84,35.84,0,0,0-4.11-2.06l-3.09-1.31c-1.23-.52-2.43-1.09-3.62-1.71l-2.41-1.26a55.65,55.65,0,0,0-6.42-2.84l-1.64-.61c-.91-.33-1.83-.65-2.76-.93l-7.24-2.23-11-3.49-10-3.56-.38.3a31.56,31.56,0,0,0-3.19,2.93h0a10.32,10.32,0,0,1-2.75-.54l-1.07-.37h0a27.33,27.33,0,0,1-4.61-3.48l-3.11-2.91,5,7.22,1,1.36q1.89,2.53,4,4.89l2.34,2.58c.73.81,1.44,1.64,2.11,2.5l3.29,4.17c.84,1.07,1.64,2.16,2.4,3.28l5.42,8,5.3,8.66a60.43,60.43,0,0,1,3.18,5.94l2,4.24,1,1.9a47.81,47.81,0,0,1,2.33,5l1.88,4.69c.55,1.37,1,2.77,1.47,4.19l.43,1.43a49.35,49.35,0,0,1,1.43,6.26h0a48.24,48.24,0,0,1,.57,9.3h0a37.35,37.35,0,0,1-.47,4.72h0a48.54,48.54,0,0,1-2.48,9.34l-.89,2.38a41.46,41.46,0,0,1-4.21,8.26l-2.74,4.16.19,2.54a38.34,38.34,0,0,1,0,5.87l-.36,4.7,3.9,5.07,1.61.78a5.76,5.76,0,0,1,2.35,2.08h0a10.89,10.89,0,0,1,1.64,4.25h0a17.65,17.65,0,0,1,.07,4.87l-.18,1.4A11.68,11.68,0,0,1,460,258l-2,5.39a43.52,43.52,0,0,1-3.43,7l-.13.2c-.6,1-1.25,2-1.93,2.93l-2.84,4a63.88,63.88,0,0,1-6.7,7.9l-.28.28a50.72,50.72,0,0,1-5,4.38l-4.16,3.2a42,42,0,0,1-3.61,2.48l-3.06,1.89a55.6,55.6,0,0,1-9.7,4.77L413.2,304q-1.79.68-3.6,1.23l-6.9,2.1,4.4,8.47,3.82,8.13,1.13,2.45a52.23,52.23,0,0,1,2.9,8l1.28,4.7.41,1.45a30.31,30.31,0,0,1,1.09,8v2.47l1.24,6.39,1.13,6.84a30.16,30.16,0,0,1,.4,4.45v.31a25.1,25.1,0,0,1-.35,4.66l-.1.56a6.45,6.45,0,0,1-1.18,2.77h0a8.7,8.7,0,0,1-3.09,2.59h0a4.23,4.23,0,0,1-1.35.41h0a9,9,0,0,1-3.51-.22l-.51-.14a12.76,12.76,0,0,1-2.85-1.14l-3.95-2.16h0a53.41,53.41,0,0,1-8.92-8.86h0a24.92,24.92,0,0,0-1.89-2.09l-2.1-2a32.76,32.76,0,0,0-6.91-5.14h0c-1-.53-1.93-1-2.92-1.5l-6.23-2.95-2.83,10.54-2,7.61a49.86,49.86,0,0,0-1.49,9.16l-1.67,24.57-2,18.71,3.69,1.82,1.43.73a25.11,25.11,0,0,1,5.26,3.65h0a13.56,13.56,0,0,1,2.06,2.35h0a25.45,25.45,0,0,1,3.14,6.17l.27.79a7.92,7.92,0,0,1,.36,1.53h0a30.41,30.41,0,0,1-.5,10.29h0l1.33-1.25a24.71,24.71,0,0,0,2-2.19l.06-.08a33.33,33.33,0,0,0,3.22-4.78l.78-1.39a26.66,26.66,0,0,0,1.37-2.85l.86-2.1a35.29,35.29,0,0,0,2-6.91h0a27.35,27.35,0,0,0,.44-5.42l0-1.24a35.07,35.07,0,0,0-.57-5.7l-.08-.43a31.54,31.54,0,0,0-1.38-5.06l-.35-1c-.19-.52-.4-1.05-.62-1.56l-1.42-3.32,1.27.42a25.46,25.46,0,0,1,5.12,2.41h0a14.32,14.32,0,0,1,2.89,2.37h0a29.86,29.86,0,0,1,3.95,5.34l.18.3a19,19,0,0,1,1.89,4.48l.16.6a21.72,21.72,0,0,1,.78,5.32h0a36.34,36.34,0,0,1-.75,8.06h0a28.41,28.41,0,0,1-2.24,6.52h0a31.22,31.22,0,0,1-4,6.18h0a14.88,14.88,0,0,1-2.72,2.54h0a25.56,25.56,0,0,1-5.68,3.13l-2.46,1c-1.39.56-2.81,1.05-4.25,1.47l-2.88.84-1.19,1.53a11.53,11.53,0,0,1-3.44,3h0l-1,1.75-3.15,5.37a36.92,36.92,0,0,1-3.68,5.19l-.55.65.68,2.85a86.32,86.32,0,0,0,3,9.83l.56,1.49,3.19,7.62c.51,1.23,1.08,2.44,1.69,3.62l1.66,3.22a7.93,7.93,0,0,1,.66,1.78h0a10.2,10.2,0,0,1,.13,3.93l-.62,3.8.64,2.44a34.53,34.53,0,0,1,.79,3.9l.86,6,2.6,5c.32.62.62,1.25.89,1.89l2.29,5.38a74.46,74.46,0,0,0,3.95,7.89l4.9,8.46L401.5,567l1.82,3.56h0a10.75,10.75,0,0,1,0,3.35l-.54,3.49h0a24.15,24.15,0,0,1-.14,4.42l-.13,1,2.12,4.19c.42.83.81,1.69,1.17,2.55l2.94,7.06c.32.79.62,1.58.88,2.39l3.27,9.91c.29.87.54,1.75.76,2.63l1.82,7.33h0a28.21,28.21,0,0,1,1.21,2.62l2,5,1.1,2.78a5.94,5.94,0,0,1,.41,2.53h0l-.82.35-1.73.33a18.43,18.43,0,0,0-2.3.58l-2.25.73a18.46,18.46,0,0,0-1.75.66l-4.72,2,0,.61a26.93,26.93,0,0,1-.7,5h0a19.11,19.11,0,0,1-1.53,4.21h0a25.32,25.32,0,0,0-2.48,7.82h0c-.15,1-.35,2-.59,3.05l-1.5,6.28-3,10.68,3.58,2.41,4.05,2.9a11.19,11.19,0,0,1,1.91,1.73h0a11,11,0,0,1,1.66,2.55l3.07,6.48c.46,1,.88,1.93,1.26,2.92l3.17,8.15,2.55,5.74c.18.39.34.78.48,1.18l.15.39A5.27,5.27,0,0,1,419,711l-.12,1.06a6.89,6.89,0,0,1-.36,1.54l-.94,2.65.81,1.15a12.22,12.22,0,0,1,.66,1l.43.76a5,5,0,0,1,.59,1.59l.27,1.45a1.13,1.13,0,0,1-.06.63h0a3.15,3.15,0,0,1-1.06,1.41h0a2.39,2.39,0,0,1-1.29.47l-1.06.08a2.35,2.35,0,0,1-.53,0h0a19.12,19.12,0,0,1-3.57-.85l-.1,0-.17.16c-.44.41-.89.8-1.35,1.18l-1.06.86a21.59,21.59,0,0,1-1.81,1.33l-.77.5a4,4,0,0,1-1.46.58h0a2.72,2.72,0,0,1-1.57-.18l-.62-.28a10.26,10.26,0,0,1-1.19-.61l-.74-.45a9.08,9.08,0,0,1-1-.72L399.46,725l-.25.2a6.18,6.18,0,0,1-1.36.79h0a2.56,2.56,0,0,1-.9.2h0a3,3,0,0,1-1.42-.3h0a33.4,33.4,0,0,1-4.74-2.84l-2-1.4-.62.33c-.63.33-1.26.64-1.9.94l-.48.21a3.29,3.29,0,0,1-1.67.29h0a3.27,3.27,0,0,1-1.45-.47l-.69-.41a5.24,5.24,0,0,1-.81-.59l-2.42-2.16q-.79-.72-1.56-1.47l-2.44-2.45-2-1.93c-.29-.27-.58-.53-.89-.77h0a32.22,32.22,0,0,1-3.66-3.54l-.79-.9-6.85,4.81-11,8.31L343.73,726l-.63-.48-1.12-.34-.59,2.79c-.16.73-.34,1.45-.55,2.16l-1.19,4-2.82-1.05c-.75-.27-1.48-.57-2.2-.9l-1.3-.58L334.5,729l2.23-5.06.83-1.78a26.24,26.24,0,0,1,2-3.66h0l-.24-.82-.05-2.09,1.95-.56V711l.21-5.72-6,1.52c-2,.51-4,1.12-6,1.82l-5.2,1.85c-1.57.56-3.12,1.2-4.64,1.9l-4.16,1.92a66.12,66.12,0,0,1-6.62,2.64l-2.27.77a35.72,35.72,0,0,1-3.54,1l-3.42.79a64.07,64.07,0,0,1-8.61,1.39h0a73.37,73.37,0,0,1-11.29.18l-3.06-.2-5.13,4.47L256.22,739l-19,16.06-13,14-6.94,7.13,1.67-.52a47.6,47.6,0,0,1,5.88-1.45l1.78-.33c1-.18,2-.32,3-.42l1.87-.18a44.6,44.6,0,0,1,6.74-.15l2.18.12q1.38.07,2.76.24l5.16.59c1.66.2,3.31.46,4.94.8l2.06.42a68.26,68.26,0,0,1,8.32,2.29l4.19,1.46a61.73,61.73,0,0,1,6.3,2.59l7.28,3.47,10.25,5q3.35,1.64,6.52,3.57l20,12.23,13.45,9a63.64,63.64,0,0,0,5.8,3.44l17.37,9.1c2.26,1.19,4.57,2.3,6.91,3.33l19.11,8.43,15.68,6.37,4.58,1.72a16.11,16.11,0,0,0,5.66,1h0c.46,0,.91,0,1.37,0l1.38-.09a8.88,8.88,0,0,0,4.4-1.5l.17-.12.24-3.24,1.09-.74c.63-.43,1.27-.82,1.94-1.19l.35-.19a19.64,19.64,0,0,1,2.07-1l1.63-.66a17.09,17.09,0,0,0,2.15-1l1.67-1c.35-.21.72-.4,1.1-.58l5-2.36c.52-.25,1.06-.48,1.6-.69l2.41-.94a23.79,23.79,0,0,1,4-1.17l.66-.13a21,21,0,0,1,2.85-.36l3.1-.16.43-.54a2.78,2.78,0,0,1,.49-.48h0a5.87,5.87,0,0,1,2.08-1l8.35-1.92,2.78-.6a9.07,9.07,0,0,1,3.52,0h0a5.47,5.47,0,0,1,1.57.57l1.52.82a20.29,20.29,0,0,1,3.76,2.69l2.76,2.53a33.12,33.12,0,0,1,3.82,4.12l1.64,2.1c.45.58.88,1.17,1.29,1.78l2.6,3.86a38.71,38.71,0,0,1,2.66,4.58l1.83,3.7-1.53,2.18a20.7,20.7,0,0,0-1.35,2.21l-2,3.72,2,2.91,5.32,6.95a53.9,53.9,0,0,0,3.88,4.53l4.13,4.29a51,51,0,0,0,4,3.75l4.85,4.06a32.88,32.88,0,0,1,2.79,2.62l4.3,4.51c.52.55,1,1.12,1.52,1.7l.35.41a36.67,36.67,0,0,1,4.3,6.32l0,.06a39.94,39.94,0,0,1,2.7,6.31l2.73,8.35c.33,1,.62,2,.86,3l1.68,7a36.47,36.47,0,0,1,.87,5.29l.74,8c.1,1.13.15,2.25.15,3.38v2.76a38.11,38.11,0,0,1-.49,6.13l-.3,1.82a32.13,32.13,0,0,1-.68,3.21l-.78,3a33.43,33.43,0,0,1-2.25,6.11l-1.08,2.25a14.21,14.21,0,0,1-1.82,2.85h0a2.83,2.83,0,0,1-2,1l-.5,0a4.75,4.75,0,0,1-1.55-.14h0a9.42,9.42,0,0,0-2.89-.3l-1.63.07-.62,0-3.17.33a13.26,13.26,0,0,1-2.44,0h0a5.48,5.48,0,0,1-2.78-1l-1-.75a13.79,13.79,0,0,1-1.38-1.15l-2.21-2.13c-1.17-1.14-2.29-2.32-3.36-3.56l-4.8-5.52-2.75-3.38a72.43,72.43,0,0,1-4.69-6.47l-2.7-4.18-4.37-7.21-2.26-4,0,0h0c-1-.81-2-1.64-3-2.52l-3.83-3.47-5.68-5L459,921,456.05,920l-3.21-1.1a26.23,26.23,0,0,1-5.15-2.4h0a31.19,31.19,0,0,1-2.8-1.89l-.27-.2.16-.89,1.18-1.28-9.91-5.62q-4-2.25-8.05-4.21l-14.71-7.08c-3.79-1.83-7.67-3.49-11.61-5l-18.23-6.89q-5.2-2-10.55-3.52l-14.1-4.12q-6.68-1.95-13.5-3.29l-21.37-4.21-33.52-6-30.05-4.85-23.8-2.88-18.81-1.29,8.92,7.78,11.55,10.53q3.21,2.94,6.2,6.09l6.54,6.88a121.72,121.72,0,0,1,10.56,12.77L269,907.76l8.63,12.61q3.69,5.39,6.87,11.11l12.4,22.34,18.65,31.31,5.21,8.8a169.51,169.51,0,0,0,15.3,21.75l4.88,5.89q3.81,4.61,7.92,8.93l4.12,4.34a63.59,63.59,0,0,0,8.54,7.52h0a30,30,0,0,0,9.83,4.73h0l1.13-1.46,6.82-.48,1-.31a23.15,23.15,0,0,1,6.55-1l6.16-.09a41.42,41.42,0,0,1,5,.24l2.25.24a12.55,12.55,0,0,1,2.49.53l3.81,1.23h3.64a48.69,48.69,0,0,1,7.91.64l4,.66.48,1a49.55,49.55,0,0,1,3,7.42l1,3.09a38,38,0,0,1,1,4l2.2,11.58,3.09,21.89-9.57,3.9.34,3.24a82.41,82.41,0,0,0,3.79,17.43h0c.16.49.35,1,.55,1.46l2.73,6.5c.57,1.35,1.2,2.67,1.9,4l2.69,5,.12.2a39,39,0,0,1,4,9.54h0a21.42,21.42,0,0,1,.62,3.27l.78,6.66a16.83,16.83,0,0,1,.09,2.84l-.23,3.91a52.28,52.28,0,0,1-.76,6.48l-1,5.36a37.21,37.21,0,0,1-1.1,4.52l-2.36,7.59a35.29,35.29,0,0,1-1.63,4.26l-3,6.52c-.4.86-.84,1.72-1.31,2.54l-2.63,4.61a28.17,28.17,0,0,1-4.48,5.87h0a18.16,18.16,0,0,1-2,1.71l-1.16.85a5.53,5.53,0,0,1-3,1h0a8.31,8.31,0,0,1-4.24-1h0a4.18,4.18,0,0,1-1.31-1.09l-.76-.94-1.32-.44a11,11,0,0,1-2.12-1h0a36.14,36.14,0,0,1-8.8-7.36h0a12.52,12.52,0,0,1-.76-1l-2-3a13.13,13.13,0,0,1-1.41-2.8l-.85-2.39a32.26,32.26,0,0,1-1.36-5l-2.44-13.17-1.46-6.8a66.15,66.15,0,0,0-2.58-8.94l-2-5.35-.53-1.59a61.33,61.33,0,0,0-5.92-12.69l-.69-1.13-4.22-7-2.79-5.2c-.52-1-1-2-1.43-3l-.1-.25a2.14,2.14,0,0,1-.17-1.06h0a3,3,0,0,1,.87-1.83l.54-.54-2.76-4.54-8.27-12.17-9.57-15.41-4.23-6.7c-1.61-2.56-3.33-5-5.13-7.48l-1-1.31a45.74,45.74,0,0,0-3.21-3.87l-4.13-4.48-26.93-27.25-29.52-29-37.63-37.95-35.85-38.28L179,909.49c-1.06-1.15-2.18-2.26-3.35-3.3l-23.55-21-17.73-15.75c-.72-.64-1.42-1.3-2.09-2l-4.83-4.93a35.13,35.13,0,0,1-3-3.53l-2.48-3.33a47.14,47.14,0,0,1-3.29-5.06l-1.34-2.38a59,59,0,0,1-3.78-8.1l-.61-1.61a49.75,49.75,0,0,1-2.35-8.39l-1.14-6.08-.48-3.36a40.35,40.35,0,0,1-.39-7l.15-4.91c0-1.53.16-3.06.34-4.59l1-8.74L112,783.44c.32-2,.74-4,1.24-6l2.65-10.34L123,739.06l6.19-24.15-1-.28c-1-.29-2-.61-3-1l-2-.71c-1.16-.42-2.3-.88-3.42-1.4l-1.9-.89a49.87,49.87,0,0,1-7-4l-1.6-1.1a47.07,47.07,0,0,1-5.36-4.29l-10.09-9.37-8.88-8.74L77.07,675a58.3,58.3,0,0,1-4-4.61l-4.64-5.91a8.55,8.55,0,0,1-.72-1.09l-3-5.28a10.78,10.78,0,0,1-.63-1.33l-4-9.92L57.17,640a4.09,4.09,0,0,0-.2-.42h0a31.24,31.24,0,0,0-4-5.83h0c-.59-.69-1.21-1.36-1.85-2l-3-3c-.8-.78-1.62-1.53-2.48-2.25h0a14.66,14.66,0,0,0-3.35-2.08h0l-2.77,3.2L31.43,637l-8.58,9.7c-.87,1-1.77,1.94-2.71,2.87l-4.85,4.82-.34-.76-.62-.53-.83-.43a7.42,7.42,0,0,1-1.55-1h0l-.3-.29-.93-1a8,8,0,0,1-1.31-1.85l-.34-.63a9.4,9.4,0,0,1-.49-1.13l-1-2.7a23.22,23.22,0,0,1-.74-2.46L6,637.91l-1.38-4.83-.36-1.4a22.81,22.81,0,0,1-.67-4.42l-.15-3c0-.83-.06-1.66,0-2.49l.08-3.88c0-1,.09-2,.19-3l.07-.75a49.18,49.18,0,0,1,1-6l.42-1.89L6,602.08l0-.21a18.59,18.59,0,0,1-.18-2.35v-1a13.44,13.44,0,0,0-.34-2.9h0a6.08,6.08,0,0,0-.47-1.38l-1.41-3L2,587.68.67,584.75a5,5,0,0,1-.41-1.37l-.12-.8A12.53,12.53,0,0,1,0,580.75v-1.48a4,4,0,0,1,.06-.68L.15,578a2.71,2.71,0,0,1,1-1.63h0A25.43,25.43,0,0,1,4.69,574L6,573.21c.65-.37,1.32-.71,2-1l2.12-1c1-.45,1.94-.86,2.94-1.22l4.25-1.54c.73-.26,1.48-.5,2.23-.71l4.51-1.27,6.59-1.79L32.25,562l2.26-3.9,3.33-5.46a38.32,38.32,0,0,1,3-4.24L44.44,544a23.38,23.38,0,0,1,3-3L49,539.68a7.94,7.94,0,0,1,3.13-1.62l2.26-.6,13.17-2.74,10.94-2.13c.82-.16,1.65-.29,2.48-.4l6.65-.84,3.22-1.21,4.74-1.69,7.31-2.89c.64-.25,1.29-.47,2-.68l5.78-1.76c1-.31,2-.57,3-.78l8.26-1.69L130.3,519l6.72-1.11c.62-.1,1.23-.18,1.85-.23l4.74-.37c.68,0,1.37-.08,2-.07l4.93.08a17.71,17.71,0,0,1,2.62.23l3.54.58,1.84-1.25a18,18,0,0,0,1.82-1.41l.16-.14a14,14,0,0,0,1.88-2l.09-.12c.15-.19.29-.37.42-.57l1.4-2c.23-.34.46-.69.67-1.05l.83-1.39a5.05,5.05,0,0,1,1.06-1.24l1.43-1.21-4-.32c-.79-.07-1.58-.15-2.37-.27l-2.51-.36c-.74-.1-1.47-.23-2.2-.38l-2-.42a26.68,26.68,0,0,0-3.46-.49l-3.52-.29-5.22-.15-5.8,0a19.57,19.57,0,0,0-4.45.55l-4.34,1.05-11.75,2.58-11.44,2L99,512.17l-3,1.46a21.09,21.09,0,0,1-4.55,1.62h0a18,18,0,0,1-3.42.48l-5.62.28A20.63,20.63,0,0,1,80,516L79,515.92a18.89,18.89,0,0,1-3.16-.5l-1.65-.4-.43-.74-.63.51a5.66,5.66,0,0,1-.89.58h0a2.83,2.83,0,0,1-.9.31l-.34.06a7.25,7.25,0,0,1-1.86.12l-1-.05a7.66,7.66,0,0,0-2,.16h0a14.74,14.74,0,0,0-3.24,1.1l-2.89,1.37c-.37.18-.74.37-1.1.57l-3.08,1.75c-.68.39-1.38.74-2.09,1.06l-1.76.77a17.06,17.06,0,0,1-4.75,1.33h0a7.68,7.68,0,0,1-1.74,1.14l-.16.07h-.9L42.94,524l-.88-.79a7.91,7.91,0,0,1-1.31-1.52L40,520.6h0a16.08,16.08,0,0,1-1.2-3.3l-.57-2.4c-.05-.2-.08-.41-.11-.61l-.5-3.88c-.1-.76-.22-1.51-.39-2.25l-1.44-6.68-.35-1.91a27.71,27.71,0,0,0-1.5-5.21l-.35-.87c-.39-1-.75-2-1.05-3.05l-1-3.45-.74-2.38L32,483.46a11.56,11.56,0,0,1,1.24-1.08h0A15.11,15.11,0,0,1,35.51,481h0a6,6,0,0,1,1.89-.56l.65-.07a13.87,13.87,0,0,1,2.41-.06l2.11.14,2,.06a5.53,5.53,0,0,0,2.34-.43h0a6.73,6.73,0,0,0,2.19-1.5l.21-.23c.15-.15.28-.3.42-.45l1.47-1.73c.75-.87,1.45-1.77,2.12-2.7l.74-1L55.1,471a4.9,4.9,0,0,1,.75-.76h0a2.65,2.65,0,0,1,1-.49l1.25-.33,2.64-.84h0a10.08,10.08,0,0,0,3.46-2.1l.17-.17.56-.52a34.57,34.57,0,0,0,2.9-3.15l.21-.27c.72-.88,1.47-1.74,2.26-2.56h0a25.42,25.42,0,0,1,3-2.67h0a10.77,10.77,0,0,1,2.57-1.43h0a3.8,3.8,0,0,1,.51-.15l1.78-.36a9.69,9.69,0,0,1,1.62-.19l3.55-.13,3.86.05c.24,0,.48,0,.71,0l3.6.27a48.48,48.48,0,0,1,5.75.8l3.21.64L107,458l4.81.68c.27,0,.55.07.82.09l5.7.44h.09a17.82,17.82,0,0,0,5.26-1h0a25,25,0,0,0,2.63-1.08h0a9.45,9.45,0,0,1,1.93-.69h.07a3.57,3.57,0,0,1,.92-.12l1.72,0h.37l2.36.08a8.78,8.78,0,0,1,1,.09l2.76.35,2.44.25a27.78,27.78,0,0,1,4.53.83h0a21.23,21.23,0,0,1,3.93,1.5h0a13.35,13.35,0,0,1,2.91,2l2.63,2.34h0a17.2,17.2,0,0,0,3.6-.81l1.07-.37a3.74,3.74,0,0,0,1.26-.74h0c.75-.68,1.48-1.4,2.18-2.13h0l1.32-1.37c1.09-1.13,2.13-2.29,3.12-3.5l1.2-1.46,1.85-2.1a8.35,8.35,0,0,1,1.44-1.28l1.33-.92a7.12,7.12,0,0,1,1.44-.77h0a3.71,3.71,0,0,1,1.4-.27h.15a6.19,6.19,0,0,1,1.54.19l2.4.6-.9-2a4.63,4.63,0,0,1-.27-.82l-.06-.29a3,3,0,0,1-.06-.59v-.43a7.28,7.28,0,0,1,.2-1.68l.3-1.26.94-3.89.54-2.61a11.63,11.63,0,0,0,.25-2.42h0c0-.53,0-1.06-.07-1.58l-.36-4-.36-9.21L179.14,404v-8.51c0-1.33.05-2.66.15-4l.43-5.93.93-16.32,1.15-13.53.51-8.12-.23.44a45,45,0,0,0-2.33,5.6l-.23.69a39.48,39.48,0,0,0-1.31,4.88l-1.11,5.51c-.17.86-.31,1.73-.41,2.6l-.42,3.69a26.32,26.32,0,0,0-.06,5.25l0,.68-.08.14a22.25,22.25,0,0,0-1.69,3.47l-.17.45a16.94,16.94,0,0,0-.92,3.49l-.08.51-2.81-3.75c-.58-.76-1.11-1.55-1.61-2.36l-1.41-2.31.3-2.55c.09-.74.2-1.48.34-2.21l.49-2.49a24.48,24.48,0,0,1,1.07-3.83h0a36.94,36.94,0,0,1,2.93-6.2l1.85-3.15,4.53-7.19,2.8-4.82.65-6.33.21-1.72a35.72,35.72,0,0,1,1.23-5.95l.29-1c.33-1.12.71-2.23,1.14-3.32l2.81-7.21-3.16.07-4,.27c-.93.06-1.86.16-2.78.29l-1.51.22a36.54,36.54,0,0,0-5.06,1.11l-3.41,1c-.72.22-1.43.46-2.14.71L161.48,324a36.83,36.83,0,0,0-4.67,2.1l-6.1,3.3a35.56,35.56,0,0,0-3.45,2.09l-9.12,6.2-6.76.14.44-1.64a24,24,0,0,1,1.5-4h0a27.94,27.94,0,0,1,3.14-5.11l1.14-1.49a8.77,8.77,0,0,1,.87-1l1.35-1.3a12.59,12.59,0,0,1,4.24-2.69h0a18,18,0,0,1,2-.63l7-1.71c.73-.18,1.46-.34,2.19-.47l5.26-1c1.23-.23,2.46-.39,3.71-.5l3.2-.27a39.63,39.63,0,0,1,5.11-.1l5.36.24,4.74-1,7.27-1.37,1.58-2.81-.2-.09a45.19,45.19,0,0,1-5.05-2.57h0l-3.45-1.94h0a37.47,37.47,0,0,1-6.45-5.33l-.59-.6c-.53-.55-1-1.12-1.55-1.71l-3.06-3.58L165,295h-2.58a18.55,18.55,0,0,0-3.72.37l-7.37,1.5c-.24,0-.47.1-.7.16l-5.68,1.56a26.18,26.18,0,0,0-3.13,1.06l-2.47,1a36.47,36.47,0,0,1-6,1.84l-1.47.32a14.73,14.73,0,0,1-3.63.31h0a36.87,36.87,0,0,1-7.31-1L118,301.4a12.14,12.14,0,0,1-1.17-.36l-4.51-1.67c-.64-.23-1.26-.48-1.88-.76l-2-.89a34.4,34.4,0,0,1-4.63-2.49l-5.33-3.4-4.46-2.66-.33,6.93c-.07,1.37-.09,2.75,0,4.12l.19,8.22c0,1.2.11,2.4.23,3.6l.49,4.92a36.58,36.58,0,0,0,.88,5.07l1.37,5.5A26.89,26.89,0,0,0,99,333.28h0a26,26,0,0,0,4.28,6.11h0a35.24,35.24,0,0,0,4.21,3.8l1.58,1.22a14.14,14.14,0,0,0,1.6,1h0a39.32,39.32,0,0,0,7.58,3.17l.25.07a30.59,30.59,0,0,0,3.14.77l1.55.29a43.31,43.31,0,0,0,6.71.73H130c.93,0,1.87,0,2.8,0l3.2-.2,1.43-.14a24.54,24.54,0,0,0,4.41-.85l.71-.21a34.94,34.94,0,0,0,6.89-2.8h0c1.21-.64,2.38-1.34,3.53-2.1l.9-.59a20.64,20.64,0,0,0,2.65-2.09h0a28.32,28.32,0,0,0,3.26-3.58h0a35.06,35.06,0,0,0,2.2-3.17l1.21-1.95-.74,2.07a47.53,47.53,0,0,1-3.16,7l-.8,1.43a35,35,0,0,1-3.1,4.7l-2.87,3.67a10.16,10.16,0,0,1-2.07,2h0a42.69,42.69,0,0,1-11.79,6.17l-.52.17.55.84a14.54,14.54,0,0,1,1.9,4.37h0a15,15,0,0,1,.44,4.06h0a20.68,20.68,0,0,1-1.16,6.23h0a24.28,24.28,0,0,1-4.12,7.32h0a10.46,10.46,0,0,1-3,2.46l-4.18,2.3L127.27,389a21.67,21.67,0,0,1-3.59,3.1h0a29.66,29.66,0,0,1-3.15,1.91l-.09.05a16.41,16.41,0,0,1-5,1.7h0a35.12,35.12,0,0,1-5.89.49h-.25a22.48,22.48,0,0,1-5-.56h0A25.08,25.08,0,0,1,99.16,394l-1.33-.62-3.33,3.41,2.74,3.49a27.86,27.86,0,0,0,2.63,2.9l2.4,2.3A29.21,29.21,0,0,0,106,408.5l2.53,1.74a37.39,37.39,0,0,0,6.13,3.4h0a30.66,30.66,0,0,0,4.67,1.61h0a36.24,36.24,0,0,0,7.4,1.1l1.18,0a8.54,8.54,0,0,0,4-.81h0a14.21,14.21,0,0,0,3.17-2h0A42.7,42.7,0,0,0,139.8,409l.72-.83a25.61,25.61,0,0,0,2.27-3l.84-1.31a32.21,32.21,0,0,0,1.69-3l.12-.24a31.54,31.54,0,0,0,2.08-5.35l.17-.58a24.06,24.06,0,0,0,.86-4.69V390c.07-.9.11-1.82.09-2.73l-.06-3.9.6,3.92q.1.66.27,1.29h0a27.31,27.31,0,0,1,.82,6.1v.3q0,1-.06,2L150,400.2a24.16,24.16,0,0,1-.92,4.91l-.74,2.49a9.32,9.32,0,0,1-1.49,2.95h0a24.88,24.88,0,0,1-4.25,4.39h0a10.79,10.79,0,0,1-2.74,1.61h0a27.33,27.33,0,0,1-6.53,1.71l-.87.12c-.27,0-.55.05-.82.06l-4.39.07-1.39.5a15,15,0,0,1-1.58.46l-1.4.33a23.7,23.7,0,0,1-3.54.56l-.68.06a28.21,28.21,0,0,1-6.36-.21h0a29.47,29.47,0,0,1-5.17-1.23l-.52-.17a30.67,30.67,0,0,1-3.57-1.45l-.91-.44a33.63,33.63,0,0,1-3.28-1.8l-1.69-1.07c-.71-.44-1.39-.91-2-1.41l-1-.78a24,24,0,0,1-3-2.78l-3.42-3.82h0A31,31,0,0,1,81.72,411l-1.17.87L77,414.4a12.76,12.76,0,0,1-1.36.84h0a26.32,26.32,0,0,1-6.17,2.34l-.42.1a23.34,23.34,0,0,1-3.12.52l-1,.11a22,22,0,0,1-3.89.05l-1.8-.14a23.86,23.86,0,0,1-2.4-.32l-2.26-.41a19.09,19.09,0,0,1-4-1.19l-1.5-.64a24.43,24.43,0,0,1-4.52-2.53l-1.05-.74A35.31,35.31,0,0,1,39,408.6l-1-1a25.24,25.24,0,0,1-3.42-4.23L33,401.06a26.4,26.4,0,0,1-2.41-4.7l-.74-1.87-3-8.91-1.32-3.72-2.32-7L20.56,366a41.61,41.61,0,0,1-1.09-4.57l-1.22-6.79a24.52,24.52,0,0,1-.32-2.56l-.44-5.75a30.69,30.69,0,0,1-.06-4.07l.05-1.06-.13-.4a47.37,47.37,0,0,1-1.41-5.48l-.67-3.46a11.5,11.5,0,0,1-.15-1.16l-.31-5a36.64,36.64,0,0,1,.17-6.37l.15-1.32a38.8,38.8,0,0,1,1.14-5.95l.65-2.37a23.6,23.6,0,0,1,1.48-4l2-4.14a31.38,31.38,0,0,1,3.13-5.22l1.6-2.16a32.78,32.78,0,0,1,2.12-2.59l4.38-4.8,2-2.38c.65-.79,1.34-1.55,2.06-2.29l2.14-2.19.39-.36L41.39,277c.54-.44,1.1-.85,1.67-1.24l4.12-2.84c.66-.45,1.33-.88,2-1.28l2.62-1.51A29.92,29.92,0,0,1,58,267.43l1.38-.43A34.43,34.43,0,0,1,63.7,266l1.8-.31a34.21,34.21,0,0,1,3.63-.43l2.35-.14a32.7,32.7,0,0,1,4.2,0l4.94.32.33,0,4.87.75.68-1.39a29,29,0,0,1,2.18-3.73l.69-1a20.39,20.39,0,0,1,1.74-2.19l3.5-3.79c.65-.71,1.33-1.39,2-2l5.14-4.76-4.48,3c-.63.41-1.23.86-1.82,1.32l-2.16,1.72c-.5.41-1,.83-1.46,1.26l-3.22,3c-.53.5-1.06,1-1.56,1.55L82,264.55l1.36-1.88c.43-.61.89-1.2,1.37-1.77l1.82-2.19,1.87-2.23.24-.3L93,252.44c.34-.3.69-.58,1-.85l2.5-1.88a25.22,25.22,0,0,1,2.9-1.88l4.18-2.29c.44-.24.86-.49,1.28-.76l2.42-1.55a20.34,20.34,0,0,0,2.73-2.06l1.63-1.45a25.39,25.39,0,0,1,3-2.33l4-2.66-4.93-3.87-8.56-7.23c-.55-.46-1.09-.94-1.61-1.44l-7.13-6.74c-.65-.62-1.28-1.27-1.88-1.95L89,207.07l-3.77-4.58a33.39,33.39,0,0,1-3-4.22l-.82-1.38c-.2-.33-.38-.66-.55-1l-2-4a23.16,23.16,0,0,1-.95-2.16l-.24-.64a12.78,12.78,0,0,1-.8-4.45h0l.07-.91.26-1.43a19.43,19.43,0,0,1,.6-2.39l.56-1.78a22.46,22.46,0,0,1,1.1-2.79l1.43-3.05a26.85,26.85,0,0,1,1.61-2.93L84,167a32.66,32.66,0,0,1,2.57-3.52l3.61-4.31,4.39-5.3,4.82-5.35c.55-.61,1.07-1.24,1.56-1.9l4.27-5.68c.33-.43.64-.87.94-1.33l5.33-8.09,5.23-8.12c.14-.21.28-.41.43-.61l2-2.6a14.38,14.38,0,0,1,3.26-3.16h0l2.11-1.46a17.87,17.87,0,0,0,1.94-1.53l.7-.63a12.53,12.53,0,0,0,2.14-2.51h0l1-1.56a20.13,20.13,0,0,1,1.37-1.82l.23-.27a4.24,4.24,0,0,1,1.35-1.06l.1,0a3.68,3.68,0,0,0,.91-.65l.64-.65.84-.35,2.2-.87a3.74,3.74,0,0,0,.84-.44l2.07-1.41a6.06,6.06,0,0,0,.74-.6l3.11-2.9c.48-.45,1-.91,1.4-1.39L150,92.74c.21-.22.41-.44.6-.68l3.66-4.47,1.63-1.83a2.27,2.27,0,0,1,.61-.5h0a1.84,1.84,0,0,1,1.28-.23l.66.12,2.45-2.32c1.15-1.08,2.25-2.22,3.3-3.4l4.4-5q1.52-1.71,2.88-3.54l4.07-5.49c.64-.85,1.24-1.72,1.81-2.61l.1-.16a4.57,4.57,0,0,1,1.15-1.21l1.13-.83.47-.33.24-.15a40,40,0,0,0,6.26-5l1.93-1.91a50.5,50.5,0,0,0,4.13-4.64L193.94,47l4.81-5.76,2.18-2.83a17,17,0,0,1,1.61-1.79L204.19,35l3.16-3.31,2.18-2.13a9.45,9.45,0,0,1,1.79-1.35l.66-.38a2.74,2.74,0,0,1,.88-.32l1.95-.34a14.52,14.52,0,0,0,1.45-.34l1.4-.4a18.33,18.33,0,0,0,4.21-1.83l.93-.55,3.51-2.29a43.2,43.2,0,0,0,4.86-3.66h0a15.54,15.54,0,0,1,6.08-3.29h0a18.83,18.83,0,0,0,3.15-1.22l3-1.5a12.44,12.44,0,0,0,1.9-1.17l.59-.43a26,26,0,0,1,4.54-2.7l1.41-.66A19.93,19.93,0,0,0,253.92,6l2.23-1.41c.26-.16.52-.33.77-.51l.82-.59a8.22,8.22,0,0,1,2.19-1.11h0l.63.15.63,1.26h0a10.78,10.78,0,0,1,2.54-2.12l1.33-.79L266.55,0l.87.39.34.63a1.81,1.81,0,0,1,.21.85v.65a3,3,0,0,1-.25,1.22l-.89,2a28.65,28.65,0,0,1-2.12,3.93l-2.9,4.51c-.67,1-1.4,2.06-2.16,3l-6.34,8.07-5,5.85A28.22,28.22,0,0,1,245,34.47L240.71,38a30.84,30.84,0,0,0-3.8,3.78l-1.2,1.42a29.86,29.86,0,0,0-2.55,3.48l-1,1.56,4.1-2,2.62-1.4a21.21,21.21,0,0,0,2.1-1.26l2.14-1.44,2.87-2a11.68,11.68,0,0,1,1.76-1h0a9.94,9.94,0,0,1,2.5-.72l1.94-.28h0a21.52,21.52,0,0,1,3.38-2.36l2-1.11,3-1.63c.92-.49,1.86-.94,2.82-1.36l4.08-1.77c.68-.3,1.37-.57,2.07-.83l3.62-1.32a33.52,33.52,0,0,1,3.66-1.11l3-.73,3.55-1.42,3.38-1.17c1.11-.38,2.23-.7,3.37-1l2.58-.63q1.55-.37,3.12-.63l1.51-.24a40.23,40.23,0,0,1,5.7-.5h0c1,0,2,0,3,.05l1.47.09c.85,0,1.71.12,2.56.22l2.34.27a2.53,2.53,0,0,1,.77.22h0a15.38,15.38,0,0,1,4.05,2.67h.3a30.66,30.66,0,0,1,3.18,0l1.72.08.1-.15a18.12,18.12,0,0,1,1.52-2h0a6,6,0,0,1,1-.87l.28-.22a2.16,2.16,0,0,1,1-.41h0a2.65,2.65,0,0,1,1.34.17l.66.25a2.52,2.52,0,0,1,.89.59l2.35,2.35a5,5,0,0,1,.49.54L334,26.51l.46.15c.88.28,1.76.59,2.62.92l1.88.72c.86.32,1.71.67,2.54,1.05l3.29,1.47,7.64,3.81,3.29,1.85a53.56,53.56,0,0,1,6.42,4.24l2.22,1.71,5.28,4.22L372.38,49a46.17,46.17,0,0,1,5.5,5.51l1.3,1.56,2.1,2.67c.76,1,1.49,2,2.16,3l1,1.5c.36.56.71,1.13,1,1.7L387,67.71q.78,1.35,1.44,2.76l1.43,3.06c.23.48.44,1,.63,1.48l1.34,3.47ZM222.67,74A40.26,40.26,0,0,1,218,77.07l-2.61,1.47-3.72,2a43.49,43.49,0,0,1-6.64,2.9h0a22.6,22.6,0,0,1-2.77.73l-2.34.46-2.75.67a17.08,17.08,0,0,0-1.81.55h0a13.71,13.71,0,0,0-3.75,2.06l-.49.38a31.06,31.06,0,0,0-3.35,3l-5.76,6c-.71.75-1.39,1.53-2,2.35l-3.6,4.56,2.07,3.5a11.14,11.14,0,0,1,1,2.23l.37,1.18a2.34,2.34,0,0,1,0,1.48h0a1.61,1.61,0,0,1-.47.68l-.82.67c-.75.62-1.48,1.27-2.18,1.94l-2.93,2.82c-.44.43-.87.88-1.28,1.34l-1.34,1.5a27.81,27.81,0,0,0-4.4,6.68h0l-.27,1.25a42.32,42.32,0,0,0-.87,5.71l-.08.86-.23,3.34a16.94,16.94,0,0,1-.41,2.74h0a2.82,2.82,0,0,1-1.19,1.71l-.5.34a8.24,8.24,0,0,1-1.09.61l-2,.91a8.05,8.05,0,0,0-1.52.91l-.08.06A6.38,6.38,0,0,0,156,149.8h0a15,15,0,0,0-.73,4.35l0,2.64c0,.45,0,.89-.07,1.34l-.25,2.73a17,17,0,0,1-1.39,5.35h0a2.32,2.32,0,0,1-.45.67l-1.21,1.24a20.57,20.57,0,0,1-2.58,2.26l-1.73,1.28c-1.07.8-2.11,1.65-3.1,2.55l-.35.31a18.78,18.78,0,0,0-4.11,5.42h0l4.16,1.51c.38.13.76.26,1.14.37L152.7,184a21.19,21.19,0,0,1,2,.73h0a5.85,5.85,0,0,1,3.39,3.94l.14.55c.19.74.41,1.48.65,2.21l.77,2.33,5.14,3,2.82-2a24.93,24.93,0,0,1,2.25-1.41l5.31-2.88c.57-.31,1.15-.6,1.75-.86l5.92-2.58c.56-.25,1.13-.47,1.7-.68l6.79-2.48a26.78,26.78,0,0,0,3.33-1.48l3.67-1.92c1-.54,2.05-1.14,3-1.78l.84-.56a41.23,41.23,0,0,0,3.4-2.5l1.95-1.59c.54-.44,1.07-.89,1.58-1.35l3-2.74a46.85,46.85,0,0,0,3.36-3.4l2.25-2.52a25.94,25.94,0,0,0,1.8-2.24l1.49-2.09a31.55,31.55,0,0,0,1.73-2.69l1.56-2.68-4.07,3.09-.09-1.76a13.9,13.9,0,0,1,.14-2.81l.26-1.72c.07-.42.14-.84.23-1.25l1.25-5.9-2.36,5.91A15.27,15.27,0,0,0,219,152h0a23.46,23.46,0,0,0-.71,5.78v1.79l-.43-2.29a19.94,19.94,0,0,1-.35-3.27v-.65a21.39,21.39,0,0,1,.08-2.4l.29-3.3q.09-1,.27-2.07l.51-2.87a19.09,19.09,0,0,1,.55-2.26l.66-2.09a18.33,18.33,0,0,1,.7-1.87l1.23-2.82a28.65,28.65,0,0,1,1.46-2.87l2.12-3.66,1.39-4.39-.61-1.48a23.52,23.52,0,0,1-1.29-4.34l-.55-2.9-.06,2.54c0,.53,0,1.07,0,1.61l.21,3.83.24,4.56-.72-1.53c-.28-.61-.54-1.22-.77-1.85l-1.38-3.67a53.51,53.51,0,0,1-2-6.54h0a22.31,22.31,0,0,1-.56-3.81l-.12-2a44.38,44.38,0,0,1,.05-5.88l.25-3.46a44.92,44.92,0,0,1,1.06-6.83l.89-3.75c.18-.74.37-1.46.59-2.19l.76-2.59a38,38,0,0,1,3.25-7.77l.88-1.58-1.29,1.66a37.48,37.48,0,0,0-2.29,3.31l-4.13,6.77c-.29.48-.57,1-.83,1.46L213.34,96c-.38.71-.72,1.44-1,2.18l-2.85,6.6a36.64,36.64,0,0,0-1.76,5.07l-.79,3c-.26,1-.48,2-.64,3l-.55,3.45c-.12.76-.22,1.52-.29,2.28L204.8,128l.17-6.18a42.5,42.5,0,0,1,.45-5l.29-1.93c.15-1,.34-2,.58-3l1-4.39c.22-.91.47-1.82.75-2.71l1-3.08q.39-1.22.84-2.4l1.44-3.77a40.49,40.49,0,0,1,1.93-4.31l4-7.66c.36-.7.74-1.39,1.15-2.06l4.6-7.72Zm-52.3,125.55,3.55,1.83c.57.29,1.14.56,1.72.82l3.46,1.53.78-1.35,1.77-2.83.79-1.18a22.67,22.67,0,0,1,2.89-3.46l.64-.63a18.37,18.37,0,0,1,1.5-1.3l2.12-1.66-4.18.92-3.83.92-3.19.93-3,1a27,27,0,0,0-3.16,1.25l-4.35,2Zm51.33-20.76-2.88,2.65c-.31.29-.62.56-.95.82l-2.47,2a16.24,16.24,0,0,1-2.19,1.49l-3.14,1.79a19,19,0,0,1-2.78,1.31l-3.63,1.38a11.11,11.11,0,0,0-1.22.55l-.53.27a22.33,22.33,0,0,0-3.55,2.32l-1.5,1.21a16.33,16.33,0,0,0-1.57,1.43l-4.63,4.8-5.44,5.9.94.46a17,17,0,0,0,3.79,1.38l2.93.71,6.89,1.52c.17,0,.34.08.5.12l3.75,1h2.61a6.08,6.08,0,0,1,2.28.43l.74.29,2.55-1.45.07-.58,1.27-4.34a24.09,24.09,0,0,0,.67-3l.14-.9a32.25,32.25,0,0,1,1.24-5.11l.74-2.21,1.78-5.06c.25-.73.53-1.45.83-2.16l2.3-5.42,2.36-5.5Zm-4.77,30.15,3.58-2.33a21.37,21.37,0,0,0,2.77-2.15l2.61-2.39a23.49,23.49,0,0,0,2-2l2.84-3.35a24.77,24.77,0,0,0,2.34-3.25l2-3.33,1-5.24c.12-.6.26-1.19.41-1.78l.45-1.67-3.07,2.27-3,2.41a20.64,20.64,0,0,0-1.85,1.64l-2.07,2-1.86,1.94c-.69.71-1.35,1.46-2,2.24h0a23.58,23.58,0,0,0-2.52,3.82l-.34.63h0a38.73,38.73,0,0,0-2.23,6h0c-.29,1-.55,2.11-.77,3.18Zm56.07.9-1-3.06a2.62,2.62,0,0,0-.53-.93h0a2.3,2.3,0,0,0-1.25-.76h0a10.12,10.12,0,0,0-2-.25l-2.4-.07a20.32,20.32,0,0,0-2.47.08l-3.83.35q-.64.06-1.29.06h-2.14a13,13,0,0,1-2-.14l-.88-.12a13.19,13.19,0,0,1-2.7-.68l-2.13-.78v0a16.58,16.58,0,0,1-.67,4.64l-.42,1.43c-.11.4-.25.8-.4,1.2l-.88,2.31a14.87,14.87,0,0,1-1.19,2.44l-1.41,2.34,2.86.8a4,4,0,0,1,.49.15l2.28.78,3-.74a7.29,7.29,0,0,1,2.08-.21l1.8.09,7-2.19,6.23-1.73,2.72-3.64ZM100.43,266.37c.55,0,1.09.06,1.62.13l6.43.8c.35.05.7.1,1.06.17l6.93,1.29,5.88,1.19c.28.06.57.12.85.2l6.06,1.58,5.46,1.64,2.19.61a21.17,21.17,0,0,0,4.81.77l.58,0c.77,0,1.54,0,2.31,0l2.24-.12-3.33-5.77-1.17-2.15a18.32,18.32,0,0,1-1.29-3l-.92-2.73a18.55,18.55,0,0,1-.61-2.33l-.52-2.67a27,27,0,0,1-.4-3l-.43-5.35-6.43-3.94-5.21-3.28-5.1-3.52-5.09,3.64-4.25,3.46-3.46,3.64-4.54,5.82-3.28,6.31L98,266.28Zm63.66-6.87L154,255.21l-8.58-4.76.47,1.75q.65,2.46,1.46,4.86l1.13,3.36c.34,1,.73,2.05,1.14,3.05l1,2.41c.56,1.36,1.18,2.7,1.86,4l1.76,3.37,5.8-1.91,4-4.45V262.6Zm.11,14.16-5.87,1.8,4-.17h2Zm7.06,0,3.74-1.35,3.1-1.25c.42-.17.83-.34,1.24-.54l4.16-1.94-1.62-1.11c-.48-.33-1-.65-1.46-.95l-2-1.26-1.46,1.14-2.54,1.82-3.68,2.49Zm20.81,35.19c.27-.62.57-1.23.88-1.82l1.45-2.73c.37-.69.76-1.36,1.18-2l2.6-4.09,3.13-5,3.7-6.46-.74-.8a38.16,38.16,0,0,0-3.89-3.63l-1.21-1-1.47,1.14-4.13,3.46-.95,1.43h0a15.53,15.53,0,0,1-3.31,3.91h0a14.57,14.57,0,0,1-3,2h0a6.06,6.06,0,0,1-1.54.51l-.08,0a22.4,22.4,0,0,1-4.17.4h0a8.06,8.06,0,0,1-1.38-.13l-1.78-.35,1.82,3.18c.24.41.49.82.76,1.22l1.33,2q.5.75,1.05,1.47l1.28,1.71a19.09,19.09,0,0,0,1.37,1.61l1.11,1.16a20.25,20.25,0,0,0,3.25,2.74h0a12.33,12.33,0,0,0,1.25.77l1,.55Zm-44.52-16.54-5.5-1.74a37.46,37.46,0,0,1-4.24-1.63l-7-3.17-5.67-2.93-4.55-2.19-3.47-.71a13.31,13.31,0,0,0-1.56-.22l-1.75-.13a24.12,24.12,0,0,0-4.88.13l-.56.07c-.62.08-1.24.18-1.85.3l-2,.4c-.54.11-1.08.24-1.61.38l-2.25.59a23.31,23.31,0,0,0-2.82.94l-3.17,1.31-.5,1.68,2.12,1.88c.75.66,1.52,1.29,2.33,1.88l1.1.8a20.63,20.63,0,0,0,3,1.84h0a36.48,36.48,0,0,0,4.82,1.94l.15.05a27,27,0,0,0,4.93,1.09l3.41.43,6.36.5,4.31.13a30.59,30.59,0,0,0,3.71-.11l1.5-.13a39.34,39.34,0,0,0,5.81-1l.92-.22c.72-.18,1.43-.37,2.14-.59l2.2-.68a20.22,20.22,0,0,1,2.87-.66ZM73.86,273.56l-7.91.72c-1.17.1-2.34.24-3.5.42l-2.52.39a45.23,45.23,0,0,0-4.73,1l-2.07.56A38.69,38.69,0,0,0,49.19,278L46.49,279a40.11,40.11,0,0,0-4,1.79l-3.13,1.61a30.53,30.53,0,0,0-4.1,2.56h0a22,22,0,0,0-4.71,4.82h0l-2.47,3.85a33,33,0,0,0-1.72,3l-.95,1.85a46.63,46.63,0,0,0-2.6,6.09l-.6,1.71c-.25.73-.48,1.47-.69,2.21L20.3,313h0a56.78,56.78,0,0,0-.92,8.63l0,1.2v2l2.09-5.67c.45-1.24,1-2.46,1.53-3.65l1.33-2.84a44.85,44.85,0,0,1,3.81-6.58l1.78-2.54a30.78,30.78,0,0,1,2.59-3.23l1.86-2c.78-.86,1.6-1.68,2.44-2.47l3-2.79a45,45,0,0,1,4.78-3.93l3-2.16,3.94-2.68a38,38,0,0,1,4.67-2.7l2.18-1.05c.41-.2.83-.39,1.25-.57l5.23-2.19,4.52-1.84a23.65,23.65,0,0,0,2.9-1.43Zm-6.25,25.95-4.73,3.67a57,57,0,0,0-6.32,5.71l-4,4.22q-1.49,1.56-2.87,3.23l-3.23,3.9Q45,322,43.65,323.89l-2,2.89a67.81,67.81,0,0,0-4.22,6.78l-1.58,2.89a43.86,43.86,0,0,0-2,4.21l-2.1,5.07a18.22,18.22,0,0,0-1.35,6l-.1,1.86a61.26,61.26,0,0,0,.08,7.17h0a43.55,43.55,0,0,0,1,6.73l.94,4a18.36,18.36,0,0,0,1.07,3.24l2.17,5c.52,1.2,1.1,2.38,1.73,3.53l1.49,2.72a28.71,28.71,0,0,0,3.47,5l2.21,2.54a16.53,16.53,0,0,0,1.79,1.76l2.05,1.73A41.46,41.46,0,0,0,54,401.16h0a27.76,27.76,0,0,0,5.78,2.59h0a16.85,16.85,0,0,0,4.22.75h0a34.6,34.6,0,0,0,7-.36L72,404a14.29,14.29,0,0,0,2-.45h0a40.3,40.3,0,0,0,7-2.71h0l2.37-1.26-.62-.94a51.33,51.33,0,0,1-4.53-8.46h0a59.67,59.67,0,0,1-2.5-7.21l-.52-1.84a64,64,0,0,1-1.89-9.78l-.56-4.89-1.15-2.87a31.55,31.55,0,0,1-1.25-3.7h0a90.64,90.64,0,0,1-2.33-11l-.22-1.48a76.2,76.2,0,0,1-.73-7.83l-.14-3.26a72,72,0,0,1,.17-8.81l.34-4.26.91-7q.34-2.75.92-5.45l.49-2.31a98.39,98.39,0,0,1,3-11l.69-2ZM136,360.88,131,360.5l-2.36-.28a46.78,46.78,0,0,1-5.86-1.07h0a13.71,13.71,0,0,1-4.06-1.76l-3.82-2.46-2-1.42q-1.45-1-2.82-2.13l-1-.8h0a29.38,29.38,0,0,1-7.5-5.23l-1.21-1.17c-.8-.76-1.56-1.54-2.3-2.35l-3.39-3.7q-1.57-1.72-3-3.6l-.53-.71a45.48,45.48,0,0,1-4.78-7.91h0a37.63,37.63,0,0,1-1.62-4.08l-1.68-5.11-2-7.43-1.58,7.43-1.8,8.72a43.11,43.11,0,0,0-.87,9.88l0,1a37.66,37.66,0,0,0,.34,4.24l.22,1.63a60,60,0,0,0,1.5,7.5l.64,2.37c.26,1,.56,1.94.9,2.9L81.57,358a49.83,49.83,0,0,0,4.14,8.77h0A34.77,34.77,0,0,0,87.87,370l.94,1.27a42.33,42.33,0,0,0,4.25,4.83l1,.95c.66.64,1.33,1.26,2,1.87l.81.7a36.33,36.33,0,0,0,3.42,2.65l.35.24,1.21-2.32a31,31,0,0,0,2.24-5.47l.6-2h0a18.69,18.69,0,0,1,.6,5.26h0a11.74,11.74,0,0,1-.33,2.5l-.83,3.49.19.11A36,36,0,0,0,111,387h0l3.24.87a12.54,12.54,0,0,0,2.8.41h0a10,10,0,0,0,4.57-.95l1.65-.78,1.78-.92a9,9,0,0,0,2.27-1.66l.65-.65a19.23,19.23,0,0,0,1.9-2.24l1.95-2.74h0a26.44,26.44,0,0,0,3.34-7.5l.12-.45a25.65,25.65,0,0,0,.81-4.42h0a20.78,20.78,0,0,0-.06-4.73ZM364.28,462.13l.27,3.27.4-.4a10.89,10.89,0,0,0,2.19-3.14h0Zm5.23-5.7.41-1.06a31,31,0,0,0,1.65-6.11h0a28.39,28.39,0,0,0,.37-4.31l0-2.5a21.25,21.25,0,0,0-.22-3.38l-.08-.56a24.08,24.08,0,0,0-.63-2.92l-.12-.4a23.7,23.7,0,0,0-1.67-4.23h0a18.08,18.08,0,0,0-1.55-2.48h0a19.8,19.8,0,0,0-2.92-3.08l-.39-.33-.62,6.6-.78,7,.07,2.52c0,.08,0,.15,0,.23l.53,5.32.47,4c.15,1.27.25,2.55.29,3.84l0,.79ZM388.33,285l2.1,3.24,3.58-1.79c1.23-.62,2.43-1.28,3.61-2l3.05-1.83,3.32-2.1-2.94.52a36.17,36.17,0,0,1-7.12.53h0a22.14,22.14,0,0,1-4.37,1.64l-2.1.55Zm30.87-38.86c-.64.6-1.29,1.18-2,1.73l-3.19,2.67-2.91,2.57a50.55,50.55,0,0,1-4.92,3.82h0a44.22,44.22,0,0,1-7.29,4l-.48.21a53.36,53.36,0,0,1-6,2.18l-5,1.45L383,267.4l-4.82,2.8,3,1.05,1.23.47a41.44,41.44,0,0,0,5.35,1.67h0a21.14,21.14,0,0,0,4,.57l.4,0a48.47,48.47,0,0,0,7.33-.25h0a24,24,0,0,0,3.83-.73l2.08-.57c.74-.21,1.47-.43,2.19-.68l1.91-.66a32.07,32.07,0,0,0,5-2.22l1.62-.9c.69-.38,1.37-.79,2-1.22l2.86-1.89.77-.48a23.61,23.61,0,0,0,5.17-4.33h0l.23-.33a10.7,10.7,0,0,0,1.86-5.45h0a2.07,2.07,0,0,0,0-.5l-.29-1.53a5.4,5.4,0,0,0-.75-1.9l-.29-.46a4.1,4.1,0,0,0-.93-1l-.33-.26a7,7,0,0,0-.72-.49h0a25.18,25.18,0,0,0-5.1-2.31l-.82-.27Zm22,13.33a15.54,15.54,0,0,0,.82,3.74h0l1.33,3.85c.27.78.52,1.58.73,2.38l1.51,5.56.78-1.64a54.94,54.94,0,0,0,3.88-10.84h0a37.2,37.2,0,0,0,.71-3.79l.18-1.32a57.15,57.15,0,0,0,.52-8.38h0a45.08,45.08,0,0,0-.76-7.78l-.29-1.54-.09.63a36.89,36.89,0,0,1-1.91,7.68h0a21.78,21.78,0,0,1-1.86,3.86h0a53.05,53.05,0,0,1-4.19,5.91l-1.36,1.67Zm-1-31.46c-.07,1.16-.2,2.33-.38,3.48l-.28,1.74.28,4.21.18,7.86,3.2-4.66,2.65-4.12-2.19-2-.21-.22a11,11,0,0,1-1.78-2.55v0a7.58,7.58,0,0,1-.58-1.59l-.81-3.29Zm7.22.67.38-5.82a50.31,50.31,0,0,0,0-5.89l-.19-3.62-1.5-4.27q-.81-2.3-1.81-4.52h0a59.18,59.18,0,0,0-5.31-9.36l-1.64-2.36,1,5.41.92,5.88.69,5,3.11,9Zm4-5.5,1.31-3.54a63.14,63.14,0,0,0,2.07-6.83l.7-2.95c.23-1,.44-2,.62-3l.18-1a78.67,78.67,0,0,0,1.12-9.91l.05-1.11q.15-3,.06-6.11l-.08-3.05c0-1.29-.13-2.59-.27-3.88l-.36-3.25a56.39,56.39,0,0,0-1.33-7.41l-.47-1.89a40.55,40.55,0,0,0-1.49-4.69h0a18.33,18.33,0,0,0-2.68-4.71L448,156.29l-7.28-9.16-7.5-9.81L429.7,133q-1.35-1.69-2.56-3.51l-3.87-5.8-4.08-6.29,3.53,10.48,2.79,9.29a52.18,52.18,0,0,0,2,5.57l4.78,11.06,3.81,9.08a64.78,64.78,0,0,1,2.38,6.69l2.41,8.17,3.31,12.68,2.87,13,2.06,8.18q.81,3.18,1.35,6.41Zm-16.79-121.3-.08-1.86.4-.64-3.44-2.17a26.75,26.75,0,0,0-3.25-1.75l-4.3-2c-1.07-.49-2.17-.93-3.28-1.32l-4.05-1.43a28.55,28.55,0,0,1-3.65-1.55l-3.23-1.61-2.62-1.39A28.36,28.36,0,0,1,402.3,83l-2.37-2-2.34.56,2.16,1a7.72,7.72,0,0,1,1.12.64h0a21.7,21.7,0,0,1,5.53,5.45h0l.48.54a21.17,21.17,0,0,1,3.72,5.84h0l6.83,5.17a26.48,26.48,0,0,1,2.08,1.73l1.23,1.13a29.63,29.63,0,0,0,8.84,5.63h0Zm-20.3,1.84,1.55,1.34,4.57,3.87,4.72,3.8.21-.11A11.64,11.64,0,0,0,427.8,111h0l-7-3.94-3.38-1.9-3.66-2.39Zm-90-79.54A13,13,0,0,1,328,25.71h0l1.06.13a26.48,26.48,0,0,1,2.78.48l1.2.27-2.33-2.48a10.26,10.26,0,0,0-1-.94l-.87-.68a3.33,3.33,0,0,0-1.14-.58h0a2.84,2.84,0,0,0-1.75.11h0a1.85,1.85,0,0,0-.72.55L324,24.07ZM315.55,24l-.71-.37a12.55,12.55,0,0,0-3.07-1.17h0a31.7,31.7,0,0,0-4.63-.76l-.19,0a32.11,32.11,0,0,0-6.2,0l-3.39.35c-.92.09-1.84.22-2.74.39L289,23.54a27.28,27.28,0,0,0-2.67.64l-2.39.71a24.72,24.72,0,0,0-2.77,1l-5.07,2.16-5.13,2.24-4.3,2.15c-.7.35-1.37.73-2,1.13l-3.85,2.35-3,2-.43.29.8.37,3.41-2a26.78,26.78,0,0,1,2.49-1.3l5.21-2.37a27,27,0,0,1,3.28-1.25L277.92,30,285,28l7.08-1.73,4.89-1.1c.83-.18,1.67-.33,2.51-.45l3.44-.47a29.27,29.27,0,0,1,4.18-.29h6.42ZM392.49,160.5l1.31,10.84a9.68,9.68,0,0,0,.34,1.58l.36,1.15a31.81,31.81,0,0,0,1.14,3.05l.88,2a53.77,53.77,0,0,0,3.23,6.27l.4.68a59.05,59.05,0,0,0,3.69,5.44l2.25,2.93,4.25,5.12-.17-6.84a39.6,39.6,0,0,0-.33-4.36l-1.25-9.7-1.08-13.6-3.81-7-2.31-4.62q-1.29-2.55-2.37-5.21l-2.4-5.84-.54,1.58a42.56,42.56,0,0,1-2.67,6.21l-1.58,3ZM374.42,265.85l3.13-1.81a64.52,64.52,0,0,0,7.34-4.94h0a35.31,35.31,0,0,0,4.4-4.07h0a61.07,61.07,0,0,0,8-11l1.64-2.9q1.2-2.11,2.25-4.32l1.35-2.81a80.91,80.91,0,0,0,4.95-13.05l.51-1.79a75.55,75.55,0,0,0,2.69-15.44v-.08l-.8-.24a11.49,11.49,0,0,1-2.61-1.16h0a5.68,5.68,0,0,1-1.61-1.44L404,198.6a28.64,28.64,0,0,1-2.11-3.21l-.95-1.7a51.85,51.85,0,0,1-3.6-7.92l-1.69-4.7-1.3-3.7-2.72-8.93-2.83-10.66-3.7,5.11-2.07,2.6a39.78,39.78,0,0,1-3.78,4.12l-3,2.81c-.72.69-1.48,1.34-2.25,2L369.56,178a39.42,39.42,0,0,1-5.15,3.53l-6.21,3.55-11,5.88-7.07,4h2.76c.34,0,.67,0,1,0l1.62.11a6.91,6.91,0,0,1,2,.46h0a4.44,4.44,0,0,1,2,1.54l.88,1.23.26.13.23.12a11.3,11.3,0,0,1,3.63,2.88h0a10,10,0,0,1,1.69,3h0a5.05,5.05,0,0,1,.32,1.58h0a7.32,7.32,0,0,1-.43,2.86l-1.24,3.4.05-2.11a21.29,21.29,0,0,0-.54-5.28h0a7.27,7.27,0,0,0-.92-2.25l-.12-.19a11.14,11.14,0,0,0-3-3.23h0l-1.91-.42a10.46,10.46,0,0,0-2.08-.25l-2.21,0a13.88,13.88,0,0,0-5.26.94l-1.47.58c-.67.26-1.32.55-2,.87l-3.63,1.78a16.44,16.44,0,0,0-4.74,3.53l-.24.25a9.09,9.09,0,0,0-1.3,1.79h0a8.27,8.27,0,0,0-.82,2.08l-.49,2h0a24.73,24.73,0,0,0,7.48,3.12l4.82,1.13,7,1.62c.35.08.7.17,1,.28h0a8.15,8.15,0,0,1,3.87,2.57h0l.14.21L351,226c.47.91.91,1.84,1.31,2.78l1.52,3.63q.39.94.72,1.89l2.23,6.35c.25.72.53,1.43.85,2.12h0a22.41,22.41,0,0,0,2.6,4.37l3.35,4.38,6.09,8.28Z"/></g></g></svg>