<svg xmlns="http://www.w3.org/2000/svg" viewBox="0 0 806.11 1205.16"><defs><style>.cls-1{fill:#fff;}</style></defs><title>eriri-1</title><g id="レイヤー_2" data-name="レイヤー 2"><g id="レイヤー_3" data-name="レイヤー 3"><path class="cls-1" d="M536.53,66.71l11.56,1,13.45,1.53,12.8,2.13c2.47.42,4.93.9,7.37,1.47l12.23,2.82,12.81,3.49q4,1.1,7.94,2.43l13.19,4.48,10.17,3.31q3.88,1.27,7.7,2.79l3.84,1.54,7.5,1.07c2.13.3,4.25.68,6.35,1.12l2.62.55a65.21,65.21,0,0,1,11.36,3.51l4.53,1.87a59,59,0,0,1,7.74,3.9l11.56,6.93,16.2,9.48,6.66,3.88q4.35,2.53,8.48,5.42l2.63,1.83a68.41,68.41,0,0,1,6.36,5l8,7.08,8.26,7.34,11.62,11,6.7,6.7a63.47,63.47,0,0,1,5.71,6.55l1.21,1.59a85.4,85.4,0,0,1,5.32,7.91l1.15,1.93a77.48,77.48,0,0,1,4,7.73L796,201.6a57.55,57.55,0,0,1,2.2,5.63l1.57,4.71q.84,2.51,1.52,5.06l.85,3.18c.61,2.29,1.12,4.61,1.53,6.94l.51,2.94a95,95,0,0,1,1.31,11.65l.32,6.37.3,12.84v4.93a82.91,82.91,0,0,1-1,12.68h0a80.41,80.41,0,0,1-2.5,11.06h0a62.32,62.32,0,0,1-2.68,7.29l-.59,1.32a75.9,75.9,0,0,1-5.7,10.58l-.22.33a82.38,82.38,0,0,1-7.15,9.49h0a71.15,71.15,0,0,1-9.52,9.09h0a74.75,74.75,0,0,1-7.71,5.37l-3.2,1.94c-1.91,1.15-3.85,2.25-5.83,3.28L756,340.4,747.72,345,741.3,356.6,735,367.9a98,98,0,0,1-5.61,8.91L723.57,385l-2.94,4.41a109.35,109.35,0,0,1-11.19,14.09h0q-3.3,3.51-6.93,6.67l-.67.58A121.9,121.9,0,0,1,691,419.2l-3.22,2.22-8.59,5.39q-4.56,2.87-9.36,5.26l-9.26,4.63-13.76,6.73-14.06,6.72-11,5.81-11.91,6.22q-2.15,1.13-4.22,2.38l-6.24,3.77a55.26,55.26,0,0,0-6.29,4.44h0q-3.74,3.06-7.22,6.42l-5.08,4.9L581.9,495l1.57,15.93c.18,1.84.3,3.69.37,5.54l.57,15.42,1.67,27.2,7.84,4.85,7.35,4.84,4.76-5.48c1.27-1.47,2.62-2.87,4-4.21l5.25-5c1.54-1.46,3.13-2.88,4.75-4.26l7.41-6.32a66.84,66.84,0,0,1,7.78-5.69l7.53-4.69c1.7-1.06,3.46-2.05,5.25-3l5.75-2.93A73.41,73.41,0,0,1,661,524l6.34-2.41c1.42-.53,2.86-1,4.31-1.49l7.4-2.35c2.44-.78,4.92-1.47,7.41-2.06l4.89-1.16a41,41,0,0,1,7.64-1.06l5.59-.25,9-.21h2.71a61.23,61.23,0,0,1,12.52,1.29l1,.21c1.93.4,3.85.88,5.74,1.44l5.09,1.51q3.42,1,6.75,2.28l5.5,2.1,9.17,3.67a17.53,17.53,0,0,1,2.57,1.27l.67.4a23.86,23.86,0,0,1,4.24,3.25l.55.53a22.23,22.23,0,0,1,4.74,6.59l.14.3a26.5,26.5,0,0,1,2.08,6.5l.25,1.37a25,25,0,0,1,.39,4.41v.44a4.94,4.94,0,0,1-1.59,3.64h0a3.94,3.94,0,0,1-2.69,1H768.1l-7.35.21-3.16,5.26-1.61,2.5a68.55,68.55,0,0,1-5.72,7.62h0A31.34,31.34,0,0,1,748,573.2l-1.75,1.62h0a22.78,22.78,0,0,1-7.36-1.23l-8-2.76-11.15-3.58-9-2.6a34.8,34.8,0,0,0-6.86-1.25l-2.24-.17c-1.5-.12-3-.18-4.52-.18h-4.25c-1.68,0-3.36.06-5,.19l-3.15.24a24.57,24.57,0,0,0-5,.9l-1.33.38a23.09,23.09,0,0,0-4.09,1.59l-2.21,1.1a26.06,26.06,0,0,0-4.75,3.07l-2.65,2.17q-3.13,2.55-6,5.37l-5.3,5.17-7.15,6.52-8.83,7.35,1,6.1.79,6a65.48,65.48,0,0,1,.54,7.27l.14,8.54.21,8.2,3.31,5.33q2.13,3.43,4,7l3.42,6.49,5.3,9.73,6.9,13.61,6,13.43,2.37,5.59q2,4.85,3.61,9.87l.67,2.15c.63,2,1.2,4.13,1.69,6.22l.58,2.48q.63,2.69,1.07,5.42l.82,4.95c.34,2.07.6,4.15.8,6.23l0,.44a143.8,143.8,0,0,1,.61,15.53l-.06,3.71-.44,7a65.86,65.86,0,0,1-1.09,8.5l-.26,1.29a40.29,40.29,0,0,1-2,6.84l-.29.74q-.88,2.29-2,4.5l-1,1.95a79.43,79.43,0,0,1-4.55,8l-3,4.6-4.58,6.59a69.14,69.14,0,0,1-5,6.33L655,810.3c-1.59,1.79-3.12,3.64-4.56,5.55L645.74,822c-1,1.28-2,2.52-3,3.74l-6,7-6.9,8-4.24-9.9-1.77-4.7A44.12,44.12,0,0,1,621,812.47h0a16.32,16.32,0,0,1,.17-3.2h0a9.74,9.74,0,0,1,2.74-5.46l1.09-1.08h0a63.76,63.76,0,0,1,6.81-6.23l.61-.49h-7.18a8.85,8.85,0,0,0-2.55.38h0a9.47,9.47,0,0,0-4,2.37h0a7.22,7.22,0,0,0-1.82,3.11h0a16.89,16.89,0,0,1-2.25,4.9h0a20.43,20.43,0,0,1-3,3.59l-.92.86L614.93,836l2.93,21.09,3.52,29.48,4.1,44.32,5.27,44.71,2.73,39.83,2.34,32.21,1,19.53.65,24c.09,3.26.09,6.53,0,9.79l-.18,6.92c-.06,2.27-.2,4.55-.41,6.81l-.1,1.07a70.6,70.6,0,0,1-1.11,7.4h0a34.31,34.31,0,0,1-2.51,7.59l-1,2.21-.71,1.18a73.91,73.91,0,0,1-9.25,12.29h0l-.47.4A38.42,38.42,0,0,1,611,1153.3h0l-4.2.76a25.44,25.44,0,0,1-4.53.41h-1.63a23.23,23.23,0,0,1-4.24-.39l-1-.19a22,22,0,0,1-4.14-1.2l-3.84-1.54-4.89-2h0a15.54,15.54,0,0,1-5.41,6.65l-1.69,1.17a15.61,15.61,0,0,1-2.31,1.34l-3.41,1.6a26.48,26.48,0,0,1-3.34,1.29l-6.64,2.08a14.78,14.78,0,0,1-2.07.48l-2.47.38a13,13,0,0,1-3.12.1l-.5,0a18.39,18.39,0,0,1-4.7-1l-1.1-.4a40.85,40.85,0,0,1-7-3.28l-8.57-5.06-12-7.58q-4.4-2.76-8.55-5.86l-11.07-8.23-13.52-9.11a104.82,104.82,0,0,0-10.41-6.18l-19.8-10.29-23-12.4q-3.78-2-7.7-3.81l-12.23-5.48q-4.74-2.13-9.65-3.83l-26.13-9-24.5-8q-4.2-1.38-8.51-2.41l-13.23-3.17c-.8-.19-1.62-.36-2.44-.5l-8.73-1.55-8.76-1.18a35.29,35.29,0,0,0-5.54-.31l-2.77.07a27.3,27.3,0,0,0-4.85.55l-3.75.77a26,26,0,0,0-2.88.77l-3.47,1.16a37.69,37.69,0,0,0-5.29,2.22l-4.11,2.1a38.13,38.13,0,0,0-4.79,2.9l-5.65,4a37.35,37.35,0,0,0-4.18,3.47l-3.89,3.77L257,1079a41.34,41.34,0,0,0-5.22,5.76h0l1.14,3.57a8.74,8.74,0,0,1,.42,2.69h0a10,10,0,0,1-1,4.42h0a8.45,8.45,0,0,1-1.31,1.88l-2,2.11c-1.68,1.8-3.44,3.54-5.26,5.2l-3.37,3.08q-2.88,2.63-5.48,5.51l-1.24,1.38a83.59,83.59,0,0,0-6.29,7.86l-1.3,1.84a88.64,88.64,0,0,0-8.21,14.23l-.85,1.84q-1.17,2.56-2.21,5.21l-2.65,6.78q-1.2,3.08-2.15,6.23l-2.78,9.19q-.76,2.49-1.71,4.91l-3.34,8.52-2.78,7.81a14.44,14.44,0,0,1-.83,1.89l-.05.09a30.07,30.07,0,0,1-3.35,5.07l-.9,1.11a32.47,32.47,0,0,1-3.18,3.35h0a17.38,17.38,0,0,1-5.38,3.31h0a18.59,18.59,0,0,1-6.33,1.27l-1.1,0a19.44,19.44,0,0,1-6-.77h0c-1.18-.34-2.34-.73-3.48-1.16l-1.41-.53-1.41.37a21.61,21.61,0,0,1-4.67.71h0a12.94,12.94,0,0,1-4.15-.49h0a5.09,5.09,0,0,1-3.09-2.47l-.15-.26v-12.89l.68-35.3q.1-5.5.52-11l.44-5.9a132,132,0,0,1,1.71-13.44l2.31-12.85,1.08-6.16a119.39,119.39,0,0,1,4.8-18.52l1.57-4.52a112.43,112.43,0,0,1,4.42-10.87l2.47-5.27a82.92,82.92,0,0,1,5.12-9.34l4.78-7.52a27.88,27.88,0,0,0,2.54-5.1l.11-.29a41.14,41.14,0,0,0,1.89-6.72h0a17.4,17.4,0,0,0,.31-3.3h0a9,9,0,0,0-1.05-4.22h0a3.58,3.58,0,0,0-1.45-1.46l-1.2-.66h0a35.17,35.17,0,0,0-4.15,5.49l-4.64,7.59-5.86,10.35-5.07,10-4.49,9-4.18,9c-.34.74-.7,1.47-1.09,2.19L153,1083.6l-2.14,3.77a29.56,29.56,0,0,1-2.69,4l-.09.1a19.35,19.35,0,0,1-4,3.71l-.42.29a27.93,27.93,0,0,1-5.57,3h0a12.13,12.13,0,0,1-2.77.77l-3.6.54a18,18,0,0,1-2.84.22H127.7a22.3,22.3,0,0,1-6.29-.9h0a7.65,7.65,0,0,1-2.87-1.56l-1.47-1.25-2.3.11a7,7,0,0,1-3.41-.72h0a3.58,3.58,0,0,1-1.65-1.7h0a10.77,10.77,0,0,1-1-4.6v-.5a50,50,0,0,1,.39-6.24l.94-7.53a87.31,87.31,0,0,1,1.8-9.87l1.91-7.94a68.83,68.83,0,0,1,2.52-8.17l5.91-15.71,4.56-11.33q1.1-2.73,2.39-5.37l7.23-14.89q1.83-3.75,4-7.33l10.17-17.11,11.32-19.72,6.05-9.37-9.17-3.91-8.59-3.71,5.27-15.23,8.17-22a78.61,78.61,0,0,1,3.17-7.37l5.84-11.82,9.37-19.33L187,868a28.22,28.22,0,0,0,2.7,1.47l2.62,1.27a30.11,30.11,0,0,0,4.22,1.67l3.55,1.12a9.79,9.79,0,0,0,2.27.43l4.7.31,4.14.13A14.92,14.92,0,0,1,215,875h0a29.55,29.55,0,0,1,8.8,4.27l2,1.42,5.86,4.1,5.53,3.51c1.65,1,3.26,2.15,4.82,3.32l6.83,5.08,5.87,4.4a5.24,5.24,0,0,1,1.7,2.22h0a5.33,5.33,0,0,1,.22,3.23l-.76,3,11,5.65c1,.53,2.06,1,3.1,1.5l20.1,9.05,36.71,13.28,36.7,11.32L400,963.52l20.7,6.84,15,5.27,11.72,3.12-7-10a141,141,0,0,1-8.35-13.64l-2.38-4.43q-5.16-9.6-9.59-19.55l-5.91-13.28L406,900.66l-7.2-14.94a147.58,147.58,0,0,0-8.38-15.07l-3.05-4.8h0a67.12,67.12,0,0,0-11.73,3.86h0a17.62,17.62,0,0,0-2.47,1.3l-8.81,5.53-14.65,10.7-9.3,6.27-9.77,6.28-6.14-7.27q-5.25-6.21-9.86-12.92l-6.51-9.49a73.63,73.63,0,0,0-4.57-6L299.18,859a31.65,31.65,0,0,0-2.24-2.39l-1.4-1.33a33.61,33.61,0,0,0-6.61-4.94h0a26.07,26.07,0,0,0-6.13-2.53l-4.87-1.31q-4-1.08-8-1.86L251.15,841l-13.83-2.64A75.64,75.64,0,0,1,224,834.46l-.93-.36q-4.42-1.74-8.67-3.9l-1.81-.92a38.59,38.59,0,0,1-10.32-7.67h0a17.76,17.76,0,0,1-1.93-2.38l0,0a58.27,58.27,0,0,1-7-14.13l0-.13-1.3-5.2a22,22,0,0,1-.49-2.65l-1.23-10.29-.8,1.42a52.82,52.82,0,0,0-4.05,9.17h0a18.82,18.82,0,0,0-1,6v8.82a81.08,81.08,0,0,0,1,12.45l.44,2.88.46,3.72.23,2.07a5.78,5.78,0,0,1-.94,3.88l-.68,1h0a17.65,17.65,0,0,1-6.22-5.19L177,830.74a20,20,0,0,1-2.34-4h0a50.72,50.72,0,0,1-3.61-12l-.11-.67a55.52,55.52,0,0,1-.78-8.13l-.05-2.64a66.54,66.54,0,0,1,.41-8.82l.2-1.65-14,.93-13.72.39c-1.7.05-3.4.14-5.09.28l-6.76.55a19,19,0,0,0-4.09.81l-.46.15c-2.24.71-4.44,1.54-6.6,2.46l-8.15,3.5-8.12,3.67a17.71,17.71,0,0,1-3.41,1.13l-6.88,1.51a13.57,13.57,0,0,1-1.79.27l-8.38.67a10.83,10.83,0,0,1-4.55-.62l-1.09-.39a21.35,21.35,0,0,1-3.49-1.64l-3.79-2.23a2.58,2.58,0,0,1-1.28-2.23h0a1.46,1.46,0,0,1,.43-1h0a7.84,7.84,0,0,1,5.13-2.29l2.85-.16a44,44,0,0,0,5-.58l2.52-.44a37.08,37.08,0,0,0,5.68-1.49l6.52-2.28,4.53-1.79a62.86,62.86,0,0,0,6.14-2.8L120,782.84l-16.51,3.49L92.41,789c-1,.23-2,.43-2.93.6l-4.78.79a51,51,0,0,1-9.88.68l-3.4-.09-8.12-.39c-1.09-.05-2.19-.14-3.27-.27l-2.12-.26a7.87,7.87,0,0,1-3.74-1.48h0a16,16,0,0,1-4.43-5h0a11,11,0,0,1-1.38-4.12h0a2,2,0,0,1,1.24-2.09h0a5,5,0,0,1,1.87-.36H54a9.22,9.22,0,0,1-2.91-5.17l-.19-1a5.79,5.79,0,0,1-.08-1.66h0a1.85,1.85,0,0,1,1.64-1.65l2.06-.22c.58-.06,1.16-.09,1.75-.11l6.82-.14a57,57,0,0,1,6.91.27l2.22.23a74.24,74.24,0,0,0,11.93.21l8.44-.55-7.31-1.78a22.51,22.51,0,0,1-2.54-.77l-5.8-2.14a13.66,13.66,0,0,1-3.33-1.77l-.7-.51a20.16,20.16,0,0,1-3.5-3.22l-.38-.44a9.45,9.45,0,0,1-1.39-2.19h0a6.1,6.1,0,0,1-.55-2.86l0-1.05a2.21,2.21,0,0,1,2.43-2.1h0a38.9,38.9,0,0,0,8.4,4.1h0c.6.21,1.21.4,1.83.56l6.8,1.83a62.14,62.14,0,0,0,10.76,1.88l8.25.7,2.63-.07a58,58,0,0,0,12.24-1.64l1.38-.34q3-.75,6.05-1.68l5.43-1.69c1.35-.42,2.7-.89,4-1.4h0a37.62,37.62,0,0,0,9.63-5.47l2.71-2.11a19.77,19.77,0,0,0,7.15-11.48h0a17.68,17.68,0,0,0,.38-3.63v-5.7a45.76,45.76,0,0,1,.32-5.36l.43-3.55a5.78,5.78,0,0,1,1-2.64l.3-.42a6.23,6.23,0,0,1,5.05-2.58H177l4.89-13,4-10a90.52,90.52,0,0,1,5.94-12.16l5.41-9.25q1.64-2.79,3.43-5.47l13.08-19.41,10-14.88,8.83-12.79,4.69-6.12a69.71,69.71,0,0,0,7.5-12.24l1.6-3.32c.57-1.2,1.18-2.38,1.83-3.55l6.24-11.27,9.07-17-5.05,4.26c-1.6,1.34-3.25,2.62-5,3.82l-7,4.94L242,573.16c-1.68,1.05-3.39,2.05-5.13,3l-4.82,2.56-6.51,3.72v2.3a56.59,56.59,0,0,1-.69,8.82v.1a48.69,48.69,0,0,1-1.29,5.84l-.69,2.43a47.3,47.3,0,0,1-3.4,8.58l-1.09,2.11c-.34.65-.7,1.28-1.08,1.9h0a32,32,0,0,1-7.93,8.74h0a47.89,47.89,0,0,1-8.13,5l-2.34,1.12a38.06,38.06,0,0,1-9.42,3.07l-2.36.43a46.44,46.44,0,0,1-10.66.73l-9.74-.45-11.65-.92a41,41,0,0,1-5.93-.91l-2.62-.6a43.38,43.38,0,0,1-10.68-4L127,621.94l-11.06-6.64c-1.15-.69-2.27-1.41-3.37-2.18l-8-5.59a45.64,45.64,0,0,1-6.23-5.21l-6.52-6.53a51.19,51.19,0,0,1-4.16-4.67l-5.1-6.44c-.58-.74-1.12-1.49-1.64-2.26l-9.46-14.19-2.55-4-12.33-5.11-6.64-3.09A58,58,0,0,1,38,548.72l-3-2.44A63.21,63.21,0,0,1,24.86,536l-3.49-4.47q-2-2.6-3.8-5.37l-2.8-4.41a66.61,66.61,0,0,1-3.53-6.27L9,510.86a67,67,0,0,1-4.58-12.18L3,493.48A79.85,79.85,0,0,1,.58,480l-.17-1.92a99,99,0,0,1-.32-13.23l.25-6.1a78.87,78.87,0,0,1,.74-8l1.47-10.35A55.67,55.67,0,0,1,5,430.26l2.82-8.12a70.28,70.28,0,0,1,3.56-8.45l7.24-14.49,10.55-19.43a97.58,97.58,0,0,1,6-9.63l10-14.22q2.1-3,4.46-5.78l5.79-6.87a157,157,0,0,1,17.7-17.85l1.82-1.55,7-16.64q2.08-5,4.63-9.77l11.18-21,10.46-17.67,14.42-22.32,15.34-21.62,10.93-14.52a123,123,0,0,1,10-11.71l11.82-12.13-10.49,5.32c-2.77,1.41-5.5,2.92-8.16,4.53l-13,7.82-14,9q-2.28,1.47-4.49,3.06l-7.5,5.4q-1.92,1.38-3.75,2.88l-6.51,5.32c-1.26,1-2.48,2.1-3.68,3.21l-10.53,9.73L76.77,243.65,70.06,250c-1.73,1.63-3.39,3.34-5,5.11L60.7,260a65.64,65.64,0,0,0-7.38,9.88l-5.15,8.43-4.54,7.53a92.42,92.42,0,0,0-5.19,9.91l-3.73,8.33c-.63,1.42-1.22,2.87-1.74,4.33L29.23,318.8c-.55,1.52-1,3.05-1.46,4.61l-2.62,9.52-3.52,13.94c-.75,2.95-1.37,5.94-1.85,8.95l-.73,4.52a69.43,69.43,0,0,0-.81,8l-.76,17.36-.19-27a69.33,69.33,0,0,1,.78-11L19.38,339q.66-4.41,1.76-8.75L24,318.89A103.23,103.23,0,0,1,28,306.76l3.51-8.95a108.61,108.61,0,0,1,8.39-16.91l8.09-13.3,11-14a123.69,123.69,0,0,1,9.74-11l16.9-16.89,20-18.69a139.54,139.54,0,0,1,17.89-14.17L139.78,182l13.49-8.84-3.55-1.66a9,9,0,0,1-3-2.21h0a10.5,10.5,0,0,1-2.07-3.59h0a6.61,6.61,0,0,1,.1-4.43l.57-1.51,1.66.29c2.3.4,4.63.69,7,.89H154a65.82,65.82,0,0,0,9.83.1h0a55.5,55.5,0,0,0,7-.88l3.92-.75,10.41-10.06,7.23-7.06-2.79-5.45a29.61,29.61,0,0,1-1.81-4.41l-.43-1.34a23,23,0,0,1-1-8.49h0a3.53,3.53,0,0,1,.6-1.74l.18-.25a27,27,0,0,1,5.46-5.93h0a31.72,31.72,0,0,1,6.9-4.23l3.87-1.74c.7-.31,1.42-.6,2.14-.87l7.72-2.87a25.42,25.42,0,0,1,4.37-1.18l3.42-.61a66.1,66.1,0,0,1,6.73-.82l9.49-.65,11.3-.35h4.94L254.76,94l1.41-8.3h0a39.13,39.13,0,0,1,3.76-12.08l.21-.41q1-2.07,2.18-4.08l5.7-10c1.06-1.86,2.2-3.69,3.4-5.47l.25-.37A94,94,0,0,1,284.19,38.4h0A53.66,53.66,0,0,1,289,34.22l7.7-5.89,5.65-3.93A78.24,78.24,0,0,1,311.34,19l10.1-5.22a57.36,57.36,0,0,1,5.6-2.52L332.71,9a84.67,84.67,0,0,1,12.76-3.81l1.37-.29a84.18,84.18,0,0,1,9.59-1.49l8.25-.79c1.73-.17,3.45-.27,5.18-.3l8.42-.16a76.59,76.59,0,0,1,8.7.32l5.3.49,5-1.17A61.46,61.46,0,0,1,407.92.31L411.2.13c1.66-.09,3.31-.13,5-.13h10.17l7.52.29a69.35,69.35,0,0,1,15.43,2.38l2.37.65,16,4.52,11.9,4c1.71.57,3.41,1.2,5.08,1.88l.86.35a58.34,58.34,0,0,1,14.36,8.37L502,24.11l9.34,8.09a51.29,51.29,0,0,1,7.56,8.16h0a39.11,39.11,0,0,1,5.56,10.56l1.35,3.93-7.23-8.44-7.14-8.22a59.28,59.28,0,0,0-6.05-6l-1.64-1.41a80.68,80.68,0,0,0-12.82-9h0A63.7,63.7,0,0,0,482,17.54l-2.73-1a77,77,0,0,0-12.71-3.59l-4.33-.83c-2.22-.42-4.45-.75-6.7-1h0a95.65,95.65,0,0,0-12-.41l-15.4.43,4.44.91A147.12,147.12,0,0,1,447,15.8h0a63.56,63.56,0,0,1,6.7,2.53l2.46,1.08q4.51,2,8.84,4.34h0a118.87,118.87,0,0,1,12,7.47l1.45,1,2.74,2.14a88.72,88.72,0,0,1,8,7h0a42.36,42.36,0,0,1,5.61,6.92l.2.32q1.27,1.95,2.66,3.84h0a31.83,31.83,0,0,1,3.29,5.61l3.46,7.57h13.87l7.16.21c2.26.06,4.51.2,6.76.4ZM547,181l2.11-1.05.35-.26a72.9,72.9,0,0,1,8.09-5.28h0L549.61,166l-5.15-6a43.58,43.58,0,0,0-3-3.19l-8.68-8.24-8.7-8.17,6.59,12.13,2.7,5.59q1.24,2.58,2.27,5.27l2.75,7.23a68.29,68.29,0,0,1,2.15,6.63l1.73,6.39Zm-54.51,23.49.56,0a63.38,63.38,0,0,1,6.57.82l4.48.8,9.4,1.94L511.53,206a6.25,6.25,0,0,1-1.66-4.23v-2c0-.74,0-1.47.1-2.21h0a4.16,4.16,0,0,1,1.78-3.05h0a4.45,4.45,0,0,1,2.59-.82h3c.37,0,.73,0,1.1,0l5.26.5.83-2.08a1.46,1.46,0,0,1,1-.88h0A8.86,8.86,0,0,1,528,191h5.08l3-3-3-5.51a54.34,54.34,0,0,0-3.71-5.88l-5.15-7.13L517.52,159a98.86,98.86,0,0,0-6.37-8.73l-5.46-6.69q-2.18-2.67-4.61-5.11l-3.68-3.67a35.7,35.7,0,0,0-6-4.83l-3.66-2.36c-1.1-.72-2.24-1.38-3.4-2l-4.06-2.13,1.21,5.18a39.1,39.1,0,0,0,1.94,6.08l1.27,3.12L487.2,144l2.49,6.36,2.9,6.84a42.51,42.51,0,0,1,1.67,4.67l.76,2.61a16.49,16.49,0,0,1,.62,3.35h0a43,43,0,0,1-.19,9.28l-.51,3.94-1.27,7.44c-.26,1.49-.58,3-1,4.43l-3,11.35Zm60.78,46.55-5.65-4.15A30.29,30.29,0,0,0,545,245.2l-2.73-1.61c-1.21-.7-2.39-1.45-3.55-2.23l-4.56-3.1L527,233l-8.74-6.1-4.15-2.81a43.86,43.86,0,0,0-4.47-2.66l-1.19-.62a37.61,37.61,0,0,0-4.94-2.11l-4-1.36-5.88-1.73c-.69-.2-1.37-.43-2.05-.68l-4.47-1.66-1.83-.81-.61,4.47L483.59,223c-.2,1.09-.43,2.18-.69,3.26l-1.3,5.31a18.43,18.43,0,0,1-1.61,4.24h0a20.92,20.92,0,0,1-2.27,3.47h0a7.15,7.15,0,0,1-2.83,2.12h0a11.61,11.61,0,0,1-3.67.85l-3.77.25c-.28,0-.57,0-.85,0h-5.47l-6.71.21-3.87,13.42-3.25,12.6,9.76,2,7.42,1.68a62.28,62.28,0,0,0,6.78,1.14l8.58,1c1.62.18,3.25.31,4.89.38l11,.5,12.6.82-.08-1.45c-.08-1.34-.23-2.67-.44-4h0a9.33,9.33,0,0,0-1.29-3.49l-1.64-2.65-4.48-6.92,6.1,4.88L510.3,266a23.06,23.06,0,0,1,3.67,4l1.1,1.52a8.83,8.83,0,0,1,.94,1.6l1.65,3.62,10.37.65a35.26,35.26,0,0,1,5.22.73l3.93.86,6.57,1.12c1.17.2,2.34.46,3.49.77l.51.14.09-1.13a28.86,28.86,0,0,1,1.58-7.29l.77-2.15.42-7.18a37.51,37.51,0,0,1,.92-6.31l.51-2.18a12.27,12.27,0,0,1,.46-1.57Zm9.67,5.53v4.7l-.08,2.4a30,30,0,0,0,.26,4.92l.45,3.2,3.61-.31,3.92-.32v-2.12a40,40,0,0,1,.62-7l.17-.92h0a38,38,0,0,0-7.34-3.91Zm173.39,92-8.37,1.05c-1,.13-2.09.22-3.14.28l-10.38.54c-1.47.08-2.93.1-4.39.07h0a68.3,68.3,0,0,1-15.71-2.24h0a5.67,5.67,0,0,1-1.37-.57l-6.53-3.78a14.48,14.48,0,0,1-3.92-3.31l-1.26-1.5c-.53-.64-1-1.32-1.5-2l-1-1.49a9.85,9.85,0,0,1-1.58-4.24l-.21-1.67-3.7,3.17a59.69,59.69,0,0,1-6.86,5.09l-1.1.7a35.4,35.4,0,0,1-7.38,3.57l-5.1,1.76c-2.61.9-5.26,1.68-7.94,2.32l-13.79,3.33a56.59,56.59,0,0,1-5.64,1.06l-16.28,2.22c-1.81.25-3.64.43-5.46.56L581.61,355l-15.07,1.65a83.57,83.57,0,0,1-10.61.49l-3.23-.05A84.9,84.9,0,0,1,540.58,356l-9.13-1.5,6.71,5.22,7.53,6c.77.62,1.52,1.26,2.26,1.93l3.75,3.42a35.54,35.54,0,0,1,6.17,7.39l1.88,3a56.43,56.43,0,0,1,3.93,7.46l.8,1.83-4.37-3.31a56,56,0,0,1-7.1-6.4l-1.54-1.65q-2.15-2.3-4.48-4.37l-8.83-7.86,8.69,12.67,6.62,9q1.57,2.14,3,4.41l4.13,6.56a71.61,71.61,0,0,1,5.07,9.56l3,7,3.88,8.24a58.19,58.19,0,0,1,3.39,9.13l.6,2.17c.38,1.37.71,2.76,1,4.15l1.16,5.7c.59,2.91,1,5.86,1.34,8.82l1.29,12.93,1.73-2.64a79,79,0,0,1,6.58-8.66l2.47-2.83a74.78,74.78,0,0,1,5.56-5.7l3.16-2.92a52.27,52.27,0,0,1,7.74-5.91l2.06-1.29a40.19,40.19,0,0,1,3.58-2l14.55-7.05-11.57-2.22a14.83,14.83,0,0,1-2.62-.76L611,424.08a59.68,59.68,0,0,1-17.18-10.46h0L588,407.24a26,26,0,0,1-2.56-3.35l-2.67-4.13a32.73,32.73,0,0,1-2.06-3.71L578,390.21a11.79,11.79,0,0,1-.57-1.38l-1.21-3.38a33.15,33.15,0,0,1-1.5-5.88l-.49-3.13a17,17,0,0,1-.16-3.63h0a26.91,26.91,0,0,1,3-10.63l.63-1.2v3.82a16,16,0,0,0,.43,3.72l.8,3.43a20.24,20.24,0,0,0,2.48,6l2.74,4.42.23.35a39.92,39.92,0,0,0,7.86,9h0a44,44,0,0,0,8.3,5.61l1.79.94a47.36,47.36,0,0,0,9.75,3.79l2.41.64c2.45.66,4.92,1.22,7.41,1.71l8,1.54c2.47.47,5,.85,7.46,1.11h0a91.21,91.21,0,0,0,15.85.31l.77-.05a67.36,67.36,0,0,0,12.21-1.94l2.62-.67a54.44,54.44,0,0,0,7.85-2.64l5.61-2.36h0A75.14,75.14,0,0,0,699.1,389l2.46-2.07a91.19,91.19,0,0,0,7.05-6.57l10.31-10.68,1.67-1.71a135.59,135.59,0,0,0,15.71-19.4ZM679.48,322a14.94,14.94,0,0,0,4.17-4.71h0l.36,4.92a18.07,18.07,0,0,0,.89,4.42h0a7.14,7.14,0,0,0,2.38,3.39h0a32.41,32.41,0,0,0,7.35,4.4h0A35.63,35.63,0,0,0,705,337.1l1.94.2a58.13,58.13,0,0,0,8.85.24l5.24-.26a47.87,47.87,0,0,0,8.91-1.29l3.93-.95a50.24,50.24,0,0,0,6.35-2l6.88-2.65.79-6.68a69.2,69.2,0,0,0,.48-7.33l.09-7.68c0-2,0-4-.16-6l-.55-8.21c-.2-3-.52-6.06-.94-9.06L745,272.81a57.92,57.92,0,0,0-1.63-7.7l-3.66-12.92A101.2,101.2,0,0,0,735,239h0a87.35,87.35,0,0,0-7.42-13.47l-3.41-5.09q-1.22-1.81-2.55-3.56l-9.36-12.27-7.42-9.05a104.91,104.91,0,0,0-8.08-8.78l-8.83-8.57a82.44,82.44,0,0,0-9.78-8.12l-3.68-2.59a65.93,65.93,0,0,0-6.28-3.93l-11.66-6.42a94.35,94.35,0,0,0-8.59-4.16l-15.26-6.45A101.35,101.35,0,0,0,622,142.73l-20.68-6.1-22.41-5.49c-2.7-.66-5.42-1.22-8.16-1.66l-19.54-3.19-14.89-2.22c-3.39-.5-6.8-.84-10.22-1l-13.43-.63,9.19,13.21c1.34,1.93,2.59,3.94,3.74,6l2.64,4.77A72,72,0,0,1,533,157l4,11.21a67.13,67.13,0,0,1,2.49,8.82l1.86,8.82,4.75-3.64c.34-.26.68-.51,1-.74l2.23-1.46c.84-.54,1.71-1.05,2.6-1.51l.38-.2a21.9,21.9,0,0,1,5.6-2l.39-.09h0a13,13,0,0,1,4.27,4.17l2.37,3.73a66.14,66.14,0,0,0,5.89,7.95l1.14,1.32,1.94-1a14,14,0,0,1,2.15-.91l.83-.28a14.71,14.71,0,0,1,4.65-.76h1.55a8.35,8.35,0,0,1,2.89.52h0a8,8,0,0,1,3.28,2.27l4.26,4.92,6.13,7.54,9.46,11.56,7.36,5.08,2.63,1.79A74.86,74.86,0,0,0,631,230.66l.1.05,2.74,4c1.09,1.62,2.12,3.29,3.07,5h0a84.69,84.69,0,0,0,4.94,7.89l4.85,6.88,7.53,11.39,7.36,11.38,6.66,11,2.37,4.15a61.09,61.09,0,0,1,5,11.13l1.07,3.21c.33,1,.62,2,.86,3l.27,1.08a60.39,60.39,0,0,1,1.62,10.7l0,.36ZM754,327.15a59.68,59.68,0,0,0,13.78-8l.57-.45,5.47-5.87c1-1,1.89-2.11,2.77-3.21l6.88-8.6,4.3-7.58c.72-1.26,1.4-2.54,2.05-3.84l1.1-2.19a65.76,65.76,0,0,0,4.78-12.73h0a72.44,72.44,0,0,0,1.69-8.39l.89-6.34a84.5,84.5,0,0,0,.82-11.68v-1.52q0-3.12-.2-6.23l-.27-4.36a59.13,59.13,0,0,0-1.38-9.54l-1.4-6.17a42.72,42.72,0,0,0-2.36-7.23l-.16-.38a55,55,0,0,0-5.32-9.62l-1.38-2a78.7,78.7,0,0,0-5.14-6.66l-4.14-4.8q-2.6-3-5.41-5.84l-8.27-8.27a60.48,60.48,0,0,0-8.74-7.23L748.48,164c-1.1-.75-2.21-1.46-3.34-2.14l-3.74-2.27a84.56,84.56,0,0,0-11.61-5.83l-13.44-5.48,7.61,9.05c1.24,1.48,2.43,3,3.55,4.59l4.37,6.15a73.65,73.65,0,0,1,4,6.22L742,185q1.56,2.73,2.92,5.57l3.35,6.92A80.73,80.73,0,0,1,752.41,208l2.77,8.67c.93,2.91,1.72,5.87,2.38,8.86l1.82,8.25q1,4.68,1.67,9.44l1.87,14.14c.21,1.58.37,3.17.49,4.77l.51,7a112.46,112.46,0,0,1,0,16.52l-.1,1.43A126.81,126.81,0,0,1,760.24,309h0a82.7,82.7,0,0,1-2.67,8.58L754,327.15ZM325.82,616.6a72.55,72.55,0,0,0,10-3.18l1.9-.76a54.13,54.13,0,0,1,16-3.72l7.38-.57q3.17-.24,6.34-.18l10.44.2a65.39,65.39,0,0,1,10.35,1l9,1.61,11.23-10.5-2.85-2.85a16.34,16.34,0,0,1-4.12-6.94h0a14,14,0,0,1-.56-4.41l.24-7.3a20.63,20.63,0,0,1,.26-2.6h0a7.41,7.41,0,0,1,3-4.84l1.68-1.2a64.71,64.71,0,0,0,8.36-7l3-3-1.81-27.52-1.09-18.1-5.79-7.61-5.65-7.19c-1.54-2-3-4-4.45-6l-1.12-1.63-16.12,27.63c-1.08,1.85-2.22,3.68-3.41,5.47l-15.23,23-25,42.37L320.41,617.9ZM219.61,582.79l-3.59,1a85.48,85.48,0,0,1-9.8,2l-1.31.19a71.83,71.83,0,0,1-11.82.71l-1.27,0a50.64,50.64,0,0,1-9.27-1.06l-1.75-.37c-2.06-.44-4.1-1-6.11-1.58l-.5-.15a78.16,78.16,0,0,1-16.42-7.19l-4.11-2.39L147,569.79a57.2,57.2,0,0,1-6.63-4.71l-4.22-3.47q-3.8-3.12-7.33-6.53l-3.9-3.78h0a91.49,91.49,0,0,1-7.73,5.55l-.32.21q-2.61,1.68-5.37,3.12l-3,1.54-6.44,3,4.71,6.23c1.49,2,3,3.87,4.69,5.7L114,579.4a97,97,0,0,0,11.88,11.23l4.46,3.55c1.67,1.33,3.39,2.62,5.14,3.85l5.31,3.73a104.5,104.5,0,0,0,11.35,7l3,1.59,4.58,2.3a68.51,68.51,0,0,0,9,3.7l1.43.48a18.71,18.71,0,0,0,5.94,1h0a84.69,84.69,0,0,0,17-1.73h0l.73-.23a43.33,43.33,0,0,0,13.65-7h0a41.79,41.79,0,0,0,7.64-9l1.43-2.27a10.65,10.65,0,0,0,1.27-2.89h0a50.94,50.94,0,0,0,1.8-11.51ZM114.48,540.64l-.21-.23a96,96,0,0,1-10.69-13.9h0l-3.71-5.94a78,78,0,0,1-4.49-8.23l-.85-1.81c-.58-1.25-1.13-2.51-1.63-3.79L90.64,501c-.8-2-1.51-4.08-2.13-6.16L86,486.34,87.07,503c.09,1.46.23,2.91.41,4.36l1.22,9.73,2.18,13.07c.2,1.2.45,2.4.74,3.58l2.19,8.75a46.23,46.23,0,0,0,1.42,4.65l2.15,5.9,1.13-.46a35.91,35.91,0,0,0,8-4.6h0a52.81,52.81,0,0,0,6.45-5.79ZM63.39,550l-.54-1.23A174,174,0,0,1,54,523.41l-.83-3.14-2.1-8.64a80.78,80.78,0,0,1-1.82-10.38l-1.93-17.88q-.48-4.39-.53-8.84l-.24-19.61a119.53,119.53,0,0,1,.63-13.64l1.71-16.37q.55-5.3,1.62-10.51l4-19.53L60,372l4.28-14.88L45.53,379.06l-8.46,10.88c-1.3,1.67-2.53,3.41-3.67,5.21l-4.68,7.38A61.84,61.84,0,0,0,25.15,409l-4.37,9.2q-1.11,2.34-2,4.76l-2.9,7.73a34.39,34.39,0,0,0-1.13,3.57l-3.25,12.32-2,8.8A54.52,54.52,0,0,0,8.4,462.8l-.62,7.91c-.13,1.78-.2,3.57-.2,5.36v1.7a26,26,0,0,0,.88,6.74L9,486.43a36.23,36.23,0,0,0,2.22,6.08l1.46,3.11a70.54,70.54,0,0,0,3.6,6.69l3.38,5.59a79,79,0,0,0,4.51,6.64l4,5.23a90.82,90.82,0,0,0,6.21,7.36l2.4,2.55q3,3.24,6.31,6.25l2.18,2a71.29,71.29,0,0,0,8.6,6.79h0A62.6,62.6,0,0,0,63.39,550ZM292.22,382.17a25.61,25.61,0,0,1,1.64,6.95l.09.92a63.64,63.64,0,0,1,.27,7l-.07,5.19a78.24,78.24,0,0,1-.61,8.65l-.72,5.6a38,38,0,0,1-3.47,11.71l-.71,1.46a41.24,41.24,0,0,1-4.39,7.14l-4.14,5.4a31,31,0,0,1-5.62,5.66l-5.37,4.16a42.8,42.8,0,0,1-4.76,3.23L261.41,457a36.65,36.65,0,0,1-9.45,3.89l-3.22.83a44.09,44.09,0,0,1-8.32,1.31l-12.21.74a32.67,32.67,0,0,1-4.08,0l-5.1-.34a80.41,80.41,0,0,1-18.88-3.56l-8-2.54a93.34,93.34,0,0,1-10.1-3.86L174.37,450a87,87,0,0,1-13-7.25h0a118.73,118.73,0,0,1-14.71-11.84l-4.3-4.06c-1.63-1.54-3.19-3.13-4.7-4.79l-3.48-3.83a90.12,90.12,0,0,1-6.69-8.29L125.45,407a82.83,82.83,0,0,1-7.22-12.21l-1.6-3.33a75.7,75.7,0,0,1-3.8-9.51l-.85-2.63a70.62,70.62,0,0,1-2.12-8.24l-1.8-9.25-.89,1.62A51.51,51.51,0,0,0,102.52,375l-.43,1.61-1.18,4.92a72.15,72.15,0,0,0-1.85,12L97.63,414c-.14,1.89-.19,3.79-.16,5.68L97.76,442c0,2.15.12,4.3.29,6.44l2,26.51a74.94,74.94,0,0,0,1.06,8l.75,4a95.22,95.22,0,0,0,3.61,13.57l1.08,3.11a60.5,60.5,0,0,0,3,7.15l4.46,8.92c.34.69.71,1.36,1.1,2l1.54,2.59a44.18,44.18,0,0,0,6,7.84l.68.71,1.31-5.22h0a38,38,0,0,0,.85-10.19l-.29-5.49-.4-3.95a46.19,46.19,0,0,0-1.22-6.92L122.8,498l3.63,4.2a43.13,43.13,0,0,1,4.21,5.76l1,1.69a21.35,21.35,0,0,1,2,4.16h0a29.54,29.54,0,0,1,1.59,8.93v.83a49.86,49.86,0,0,1-.3,6.69l-.25,2.18c-.21,1.79-.48,3.58-.81,5.35l-1.36,7.23,2.71,3.15a69.37,69.37,0,0,0,6.59,6.69l4.58,4.07a50.67,50.67,0,0,0,4.12,3.32l2.43,1.75a101.39,101.39,0,0,0,8.68,5.63h0a44,44,0,0,0,8.2,3.67l5.54,1.81a15.69,15.69,0,0,0,3.18.69l2.05.23c.91.1,1.82.17,2.73.2l8.4.32a67.9,67.9,0,0,0,10.28-.42l7.39-.89a84.64,84.64,0,0,0,9.22-1.61l2.71-.62-2.61-5.23-2.61-2.24-4.67-1.86-6.53-.19,5.41-1.68h4.29l4.11,1.31L223,566.7l3,4.3,10.83-4.3,11-5.22,7.07-3.91a33.34,33.34,0,0,0,6.85-5h0a36.2,36.2,0,0,0,6.91-9l4.73-8.74L289.8,501l14-33,9.73-21.11a74.3,74.3,0,0,0,4-10.7l3.22-11.27a92,92,0,0,0,2.42-11l1-6.36L323,406.34a98.54,98.54,0,0,0-9.11-8.58l-5.06-4.21-4.61-3.6a81.55,81.55,0,0,0-12-7.78Zm-27.88-16.94q3-2,6.09-3.68l10.37-5.66c1.49-.81,3-1.58,4.54-2.31l11.09-5.25c1.95-.92,3.86-1.9,5.75-2.93h0a77.25,77.25,0,0,0,17.62-13.18l.72-.72,1.13-1A107,107,0,0,0,340,308.89h0l10.3-15.45,6.58-10.59,11.45-20.6-10-16-6-10.31-5.09-2.62q-3.78-2-7.68-3.63l-3.5-1.5q-4.62-2-9-4.33l-8.45-4.51-10.32-5.68a111.19,111.19,0,0,1-13.1-8.45l-3.69-2.77q-3.8-2.85-7.32-6l-7.35-6.57L271,184.42,269,191l-2.7,7.7q-1.31,3.75-3,7.35l-7.51,16.43L249,236.78h0a76.93,76.93,0,0,1-10.1-3l-.49-.17,3.25-3.84q3-3.6,5.76-7.46h0a79,79,0,0,0,8-14.3l.59-1.4q1.91-4.47,3.45-9.1L263,186.71l2.86-10.3-.51-.64a35.71,35.71,0,0,1-4.81-7.94h0Q259.29,165,258.3,162h0a46.34,46.34,0,0,1-1.9-8l-1.16-7.78a60.6,60.6,0,0,1-.62-7.25l-.2-8.37L251,142.21a84.8,84.8,0,0,1-3.54,9.8l-1.25,2.9a129.34,129.34,0,0,1-6.73,13.42L228.1,188.14l-21.17,34.34-27.76,45.78L144.83,318.9l-16.59,22,1.42,7.95a62.71,62.71,0,0,0,1.49,6.34l1.15,3.95a121.49,121.49,0,0,0,8,20.58h0a40.49,40.49,0,0,0,2.33,4.05l5.87,8.92,7.86,11.9q2.73,4.13,5.76,8l6.49,8.36a100.66,100.66,0,0,0,7.16,8.26l.53.54a72.86,72.86,0,0,0,9.83,8.49h0a35.94,35.94,0,0,0,8.31,4.45l1.62.6a55.7,55.7,0,0,0,6.29,1.94l2.88.69a48.93,48.93,0,0,0,6.81,1.16l3.59.35a46.67,46.67,0,0,0,9.38-.05l3.59-.39a41.65,41.65,0,0,0,4.58-.76l7-1.58a40.7,40.7,0,0,0,4.22-1.21l7.05-2.46a44.17,44.17,0,0,0,6.15-2.68l5.24-2.77c1-.54,2-1.12,3-1.75l3.86-2.53a59.7,59.7,0,0,0,5.74-4.27h0a26.77,26.77,0,0,0,6.91-8.89l1.22-2.54h0A36.37,36.37,0,0,0,287,403h0a53,53,0,0,0,.12-7.35v-.12A73.68,73.68,0,0,0,285,381.57h0l-11.73-4.29L266.73,375l-11.45-3.72Z"/></g></g></svg>