<svg xmlns="http://www.w3.org/2000/svg" viewBox="0 0 1367.7 1255.23"><defs><style>.cls-1{fill:#fff;}</style></defs><title>eriri-3</title><g id="レイヤー_2" data-name="レイヤー 2"><g id="レイヤー_5" data-name="レイヤー 5"><path class="cls-1" d="M1026.89,27.07l1.95.23a149.89,149.89,0,0,1,15.6,2.66l7.48,1.68a153.78,153.78,0,0,1,15.93,4.52l7.46,2.56,14.78,5.82a110.81,110.81,0,0,1,15.11,7.33h0a144.83,144.83,0,0,1,17.47,12l1.18.94q3.09,2.48,6,5.18l4,3.69,1.53-1.52q1.9-1.91,3.63-4l.29-.34a5.48,5.48,0,0,1,4.18-1.94h0a8.55,8.55,0,0,1,2.19.29l3,.85,3-2.06,2.85-1.76A8.06,8.06,0,0,1,1158.7,62h0a5.49,5.49,0,0,1,3.28,1.1l2.2,1.64,4.34,3.43,5.88-.21a7,7,0,0,1,1,0l2.89.31a19.47,19.47,0,0,1,5.76,1.52l1.15.49a17.88,17.88,0,0,1,5.26,3.49h0a24.89,24.89,0,0,1,4.24,5.29l2.38,4c.44.72.84,1.46,1.22,2.21l3.5,7,10.79,12.34q2.39,2.72,4.61,5.57l19.1,24.47q2.61,3.34,5,6.82l6.15,8.89a12,12,0,0,1,1.67,3.5h0a9.78,9.78,0,0,1,0,5.39h0a11.74,11.74,0,0,1-1.94,3.91l-7.8,10.33,14.79,24.2,14.79,23.67L1283.57,244l6.72,9.41,14.26,22.05,7.65,12.94a107,107,0,0,1,6.44,12.73l8.54,20.11c1,2.47,2.16,4.91,3.35,7.31l6.29,12.8-.27,15.59-4.76-7.32q-2.24-3.44-4.19-7l-7.33-13.46a94,94,0,0,1-4.12-8.59l-11.87-28.41L1293.45,268a134.28,134.28,0,0,0-6.43-12.59l-4.5-7.81q-3-5.16-6.42-10l-1.79-2.54a37,37,0,0,0-2.66-3.33l-6.1-6.75-7.87-9.66q-4-4.86-7.46-10.07l-5.34-8q-2.73-4-5.07-8.33l-5.18-9.44-3,3.5,11,34.42,12.91,44.11,17.21,61,13.18,49,10,33.26c.66,2.21,1.41,4.39,2.23,6.54l20,52.44,18.51,55.54q1.39,4.15,2.47,8.42l7.53,29.89,8.34,37.38,4.52,18.31a112.37,112.37,0,0,1,2.2,11.37l3.49,24.92,1.76,15.3a93.53,93.53,0,0,1,.46,16.22l-.72,12.29a123.15,123.15,0,0,1-1.7,14.46l-.85,4.75a129.89,129.89,0,0,1-5.56,20.86l-1,2.78a134.74,134.74,0,0,1-6.73,15.56l-5,9.76a133.52,133.52,0,0,1-11.22,18.23l-.77,1a139.07,139.07,0,0,1-15.22,17.49l-2.23,2.16a112.6,112.6,0,0,1-16.7,13.38l-7.41,4.86-5.38,14.52,1.9,3.7a97.7,97.7,0,0,1,4.29,9.51l4.56,11.8,4,12.14a102.86,102.86,0,0,1,3.41,13.07l1.39,7.32a118.12,118.12,0,0,1,2,17.38l.21,5.37a115.49,115.49,0,0,1-.3,13.67l-.73,8.82a50,50,0,0,1-1.28,7.87l-2.27,9.24c-.54,2.19-1.18,4.34-1.92,6.47l-3.53,10.14a65,65,0,0,1-3.71,8.57l-1.46,2.79a49.46,49.46,0,0,1-6.9,10l-1.7,1.9a21.11,21.11,0,0,1-7.38,5.33h0a43.23,43.23,0,0,1-11.8,3.22l-6.78.85,4.56-2a29.88,29.88,0,0,0,8.7-5.69h0c.3-.28.59-.57.87-.88h0a62.37,62.37,0,0,0,10-14.49h0a26.25,26.25,0,0,0,1.06-2.43h0a88.25,88.25,0,0,0,5.14-20.73h0q.3-2.51.48-5l.93-13.36q.24-3.5.14-7l-.53-19a101.06,101.06,0,0,0-1.07-12l-4.22-28.17-3.49-18-7,16.85a123.92,123.92,0,0,1-8.83,17.24l-10,16.2a114.7,114.7,0,0,1-7.6,10.85l-7.33,9.26a103.38,103.38,0,0,1-8.33,9.29l-9.19,9.07,10.43,16.29,9.79,16a63.9,63.9,0,0,1,3.11,5.69l.37.76a15.22,15.22,0,0,1,1.5,5.88h0a80.16,80.16,0,0,1-.16,10.51l-.37,4.61c-.16,2.06-.43,4.1-.79,6.13l-2,10.94,20.44,17.28q2.52,2.15,5.19,4.09l8.55,6.26a55.22,55.22,0,0,0,7.59,4.67l4.68,2.37a44.44,44.44,0,0,0,12.07,4.08l1.73.32a39.22,39.22,0,0,0,6.48.66l5.18.1a44.29,44.29,0,0,0,5.64-.27l4.2-.49a51.6,51.6,0,0,0,11.16-2.55l1.14-.41a12.75,12.75,0,0,0,3.29-1.72l1.84-1.35a16,16,0,0,0,3.57-3.59h0a14.49,14.49,0,0,0,1.91-3.63l.5-1.42a21.41,21.41,0,0,0,1.22-6.4l.09-2.34h0a25.21,25.21,0,0,0-7.5-11.64l-3.15-2.76,9.47,5a11.15,11.15,0,0,1,4.21,4l1.37,2.23a37.18,37.18,0,0,1,3.4,7.08l1.39,3.92a13.08,13.08,0,0,1,.72,3.61h0a25.84,25.84,0,0,1-2.47,12.36l-.28.59a10.34,10.34,0,0,1-3.16,3.84h0a28.42,28.42,0,0,1-7.8,4.06l-4.18,1.39a77.22,77.22,0,0,1-12.26,3l-6.17,1q-4.48.72-9,1l-6.8.42a93.13,93.13,0,0,1-17.35-.52l-3.25-.39-18-3.13q-3.66-.63-7.26-1.56l-13.31-3.46-11.49,5.22h0a39.24,39.24,0,0,1,2.77,9l1.57,8.68,9.08,6.39,7.37,5.74a48.31,48.31,0,0,1,3.9,3.39l2.36,2.28a24.29,24.29,0,0,1,3.39,4.12h0a50.15,50.15,0,0,1,5.48,11.38l1.31,3.95a24.66,24.66,0,0,1,.89,3.48l1.57,8.74a50.7,50.7,0,0,1,.73,6.5l.1,2.29a20,20,0,0,1-.73,6.4l-.2.69a38.76,38.76,0,0,1-4.75,10.51h0a19.58,19.58,0,0,1-3.16,3.76l-.88.82a56.84,56.84,0,0,1-14.13,9.66l-9.09,4.36a99,99,0,0,1-10.45,4.32l-6.6,2.28a93.39,93.39,0,0,1-9.53,2.76l-22.52,5.25c-2.14.5-4.29.92-6.47,1.27l-36.27,5.7a88.76,88.76,0,0,1-16.12,1l-46-1.37q-3.27-.09-6.53-.45l-21.5-2.36c-2.06-.23-4.13-.36-6.21-.41l-26.19-.57c-1.29,0-2.58,0-3.87,0l-27.86.89c-1.42,0-2.84,0-4.26,0l-25.89-.63L964,1207a89.17,89.17,0,0,0-10.9,15.28h0q-1.22,2.14-2.29,4.36l-6.77,14a93.45,93.45,0,0,1-7.36,12.57l-1.46,2.11-7.71-.26a56.91,56.91,0,0,1-11-1.46l-7.56-1.76a49.82,49.82,0,0,1-13.72-5.46l-7.94-4.62a56.19,56.19,0,0,0-7-3.47l-15-6.17L850,1226a92.24,92.24,0,0,1-11.18-5.32l-5-2.79a32.69,32.69,0,0,1-8.61-7h0a7,7,0,0,1-1.62-3.26h0a7.08,7.08,0,0,1,.85-5l1.55-2.62-8.33.9-11.49,1a58.59,58.59,0,0,1-9.46,0h0a9.27,9.27,0,0,1-6.31-3.23h0l-.22-.44a2.7,2.7,0,0,1,.14-2.65h0a4.82,4.82,0,0,0,.76-2.61v-1.28l-17.85-4.17c-1.61-.38-3.24-.7-4.87-1l-5-.84c-1.31-.22-2.63-.4-4-.54l-15.4-1.65a138.45,138.45,0,0,1-15.55-2.56l-16.61-3.69a137.4,137.4,0,0,1-19.84-6l-15.31-5.93-13.9-5.42a34.37,34.37,0,0,1-8.45-4.77h0a27,27,0,0,1-3.63-3.37l-10.28-11.44-12.36-14.45c-1.52-1.78-3-3.6-4.36-5.48l-6.51-8.76a14.12,14.12,0,0,1-1.76-3.21h0a11.55,11.55,0,0,1-.78-4.83l.46-9.21a45.66,45.66,0,0,1,2.21-11.87l2.39-7.26-2.39,2.52a88.24,88.24,0,0,1-8.33,7.73h0a81.5,81.5,0,0,1-10.69,7.37h0a18.12,18.12,0,0,1-7.47,2.35h0a28.78,28.78,0,0,1-8.07-.45l-7.44-1.49a140,140,0,0,1-15.44-4l-16.11-5.15q-2.57-.83-5.17-1.48l-28.15-7c-1.93-.48-3.86-.9-5.82-1.25l-9.17-1.64a86.56,86.56,0,0,0-22.9-1l-2.16.19a32.71,32.71,0,0,1-11.69-1.08l-5.47-1.54-5.47,1a8,8,0,0,1-4.94-.72l-6.8-3.4q-2.07-1-4.06-2.19h0a94.49,94.49,0,0,1-13.42-9.36h0l-.92-.32a20.32,20.32,0,0,1-8.55-5.83h0a11.73,11.73,0,0,1-1.74-2.66l-2.46-5.21-3.86-3.15-5.69-4.55a26.1,26.1,0,0,1-5.28-5.72l-1-1.4a22.43,22.43,0,0,1-3.6-9l-.59-3.52-4.34-5.21a15,15,0,0,1-1.61-2.34l-1-1.84a11,11,0,0,1-1.42-5.42v-.28a5.42,5.42,0,0,1,2.25-4.4l1.24-.9a12,12,0,0,1,6.29-2.25l13.07-.8c.42,0,.84,0,1.26,0h9.06c1,0,2,.05,3,.13l8,.65q7.65.63,15.34.63h2.21c1.58,0,3.16-.06,4.75-.17l11.13-.77a251.7,251.7,0,0,1,34,0l10.46.69a216.35,216.35,0,0,0,29.91-.1l14.64-1.06A215.52,215.52,0,0,0,570.59,986l7-1.43-13.31-23.83-12.27-24.54-14.9-33.22q-3.31-7.42-6.13-15.07L518.77,854.5l-8.17-24A234.08,234.08,0,0,1,503.74,806l-1.45-6.5-15.07-31.89-13.71-31.82a175.12,175.12,0,0,1-6.63-18l-12.25-39.87-.43,1.41a177.29,177.29,0,0,1-14.66,34.18h0a306.29,306.29,0,0,1-27.89,41.48h0a322,322,0,0,1-32.26,34.81l-18,16.73-34.44,29q-7.61,6.4-15.63,12.32l-37.69,27.82q-8.53,6.3-16.62,13.17l-15.62,13.27q-6,5.09-11.49,10.7l-9.74,9.94a192.81,192.81,0,0,0-13.77,15.63l-1.71,2.16a14.87,14.87,0,0,0-2.66,5.3h0a41.46,41.46,0,0,0-.86,17.56h0c.21,1.23.45,2.45.73,3.66l2.56,11.19a93.42,93.42,0,0,1,1.85,11.16l.83,7.93a51.6,51.6,0,0,1-.05,11.25h0a20.61,20.61,0,0,1-2.57,7.88h0a59.45,59.45,0,0,1-8.32,11.3h0a57.87,57.87,0,0,1-11.69,9.58h0l-3.52,2.27a19.54,19.54,0,0,1-7.39,2.86l-2.86.48a24.7,24.7,0,0,1-5.08.32l-9-.35L141,1042l-10.56-.53a29.64,29.64,0,0,0-5.65.26l-4.24.61a35.07,35.07,0,0,0-7.55,2l-8.61,3.29-3.29,1.42a33.06,33.06,0,0,1-7.07,2.18h0a77.06,77.06,0,0,1-11.54,1.3l-4.46.16c-1.33.05-2.66.15-4,.3L62,1054.26l-.75.15a70.7,70.7,0,0,1-22.34,1l-.58-.07-8.7-1.34-5,1.1q-2.14.46-4.32.75h0a17.59,17.59,0,0,1-9.15-1.27h0a44,44,0,0,1-6.53-3.49h0a14.79,14.79,0,0,0-1.4-.79L2,1049.74a3.29,3.29,0,0,1-1.66-1.94h0a8.3,8.3,0,0,1-.1-4.53l.39-1.51a20.76,20.76,0,0,1,.87-2.63l1-2.5a5.46,5.46,0,0,1,2.42-2.73h0a41.83,41.83,0,0,0,9.44-7.07h0c.61-.62,1.26-1.2,1.93-1.76l2.38-2a12.89,12.89,0,0,1,3.88-2.21l4.12-1.47,1.25-1.52a15,15,0,0,1,4.46-3.66h0a9.05,9.05,0,0,1,1.58-.65l2.07-.64a101.86,101.86,0,0,0,12.65-4.86l1.89-.87a38.61,38.61,0,0,0,6.71-4h0c2.36-1.73,4.64-3.58,6.82-5.52l2.94-2.62a96.28,96.28,0,0,0,8.58-8.68l18.75-21.58,19.34-25,18-23.08q5.36-6.86,10.29-14l19.71-28.69,39.78-59.37,40-60.94L273.3,705.1l23.5-36.27q6.36-9.83,13.59-19L333,620.93l22.88-29,16.58-22.7h0a290.28,290.28,0,0,1,19.25-25.82l1.55-1.86c.34-.41.66-.82,1-1.25l3.92-5.37a106.48,106.48,0,0,1,12.37-14.12h0c.81-.78,1.66-1.53,2.53-2.25l9.52-7.83,5.77-4.53a25.25,25.25,0,0,1,3.3-2.2l2.76-1.54a16,16,0,0,1,3-1.3l7.63-2.38a25,25,0,0,1,4-.9l6.78-.94a25.13,25.13,0,0,1,2.59-.22l5-.16a30.19,30.19,0,0,1,8.52.92l4.61,1.17a26.32,26.32,0,0,1,2.93.94l8,3.11A69.76,69.76,0,0,1,502,510.35l2.67,1.84c.46.32.92.66,1.37,1l4,3.08a53.84,53.84,0,0,1,9.44,9.34l7.09,9q4.49,5.67,9.34,11l15.57,17.17L567.88,582l16,17.17q2.86,3.08,5.48,6.38l9.26,11.72,8,8.73,6.11,5.59h0a37.12,37.12,0,0,1,2.25-3l1.61-1.95a4,4,0,0,1,1.22-1h0a6.8,6.8,0,0,1,3.66-.68l1.23.12a11.85,11.85,0,0,1,4.27,1.27l5.67,3h0a79.58,79.58,0,0,0,17.25,4.33l2.83.38,1,.09a27,27,0,0,1,8.78,2.36h0l.17.35a31.36,31.36,0,0,0,4.89,7.33h0l2,2.42a11.68,11.68,0,0,1,2.3,4.38l.43,1.55a19.42,19.42,0,0,0,.72,2.11l2.62,6.43c.3.73.62,1.45,1,2.16l8,16.39,7.17,13c.69,1.25,1.41,2.47,2.16,3.67l3.59,5.71,4-3.32,6.68-5.08a12,12,0,0,1,2.94-1.65h0a4.44,4.44,0,0,1,3.13,0l5.39,1.94c1.18.42,2.34.89,3.49,1.38l16.6,7.19a65,65,0,0,0,7.89,2.83l5,1.46h0a20.55,20.55,0,0,1,5.12-1.76l5.56-1.11c.91-.18,1.82-.33,2.74-.43l2.8-.32a14.17,14.17,0,0,1,6.79.9h0a21,21,0,0,1,3.09,1.5l6.41,3.8a4.82,4.82,0,0,0,1.42.55h0a30.4,30.4,0,0,0,8.35.61L801,710c2.12-.14,4.23-.21,6.35-.21h5.9a10.88,10.88,0,0,0,2.7-5.3l.1-.46.69-3.14,4.61-4.95c1.58-1.71,3.13-3.46,4.62-5.25l1.25-1.5,1.23-10.81a167.28,167.28,0,0,1,3.79-21.09l.27-1.09q1.17-4.72,2-9.54l3.1-18.71a126.86,126.86,0,0,1,3.12-13.9l1.12-3.93a145.53,145.53,0,0,1,7.66-20.79l3.24-7.07,8.91-17.42-.39-6.45a48.19,48.19,0,0,1,1-12.9h0l8.13-7.94,8.9-8.9-.85-.54a15.25,15.25,0,0,1-2.38-1.86h0a22.38,22.38,0,0,1-4.73-6.52h0a41.51,41.51,0,0,1-3.31-10.06l-.21-1.1a61.17,61.17,0,0,1-1-7.51l0-.64a84.2,84.2,0,0,1,.58-16.26l.86-6.41,1.83-9.92c.33-1.77.6-3.55.83-5.34l3.67-29c.29-2.34.68-4.67,1.14-7l5.3-26.19c.52-2.55.94-5.12,1.28-7.7l2.37-18c.41-3.07.69-6.16.87-9.25l.71-12.78-4.07,21.68-5.42,27.09-4.06,18.2-7,30,2.71-18.77L873,407.9l4.45-20.32,5.22-26.9,2.71-14.51-2.9-9.68h0a10.07,10.07,0,0,0-3.39.58l-2.22.77-1.75-2.32-3.67-5.61,4.26,12.39-2-2.83a80.35,80.35,0,0,1-7.54-13.26l-2.24-5q-1.4-3.1-3-6.13l-3.66-7-5.42-10.64,1.94,9.48,2.42,14.56a109.56,109.56,0,0,0,3.54,14.75l2.36,7.46-2.29-3.35a89.67,89.67,0,0,1-9.34-17.57h0c-.76-1.92-1.45-3.88-2-5.86l-4.32-14.25.77,9.29,1.17,9.34q.38,3,1,6.07l1.14,6c.53,2.78,1.19,5.54,2,8.26l2.87,9.85-4.38-7.49c-1.08-1.84-2.07-3.73-3-5.67l-1.37-2.9a86.22,86.22,0,0,1-3.67-9.11L838.22,319q-1-3-1.86-6.1l-4-14.54L827.94,283q-1.58-5.5-2.79-11.09l-3-14-.67-3.5A141.66,141.66,0,0,1,819,230.63l-.16-8.71.06-5.16a156.09,156.09,0,0,1,1.68-20.93L822,185.9q.45-3.08,1.08-6.12l3.82-18.44,3.1-14.9-11,23.61-4.89,11.66c-1.77,4.22-3.37,8.52-4.8,12.87l-3.77,11.5q-1.44,4.42-2.63,8.91l-2.12,8a115.28,115.28,0,0,0-3.08,16.17l-1.21,10.18a103.6,103.6,0,0,0-.67,15.55l.12,3.82a81.49,81.49,0,0,0,1.54,13.4l1.58,7.88-.44-.78a42,42,0,0,1-3.81-9.35h0a82.43,82.43,0,0,1-2.1-10.06l-1-7.1-.29-1.4a68.63,68.63,0,0,1-1.45-12h0a105.77,105.77,0,0,1,.36-12.59l.32-3.59a141.47,141.47,0,0,1,4.14-23.64l2.82-10.64q1.07-4,2.45-8l2.69-7.65a175.6,175.6,0,0,1,8.63-20.4l5.3-10.59,9.48-19,2.63-4.88a42.73,42.73,0,0,1,6.31-8.8l1.32-1.42H833.2a10.4,10.4,0,0,1-3.14-.48h0a9.36,9.36,0,0,1-3.74-2.27h0a8.52,8.52,0,0,1-1.53-2.09l-1.58-3c-.09-.17-.18-.35-.26-.52L821.71,107a13.11,13.11,0,0,1-.63-1.72l-.42-1.47a11.41,11.41,0,0,1-.43-3.49l.11-3.78a9,9,0,0,1,.14-1.26l.6-3.12a7.08,7.08,0,0,1,.95-2.39l3-4.72c1-1.66,2.17-3.28,3.37-4.84l.39-.5A74.13,74.13,0,0,1,840,68.06h0c1.39-1.17,2.81-2.28,4.27-3.35l4.53-3.33a68.84,68.84,0,0,1,12.06-7.09l1.76-.8A50.17,50.17,0,0,1,869.29,51l7-2.07h0a11.35,11.35,0,0,1,2.76-2.64l2-1.35a12.14,12.14,0,0,1,2.68-1.38l1.26-.46a5.31,5.31,0,0,1,2-.32l3.39.15,6.2-6,5.44-5.13a84.42,84.42,0,0,1,9.84-8L916,21q3.25-2.25,6.69-4.25l4.55-2.64a108.7,108.7,0,0,1,18.11-8.42l.3-.11a63.85,63.85,0,0,1,12.16-3h0a26.88,26.88,0,0,1,3.35-.29l5.09-.15.86-.51A10.36,10.36,0,0,1,971.57.1h0a21.73,21.73,0,0,1,7.53.6h0a6.13,6.13,0,0,1,1.41.57l5.91,3.31,10.84,6.58,13,8.7,9.49,6.59Zm-32.26-1.7-4.58-2.67q-3.22-1.87-6.63-3.43l-3.32-1.53-.74.31a12.42,12.42,0,0,0-4.63,3.38h0a4.3,4.3,0,0,0-.47.65l-2.34,4ZM897.17,55.48a73,73,0,0,0,8.9-5.26l1.16-.8a66,66,0,0,1,5.68-3.49l4.91-2.69a85.15,85.15,0,0,1,7.76-3.74l10.89-4.56c1.35-.57,2.72-1.09,4.11-1.57l1.31-.45a99.76,99.76,0,0,1,18-4.35l.8-.11,1.79-6.91a23.14,23.14,0,0,0,.67-7.37h0a3.86,3.86,0,0,0-1-2.34h0a3.49,3.49,0,0,0-2.25-1.15l-1.73-.2a26.22,26.22,0,0,0-6.91.16h0a46.85,46.85,0,0,0-9.22,2.4h0A47.78,47.78,0,0,0,935.57,16l-9.11,5c-1.18.65-2.33,1.33-3.46,2.05l-8.36,5.35a50.68,50.68,0,0,0-6.71,5.13L901.87,39a45.78,45.78,0,0,0-4.52,4.72L896.23,45a6.78,6.78,0,0,0-1.54,3.66h0a14.89,14.89,0,0,0,0,3.13l.54,4.61Zm-27,21.72a58.61,58.61,0,0,0,3.25-11.78h0a15.24,15.24,0,0,0,.21-2.53V58.61l-.55-.19A41.21,41.21,0,0,0,867.84,57h0a3.18,3.18,0,0,0-1.19,0h0a29.13,29.13,0,0,0-8.87,3.12h0c-1.19.65-2.34,1.35-3.46,2.1l-3,2c-1.61,1.09-3.17,2.24-4.69,3.47l-6.36,5.16a49.25,49.25,0,0,0-4,3.55l-.42.42a32.15,32.15,0,0,0-6,8.29l-.26.52-1.23,2.33a19.64,19.64,0,0,0-2.29,9.19h0a23.71,23.71,0,0,0,3.4,6.25l1.73,2.27c.55.73,1.07,1.49,1.55,2.28l2.26,3.7h0a32.42,32.42,0,0,0,10.36-4.26h0a8.67,8.67,0,0,0,2.91-3l1.1-1.93a53.86,53.86,0,0,1,5.26-7.63l3.44-4.18c1.24-1.5,2.54-3,3.9-4.36l7.58-7.79ZM890,59.49l-1.41-4.81-.73-.46h-.25a5.78,5.78,0,0,0-2.54.69h0a5.74,5.74,0,0,0-1.24.89l-.23.22a4.35,4.35,0,0,0-.5.55h0a4.29,4.29,0,0,0-.8,2.17h0a6.37,6.37,0,0,0,0,1.07l0,.62a11.34,11.34,0,0,0,.63,2.94h0c.1.29.22.58.35.87l.34.77,3.83-3.47c.34-.31.68-.61,1-.89Zm-5.25,452.4-.15-.1a25.53,25.53,0,0,1-4.37-3.8h0a7.93,7.93,0,0,1-.67-.86l-.56-.81a56.36,56.36,0,0,1-3.5-5.84l-1.69-3.26.9,3.82a30,30,0,0,0,1.68,5l.11.26q1.5,3.46,3.3,6.79h0a35.94,35.94,0,0,0,3.08,4.74l1.06,1.36.35-4.3Zm2.22-11.76,1.69-10.19c.19-1.12.34-2.24.45-3.37L890.28,474c.16-1.67.37-3.34.63-5l1.94-12.41L894.63,446a58.36,58.36,0,0,0,.77-8l.27-10.3a55.17,55.17,0,0,0-.23-6.68l-2-20.53-2.09-16.76L889,402a45.93,45.93,0,0,1-1.31,6.46l-3.54,12.64L879,437.88c-.4,1.31-.85,2.6-1.35,3.88l-2,5.22a54,54,0,0,0-3,11h0a39.41,39.41,0,0,0-.46,4.34l-.36,7v7.57l.22,4.49a39.9,39.9,0,0,0,.71,5.86h0a39.78,39.78,0,0,0,2.47,7.9l.39.89a54.1,54.1,0,0,0,4,7.49h0a54.41,54.41,0,0,0,4.77,6.44l1,1.14Zm12.76,6.23a45.12,45.12,0,0,0,3-3.86l4.14-5.95,5.67-8.08,2.54-8L918.15,470q.89-3,1.48-6.12l2-10.18q.58-3.14.89-6.3l.92-9.89c.15-1.67.24-3.35.27-5l.16-10.16c0-1.6,0-3.21-.09-4.81l-.83-14.49-2.54,21.12-1.6,15.08c-.22,2-.54,4-1,6l-2.08,9.83c-.37,1.76-.82,3.51-1.35,5.23l-2.64,8.61c-.52,1.7-1.12,3.39-1.8,5l-3.81,9.34-3.74,10c-1.21,3.22-2.26,6.51-3.15,9.84l-1.44,5.38ZM923.57,380.5a106.53,106.53,0,0,0,.21,10.72l.41,5.82,1.16,19.06a82.91,82.91,0,0,1,.07,8.49l-.74,16.28c-.12,2.58-.36,5.16-.72,7.72L922.64,458a64.85,64.85,0,0,1-1.36,6.88l-2.19,8.67a40.65,40.65,0,0,1-1.86,5.62l-3.9,9.38,8.08-8.81c.49-.53,1-1.07,1.41-1.63l8-9.87,3.15-4.09-2.31-1.79a4,4,0,0,1-1.47-2.3h0l0-.18a5.89,5.89,0,0,1,.63-2l3.12-6,1.86-3.37c1-1.74,2-3.45,3.08-5.11l3.67-5.59a18.44,18.44,0,0,0,1.21-2.17h0a66.59,66.59,0,0,1,4.15-7.55l1.71-2.67h0a62.4,62.4,0,0,0-.08-14.13l-.28-2.3c-.27-2.26-.63-4.51-1.06-6.74l-.43-2.25a39.52,39.52,0,0,0-2.3-7.61h0L942.41,389l-2.27-2.46a68.13,68.13,0,0,0-6.64-6.3l-2.76-2.3-6.92-5.22Zm34.27,35.6q1-.69,2-1.29l3.85-2.28,0-.94c0-1.6,0-3.2.05-4.79l.61-12.75-2,.63L957,396.22l-.27,8.92L956.55,417Zm24.22-11.66-2.6-4.77A47.24,47.24,0,0,1,975.8,391h0l-1.62.7,1.39,15.53Zm217.78,506.22,7.52,10.72,6.62-12.32,9.58-19.39,3.12-6.55c1-2,1.87-4.08,2.71-6.15l3.07-7.61-11.18,8.44-14.6,10-3.42,2.28L1200.75,905Zm33.16-70.3,13.24-11.21,5.78-30.23,3.39-21.73h0a155.44,155.44,0,0,0-12.53-15.5l-1.05-1.14L1236.55,788q-1.17,6.13-2.82,12.14l-4.07,14.94a214.47,214.47,0,0,1-8.43,24.82l-6.57,16Zm-16-106.3-5.21-6.13A172.88,172.88,0,0,1,1194,702.57h0q-2.4-4.17-4.56-8.48l-4.84-9.68q-2.52-5-4.64-10.24l-7-17.21-1.22,20.13a159.67,159.67,0,0,1-1.77,16l-5.34,33.14c-.11.67-.2,1.34-.27,2l-3.65,36.49q-.66,6.65-1.89,13.21l-.82,4.37a48.45,48.45,0,0,0-.79,10.82h0a33.66,33.66,0,0,0,.79,6l3.41,15,2.27,8.64a217.72,217.72,0,0,0,12.87,35.92l9.65,21,20.72-17,4.63-26.53q1.49-8.44,2.26-17l2-22.5q.59-6.32.77-12.63l.83-27Zm26.27,14.32A104.5,104.5,0,0,1,1254.22,767l2.35,5.14,1.3-12.06,3-25.27a159.52,159.52,0,0,0,1-16.65l.23-21.68a16.08,16.08,0,0,0-.08-1.84l-1.3-13.83-1.41-10.21a176,176,0,0,0-4.81-23.16l-2.87-10.28V672q0,8.76-.74,17.49l-1.42,16.66q-.62,7.15-1.74,14.26l-4.42,28Zm-25.52-34.3-.33-57.36-.65-43-2-68.8-3.31-43.81-3-35.41-2.1-40.51-2.4-32.71-9,1.2-2-2.27a101.68,101.68,0,0,1-9.92-13.07h0a129.11,129.11,0,0,1-9.09-16.81l-2.68-6-4.2-9.31-2.4,33.91,3.6,8.11h0a12,12,0,0,1-4.93,4.56l-.47.24-2.4,27.91,11.1,43.51,3.1,10c.74,2.35,1.55,4.68,2.45,7h0a115.15,115.15,0,0,1,5.41,18.16l.8,3.79c.56,2.67,1,5.37,1.42,8.07l.78,5.62a64,64,0,0,1,.35,14.89l-2,21.65-5.11,57.31-3,30.91,7.43,16.28a244.37,244.37,0,0,0,11.48,22.08l1.14,1.95a256.3,256.3,0,0,0,17.29,25.77Zm-41.1-360.27a68.66,68.66,0,0,0,4.42,6.31l6.05,7.67a111.64,111.64,0,0,0,14.89,15.54l1.54,1.33-1.75-11.8q-.42-2.79-1-5.57l-4-19.66-4.87-20-3.51-12.73a180.69,180.69,0,0,1-4.6-21.84l-4.86-33-4.59-27.83L1170.34,296l-3,42.7Zm-20.4-50,2.16-21.35-5.94,9.19,1.62,5.68Zm-49.45,37.57a29,29,0,0,0,8.7-3l4.87-2.62a9.71,9.71,0,0,1,3.32-1.06h0a13,13,0,0,1,5,.37l2.38.66h0a21.56,21.56,0,0,1,6,8.52l2.13,5.53,2.22,5.11a34.35,34.35,0,0,0,6.42,9.76h0l1.19-13c.29-3.22.7-6.42,1.21-9.61l3.28-20.08-2.4-5.59q-1.65-3.87-3.09-7.83l-3.16-8.74-21.89,23-16.21,18.65Zm191,435.05,4.56-5.93a179.69,179.69,0,0,0,13.76-20.71h0a154.79,154.79,0,0,0,12-26.48l3.41-9.94q1.59-4.63,2.88-9.38l1.24-4.6a225.84,225.84,0,0,0,7-38.69l.3-3.33q1.15-12.69,1.16-25.44v-6.25a242.67,242.67,0,0,0-2.88-37.2l-1-6.5c-.64-4.15-1.41-8.28-2.28-12.39l-4.14-19.48A123.8,123.8,0,0,0,1326,526h0c-.63-1.41-1.29-2.81-2-4.18l-11-21.53a301.26,301.26,0,0,0-16.33-28.16l-4.07-6.23a188.68,188.68,0,0,1-13.54-24.52L1269.71,421q-2.64-5.76-4.91-11.68l-15.57-40.7,3.24,30.81,1.88,25.95q.56,7.69.56,15.41v36.07l.81,17.84,12.56,41.76,10,34.16q2.21,7.59,4,15.3l7.16,31.22,7.55,42.58q1.36,7.68,2.19,15.45l1.11,10.4a231.55,231.55,0,0,1,1.31,24.56v12.52q0,7.59-.45,15.18l-1.19,20.27q-.39,6.6-1.29,13.16Zm-69.1-601.59,2.27-2.88-7.83-13.71Zm9.7-10.9a58.38,58.38,0,0,0,4.09-4.38l1.37-1.62-8.25-11.86-10.41-14.22-10.21-14.33-9.38-13.4,5.84,17.6a86.82,86.82,0,0,0,3.72,9.31l2.09,4.42,8.16,16.32q1.63,3.27,3.57,6.37l5.79,9.27Z"/></g></g></svg>