<svg xmlns="http://www.w3.org/2000/svg" viewBox="0 0 390.96 107.77"><defs><style>.cls-1{fill:#fff;}</style></defs><title>アセット 9</title><g id="レイヤー_2" data-name="レイヤー 2"><g id="レイヤー_5" data-name="レイヤー 5"><path class="cls-1" d="M100.8,38.4c5.64,5-.24,20.4,6,22.32a10.74,10.74,0,0,0,2.76.24c3.36,0,5.64,0,5.64,4.08,0,2.52.24,6.84-1.32,9.12a5.47,5.47,0,0,1-2.76,2.16c-2.64,1-12.24,1.08-15.72,1.2-2.4.12-5.16.84-7.32.84-1.44,0-2.76.12-4.08.24-.48.12-3.24.12-3.24.84,0,6.24,30,7.56,30,12.36,0,6.36-4.92,14.4-11.88,14.4-5.76,0-11.64-1.8-16.8-4.2-7-3.12-13.32-7.32-19.8-11.16a8.64,8.64,0,0,0-2.88-1.2c-6.84,0-26.28,16.8-44.28,16.8C9.48,106.44,4.44,98,4.44,93c0-6.72,29.64-7.92,29.64-12.6,0-.48-.6-.72-1-.84C28.44,77.64,22,78,17,78c-4.68,0-10-.24-14-2.88-2.28-1.56-3-4-3-6.6,0-1.44,0-4.92,1-6.12,2-2.64,7.68.84,9.36-3.84a22.72,22.72,0,0,0,1.08-6.24c.24-3.48-.36-9.6,1.08-12.6.72-1.56,2.76-2.28,4.32-2.64a55.49,55.49,0,0,1,12.6-1.32c2.88,0,5.64.24,8.4.24,12.84,0,3.84-7.32,14.52-7.32,4,0,8,.12,12,.12.84,0,2.64.12,3.36.72,1.92,1.8.6,4.32,3.36,5.52a14,14,0,0,0,5.4,1.08c2.52,0,4.92-.12,7.32-.12C88.2,36,97.44,35.4,100.8,38.4ZM52.8,8.16c2.52,0,17.16,0,18.36-1.32a2.18,2.18,0,0,0,.72-1.68c0-.84-.12-1.56-.12-2.4,0-2.28,1.68-2.64,3.6-2.64C78.36.12,89.28,0,91.08,3c1.08,1.8-.12,3.84,1.44,4.8a11.61,11.61,0,0,0,2.88,1,25.33,25.33,0,0,0,6,.48c9.24,0,11.16,4.32,11.16,12.84,0,4.08-4.68,4.32-7.68,4.32-2.16,0-4.2-.36-6.24-.36-1.32,0-5.52,0-5.4,2v1.8a2.24,2.24,0,0,1-1.8,2.4c-2.52.6-5.4.36-7.92.36-2.16,0-9.72,0-10.56-2.28s.48-3.12-2.4-4.08-6.48-1-9.6-1-6,.12-9,.12c-.84,0-1.68-.12-2.52-.12-9.48,0-5.64,4.56-8,6s-8.76,1.44-11.64,1.44c-14.16,0-2.16-6.84-15-6.84-2.4,0-4.8.36-7.2.36q-5,0-5-5c0-17.64,9.6-8.76,18.72-13.2C24,6.72,22.32,3.84,24,1.92S32,.12,34.44.12C35.76.12,37.2,0,38.52,0,43,0,43,2.28,43,6l.12.24c0,1.2,4,1.92,4.92,1.92ZM32.28,58c0,3.24,6.36,3.36,8.64,3.36,3.84,0,4.92-1.68,4.92-5.28v-1.8c0-2.64-3.48-3.36-5.52-3.36H38.16c-4.32,0-5.88.6-5.88,5.16Zm37,0c0,3.36,5.88,3.24,8.16,3.24,4,0,5.28-1.2,5.28-5.16v-1.8c0-2.64-4.08-3.36-6.12-3.36H74.28c-3.72,0-5,1.44-5,5.16Z"/><path class="cls-1" d="M153.24,37.56a2.76,2.76,0,0,0-1.68-.48c-.84,0-1.68.12-2.52.12-3.24,0-2.88-3.48-2.88-5.76,0-11.4,10-7.8,17.4-9,.72-.12,1.2-.36,1.2-1.2,0-1.32-1.32-1.2-2.28-1.2-2.88,0-5.76.72-8.64.72-3.72,0-4.44-1.8-4.44-5.16,0-1.8-.12-5,1.2-6.36,3.24-3.24,36.6-6.48,42.6-6.48,6.36,0,9.84,5.4,9.84,11.28,0,2.76-17.28,2.16-17.28,6.36,0,2.16,6.6,2,8.16,2s3-.24,4.44-.24c6,0,6.24,4.44,6.24,9.24s-3,5.16-7,6c0,1.92,5.88,4.2,5.88,8.28,0,3.12-7.08,5.76-7.08,6.6,0,2.28,8.88,1.68,10.32,1.68,10.8,0,3.12,5.28,9.24,7.44,1.68.6,6.12.72,8,.72,7.92,0,15.84-.48,23.76-.48,4.92,0,8.88,1.8,8.88,7.32,0,7.8-4.68,9.6-11.76,9.6-2.76,0-5.64-.12-8.4-.12-.84,0-5.88,0-5.88,1.08,0,4.56,26.16,5.76,26.16,11.4,0,4.32-5.64,12.36-10.32,12.36-11.76,0-23.64-10.56-32.28-10.56l-1,1.68c-1.56,12.36.6,13.32-13.2,13.32a21.38,21.38,0,0,1-5.52-.36c-7.56-2.16-1.32-14.64-7-14.64-6.48,0-20.16,10.56-30.48,10.56-4.56,0-11.52-7.8-11.52-12.24,0-6,28.2-6.72,28.92-11.76a25.26,25.26,0,0,0-6.72-1c-2.64,0-5.28.12-7.92.12-7.08,0-13.44-.6-13.44-9.36,0-2,.24-4.32,1.92-5.76,2.28-1.92,12.84-1.8,16.08-1.8,5.88,0,11.88.48,17.76.48,2.88,0,7.68-.48,7.68-4.32,0-2-2.76-9-5.16-9-1.8,0-1.08,5.52-1.08,6.72,0,3.6-6.84,3.72-9.36,3.72-9.12,0-8.64-.72-9.6-9.24-1.44.48-6.72,7.92-8.76,7.92-3.24,0-10.56-7.92-10.56-11,0-4.2,8.16-6.24,8.16-8.76ZM216.6,40.2c-2.52,0-5.64-.36-7.2-2.64C208.2,36,208,24.12,208,21.48V14.64c0-7.2,1.56-9.24,9-9.24,2.76,0,5.16-.24,7.44,1.68,2.64,2.16,3,16.8,3,20.52,0,6.6,1.2,12.6-7.68,12.6ZM227.76,59c-10.2,0-12.24-1.8-12.24-12,0-3.84,4.92-4.44,7.8-4.44,2.64,0,5.16.36,7.8.36C234,43,234,41.4,234,39c0-9.48-1.44-18.72-1.44-28.2,0-7.56,3-7.56,9.6-7.56,3.24,0,7.32,1.08,9,4.08,3.12,5.64,4.2,29.28,4.2,36.48,0,14.88-6.12,15.24-18.84,15.24Z"/><path class="cls-1" d="M306.48,73.2c-3.48,0-12.72-4.8-12.72-8.76,4.44-9.72,11.16-18.12,16.92-27.12,6-9.48,10.32-19.8,16.8-28.92,1.92-2.64,4.2-5,7.68-5,2.64,0,11.88,1.2,11.88,4.92,0,2-1.08,3.84-1.08,5.88,0,1.8,1.2,2.64,2.76,3.24,4.92,1.68,13.44,1.44,18.72,1.44,2.4,0,4.68,0,7.08.12,3.6.12,10.92,0,13.44,2.76a6.59,6.59,0,0,1,1.44,2.52A30,30,0,0,1,391,34c0,15.6-19.92,37-19.92,44,0,4.8,7.92,8.64,7.92,11.88,0,4.32-8.64,12.72-13,12.72-4.92,0-30.24-24.48-34.92-29.16-.48-.48-3.84-3.6-4-4.08a9.26,9.26,0,0,1-.24-1.8c0-3.24,7.8-11.4,11-11.4,5.88,0,8.28,5.76,13.08,5.76,5.16,0,14.52-17.64,14.52-22.44-3.6-3.6-11.64-3.12-16.32-3.12C325.92,36.36,321,73.2,306.48,73.2Z"/></g></g></svg>