<svg xmlns="http://www.w3.org/2000/svg" viewBox="0 0 457.88 485"><defs><style>.cls-1{fill:#fff;}</style></defs><title>text-5</title><g id="レイヤー_2" data-name="レイヤー 2"><g id="レイヤー_2-2" data-name="レイヤー 2"><g id="独りごと"><path class="cls-1" d="M217,147.75a639.69,639.69,0,0,1,22,73.75L206.25,231,201,209.75a1209.11,1209.11,0,0,1-123,12L76.75,189c15.75-.25,35.25-1.5,58.5-3.25v-46.5h-20v13h-35v-116A201.75,201.75,0,0,1,63.25,55c8,27.5,12,58.25,12,92.5,0,22-1.5,38.5-4,50S65,216.5,60.5,220.25c-4.75,4-11.25,6-20.25,6-7.5,0-16.5-1.25-27-4l-1.75-31.5C20,193.25,27,194.5,32,194.5c6,0,8.75-15.75,8.75-47V146a154.21,154.21,0,0,1-28,21L0,136a163.74,163.74,0,0,0,38-32,214.5,214.5,0,0,0-4.5-23.25c-6,4.5-13,9-20.5,13.75L0,62.75A225.66,225.66,0,0,0,22.75,47.5a199.3,199.3,0,0,0-13-26.75L41.5,4c4.75,8.5,7.75,14.5,9.25,17.75Q61.25,10.13,68.75,0l25.5,18.25L83,33h52.25V2h39V33H229.5V139.25H174.25v43L192.5,180c-3.25-10.5-5.75-18-7.25-22.5ZM115.25,108.5h20V64.75h-20Zm79.25,0V64.75H174.25V108.5Z"/><path class="cls-1" d="M362.5,125.5l-59.25,30c-16.5-30-25.25-57.5-22.5-91.25,1.75-20,7.5-37.75,14.5-57.25l39,13c-11,31-19.75,63-7.5,93l23.75-12Zm-14.25,61.75c35.75-7.75,57-26.5,65.5-61,9.5-38-.75-71.75-19.25-106.5L430,1c33.5,61.25,35.5,120.25,13,165-18,34.5-46.75,49.25-84.5,59.5Z"/><path class="cls-1" d="M95,475.75C51,468,16.25,432,9.25,385.5l40-6.25C54,409,75.5,431.25,102,436.5c37,6.75,66-17.75,84.75-40.75L218.5,420.5c-30.75,37.25-66.5,56.75-104.25,56.75A127.29,127.29,0,0,1,95,475.75ZM22,308.25C36.5,299,52,289,69,284c31-8.75,63.5-8.25,95.5,6.5,14.75,6.75,26.75,17.25,41.25,28.25L165,371.5l-26-19.75,15.25-21.5C129.25,316,89,310.75,43.25,342Zm163-12.5L179,258l24-4.25,6.75,38Zm33.25,19-6.75-37,24-4.75,6.75,37.25Z"/><path class="cls-1" d="M449.25,473c-25.75,8-48.75,12-69.25,12a150.72,150.72,0,0,1-34-4c-35.75-8.25-59.75-39.5-55-72.25,2.75-21.25,15-37.5,30.5-50.25-9-15.75-19.75-42-21-75.75l-.75-19,39.25-1.5.75,19A129.71,129.71,0,0,0,355,338c19.25-9.5,40-17,58.25-22.75l-5-16.75L435,290.25l16.75,53.25c-16.25,4.5-32,10-48.5,15.75-11.25,4-22.75,8.25-33.5,13.75C348.5,384,332.5,397.5,330,414.25c-2,14,10.75,26,25.25,29.5,22,5.75,51.25,2.25,84.5-8.5Z"/></g></g></g></svg>