<svg xmlns="http://www.w3.org/2000/svg" viewBox="0 0 473 481.5"><defs><style>.cls-1{fill:#fff;}</style></defs><title>text-3</title><g id="レイヤー_2" data-name="レイヤー 2"><g id="レイヤー_2-2" data-name="レイヤー 2"><g id="それも"><path class="cls-1" d="M121.75,122c-14.25,17-28.5,47.25,3.25,58.25l4.5-12.5,27,8.75-15.75,45c-49.25-3.75-66.25-25.25-72-42.5-6-18.25-1.75-39,6.5-57H0V84H93.25L120,49.5,57.5,80.25,18.25,19,52,0,79,40.75,160.5,1,190,24.25,141.5,84h66.75v38Z"/><path class="cls-1" d="M451.75,209c-50.75-31.75-64-79.25-64.5-119.5-16.75,8-37.25,18.5-51.5,30.25L336,217H296.75V155.25c-14.75,17-24,30.5-25,31.75L239.5,165a394.35,394.35,0,0,1,57.25-63.25L296.5,77.5c-6.25,0-18,1.25-34.25,10l-22.5-42.25L265,32.75l5.5,11.5a90.58,90.58,0,0,1,26-4.25V6.25h39.25V72.5C351,61.75,373.25,53,392,47a81.9,81.9,0,0,1,4.25-14.75l37.5,13C431.75,50,403,130.75,473,175Z"/><path class="cls-1" d="M197.75,357.25V394.5H92.5c.75,18.75,4.5,32.5,13.75,40.5,9,7.75,22.25,10.75,32.75,6.25,10-4,16.5-13.25,18.75-29.25l38.5,4.75c-3.75,30-19.5,51.25-43.5,60.25A69.93,69.93,0,0,1,128,481.5c-17,0-34.25-5.75-47.5-17.75-19-16.5-26.75-40.5-27.25-69.25h-43V357.25h46c1-7.25,2.25-15,3.75-22.5H12.75V297.5H68.5c1-3.75,1.5-6.75,2.25-10.25L58.25,284l7-26.5,50.5,13.25c-3,10.25-5.25,18.5-7.25,26.75H201v37.25H99.5c-1.75,7.75-3,15.25-4.25,22.5Z"/></g></g></g></svg>