<svg xmlns="http://www.w3.org/2000/svg" viewBox="0 0 474 472.25"><defs><style>.cls-1{fill:#fff;}</style></defs><title>text-2</title><g id="レイヤー_2" data-name="レイヤー 2"><g id="レイヤー_2-2" data-name="レイヤー 2"><g id="これも"><path class="cls-1" d="M209.75,149.25C179.5,185.5,135,214,86.25,205,42,196.75,7.25,161.25,0,115l41-6.5c4.75,30,26,52,51.75,56.75,37.25,6.75,65.75-17.75,85-41ZM14.25,32C29.5,22.75,44.5,13,61.5,8c31-9,67.25-8.25,99,6.5,15,7,26.5,17.25,41.25,28.5L161,95.5,134,76l15.25-21.75C125,40,83,35.25,35.75,66Z"/><path class="cls-1" d="M452.75,202.75c-50.75-31.75-64-79.25-64.5-119.5-16.75,8-37.25,18.5-51.5,30.25l.25,97.25H297.75V149c-14.75,17-24,30.5-25,31.75l-32.25-22A394.35,394.35,0,0,1,297.75,95.5l-.25-24.25c-6.25,0-18,1.25-34.25,10L240.75,39,266,26.5,271.5,38a90.58,90.58,0,0,1,26-4.25V0h39.25V66.25C352,55.5,374.25,46.75,393,40.75A81.9,81.9,0,0,1,397.25,26l37.5,13c-2,4.75-30.75,85.5,39.25,129.75Z"/><path class="cls-1" d="M195.75,348v37.25H90.5c.75,18.75,4.5,32.5,13.75,40.5,9,7.75,22.25,10.75,32.75,6.25,10-4,16.5-13.25,18.75-29.25l38.5,4.75c-3.75,30-19.5,51.25-43.5,60.25a69.93,69.93,0,0,1-24.75,4.5c-17,0-34.25-5.75-47.5-17.75C59.5,438,51.75,414,51.25,385.25h-43V348h46c1-7.25,2.25-15,3.75-22.5H10.75V288.25H66.5c1-3.75,1.5-6.75,2.25-10.25l-12.5-3.25,7-26.5,50.5,13.25c-3,10.25-5.25,18.5-7.25,26.75H199V325.5H97.5c-1.75,7.75-3,15.25-4.25,22.5Z"/></g></g></g></svg>