<svg xmlns="http://www.w3.org/2000/svg" viewBox="0 0 467.57 472.25"><defs><style>.cls-1{fill:#fff;}</style></defs><title>text-1</title><g id="レイヤー_2" data-name="レイヤー 2"><g id="レイヤー_2-2" data-name="レイヤー 2"><g id="あれも"><path class="cls-1" d="M111.32,24.75h77.5V61l-83.75-.25c-.25,5-.75,9.75-1.25,14.25,36.5-.75,79.25,17.25,92.25,56.5,9.25,27.75,5,60.25-13.5,90l-49-18.75,10-25.5L158.32,183c4-13.25,4-27.25.25-39-7.75-23.75-31.75-33.5-56-32.25a227.82,227.82,0,0,0,5,42.25c3.5-5.5,6.5-10.5,10-16.5l32.75,17c-24,46.25-56.25,63.5-86.5,63.5-26.25,0-53.75-13-61.5-41-5.75-20-.5-43.25,12.5-61,12.75-16.25,30.5-27.5,50.25-34.75.25-6.5,1-13.5,1.75-20.5H4.57v-36H71.82A65.35,65.35,0,0,0,73.32,18L77.07,0l37.25,7ZM40.07,167c4.25,14.75,23.25,16.25,35.25,12.25a221.43,221.43,0,0,1-10.5-56.75,59.68,59.68,0,0,0-18.75,16.75C40.07,147,37.32,158.25,40.07,167Z"/><path class="cls-1" d="M446.32,210.75c-50.75-31.75-64-79.25-64.5-119.5-16.75,8-37.25,18.5-51.5,30.25l.25,97.25H291.32V157c-14.75,17-24,30.5-25,31.75l-32.25-22a394.35,394.35,0,0,1,57.25-63.25l-.25-24.25c-6.25,0-18,1.25-34.25,10L234.32,47l25.25-12.5,5.5,11.5a90.58,90.58,0,0,1,26-4.25V8h39.25V74.25c15.25-10.75,37.5-19.5,56.25-25.5A81.9,81.9,0,0,1,390.82,34l37.5,13c-2,4.75-30.75,85.5,39.25,129.75Z"/><path class="cls-1" d="M189.32,348v37.25H84.07c.75,18.75,4.5,32.5,13.75,40.5,9,7.75,22.25,10.75,32.75,6.25,10-4,16.5-13.25,18.75-29.25l38.5,4.75c-3.75,30-19.5,51.25-43.5,60.25a69.93,69.93,0,0,1-24.75,4.5c-17,0-34.25-5.75-47.5-17.75-19-16.5-26.75-40.5-27.25-69.25h-43V348h46c1-7.25,2.25-15,3.75-22.5H4.32V288.25H60.07c1-3.75,1.5-6.75,2.25-10.25l-12.5-3.25,7-26.5,50.5,13.25c-3,10.25-5.25,18.5-7.25,26.75h92.5V325.5H91.07c-1.75,7.75-3,15.25-4.25,22.5Z"/></g></g></g></svg>