<svg xmlns="http://www.w3.org/2000/svg" viewBox="0 0 456.75 488.5"><defs><style>.cls-1{fill:#fff;}</style></defs><title>text-4</title><g id="レイヤー_2" data-name="レイヤー 2"><g id="レイヤー_2-2" data-name="レイヤー 2"><g id="どれも"><path class="cls-1" d="M163.75,210.75c-26.5,8.25-48.75,12-69.75,12A161.76,161.76,0,0,1,60.5,219C24,210.5,0,179.25,5.25,146.25c3.25-20.75,15-37,30.75-49.75a170.7,170.7,0,0,1-21.25-76L14,1.5,53.5,0l.75,19.25a130,130,0,0,0,15,56.25c18.75-9.25,39.25-15.75,53-20l-4.5-17.25,26.75-7.5,13.25,52.5c-16,5.75-29,9.75-40.25,14A227,227,0,0,0,84.25,111c-21,10.75-37.75,24.5-40.25,41-2.25,14.25,11,26.25,25.25,29.75,22.25,5.5,51.5,2.25,84.75-8.5ZM158.25,61l-7.5-37.25,24-4.75,7.5,36.5Zm30-12.5L180.5,11.75l24.25-5.5L212.25,44Z"/><path class="cls-1" d="M435.5,212c-50.75-31.75-64-79.25-64.5-119.5-16.75,8-37.25,18.5-51.5,30.25l.25,97.25H280.5V158.25c-14.75,17-24,30.5-25,31.75l-32.25-22a394.35,394.35,0,0,1,57.25-63.25l-.25-24.25c-6.25,0-18,1.25-34.25,10L223.5,48.25l25.25-12.5,5.5,11.5a90.58,90.58,0,0,1,26-4.25V9.25H319.5V75.5C334.75,64.75,357,56,375.75,50A81.9,81.9,0,0,1,380,35.25l37.5,13c-2,4.75-30.75,85.5,39.25,129.75Z"/><path class="cls-1" d="M187.5,364.25V401.5H82.25C83,420.25,86.75,434,96,442c9,7.75,22.25,10.75,32.75,6.25,10-4,16.5-13.25,18.75-29.25l38.5,4.75c-3.75,30-19.5,51.25-43.5,60.25a69.93,69.93,0,0,1-24.75,4.5c-17,0-34.25-5.75-47.5-17.75-19-16.5-26.75-40.5-27.25-69.25H0V364.25H46c1-7.25,2.25-15,3.75-22.5H2.5V304.5H58.25c1-3.75,1.5-6.75,2.25-10.25L48,291l7-26.5,50.5,13.25c-3,10.25-5.25,18.5-7.25,26.75h92.5v37.25H89.25c-1.75,7.75-3,15.25-4.25,22.5Z"/></g></g></g></svg>