<svg xmlns="http://www.w3.org/2000/svg" viewBox="0 0 454.58 1206.34"><defs><style>.cls-1{fill:#fff;}</style></defs><title>char-3</title><g id="レイヤー_2" data-name="レイヤー 2"><g id="レイヤー_3" data-name="レイヤー 3"><path class="cls-1" d="M202.46.15c1.37-.1,2.74-.15,4.12-.15h7.5l6.58.33q1.71.09,3.42.33L226.4,1a47,47,0,0,1,6.76,1.46l4.14,1.23,7.52,2.48a65,65,0,0,1,6.46,2.53l3.12,1.41a63.46,63.46,0,0,1,7.93,4.33l1,.66a39.77,39.77,0,0,1,3.27,2.35L269.78,20a40.06,40.06,0,0,1,4.12,3.8l2.8,2.94c.77.81,1.52,1.65,2.25,2.5l1.25,1.47A87.88,87.88,0,0,1,286,38.33l3,4.33,4.16,6.78a68.12,68.12,0,0,1,4.67,9.07L298,59a62.8,62.8,0,0,1,3.1,9.25l.06.25c.36,1.43.65,2.88.88,4.34l1,6.64.87,6.15a45.28,45.28,0,0,1,.44,5.58l.06,4.13-.21,7.25-.32,5.89,4.21-5.89,4.9-6.27c.51-.65,1.06-1.28,1.63-1.88L319,89.84,318,98.45l-1.26,10.62L315,119.89l-1.05,4.94,1.58-.57a25.44,25.44,0,0,1,5.16-1.27l1.92-.27c.46-.07.92-.11,1.38-.14l1.25-.07a25.13,25.13,0,0,1,3.47,0l1.1.08L327.18,124c-.52.28-1,.58-1.52.9l-1.37.88a25.55,25.55,0,0,0-2.78,2.09l-3.41,3,2.56.07a49,49,0,0,1,8.45,1h0a28.05,28.05,0,0,1,4.55,1.38l.72.29a39.27,39.27,0,0,1,4.5,2.12l1.08.59c.77.42,1.52.87,2.25,1.33l4.47,2.87-5.78,2.21L333,145.84,325.56,149h0a35.75,35.75,0,0,1,7.37,4.92l.51.44-2.77.21a31.66,31.66,0,0,1-8.47-.52h0l2,2.12a30.13,30.13,0,0,1,5,7.2h0a9.86,9.86,0,0,1,.7,1.8l1.52,5.27-5.36-4-4.08-3a54.37,54.37,0,0,0-6.17-3.91l-1.48-.8c-1-.54-2-1.06-3.06-1.53l-2.75-1.28,7.14,10.4,2.91,4.2a58.27,58.27,0,0,1,4.83,8.39l.85,1.82q1.08,2.3,2,4.67l1,2.64a76.59,76.59,0,0,1,3.19,10.81l.35,1.63c.51,2.37.91,4.77,1.19,7.18l0,.42a65.42,65.42,0,0,1,.31,11.71h0c-.1,1.55-.28,3.09-.53,4.62l-.46,2.79c-.28,1.72-.64,3.43-1.06,5.12l-.8,3.16a33.13,33.13,0,0,1-2.46,6.62h0a17,17,0,0,1-1.71,2.74l-1.16,1.52a22.69,22.69,0,0,1-3.48,3.65l-.88.73c-1.06.88-2.15,1.71-3.28,2.5l-2.82,2,3.28,2.83a62.35,62.35,0,0,1,7.66,7.84l2.24,2.74a50.52,50.52,0,0,1,3.41,4.69l7.57,11.74,6.62,10.3,1.8.26a10.14,10.14,0,0,1,3.54,1.18h0a12.19,12.19,0,0,1,2.87,2.17l3.58,3.64a23,23,0,0,1,2.45,2.94h0a30.76,30.76,0,0,1,2.8,4.89l.36.79c.45,1,.94,1.93,1.48,2.87l.35.61c1.12,2,2.34,3.84,3.64,5.67l9.18,12.81,12.21,16.46c.89,1.21,1.75,2.46,2.55,3.73L406,376.69l9.78,15.76,4.06,6.8a13,13,0,0,1,.8,1.58l.6,1.42a18.32,18.32,0,0,1,1.1,3.63h0a25.33,25.33,0,0,1,.48,4.92h0a22.51,22.51,0,0,1-.16,2.59h0a13.69,13.69,0,0,1-2,5.59l-2.07,3.31-8,13.59c-.39.68-.77,1.36-1.14,2.05l-9.12,17.52c-.49.94-1,1.86-1.57,2.75l-12.3,19.88-8.85,13.76a70.7,70.7,0,0,1-8.31,10.57l-.54.57c-.74.77-1.45,1.57-2.14,2.39l-3.28,3.92-2,2.4q-2.1,2.54-4,5.23l-3.17,4.49a47.69,47.69,0,0,1-6.35,7.26L343.24,533a3,3,0,0,1-2.05.81h0a5.42,5.42,0,0,1-2.35-.53L336.17,532l-5-2.31.4.73a46.2,46.2,0,0,1,3.2,7.23l.58,1.69c.18.51.34,1,.48,1.55l.18.67a19,19,0,0,1,.63,4.5l0,3.07-.09,6.26.5-.47a4.91,4.91,0,0,1,2.62-1.28l.18,0a5.47,5.47,0,0,1,1.28,0h0a3.6,3.6,0,0,1,2.14,1h0a2.17,2.17,0,0,1,.64,1.21l.33,2.15.52.11a14.69,14.69,0,0,0,1.48.23l1,.11a2,2,0,0,1,1.34.73l.61.76a3.35,3.35,0,0,1,.73,1.89l.11,1.8.06,1.82a5.34,5.34,0,0,0,.34,1.67l.58,1.53a2.42,2.42,0,0,1,.13.53l.06.57a3.41,3.41,0,0,1-.16,1.49l0,.06a10.88,10.88,0,0,1-1.55,3l-2.57,3.54-3.09,4.18a3.43,3.43,0,0,1-.48.53l-.79.75a4.71,4.71,0,0,1-.61.47l0,0a3.83,3.83,0,0,1-2.13.64h0a4.39,4.39,0,0,1-1.39-.22L338,584a18.2,18.2,0,0,1-3.16-1.4l-2.2-1.23c-.5-.28-1-.58-1.49-.9l-7.94-5.25.07.39a18.71,18.71,0,0,0,1.26,4.27l4.15,9.72q.42,1,.75,2l6.73,21c.42,1.3.8,2.62,1.13,3.95l7,28.05,3,11.35a4.57,4.57,0,0,1,.12.74l.06.69a5.1,5.1,0,0,1-.2,1.94h0a4,4,0,0,1-1.63,2.17h0a6.89,6.89,0,0,1-2.65,1.07l-2.66.48a17.79,17.79,0,0,1-2.73.28l-5.87.15.63,2.23.48,1.45a2.62,2.62,0,0,1,.15.88v.23a2.58,2.58,0,0,1-.7,1.76h0a3,3,0,0,1-1.34.83l-4.4,1.29,6.17,61.67,4.52,33.94,2.91,20,2,12.57c.18,1.1.38,2.2.62,3.29l2,9.13a55.27,55.27,0,0,0,1.93,6.79l2.21,6.2,1.47,3.16a66.55,66.55,0,0,0,4,7.33l3.44,5.51,5,8.85a59.23,59.23,0,0,1,3.41,7.09l4.07,10.12c.72,1.8,1.37,3.64,1.95,5.49L378.62,894l6.49,22.45c.41,1.41.75,2.84,1,4.28l3.63,19.17,5.17,31,4.69,30.22,4.85,27,3.23,17.45,4.7,20.94c.2.91.39,1.83.54,2.75l2.84,16.72,1,4.66a48.21,48.21,0,0,0,2.67,8.53l2,4.75,2.53,5.61a43.19,43.19,0,0,1,2,5.39l1.42,4.67,1.18,2a47.25,47.25,0,0,1,2.53,4.9l2.76,6.2,2.91,6.47-1.62,1.61.5.6a58.25,58.25,0,0,1,5,6.93l3.11,5.08,3.87,6.49c.76,1.27,1.45,2.59,2.08,3.93l2.45,5.26,1,2.06a15.42,15.42,0,0,1,1.46,6.54v2.71l-.13,5.68a21.13,21.13,0,0,1-.27,2.85l-.44,2.75a9,9,0,0,1-1.28,3.36l0,.09a12.65,12.65,0,0,1-2.16,2.57l-1.29,1.16a8.69,8.69,0,0,1-1.87,1.3l-2.4,1.23a25.42,25.42,0,0,1-4.65,1.84l-5.83,1.65a18.64,18.64,0,0,1-3,.57l-5.85.65a25.22,25.22,0,0,1-2.75.18l-5.91.1a30,30,0,0,1-5.1-.37h0a16.39,16.39,0,0,1-4.72-1.52h0a14.7,14.7,0,0,1-4.52-3.5h0a23,23,0,0,1-3.89-6.26l-1.47-3.5-3.39-9.21-1-3a42.17,42.17,0,0,1-2-9.68l-.55-6.35-.48-8.57-3.88-9.14a48.08,48.08,0,0,1-1.94-5.43l-.42-1.43a50.8,50.8,0,0,1-1.8-9.54l-.67-7.39c-.12-1.32-.19-2.64-.22-4l-.05-3a48,48,0,0,1,.73-9.12h0L378,1083.71l-3.33-15.81a47.42,47.42,0,0,0-1.37-5.14l-2.9-8.94-8.56-23-13.58-38.31-14.06-41-15.19-41-10-27.29q-.54-1.47-1.17-2.91l-9.23-21.19L292,844.53l-3.4-8.56q-1.6-4.05-2.81-8.24l-4.29-14.88L277,798.38c-.25-.8-.52-1.6-.81-2.39l-3.76-10.13-7.11-22.63-9.7-30.06L246.26,706l-8.09-24.4-3.55-.16.32,5.17-6.67.76a34.43,34.43,0,0,1-3.8.21H211.35v37.82l.44,35.61.55,46.42L214,839l5.11,14.36,4.54,13.08c.93,2.7,1.77,5.44,2.49,8.2l3.47,13.26,1.78,8.07a115.77,115.77,0,0,1,1.94,11.59l.48,4.11q.49,4.27.68,8.57l.65,15,.49,26.18c0,2.16,0,4.33,0,6.49l-1,28.53-1.66,45.31-1,20.72-.28,16,.56,16.85v4.73a5.88,5.88,0,0,0,.08,1l.36,2.35a12,12,0,0,0,.3,1.45l.19.7a26.33,26.33,0,0,0,3,7l.61,1c.47.75.9,1.51,1.31,2.29l.17.32a37.45,37.45,0,0,1,3.91,11.77h0l.24,11.11c0,1.07,0,2.14,0,3.2l-.22,5.72-1,12.3-8.35,5.37c-2.17,1.39-4.4,2.7-6.68,3.91l-11.36,6-7.18-3.31-8.27,7.54c-.84.78-1.72,1.51-2.63,2.2l-6.5,4.91a41.9,41.9,0,0,1-3.75,2.55l-3.95,2.39a61,61,0,0,1-9.63,4.73l-1.6.62a56,56,0,0,1-9.08,2.68l-5.43,1.11-7.33,1.11a30.92,30.92,0,0,1-3.59.34l-1.36,0a38.74,38.74,0,0,1-8.53-.62l-.4-.08a30.91,30.91,0,0,1-5.51-1.56h0a26.68,26.68,0,0,1-7.45-4.4l-.39-.33a21.86,21.86,0,0,1-2.51-2.49h0a11.16,11.16,0,0,1-2.52-5.46h0a20.68,20.68,0,0,1-.26-4.08l.28-8.39a28.26,28.26,0,0,1,.33-3.42l0-.23a29,29,0,0,1,2.46-7.93l.34-.7a18.43,18.43,0,0,1,1.44-2.52h0a18,18,0,0,1,5.58-5.22l1.42-.85a40.66,40.66,0,0,1,5-2.52l7-3a44.11,44.11,0,0,0,6.55-3.47l4-2.55a57.47,57.47,0,0,0,4.95-3.57l1.42-1.14a47,47,0,0,0,6-5.74l3.49-4a10.1,10.1,0,0,1,.86-.87l1.49-1.35a19.13,19.13,0,0,1,5.24-3.36h0l1.6-5.59a16.51,16.51,0,0,1,1.76-4l.58-1a9.28,9.28,0,0,1,2.68-2.83h0a4.19,4.19,0,0,1,2.16-.72l.61,0a16,16,0,0,1,2.49.08h0l.59-4.36a76.28,76.28,0,0,0,.71-9.55l.33-27.62c0-1.78,0-3.56-.13-5.34l-1.92-32.63c-.09-1.52-.23-3-.41-4.54l-5.94-48-5.66-42-5.16-29.27a107.51,107.51,0,0,0-3.26-13.36l-2.36-7.51-5.8-19.76L155.5,857a47.48,47.48,0,0,1-1.46-7.55l-.82-7.36-1.38-11.19-.21-2.34a68.34,68.34,0,0,0-1.86-10.91l-3.87-15.07-7.19-34.39-7.32-35.92-8.7-43.24-7.14-2.71c-.58-.22-1.16-.46-1.72-.71l-2.11-.95a55.15,55.15,0,0,1-7.82-4.33h0l.14-22.52-.11-24.31a92.88,92.88,0,0,1,1-14l1-7.11,1.68-15.18a36.3,36.3,0,0,0,.07-7.22h0c-.24-2.75-.37-5.51-.37-8.26v-17c0-2.76.11-5.52.31-8.28l.66-8.85-1.52-5.37c-.18-.66-.35-1.32-.49-2l-.06-.28a36.07,36.07,0,0,1-.66-10.52h0a7.36,7.36,0,0,1,.67-2.52l2.14-4.61q1-2.2,1.88-4.48l1.17-3.11a73,73,0,0,0,3.28-11.6l.28-1.44a63.84,63.84,0,0,0,1.18-10.77v-.36l1-3.45c.56-2,1.18-4.05,1.85-6l7.14-21.18,3.57-11.46a74.18,74.18,0,0,0,3-14.69l.62-6.38c.2-2.07.31-4.16.34-6.25l.1-9.3L132.07,407q-.82-2.36-1.44-4.75l-.92-3.52a28.92,28.92,0,0,1-.94-7.34h0l1.31-1.84a6.46,6.46,0,0,1,1.86-1.75h0l-3.23-7.95c-1.07-2.62-2-5.29-2.88-8h0A82.62,82.62,0,0,1,122.42,355l-.08-.84a52.59,52.59,0,0,1-.21-7.1h0a35.82,35.82,0,0,1,1.08-7.42l.72-2.84-15.92.79c-5,.25-9.92.31-14.88.18l-19-.48-30.67.17-16.72.42c-2.22.05-4.44,0-6.65-.09l-2.06-.1a21.25,21.25,0,0,1-8.62-2.32h0a12,12,0,0,1-3.25-2.45l-.72-.77A22.05,22.05,0,0,1,1,325H1a11.83,11.83,0,0,1-.81-4.32V310.15L0,291.36c0-2,0-3.93.14-5.89l.32-5.75q.36-6.64,1.35-13.22l1.62-10.8c.28-1.89.63-3.78,1-5.65l3.1-14.55,1.67-7.79a75.47,75.47,0,0,0,1.28-8.08l1-9.9a102.32,102.32,0,0,1,2.52-14.33l2.14-8.58c.54-2.14,1.15-4.27,1.83-6.37l1.92-5.87a47.06,47.06,0,0,1,4.81-10.35h0l.73-8.85a94.59,94.59,0,0,1,4.66-22.51l.17-.49L35,126.94a17.88,17.88,0,0,1,3.52-3.15h0a3.16,3.16,0,0,1,1.62-.56h0a17.34,17.34,0,0,1,3.6.14l.57.08.5-.77a62,62,0,0,1,9-10.91l4.48-4.33L72.94,92.11l5.72-5.47A84.61,84.61,0,0,0,88.76,75.1l2.49-3.42a71.66,71.66,0,0,0,4.43-6.91h0c.68-1.21,1.41-2.38,2.2-3.52l5.9-8.57L109.67,45a64,64,0,0,1,6.66-7.4l5.29-5a90.79,90.79,0,0,1,10.07-8.28h0a86.53,86.53,0,0,1,14.39-8.24l7.13-3.21c2.65-1.19,5.36-2.26,8.12-3.19l7.27-2.45q2.58-.87,5.2-1.57l7.69-2.06A113,113,0,0,1,193.69,1h0c1.73-.26,3.47-.46,5.21-.59Zm97.85,346.22-1.58,16.4-3.56,20.15-6.32,31.42-2.16,8.51a75.47,75.47,0,0,0-2.19,14.41h0l2.52,4.33c.69,1.19,1.35,2.41,2,3.65l3,6.05.51,4.36a44,44,0,0,1,.32,4.72l.16,8.7,5.93,12.65,6.71,14.42,10-15.49a63.89,63.89,0,0,0,4.61-8.49l3.63-8.08a52.18,52.18,0,0,1,3-5.64l10.79-17.82,9.09-16.21.6-6.32.19-4.25a26.2,26.2,0,0,1,1.75-8.2h0a14.38,14.38,0,0,1,1.61-3h0a27.26,27.26,0,0,1-4.7-7.49l-1.42-3.38-5.45-4q-2.65-1.94-5.11-4.11l-7.27-6.41a64.7,64.7,0,0,1-6.88-7.07l-7.45-8.91c-.95-1.14-1.88-2.32-2.77-3.52l-3.06-4.14a54.66,54.66,0,0,0-6.47-7.29ZM250,199.22l.14,17.87,2-7.26a70.22,70.22,0,0,0,1.6-7.18l0-.24a40.17,40.17,0,0,0,.48-4.38l.31-5.72.43-7.78-5.33,6.77ZM253,218.9h0l3.76-.3a3.14,3.14,0,0,1,.81,0h0a5,5,0,0,1,3.18,1.83l.13.17a7.73,7.73,0,0,1,1.21,2.15l.64,1.75a65.07,65.07,0,0,0,3,6.8l2.81,5.56,11.36,4.05,9.32,3.15L286,238.91h0a42.83,42.83,0,0,1-4-8.31l-.19-.51c-.47-1.31-.89-2.65-1.25-4l-.75-2.77c-.26-1-.49-2-.68-3l-.84-4.55-.78-5.48a31.41,31.41,0,0,1-.31-3.21l-.37-7.6-2.59,11L272.47,218V206.09l.09-8.37c0-1.54,0-3.08-.17-4.61l-.6-7.37L270.21,191a48.46,48.46,0,0,1-1.83,5l-.71,1.63a46.28,46.28,0,0,1-2.64,5.21l-1.8,3.08a35.68,35.68,0,0,1-2.16,3.28l-4.5,6.13A18.28,18.28,0,0,1,253,218.9Zm36.47-64.38-.45,13.7c0,1.3-.05,2.59,0,3.89l.29,12.68c0,1.53.14,3.06.33,4.58l.9,7.52a74.56,74.56,0,0,0,2,10.26l.89,3.34a67.47,67.47,0,0,0,2.35,7.17l1.62,4.15a68.22,68.22,0,0,0,3.1,6.8l.82,1.54a24.52,24.52,0,0,0,3.45,5h0A7.78,7.78,0,0,0,307.2,237h0a5.56,5.56,0,0,0,3.7.41h0a.52.52,0,0,0,.36-.3h0a8.21,8.21,0,0,0,.67-3.79l-.13-2.13-.26-6.79-.64-11-1.15-10.9-1.2-8.18c-.23-1.55-.52-3.1-.87-4.63L306,182.47l-1.69-6.11a40,40,0,0,0-1.49-4.36l-1.42-3.48c-.35-.87-.73-1.73-1.13-2.58l-2-4.14a39.63,39.63,0,0,0-2-3.68h0a54.94,54.94,0,0,0-5.32-7.28l-1.14-1.32Zm-195.11-29-4.73,3.35c-.54.38-1.1.75-1.66,1.1l-5,3.14L78,136.36q-.7.48-1.44.9l-4.21,2.47,2.75,1.92q1.77,1.24,3.4,2.64l2,1.67.31.4A24,24,0,0,1,84.4,153h0a19.71,19.71,0,0,1-1,6.81L82,163.7l-3.92,12.37c-.34,1.07-.73,2.13-1.16,3.17l-4.72,11.4,2.32,15a44.13,44.13,0,0,1,.54,6.29l.08,4.91a41.12,41.12,0,0,1-.26,5.32l-.25,2.25a34.66,34.66,0,0,1-.65,3.8l-1.47,6.41a43,43,0,0,1-1.17,4.17l-1,3.09a40.49,40.49,0,0,1-3.53,7.76l-1.75,3,.36.59a11.91,11.91,0,0,1,1.66,6.46h0a18.89,18.89,0,0,1-.37,3.09l-1.48,7.17,5.87-2.24a24.53,24.53,0,0,1,2.64-.84l3.77-1a21.66,21.66,0,0,1,9-.38h0L95,267.22l9.56-3.06a30.66,30.66,0,0,1,3.26-.86l10.65-2.23c.78-.16,1.57-.3,2.36-.4l7.76-1,12.63-5.28L140,250a55.28,55.28,0,0,1-1.43-6.59l-.38-2.51c-.14-.93-.25-1.87-.32-2.82L137,226.55l-4.58-7.43a38.28,38.28,0,0,1-1.92-3.5l-4.84-10.05,1.44,7.84,1.11,8.19.44,5.22a33.56,33.56,0,0,1,0,5.93l-.65,6.76L125.64,224a26.39,26.39,0,0,0-.61-2.91L121.44,208c-.19-.69-.4-1.36-.63-2l-3-8.66a68.33,68.33,0,0,0-2.81-6.93L110,179.56l-7.42-17.4-2.63-7.1q-.95-2.53-1.65-5.15l-1.37-5.13a48.07,48.07,0,0,1-1.14-5.56L95,133.87c-.25-1.78-.42-3.56-.5-5.35Zm64.81,88.41a16.48,16.48,0,0,0-.33,5.6l.09.76a30.57,30.57,0,0,0,1.1,5.28h0a40.22,40.22,0,0,0,3.39,8l.06.11-5-3.94,1,9.55c.14,1.32.34,2.64.61,3.94l1,5,8.54-.22-.14-10.22-.07-5.43c0-.52,0-1-.07-1.54l-.09-1.15a34.49,34.49,0,0,0-1.26-6.84l-.06-.21a30,30,0,0,0-1-2.9l-.89-2.22-.69-.43a40.75,40.75,0,0,0-5.25-2.72l-1-.43Zm22.89,9.56,1.08,3.18c.27.81.51,1.63.7,2.46l.42,1.77a35,35,0,0,1,.7,4.07l.23,2a37.14,37.14,0,0,1,.24,4.21v3.55l3.3-.16.34-4.47a13.81,13.81,0,0,1,.19-1.42l.12-.59a4.14,4.14,0,0,1,1-2h0a3.92,3.92,0,0,1,1.14-.88l.48-.25a15.85,15.85,0,0,1,3-1.19l3.21-.9,5.34-1.65.08-3.61-3.77-1.26-4-1.47c-.89-.33-1.79-.61-2.7-.86l-3.94-1.07q-1-.28-2.13-.51l-5.84-1.19Z"/></g></g></svg>