<svg xmlns="http://www.w3.org/2000/svg" viewBox="0 0 449.71 1237.33"><defs><style>.cls-1{fill:#fff;}</style></defs><title>char-4</title><g id="レイヤー_2" data-name="レイヤー 2"><g id="レイヤー_4" data-name="レイヤー 4"><path class="cls-1" d="M129.8.8A115.83,115.83,0,0,1,145.15,0l2.95,0,1.78.11a84.33,84.33,0,0,1,11.41,1.55l3.85.8,5.23.87a89.12,89.12,0,0,1,12.89,3.16h0a33.33,33.33,0,0,1,5.18,2.21l2,1.05a59.06,59.06,0,0,1,6.2,3.83l2.53,1.79c1.57,1.11,3.1,2.28,4.59,3.49l5.19,4.24c.4.33.79.67,1.16,1l2.3,2.18a51.27,51.27,0,0,1,6.88,8.05l1.31,1.91a48.68,48.68,0,0,1,3.9,6.75l1.43,3a47.69,47.69,0,0,1,2.48,6.43l1.28,4.22c.34,1.1.64,2.21.92,3.32L232,65.6c.34,1.42.65,2.84.91,4.28l1.74,9.48L237,95.92c.26,1.85.46,3.7.58,5.56l1.12,16.87L239.85,137l5.58,1.46q1.31.34,2.58.78l4.89,1.66a20,20,0,0,1,3,1.3l3.52,1.93a4.16,4.16,0,0,1,.85.59l1.19,1a4,4,0,0,1,1.3,2.26l.26,1.34a7.85,7.85,0,0,1,0,3.13l-.61,2.81c0,.14-.06.29-.1.43l-.8,2.87a11.64,11.64,0,0,1-.75,2l-.89,1.86a21,21,0,0,1-1.82,3.07l-2.24,3.13,1.07,2.63a8.08,8.08,0,0,1,.59,3.73l-.09,1.14a12.45,12.45,0,0,1-.4,2.34l-.43,1.59a15.49,15.49,0,0,1-1.11,2.93h0a27.39,27.39,0,0,1-2.57,4.16l-1.48,2L266.07,207l15.73,19.17,7.7,9.51,2.65,2.94a4.46,4.46,0,0,1,.52.71l.3.51a2.5,2.5,0,0,1,.14,2.23h0a1.88,1.88,0,0,1-1.18,1.09l-1.77.6c-.55.18-1.1.38-1.64.59h0a20.89,20.89,0,0,0-6.72,4.27l-3.12,2.95-5.21,5.33a34.68,34.68,0,0,1-3.56,3.18l-4.66,3.61-5.57,4.1,7.15,16.69c.47,1.11.91,2.23,1.3,3.36L279.67,321l14.09,46.37,4.58,15.72,3.28,11,2.07,2.48a75.21,75.21,0,0,1,5.27,7.15l4,6.1.92,1.42a44.91,44.91,0,0,0,6.2,7.62l3.31,3.28a83,83,0,0,1,10.11,12l2.89,4.16,3.08,2.72a41.6,41.6,0,0,1,6.92,7.89l3.2,4.72a57.64,57.64,0,0,1,3.13,5.22l6.44,12.22,4.63,6.35a28.6,28.6,0,0,0,2.4,2.86l7.88,8.16,5,5.65a46,46,0,0,1,4.56,6.11h0a20.79,20.79,0,0,1,2,4.23h0a36.73,36.73,0,0,1,1.68,7.18v.09l3.64,3.87c1.07,1.13,2.08,2.32,3,3.55l4.3,5.52,4.1,5.48a9.08,9.08,0,0,1,.6.88l1.67,2.74a2.74,2.74,0,0,1,.39,1.23l.12,1.64h0a15,15,0,0,1-.93,6l-.38,1,8.19,5.41,5.58,3.83a35.06,35.06,0,0,0,4.79,2.77l2.25,1.07a41.21,41.21,0,0,1,4.73,2.65l3.38,2.18a34.51,34.51,0,0,1,5,4h0a25.06,25.06,0,0,1,2.91,3.34l.87,1.2a9.27,9.27,0,0,1,.79,1.27l.8,1.52a5.76,5.76,0,0,1,.66,2.67h0a4.16,4.16,0,0,1-.49,2l-1.15,2.2,1.24,2a11.91,11.91,0,0,1,.93,1.94l.15.42a22.69,22.69,0,0,1,1.13,4.45l0,.3a11.39,11.39,0,0,0,1.13,3.5l1.75,3.4c.12.23.25.46.39.68l.18.29a3.81,3.81,0,0,1,0,4h0a1,1,0,0,1-1.1.44l-1-.25a9.51,9.51,0,0,1-4-2.08h0a32.72,32.72,0,0,1-4.29-4.59l-2.09-2.75a7.57,7.57,0,0,0-.53-.6h0a9.15,9.15,0,0,0-3.56-2.2l-2.87-1-3.08-1.11a25.13,25.13,0,0,0-5.81-1.33l-1.17-.12a35.2,35.2,0,0,1-7.25-1.54l-4-1.3h0a17,17,0,0,0,2.94,5.36h0a23.34,23.34,0,0,0,3.69,3.61l2.38,1.84,5.4,4.59L426.4,601a4.2,4.2,0,0,1,1.09,1.57h0a2.75,2.75,0,0,1,.15,1.5h0a1.43,1.43,0,0,1-1.23,1.16h0a9.29,9.29,0,0,1-5.72-1.18l-2-1.15a19.07,19.07,0,0,0-3.28-1.51l-4.59-1.59a21.22,21.22,0,0,1-2.41-1l-1-.48a39.91,39.91,0,0,1-5.32-3.2l-4.16-3a59.9,59.9,0,0,1-4.76-3.79l-3.65-3.24a47.9,47.9,0,0,1-5.09-5.28l-4.37-5.31a30.24,30.24,0,0,1-1.86-2.48l-2.9-4.28-2.07,1.63a8.74,8.74,0,0,1-2.28,1.3l-1.13.43a8.56,8.56,0,0,1-3.91.54h0a4.27,4.27,0,0,1-2.47-1.1l-3.37-3.11q-2-1.83-3.83-3.78l-4.58-4.82a49.4,49.4,0,0,1-5.25-6.55l-4.7-7-1.67-.44a15,15,0,0,1-5-2.37h0a36.16,36.16,0,0,1-7.45-7.27l-3.38-4.42c-1.3-1.69-2.52-3.44-3.67-5.23l-8.76-13.7.16,8.2-.49,19.66-.88,13.74c-.07,1.1-.18,2.21-.33,3.31l-1.74,12.44-2.78-25.89-3-19.17-2.3-15.89L300,523.88c0,1-.08,2-.17,2.92l-1.17,13.35c-.12,1.27-.29,2.53-.53,3.78l-1.95,10.25c-.21,1.09-.45,2.17-.73,3.25l-2.37,9.2v-10.5q0-1.78-.15-3.57l-1-12L290.81,553l-.66,10.32-3.28.17-1.07.88a16.51,16.51,0,0,0-1.39,1.25l-1.26,1.26a16.77,16.77,0,0,1-3.77,2.83l-.11.06a32.15,32.15,0,0,1-6,2.54l-2.76.84.61,1.23a3.39,3.39,0,0,1,.37,1.57v.11a7.21,7.21,0,0,1-.37,2.31h0a8.73,8.73,0,0,1-1.93,3.23L268,582.85l8.5,25.33c.67,2,1.25,4.05,1.72,6.11l5.68,24.43,2.62,13.76,2,8.19.49,1.81-4.65,2.22a25,25,0,0,1-5.32,1.83l-2.65.58a48.32,48.32,0,0,1-5.6.89l-5.37.54L267.5,672a1.4,1.4,0,0,1,.1,1.26h0a3.85,3.85,0,0,1-1.82,2l-1.3.64a4.51,4.51,0,0,1-.79.32l-4,1.19L258,711l-.49,28.68-.49,20.48.32,25.88.71,13.54a37.5,37.5,0,0,0,.48,4.36h0a27.57,27.57,0,0,0,2.13,6.86l.19.41a22.68,22.68,0,0,0,2.66,4.41l2.84,3.68L278,833.37l7.31,9.56c.8,1.05,1.58,2.13,2.33,3.22l6.58,9.66,8.08,13.82c1.38,2.36,2.68,4.78,3.88,7.25l5.25,10.77a92.3,92.3,0,0,1,4,9.63L320.34,911c.63,1.77,1.2,3.56,1.73,5.36l10,34.33L339,971l3.25,9.36a93.67,93.67,0,0,0,4.7,11.13h0a41.16,41.16,0,0,0,5.4,8.19l3.19,3.76,1.14,1.39a62,62,0,0,0,7.59,7.7h0a17.85,17.85,0,0,1,2.32,2.36l1.7,2.07q1.67,2.06,3.17,4.23l3.2,4.67a12.9,12.9,0,0,0,2.45,2.66h0a14.64,14.64,0,0,1,3.55,4.28l.34.6a32.56,32.56,0,0,1,1.88,4.12h0a30.44,30.44,0,0,1,1.91,10.16l.08,5.24.33,11.31.41,12a34.33,34.33,0,0,0,.54,5.06l.7,3.81a30.12,30.12,0,0,0,.83,3.37l.95,3a54.73,54.73,0,0,1,1.6,6.45l1.2,6.39.7,3.44a38.45,38.45,0,0,1,.74,9.27h0a21,21,0,0,1-1.2,6.18l-.17.49a24.2,24.2,0,0,1-4.61,7.87l-1,1.18c-.43.49-.88,1-1.36,1.42l-2.33,2.24a14.14,14.14,0,0,1-3.07,2.26l-4,2.19a13.37,13.37,0,0,1-3.16,1.23l-5.22,1.31-.67.14h0a16.54,16.54,0,0,1-6.5-.12l-2.74-.61a8.8,8.8,0,0,1-2.62-1.06h0a28.84,28.84,0,0,1-8-7.24h0a50.41,50.41,0,0,1-3-4.51h0a38.41,38.41,0,0,1-4.73-12.9h0c-.19-1.09-.33-2.19-.43-3.29l-.8-9.08c0-.27,0-.54,0-.82v-21.54h0a38.63,38.63,0,0,1-4.54-11.91l-.13-.66q-.57-2.83-.87-5.71v-.07a62.9,62.9,0,0,1-.34-6.58V1057l-3.56-6.74a11,11,0,0,1-1.27-4.83l0-.78a6.6,6.6,0,0,1,1.23-4.05h0a3.12,3.12,0,0,1,.83-.79l1.8-1.16-1.6-6.43a31.44,31.44,0,0,0-3.07-7.7l-1.51-2.7a51.4,51.4,0,0,0-3.75-5.74L311,1003.6l-9.67-13.93L285.73,966.9l-17-26.38-21-30.48L234,888.46q-2.83-4.47-5.29-9.15l-10.16-19.4-8.68-15.24-6-11.78a39.06,39.06,0,0,1-1.9-4.41l-1.21-3.4c-.83-2.34-1.56-4.72-2.17-7.13l-4.82-19-9-41.29-6.55-33.1-3.45-21.72c-.21-1.36-.39-2.72-.52-4.08l-.95-9.75-3-.62a90,90,0,0,0-10.08-1.47l-.49,0h0a14.33,14.33,0,0,1-1.36,4.37l-1.26,2.51,1.15,54.07,1.24,36.93c.05,1.26.05,2.53,0,3.8l-.18,6.11a41.62,41.62,0,0,0,.25,5.91l.52,4.39a39.66,39.66,0,0,0,.89,4.94l1.52,6.18a38.51,38.51,0,0,1,.93,5.43l.51,5.21a54.89,54.89,0,0,1,0,11l-1.06,10.09-1.31,21.45c-.11,1.87-.17,3.74-.17,5.61v19l1.8,39.65,1.31,35.07,1.46,23.79c.12,1.94.3,3.88.55,5.8l3.45,27.37c.19,1.46.33,2.91.42,4.38l.94,14.16c.15,2.31.38,4.62.69,6.91l3.31,24.9,3.6,20.65,2.53,15.31a55.16,55.16,0,0,0,1.62,7l1.53,5.08c.37,1.21.68,2.44.93,3.68l.11.54a85.67,85.67,0,0,1,1.4,9.71l.57,6.57.26.28a44.91,44.91,0,0,1,7.2,10.29h0a35.77,35.77,0,0,1,2.69,7l2.06,7.63q.4,1.5.72,3l2,9.62,1.63,6.54c.11.45.24.88.38,1.32l2.86,8.85a18.48,18.48,0,0,1,.59,2.33l1.18,6.28c.05.27.09.53.12.8l.84,6.53a13.3,13.3,0,0,1,.1,1.55v5.1a6.65,6.65,0,0,1-.93,3.39l-.35.6a7.22,7.22,0,0,1-2.25,2.35l-3.4,2.21a31.38,31.38,0,0,1-4.72,2.51l-4.92,2.08a18.58,18.58,0,0,1-2.31.81l-3.59,1a14.22,14.22,0,0,1-3.3.54l-6.67.32a12.18,12.18,0,0,1-3.56-.35l-5.19-1.32a21.46,21.46,0,0,1-5.18-2.06l-.56-.31a16.56,16.56,0,0,1-6.65-6.85h0l-2.32-5.94a51.32,51.32,0,0,1-2.66-9.34l-.91-5a55.21,55.21,0,0,1-.91-9.07l-.22-11.71a27.3,27.3,0,0,0-.24-3.13l-.77-5.65-1.83-10.11a39.55,39.55,0,0,1-.63-7v-5.69a8.33,8.33,0,0,1,1.28-4.42l.69-1.09-1.87-8.23a30.78,30.78,0,0,1-.72-5.22l-.29-6-.32-6.5a71.56,71.56,0,0,0-.88-8.14l-1-6a69.41,69.41,0,0,0-2.11-9l-6.15-20.11-10.06-29.91L114.79,1019l-6.74-24.38a119.64,119.64,0,0,1-2.75-12.53l-3.19-19.51c-.22-1.36-.4-2.73-.55-4.1l-2.28-21.58c0-.33-.06-.67-.07-1l-.8-19.6q-.12-3,0-5.91l1-31.24,1.48-30.71.21-10.92q.06-2.9-.14-5.77l-.74-10.43a63.54,63.54,0,0,0-1-7.65l-2.51-13c-.25-1.31-.55-2.61-.88-3.91l-7.55-29.3-11.8-43.85-9-32.72-4.56-1.74v4.29h0a61.24,61.24,0,0,1-13.2-4.18l-8.39-3.73,2-33.12,2.42-29.24,1.84-15.75a98.43,98.43,0,0,1,2.72-14.15h0l-.48-.25a6.88,6.88,0,0,1-3-3.22h0A4.1,4.1,0,0,1,46.4,588v-5.81a62.15,62.15,0,0,1,.92-10.64l.42-2.4a62.78,62.78,0,0,1,2.77-10.42l.58-1.61-1.57-2.9a9.3,9.3,0,0,1-1.11-4.4h0a33.16,33.16,0,0,1,.88-7.56l1.39-5.84c.63-2.65,1.4-5.26,2.29-7.83l5.36-15.34a64.46,64.46,0,0,1,2.8-6.78l8.2-17.07-10.13,2c-1,.2-2,.44-3.05.71L49,494.08a20.49,20.49,0,0,1-4.4.7l-4,.18a17.73,17.73,0,0,1-4.7-.4L33.41,494a26.71,26.71,0,0,1-7.16-2.69L23.85,490a26.56,26.56,0,0,1-3.77-2.51h0A24.07,24.07,0,0,1,14.37,481l-3.6-6A16.19,16.19,0,0,1,9.07,471l-.6-2.14a84.28,84.28,0,0,1-3.1-20.64V448l-3.23-6.83a17.26,17.26,0,0,1-.69-1.67l-1-2.66A7.87,7.87,0,0,1,0,434.13H0a6.67,6.67,0,0,1,1.33-4L4,426.55l6.84-9.25L14,413.54l5.76-23.73,9-32.05,6.86-22.5c.61-2,1.3-3.94,2.06-5.87l6.36-16,6.17-4.15,5.9-20,1.66-6.49a31.55,31.55,0,0,1,4.14-9.41h0a27.56,27.56,0,0,1,3.28-4.1L67.36,267c.68-.7,1.4-1.38,2.13-2l1.45-1.3,0-1.67a74.33,74.33,0,0,0-1-11l-3.63-21.2-6.7-31.38-6.7-33.51q-1.62-8.06-2.47-16.24l-1.81-17.34c-.19-1.85-.31-3.7-.37-5.56l-.46-15c-.08-2.69,0-5.39.12-8.08l1.29-21.08A82.71,82.71,0,0,1,50.57,70.4l1.52-7.74A61.2,61.2,0,0,1,56,50.12l1.15-2.65a50.56,50.56,0,0,1,7.23-11.89l3.06-3.77a46.58,46.58,0,0,1,4.06-4.37l10-9.48-5.14.3a36.8,36.8,0,0,0-8.33,1.44l-5.91,1.74q-1.41.4-2.79.9L51.22,25.2l-8,3.09,7.94-5.74a30.66,30.66,0,0,1,3.59-2.22l5.41-2.83a46.88,46.88,0,0,1,8.28-3.38l1.26-.38A46.1,46.1,0,0,1,78.27,12l2.32-.25a95,95,0,0,1,9.69-.5h5.87l4.38-2.45a52.73,52.73,0,0,1,12-4.9h0A38.83,38.83,0,0,1,116.6,3L129.8.8ZM90.65,258.2l7.26-2-4.06-9.33A89.57,89.57,0,0,1,90.52,238L87.08,227l-.2,13.12-.4,19.37Z"/></g></g></svg>