<svg xmlns="http://www.w3.org/2000/svg" viewBox="0 0 495.61 1248.28"><defs><style>.cls-1{fill:#fff;}</style></defs><title>char-1</title><g id="レイヤー_2" data-name="レイヤー 2"><g id="レイヤー_1-2" data-name="レイヤー 1"><path class="cls-1" d="M378,1115.43l-3.72-34.38-3.48-31.6-4.88-40L360.84,967,358.23,946c-.27-2.15-.62-4.3-1.05-6.43l-2.84-14.23-3-13.85c-.51-2.38-1.13-4.74-1.86-7.06l-6.33-20-7.9-21.15-2.47-7.21a14,14,0,0,1-.7-3.32l-.39-4.76a20.1,20.1,0,0,1,0-3.8l1-9,3.33-22.3q.39-2.56.94-5.09l4.56-20.71,8.6-32.76,6.73-28.58,5.43-25.06q.62-2.82,1-5.69l1-8,9.46-1.14a36.38,36.38,0,0,0,4.27-.77l4.54-1.1a19.92,19.92,0,0,0,2-.59l3.66-1.28-1.48-3.86a34.84,34.84,0,0,1-1.38-4.46l-.62-2.6h0a15.52,15.52,0,0,0,5.27.93h2.86l1.3,1.88a6.72,6.72,0,0,0,2,1.87h0a3.2,3.2,0,0,0,1.49.48l1.9.13a5.08,5.08,0,0,0,1.55-.15l1.7-.45a4.42,4.42,0,0,0,2.85-2.32l.47-.93a3.77,3.77,0,0,0,.34-1.08l.61-4.08,3-1.59a10,10,0,0,0,1.78-1.19l.73-.61a4.71,4.71,0,0,0,1.58-2.59l.15-.7a8.37,8.37,0,0,1,1.67-3.44l.32-.38a4.33,4.33,0,0,1,1.27-1.06l1.41-.77a5.42,5.42,0,0,0,.78-.5l.86-.68a3.33,3.33,0,0,0,1.16-1.71l.63-2.21.43-1.57a4.18,4.18,0,0,1,.95-1.74l1.41-1.57,2.25.61a25.7,25.7,0,0,0,7.71.87h0a43,43,0,0,0,4.68-.41l4.25-.59a27.88,27.88,0,0,0,6.6-1.77l2.5-1a22.16,22.16,0,0,0,5.37-3.12l1.37-1.07a36.77,36.77,0,0,0,4.92-4.66l.74-.84a26,26,0,0,0,3.6-5.27l.8-1.55a24.59,24.59,0,0,0,2.14-5.87l.93-4.13-4.36,3.82a9.72,9.72,0,0,1-2.71,1.67h0a37.44,37.44,0,0,1-12.34,2.72l-3.13.16H444a23,23,0,0,1-5.89-.78h0a25.8,25.8,0,0,1-6-2.46l-.63-.35a41.67,41.67,0,0,1-6.56-4.62l-3.68-3.18-1.84-7.77a18.48,18.48,0,0,0-.63-2.08l-2.88-7.81,3.72-2.79.44.26a49.4,49.4,0,0,0,12.38,5.22l.2,0a41.51,41.51,0,0,0,5.63,1.11l2.34.3a45.91,45.91,0,0,0,7.77.34l1.17,0a76.39,76.39,0,0,0,12.51-1.55l1.06-.22a47.18,47.18,0,0,0,7.61-2.27l1.78-.7a46.46,46.46,0,0,0,4.25-1.93l1.86-1a38,38,0,0,0,7-4.61l1.1-.92c.83-.69,1.65-1.41,2.44-2.15l6.48-6.09-4.74,1.88a53.3,53.3,0,0,1-13.27,3.35h0a49.31,49.31,0,0,1-5.83.35h0a40.68,40.68,0,0,1-8-.8l-3-.6,8-2.29a8.61,8.61,0,0,0,3.12-1.65h0a35.91,35.91,0,0,0,5.07-5.17l2.14-2.68a24.11,24.11,0,0,0,2.1-3.07h0a52.33,52.33,0,0,0,5.91-15.37l.13-.61a42.17,42.17,0,0,0,.7-4.34l.67-6c.17-1.53.29-3.07.37-4.6l.35-7v-5.67a18.16,18.16,0,0,0-.55-4.4h0a36.85,36.85,0,0,0-3.17-8.29h0l.63,6.76a4,4,0,0,1-.1,1.34h0a24.3,24.3,0,0,1-4.32,8.93h0a26.56,26.56,0,0,1-3.47,3.72l-2,1.76a41.14,41.14,0,0,1-5.06,3.85l-1.44.92a15.38,15.38,0,0,1-5.17,2.11h0a48.85,48.85,0,0,1-8,1l-1.43.06a7.39,7.39,0,0,1-1.15-.06h0A10.4,10.4,0,0,1,449,539.9l-.89-.72a29.64,29.64,0,0,1-5.43-5.81l-.46-.65a28.53,28.53,0,0,1-4.7-10.8h0a14.87,14.87,0,0,1-.27-4h0a61.79,61.79,0,0,1,2.88-14.62l.16-.49a36.06,36.06,0,0,1,2.51-5.9l6.16-11.57,12.31-22.53,6.44-12.71A68.89,68.89,0,0,0,472,439.31l1.86-6.07a78.36,78.36,0,0,0,3.29-18h0a82.75,82.75,0,0,0-.86-18.2l-1.1-7a82.86,82.86,0,0,0-3.69-14.54l-3.83-10.8a86.18,86.18,0,0,0-3.59-8.6l-4.36-9a82.11,82.11,0,0,0-10.57-16.48l-9.06-11,8-.49a60.92,60.92,0,0,0,14-2.53h0a38.79,38.79,0,0,0,7.38-3.09h0a29.79,29.79,0,0,0,7.37-5.69l2-2.14a23.12,23.12,0,0,0,4-5.73l.59-1.22a28.42,28.42,0,0,0,2.76-9.84l.12-1.29a21.91,21.91,0,0,0-.47-7h0a26.1,26.1,0,0,0-4.83-10.15l0,0a28.3,28.3,0,0,0-2.89-3.2l-1.45-1.36a19.33,19.33,0,0,0-3-2.36l-5.79-3.62,3,4.92a15.8,15.8,0,0,1,1.73,3.87h0a32.5,32.5,0,0,1,1.23,7.19l.13,2.38a35.91,35.91,0,0,1,0,4.64l-.13,1.9a17,17,0,0,1-.94,4.45l-.85,2.35a6.65,6.65,0,0,1-1.41,2.3h0a9.27,9.27,0,0,1-6.26,2.92l-1.25.07a46.49,46.49,0,0,1-6.78-.11l-2.81-.25a21.84,21.84,0,0,1-8.06-2.34h0a53.68,53.68,0,0,1-6.53-4l-4.42-3.14a46.82,46.82,0,0,1-5.48-4.56l-1.81-1.74a40.19,40.19,0,0,1-4.31-4.91l-3-4a49.13,49.13,0,0,1-4.39-7.08l-3.2-6.31a63,63,0,0,1-3.9-9.52l-5.87-18.55L396.63,210l2.78-3a35,35,0,0,0,5.13-7.19h0a34.79,34.79,0,0,0,2.31-5.36l.93-2.8-2.17,1.94a43.76,43.76,0,0,1-9.53,6.47l-1.78.88-4.41-20-8.13-40.66-5.12-24.63-2.76-10.87q-.72-2.84-1.61-5.63l-2.13-6.73-6-16.5,3,4.52a92.08,92.08,0,0,1,5.5,9.41l4.27,8.37L382.35,110q1.72,3.73,3.08,7.62l2,5.76c.4,1.16.76,2.33,1.09,3.51l2.3,8.22-2.44-18.88q-.35-2.73-.92-5.43l-2.33-11.09c-.7-3.35-1.56-6.67-2.58-9.93L379,78.35a72.1,72.1,0,0,0-4.06-10.19h0a76.12,76.12,0,0,0-9.38-14.6L362.7,50.1l-8.13-9.53-2.64-2.89a98.65,98.65,0,0,0-15.17-13.56l-5.19-3.76-3.71-2.5a96.65,96.65,0,0,0-17.74-9.43l-2.19-.89a89.49,89.49,0,0,0-11.54-3.79l-.33-.08a90.63,90.63,0,0,0-15.17-2.52L271.54.4q-3.17-.25-6.35-.3l-7-.09a114,114,0,0,0-15.45.84l-.55.07a84.59,84.59,0,0,0-9.88,1.82l-7.78,1.91c-1.63.4-3.24.86-4.84,1.36l-7.65,2.42a68.57,68.57,0,0,0-7.6,2.94L198.73,14a71.37,71.37,0,0,0-9.07,5l-2.17,1.4q-2.07,1.35-4,2.88l-6.65,5.21-13,1.16-9.28,1.28a47.38,47.38,0,0,0-11.28,3l-1.88.76a41.3,41.3,0,0,0-6.84,3.52h0a59.16,59.16,0,0,0-8.26,6.34l-3.5,3.22a31.86,31.86,0,0,0-2.37,2.42l-4.46,5a31.71,31.71,0,0,0-2.54,3.35l-1.87,2.88,9.77-7.1a56.86,56.86,0,0,1,6.28-4l10.5-5.74a49.91,49.91,0,0,1,7.59-3.36L152,39.1c1.19-.41,2.4-.79,3.61-1.12l7.47-2.06,7.9-1.86-5.51,7.61a83.91,83.91,0,0,0-7.42,12.39L154.7,61a61.6,61.6,0,0,0-3.42,8.68l-2.5,8.17c-.36,1.18-.68,2.36-1,3.56l-4.68,19.35-2.2,9.63a54.41,54.41,0,0,1-2.13,7.08l-1.17,3.09a28.23,28.23,0,0,1-4,7.2l-.84,1.09c-.85,1.1-1.74,2.16-2.67,3.19l-1.3,1.43a24.38,24.38,0,0,1-4.34,3.77h0a23.3,23.3,0,0,1-7.42,3.33h0a18.07,18.07,0,0,1-5.07.52l-2.64-.09c-.71,0-1.42-.08-2.12-.15l-.78-.09a14.72,14.72,0,0,1-4.91-1.4L96.66,137l4.49,4.49a22.78,22.78,0,0,0,6.16,4.37h0a42.17,42.17,0,0,0,4.84,1.95h0a28.93,28.93,0,0,0,9.23,1.5h0c.71,0,1.43,0,2.14-.09l7.29-.61,7-.92.4,5.88a102.56,102.56,0,0,1-.08,15.18l-.4,5a92.74,92.74,0,0,1-1.29,9.67l-1.28,6.85a98,98,0,0,1-3.59,13.61l-8.87,25.86-7.33,18.53c-1,2.51-2.1,5-3.29,7.41l-2.56,5.2a84.68,84.68,0,0,1-9.66,15.21l-6.6,8.27c-1.59,2-3.27,3.93-5,5.79l-16,17L49.72,326.36,35.5,338c-1.51,1.24-3,2.54-4.41,3.88l-8.26,7.83a42.94,42.94,0,0,0-5.17,5.86l-8.81,12c-.79,1.06-1.54,2.16-2.25,3.27l-2.32,3.63A23.27,23.27,0,0,0,1.38,381h0A39.42,39.42,0,0,0,0,391.35v2.86l3.67-12A13.13,13.13,0,0,1,6,377.83H6A44,44,0,0,1,17.66,367.6l1.71-1c1-.62,2.08-1.18,3.17-1.7l11.15-5.27L39.53,357a49.09,49.09,0,0,0,9.94-5.84l8.85-6.71-6,10.56a76.38,76.38,0,0,0-4.16,8.41l-3.81,9q-.63,1.51-1.2,3.06l-1.87,5.19A74.44,74.44,0,0,0,37.52,396l-.58,4.24-1.08,9.16a64.85,64.85,0,0,0-.44,9.14l.13,5.64.17,9.77a45.51,45.51,0,0,0,.65,6.89l2.28,13.21a60.94,60.94,0,0,0,1.65,7.07l1.77,6a47.38,47.38,0,0,0,3.68,8.94l1.19,2.22,4.87,9.3L50.6,490a24,24,0,0,1-5.43,7.13h0a18.24,18.24,0,0,1-2.69,2l-2.43,1.52a21.18,21.18,0,0,1-3.6,1.79l-1.73.66a14.64,14.64,0,0,1-2.59.72L23,505.51l8.13.14a43.63,43.63,0,0,0,10.56-1.12h0a56.38,56.38,0,0,0,16.4-6.69h0l7.39,7.05a60.75,60.75,0,0,1,4.89,5.25l7.75,9.4c.59.71,1.15,1.45,1.69,2.2L86.39,531c.5.69,1,1.36,1.55,2l7.39,9a38.77,38.77,0,0,1,4.33,6.51l2.81,5.29a39.71,39.71,0,0,1,2.38,5.43l2.2,6.23a58.78,58.78,0,0,1,1.7,5.72l1.22,5a36.37,36.37,0,0,1,1,7.12l.22,5.47a35.62,35.62,0,0,1-.17,5.06l-.72,6.94a27.58,27.58,0,0,1-.57,3.35l-1.19,5a22.48,22.48,0,0,1-2.3,5.87l-1.39,2.45A23.22,23.22,0,0,1,99.28,624l-2.72,2.21a25.53,25.53,0,0,1-2.71,1.92l-5.26,3.24a15.13,15.13,0,0,1-5.14,2l-3.91.74a11.63,11.63,0,0,1-1.56.17l-5,.15a14.39,14.39,0,0,1-3.21-.25L66,633.43a26.57,26.57,0,0,1-5.85-1.86l-11.59-5.24,9.3,8.6,5.54,5a38.39,38.39,0,0,0,4,3.17l4.63,3.2a20,20,0,0,0,6.59,3l5.51,1.35a30.28,30.28,0,0,0,6.57.87l3.94.08a23.73,23.73,0,0,0,7.58-1.08l7.45-2.33-.29,2.88a59.47,59.47,0,0,0,0,12.37h0a25.09,25.09,0,0,0,2.89,9.36l.64,1.18,3.24,5.62a19.08,19.08,0,0,0,2.82,3.75l4.4,4.58-.28-1.85a37.86,37.86,0,0,1,0-11.64h0a29.85,29.85,0,0,1,1.54-5.87L126,665a44.45,44.45,0,0,1,2.54-5.58l4.81-8.91-1.16,18.35-1.86,17.43,6.11,2.66q3,1.29,6,2.38l11.84,4.25L159.44,716c.43,1.73.92,3.43,1.45,5.13L174,763.19l11.85,37.87,9.53,29.74,2.66,9.41c.24.85.45,1.71.64,2.58l.64,3a72.62,72.62,0,0,1,1.56,13.31l0,2c0,1,0,2,0,3l-.55,11.1c-.05,1-.13,2.08-.26,3.11l-2.37,20.06-2.17,18.19a90.14,90.14,0,0,0-.55,14.32l.4,9.78,1.14,18q.25,4,.78,8l3.89,29.7,4.88,36,5.11,36.72,6,32.29,4.18,26.72-.65,1.08a33.86,33.86,0,0,0-3.87,9.1h0a31.89,31.89,0,0,0-1,8.14v7.27q0,.9-.06,1.8l-.69,11.1a47.46,47.46,0,0,1-.71,5.7l-1.06,5.61a34.76,34.76,0,0,1-1.42,5.32l-3,8.49q-.51,1.46-1.11,2.88L203,1206.22a23.84,23.84,0,0,0-1.27,4l-.41,1.84a29.59,29.59,0,0,0-.58,9l.16,1.68a16.46,16.46,0,0,0,.49,2.79l.14.53a34.43,34.43,0,0,0,6.25,12.55h0a17,17,0,0,0,3.77,3.51l1.4.95a26.82,26.82,0,0,0,6.31,3.16h0a31,31,0,0,0,6.93,1.53l2.68.28a40.75,40.75,0,0,0,9.81-.17l1.89-.27a37,37,0,0,0,9.33-2.58h0a38.75,38.75,0,0,0,6.06-3.24l2-1.29a25,25,0,0,0,4.68-4l2.14-2.33a20,20,0,0,0,2-2.57l.56-.83a19.41,19.41,0,0,0,2.6-5.8l.06-.24a16.22,16.22,0,0,0,.52-4V1215c0-1,0-2-.14-2.94l-.85-9.36c-.11-1.3-.19-2.61-.23-3.91l-.37-13.78c0-.81,0-1.63,0-2.45l.58-13.72c.05-1,.06-2.07,0-3.1l-.15-10.06a25.64,25.64,0,0,0-.93-6.4l-2.11-7.49q-.74-2.61-1.68-5.16l-4.16-11.16-1.77-36.06c-.06-1.21-.09-2.43-.08-3.64l.22-41.63,1.63-60.64v-82l-.93-50.19-1.16-25.79-4.19-64.83L250.48,717l-1.4-21.84,19.52,2.55-.93,32.07-.93,39-.46,35.79-.39,19.73a83.88,83.88,0,0,0,.26,8.39l.38,4.8c.14,1.75.36,3.49.65,5.22l1.65,9.72a25.49,25.49,0,0,0,.63,2.75L273,867.28l5.35,21.38,10.69,39.73L300,964.17l12.31,46.94,9.3,35.78,10.95,40.75c.44,1.65.83,3.3,1.17,5l2.75,13.53,1.16,7.2,1.86,9.07h0a27.34,27.34,0,0,0-2.39,9.73l-.08,1.23a27.76,27.76,0,0,0,0,3.16l.49,8.44c.08,1.38.11,2.75.09,4.13l-.2,14-.7,14.17-.23,10.46-1.55,5a49.27,49.27,0,0,0-1.78,8.23l-.36,2.78a34.53,34.53,0,0,0-.26,4.19v3.3a53,53,0,0,0,.87,9.57l.52,2.83a5.69,5.69,0,0,0,1,2.29h0a52.45,52.45,0,0,0,7.84,8.67h0a23.78,23.78,0,0,0,8.47,4.84h0a48.07,48.07,0,0,0,7.87,1.83l2.71.38a24.74,24.74,0,0,0,6.08.12h0a39.8,39.8,0,0,0,11.15-2.86l2.47-1a26,26,0,0,0,4.11-2.17l4.07-2.62a19.22,19.22,0,0,0,2.23-1.69l2.9-2.57a18,18,0,0,0,3.52-4.24h0a22.58,22.58,0,0,0,3.16-9.9l.19-2.51c.07-.82.1-1.64.1-2.46V1203a19.73,19.73,0,0,0-1.16-6.68l-.72-2a22.41,22.41,0,0,1-.75-2.54l-3.41-14.51-5.35-27.18-2.13-13.6a47.1,47.1,0,0,0-1.15-5.27l-.5-1.79a7.41,7.41,0,0,0-1.31-2.58l-2.67-3.42c-.4-.51-.78-1-1.15-1.57l-2.94-4.3Z"/></g></g></svg>