<svg xmlns="http://www.w3.org/2000/svg" viewBox="0 0 411.18 1216.32"><defs><style>.cls-1{fill:#fff;}</style></defs><title>char-2</title><g id="レイヤー_2" data-name="レイヤー 2"><g id="レイヤー_2-2" data-name="レイヤー 2"><path class="cls-1" d="M389.13,1063.4a10.46,10.46,0,0,0,.28,2l.71,3c.25,1,.53,2,.86,3l1.19,3.66,1.55,1.14a4.73,4.73,0,0,1,1.21,1.31l.82,1.32a30.22,30.22,0,0,1,1.56,2.85l3.2,6.65a28,28,0,0,1,1.17,2.77l3,8.06,1.11,3.33a26.81,26.81,0,0,1,1,4.22l.56,3.39a15.25,15.25,0,0,1,.16,3.57l-.05.77a28,28,0,0,1-1.79,8l-1.51,3.92-2.93,9a15.63,15.63,0,0,0-.75,4.19l-.28,7-.35,9.35-.28,5.42a35.46,35.46,0,0,1-1.27,7.73l-1,3.62a20.91,20.91,0,0,1-1.13,3.07l-1.41,3.06a36.88,36.88,0,0,1-5.7,8.8h0a10.26,10.26,0,0,1-3.43,2.55l-3,1.36a27.38,27.38,0,0,1-2.77,1.08l-2.1.7a31.3,31.3,0,0,1-3.83,1l-2.33.47a34,34,0,0,1-3.46.51l-1.85.18a32.27,32.27,0,0,1-7.67-.17h0a29.48,29.48,0,0,1-4.27-.91h0A10.67,10.67,0,0,1,350,1192l-.69-.65a27.1,27.1,0,0,1-2-2h0a20,20,0,0,1-3.43-5.62h0a28.67,28.67,0,0,1-1.13-3.47l-1.34-5.19-1.39-6.6c-.11-.56-.21-1.12-.28-1.68l-.43-3.4a21.78,21.78,0,0,1-.18-2.79v-2.11c0-.78,0-1.56.11-2.33h0a29.15,29.15,0,0,1,2.51-9.25h0c.41-.89.78-1.81,1.12-2.73l1.68-4.68c.38-1.07.81-2.13,1.28-3.16l2.05-4.57.36-5.75.1-5.38c0-1,.08-2.1.18-3.15l.3-2.91a57.49,57.49,0,0,1,1.24-7.27l.46-1.92-.86-5a28.77,28.77,0,0,1-.41-3.93l-.17-4.37-.07-2.36a4.87,4.87,0,0,1,1-3.09h0a6.28,6.28,0,0,1,1.18-1.18l1.37-1.05.12-4.8.12-10.79.08-6.39a25.77,25.77,0,0,0-.48-5.4l-.92-4.76-1.92-8.4-1.92-9.51c-.24-1.17-.52-2.34-.84-3.5l-5.27-19-10.68-41-10.19-38.86-7-29-7.19-26.39-5.28-18.83-5.16-15.71-2.76-8.72a15.61,15.61,0,0,1-.4-1.53l-.43-2.11A31.38,31.38,0,0,1,292,826l-.33-3.94-1.08-10.91-1.44-10.2L282,756.07l-6.36-38.74L271,691.78l-12-.84-10.91-.72-.6,10.8-.12,24.1-.24,40.42v34.54l.12,22.55v7.83a37.54,37.54,0,0,1-.25,4.24l-.95,8.2-1.45,12.57c-.15,1.37-.25,2.75-.29,4.13l-.1,3.26a56.08,56.08,0,0,0,.13,5.65l.55,7.09,3.63,47.82,2.83,45.8,3.08,40.6,1.91,31.87,2.26,28c.16,2,.41,4,.75,6l2.86,16.57,2.06,9.69,2.62,10.23a24.33,24.33,0,0,1,.65,3.67l.55,5.49,1.66,2.22a6,6,0,0,1,.86,1.55h0a24.19,24.19,0,0,1,1.48,6.16l.55,5.34,2.25,5.38c.26.62.49,1.25.69,1.9l.9,2.91a54.17,54.17,0,0,1,1.75,7.64l.87,5.66,1.91,4.85,2.53,6.33a43.33,43.33,0,0,0,2.29,4.82l.39.72a22.1,22.1,0,0,1,2.1,5.31l.17.7a25,25,0,0,1,.74,6v.93a25.5,25.5,0,0,1-.42,4.61l-.31,1.68-.88,4.78c-.1.53-.18,1.07-.25,1.61h0a8.78,8.78,0,0,1-2.16,4.76h0a17.87,17.87,0,0,1-3.88,3.27h0a30,30,0,0,1-6.91,3.16l-1,.32a36,36,0,0,1-3.94,1l-2.69.51a51.51,51.51,0,0,1-7.73.86h0a71.93,71.93,0,0,1-8.93-.23l-2.84-.24c-.81-.07-1.62-.16-2.43-.28h0a36,36,0,0,1-9.53-2.74h0a5.65,5.65,0,0,1-2.9-3l-.39-.93a18.52,18.52,0,0,0-2-3.52l-1.16-1.59a13,13,0,0,1-1.26-2.16l-.35-.75a16.17,16.17,0,0,1-1.25-4l-.24-1.35a23.29,23.29,0,0,1-.34-3.11l-.19-4.43c0-.61,0-1.21,0-1.82l.1-5c0-1.08.08-2.17.19-3.25l.92-8.91c.06-.61.14-1.23.25-1.84l1.75-10.39-1.12-4.72c-.13-.57-.25-1.15-.34-1.73l-.23-1.41a18.73,18.73,0,0,1-.22-2.79h0a7.09,7.09,0,0,1,.88-3.43h0a23.79,23.79,0,0,1,1.64-2.57l2.33-3.17-.59-6-1.47-2.35h0a6.92,6.92,0,0,1-1.07-3.53l-.1-4-.88-19.38-2.87-8.18c-.73-2.09-1.37-4.2-1.92-6.35l-4.76-18.51-10.28-36-7.78-32.45-7.34-34.36-4.48-25.42c-.34-2-.62-3.9-.82-5.87l-1.89-18.1a103,103,0,0,1-.56-11.38l.11-22,1.18-26.58.42-35.79c0-1.1,0-2.2,0-3.31l-.52-12-4.55-14.83-10.72-42.73L160.2,701.6,157,689.27l-3.72-.67a22.07,22.07,0,0,1-3.92-1.07h0a20.51,20.51,0,0,1-3.9-1.93l-1.71-1.09a68.56,68.56,0,0,1-5.61-4l-1.4-1.1.14-14.54.74-12.48,1.61-20,2.2-17.62,2.5-14.54-2.27-1.91a2.69,2.69,0,0,1-.77-1.06h0a4.78,4.78,0,0,1-.34-1.75V585a41.77,41.77,0,0,1,.33-5.24l.71-5.66a41.48,41.48,0,0,1,.82-4.56l.57-2.39a41.28,41.28,0,0,1,3.21-8.83l.24-.47-.88-2.65-.53-1.74a10,10,0,0,1-.4-2.44l-.1-3.16v-2.44a28.22,28.22,0,0,1,.36-4.49l.23-1.4a27.2,27.2,0,0,1,.81-3.55l1.24-4.12,7.64-23.79,7.49-20.85,8.81-22.76L176.63,449a42.62,42.62,0,0,0,1.48-5.07l.95-4.25a38.89,38.89,0,0,0,.87-6.08l.08-1.08a15.49,15.49,0,0,0-.44-4.84h0a30.84,30.84,0,0,0-1-3.39l-1.44-3.92-3.23,8.52-4.7,12.43c-.49,1.31-1,2.6-1.61,3.87l-6.47,14.1L154.62,472l-1.07,5a46.54,46.54,0,0,1-1.83,6.35l-3.12,8.49-7.73,20.48c-.43,1.13-.88,2.25-1.37,3.35l-8.82,20.12c-1,2.22-2.05,4.39-3.23,6.51l-8.93,16c-.6,1.08-1.24,2.15-1.9,3.19l-10,15.67c-.72,1.14-1.48,2.25-2.26,3.35L94.79,594q-1.55,2.18-3.29,4.2l-2.07,2.42a37.35,37.35,0,0,1-7.35,6.57h0l-1,3.59a39.2,39.2,0,0,1-1.52,4.47h0a39.81,39.81,0,0,1-4.42,8l-2.28,3.21c-.52.73-1.06,1.44-1.62,2.14l-.63.77a28.89,28.89,0,0,1-3.89,3.93l-1.33,1.11a3.35,3.35,0,0,1-2.16.78h0a5.55,5.55,0,0,1-1.35-.17h0a29,29,0,0,1-5.25-1.92h0a14.5,14.5,0,0,1-1.63-.92l-3.91-2.57-1.46,4.59c-.3,1-.56,1.92-.78,2.9l-.79,3.52a13.41,13.41,0,0,1-.53,1.74l-1.24,3.3a15.07,15.07,0,0,1-1.21,2.45l-.69,1.14a18.27,18.27,0,0,0-2.07,4.78l-.72,2.62c-.23.87-.43,1.75-.58,2.63l-.41,2.3a2.4,2.4,0,0,1-1.54,1.84l-.75.27a3.34,3.34,0,0,1-2.35,0h0a1.91,1.91,0,0,1-1.07-1h0a6.83,6.83,0,0,1-.63-2.5v-.3a14.31,14.31,0,0,1,0-2.07l.5-6.16.22-3.55a5.71,5.71,0,0,1,.59-2.18h0a8.13,8.13,0,0,0,.72-2.15h0a4.93,4.93,0,0,0-.16-2.41l-.05-.14-7.34,7-4.57,4.57A25.61,25.61,0,0,0,20.86,657l-.47.74A23.88,23.88,0,0,0,18.62,661l-1.88,4.18-3,7.06a20.19,20.19,0,0,1-1.47,2.8l-1.17,1.85a2.15,2.15,0,0,1-1.36,1h0a3,3,0,0,1-2.19-.39h0a2,2,0,0,1-.82-1.07L6,674.3a7.2,7.2,0,0,0-.33-.88h0a11.18,11.18,0,0,0-.57-1.15l-.57-1a7.46,7.46,0,0,1-.93-2.67l-.42-2.92a14.18,14.18,0,0,1-.12-1.6l-.14-7.57-.44-8.07-1.27-1a2.09,2.09,0,0,1-.54-.68l-.14-.27a4.32,4.32,0,0,1-.44-1.69L0,642.61c0-.12,0-.24,0-.37l.1-3.5a8.92,8.92,0,0,1,.74-3.34l1.46-3.31c.32-.74.62-1.5.88-2.26l.39-1.13A14,14,0,0,1,6,624.31l2-2.4a44.66,44.66,0,0,0,2.81-3.75L14.3,613a16.85,16.85,0,0,1,1.49-1.88L22,604.4l5.29-6,1.47-8.08.39-2a31.64,31.64,0,0,1,3.3-9.23h0a35.58,35.58,0,0,1,3-4.57l3.49-4.58.45-4.54a8.85,8.85,0,0,1,.66-2.57L41.2,560a28.56,28.56,0,0,0,1.12-3.14l2.46-8.23,1.31-4.08a40.37,40.37,0,0,1,2.62-6.31l2.07-4c.5-1,1-1.94,1.62-2.88l7.51-12.25,9.39-14.84a48.88,48.88,0,0,1,3.2-4.5l8.85-11.05,6.75-15.86,6.39-12a51,51,0,0,1,4.93-7.55l3.81-4.82.17-4.28a29.53,29.53,0,0,1,.75-5.46l.6-2.54c.25-1.11.56-2.21.9-3.3l1.95-6.14c.32-1,.67-2,1.06-2.91L115.6,407c.46-1.13,1-2.25,1.49-3.35l5.29-11a44.52,44.52,0,0,1,2.48-4.49l4.36-6.93.22-1.66a52.65,52.65,0,0,1,2.89-11.33l3.11-8.2c.55-1.44,1.05-2.9,1.48-4.38l6.25-21,6.74-19c.4-1.13.83-2.25,1.3-3.35l4.44-10.53,4.16-9.47q.69-1.55,1.5-3l1.38-2.49a13.12,13.12,0,0,1,2.18-2.9L166.8,282a15.81,15.81,0,0,1,1.91-1.65l2.44-1.8a24.87,24.87,0,0,1,4.51-2.64l5.58-2.52a23.2,23.2,0,0,1,2.32-.9l6.11-2c1-.34,2-.63,3.07-.89l4.46-1.09-3.75-5.69c-.34-.51-.65-1-.95-1.57l-1.33-2.4a33.06,33.06,0,0,1-2-4.31l-2.93-7.68c-.32-.83-.67-1.66-1-2.46l-1.48-3.11c-.49-1-1-2-1.6-3L180,234.62a53.41,53.41,0,0,0-5.4-7.69L173,225l2.93,15.48c.2,1,.43,2.06.71,3.08l4.14,15.21-5-10.22c-.65-1.31-1.24-2.65-1.77-4l-4.1-10.57q-1-2.51-1.74-5.09L164.61,217l-4.41-16.3-2-7.8A48,48,0,0,1,157,187l-1.37-10.53L154.27,167q-.24-1.62-.36-3.27l-.58-7.66c-.12-1.53-.19-3.06-.21-4.6l-.12-8.56V129.07l.3-13.21.59-12.63.23-3.13A107,107,0,0,1,156,86.51l.14-.71a37.15,37.15,0,0,1,1.48-5.27L159,76.71a28.58,28.58,0,0,1,1.43-3.25l2.14-4.11c.48-.91,1-1.8,1.52-2.67l3-4.81a54.66,54.66,0,0,1,4.28-6l3.09-3.76,5.29-5.88,1.38-1.51a57.43,57.43,0,0,1,10-8.74l2.25-1.54c.8-.56,1.62-1.08,2.46-1.58L198,31.6a72.79,72.79,0,0,1,9.35-4.67l3.61-1.5c1.71-.7,3.44-1.34,5.2-1.9l3-1a61.14,61.14,0,0,1,6.08-1.61l4.12-.86c1.75-.37,3.52-.68,5.3-.95l4.24-.63-.07-.1a36.12,36.12,0,0,0-6.54-7.68h0l-4.7-3.38-2.39-1.59a53,53,0,0,0-7-3.92l-.77-.36,4.11.06a42.29,42.29,0,0,1,11.77,1.85h0A28.17,28.17,0,0,1,237,4.81l4,1.88A33.21,33.21,0,0,1,246.5,10h0a22.32,22.32,0,0,1,5.09,5.22L252.86,17l1.93-1.8a56.32,56.32,0,0,1,5.86-4.81l.09-.07A56,56,0,0,1,267,6.5l.63-.34a53,53,0,0,1,6.25-2.81l1-.38a38.64,38.64,0,0,1,4.21-1.3l2.12-.53a33,33,0,0,1,6.85-1L293.68,0l-1.94.61c-.57.18-1.13.38-1.69.59l-1,.39a29.83,29.83,0,0,0-5.91,3.06l-.76.5A37.28,37.28,0,0,0,279,7.67l-.54.46a40.13,40.13,0,0,0-5.21,5.38h0l8.07-.29L288,13a50.34,50.34,0,0,1,7.16.32l3.49.41a47.49,47.49,0,0,1,5.79,1.05l3.06.75a38.7,38.7,0,0,1,4.8,1.51l4.38,1.69A52.94,52.94,0,0,1,323.57,22l2.7,1.51a40.67,40.67,0,0,1,4.52,2.94l1.45,1.08a41.94,41.94,0,0,1,6,5.49L341,36l-3.52-2.35L334,31.56a31.14,31.14,0,0,0-3-1.58l-.43-.2A24.87,24.87,0,0,0,325.55,28l-.58-.13a40.52,40.52,0,0,0-5.37-.84l-3.75-.34-6-.24c-.92,0-1.84,0-2.77,0l-4.63.11,5,2.46a44.22,44.22,0,0,1,5.33,3.09l.47.32c.72.49,1.42,1,2.1,1.57l3,2.45c.56.45,1.1.92,1.64,1.41l3.17,2.88a63.22,63.22,0,0,1,5,5.12L330,48a45.3,45.3,0,0,1,3.88,5.25L336.25,57q1.19,1.89,2.19,3.87l2.7,5.3A50.83,50.83,0,0,1,343.65,72l1.56,4.36a50.64,50.64,0,0,1,2.24,8.39l.87,4.85c.18,1,.33,2.11.44,3.17l.83,7.84c.12,1.15.21,2.31.26,3.46l.95,20.73,1,17.18.14,16.6-.13,21.22q0,2,.12,4l.94,14.34q.11,1.59.3,3.18l1.07,8.35a68.24,68.24,0,0,0,1.43,7.65l2.29,9.29,2.8,10.42a31.86,31.86,0,0,0,1,3.18l3.08,8.13-4.26-4c-.78-.74-1.6-1.45-2.44-2.14h0a44.73,44.73,0,0,1-6.26-6.2l-2.17-2.61-.84-1.07a54.18,54.18,0,0,1-6.69-11l-.05-.1c-.72-1.58-1.37-3.2-1.94-4.84l-1.34-3.85-.34,4.31c-.07.94-.17,1.88-.29,2.82l-.78,5.91c-.14,1.1-.32,2.18-.53,3.26l-1.38,7q-.51,2.52-1.26,5L332.41,247a44.47,44.47,0,0,1-2,5.39l-1.44,3.19a48.27,48.27,0,0,1-3.78,6.82l-2.78,4.16,5.19,1.94a54.51,54.51,0,0,1,5.32,2.32l2.23,1.12a55,55,0,0,1,5.33,3h0a37.31,37.31,0,0,1,7.22,6.16h0a22.56,22.56,0,0,1,2.49,3.35h0a29.76,29.76,0,0,1,2.76,5.95h0a48.88,48.88,0,0,1,1.71,6.71l1,5.65L360.43,332l7.09,44.78c.21,1.34.39,2.68.53,4l4.86,48c.13,1.34.32,2.68.55,4l4.11,23.72a52.91,52.91,0,0,0,1.84,7.42l.8,2.44a39,39,0,0,0,1.5,3.89l.51,1.14a28,28,0,0,1,2,6.68h0a30,30,0,0,1,.42,4.63l.14,14.8,2.63,8.07,4.12,14.17,4.78,19.44,4.48,18.44c.27,1.09.5,2.2.71,3.31l2.13,11.61a65.64,65.64,0,0,1,.93,7.66l.37,5.89c.07,1.09.1,2.19.1,3.28v2.27a59.75,59.75,0,0,1-.51,7.8l-.62,4.8,2.56,9.68,2.32,9.16a12.8,12.8,0,0,1,.38,3.08v2.07a4.93,4.93,0,0,1-.33,1.78h0a2.26,2.26,0,0,1-1.39,1.33l-5.82,1.94,6,18.5,1.9,5.82q.51,1.59.87,3.21h0a35.08,35.08,0,0,1,.78,7.37v.24c0,.86,0,1.73-.12,2.59h0a22.55,22.55,0,0,1-1.37,5.78l-.78,2-.29,5.83-.43,4.74a15.42,15.42,0,0,1-.57,3h0a21.62,21.62,0,0,1-3.54,6.94l-.87,1.12-1.28,10-.27,2.52a3.46,3.46,0,0,1-1.32,2.36h0a2.33,2.33,0,0,1-1.55.48l-.51,0a2.56,2.56,0,0,1-1.75-.84l-.33-.36a2.09,2.09,0,0,1-.49-1l-.08-.45a9.89,9.89,0,0,1-.15-1.11l-.38-4.42-.94.12-.4,0h-.15a2.37,2.37,0,0,1-1.78-.8l0-.06a2.87,2.87,0,0,1-.42-.61l-.11-.23a4.61,4.61,0,0,1-.47-2.42l.08-1.11a8.86,8.86,0,0,1,.59-2.54l.25-.62a9.57,9.57,0,0,1,1-1.89l.64-.91a15.35,15.35,0,0,1,1.64-2l.71-.7a3.12,3.12,0,0,0,.9-2.29l0-1a10.75,10.75,0,0,0-.51-2.86l-.56-1.73c-.27-.86-.58-1.7-.91-2.54l-1.69-4.23c-.25-.62-.51-1.22-.8-1.82l-1.55-3.28a20.52,20.52,0,0,1-1-2.53l-1-3.06a29.89,29.89,0,0,0-1.37-3.43l-.49-1-.1,3.55c0,1,0,1.91,0,2.87l.1,1.48a21.18,21.18,0,0,0,.39,3l.6,3c.16.8.3,1.59.4,2.4h0a28,28,0,0,1,.15,6.14h0a10.64,10.64,0,0,1-1,3.63l-.22.46a2.86,2.86,0,0,1-.68.91h0a2.54,2.54,0,0,1-2.29.57h0a1.37,1.37,0,0,1-.68-.43l-.33-.37a2.83,2.83,0,0,1-.4-.67l-.1-.25a6,6,0,0,1-.39-1.67l-.14-1.85c-.05-.66-.12-1.31-.21-2l-.53-3.88c-.13-.94-.29-1.88-.49-2.81l-.41-1.94A49.39,49.39,0,0,0,379,671l-1.24-3.74c-.12-.35-.23-.71-.32-1.07l-.78-3a22.82,22.82,0,0,1-.55-2.71l-.31-2.2a27.3,27.3,0,0,1-.24-3.12l-.11-5.13-.15-7.11v-4.41l-5.4.56,2,11,1.56,11.82,1.43,10.82L367,675.25c-.7.22-1.41.42-2.12.59l-6.76,1.59.14,22.38c0,.93,0,1.86-.08,2.79l-2,35.76-1.14,30-2.42,31.31-.61,11.58a36,36,0,0,0,0,3.89l.29,5a31.47,31.47,0,0,0,.9,5.94l.54,2.15c.29,1.17.63,2.32,1,3.46l3.73,11q1,2.81,2.14,5.5l3.37,7.69,2.78,7.06a61.08,61.08,0,0,1,2.07,6.21l3.83,14.06,3.27,14,2,9.48c.29,1.36.53,2.74.72,4.12l.89,6.52c.17,1.2.29,2.4.38,3.61L381,936.07l1,19.12,2.35,35.92,2.36,34.54,2,29.19ZM198.6,267.49a23.05,23.05,0,0,1,3.91-1.47l1.34-.37-3.73-3.36-1.75-1.5.19,6.72Zm15.45-5.95-1.52-1.28a29.8,29.8,0,0,1-4.41-4.64l-.23-.3c-.41-.54-.81-1.09-1.18-1.66l-1.18-1.77c-.66-1-1.28-2-1.85-3.07l-1.37-2.55c-.22-.4-.42-.8-.62-1.21l-1.7-3.62.48,4.11a26.71,26.71,0,0,0,.64,3.44l1,3.89c.29,1.17.64,2.32,1,3.46l2.83,8.19Zm4.53-1.7h0a14.34,14.34,0,0,1,2.35-.2h1l1.25-3.59a13.59,13.59,0,0,1,.72-1.72l.56-1.09a12,12,0,0,0,1.19-3.73l.17-1.15L224.69,247c-.18-.2-.37-.4-.57-.59l-.56-.5a6.12,6.12,0,0,1-1.16-1.47l-.06-.1a4.83,4.83,0,0,1-.52-1.48h0a9.17,9.17,0,0,0-1-2.93h0a18.28,18.28,0,0,0-1.55-2.44l-1.21-1.63.07,8.24-.26,15.7ZM289,248.55a31.38,31.38,0,0,1,3.78,4.59l.86,1.28.15-6.13-.07-5.36-.13-3.44a29.37,29.37,0,0,0-.79-5.75h0l-1.48,5.55a39,39,0,0,1-2.9,7.59l-.37.72ZM313.14,264l-.13-7.72a26.72,26.72,0,0,0-.19-2.83l-.51-4.48-1-7.47-1.59,6.72-1.06,4a26.7,26.7,0,0,1-.89,2.75l-.53,1.4c-.41,1.08-.86,2.16-1.34,3.21l-.86,1.89,3.16,1.14a38.38,38.38,0,0,0,4.17,1.25Z"/></g></g></svg>