<svg xmlns="http://www.w3.org/2000/svg" viewBox="0 0 391.8 45.1"><defs><style>.cls-1{fill:#fff;}</style></defs><title>アセット 38</title><g id="レイヤー_2" data-name="レイヤー 2"><g id="レイヤー_1-2" data-name="レイヤー 1"><path class="cls-1" d="M15.25,36.1,28.1,16h2.65L15.35,40,0,16H2.35Z"/><path class="cls-1" d="M34.1,40V16H65.65V29H36.1v9H63.65V36.4h2V40Zm2-22v9H63.65V18Z"/><path class="cls-1" d="M98.7,16v9.6h-2V18h-22V40h-2V16Z"/><path class="cls-1" d="M105.1,38h21.6V29H103.1V16h25.6v2.4h-2V18H105.1v9h23.6V40H103.1V37.4h2Z"/><path class="cls-1" d="M139.3,7.9h-2.5V5.4h2.5Zm-.25,8.1V40h-2V16Z"/><path class="cls-1" d="M179.7,40H148.15V16H179.7Zm-29.55-2H177.7V18H150.15Z"/><path class="cls-1" d="M214.2,16V40h-2V18h-23V40h-2V16Z"/><path class="cls-1" d="M251.35,43.1v2H220.5v-2Z"/><path class="cls-1" d="M257.75,38H284.6V17H256.75V0H285.6V2H258.75V15H286.6V40H255.75V36.7h2Z"/><path class="cls-1" d="M297.75,40h-2.4V37.6h2.4Z"/><path class="cls-1" d="M307.25,40V0H338.8V40Zm2.4-2H336.4V2H309.65Z"/><path class="cls-1" d="M350.75,40h-2.4V37.6h2.4Z"/><path class="cls-1" d="M360.25,40V0H391.8V40Zm2.4-2H389.4V2H362.65Z"/></g></g></svg>