<svg xmlns="http://www.w3.org/2000/svg" viewBox="0 0 780.6 66.94"><defs><style>.cls-1{fill:#fff;}</style></defs><title>アセット 37</title><g id="レイヤー_2" data-name="レイヤー 2"><g id="レイヤー_1-2" data-name="レイヤー 1"><path class="cls-1" d="M.3,37.75c-.63-1.19-.28-2.1,1.12-2.59,2.59-1,6-2.31,9.66-3.92a.79.79,0,0,0,.49-.77V19.41c0-.63-.21-.84-.84-.84h-8A1.62,1.62,0,0,1,1,17.17c-.21-.91.21-1.4,1.12-1.4h8.61c.63,0,.84-.21.84-.84V1.84A1.62,1.62,0,0,1,13.6,0l2.87.35c1.05.14,1.82,1,1.26,1.82a2.67,2.67,0,0,1-1.33.91c-.42.14-.7.35-.7.84v11c0,.63.21.84.84.84h1.12a.86.86,0,0,0,.7-.35l1.33-1.82a1.68,1.68,0,0,1,2.66-.28c.91.77,2.1,1.75,3.15,2.8a1.45,1.45,0,0,1,.35,1.61l-.07.21a2,2,0,0,1-1.61.63H16.54c-.63,0-.84.21-.84.84v8.68c0,.84.35,1.12,1.19.77,1.75-.77,3.64-1.61,5.53-2.38.49-.21.91,0,1.26.49.07.21.07.35.07.14A103.91,103.91,0,0,0,33.41,1.7,1.64,1.64,0,0,1,35.73.37l3.08.91c1.12.28,1.61,1.26.91,2h-.07a2.75,2.75,0,0,1-1.19.63,1,1,0,0,0-.77.56c-.91,3-2,5.88-3,8.61-.36.84-.07,1.19.77,1.19h8.61a.79.79,0,0,0,.77-.49C46.16,10.38,47.56,6,48.89,2.33a1.64,1.64,0,0,1,2.24-1.19l3.22.91c1.12.28,1.61,1.19,1,1.82L55.26,4a4.09,4.09,0,0,1-1.54.56.87.87,0,0,0-.56.42C51.55,7.44,50,10.31,48.33,12.9c-.63.91-.42,1.33.7,1.33H55.4a.86.86,0,0,0,.7-.35l1.75-2.1a1.8,1.8,0,0,1,2.52-.28l.14.14a28.1,28.1,0,0,1,3.57,3.15h.14a1.14,1.14,0,0,1,.35,1.61,2.1,2.1,0,0,1-1.82.7H49c-.63,0-.84.21-.84.84v8.82c0,.63.21.84.84.84h5.25c.28,0,.42-.14.63-.35l1.61-2A1.71,1.71,0,0,1,59,24.94c1.05.84,2.38,2.1,3.57,3.15a1.29,1.29,0,0,1,.35,1.75,1.9,1.9,0,0,1-1.68.7H49c-.63,0-.84.21-.84.84v9.17c0,.63.21.84.84.84h5.25c.28,0,.42-.14.63-.35l1.61-2A1.58,1.58,0,0,1,59,38.8c1.05.84,2.38,2,3.57,3.08a1.29,1.29,0,0,1,.35,1.75,1.9,1.9,0,0,1-1.68.7H49c-.63,0-.84.21-.84.84V55.26c0,.63.21.84.84.84h7.49c.28,0,.42-.15.63-.36l1.75-2.09.07-.15c.84-.63,1.75-.84,2.45-.21l.14.07c1,.84,2.38,2.11,3.71,3.29a1.57,1.57,0,0,1,.35,1.48c0,.06,0,.06-.07.21a2,2,0,0,1-1.68.7H33.62c-.63,0-.84.21-.84.84v2.17c0,.49-1.33,1.82-3.22,1.82h-.14l-.14-.07a.44.44,0,0,1-.42-.28l-.07-.14a.89.89,0,0,1-.07-.42V27.81c0-1.82-.56-2-1.54-.42a46.26,46.26,0,0,1-5.39,6.72,1,1,0,0,1-1.4.14.9.9,0,0,1-.14-1.33c1-1.47,2-3,2.87-4.69h.07l-.42.35L16.12,32.5c-.28.21-.42.35-.42.7V57.92c0,3.08-.49,5.39-4.76,6.16a1.79,1.79,0,0,1-2.1-1.33,2,2,0,0,0-.91-1.33,13,13,0,0,0-4.34-1.26,1,1,0,0,1-1-1.12.81.81,0,0,1,1-.91c1.82.21,5.67.42,6.65.42s1.33-.36,1.33-1V36.77c0-1-.42-1.26-1.33-.77-1.47.84-3.08,1.68-4.83,2.66L4,39.5a1.62,1.62,0,0,0-.49.49A2.91,2.91,0,0,1,3,40.9c-.42.49-1.12.21-1.4-.49ZM33.7,17.1c-.63.07-.84.28-.92.91v8.75c0,.63.21.84.84.84h9.53c.63,0,.84-.21.84-.84V17.94c0-.63-.21-.84-.84-.84Zm-.08,13.44c-.63,0-.84.21-.84.84v9.17c0,.63.21.84.84.84h9.53c.63,0,.84-.21.84-.84V31.38c0-.63-.21-.84-.84-.84Zm0,13.79c-.63,0-.84.21-.84.84V55.26c0,.63.21.84.84.84h9.53c.63,0,.84-.21.84-.84V45.17c0-.63-.21-.84-.84-.84Z"/><path class="cls-1" d="M109.41,52.49a1,1,0,0,1,1.25-.2.89.89,0,0,1,.3,1.25c-4,7.6-11.45,12.55-19.7,12.55-6.75,0-10.06-3.3-10.06-11.85,0-5.05.45-11.65.86-16.55.2-2.8.34-5.15.34-6.15,0-1.55-.25-1.8-1-2.2l-.14-.05a6.34,6.34,0,0,0-2.36-.85h-.09a1,1,0,0,1,0-1.9,11.1,11.1,0,0,1,2.46-.15c2.2.15,5.4,2.7,5.4,4.05a2.47,2.47,0,0,1-.4,1.25,5.16,5.16,0,0,0-.85,2.25A172.35,172.35,0,0,0,83.9,54c0,6.25,1.81,8.65,7.21,8.65a22.5,22.5,0,0,0,18.25-10Z"/><path class="cls-1" d="M144.36,46.24c.1.4.3.55.75.45,3.9-.95,8.9-2.35,10.4-2.75a8.42,8.42,0,0,0,1.5-.5,2,2,0,0,1,.65-.2c2.15-.15,4.05.7,4.05,1.9,0,.6-.3,1.3-1.55,1.45a136,136,0,0,0-14.9,2.75c-.1,0-.2.1-.15.25l0,.25,2.4,10.3.4,1.5a11.38,11.38,0,0,1,.5,3c0,.75-.35,1.6-1.25,1.6s-2.1-1.4-2.35-2.75l-.2-1c-.1-.6-.2-1.4-.35-2.2l-.6-3.55-1.1-6c-.1-.4-.3-.6-.75-.45-3.45,1-7.8,2-10.35,2.85a11.22,11.22,0,0,0-1.86.8h-.09a2.43,2.43,0,0,1-1.56.6,8.21,8.21,0,0,1-3.75-2.1l0-.1a6.47,6.47,0,0,1-.8-1.75.87.87,0,0,1,.35-1.1.91.91,0,0,1,1.15.1,4.1,4.1,0,0,0,2.16,1.2c1.34,0,9.5-1.9,14.4-3.1.35-.1.55-.3.45-.7-.5-2.75-1-5.15-1.4-7-.1-.4-.3-.55-.75-.45l-.75.2c-2.25.6-4.61,1-6.25,1.6a4,4,0,0,0-1.11.45.84.84,0,0,1-.3.15,2.36,2.36,0,0,1-1,.35A6.82,6.82,0,0,1,126.5,40a10,10,0,0,1-.75-1.85v-.1a1.07,1.07,0,0,1,.4-.85.54.54,0,0,1,.3-.1l.2,0a.56.56,0,0,1,.35.1l.1.05.1.1c.61.75,1.11,1.4,2.11,1.4a93.56,93.56,0,0,0,9.9-1.85c.4-.1.55-.3.45-.75l-.3-1.15c-.6-2.35-1.05-4.7-1.6-5.6-.35-.55-1.75-.55-3-.7l-.5-.05h-.11a.68.68,0,0,1-.69-.7.93.93,0,0,1,.64-1.2,12,12,0,0,1,3.06-.65c2.15,0,4.55,1.2,4.8,2.25a.32.32,0,0,1,0,.3l-.2.8a.38.38,0,0,1,0,.2,3.47,3.47,0,0,0-.25,1.55c.2,1.45.35,2.55.7,4.35.1.4.3.55.75.45,2-.55,4-1.05,5.6-1.6l2.35-.8.15-.1a2.64,2.64,0,0,1,.75-.25h.1c1.35-.15,3.5.4,3.5,1.6,0,1-.85,1.4-2,1.65l-10,2.1c-.4.1-.55.3-.45.75Z"/><path class="cls-1" d="M196.81,53.84a.63.63,0,0,1,0-.9,42.85,42.85,0,0,0,5.8-8.15c0-.1,0-.1-.25-.15h-.1c-1.85.4-6.8,1.9-10.25,2.9-.4.15-.55.3-.45.75,1.35,4.8,2.95,10.8,3.75,13.25a15.35,15.35,0,0,1,.9,3.45c0,1.15-.45,2-1.5,2-1.4,0-2-1.15-2.2-2.7-.65-3.55-2.35-10.7-3.55-15.25-.1-.4-.3-.55-.75-.4l-4.06,1.25-.8.3h-.09l-1.3.65-.11.1a2.52,2.52,0,0,1-1.29.55,5.29,5.29,0,0,1-3.5-2.55l-.06-.1c-.05-.2-.1-.7-.25-1.25v-.1l-.05-.4a.67.67,0,0,1,.3-.7.65.65,0,0,1,.31-.05h.09a.28.28,0,0,1,.35.1l.1,0,.1.1a2.43,2.43,0,0,0,1.81,1.25c.84,0,4.39-.9,8-1.7.3-.1.4-.25.3-.6l-.15-.5a50.36,50.36,0,0,0-1.75-5.55c-.4-.7-1.06-.95-2.4-1.1a.75.75,0,0,1-.75-.65v-.1a.66.66,0,0,1,.45-.8h.1a10.53,10.53,0,0,1,2.4-.45c1.6,0,4,1,4,2,0,.35-.1.7-.1.95a4.5,4.5,0,0,0-.1,1.25v.1c.15.75.35,2,.75,3.5l.15.55c.1.35.3.5.65.4.55-.15,1.1-.25,1.55-.4,3.45-.95,7.7-2,9.05-2.45a2.89,2.89,0,0,0,1-.6,1.88,1.88,0,0,1,.9-.45c1.35,0,3.7,2.5,3.7,3.4,0,.65-.5.8-.95,1.15h-.1a4.67,4.67,0,0,0-.9.6l-.45.45a76.08,76.08,0,0,1-7.25,7.15c-.4.3-.7.3-1,0Z"/><path class="cls-1" d="M230.26,40.19c2.84,0,17.5-1.8,21.3-2.4a3.51,3.51,0,0,0,1.5-.5,2.6,2.6,0,0,1,1-.4c1.45,0,4.25,2.6,4.25,3.75,0,.7-.6,1.1-1.15,1.5a3.67,3.67,0,0,0-1.2,1c-5.05,9.85-12.1,17.8-24.15,22.9a1,1,0,0,1-1.41-.45.85.85,0,0,1,.41-1.35c10.55-5.65,18.3-13.65,22.35-23.6.15-.35.05-.45-.45-.4-4.4.4-15.45,2-18.9,2.65a8.5,8.5,0,0,0-1.71.7,3.7,3.7,0,0,1-1.59.5c-.95,0-3.26-1.9-3.81-3.15a8.78,8.78,0,0,1-.7-2.3,1,1,0,0,1,.45-.95.4.4,0,0,1,.2-.05.8.8,0,0,1,.91.3C228.35,39.34,229.06,40.19,230.26,40.19Zm1.09-11.5a.62.62,0,0,1,.16-1,.89.89,0,0,1,1.14-.05c1.61,1.15,2.66,1.7,4.11,1.7a36,36,0,0,0,8-1.05A14.46,14.46,0,0,0,248,27.24a3.87,3.87,0,0,1,1.6-.45c1.95,0,3.65.7,3.65,1.95,0,.8-.85,1.35-2.4,1.65-3.6.65-10,1.85-14.15,1.85-2.2,0-3.7-1.05-5.31-3.45Z"/><path class="cls-1" d="M282.15,50.09c-1,2.75-2.09,5.65-2.5,6.85a11.12,11.12,0,0,0-.84,3.3,12.49,12.49,0,0,0,.34,2.25,7.83,7.83,0,0,1,.3,1.85c0,1-.5,1.55-1.35,1.55s-1.54-.75-2.25-1.9a25.46,25.46,0,0,1-2.9-11.7,45.37,45.37,0,0,1,2.3-13.7l.15-.5c.2-.6.41-1.2.55-1.8a17.18,17.18,0,0,0,.8-3.7c.06-1.45-.9-2.8-2.65-4.75l-.05-.1a.71.71,0,0,1,.25-1,1.22,1.22,0,0,1,1.1-.1c.05,0,.05,0,.16.05a15.92,15.92,0,0,1,1.59,1.15c.91.75,3.16,3.45,3.16,5.5a5.31,5.31,0,0,1-.8,2.45,26.87,26.87,0,0,0-1.16,2.7c-1.1,2.85-3.1,8.05-3.1,13.1,0,2.8.35,4.05,1,5.15.35.6.56.6.85.05.65-1,2-4.4,3.3-7.35.5-1.15,1-2.3,1.31-3.15a.76.76,0,0,1,1.14-.45.83.83,0,0,1,.46,1.15Zm18.46-19.9a1,1,0,0,0-.75-1.1,12.41,12.41,0,0,0-2.75-.4,1,1,0,0,1-.9-.9.88.88,0,0,1,.75-1.05,11.28,11.28,0,0,1,2.85-.45c1.9,0,4.55,1.45,4.55,2.65a3.54,3.54,0,0,1-.25,1.3,19.79,19.79,0,0,0-.55,2.3,18.29,18.29,0,0,0-.35,3.1q-.07.82.75.6a28.32,28.32,0,0,0,3.5-1.3c.75-.4,1-.4,1.2-.55a3.41,3.41,0,0,1,1.1-.45c.95,0,2.5.7,2.5,1.75,0,.85-.7,1.55-2.2,2.05a60.4,60.4,0,0,1-6.4,1.7.56.56,0,0,0-.5.6c0,4.45.35,8.85.7,12.5l.05.5a.54.54,0,0,0,.45.5,22.1,22.1,0,0,1,7.75,4.4,4.19,4.19,0,0,1,1.6,3c0,1-.4,1.65-1.2,1.65s-1.3-.55-2.1-1.35a22.47,22.47,0,0,0-5.7-4.2c-.35-.2-.5-.1-.55.3V58c0,3.75-2.3,6.65-8.45,6.65-4.4,0-8-2.1-8-5.75,0-4.3,4.35-6.3,9.7-6.3a20.19,20.19,0,0,1,3.1.2c.55.05.75-.1.7-.65l-.2-3.85-.35-7.65q0-.68-.75-.6a32.8,32.8,0,0,1-5.05.4c-2.9,0-4.85-.7-7.55-3.95a.81.81,0,0,1,0-1.15.91.91,0,0,1,1.16-.05,10.42,10.42,0,0,0,6.45,2.2,34.81,34.81,0,0,0,5.2-.4.52.52,0,0,0,.45-.6ZM295,61.64c5.25,0,6.2-1.75,6.35-5.45a.52.52,0,0,0-.45-.6,26.09,26.09,0,0,0-4.6-.45c-3.05,0-6.5,1.25-6.5,3.5S291.91,61.64,295,61.64Z"/><path class="cls-1" d="M320.86,47.06a1.45,1.45,0,0,1,1.61-.35c7.7,2.73,11.62,6.23,13.93,9.52a8,8,0,0,1,1.68,5c0,2.17-.91,3.29-2.66,3.29-1.4,0-2.31-1-3.36-3.29-2.17-4.41-5.11-8.34-11-12.54a1.1,1.1,0,0,1-.35-1.47Z"/><path class="cls-1" d="M424.51,53.24a.61.61,0,0,0,.4.7c1.3.45,2.3,1.35,2.3,2.2s-.6,1.3-2,1.3a15.74,15.74,0,0,1-2-.15A34.49,34.49,0,0,0,418,57a92.2,92.2,0,0,0-13.3,1.3,12.75,12.75,0,0,0-2.86.85,3.8,3.8,0,0,1-1.45.35c-1.14,0-3.5-2-4.15-3.15a11.27,11.27,0,0,1-.8-2.4.87.87,0,0,1,.36-1l.09,0,.1-.1a1,1,0,0,1,.35,0,.38.38,0,0,1,.35,0l.11.05.09.15c.8,1.2,2.2,2.6,3.86,2.6.89,0,4.9-.4,9.35-.8,4-.4,8.2-.8,10.95-.95a.55.55,0,0,0,.55-.55c.8-5.75,1.85-12.75,2-15.8a.45.45,0,0,0-.15-.35h0c-.15-.1-.2-.15-.35-.15-2.8.2-15.6,1.65-19.21,2.25a7.57,7.57,0,0,0-1.34.55,3.55,3.55,0,0,1-1.5.5c-1.25,0-3.7-2.4-4.11-3.65-.15-.4-.25-1.4-.4-2.2a.82.82,0,0,1,.7-.95.93.93,0,0,1,.7.1l.1.1.2.3c.7,1,1.5,2.3,2.9,2.3,2.41,0,17-1.45,20-1.85a4.84,4.84,0,0,0,1.85-.65,3,3,0,0,1,1.05-.45c1.2,0,4.3,2.35,4.3,3.5a1.92,1.92,0,0,1-.6,1.4,3.44,3.44,0,0,0-.85,1.3c-.45,1.65-1.1,6.05-1.85,10.6Z"/><path class="cls-1" d="M447,32.94A12.89,12.89,0,0,1,450.7,35a.52.52,0,0,0,.4.2c5.25-.2,17.91-1.4,19.76-1.55a2.58,2.58,0,0,0,1.7-.65,1.69,1.69,0,0,1,.95-.45c1.15,0,4.3,2.7,4.3,3.8a1.75,1.75,0,0,1-.8,1.5,3.1,3.1,0,0,0-.85,1.1c-.05,0-.05.1-.05.15-.4,1.4-.8,4.65-1.4,8.2l-.95,5.7a.61.61,0,0,0,.55.75c1.35.25,2.3,1,2.3,1.85a1.33,1.33,0,0,1-1.45,1.5c-.4,0-1.05-.05-1.85-.1-1.15-.05-2.6-.15-3.95-.15-3.85,0-10.25.25-16.26.65-.45,0-.59.2-.54.65v1.35c0,1.35-.46,1.9-1.41,1.9s-2-1.3-2-3.45c0-.35,0-1.1.05-1.7.06-1.4.11-3.45.11-4.8,0-3.85-.55-10.65-1.36-13.45a7.76,7.76,0,0,0-2.2-3.6c-.35-.4-.4-.75-.1-1.1l.1-.1a.88.88,0,0,1,1.1-.25Zm9.76,21.55c4.65-.3,10-.55,13.45-.8a.52.52,0,0,0,.6-.45,156.52,156.52,0,0,0,2-16.6c0-.1-.1-.2-.4-.2-3.25,0-12.1.75-15.15,1a17.7,17.7,0,0,0-2.25.4,15,15,0,0,1-1.65.25,2.94,2.94,0,0,1-.91-.15c-.55-.15-.75,0-.75.5l.7,15.75c0,.45.21.6.66.55Z"/><path class="cls-1" d="M524.51,53.24a.61.61,0,0,0,.4.7c1.3.45,2.3,1.35,2.3,2.2s-.6,1.3-2,1.3a15.74,15.74,0,0,1-2-.15A34.49,34.49,0,0,0,518,57a92.2,92.2,0,0,0-13.3,1.3,12.75,12.75,0,0,0-2.86.85,3.8,3.8,0,0,1-1.45.35c-1.14,0-3.5-2-4.15-3.15a11.27,11.27,0,0,1-.8-2.4.87.87,0,0,1,.36-1l.09,0,.1-.1a1,1,0,0,1,.35,0,.38.38,0,0,1,.35,0l.11.05.09.15c.8,1.2,2.2,2.6,3.86,2.6.89,0,4.9-.4,9.35-.8,4-.4,8.2-.8,10.95-.95a.55.55,0,0,0,.55-.55c.8-5.75,1.85-12.75,2-15.8a.45.45,0,0,0-.15-.35h-.05c-.15-.1-.2-.15-.35-.15-2.8.2-15.6,1.65-19.21,2.25a7.57,7.57,0,0,0-1.34.55,3.55,3.55,0,0,1-1.5.5c-1.25,0-3.7-2.4-4.11-3.65-.15-.4-.25-1.4-.4-2.2a.82.82,0,0,1,.7-.95.93.93,0,0,1,.7.1l.1.1.2.3c.7,1,1.5,2.3,2.9,2.3,2.41,0,17-1.45,20-1.85a4.84,4.84,0,0,0,1.85-.65,3,3,0,0,1,1-.45c1.2,0,4.3,2.35,4.3,3.5a1.92,1.92,0,0,1-.6,1.4,3.44,3.44,0,0,0-.85,1.3c-.45,1.65-1.1,6.05-1.85,10.6Z"/><path class="cls-1" d="M547,32.94A12.89,12.89,0,0,1,550.7,35a.52.52,0,0,0,.4.2c5.25-.2,17.91-1.4,19.76-1.55a2.58,2.58,0,0,0,1.7-.65,1.69,1.69,0,0,1,1-.45c1.15,0,4.3,2.7,4.3,3.8a1.75,1.75,0,0,1-.8,1.5,3.1,3.1,0,0,0-.85,1.1s0,.1,0,.15c-.4,1.4-.8,4.65-1.4,8.2l-1,5.7a.61.61,0,0,0,.55.75c1.35.25,2.3,1,2.3,1.85a1.33,1.33,0,0,1-1.45,1.5c-.4,0-1-.05-1.85-.1-1.15-.05-2.6-.15-3.95-.15-3.85,0-10.25.25-16.26.65-.45,0-.59.2-.54.65v1.35c0,1.35-.46,1.9-1.41,1.9s-2-1.3-2-3.45c0-.35,0-1.1.05-1.7.06-1.4.11-3.45.11-4.8,0-3.85-.55-10.65-1.36-13.45a7.76,7.76,0,0,0-2.2-3.6c-.35-.4-.4-.75-.1-1.1l.1-.1a.88.88,0,0,1,1.1-.25Zm9.76,21.55c4.65-.3,10-.55,13.45-.8a.52.52,0,0,0,.6-.45,156.52,156.52,0,0,0,2-16.6c0-.1-.1-.2-.4-.2-3.25,0-12.1.75-15.15,1a17.7,17.7,0,0,0-2.25.4,15,15,0,0,1-1.65.25,2.94,2.94,0,0,1-.91-.15c-.55-.15-.75,0-.75.5l.7,15.75c0,.45.21.6.66.55Z"/><path class="cls-1" d="M640.78,39.36c.77.84.84,2-.28,2.24a5,5,0,0,1-1.47.21,1.26,1.26,0,0,0-.63.42,38.62,38.62,0,0,1-9.94,10c-.91.57-.84,1,.14,1.47,7,2.81,15.89,4.77,26.88,5.47.56.07.84.35.77.91a1.19,1.19,0,0,1-.91,1A3.85,3.85,0,0,0,653.17,63a2.36,2.36,0,0,1-2.31,1.26c-11.76-1.75-20.44-4.41-27.24-8.55-.21-.21-.48-.21-.84,0-8.19,4.28-18.41,7.15-30.52,8.55a1.28,1.28,0,0,1-1.4-.84v-.14c-.07-.63.14-1,.77-1.05,10.64-1.75,19.74-4.49,27.23-8.55.7-.42.77-.9.07-1.4A45.85,45.85,0,0,1,612.07,45a.74.74,0,0,0-1.19-.21,65.16,65.16,0,0,1-14.77,8.54,1.2,1.2,0,0,1-1.47-.42c-.35-.56-.28-1,.35-1.26,9.31-5.11,17.15-12.39,21.49-19.18a1.8,1.8,0,0,1,2.1-.84h.14L622,32.71h.14c1,.49,1.41,1.33.77,1.89-.14.07-.14.07-.21.07a5.22,5.22,0,0,1-1.75.42,1.24,1.24,0,0,0-.56.35c-.35.49-.84,1-1.4,1.61-.91.84-.56,1.4.56,1.4h14.29a.79.79,0,0,0,.56-.21L636,37a1.82,1.82,0,0,1,2.45,0l.07.14ZM629.37,12c0-.63-.21-.84-.84-.84h-7.85c-.56,0-.77.21-.84.77-.77,10.71-3.92,19.39-22.12,25.55A1.68,1.68,0,0,1,596,37l-.14-.14c-.21-.7-.07-1.19.56-1.4,16.1-6.3,18.62-14.14,19-23.45,0-.63-.14-.84-.77-.84H593a1.59,1.59,0,0,1-1.68-1.33l-.07-.14a1,1,0,0,1,1-1.4h27.65c.63,0,.84-.21.84-.84V1.91a1.62,1.62,0,0,1,2-1.82l3,.35c1.05.14,1.82,1,1.26,1.82a3.17,3.17,0,0,1-1.33.84c-.42.21-.7.42-.7.91V7.44c0,.63.21.84.83.84h19.33a.76.76,0,0,0,.63-.28l2-2.31a1.73,1.73,0,0,1,2.66-.28l3.92,3.29.07.07a1.24,1.24,0,0,1,.35,1.54l-.07.21a2.23,2.23,0,0,1-1.75.63H634.34c-.63,0-.84.21-.84.84V27.67c0,3-.7,5.18-4.9,6-.84.21-1.54-.42-1.89-1.33a1.91,1.91,0,0,0-.91-1.12c-.7-.49-2-.91-4.48-1.19a1,1,0,0,1-.92-1.12c0-.56.35-.91.84-.84h.14c1.9,0,5.61.35,6.73.35s1.26-.21,1.26-.84Zm-37,15.61a.94.94,0,0,1,.21-1.19A46,46,0,0,0,604,15.14a1.74,1.74,0,0,1,2.59-.49l2.31,1.4c.84.49,1.12,1.68.21,2a3.13,3.13,0,0,1-1.4.28,1,1,0,0,0-.77.35A43.29,43.29,0,0,1,594.08,28a1.43,1.43,0,0,1-1.47-.14Zm21.14,14.91-.21.21q-.21.11,0,.21a47.45,47.45,0,0,0,9.32,7.84.64.64,0,0,0,.84,0,37.48,37.48,0,0,0,8.75-8.12c.63-.77.35-1.26-.63-1.26H615.08a.64.64,0,0,0-.49.21Zm22.55-26.32a.93.93,0,0,1-.14-1l.21-.21a1.58,1.58,0,0,1,1.19-.28c11.69,3.57,15.54,9,15.54,12.18,0,1.75-1.19,2.87-2.87,2.24h-.14a1.25,1.25,0,0,1-.84-.84c-2-4.06-8.12-8.89-12.74-12Z"/><path class="cls-1" d="M676,42c4.2-2.6,8.65-5,14.5-5,6.55,0,12.2,4.85,12.2,11.4,0,7.4-5.3,13.3-17.2,16.7a1,1,0,0,1-1.25-.65c-.25-.55-.1-.9.55-1.15,11.75-4.6,14.6-10,14.6-15.8,0-4.15-3.5-8.3-9.3-8.3-5.25,0-10.45,2.85-14.1,5.55a.57.57,0,0,0-.25.45c0,.85,0,1.7,0,2.55,0,4.25.35,8.2.5,10.65l0,1v.1l0,.25a13.16,13.16,0,0,1,.15,2.8c0,1.4-.5,4-2,4-.8,0-1.36-.65-1.55-1.8a15.58,15.58,0,0,0-.86-2.9v-.1c-.7-1.2-2.25-3.75-3.59-5.9-.26-.35-.36-.35-.61,0l-.34.5c-1,1.4-2,2.65-2.81,3.8-.6.75-1,1.3-1.7,1.3s-1.35-.8-1.35-1.8a3.27,3.27,0,0,1,1.15-2.5,165.62,165.62,0,0,0,10.86-14.25.38.38,0,0,0,.1-.25l.25-2.5c.09-.85-.16-1-.91-.6-1.34.75-2.64,1.45-3.7,2.1a6.41,6.41,0,0,0-1.14.9,2,2,0,0,1-1.25.75c-1.25,0-3.36-1.8-3.91-3.5a9.28,9.28,0,0,1-.25-1.7.62.62,0,0,1,.5-.75h.1c.35-.15.6,0,.75.35.65,1.2,1.31,1.8,2.06,1.8,1.09,0,5.84-2.2,8-3.3a.58.58,0,0,0,.29-.45l.25-1.95c.31-2.35.61-4.2.61-5.35,0-.75-.25-.95-1-1.3l-.11-.05-1.89-.45a1,1,0,0,1-.86-.9v-.45a.88.88,0,0,1,0-.3l.2-.2a.59.59,0,0,1,.25,0,10.53,10.53,0,0,1,2.55-.35c2,0,4.41,2.3,4.41,3.7a3.44,3.44,0,0,1-.35,1.45,10.76,10.76,0,0,0-.75,2.1l-.05.25c-.15.8-.45,1.85-.81,3.45a.66.66,0,0,0,.31.65c.65.55,1.35,1.3,1.35,2a1.79,1.79,0,0,1-.75,1.35v0l-.45.55c-.5.55-1,1.25-1.55,2Zm-2.5,6.9q0-1.35-.75-.15c-.75,1.15-1.61,2.35-2.45,3.55a9.42,9.42,0,0,1-.71,1.1.48.48,0,0,0,0,.7l3.16,4.2a7.66,7.66,0,0,0,.55.75l.09.1c.16.25.2.2.2-.15,0-1,0-2.4,0-4,0-1.35,0-3.2,0-4.6Z"/><path class="cls-1" d="M740.41,31.49c-.4.4-.95.65-1.8,1.4-2.3,2.15-9.1,8.85-11.51,11.4,0,.05.25,0,.61-.2A24.37,24.37,0,0,1,736,42.44c6.45,0,12.1,4.45,11.95,11.4-.15,6.3-5.75,11.55-15.1,11.55-5.65,0-9.35-2.25-9.35-5.9,0-2.8,2.3-4.85,5.5-4.85a7.9,7.9,0,0,1,7.95,6.55c.15.4.35.6.8.45,4.55-1.45,6.95-4.7,7.1-8.35.15-4.25-3.15-8.65-9.3-8.65-7.3,0-12.3,4.3-16.45,9.65-.75,1-1.16,1.15-1.81,1.15s-1.35-.75-1.3-2.1c0-1,.45-1.5,1.5-2.65,2.36-2.45,4.7-4.8,6.9-7,5.86-6,10.76-11,12.26-13.5.15-.15.1-.2-.05-.25,0-.05-.1-.05-.1,0-1.65.4-6.15,1.85-8.45,2.65a4.78,4.78,0,0,0-1,.55,2.89,2.89,0,0,1-1.46.6c-1.7,0-3.34-1.9-4-3.25v-.1a6.44,6.44,0,0,1-.09-2.65v-.1a.62.62,0,0,1,.45-.5h.3a.31.31,0,0,1,.2.05h0l.25.15,0,.05.09.25c.61,1.2,1.06,2.3,2.16,2.3,2,0,8.35-1.65,10.65-2.3h.1l.85-.4c.3-.15.5-.35.85-.35,1.4,0,3.9,2.15,3.9,3.35,0,.65-.35.9-.95,1.3Zm-8,30.9a8.48,8.48,0,0,0,1.1,0c.5-.05.7-.25.55-.7-.95-3.2-3.1-4.65-5.7-4.65-1.76,0-3,.85-3,2.35S727.41,62.39,732.41,62.39Z"/><path class="cls-1" d="M770.66,44.47a10.19,10.19,0,1,1-10,10.15A10.11,10.11,0,0,1,770.66,44.47Zm-7.35,10.15a7.32,7.32,0,0,0,14.63,0,7.32,7.32,0,0,0-14.63,0Z"/></g></g></svg>