<svg xmlns="http://www.w3.org/2000/svg" viewBox="0 0 273.72 37.07"><defs><style>.cls-1{fill:#fff;}</style></defs><title>job</title><g id="レイヤー_2" data-name="レイヤー 2"><g id="profile-page"><g id="table"><path class="cls-1" d="M10,36.63h-6V20.32a21.64,21.64,0,0,1-2.76,3.92L0,16.64A31.92,31.92,0,0,0,3.84,9.8,52.33,52.33,0,0,0,6.44.64l5.72,1A39.89,39.89,0,0,1,10,10.16ZM28.36,9.88h9v5.44h-9v15h8.11v5.24H12.28V30.27H22V15.32H11.8V9.88H22V1h6.4Z"/><path class="cls-1" d="M75.35,17.08v4.8h2.16V26H75.35v6.39H69.28V30.88H62.64c0,2.63-.28,4-1.16,4.83a5.73,5.73,0,0,1-3.16.88c-.64,0-1.56.08-2.68.08s-3.16-.08-6-.2l-.16-4.6c2.8.12,4.6.2,5.32.2,1.12,0,1.12,0,1.12-.92v-.27H42.36V27.24H55.92V26H41V21.88H55.92v-1.2H42.36v-3.6H55.92V16H43.64V8H55.92V6.92H41.44V2.48H55.92V.2h6.72V2.48H77.11V6.92H62.64V8H74.91v8H62.64v1.12ZM55.92,11.44h-6.2v1.44h6.2Zm12.91,0H62.64v1.44h6.19Zm.45,9.24H62.64v1.2h6.64Zm0,5.36H62.64v1.2h6.64Z"/><path class="cls-1" d="M97.56,10.08,97.12,12a11,11,0,0,1,5.08,3.56,26.38,26.38,0,0,1,3.44-1.12l-.36-1.88,4.43-.88,1.56,8A37.14,37.14,0,0,0,105,21a42.35,42.35,0,0,1,1.12,5.12l-6,.88c-.2-1.32-.4-2.36-.6-3.24a11.75,11.75,0,0,0-3.4,3.48c-.68,1.23-.52,2.39,2,2.8,2.72.39,7.2-.12,10.63-.69l.69,6.12a56.5,56.5,0,0,1-11.56.72C94.76,36,92,34.91,90.36,32.07c-3.12-5.55,1.72-10.83,5.8-13.59-1.4-1-3.28-1.56-6.52-1.64l1.6-6.76h-8.6V4h10.2l1-4,5.88,1.36L99.08,4h16.15v6.12Z"/><path class="cls-1" d="M155.55,36.55A22.4,22.4,0,0,1,148.64,29l.19,3.87A86.68,86.68,0,0,1,132,36.39l-.6-5.12c1.32-.08,2.68-.24,4-.44V23.36a38.64,38.64,0,0,1-4,2.68l-1.48-4.4v15h-5.8V20.56a23.88,23.88,0,0,1-2.68,3.68L120,16.64a31.27,31.27,0,0,0,3.84-6.88,50.81,50.81,0,0,0,2.6-9.12l5.76,1c-.2,1.2-.36,2.12-.52,2.8h9.68V.36h6.24V4.48h9.91V9.64h-9a57.22,57.22,0,0,0,1.36,7.88c1.47-1.68,2.87-3.4,4.19-5.2l3.8,3.8a73,73,0,0,1-6,7.12,23.26,23.26,0,0,0,6.39,7.91ZM131.36,9.64V5.92a40.24,40.24,0,0,1-1.44,4.72v9.2a23,23,0,0,0,9.72-10.2Zm12.32,3.56a32.3,32.3,0,0,1-2.52,4.2V29.79c2.32-.52,4.64-1.08,7-1.75A38.48,38.48,0,0,1,143.68,13.2Z"/><path class="cls-1" d="M161.84,23.36V10.24h5.8V8.12h-6.92V3.2h6.92V.4H173V3.2h5.52V1.56h19.07V6.48h-6.84c-.08.4-.24,1-.43,1.68h6.43V28.83h-5.16a39.33,39.33,0,0,1,6.72,3.88l-2.44,4.36a50.76,50.76,0,0,0-8.07-4.44l2.08-3.8h-4.44l2.28,3.44a26.3,26.3,0,0,1-8.2,4.64l-2.36-4.6A31.84,31.84,0,0,0,184,28.83h-4.24V8.16h4.56c.12-.4.32-1.36.44-1.68h-6V8.12H173v2.12h5.48V23.36H174.2a40.19,40.19,0,0,0,4.92,3.08l-1.44,5.23A35.92,35.92,0,0,1,173,28.2v8.43h-5.4V29.39A32.33,32.33,0,0,1,162,35l-2-5.2a30,30,0,0,0,7.08-6.39ZM168,14.72h-1.64v4.16H168Zm4.76,0v4.16h1.64V14.72Zm12.36-1.92v1.4h6V12.8Zm6,5h-6v1.44h6Zm0,5h-6v1.44h6Z"/><path class="cls-1" d="M236.27,11.16h-10a27.52,27.52,0,0,1-.72,5.92,11.38,11.38,0,0,1,1.72,2.28c3.72,5.92.12,12-3.16,17.67l-7.52-3.68,2.08-3.88,2,1.08c1.2-2.39,2-4,2-5.87a8.85,8.85,0,0,1-3.8,3.48,8.42,8.42,0,0,1-10.36-3,7.79,7.79,0,0,1-.8-6.76,8.56,8.56,0,0,1,5.36-5.08,11.79,11.79,0,0,1,6.76,0,17.63,17.63,0,0,0,.16-2.16H203v-6l16.56,0c-.16-1.16-.4-2.08-.68-3.4L225.08.6c.36,1.8.6,3,.8,4.6h10.39Zm-21.23,8A2,2,0,0,0,213.8,22a2.08,2.08,0,0,0,2.68.6c1-.4,1.76-1.44,2.32-3.16A4.88,4.88,0,0,0,215,19.16Z"/><path class="cls-1" d="M269.83,7.8,263,12.72c8.79,1,13.71,11,8.63,18.2-2.55,3.55-6.75,5.23-11.63,5.23s-11.2-2.08-10.64-8.44c.4-4.07,3.64-7.27,7.44-7.19a8.7,8.7,0,0,1,6.44,2.84,9,9,0,0,1,2,5.39,5.46,5.46,0,0,0-.52-9.11c-2.84-1.72-6.24-1.52-9.36-1.4l-2.44,1.84-3.36-4.36L259.64,8.4l-14.6,1L244.56,1l4.52-.2.12,2.6,23.68-1.64.39,5.84ZM259.08,30.27v-.08c.32-2-.64-4-2.4-3.51a1.73,1.73,0,0,0-.8,2.67C256.6,30.19,258.12,30.23,259.08,30.27Z"/></g></g></g></svg>