<svg xmlns="http://www.w3.org/2000/svg" viewBox="0 0 493.98 85.51"><defs><style>.cls-1{fill:#faf7d9;}.cls-2{fill:#c45c66;}.cls-3{fill:#283c5f;}.cls-4{fill:#4aa9a4;}</style></defs><title>name</title><g id="レイヤー_2" data-name="レイヤー 2"><g id="profile-page"><g id="name"><rect class="cls-1" x="14.21" y="14.94" width="468.65" height="45.91"/><polygon class="cls-2" points="160.16 26.76 149.3 48.63 144.57 57.73 129.73 85.51 139.77 85.51 170.08 26.76 160.16 26.76"/><polygon class="cls-2" points="145.26 41.04 137.66 26.76 127.46 26.76 140.39 50.17 145.26 41.04"/><path class="cls-3" d="M192.75,58l-.44,0q-7.47,0-7.47-9.46V26.76h-8.78v22a21.75,21.75,0,0,0,1.09,7.89A13.36,13.36,0,0,0,181,62a16.59,16.59,0,0,0,11.29,3.87l.44,0Z"/><path class="cls-3" d="M199.77,26.76V48.59c0,.18,0,.35,0,.53V64.47A15,15,0,0,0,203.63,62a13.23,13.23,0,0,0,3.79-5.35,24.34,24.34,0,0,0,1.14-7.89v-22Z"/><polygon class="cls-3" points="219.65 43.78 228.44 39.55 228.44 26.76 219.65 26.76 219.65 43.78"/><path class="cls-3" d="M224.06,16.72a5.43,5.43,0,0,0,4-1.68A5.53,5.53,0,0,0,229.77,11a5.43,5.43,0,0,0-1.68-4A5.55,5.55,0,0,0,224,5.27,5.49,5.49,0,0,0,220,7a5.45,5.45,0,0,0-1.68,4A5.58,5.58,0,0,0,220,15,5.53,5.53,0,0,0,224.06,16.72Z"/><polygon class="cls-3" points="219.65 51.54 219.65 64.81 228.44 64.81 228.44 47.32 219.65 51.54"/><path class="cls-4" d="M271.33,28.79a19,19,0,0,0-4.28-3.38l-2.64,9.2,0,0a12.8,12.8,0,0,1,3.68,9.45,13.47,13.47,0,0,1-3.71,9.57,12.18,12.18,0,0,1-6.5,3.58l-2.44,8.49a22.1,22.1,0,0,0,15.11-6.13,20.86,20.86,0,0,0,6.4-15.7Q277,34.69,271.33,28.79Z"/><path class="cls-4" d="M255.27,30.86a13.94,13.94,0,0,1,2.86.29l2.29-8a23.29,23.29,0,0,0-3.5-.28c-.34,0-.71,0-1.12,0l-1.27.12,3-10h18.59V4.49H251.17l-9.49,31.72h3Q249.15,30.86,255.27,30.86Z"/><path class="cls-4" d="M250.76,56.82a10.94,10.94,0,0,1-2.59-1.27,21.3,21.3,0,0,1-5.75-6.84l-6.87,5.82q5.07,8.25,12.87,10.44Z"/><polygon class="cls-3" points="322.85 47.97 322.85 0 284.14 56.25 306.7 56.25 306.7 47.97 299.85 47.97 313.75 27.77 313.75 47.97 313.7 47.97 313.7 56.25 313.75 56.25 313.75 64.81 322.85 64.81 322.85 56.25 329.26 56.25 329.26 47.97 322.85 47.97"/><path class="cls-3" d="M354,56.7A12.52,12.52,0,0,1,348.59,51q-3.46-6.65-3.47-16.68,0-9.64,3.51-16.1A12.83,12.83,0,0,1,354,12.53V3.83q-6.31,1.29-11.07,7.42-6.72,8.59-6.72,23,0,15.15,6.72,23.75,4.78,6.1,11.07,7.41Z"/><path class="cls-3" d="M372,11.25C368.87,7.16,365.18,4.7,361,3.83v8.69a12.66,12.66,0,0,1,5.37,5.68q3.51,6.53,3.51,16.41T366.33,51A12.69,12.69,0,0,1,361,56.69v8.74Q367.28,64.14,372,58q6.72-8.59,6.72-23.36T372,11.25Z"/><path class="cls-3" d="M15.19,3.18,18,8.9a1.76,1.76,0,0,0,1.34,1l6.31.92a1.78,1.78,0,0,1,1,3l-4.57,4.46a1.81,1.81,0,0,0-.52,1.57l1.08,6.29A1.78,1.78,0,0,1,20.07,28l-5.64-3a1.8,1.8,0,0,0-1.66,0L7.12,28a1.78,1.78,0,0,1-2.58-1.88l1.08-6.29a1.77,1.77,0,0,0-.51-1.57L.54,13.82a1.78,1.78,0,0,1,1-3l6.32-.92a1.76,1.76,0,0,0,1.34-1L12,3.18A1.78,1.78,0,0,1,15.19,3.18Z"/><path class="cls-3" d="M493.64,64.78l.34-.36a10.4,10.4,0,1,1-3.35-20.28,13,13,0,1,0,3,20.64Z"/></g></g></g></svg>