<svg xmlns="http://www.w3.org/2000/svg" viewBox="0 0 433.9 56.94"><defs><style>.cls-1{fill:#fff;}</style></defs><title>title</title><g id="レイヤー_2" data-name="レイヤー 2"><g id="profile-page"><g id="title"><path class="cls-1" d="M15.34,1.7h9.91V15.84a26.15,26.15,0,0,1,11.43-2.77c7.76,0,15.21,4,18.56,11.11a23.35,23.35,0,0,1,1.95,14.07A28.52,28.52,0,0,1,46.46,55.68l-7.07-7.14C45.7,43.68,50,34.28,45.83,27.59c-4.61-7.45-14.52-5.05-20.58-.57l.06,28.4H15.4V37.56A85.5,85.5,0,0,0,9.79,49.11L.5,45.83C4,36.3,9.28,28.15,15.4,22.47l-.06-2.84a23.57,23.57,0,0,0-9.53,2.46L0,11.49,6.44,8.4l1.45,2.77a25.69,25.69,0,0,1,7.45-1Z"/><path class="cls-1" d="M87.05,19.51,78.59,51l-9.47-2.53,7.64-29H65.65V9.85H79.22c.5-1.83,1-3.47,2.59-9.85l9.47,2.27c-.64,2.59-1.2,5.18-1.84,7.58h17.74v9.66Zm32.13,29.6c-5.68,5.75-13.83,9.16-21.91,6.25-6.88-2.52-11.36-9.09-11.55-17.61l10-.32c.13,3.73,1.46,7.52,4.93,8.84,5.24,2,9.47-1.83,11.49-3.79ZM113.5,38.44l-6.32-3.15,1.27-2.65c-2.09-.7-5.5-1-10,.31l-2.59-9.21c10.54-3.41,19.32,1,23.61,3.53Z"/><path class="cls-1" d="M140.26,45.7c-7.64-10.67-4.42-25.63-1.08-37.18l-4.42-1.2,2-6.75L151.3,4.48c-2.65,8.84-7.82,22-4.42,31.82a13.71,13.71,0,0,0,11.94,9.4c5.74.45,11.42-2.71,14.7-8l8.59,5.68a26.73,26.73,0,0,1-22.22,12.44A23.8,23.8,0,0,1,140.26,45.7Z"/><path class="cls-1" d="M211.84,45.51c-.13.13-12.82,7.07-12.82,7.07-2.84-4.92-10.73-19.69-3.28-44.56l9.66,2.71c-5.12,17.23-2.34,26.89-1,30.81l3.91-2.21Zm27-20.51-5.8-4.29,3.28-4.36a14.49,14.49,0,0,0-12.18-1.58A63.25,63.25,0,0,0,217.77,17l-3.66-9.28c4.23-1.51,8.46-3.15,12.88-3.47,6.18-.44,12.56,1.52,21.21,8.71ZM222.19,40.34c2.46,2.71,5.3,4.42,7.07,4.54,4,.25,7-2.14,9.09-4.48L245.92,47c-4.67,5.11-10.16,7.76-16,7.76-5.68,0-11-3.28-15.09-7.58Z"/><path class="cls-1" d="M277.36,45.07c6.31-1.13,12.62-3.28,16.91-7.64a12.81,12.81,0,0,0,1.2-15.84c-3.28-4.86-10-5.43-15.46-5.24-7.64.25-15,2.08-22.79,4.17L253.75,7.64l6.75-2L261.39,9a89.12,89.12,0,0,1,20.83-2.78c10,0,17.74,3.41,22,9.59,5.43,8.08,5.24,19-.51,26.45-7.07,9-19.19,12-24.36,12.94Z"/><path class="cls-1" d="M347.93,40.78l-5.56,14.39-4.8-1.77C320.47,47,317,32.83,317,13.45v-5h10.23v5c0,20.13,4.29,26.38,12,29.79l2-4.92Zm25.75-2H363.39v-5c0-7.19-2.08-12-6-14.83l-1.83,4.16L349,20.39l6.12-13.76L360.24,9c6.18,2.91,13.44,9.85,13.44,24.81Z"/><path class="cls-1" d="M419.76,56.94C409.59,52,403.47,45.58,401.58,37.5c-1.52-6.63-.25-14,3.72-21.84l-22,1.7L382.14,4l7-.57.38,4L433.2,4.1l.7,9.47-16.23,1.2c-4,6.19-7.7,13.76-6.18,20.39,1.2,4.92,5.81,9.28,13.38,12.75Z"/></g></g></g></svg>