<svg xmlns="http://www.w3.org/2000/svg" viewBox="0 0 193.6 36.43"><defs><style>.cls-1{fill:#fff;}</style></defs><title>wishlist</title><g id="レイヤー_2" data-name="レイヤー 2"><g id="profile-page"><g id="table"><path class="cls-1" d="M38.15,29.63c-.44,0-1.44.25-1.8.29v6.15H30.43V30.83c-3.67.48-7.31.92-10.87,1.28.12.36.44,1.24.56,1.56l-4.84,1.56-.52-1.4-.44-1.12a117.26,117.26,0,0,1-13,3l-.8-4.88L3,30.39V11.72c-.4.28-1,.72-1.84,1.24L0,6.92A42.24,42.24,0,0,0,7.92.16h6.36c2,1.6,3.68,2.8,4.8,3.52V1.16H38.15V6.24h-1.8v18.6c.36,0,1.36-.24,1.8-.28ZM9,9.08V6.52c-1,1-1.88,1.8-2.68,2.56Zm7.4,15.36c.84,1.84,1.76,4,2.72,6.44,0-.41-.12-1.05-.2-1.92L18.68,27l2.12-.16V6.56L19.24,9.84V24.2H8.88v4.88l3.72-.92c-.2-.52-.48-1.28-.92-2.28ZM14,13H8.88v1.72H14Zm0,6.8V18H8.88V19.8ZM13.88,6A31,31,0,0,1,11.44,3.8c-.64.76-1.28,1.52-2,2.24Zm.48,3h3.28c-1.08-.8-2.12-1.68-3.28-2.64Zm12.2.6h3.87V6.24H26.56Zm3.87,4.72H26.56v3.36h3.87Zm0,8.08H26.56V26.2L28.4,26c.92-.12,1.56-.24,2-.28Z"/><path class="cls-1" d="M50.24,36H44.32V19.84a25.2,25.2,0,0,1-2.72,3.8L40,16.32A38,38,0,0,0,46.44,0l5.72,1a39.79,39.79,0,0,1-1.92,8Zm18-25H52.08V5.68H68.2V.2h6.23V5.68h3V11h-3V28.79c0,1.21,0,2.13-.08,2.8a4.88,4.88,0,0,1-1,3.2,3.31,3.31,0,0,1-1.35.68,14.79,14.79,0,0,1-4.8.44c-1.2,0-3.52-.08-7-.2l-.32-5.24c3,.12,5.08.2,6.12.2a5,5,0,0,0,1.88-.2c.2-.15.32-.64.32-1.43Zm-10,2.12c2.16,3.16,4.36,6.68,6.56,10.64L59.8,26.52A94.41,94.41,0,0,0,53.44,16.2Z"/><path class="cls-1" d="M92.76,22l2.08,3.88-8.52,4.83a27.19,27.19,0,0,1-3.72-8.63c-1.24-6,.08-10.24,2.64-16L91,8.64c-2.32,5.12-3.64,9.48-1.44,15.12Zm22.87-7.08h-3.84a28.73,28.73,0,0,1,0,5.08c-.52,6.6-2.75,10.92-7.07,16l-4.88-3.88c3.28-3.87,5.4-7.31,5.68-12.83a31.38,31.38,0,0,0-.08-4.36H93V9h11.4a53.88,53.88,0,0,0-2.16-6.88l6-2A79.75,79.75,0,0,1,110.88,9h4.75Z"/><path class="cls-1" d="M156.15,10.56h-10a27.52,27.52,0,0,1-.72,5.92,11.38,11.38,0,0,1,1.72,2.28c3.71,5.92.12,12-3.16,17.67l-7.52-3.68,2.08-3.87,2,1.08c1.2-2.4,2-4,2-5.88a8.85,8.85,0,0,1-3.8,3.48,8.4,8.4,0,0,1-10.36-3,7.79,7.79,0,0,1-.8-6.76A8.56,8.56,0,0,1,133,12.76a11.79,11.79,0,0,1,6.76,0,17.63,17.63,0,0,0,.16-2.16h-17v-6l16.56,0c-.16-1.16-.4-2.08-.68-3.4L145,0c.36,1.8.6,3,.8,4.6h10.39Zm-21.23,8a2,2,0,0,0-1.24,2.84,2.08,2.08,0,0,0,2.68.6c1-.4,1.76-1.44,2.32-3.16A4.88,4.88,0,0,0,134.92,18.56Z"/><path class="cls-1" d="M189.71,7.2l-6.79,4.92c8.79,1,13.71,11,8.63,18.2-2.55,3.55-6.75,5.23-11.63,5.23s-11.2-2.08-10.64-8.43c.4-4.08,3.64-7.28,7.44-7.2a8.7,8.7,0,0,1,6.44,2.84,9,9,0,0,1,2,5.4A5.47,5.47,0,0,0,184.6,19c-2.84-1.72-6.24-1.52-9.36-1.4l-2.44,1.84-3.36-4.36L179.52,7.8l-14.6,1L164.44.36,169,.16l.12,2.6,23.67-1.64.4,5.84ZM179,29.67v-.08c.32-2-.64-3.95-2.4-3.51a1.73,1.73,0,0,0-.8,2.67C176.48,29.59,178,29.63,179,29.67Z"/></g></g></g></svg>