<svg xmlns="http://www.w3.org/2000/svg" viewBox="0 0 463.56 84.46"><defs><style>.cls-1{fill:#ebcb8b;}.cls-2{fill:#fff;}.cls-3{fill:#c56370;}</style></defs><title>アセット 9</title><g id="レイヤー_2" data-name="レイヤー 2"><g id="レイヤー_4" data-name="レイヤー 4"><path class="cls-1" d="M0,32.64a9.23,9.23,0,0,1,.76-3.16c.51-1.31,1.08-2.68,1.72-4.12s1.28-2.85,1.92-4.24A24.72,24.72,0,0,0,5.76,17.6a1.73,1.73,0,0,0,.12-.4q0-.24.36-.24c.37,0,.71.45,1,1.36A24.78,24.78,0,0,1,8,21.4a31.59,31.59,0,0,1,.44,3.32q.12,1.61.12,2.16,0,4.25-1.32,6.24a5.37,5.37,0,0,1-3,2.44,3.48,3.48,0,0,1-3-.44A2.81,2.81,0,0,1,0,32.64ZM39.84,47.52a7.8,7.8,0,0,0-1.08.64c-.67.43-1.48.89-2.44,1.4A26.53,26.53,0,0,1,33.16,51a9.26,9.26,0,0,1-3.24.64.71.71,0,0,1-.8-.8V26.72q0-1-.6-1.08a2.91,2.91,0,0,0-1.4.12,13,13,0,0,0-1.6.6,3.34,3.34,0,0,1-1.28.36,3.19,3.19,0,0,1-1.6-.4,1.51,1.51,0,0,1-.72-1.44V23.56a9,9,0,0,0-.12-1.48,2.71,2.71,0,0,0-.52-1.24,1.42,1.42,0,0,0-1.2-.52.45.45,0,0,0-.44.24,1.07,1.07,0,0,0-.12.48V72c0,.64-.43,1.17-1.28,1.6a10.35,10.35,0,0,1-2.88.92,17.54,17.54,0,0,1-3.08.28,2.87,2.87,0,0,1-1.88-.4,1,1,0,0,0-.08-.28,1,1,0,0,1-.08-.28V1.28a.71.71,0,0,1,.8-.8,38.91,38.91,0,0,1,4.68.28c1.57.19,3.13.41,4.68.68a1.72,1.72,0,0,0,.52.08c.19,0,.28.13.28.4a.65.65,0,0,1-.32.48l-.68.52a3.2,3.2,0,0,0-.64.68,1.75,1.75,0,0,0-.28,1c0,.27,0,.84.08,1.72s.11,1.83.16,2.84.11,1.93.16,2.76a6.94,6.94,0,0,0,.16,1.4A4.85,4.85,0,0,0,21,14.84c.53.51,1.11,1,1.72,1.56s1.23,1,1.84,1.52A8.49,8.49,0,0,1,26,19.36c.32.37.73.92,1.24,1.64a5.74,5.74,0,0,0,1.24,1.4h7.44c.48,0,.72-.27.72-.8a14.16,14.16,0,0,0-.44-2.52c-.29-1.25-.64-2.56-1-3.92a28.68,28.68,0,0,0-1.32-3.64c-.48-1.07-.88-1.6-1.2-1.6S32,10,31.28,10s-1.41.08-2.16.08a11,11,0,0,1-2-.16c-.59-.11-.88-.29-.88-.56a.5.5,0,0,1,.56-.56H41.92c.64,0,1-.43,1-1.28a26,26,0,0,0-.16-2.8,19.67,19.67,0,0,1-.12-2.8c0-.85.39-1.28,1.08-1.28l2.24,0c1.12,0,2.28.09,3.48.2a25.06,25.06,0,0,1,3.2.48c.93.21,1.4.51,1.4.88a1,1,0,0,1-.68,1,1,1,0,0,0-.68,1V8.8l-.24.56-.32.32-.56.24c-.53,0-1.29,0-2.28-.08s-2-.08-3.08-.08a24.71,24.71,0,0,0-3,.16,3.66,3.66,0,0,0-1.92.64l-.16.4a2.35,2.35,0,0,0,.6,1c.35.4.73.81,1.16,1.24s.81.83,1.16,1.2a4.34,4.34,0,0,1,.68.88,3.24,3.24,0,0,1,.08,1.92c-.16.8-.32,1.59-.48,2.36a10.06,10.06,0,0,0-.24,2q0,.84.72.84h5.92c.32,0,.65-.56,1-1.68s.67-2.39,1-3.8.53-2.73.72-4,.31-2,.36-2.16.15-.53.28-1.12.28-.88.44-.88.67,0,1.2,0,1.11,0,1.72,0,1.17,0,1.68-.08a2.4,2.4,0,0,0,1-.24A4.21,4.21,0,0,0,61.2,7.24c.32-.56.65-1.13,1-1.72a18.16,18.16,0,0,1,1.12-1.68A3.17,3.17,0,0,1,64.8,2.72l.4.08c.37.27,1,.68,1.92,1.24s1.81,1.16,2.72,1.8a22.9,22.9,0,0,1,2.4,1.92,2.6,2.6,0,0,1,1,1.68A.38.38,0,0,1,73,9.8a1.21,1.21,0,0,1-.44.12H63a7.32,7.32,0,0,0-1.64.08,1.33,1.33,0,0,0-.48.88A1.21,1.21,0,0,0,61.6,12a7,7,0,0,0,1.56.56l1.56.36c.48.11.72.29.72.56,0,.53-.61,1.09-1.84,1.68l-4,1.92a38.13,38.13,0,0,0-4,2.2,3.2,3.2,0,0,0-1.84,2.6.38.38,0,0,0,.28.36,1.21,1.21,0,0,0,.44.12h7.36a2.16,2.16,0,0,0,1.36-.84,22.46,22.46,0,0,0,1.56-1.84c.51-.67,1-1.31,1.48-1.92a3.6,3.6,0,0,1,1.12-1.08,7.46,7.46,0,0,1,1.56,1,32.16,32.16,0,0,1,2.52,2.08c.85.77,1.63,1.49,2.32,2.16s1,1.08,1,1.24-.07.17-.2.2a1.59,1.59,0,0,1-.36,0q-11,0-21.92.28T30.32,24a1,1,0,0,0-.64.28.82.82,0,0,0-.32.6c0,.32.45.73,1.36,1.24A29.68,29.68,0,0,0,33.8,27.6c1.15.48,2.25.89,3.32,1.24a8.75,8.75,0,0,0,2.16.52h2.2c1.09,0,2.36,0,3.8,0s2.95,0,4.52,0h4.36c1.33,0,2.44,0,3.32-.08A7.62,7.62,0,0,0,59,29.2c.64-.59,1.28-1.16,1.92-1.72s1.28-1.13,1.92-1.72q.41-.32,1.8.12a14.91,14.91,0,0,1,2.88,1.28A20.18,20.18,0,0,1,70.16,29c.8.64,1.2,1.17,1.2,1.6A.52.52,0,0,1,71,31l-.76.32a4.23,4.23,0,0,0-.76.4.68.68,0,0,0-.36.56V48.56c0,.53-.39.95-1.16,1.24a11.87,11.87,0,0,1-2.64.64c-1,.13-2,.21-2.92.24s-1.63,0-2,0a.63.63,0,0,1-.64-.36,2.59,2.59,0,0,1-.2-.84q0-.48-.12-1a1.75,1.75,0,0,0-.32-.8l-.56-.24ZM21.92,66.4a4.24,4.24,0,0,1,.72-2.32,13.69,13.69,0,0,1,1.72-2.16c.67-.69,1.36-1.35,2.08-2a19.07,19.07,0,0,0,1.8-1.72,7.87,7.87,0,0,0,1-1.16c.27-.4.56-.81.88-1.24.43-.59.77-.72,1-.4a3.59,3.59,0,0,1,.64,1.44,11.76,11.76,0,0,1,.32,2c.05.69.08,1.15.08,1.36,0,1,0,2.07-.08,3.32a13.23,13.23,0,0,1-.6,3.52,6.73,6.73,0,0,1-1.64,2.76A4.21,4.21,0,0,1,26.72,71a4.92,4.92,0,0,1-3.36-1.28A4.19,4.19,0,0,1,21.92,66.4ZM45.36,54.72a3.25,3.25,0,0,1-.28.81,1.82,1.82,0,0,0-.2.8v8l.24.56.56.57.56.24H57.12a1.64,1.64,0,0,0,1.16-.4A4.85,4.85,0,0,0,59,64.4q.32-.48.6-1a1.82,1.82,0,0,1,.76-.72.74.74,0,0,1,.4.4,1.8,1.8,0,0,0,.24.48,4,4,0,0,0,.84,1.24l1,1A5,5,0,0,1,63.8,67a2.8,2.8,0,0,1,.36,1.42,3.92,3.92,0,0,1-1.88,3.65,12,12,0,0,1-4.44,1.46,28.43,28.43,0,0,1-5.24.24c-1.79-.08-3.21-.12-4.28-.12-.85,0-2,0-3.32.08a19.89,19.89,0,0,1-4-.24,8.5,8.5,0,0,1-3.32-1.24,3.25,3.25,0,0,1-1.4-2.92v-15c0-.53.21-.8.64-.8a20.45,20.45,0,0,1,4.08.4,34,34,0,0,0,4.08.56ZM38.48,45.6a.71.71,0,0,0,.8.8h19.2a.71.71,0,0,0,.8-.8V31.76a.71.71,0,0,0-.8-.8H39.28a.71.71,0,0,0-.8.8Zm1.92-7.52A9.27,9.27,0,0,1,41.92,38L45,37.88c1.2,0,2.49,0,3.88,0s2.68,0,3.88,0l3.08.08a9.27,9.27,0,0,1,1.52.12l.16.24a.33.33,0,0,1-.24.08h-2c-.93,0-2,0-3.24,0s-2.51,0-3.84,0-2.57,0-3.72,0-2.12,0-2.92,0a5.89,5.89,0,0,1-1.36-.08Zm4.08,12.16c0-.32.19-.51.56-.56a7.41,7.41,0,0,1,1-.08,20.79,20.79,0,0,1,3.28.32A15.44,15.44,0,0,1,53,51a10.06,10.06,0,0,1,3,2,4,4,0,0,1,1.24,3A4.32,4.32,0,0,1,57,57a8.08,8.08,0,0,1-.44,1.28,3.83,3.83,0,0,1-.68,1.08,1.19,1.19,0,0,1-.88.44H51.2a1.1,1.1,0,0,1-.72-.4,5.44,5.44,0,0,1-.72-1c-.27-.45-.53-1-.8-1.48s-.55-1.05-.84-1.56-.55-.92-.76-1.24a14,14,0,0,0-1.48-1.84A8.08,8.08,0,0,1,44.48,50.24Zm18.24,4.64c-.16-.11-.17-.21,0-.32A.57.57,0,0,1,63,54.4a14.71,14.71,0,0,1,4.44.72,13.53,13.53,0,0,1,4.12,2.12,12.31,12.31,0,0,1,3,3.32,8,8,0,0,1,1.2,4.32,5.67,5.67,0,0,1-1.12,3.6,4.09,4.09,0,0,1-3.44,1.44,3.2,3.2,0,0,1-2-.68,7.39,7.39,0,0,1-1.56-1.64,13.6,13.6,0,0,1-1.2-2.08c-.35-.75-.63-1.41-.84-2-.53-1.44-1-2.89-1.44-4.36A38.76,38.76,0,0,0,62.72,54.88Z"/><path class="cls-2" d="M120.24,35a1.62,1.62,0,0,1-1.32.32c-.61-.05-1.24-.12-1.88-.2a7.77,7.77,0,0,0-1.72,0,.73.73,0,0,0-.76.8q0,5.28.12,10.48t.12,10.48c0,.43,0,1.45,0,3.08s-.08,3.33-.16,5.12-.16,3.41-.24,4.88a8.17,8.17,0,0,1-.28,2.36,5.94,5.94,0,0,1-1.6,1.24,10.17,10.17,0,0,1-2,.84,12.61,12.61,0,0,1-2.2.44,19,19,0,0,1-2,.12.71.71,0,0,1-.8-.8V32.32a1.24,1.24,0,0,0-.44-.84,3.36,3.36,0,0,0-.76-.6,1.66,1.66,0,0,0-.48.72c-.05.21-.13.48-.24.8a13,13,0,0,0-.2,1.72c0,.55-.07,1.13-.12,1.71q-.24,3.68-.72,7a74.61,74.61,0,0,1-1.92,8.9,44.24,44.24,0,0,1-3.44,8.71,34.23,34.23,0,0,1-5.28,7.46,21.44,21.44,0,0,1-7.44,5.19,1.14,1.14,0,0,1-.48.16c-.32.11-.48,0-.48-.4A3.89,3.89,0,0,1,84,71.09c.35-.67.73-1.36,1.16-2.08s.87-1.41,1.32-2.08a16.68,16.68,0,0,0,1.08-1.79A71.42,71.42,0,0,0,91.4,54.28,43.45,43.45,0,0,0,93,42.86a5.52,5.52,0,0,0-.08-.64c0-.32-.19-.48-.4-.48s-.75.52-1.44,1.56-1.43,2.22-2.2,3.55-1.48,2.62-2.12,3.87-1,2.07-1.2,2.44l-.32.24-.48-.24q-.31-.79-1.08-2.28c-.51-1-1-2-1.52-3s-1-2-1.4-2.92A5.38,5.38,0,0,1,80.08,43l.24-.32c.43-.27,1.36-.73,2.8-1.4s2.92-1.37,4.44-2.11,2.88-1.47,4.08-2.16,1.8-1.17,1.8-1.44V29a1.19,1.19,0,0,0-.8-1.2.65.65,0,0,0-.48.16,3.79,3.79,0,0,0-.92,1.12,5.52,5.52,0,0,1-.64,1,2.76,2.76,0,0,1-1,.72,4.66,4.66,0,0,1-1.88.28A8.88,8.88,0,0,1,86,31a3.16,3.16,0,0,1-1.48-.72.77.77,0,0,1-.24-.56c-.27-2.45-.49-4.87-.68-7.24a36.42,36.42,0,0,0-1.32-7.16l.16-.32a5.36,5.36,0,0,1,3.2.92A10.27,10.27,0,0,1,88,18.16,28.13,28.13,0,0,1,89.8,21a13.89,13.89,0,0,0,2,2.68l.44.44c.19.19.33.25.44.2a1.1,1.1,0,0,0,.6-.6,2.06,2.06,0,0,0,.2-.84V6.72a1.53,1.53,0,0,1,.12-.6.5.5,0,0,1,.52-.28,1.23,1.23,0,0,1,.56.16,40,40,0,0,1,3.6,1.92A29,29,0,0,0,101,9.44a13.9,13.9,0,0,0,3,1,21.76,21.76,0,0,0,4.4.36c1.39,0,2.75,0,4.08,0s2.69,0,4.08,0a.71.71,0,0,0,.8-.8V.8a.71.71,0,0,1,.8-.8c.43,0,1.25,0,2.48.12s2.51.17,3.84.28,2.57.23,3.72.36a13.41,13.41,0,0,1,2.2.36c.53.16.73.35.6.56a2.12,2.12,0,0,1-.76.64A11.71,11.71,0,0,0,129.2,3a1.12,1.12,0,0,0-.56.88c0,.27,0,.77-.08,1.52s-.08,1.51-.08,2.28a10.06,10.06,0,0,0,.2,2.08c.13.61.39.92.76.92h10.88a2.34,2.34,0,0,0,2-1,13.74,13.74,0,0,0,1.36-2.32q.6-1.28,1.2-2.4a2,2,0,0,1,1.56-1.2l.56.16a9.34,9.34,0,0,0,1.64,1.56c.88.72,1.77,1.47,2.68,2.24S153,9.2,153.72,9.84s1.08,1,1.08,1.2-.11.27-.32.48l-.56.24h-49.6a.71.71,0,0,0-.8.8V26.72a4.12,4.12,0,0,0,1.08,2.92,8.46,8.46,0,0,0,2.8,1.92,21.65,21.65,0,0,0,3.72,1.24c1.33.32,2.63.59,3.88.8s2.36.43,3.32.64A4.82,4.82,0,0,1,120.24,35ZM116.88,58.4a5,5,0,0,1,.4-1.28c.21-.48.47-1,.76-1.52l.84-1.56a11.8,11.8,0,0,0,.64-1.4,42.08,42.08,0,0,0,2.72-11.48q.56-6,.56-11.8V26c0-.21,0-.49,0-.84a4.13,4.13,0,0,0,0-1,2.6,2.6,0,0,0-.28-.84.71.71,0,0,0-.68-.36h-15.2a.4.4,0,1,1,0-.79h33.44c.37,0,.85-.33,1.44-1s1.19-1.4,1.8-2.2,1.19-1.53,1.72-2.2,1-1,1.28-1a4.14,4.14,0,0,1,1.32.84c.72.56,1.51,1.19,2.36,1.88l2.48,2,1.6,1.28.16.4-.16.4-.16.16-.56.24h-19.6a1,1,0,0,0-.92.56,4.46,4.46,0,0,0-.4,1.36,10.44,10.44,0,0,0-.12,1.56V27.6c0,1.23,0,2.41.08,3.56a26.74,26.74,0,0,1-.08,3.56,40.68,40.68,0,0,1-1.48,7.36,29.38,29.38,0,0,1-3,6.72,27,27,0,0,1-4.52,5.64,23.09,23.09,0,0,1-6.24,4.2Zm16.88-23.84a4.65,4.65,0,0,1,1.08-.12c.61,0,1.29,0,2,0h3.44q.41,0,1.2-.84c.53-.56,1.08-1.17,1.65-1.84s1.08-1.28,1.57-1.84.83-.84,1-.84a6.21,6.21,0,0,1,1.37.88l2.66,2c1,.72,1.87,1.41,2.7,2.08l1.64,1.32a.71.71,0,0,1,.32.56.59.59,0,0,1-.36.52c-.24.13-.51.29-.8.48a5,5,0,0,0-.8.64,1.25,1.25,0,0,0-.36.92V65.6a8,8,0,0,1-1,4.12,9,9,0,0,1-2.66,2.88,12.57,12.57,0,0,1-3.71,1.76,16.9,16.9,0,0,1-4.14.68A1.75,1.75,0,0,1,140,75c-.11,0-.21-.24-.32-.56s-.29-.84-.4-1.24-.24-.81-.4-1.24a6.18,6.18,0,0,0-1.48-2.36c-.67-.67-1.32-1.37-2-2.12q-.16-.24-.36-.48a.87.87,0,0,1-.2-.56q0-.48.84-.6c.56-.08,1.2-.13,1.92-.16l2.12-.08a2.62,2.62,0,0,0,1.44-.36.94.94,0,0,0,.48-.52,5.74,5.74,0,0,1,.24-.68,24.54,24.54,0,0,0,.52-3.64c.08-1.2.12-2.41.12-3.64,0-.69-.2-1.08-.6-1.16a3.1,3.1,0,0,0-1.44.12,14.09,14.09,0,0,0-1.68.6,3.64,3.64,0,0,1-1.32.36,4.08,4.08,0,0,1-3-1,6.64,6.64,0,0,1-1.6-2.52,11.74,11.74,0,0,1-.68-3.24c-.08-1.15-.12-2.17-.12-3.08,0-.21,0-.55,0-1a10.9,10.9,0,0,1,0-1.4,4.78,4.78,0,0,1,.24-1.28.71.71,0,0,1,.68-.56,4.19,4.19,0,0,1,1.68.44,13.91,13.91,0,0,1,1.88,1c.61.4,1.2.83,1.76,1.28s1,.84,1.4,1.16a4.09,4.09,0,0,1,.72.72,2.56,2.56,0,0,0,.72.64.61.61,0,0,0,.28.12,1.38,1.38,0,0,0,.28,0q.72-.07.72-1.08V43.36c0-1,0-2-.08-3s-.11-2-.16-2.84a6.56,6.56,0,0,0-.24-1.72q-.17-.31-.24-.48c0-.11-.21-.16-.48-.16-.43,0-1,0-1.72.08s-1.48.08-2.28.08a13.61,13.61,0,0,1-2.2-.16A1.87,1.87,0,0,1,133.76,34.56Z"/><path class="cls-2" d="M184.94,40.78l1.26-.66q.78-.42,1.65-.84a15.42,15.42,0,0,1,1.65-.69,4.08,4.08,0,0,1,1.26-.27q2.7,0,2.7,2.76a3.48,3.48,0,0,1-.63,2.19,4.73,4.73,0,0,1-1.65,1.32,8.72,8.72,0,0,1-2.28.75q-1.26.24-2.52.51a24,24,0,0,0-2.37.63,4.5,4.5,0,0,0-1.83,1.08,6.13,6.13,0,0,0-1.11,1.53,12.35,12.35,0,0,0-.75,1.77q-.48,1.32-1.14,3.57t-1.53,4.92q-.87,2.67-2,5.43a38.56,38.56,0,0,1-2.34,5,15.79,15.79,0,0,1-2.73,3.63,4.5,4.5,0,0,1-3.15,1.41,2.33,2.33,0,0,1-2.34-1.29,6.4,6.4,0,0,1-.6-2.73,8.44,8.44,0,0,1,.78-3.6A19.29,19.29,0,0,1,167.21,64q1.11-1.53,2.37-3a20.08,20.08,0,0,0,2.16-3l.9-1.59q.66-1.17,1.35-2.49t1.23-2.46a5.08,5.08,0,0,0,.54-1.44q0-.42,0-1.17t-.63-.75q-2,0-4.17-.12a12,12,0,0,1-3.84-.81A6.33,6.33,0,0,1,164.36,45a7,7,0,0,1-1.08-4.17q0-.54.6-.54a4.17,4.17,0,0,1,1.32.27q.78.27,1.59.63l1.59.72a10.71,10.71,0,0,0,1.38.54,6.67,6.67,0,0,0,2.55.45q1.29,0,2.67,0a10.12,10.12,0,0,0,2-.15,1.64,1.64,0,0,0,1-.6,2.55,2.55,0,0,0,.42-1.23q.09-.78.15-2a3.74,3.74,0,0,0-.51-2.22,7.66,7.66,0,0,0-1.29-1.56q-.72-.66-1.32-1.17a1.51,1.51,0,0,1-.6-1.17.79.79,0,0,1,.51-.69,3.49,3.49,0,0,1,1.17-.36q.66-.09,1.32-.12l1,0,1.68,0a18.47,18.47,0,0,1,2.07.18,6.73,6.73,0,0,1,1.89.54,2.42,2.42,0,0,1,1.2,1.11,2.49,2.49,0,0,1,.15,1.5,14.18,14.18,0,0,1-.42,1.71q-.27.87-.57,1.74a4.92,4.92,0,0,0-.3,1.59q0,.24,0,.57T184.94,40.78Zm8.58,25,.06-.06.18-.42q0-1.2,0-2.73t.15-3.09a21.26,21.26,0,0,1,.45-3,7.63,7.63,0,0,1,1-2.49A8.26,8.26,0,0,1,197,52.3q1.29-1.14,2.7-2.31l2.55-2.13a5.69,5.69,0,0,0,1.14-1.08,1.57,1.57,0,0,0-.63-1.32,5.41,5.41,0,0,0-1.47-.78q-.84-.3-1.74-.54a4.87,4.87,0,0,1-1.44-.6L198,43.3a.9.9,0,0,1,.51-.54,3.66,3.66,0,0,1,.9-.27,8.89,8.89,0,0,1,1-.12l.78,0a36.28,36.28,0,0,1,4.5.27,10.36,10.36,0,0,1,3.78,1.17A6.82,6.82,0,0,1,212,46.39a9,9,0,0,1,1,4.53,2.65,2.65,0,0,1-.48,1.89,2.92,2.92,0,0,1-1.92.45,8.17,8.17,0,0,1-2.1-.27q-1-.27-2-.6t-2-.6a8.17,8.17,0,0,0-2.1-.27,5.62,5.62,0,0,0-3.45.93,3.86,3.86,0,0,0-1.23,3.27q0,1,.06,2.61t.27,3.21a22,22,0,0,0,.6,3,5.24,5.24,0,0,0,1.11,2.19,7.65,7.65,0,0,0,2.52,1.86,26.26,26.26,0,0,0,2.94,1.14l3,.93A8.23,8.23,0,0,1,210.8,72a6.57,6.57,0,0,1,1.86,2.28,8.29,8.29,0,0,1,.72,3.75v.69a1.41,1.41,0,0,1-.12.63,3.31,3.31,0,0,1-2.52,1.44,3.63,3.63,0,0,1-2.58-1,27.93,27.93,0,0,1-2.1-2.22,27.93,27.93,0,0,0-2.1-2.22,3.63,3.63,0,0,0-2.58-1,1.88,1.88,0,0,0-.51.06.54.54,0,0,0-.33.36,4.23,4.23,0,0,0-.15.9q0,.48-.09.9a7.36,7.36,0,0,1-3.06,5.1,9.67,9.67,0,0,1-3.63,1.56,19.19,19.19,0,0,1-3.93.42,18.8,18.8,0,0,1-3.81-.39,11,11,0,0,1-3.45-1.32,7.51,7.51,0,0,1-2.52-2.43,6.77,6.77,0,0,1-1-3.72,7.54,7.54,0,0,1,1.38-4.62,10.3,10.3,0,0,1,3.45-3,16,16,0,0,1,4.56-1.59,34.93,34.93,0,0,1,4.77-.6Zm.24,6.42q0-.42,0-.81a1.41,1.41,0,0,0-.21-.81.89.89,0,0,0-.51-.39,5.15,5.15,0,0,0-.84-.24,6.94,6.94,0,0,0-.9-.12l-.69,0q-1.2,0-2.82.09a13.59,13.59,0,0,0-3.06.51,6,6,0,0,0-2.46,1.38,3.45,3.45,0,0,0-1,2.64,2.69,2.69,0,0,0,.57,1.77,4,4,0,0,0,1.41,1.08,6.71,6.71,0,0,0,1.86.54A12.88,12.88,0,0,0,187,78a11.25,11.25,0,0,0,2.67-.3,5.94,5.94,0,0,0,2.16-1,4.57,4.57,0,0,0,1.44-1.8A6.36,6.36,0,0,0,193.76,72.22Z"/><path class="cls-3" d="M280,59.52a1.7,1.7,0,0,0,.68.32,3.69,3.69,0,0,0,.76.08,2.62,2.62,0,0,0,1.76-.4,1.58,1.58,0,0,0,.48-.84q.07-.43.12-.84c0-.27.28-.4.76-.4a4.33,4.33,0,0,1,1.76.44,8.44,8.44,0,0,1,1.8,1.12,6.68,6.68,0,0,1,1.4,1.52,3.08,3.08,0,0,1,.56,1.72A1.89,1.89,0,0,1,289,64a4,4,0,0,1-2,.6,1.63,1.63,0,0,1-1-.32,4.09,4.09,0,0,1-.72-.72,4.09,4.09,0,0,0-.72-.72,1.78,1.78,0,0,0-1.12-.32,10.29,10.29,0,0,0-1.72.2,10.13,10.13,0,0,0-2.12.64,6.24,6.24,0,0,0-1.76,1.08,1.91,1.91,0,0,0-.72,1.44,1.61,1.61,0,0,0,.12.56.45.45,0,0,0,.44.32h9.6a2.24,2.24,0,0,0,1.76-.84A11,11,0,0,0,290.32,64c.37-.67.73-1.28,1.08-1.84a1.48,1.48,0,0,1,1.24-.84.75.75,0,0,1,.76.48,2.85,2.85,0,0,1,.2,1.08,10.73,10.73,0,0,1-.08,1.24,9.51,9.51,0,0,0-.08,1,.72.72,0,0,0,.48.64,8.52,8.52,0,0,1,1,.6,3.91,3.91,0,0,1,1,1.08,3.59,3.59,0,0,1,.48,2,2.61,2.61,0,0,1-1.12,2.2A8.55,8.55,0,0,1,292.4,73a21,21,0,0,1-3.88.64c-1.41.11-2.81.17-4.2.2s-2.65,0-3.8,0-2-.08-2.6-.08H270.4c-.75,0-1.57,0-2.48-.12a9,9,0,0,1-2.56-.6,6,6,0,0,1-2-1.32,3.08,3.08,0,0,1-.84-2.28V52.8c0-.27-.17-.43-.52-.48a6.29,6.29,0,0,0-.76-.08c-.21,0-.52.25-.92.76a16.76,16.76,0,0,0-1.2,1.76l-1.16,1.92c-.37.61-.64,1-.8,1.24a56.16,56.16,0,0,1-4.4,5.48,45.63,45.63,0,0,1-5.6,5.24,30.25,30.25,0,0,1-6.44,3.92,16.7,16.7,0,0,1-6.84,1.52,3.78,3.78,0,0,1-.56-.08c-.27,0-.4-.16-.4-.32a.72.72,0,0,1,.48-.64,6.51,6.51,0,0,0,.72-.4,35.06,35.06,0,0,0,4.56-3,38.36,38.36,0,0,0,4.2-3.76,29.45,29.45,0,0,0,3.48-4.36,26,26,0,0,0,2.48-4.8.48.48,0,0,0,.08-.32c0-.75-.39-1.07-1.16-1a16.58,16.58,0,0,0-2.56.6c-.93.29-1.79.52-2.56.68s-1.16-.11-1.16-.8V33.28a.71.71,0,0,1,.8-.8,10.2,10.2,0,0,1,3,.44c1,.29,1.92.6,2.88.92s1.92.63,2.88.92a10.44,10.44,0,0,0,3,.44c.32,0,.76,0,1.32,0a1.83,1.83,0,0,0,1.24-.28,1.53,1.53,0,0,0,.44-1c.08-.51.16-1,.24-1.6a10,10,0,0,1,.32-1.48c.13-.43.36-.64.68-.64a3.15,3.15,0,0,1,.84.12,3.15,3.15,0,0,0,.84.12A5.85,5.85,0,0,0,263,29.6a12.87,12.87,0,0,0,2.64-2.16,19.33,19.33,0,0,0,2.16-2.76c.64-1,1.23-1.91,1.76-2.76.27-.43.55-.84.84-1.24a4.86,4.86,0,0,0,.68-1.32,3.34,3.34,0,0,0,.08-.76c0-.29-.16-.44-.48-.44-.69,0-1.75,0-3.16,0s-2.88,0-4.4,0-3,.08-4.28.16a10.21,10.21,0,0,0-2.8.44c-.53,0-.76.11-.68.48a3.2,3.2,0,0,0,.36,1,2.5,2.5,0,0,0,1.52.6,19,19,0,0,1,2.52.6,7.41,7.41,0,0,1,2.4,1.24,3,3,0,0,1,1.08,2.52,1.76,1.76,0,0,1-1.16,1.76,5.76,5.76,0,0,1-2.2.48,1.89,1.89,0,0,1-1.64-.72,5.58,5.58,0,0,1-.8-1.6,8.65,8.65,0,0,0-.68-1.6,1.36,1.36,0,0,0-1.28-.72c-.11,0-.2.09-.28.28a1.21,1.21,0,0,0-.12.44,12.14,12.14,0,0,0-.2,3.24q.12,1.63.12,3.24c0,.27-.32.53-1,.8a13.74,13.74,0,0,1-2.16.68c-.8.19-1.59.35-2.36.48a11.88,11.88,0,0,1-1.56.2,1.35,1.35,0,0,1-1-.36,2.16,2.16,0,0,1-.52-.84,4.26,4.26,0,0,1-.2-1c0-.37,0-.72,0-1a1.67,1.67,0,0,0-.12-.72c-.08-.16-.31-.24-.68-.24a3.2,3.2,0,0,0-1.36.48q-.89.48-1.8,1.08c-.61.4-1.23.79-1.84,1.16a13.12,13.12,0,0,1-1.48.8l-.24-.16a8.21,8.21,0,0,1,.88-2.2c.59-1.2,1.25-2.51,2-3.92s1.43-2.72,2-3.92a7.71,7.71,0,0,0,.92-2.28.5.5,0,0,0-.28-.52c-.19-.08-.36-.15-.52-.2h-5.2l-.56-.24-.16-.24.16-.4a7.78,7.78,0,0,1,1.36-.12c.75,0,1.59,0,2.52,0h4.36q.31,0,.48-.84a6.37,6.37,0,0,0,0-1.92,8.32,8.32,0,0,0-.52-2.12,3.12,3.12,0,0,0-1.12-1.52,4.15,4.15,0,0,0-1.4-.28c-.77-.08-1.63-.13-2.56-.16l-2.68-.08c-.85,0-1.44,0-1.76,0a.5.5,0,0,0-.52.32,3.07,3.07,0,0,0-.16.76,4.31,4.31,0,0,0,0,.88,6.79,6.79,0,0,1,0,.68,8.1,8.1,0,0,0,.28,2.16,8.1,8.1,0,0,1,.28,2.16V22q0,5.52-.2,11.6a104.77,104.77,0,0,1-1.08,12,62.58,62.58,0,0,1-2.84,11.56,38.55,38.55,0,0,1-5.4,10.24c-.16.21-.49.6-1,1.16s-1.05,1.13-1.64,1.72-1.15,1.11-1.68,1.56a2.45,2.45,0,0,1-1.12.68.38.38,0,0,1-.44-.36,4.85,4.85,0,0,1,0-.6,23.8,23.8,0,0,1,.8-6.12c.53-2,1.11-4,1.72-5.92s1.19-3.92,1.72-5.92a23.8,23.8,0,0,0,.8-6.12V6c0-.59.24-.88.72-.88a6.66,6.66,0,0,1,2.36.56c.93.37,1.91.77,2.92,1.2s2,.83,3.08,1.2a8.74,8.74,0,0,0,2.92.56q3.6,0,7.2.24t7.2.24c.32,0,.75,0,1.28,0a.75.75,0,0,0,.8-.84V1c0-.53.32-.8,1-.8.37,0,1.09,0,2.16,0s2.17.09,3.32.2a23.81,23.81,0,0,1,3.08.48c.91.21,1.36.48,1.36.8a.81.81,0,0,1-.12.48l-.28.4A5.36,5.36,0,0,0,264.36,5c-.08.88-.12,1.75-.12,2.6a8.32,8.32,0,0,0,.08.92c.05.4.24.6.56.6h16a2.48,2.48,0,0,0,1.6-.84,17.17,17.17,0,0,0,1.72-1.92,18.83,18.83,0,0,0,1.48-2.2,12.82,12.82,0,0,0,.88-1.76l.48-.24a7.17,7.17,0,0,1,1.6,1.12c.85.69,1.73,1.47,2.64,2.32S293,7.27,293.76,8s1.12,1.24,1.12,1.4-.19.43-.56.64a2,2,0,0,1-.8.32h-16.8a1.41,1.41,0,0,0-.4.08.31.31,0,0,0-.24.32q0,.72,1,1c.64.16,1.33.29,2.08.4s1.44.24,2.08.4,1,.43,1,.8a3.58,3.58,0,0,1-.16,1.08,3.58,3.58,0,0,0-.16,1.08c0,.75.15,1.2.44,1.36a3.31,3.31,0,0,0,1.48.24,2.77,2.77,0,0,0,1.84-.6,7.13,7.13,0,0,0,1.28-1.4A16.16,16.16,0,0,1,288,13.64a2.61,2.61,0,0,1,1.56-.84l.28.12.28.12a7.57,7.57,0,0,1,.92.72c.51.43,1,.91,1.6,1.44s1.05,1,1.48,1.44a3.62,3.62,0,0,1,.64.72q0,.64-1.56.84a28.94,28.94,0,0,1-3.56.2c-1.33,0-2.63,0-3.88-.12s-2.07-.12-2.44-.12l-.56.24-.16.32c.05.05.08.09.08.12s0,.07.08.12a10.52,10.52,0,0,0,2.72,2,22,22,0,0,0,2.88,1.2c1,.32,1.93.65,2.92,1a13.38,13.38,0,0,1,2.84,1.4c.11.11.23.21.36.32a.51.51,0,0,1,.2.4.69.69,0,0,1-.08.36,1.72,1.72,0,0,1-.24.28,14.67,14.67,0,0,0-.84,1.4c-.4.72-.83,1.47-1.28,2.24S291.41,31,291,31.64s-.64.92-.8.92c-.32,0-.84-.47-1.56-1.4s-1.45-2-2.2-3.2S285,25.6,284.4,24.48s-1.07-1.89-1.28-2.32l-.32-.24a.86.86,0,0,0-.64.24l-.24.56v8.8c0,.43.33.89,1,1.4a21.22,21.22,0,0,0,2.24,1.48c.83.48,1.57,1,2.24,1.44s1,.91,1,1.28-.23.64-.68.8-.68.43-.68.8V51.44a.77.77,0,0,1-.24.56,8.62,8.62,0,0,1-1.64,1.68c-.77.64-1.53,1.29-2.28,2a23.57,23.57,0,0,0-2,2A2.93,2.93,0,0,0,280,59.52ZM248.8,11c-.05.32.25.56.92.72a22.18,22.18,0,0,0,2.28.4l2.44.32a4.8,4.8,0,0,1,1.56.4c-.27.43-.47.76-.6,1a2.79,2.79,0,0,0-.2,1.24,2.46,2.46,0,0,0,.24,1.12,1,1,0,0,0,1,.48,1.37,1.37,0,0,0,1.16-.6,9.44,9.44,0,0,0,.8-1.32c.24-.48.47-.92.68-1.32a.93.93,0,0,1,.8-.6.26.26,0,0,1,.24.12,1.72,1.72,0,0,0,.24.28,8.22,8.22,0,0,0,4,3.28,17.89,17.89,0,0,0,5.16.64,13.9,13.9,0,0,1,1.44.08,5.11,5.11,0,0,0,1.24,0,1.38,1.38,0,0,0,.88-.52,2.51,2.51,0,0,0,.36-1.56,5.9,5.9,0,0,0-.12-1c-.08-.43-.17-.85-.28-1.28a5.7,5.7,0,0,0-.44-1.2,2.34,2.34,0,0,0-.6-.8,7.52,7.52,0,0,0-2.48-.4c-1.44-.11-3-.17-4.8-.2l-5-.08-3.2,0c-1.23,0-2.45,0-3.68.08a21.08,21.08,0,0,0-3.68.48Zm.64,39.2a5.17,5.17,0,0,0,.4.36.77.77,0,0,0,.48.2h8.4a.71.71,0,0,0,.8-.8V37.6a.71.71,0,0,0-.8-.8h-8.4a.77.77,0,0,0-.48.2,5.17,5.17,0,0,0-.4.36c0,.59,0,1.16,0,1.72s0,1.13,0,1.72a3.85,3.85,0,0,0,.24,1.36,4,4,0,0,1,0,2.72,3.85,3.85,0,0,0-.24,1.36c0,.64,0,1.29,0,2S249.44,49.52,249.44,50.16Zm1.76-6.48a.38.38,0,0,1,.28-.36,1.21,1.21,0,0,1,.44-.12H257a1.21,1.21,0,0,1,.44.12.38.38,0,0,1,.28.36,3.68,3.68,0,0,1-1.08.12c-.67,0-1.4,0-2.2,0s-1.53,0-2.2,0A3.68,3.68,0,0,1,251.2,43.68ZM271.84,25.6c-.16.11-.55.33-1.16.68l-1.92,1.12c-.67.4-1.27.79-1.8,1.16s-.83.59-.88.64a.83.83,0,0,0-.08.2.83.83,0,0,1-.08.2,2.3,2.3,0,0,0,.52.76,1.06,1.06,0,0,1,.36.76c0,.27-.25.55-.76.84s-1.08.59-1.72.88-1.21.59-1.72.88-.76.6-.76.92a.54.54,0,0,0,.16.4,3.68,3.68,0,0,0,1.08.12l2.52.08q1.51,0,3.24,0c1.15,0,2.25,0,3.32,0h4.48a1.57,1.57,0,0,0,.92-.4,6.91,6.91,0,0,0,1-1,8.31,8.31,0,0,0,.84-1.16,3.24,3.24,0,0,0,.44-1l-.08-.32-.48-.4a9.3,9.3,0,0,0-1.28.16c-.64.11-1.29.2-2,.28a10.42,10.42,0,0,1-1.8.08c-.53,0-.8-.2-.8-.52V28.32c0-.53,0-1,0-1.52a3.43,3.43,0,0,0-.12-.88,1.74,1.74,0,0,0-.68-.24A4.68,4.68,0,0,0,271.84,25.6Zm-3,11.2a.71.71,0,0,0-.8.8V49.92a.71.71,0,0,0,.8.8h8.56a.71.71,0,0,0,.8-.8V37.6a.71.71,0,0,0-.8-.8Zm1.68,6.4h5.2l.56.24.16.24a4,4,0,0,1-1.12.12c-.69,0-1.44,0-2.24,0s-1.53,0-2.2,0a3.68,3.68,0,0,1-1.08-.12l.16-.24Zm.16,9.92a43.49,43.49,0,0,0,.32,5.24,43.49,43.49,0,0,1,.32,5.24c0,.27,0,.65,0,1.16a2.23,2.23,0,0,0,.12,1.08,1.79,1.79,0,0,0,1.12.68,5.94,5.94,0,0,0,1.36.2c1,0,1.49-.25,1.6-.76a3,3,0,0,0-.24-1.76,16,16,0,0,0-1-2,3.63,3.63,0,0,1-.6-1.68c0-.43.24-.57.72-.44a4.65,4.65,0,0,0,1.12.2c.37,0,.67-.32.88-1a14.27,14.27,0,0,0,.52-2.16,19.46,19.46,0,0,0,.24-2.36c0-.77,0-1.29,0-1.56a1.61,1.61,0,0,0-.12-.56.45.45,0,0,0-.44-.32c-.32,0-.75,0-1.28,0s-1.09,0-1.68,0-1.13,0-1.64.08a3.21,3.21,0,0,0-1.08.24Z"/><path class="cls-2" d="M301.36,21.92c.43,0,1.12,0,2.08,0s2.05,0,3.28,0,2.51,0,3.84,0,2.57,0,3.72,0l3,.08a11,11,0,0,1,1.56.12l-.56.24a1.74,1.74,0,0,1-.56.16H301.36l-.24-.24ZM325,47c1.39,0,2.75,0,4.08.16a28.72,28.72,0,0,1,4.08.64,23.33,23.33,0,0,0,3,.6,24.41,24.41,0,0,0,3.12.2c.53,0,1.09-.41,1.68-1.24a17.27,17.27,0,0,0,1.72-3.2c.56-1.31,1.09-2.76,1.6-4.36s1-3.13,1.4-4.6.79-2.8,1.08-4,.49-2.07.6-2.6l.24-1c.11-.48.23-1,.36-1.48l.36-1.4a4.46,4.46,0,0,0,.16-.8,2.24,2.24,0,0,0-.24-.92.77.77,0,0,0-.72-.52H335.12a.4.4,0,0,1,0-.8h23.12c.59,0,1.2-.43,1.84-1.28A29.76,29.76,0,0,0,362,17.48c.61-1,1.19-2,1.72-2.84s1-1.28,1.28-1.28a9,9,0,0,1,1.68,1.2L370,17.24q1.85,1.49,3.36,2.8A17.76,17.76,0,0,1,375,21.6c.11.32.08.53-.08.64a3.26,3.26,0,0,1-1,.12l-2.32.08q-1.39,0-3,0c-1.07,0-2.09,0-3.08,0h-4.12c-.32,0-.63.23-.92.68a7.43,7.43,0,0,0-.76,1.6,15.84,15.84,0,0,0-.52,1.84c-.13.61-.23,1.05-.28,1.32-.21,1.17-.39,2.33-.52,3.48a16.85,16.85,0,0,1-.76,3.4,27.69,27.69,0,0,1-1.72,4c-.77,1.52-1.55,3.07-2.32,4.64s-1.45,3.09-2,4.56a10.45,10.45,0,0,0-.88,3.8q0,.41.12.48l.44.24,5.88,2.6A35.58,35.58,0,0,1,363,58.36a18.53,18.53,0,0,1,4.56,4.44A10.26,10.26,0,0,1,369.44,69a5.59,5.59,0,0,1-1.24,3.72,4.37,4.37,0,0,1-3.56,1.48,9.27,9.27,0,0,1-2-.2,4.72,4.72,0,0,1-1.76-.84,13,13,0,0,1-3-2.72c-.85-1.07-1.73-2.08-2.64-3-.27-.27-.91-.84-1.92-1.72l-3.2-2.76c-1.12-1-2.17-1.81-3.16-2.56a5.79,5.79,0,0,0-1.8-1.12h-1a5.94,5.94,0,0,0-1.32.88c-.35.32-.73.67-1.16,1a15.41,15.41,0,0,1-2.6,2c-.93.56-1.85,1.11-2.76,1.64a64.55,64.55,0,0,1-12,5.44,78.52,78.52,0,0,1-12.68,3.12c-.8.11-1.61.24-2.44.4a12.85,12.85,0,0,1-2.44.24,2.42,2.42,0,0,1-1.08-.12c-.08-.08.12-.33.6-.76a12.29,12.29,0,0,1,3.08-1.92l3.4-1.6c2.61-1.23,4.93-2.29,7-3.2s4-1.87,5.8-2.88a42.94,42.94,0,0,0,5.48-3.6,51.31,51.31,0,0,0,5.84-5.36.79.79,0,0,1,0-.28.58.58,0,0,0,0-.2,1.92,1.92,0,0,0-1-1.16,20.92,20.92,0,0,0-2.2-1.28c-.88-.45-1.83-.89-2.84-1.32L328.12,49A25,25,0,0,1,325.84,48c-.64-.35-1-.63-1-.84ZM341.92,2.88a3.71,3.71,0,0,1-1.24,1,5.84,5.84,0,0,0-1.32.88,7.42,7.42,0,0,0-.68,1.52c-.35.91-.72,1.92-1.12,3s-.77,2.19-1.12,3.2-.57,1.68-.68,2q-.48,1.37-1.64,4.6t-2.72,7.36Q329.84,30.57,328,35t-3.52,8.2a70.2,70.2,0,0,1-3.2,6.28c-1,1.68-1.8,2.6-2.44,2.76a3.36,3.36,0,0,1-1.2.12c-.43,0-.85,0-1.28,0h-1.68q-1.28,0-2.64-.12a14.62,14.62,0,0,1-2.44-.4q-1.08-.28-1.08-.84a9.72,9.72,0,0,1,.76-3q.76-2,2-4.64t2.64-5.52q1.44-2.92,2.84-5.64t2.48-5c.72-1.52,1.27-2.73,1.64-3.64.8-2,1.53-4.09,2.2-6.2s1.32-4.23,2-6.36c.11-.37.35-1.16.72-2.36s.77-2.44,1.2-3.72a35.79,35.79,0,0,1,1.32-3.4c.45-1,.84-1.48,1.16-1.48.64,0,1.57.05,2.8.16s2.51.28,3.84.52a27.09,27.09,0,0,1,3.68.92A4.13,4.13,0,0,1,341.92,2.88Z"/><path class="cls-2" d="M397.08,59.56l.18.18A7.66,7.66,0,0,1,397,61.6a17.68,17.68,0,0,1-.6,1.92q-.36,1-.75,1.92a17.82,17.82,0,0,0-.63,1.8,25.46,25.46,0,0,0-1,7.08,13.27,13.27,0,0,0,.39,2.85,18,18,0,0,1,.45,3.33,5.58,5.58,0,0,1-.54,2.79q-.6,1.17-2.64,1.17a5,5,0,0,1-3-.93,7.71,7.71,0,0,1-2.16-2.43,15.86,15.86,0,0,1-1.44-3.39,31.9,31.9,0,0,1-.9-3.81,36.31,36.31,0,0,1-.45-3.69q-.12-1.77-.12-3a33.19,33.19,0,0,1,.57-6.15q.57-3,1.26-6.06t1.26-6.06a33.19,33.19,0,0,0,.57-6.15,6.32,6.32,0,0,0-.33-2q-.33-1-.72-1.89t-.72-1.8a5,5,0,0,1-.33-1.74q0-.6.54-.6a6.79,6.79,0,0,1,3.33,1,13.23,13.23,0,0,1,3.09,2.4,12.94,12.94,0,0,1,2.25,3.18,7.5,7.5,0,0,1,.87,3.36,11.45,11.45,0,0,1-1.14,4.77q-1.14,2.49-2.49,5.19a60,60,0,0,0-2.46,5.64,17,17,0,0,0-1.11,6.06q0,.36.06,1.08a10,10,0,0,0,.21,1.38,3.6,3.6,0,0,0,.48,1.17,1,1,0,0,0,.87.51q.9,0,1.92-1.41a29.41,29.41,0,0,0,2-3.24q1-1.83,1.8-3.6a14.76,14.76,0,0,1,1.35-2.49Zm19.84-12.18q0-2,.06-3.57a7.56,7.56,0,0,0-.36-2.79,4.23,4.23,0,0,0-1.57-2,9.7,9.7,0,0,0-3.54-1.38l-.18-.24a.28.28,0,0,0,0-.12.27.27,0,0,1,0-.12c0-.48.28-.9.94-1.26a9.5,9.5,0,0,1,2.46-.87,13.72,13.72,0,0,1,3.22-.3,11.69,11.69,0,0,1,3.22.48,6.2,6.2,0,0,1,2.47,1.38,3.25,3.25,0,0,1,1,2.49,8.33,8.33,0,0,1-.6,3.12,8.33,8.33,0,0,0-.6,3.12q0,.54.6.54a4,4,0,0,0,1.38-.24q.66-.24,1.32-.51t1.32-.51a4,4,0,0,1,1.38-.24,5.69,5.69,0,0,1,1.38.18,4,4,0,0,1,1.29.57,3.65,3.65,0,0,1,1,1,2.33,2.33,0,0,1,.39,1.35,2.81,2.81,0,0,1-.63,1.92,4.11,4.11,0,0,1-1.62,1.11,11.14,11.14,0,0,1-2.25.6l-2.46.42a16.4,16.4,0,0,0-2.22.54,3.65,3.65,0,0,0-1.62,1,11.46,11.46,0,0,0-.12,1.62V56.2q0,1.26-.06,2.7t0,2.91a21.9,21.9,0,0,0,.24,2.85,10.57,10.57,0,0,0,.69,2.52,2.3,2.3,0,0,0,1.2,1q1,.45,2.31,1t2.85,1.2A12.78,12.78,0,0,1,432.39,72a9,9,0,0,1,2.07,2.28,5.69,5.69,0,0,1,.84,3.12,3.2,3.2,0,0,1-.72,2.16,2.61,2.61,0,0,1-2.1.84,3.46,3.46,0,0,1-2.25-.81,15.77,15.77,0,0,1-1.86-1.8,22.28,22.28,0,0,0-1.8-1.83,3.09,3.09,0,0,0-2.13-.84q-.18,0-.63.84t-1,1.89q-.51,1-1.05,2a4.81,4.81,0,0,1-.9,1.29,7.91,7.91,0,0,1-1.74,1,12.33,12.33,0,0,1-2.16.66q-1.14.24-2.25.36a18.86,18.86,0,0,1-2,.12,17.51,17.51,0,0,1-3.81-.42,10.78,10.78,0,0,1-3.42-1.38A7.79,7.79,0,0,1,403,79a7,7,0,0,1-1-3.81,6.81,6.81,0,0,1,1.14-4,8.7,8.7,0,0,1,2.91-2.61,13.76,13.76,0,0,1,3.9-1.44,28.13,28.13,0,0,1,4.11-.57h.72a7,7,0,0,0,.93-.06,2.23,2.23,0,0,0,.78-.24.58.58,0,0,0,.33-.54V54.34a.53.53,0,0,0-.6-.6h-8.22a3.15,3.15,0,0,1-1.74-.75,14.64,14.64,0,0,1-2-1.77,12.24,12.24,0,0,1-1.62-2.13,3.85,3.85,0,0,1-.66-1.83.48.48,0,0,1,.54-.54,2.52,2.52,0,0,1,1,.24c.37.16.75.35,1.15.57a9.76,9.76,0,0,0,1.23.57,3.6,3.6,0,0,0,1.29.24h8.43a1,1,0,0,0,.57-.24,4.4,4.4,0,0,0,.51-.42ZM404.4,74.56a2.45,2.45,0,0,0,.54,1.65,3.52,3.52,0,0,0,1.32,1,5.8,5.8,0,0,0,1.71.42q.93.09,1.71.09a20,20,0,0,0,3-.21,7,7,0,0,0,2.43-.81,4.2,4.2,0,0,0,1.65-1.74,6.6,6.6,0,0,0,.6-3.06.86.86,0,0,0-.48-.72,3.64,3.64,0,0,0-1.14-.27q-.78-.09-1.68-.12l-1.71,0h-1.29a20.17,20.17,0,0,0-2.1.12,7.78,7.78,0,0,0-2.16.54,4.73,4.73,0,0,0-1.71,1.17A2.85,2.85,0,0,0,404.4,74.56Z"/><path class="cls-2" d="M443.56,64.32a29.08,29.08,0,0,1,6.36,1,27.4,27.4,0,0,1,6.52,2.56,16.7,16.7,0,0,1,5.08,4.24,9.46,9.46,0,0,1,2,6.08,6,6,0,0,1-1.28,4.08,5.09,5.09,0,0,1-4,1.44,5.54,5.54,0,0,1-3.8-1.8A24.4,24.4,0,0,1,451,77.64q-1.61-2.44-2.92-5t-2.2-4a13.08,13.08,0,0,0-1.44-2,5.76,5.76,0,0,1-1.2-2Z"/></g></g></svg>