<svg xmlns="http://www.w3.org/2000/svg" viewBox="0 0 434.94 78.06"><defs><style>.cls-1{fill:#fff;}</style></defs><title>アセット 10</title><g id="レイヤー_2" data-name="レイヤー 2"><g id="レイヤー_4" data-name="レイヤー 4"><path class="cls-1" d="M31.24,55.84c-.43,1.44-.85,2.89-1.28,4.36s-.9,2.89-1.44,4.28c-.11.21-.19.36-.24.44s-.21.12-.48.12-.68,0-1.24,0-1.13,0-1.72,0-1.13,0-1.64-.08a2.4,2.4,0,0,1-1-.24,8,8,0,0,1-.92-2.36c-.45-1.47-1-3.11-1.48-4.92s-1-3.53-1.48-5.16-.76-2.68-.92-3.16L11,27.52c-.74-2.56-1.51-5.11-2.28-7.64S7.19,14.8,6.44,12.24c-.11-.37-.2-.75-.28-1.12S6,10.37,5.88,10a2.66,2.66,0,0,1-.28-.56,2.66,2.66,0,0,0-.28-.56,1.55,1.55,0,0,0-.88-.48C4,8.29,3.55,8.2,3,8.12L1.56,7.88a3.8,3.8,0,0,1-1-.28A.86.86,0,0,1,0,6.88Q0,6.4.6,6.4H25.16c.43,0,.6.16.52.48a1.25,1.25,0,0,1-.44.72,3.58,3.58,0,0,1-1.12.32,17.19,17.19,0,0,1-1.88.24l-1.92.16c-.61,0-1.05.11-1.32.16a3.12,3.12,0,0,0-.64.12c-.05,0-.1.25-.16.68a9.59,9.59,0,0,0,.28,2.4c.24,1.23.54,2.56.88,4l1,4.12q.48,2,.72,2.76,1.37,5.36,2.84,10.64t2.92,10.64c.32,1.12.65,2.24,1,3.36s.65,2.24.92,3.36c.16.59.3,1.16.4,1.72a6.24,6.24,0,0,0,.56,1.64.88.88,0,0,0,.32.32l.48.32A2.17,2.17,0,0,1,31,55,1.29,1.29,0,0,1,31.24,55.84ZM42.44,8.72a3.58,3.58,0,0,0-1.52-.36L38.4,8.12C37.52,8,36.72,7.93,36,7.8S34.92,7.41,34.92,7a.57.57,0,0,1,.64-.64h24c.43,0,.62.21.56.64s-.65.85-1.64,1-2,.19-3.16.24-2.1.13-3,.24-1.2.43-1,1L61.4,44.8c.16.64.31,1.4.44,2.28s.28,1.76.44,2.64a23.23,23.23,0,0,0,.6,2.52,7.24,7.24,0,0,0,.84,1.92,4.47,4.47,0,0,1,.72,1.68l.48,1.84a46.1,46.1,0,0,0-1.44,4.88c-.11.43-.2.87-.28,1.32A1.77,1.77,0,0,1,62.6,65a2.32,2.32,0,0,1-.88.08h-4.8a.78.78,0,0,1-.72-.4,19.48,19.48,0,0,1-.8-2.24q-.63-2-1.52-5c-.58-2-1.23-4.17-1.92-6.52s-1.35-4.59-2-6.72-1.17-4-1.68-5.68-.84-2.77-1-3.36c-.32-1.07-.65-2.12-1-3.16s-.65-2.09-.92-3.16c-.1-.37-.25-1.15-.44-2.32s-.4-2.39-.64-3.64a26.23,26.23,0,0,0-.84-3.32q-.48-1.44-1-1.44c-.42,0-.75.27-1,.8a5.46,5.46,0,0,0-.24,1A7.46,7.46,0,0,1,41.08,21l-1.2,5.12q-1.52,6.32-3.4,12.44T32.68,51q-.32,1-1,.48A1.84,1.84,0,0,1,31.08,50s.1-.45.28-1.2.4-1.59.64-2.52.48-1.81.72-2.64.39-1.35.44-1.56q1.44-5.36,3-10.6t3-10.6c.37-1.39.71-2.81,1-4.28a20.34,20.34,0,0,1,1.32-4.2,7.88,7.88,0,0,1,.32-.76,6.44,6.44,0,0,0,.4-1.12c.11-.4.2-.76.28-1.08a.89.89,0,0,0,0-.72ZM68.12,6.56A9.12,9.12,0,0,1,69.6,6.4c.83-.05,1.81-.08,3-.08h3.76c1.36,0,2.66,0,3.88,0s2.33,0,3.32,0h2c.59,0,.8.24.64.72s-.51.77-1.2.88-1.47.2-2.32.28a8.9,8.9,0,0,0-2.48.6,3.17,3.17,0,0,0-1.76,1.76,18.9,18.9,0,0,0-.68,2q-.29,1-.6,2c-.59,1.87-1.1,3.76-1.56,5.68s-1,3.84-1.56,5.76l-3.12,10.8c-.43,1.39-.85,2.79-1.28,4.2l-1.28,4.28c-.26.75-.49,1.49-.68,2.24s-.41,1.49-.68,2.24-.65,1.11-1.16,1.08-.7-.41-.6-1.16c.06-.21.11-.39.16-.52a4.15,4.15,0,0,0,.16-.52A15.9,15.9,0,0,0,66,46.4a17.33,17.33,0,0,1,.48-2.32c.38-1.6.76-3.21,1.16-4.84s.81-3.24,1.24-4.84q1.36-5,2.6-10t2.68-10c.21-.69.43-1.36.64-2a10.74,10.74,0,0,0,.48-2.08,9.8,9.8,0,0,0,.08-1.08c0-.29-.21-.55-.64-.76a3.1,3.1,0,0,0-1.36-.24H71.52a9.87,9.87,0,0,1-2-.2A2.63,2.63,0,0,1,68,7.2c-.21-.21-.18-.4.08-.56Z"/><path class="cls-1" d="M119.8,37.44a.48.48,0,0,0,.08-.32c0-1.23,0-2.41.08-3.56a13.72,13.72,0,0,0-.32-3.56,11.62,11.62,0,0,0-2.32-5.08,6.15,6.15,0,0,0-5-2,5.72,5.72,0,0,0-4.4,1.92,11.57,11.57,0,0,0-2.6,4,25.18,25.18,0,0,0-1.36,4.92,37,37,0,0,0-.52,5.12c-.05,1.71-.08,3.31-.08,4.8a20.73,20.73,0,0,0,1,6.4,19.24,19.24,0,0,0,2.92,5.68,14.74,14.74,0,0,0,3.56,3.36A13.44,13.44,0,0,0,115.12,61a14,14,0,0,0,4.72.32,12.36,12.36,0,0,0,4.68-1.44,20.19,20.19,0,0,0,2.08-1.36,20.19,20.19,0,0,1,2.08-1.36,2.83,2.83,0,0,1,1-.44c.21,0,.29.31.24,1a3.41,3.41,0,0,1-.68,1.64A11.2,11.2,0,0,1,128,60.8a15.64,15.64,0,0,1-5.12,3.08,25.67,25.67,0,0,1-6.4,1.52,30.71,30.71,0,0,1-6.64,0A21.94,21.94,0,0,1,104,64a19.4,19.4,0,0,1-8.2-6,22.55,22.55,0,0,1-4.2-8.72,24.24,24.24,0,0,1-.28-9.72,22.72,22.72,0,0,1,3.56-9,21.18,21.18,0,0,1,7.32-6.64,22,22,0,0,1,11-2.6A22.73,22.73,0,0,1,121,22.6a13.36,13.36,0,0,1,6.2,4.76A15.14,15.14,0,0,1,129,30.48a27.15,27.15,0,0,1,1.32,3.84,35.38,35.38,0,0,1,.8,4,14.3,14.3,0,0,1,.12,3.52,1.81,1.81,0,0,1-.2.6c-.08.13-.28.2-.6.2H106.52a1.14,1.14,0,0,1-.76-.24.7.7,0,0,1,0-1.12,1.57,1.57,0,0,1,1-.24h8.32a4.2,4.2,0,0,0,3-1A7.66,7.66,0,0,0,119.8,37.44Z"/><path class="cls-1" d="M138,63.92c.05-.11.13-.25.24-.44a.46.46,0,0,1,.4-.28h3.84a.71.71,0,0,0,.8-.8V5.28c0-.48-.28-.75-.84-.8a11.28,11.28,0,0,0-1.84,0,14.54,14.54,0,0,1-1.84,0c-.56,0-.84-.25-.84-.68a.75.75,0,0,1,.64-.8l15.28-3h.44a.55.55,0,0,1,.36.08,1.31,1.31,0,0,1,.36.84,8.53,8.53,0,0,1,.12,1.48c0,.53,0,1.05,0,1.56s0,.87,0,1.08q0,5-.28,10t-.28,10c0,.32.07.52.2.6a1.17,1.17,0,0,0,.6.12,7.56,7.56,0,0,0,2.88-.68c1.07-.45,2.2-1,3.4-1.52S164,22.48,165.32,22a10.87,10.87,0,0,1,3.84-.72,20.72,20.72,0,0,1,4,.4,10.16,10.16,0,0,1,3.72,1.52,18.65,18.65,0,0,1,6.92,8.16A27.25,27.25,0,0,1,186.2,42.2a31.4,31.4,0,0,1-1.88,11.16,23.11,23.11,0,0,1-5.72,9,8.55,8.55,0,0,1-1.32,1,20.35,20.35,0,0,1-1.76,1,13.32,13.32,0,0,1-1.84.8,5,5,0,0,1-1.56.32H168a11.93,11.93,0,0,1-4.08-.72,5.83,5.83,0,0,1-1-.44q-.72-.36-1.56-.72c-.56-.24-1.07-.48-1.52-.72a4.42,4.42,0,0,1-.84-.52,1.11,1.11,0,0,1-.48-1c.05-.35.37-.49,1-.44a5.54,5.54,0,0,1,1.32.16,5.89,5.89,0,0,0,1.4.16,9.41,9.41,0,0,0,6-1.72,11.07,11.07,0,0,0,3.36-4.36,19.09,19.09,0,0,0,1.48-5.8q.32-3.16.32-6,0-2.71-.28-5.88a21.5,21.5,0,0,0-1.32-5.84,10.64,10.64,0,0,0-3.16-4.44,8.69,8.69,0,0,0-5.72-1.76c-.32,0-.88,0-1.68.08s-1.61.15-2.44.28a7.85,7.85,0,0,0-2.16.64c-.61.29-.92.68-.92,1.16V59.2a2.37,2.37,0,0,1-.12.76,2.37,2.37,0,0,0-.12.76,10.72,10.72,0,0,1-.4,3A4,4,0,0,1,153.08,66a.48.48,0,0,1-.32.08c-1.49-.11-3-.24-4.48-.4s-3-.29-4.48-.4c-.32,0-.75,0-1.28-.08L140.88,65c-.56-.05-1.09-.12-1.6-.2a3.85,3.85,0,0,1-1.08-.28C137.88,64.45,137.83,64.24,138,63.92Z"/><path class="cls-1" d="M224.1,60.78A3.09,3.09,0,0,1,223,63.57a2.74,2.74,0,0,1-2.49.3,5,5,0,0,1-2.46-2,7.37,7.37,0,0,1-1.11-4.29,13.13,13.13,0,0,1,.57-3.81,13.13,13.13,0,0,0,.57-3.81.53.53,0,0,0-.6-.6,7.14,7.14,0,0,0-2.43.42q-1.17.42-2.34.93t-2.34.93a7.14,7.14,0,0,1-2.43.42,3.87,3.87,0,0,1-2.43-.81,6.77,6.77,0,0,1-1.74-2,9.65,9.65,0,0,1-1-2.58,11.13,11.13,0,0,1-.33-2.58q0-.54.45-.48a2.6,2.6,0,0,1,1,.39q.54.33,1.08.72a3.74,3.74,0,0,0,.72.45,3.24,3.24,0,0,0,1.14.12h2.16q1.26,0,2.67-.06t2.67-.15q1.26-.09,2.13-.21a4.51,4.51,0,0,0,1.11-.24l.06-.06.18-.42q0-.78.06-2a22.31,22.31,0,0,0,0-2.58,15.15,15.15,0,0,0-.36-2.46,2.84,2.84,0,0,0-.87-1.62,5.25,5.25,0,0,0-.81-.51,9.39,9.39,0,0,1-1-.63,8.86,8.86,0,0,1-.9-.72,1.05,1.05,0,0,1-.39-.78q0-.54.87-.93a7.51,7.51,0,0,1,2.22-.54,12.67,12.67,0,0,1,2.88,0,11.26,11.26,0,0,1,2.88.72,5.59,5.59,0,0,1,2.22,1.56,3.84,3.84,0,0,1,.87,2.58,12.17,12.17,0,0,1-.54,3.57,12.17,12.17,0,0,0-.54,3.57.53.53,0,0,0,.6.6q.36,0,1.83-.15t3.18-.36L233,43q1.38-.18,1.56-.24a.62.62,0,0,0,.42-.6q0-1.8.09-3.72a18.64,18.64,0,0,0-.18-3.69,8.09,8.09,0,0,0-1.2-3.21,6.54,6.54,0,0,0-3-2.34l-.18-.3a1.12,1.12,0,0,1,.66-.81,7.13,7.13,0,0,1,1.41-.57,9.38,9.38,0,0,1,1.59-.33,11.15,11.15,0,0,1,1.14-.09,10.74,10.74,0,0,1,2.25.3,13.33,13.33,0,0,1,2.61.87,8,8,0,0,1,2.19,1.44,2.62,2.62,0,0,1,.93,1.95,12.21,12.21,0,0,1-.24,2.4q-.24,1.2-.51,2.4t-.48,2.4a13.9,13.9,0,0,0-.21,2.4.53.53,0,0,0,.6.6,12.11,12.11,0,0,0,3.06-.39,12.11,12.11,0,0,1,3.06-.39,17.63,17.63,0,0,1,2.43.18,8.16,8.16,0,0,1,2.37.69,4.62,4.62,0,0,1,1.77,1.44,3.87,3.87,0,0,1,.69,2.37,2.92,2.92,0,0,1-.18,1.17,1,1,0,0,1-.54.54,2.26,2.26,0,0,1-.87.15h-1.11a25.94,25.94,0,0,1-5-.48,25.94,25.94,0,0,0-5-.48q-.36,0-.66,0a1.44,1.44,0,0,0-.6.21,5.37,5.37,0,0,0-.24,1.23q-.06.69-.12,1.29-.12,1.44-.24,2.91T241,55.26a38.7,38.7,0,0,1-1.86,7.56,20.2,20.2,0,0,1-3.18,5.7,22.31,22.31,0,0,1-4.83,4.41,45.25,45.25,0,0,1-6.81,3.75q-.9.42-2.28.9a7.47,7.47,0,0,1-2.4.48q-.36,0-.36-.3t.72-.87q.72-.51,1.62-1l1.77-1a6.41,6.41,0,0,0,1.17-.81,30.24,30.24,0,0,0,5-5.67,29.88,29.88,0,0,0,3.18-6.21,31.73,31.73,0,0,0,1.68-6.78,55.85,55.85,0,0,0,.48-7.5.5.5,0,0,0-.24-.45,1.24,1.24,0,0,0-.54-.18q-.3,0-.63,0h-.51q-.36,0-1.74.09t-2.85.24q-1.47.15-2.7.33t-1.35.36a1.65,1.65,0,0,0-.09.21,1.65,1.65,0,0,1-.09.21Z"/><path class="cls-1" d="M288.36,50.34a4.06,4.06,0,0,0-1.11.51q-.63.39-1.32.9l-1.32,1-1.05.78q-1.62,1.14-4,2.73t-5,3a48.39,48.39,0,0,1-5.19,2.46,13.53,13.53,0,0,1-4.53,1.08l-.24-.24.18-.36q1.74-1.14,4.62-3.27t6.18-4.89q3.3-2.76,6.69-5.85a84.25,84.25,0,0,0,6.12-6.15,44.63,44.63,0,0,0,4.47-5.82,9.41,9.41,0,0,0,1.74-4.8,3.15,3.15,0,0,0-.45-1.8,5.12,5.12,0,0,0-1-1.08,8,8,0,0,0-1-.69.76.76,0,0,1-.45-.63q0-.24.3-.24a27.92,27.92,0,0,1,3.78.3,17.51,17.51,0,0,1,4.11,1.08,9.69,9.69,0,0,1,3.3,2.13A4.67,4.67,0,0,1,304.56,34a3.73,3.73,0,0,1-.87,2.4,11,11,0,0,1-2.16,2q-1.29.93-2.79,1.8T296,41.94a11.35,11.35,0,0,0-2.16,1.92,3.43,3.43,0,0,0-.87,2.28,1.24,1.24,0,0,0,.57,1q.57.42,1.23.87a8.54,8.54,0,0,1,1.23,1,2,2,0,0,1,.57,1.47q0,4.5-.12,8.91t-.12,8.91q0,1.62.12,3.45a10.37,10.37,0,0,1-.3,3.39A3.05,3.05,0,0,1,295,77.1a4.09,4.09,0,0,1-2.19.48,4.45,4.45,0,0,1-2.22-.51,4.33,4.33,0,0,1-1.47-1.35,5.51,5.51,0,0,1-.81-1.92,10.2,10.2,0,0,1-.24-2.22,76.57,76.57,0,0,1,.45-8.28A76.57,76.57,0,0,0,289,55q0-.48,0-1.08t0-1.23a8.28,8.28,0,0,0-.09-1.23,4.18,4.18,0,0,0-.27-1Z"/><path class="cls-1" d="M336.18,29.1q0-.48.69-.84a9.08,9.08,0,0,1,1.59-.63,11.74,11.74,0,0,1,1.77-.39,10.38,10.38,0,0,1,1.24-.12,10.85,10.85,0,0,1,2.45.36,14,14,0,0,1,2.87,1.05,9.31,9.31,0,0,1,2.38,1.65,2.89,2.89,0,0,1,1,2.1,13.21,13.21,0,0,1-.69,4.26,26.88,26.88,0,0,0-1.05,4.2q-.18,1.2-.24,2.34t-.06,2.34q0,.36.51.54a5.93,5.93,0,0,0,1.2.27,10.22,10.22,0,0,0,1.32.09h.93a40.44,40.44,0,0,1,4.95.75,21.3,21.3,0,0,1,5.1,1.74,12.63,12.63,0,0,1,4,3,7,7,0,0,1,1.62,4.74,4.75,4.75,0,0,1-.93,3,3.38,3.38,0,0,1-2.85,1.2,4.66,4.66,0,0,1-2.79-1,17,17,0,0,1-2.67-2.49A36.29,36.29,0,0,1,356,54q-1.23-1.77-2.49-3.27a17.3,17.3,0,0,0-2.52-2.49,4.14,4.14,0,0,0-2.58-1q-.6,0-.6.54,0,6.6.21,13.14t.21,13.14a4.27,4.27,0,0,1-.66,2.64,3.16,3.16,0,0,1-2.58.84,4.09,4.09,0,0,1-2.85-.9,5.19,5.19,0,0,1-1.44-2.28,10.77,10.77,0,0,1-.51-2.94q-.06-1.56-.06-2.94,0-4.92.45-9.81T341,48.9q0-1.26,0-3.33t0-4.26q0-2.19-.12-4.17a15.59,15.59,0,0,0-.42-3.06,7.07,7.07,0,0,0-1.08-2.37,6.77,6.77,0,0,0-2-1.65,6.25,6.25,0,0,0-.63-.33,3,3,0,0,1-.63-.39Z"/><path class="cls-1" d="M387.06,29.82a.65.65,0,0,1,.27-.75,1.4,1.4,0,0,1,.81-.27A4.38,4.38,0,0,1,390.66,30a22.2,22.2,0,0,1,2.91,2.91A26,26,0,0,1,396,36.33,5.85,5.85,0,0,1,397,39a12,12,0,0,1-1.08,5q-1.08,2.4-2.37,4.86A53.71,53.71,0,0,0,391.2,54a16.09,16.09,0,0,0-1.08,6,5.39,5.39,0,0,0,.36,1.83,1.36,1.36,0,0,0,1.38,1,1.83,1.83,0,0,0,1.26-.69,11.55,11.55,0,0,0,1.32-1.71,23.1,23.1,0,0,0,1.26-2.22q.6-1.2,1.17-2.25t1.05-1.77a1.89,1.89,0,0,1,.9-.84q.18-.06.18.21a.93.93,0,0,1-.06.39q-1.14,3.24-2.19,6.6a23,23,0,0,0-1.05,6.9,14,14,0,0,0,.36,2.73,22.16,22.16,0,0,1,.45,3.36,6.08,6.08,0,0,1-.45,2.85,2.29,2.29,0,0,1-2.34,1.2,5.29,5.29,0,0,1-3-.87,7.58,7.58,0,0,1-2.19-2.31,13.28,13.28,0,0,1-1.44-3.24,28.54,28.54,0,0,1-.84-3.66q-.3-1.86-.42-3.6t-.12-3a34.69,34.69,0,0,1,.51-5.94q.51-2.94,1.14-5.85t1.17-5.85a32.81,32.81,0,0,0,.54-5.94,16.22,16.22,0,0,0-.18-2.52,13.34,13.34,0,0,0-.66-2.46,9.24,9.24,0,0,0-.63-1.26A4.07,4.07,0,0,1,387.06,29.82ZM405.3,58.74q1.14,1.5,1.92,2.76a15.32,15.32,0,0,0,1.68,2.25,9.37,9.37,0,0,0,2.16,1.74,11.76,11.76,0,0,0,3.36,1.23,12.51,12.51,0,0,0,2.43.36q1.23.06,2.43.06a29.33,29.33,0,0,0,4.77-.39,29.33,29.33,0,0,1,4.77-.39,18,18,0,0,1,2,.12,6.86,6.86,0,0,1,2,.51,4.25,4.25,0,0,1,1.53,1.11,2.72,2.72,0,0,1,.63,1.86,2.92,2.92,0,0,1-.72,2,6,6,0,0,1-1.77,1.35,8.62,8.62,0,0,1-2.22.78,10.68,10.68,0,0,1-2.13.24H416.94A11.08,11.08,0,0,1,410,72a12.53,12.53,0,0,1-4.29-6,12.87,12.87,0,0,1-.42-1.56,19.57,19.57,0,0,1-.36-2.25,21.54,21.54,0,0,1-.12-2.19,2.57,2.57,0,0,1,.3-1.44ZM414.24,47l1.2-1.17q.72-.69,1.41-1.47t1.29-1.56a4.51,4.51,0,0,0,.78-1.38L418.8,41a1.7,1.7,0,0,0-1.38-.66h-2.88a26.1,26.1,0,0,0-3.51.24,26.1,26.1,0,0,1-3.51.24q-.54,0-.54-.6c0-.43.31-.87.93-1.3a12.05,12.05,0,0,1,2.4-1.25,32.2,32.2,0,0,1,3.24-1.1c1.18-.33,2.33-.63,3.45-.89s2.12-.46,3-.62a12.13,12.13,0,0,1,1.92-.24q1.26,0,3.06.18a15.62,15.62,0,0,1,3.48.74,8.86,8.86,0,0,1,2.88,1.57,3.34,3.34,0,0,1,1.2,2.68,2.64,2.64,0,0,1-.36,1.52,2.1,2.1,0,0,1-1,.75,4.61,4.61,0,0,1-1.35.3l-1.47.12a29.71,29.71,0,0,0-3,.51q-1.47.33-2.91.75a41.53,41.53,0,0,0-5.7,2.1q-.6.3-1.2.66a3.73,3.73,0,0,1-1.26.48Z"/></g></g></svg>