<svg xmlns="http://www.w3.org/2000/svg" viewBox="0 0 426.4 82.68"><defs><style>.cls-1{fill:#c56370;}.cls-2{fill:#fff;}</style></defs><title>アセット 11</title><g id="レイヤー_2" data-name="レイヤー 2"><g id="レイヤー_4" data-name="レイヤー 4"><path class="cls-1" d="M58.8,59.36a1.7,1.7,0,0,0,.68.32,3.69,3.69,0,0,0,.76.08,2.62,2.62,0,0,0,1.76-.4,1.58,1.58,0,0,0,.48-.84q.08-.44.12-.84c0-.27.28-.4.76-.4a4.33,4.33,0,0,1,1.76.44,8.44,8.44,0,0,1,1.8,1.12,6.68,6.68,0,0,1,1.4,1.52,3.08,3.08,0,0,1,.56,1.72,1.89,1.89,0,0,1-1,1.72,4,4,0,0,1-2,.6,1.63,1.63,0,0,1-1-.32,4.09,4.09,0,0,1-.72-.72,4.09,4.09,0,0,0-.72-.72,1.78,1.78,0,0,0-1.12-.32,10.29,10.29,0,0,0-1.72.2,10.13,10.13,0,0,0-2.12.64,6.24,6.24,0,0,0-1.76,1.08,1.91,1.91,0,0,0-.72,1.44,1.61,1.61,0,0,0,.12.56.45.45,0,0,0,.44.32h9.6a2.24,2.24,0,0,0,1.76-.84,11,11,0,0,0,1.28-1.84c.37-.67.73-1.28,1.08-1.84a1.48,1.48,0,0,1,1.24-.84.75.75,0,0,1,.76.48,2.85,2.85,0,0,1,.2,1.08A10.73,10.73,0,0,1,72.32,64a9.51,9.51,0,0,0-.08,1,.72.72,0,0,0,.48.64,8.52,8.52,0,0,1,1,.6,3.91,3.91,0,0,1,1,1.08,3.59,3.59,0,0,1,.48,2,2.61,2.61,0,0,1-1.12,2.2A8.55,8.55,0,0,1,71.2,72.8a21,21,0,0,1-3.88.64c-1.41.11-2.81.17-4.2.2s-2.65,0-3.8,0-2-.08-2.6-.08H49.2c-.75,0-1.57,0-2.48-.12a9,9,0,0,1-2.56-.6,6,6,0,0,1-2-1.32,3.08,3.08,0,0,1-.84-2.28V52.64c0-.27-.17-.43-.52-.48a6.29,6.29,0,0,0-.76-.08c-.21,0-.52.25-.92.76a16.76,16.76,0,0,0-1.2,1.76l-1.16,1.92c-.37.61-.64,1-.8,1.24a56.16,56.16,0,0,1-4.4,5.48,45.63,45.63,0,0,1-5.6,5.24,30.25,30.25,0,0,1-6.44,3.92,16.7,16.7,0,0,1-6.84,1.52,3.78,3.78,0,0,1-.56-.08c-.27,0-.4-.16-.4-.32a.72.72,0,0,1,.48-.64,6.51,6.51,0,0,0,.72-.4,35.06,35.06,0,0,0,4.56-3,38.36,38.36,0,0,0,4.2-3.76,29.45,29.45,0,0,0,3.48-4.36,26,26,0,0,0,2.48-4.8.48.48,0,0,0,.08-.32c0-.75-.39-1.07-1.16-1a16.58,16.58,0,0,0-2.56.6c-.93.29-1.79.52-2.56.68s-1.16-.11-1.16-.8V33.12a.71.71,0,0,1,.8-.8,10.2,10.2,0,0,1,3,.44c1,.29,1.92.6,2.88.92s1.92.63,2.88.92a10.44,10.44,0,0,0,3,.44c.32,0,.76,0,1.32,0a1.83,1.83,0,0,0,1.24-.28,1.53,1.53,0,0,0,.44-1c.08-.51.16-1,.24-1.6a10,10,0,0,1,.32-1.48c.13-.43.36-.64.68-.64a3.15,3.15,0,0,1,.84.12,3.15,3.15,0,0,0,.84.12,5.85,5.85,0,0,0,3.12-.88,12.87,12.87,0,0,0,2.64-2.16,19.33,19.33,0,0,0,2.16-2.76c.64-1,1.23-1.91,1.76-2.76.27-.43.55-.84.84-1.24a4.86,4.86,0,0,0,.68-1.32,3.34,3.34,0,0,0,.08-.76c0-.29-.16-.44-.48-.44-.69,0-1.75,0-3.16,0s-2.88,0-4.4,0-3,.08-4.28.16a10.21,10.21,0,0,0-2.8.44c-.53,0-.76.11-.68.48a3.2,3.2,0,0,0,.36,1,2.5,2.5,0,0,0,1.52.6,19,19,0,0,1,2.52.6A7.41,7.41,0,0,1,41,22.44,3,3,0,0,1,42.08,25a1.76,1.76,0,0,1-1.16,1.76,5.76,5.76,0,0,1-2.2.48,1.89,1.89,0,0,1-1.64-.72,5.58,5.58,0,0,1-.8-1.6,8.65,8.65,0,0,0-.68-1.6,1.36,1.36,0,0,0-1.28-.72c-.11,0-.2.09-.28.28a1.21,1.21,0,0,0-.12.44,12.14,12.14,0,0,0-.2,3.24q.12,1.64.12,3.24c0,.27-.32.53-1,.8a13.74,13.74,0,0,1-2.16.68c-.8.19-1.59.35-2.36.48a11.88,11.88,0,0,1-1.56.2,1.35,1.35,0,0,1-1-.36,2.16,2.16,0,0,1-.52-.84,4.26,4.26,0,0,1-.2-1c0-.37,0-.72,0-1a1.67,1.67,0,0,0-.12-.72c-.08-.16-.31-.24-.68-.24a3.2,3.2,0,0,0-1.36.48q-.89.48-1.8,1.08c-.61.4-1.23.79-1.84,1.16a13.12,13.12,0,0,1-1.48.8L17.52,31a8.21,8.21,0,0,1,.88-2.2c.59-1.2,1.25-2.51,2-3.92s1.43-2.72,2-3.92a7.71,7.71,0,0,0,.92-2.28.5.5,0,0,0-.28-.52c-.19-.08-.36-.15-.52-.2h-5.2l-.56-.24-.16-.24.16-.4A7.78,7.78,0,0,1,18.16,17c.75,0,1.59,0,2.52,0H25q.32,0,.48-.84a6.37,6.37,0,0,0,0-1.92A8.32,8.32,0,0,0,25,12.08a3.12,3.12,0,0,0-1.12-1.52,4.15,4.15,0,0,0-1.4-.28c-.77-.08-1.63-.13-2.56-.16L17.28,10c-.85,0-1.44,0-1.76,0a.5.5,0,0,0-.52.32,3.07,3.07,0,0,0-.16.76,4.31,4.31,0,0,0,0,.88,6.79,6.79,0,0,1,0,.68,8.1,8.1,0,0,0,.28,2.16A8.1,8.1,0,0,1,15.44,17v4.88q0,5.52-.2,11.6a104.77,104.77,0,0,1-1.08,12A62.58,62.58,0,0,1,11.32,57a38.55,38.55,0,0,1-5.4,10.24c-.16.21-.49.6-1,1.16s-1,1.13-1.64,1.72S2.13,71.27,1.6,71.72a2.45,2.45,0,0,1-1.12.68A.38.38,0,0,1,0,72a4.85,4.85,0,0,1,0-.6,23.8,23.8,0,0,1,.8-6.12c.53-2,1.11-4,1.72-5.92s1.19-3.92,1.72-5.92A23.8,23.8,0,0,0,5,47.36V5.84c0-.59.24-.88.72-.88a6.66,6.66,0,0,1,2.36.56c.93.37,1.91.77,2.92,1.2s2,.83,3.08,1.2A8.74,8.74,0,0,0,17,8.48q3.6,0,7.2.24t7.2.24c.32,0,.75,0,1.28,0a.75.75,0,0,0,.8-.84V.8c0-.53.32-.8,1-.8.37,0,1.09,0,2.16,0s2.17.09,3.32.2A23.81,23.81,0,0,1,43,.72c.91.21,1.36.48,1.36.8a.81.81,0,0,1-.12.48L44,2.4a5.36,5.36,0,0,0-.84,2.44c-.08.88-.12,1.75-.12,2.6a8.32,8.32,0,0,0,.08.92c.05.4.24.6.56.6h16a2.48,2.48,0,0,0,1.6-.84A17.17,17.17,0,0,0,63,6.2,18.83,18.83,0,0,0,64.48,4a12.82,12.82,0,0,0,.88-1.76L65.84,2a7.17,7.17,0,0,1,1.6,1.12c.85.69,1.73,1.47,2.64,2.32s1.73,1.67,2.48,2.44,1.12,1.24,1.12,1.4-.19.43-.56.64a2,2,0,0,1-.8.32H55.52a1.41,1.41,0,0,0-.4.08.31.31,0,0,0-.24.32q0,.72,1,1c.64.16,1.33.29,2.08.4s1.44.24,2.08.4,1,.43,1,.8a3.58,3.58,0,0,1-.16,1.08,3.58,3.58,0,0,0-.16,1.08c0,.75.15,1.2.44,1.36a3.31,3.31,0,0,0,1.48.24,2.77,2.77,0,0,0,1.84-.6A7.13,7.13,0,0,0,65.68,15a16.16,16.16,0,0,1,1.16-1.48,2.61,2.61,0,0,1,1.56-.84l.28.12.28.12a7.57,7.57,0,0,1,.92.72c.51.43,1,.91,1.6,1.44s1,1,1.48,1.44a3.62,3.62,0,0,1,.64.72q0,.64-1.56.84a28.94,28.94,0,0,1-3.56.2c-1.33,0-2.63,0-3.88-.12S62.53,18,62.16,18l-.56.24-.16.32c.05.05.08.09.08.12s0,.07.08.12a10.52,10.52,0,0,0,2.72,2A22,22,0,0,0,67.2,22c1,.32,1.93.65,2.92,1A13.38,13.38,0,0,1,73,24.4c.11.11.23.21.36.32a.51.51,0,0,1,.2.4.69.69,0,0,1-.08.36,1.72,1.72,0,0,1-.24.28,14.67,14.67,0,0,0-.84,1.4c-.4.72-.83,1.47-1.28,2.24s-.87,1.47-1.24,2.08-.64.92-.8.92c-.32,0-.84-.47-1.56-1.4s-1.45-2-2.2-3.2-1.44-2.36-2.08-3.48S62.13,22.43,61.92,22l-.32-.24A.86.86,0,0,0,61,22l-.24.56v8.8c0,.43.33.89,1,1.4A21.22,21.22,0,0,0,64,34.24c.83.48,1.57,1,2.24,1.44s1,.91,1,1.28-.23.64-.68.8-.68.43-.68.8V51.28a.77.77,0,0,1-.24.56A8.62,8.62,0,0,1,64,53.52c-.77.64-1.53,1.29-2.28,2a23.57,23.57,0,0,0-2,2A2.93,2.93,0,0,0,58.8,59.36ZM27.6,10.8c-.05.32.25.56.92.72a22.18,22.18,0,0,0,2.28.4l2.44.32a4.8,4.8,0,0,1,1.56.4c-.27.43-.47.76-.6,1a2.79,2.79,0,0,0-.2,1.24A2.46,2.46,0,0,0,34.24,16a1,1,0,0,0,1,.48,1.37,1.37,0,0,0,1.16-.6,9.44,9.44,0,0,0,.8-1.32c.24-.48.47-.92.68-1.32a.93.93,0,0,1,.8-.6.26.26,0,0,1,.24.12,1.72,1.72,0,0,0,.24.28,8.22,8.22,0,0,0,4,3.28,17.89,17.89,0,0,0,5.16.64,13.9,13.9,0,0,1,1.44.08A5.11,5.11,0,0,0,51,17a1.38,1.38,0,0,0,.88-.52A2.51,2.51,0,0,0,52.24,15a5.9,5.9,0,0,0-.12-1c-.08-.43-.17-.85-.28-1.28a5.7,5.7,0,0,0-.44-1.2,2.34,2.34,0,0,0-.6-.8,7.52,7.52,0,0,0-2.48-.4c-1.44-.11-3-.17-4.8-.2l-5-.08c-1.6,0-2.67,0-3.2,0-1.23,0-2.45,0-3.68.08a21.08,21.08,0,0,0-3.68.48ZM28.24,50a5.17,5.17,0,0,0,.4.36.77.77,0,0,0,.48.2h8.4a.71.71,0,0,0,.8-.8V37.44a.71.71,0,0,0-.8-.8h-8.4a.77.77,0,0,0-.48.2,5.17,5.17,0,0,0-.4.36c0,.59,0,1.16,0,1.72s0,1.13,0,1.72A3.85,3.85,0,0,0,28.4,42a4,4,0,0,1,0,2.72,3.85,3.85,0,0,0-.24,1.36c0,.64,0,1.29,0,2S28.24,49.36,28.24,50ZM30,43.52a.38.38,0,0,1,.28-.36,1.21,1.21,0,0,1,.44-.12h5.12a1.21,1.21,0,0,1,.44.12.38.38,0,0,1,.28.36,3.68,3.68,0,0,1-1.08.12c-.67,0-1.4,0-2.2,0s-1.53,0-2.2,0A3.68,3.68,0,0,1,30,43.52ZM50.64,25.44c-.16.11-.55.33-1.16.68l-1.92,1.12c-.67.4-1.27.79-1.8,1.16s-.83.59-.88.64a.83.83,0,0,0-.08.2.83.83,0,0,1-.08.2,2.3,2.3,0,0,0,.52.76,1.06,1.06,0,0,1,.36.76c0,.27-.25.55-.76.84s-1.08.59-1.72.88-1.21.59-1.72.88-.76.6-.76.92a.54.54,0,0,0,.16.4,3.68,3.68,0,0,0,1.08.12l2.52.08q1.51,0,3.24,0c1.15,0,2.25,0,3.32,0h4.48a1.57,1.57,0,0,0,.92-.4,6.91,6.91,0,0,0,1-1,8.31,8.31,0,0,0,.84-1.16,3.24,3.24,0,0,0,.44-1l-.08-.32-.48-.4A9.3,9.3,0,0,0,56.8,31c-.64.11-1.29.2-2,.28a10.42,10.42,0,0,1-1.8.08c-.53,0-.8-.2-.8-.52V28.16c0-.53,0-1,0-1.52a3.43,3.43,0,0,0-.12-.88,1.74,1.74,0,0,0-.68-.24A4.68,4.68,0,0,0,50.64,25.44Zm-3,11.2a.71.71,0,0,0-.8.8V49.76a.71.71,0,0,0,.8.8h8.56a.71.71,0,0,0,.8-.8V37.44a.71.71,0,0,0-.8-.8ZM49.36,43h5.2l.56.24.16.24a4,4,0,0,1-1.12.12c-.69,0-1.44,0-2.24,0s-1.53,0-2.2,0a3.68,3.68,0,0,1-1.08-.12l.16-.24ZM49.52,53a43.49,43.49,0,0,0,.32,5.24,43.49,43.49,0,0,1,.32,5.24c0,.27,0,.65,0,1.16a2.23,2.23,0,0,0,.12,1.08,1.79,1.79,0,0,0,1.12.68,5.94,5.94,0,0,0,1.36.2c1,0,1.49-.25,1.6-.76A3,3,0,0,0,54.08,64a16,16,0,0,0-1-2,3.63,3.63,0,0,1-.6-1.68c0-.43.24-.57.72-.44a4.65,4.65,0,0,0,1.12.2c.37,0,.67-.32.88-1A14.27,14.27,0,0,0,55.72,57,19.46,19.46,0,0,0,56,54.6c0-.77,0-1.29,0-1.56a1.61,1.61,0,0,0-.12-.56.45.45,0,0,0-.44-.32c-.32,0-.75,0-1.28,0s-1.09,0-1.68,0-1.13,0-1.64.08a3.21,3.21,0,0,0-1.08.24Z"/><path class="cls-2" d="M89.68,31.92a4.34,4.34,0,0,1-2.88-1,10.5,10.5,0,0,1-2.12-2.44,20.44,20.44,0,0,1-1.6-3c-.45-1.07-.87-2-1.24-2.8a4.57,4.57,0,0,1-.4-.6c-.21-.35-.41-.72-.6-1.12a4.17,4.17,0,0,1-.36-1c0-.29,0-.44.32-.44a27.79,27.79,0,0,1,4.12.36,18.18,18.18,0,0,1,4.48,1.28A10.73,10.73,0,0,1,93,23.52a5.35,5.35,0,0,1,1.44,3.84Q94.4,31.92,89.68,31.92ZM83.44,52.24a1.32,1.32,0,0,1,.72-.4,11,11,0,0,0,3.64-2A13.56,13.56,0,0,0,90.36,47a19.19,19.19,0,0,0,1.84-3.48c.51-1.25,1-2.55,1.48-3.88a69,69,0,0,1,3.12-7.52c1.17-2.4,2.35-4.85,3.52-7.36.16-.32.39-.81.68-1.48s.63-1.36,1-2.08.72-1.37,1-2a3.77,3.77,0,0,1,.8-1.12,5,5,0,0,1,.2,2.16c-.08.85-.17,1.57-.28,2.16a38.91,38.91,0,0,1-1.94,7.84c-.93,2.56-1.86,5.09-2.81,7.6s-1.79,5-2.5,7.64a30,30,0,0,0-1.07,8A12.12,12.12,0,0,0,96,57.08c.35,1.15.72,2.28,1.12,3.4s.77,2.24,1.12,3.36a11.71,11.71,0,0,1,.52,3.52A7.77,7.77,0,0,1,97,72.68a6.65,6.65,0,0,1-5.27,2,7.07,7.07,0,0,1-3.36-.8,3.06,3.06,0,0,1-1.49-3c0-1,.08-2.35.24-4s.27-3.35.32-5.08a21.58,21.58,0,0,0-.36-4.8,5.75,5.75,0,0,0-1.72-3.32,7.66,7.66,0,0,0-1-.72A4.73,4.73,0,0,1,83.44,52.24ZM97,14.8a4.66,4.66,0,0,1-3.12-1.08,11.33,11.33,0,0,1-2.24-2.6,29.78,29.78,0,0,1-1.76-3.2c-.53-1.12-1-2.11-1.52-3a6.66,6.66,0,0,1-.44-.6,9.88,9.88,0,0,1-.64-1.08,5.32,5.32,0,0,1-.4-1c-.08-.29,0-.44.28-.44a35.9,35.9,0,0,1,4.36.32A19.9,19.9,0,0,1,96.4,3.4a11.68,11.68,0,0,1,3.92,2.48,5.28,5.28,0,0,1,1.6,4,4.88,4.88,0,0,1-1.36,3.56A4.71,4.71,0,0,1,97,14.8Zm35.2-10.32v31.2a.81.81,0,0,0,.44.68,1.53,1.53,0,0,0,.84.28c1.07-.11,2.09-.19,3.08-.24s2-.13,3.08-.24a2.69,2.69,0,0,0,1.68-1.2A19,19,0,0,0,143,32.48c.51-.91,1-1.73,1.44-2.48s.84-1.12,1.16-1.12a5.5,5.5,0,0,1,1.76,1.2c1,.8,2,1.69,3.08,2.68s2.08,1.93,3,2.84,1.32,1.44,1.32,1.6a.19.19,0,0,1-.16.2,1.17,1.17,0,0,1-.32,0H133.6l-.56.24A35.6,35.6,0,0,0,128,44.12c-1.47,2.37-3,4.68-4.52,6.92a32.76,32.76,0,0,1-4.08,4.68c-1.49,1.41-3,2.81-4.48,4.2l-.24.56c0,.43.16.64.48.64a99.94,99.94,0,0,0,10.28-.52,99.94,99.94,0,0,1,10.28-.52c.53,0,1.28,0,2.24.08a3.69,3.69,0,0,0,2.08-.32l.24-.56a8.74,8.74,0,0,0-1.2-2.76c-.64-1-1.31-2.09-2-3.16s-1.32-2.11-1.88-3.12a5.75,5.75,0,0,1-.84-2.72l.32-.32a14.66,14.66,0,0,1,6.56,1.92,28,28,0,0,1,6.32,4.64,26.42,26.42,0,0,1,4.76,6.2,12.94,12.94,0,0,1,1.64,9.2,6.38,6.38,0,0,1-.84,2.2,4.64,4.64,0,0,1-1.64,1.56,5.05,5.05,0,0,1-2.56.6A4.58,4.58,0,0,1,145,71.8a14.68,14.68,0,0,1-2.12-3.88,19.79,19.79,0,0,1-1-4,8.4,8.4,0,0,1-.2-1c-.08-.48-.23-.72-.44-.72h-1.76l-29,9.52a4.74,4.74,0,0,0-1.52.88,3.82,3.82,0,0,1-1.52.8L107,73.2c-.32-.53-.77-1.33-1.36-2.4s-1.16-2.17-1.72-3.32-1-2.24-1.48-3.28a6.9,6.9,0,0,1-.64-2.44c0-.59.47-.91,1.4-1a22.23,22.23,0,0,1,3.2.08q1.8.16,3.48.24a3.39,3.39,0,0,0,2.32-.48,3,3,0,0,0,.56-.56,4.48,4.48,0,0,0,.4-.64,9.43,9.43,0,0,0,.6-1.72c.29-1,.64-2.19,1-3.6s.8-2.93,1.2-4.56.77-3.16,1.12-4.6.64-2.68.88-3.72a13.62,13.62,0,0,0,.36-1.88v-1.2c0-.48-.27-.72-.8-.72H103.28a.4.4,0,1,1,0-.8h17a.71.71,0,0,0,.8-.8V1.68a.71.71,0,0,1,.8-.8q2.72,0,5.52.12a27.86,27.86,0,0,1,5.44.76l.56.2a.45.45,0,0,1,.32.44,1.47,1.47,0,0,1-.48.84,4.84,4.84,0,0,1-.72.68ZM105,15.6a3.15,3.15,0,0,1-.4,1.12l-.16-.08.4-1.12Zm1.36,3.76-.16-.24c.05-.16.28-.28.68-.36s.84-.15,1.32-.2l1.4-.12c.45,0,.76,0,.92,0h6a14.79,14.79,0,0,1,1.52.12c.69.08,1.12.25,1.28.52q-.08.16-.72.36a4.23,4.23,0,0,1-.8.2H107Zm27.84-.4c0-.11.27-.2.64-.28a12,12,0,0,1,1.28-.2l1.44-.16a2.12,2.12,0,0,0,1-.32A4.49,4.49,0,0,0,140,16.44c.45-.77.91-1.56,1.36-2.36a16.58,16.58,0,0,1,1.4-2.12,2,2,0,0,1,1.44-.92,4.27,4.27,0,0,1,1.92,1,33.94,33.94,0,0,1,2.8,2.32,34.49,34.49,0,0,1,2.56,2.6,3.73,3.73,0,0,1,1.12,1.84c0,.21-.25.4-.76.56a4.42,4.42,0,0,1-1,.24H135.6A1.9,1.9,0,0,1,134.24,19Z"/><path class="cls-2" d="M201.2,44.52l.24-.24a17.78,17.78,0,0,1,3.54.51,12.27,12.27,0,0,1,3.42,1.38A8.72,8.72,0,0,1,211,48.54,5.65,5.65,0,0,1,212.06,52a1.61,1.61,0,0,1-.45,1.32,4.73,4.73,0,0,1-1.22.66q-.6.24-2.07.66l-3.35,1L201,56.67c-1.37.38-2.64.75-3.79,1.11s-2.13.68-2.9,1-1.21.5-1.29.66a1.65,1.65,0,0,0-.09.21,1.65,1.65,0,0,1-.09.21v9.36a2,2,0,0,1-1,1.8,4.49,4.49,0,0,1-2.24.63,5.36,5.36,0,0,1-2.24-.39,1.36,1.36,0,0,1-1-1.26v-6.9q0-.54-.6-.54a5.43,5.43,0,0,0-2.85,1,13.66,13.66,0,0,0-2.82,2.37,15,15,0,0,0-2.16,3,6.24,6.24,0,0,0-.87,2.88,2.76,2.76,0,0,0,.78,2A4.92,4.92,0,0,0,179.78,75a10.45,10.45,0,0,0,2.4.51q1.26.12,2.22.12a28,28,0,0,0,3.9-.27q1.92-.27,3.84-.6t3.84-.6a28,28,0,0,1,3.9-.27q.9,0,1.92.09a6,6,0,0,1,1.86.45,3.68,3.68,0,0,1,1.41,1,2.88,2.88,0,0,1,.57,1.89A3,3,0,0,1,204,80.07a13.16,13.16,0,0,1-3.9,1.38,26.63,26.63,0,0,1-4.53.51q-2.28.06-3.48.06-2,0-4.05,0T184,82a8.24,8.24,0,0,1-1.86-.33q-.9-.27-1.74-.57a11.78,11.78,0,0,1-4.56-3A7.18,7.18,0,0,1,174,73a7.49,7.49,0,0,1,.93-3.63,16.09,16.09,0,0,1,2.31-3.21,24.54,24.54,0,0,1,3-2.76l3-2.34q1.38-1.08,2.31-1.92a2.26,2.26,0,0,0,.93-1.5q0-.9-.06-1.89a6,6,0,0,0-.39-1.83,3.54,3.54,0,0,0-1-1.41,2.76,2.76,0,0,0-1.86-.57A5.82,5.82,0,0,0,179.72,53,12.91,12.91,0,0,0,177,55.56,30.51,30.51,0,0,0,174.68,59q-1.08,1.83-2.16,3.39A14.13,14.13,0,0,1,170.24,65a3.92,3.92,0,0,1-2.64,1,2.3,2.3,0,0,1-1.59-.51,3,3,0,0,1-.84-1.29,6.42,6.42,0,0,1-.33-1.68q-.06-.9-.06-1.62,0-.36.84-1.35t2.13-2.37l2.79-3q1.5-1.62,2.79-3.15a29,29,0,0,0,2.13-2.82,4.2,4.2,0,0,0,.84-2.07q0-.6-.54-.6H170a3.35,3.35,0,0,1-2-.69,7.44,7.44,0,0,1-1.68-1.68A8.75,8.75,0,0,1,165.2,41a6,6,0,0,1-.42-2,1.13,1.13,0,0,1,.09-.45.38.38,0,0,1,.39-.21,2.25,2.25,0,0,1,.57.18l1,.42,1.05.48q.51.24.69.3a10.39,10.39,0,0,0,2.43.54q1.23.12,2.49.12a22.34,22.34,0,0,0,2.64-.15,5.91,5.91,0,0,0,2.22-.69A4,4,0,0,0,179.87,38a5.35,5.35,0,0,0,.57-2.67,2.89,2.89,0,0,0-.54-1.83,6.48,6.48,0,0,0-1.17-1.17q-.63-.48-1.14-.81t-.51-.69q0-.36.84-.69a9.5,9.5,0,0,1,2.1-.51,16.9,16.9,0,0,1,2.73-.15,11.7,11.7,0,0,1,2.73.36,5.42,5.42,0,0,1,2.1,1,2.19,2.19,0,0,1,.84,1.77,3.06,3.06,0,0,1-.33.87L187.4,35q-.36.78-.69,1.44a5.12,5.12,0,0,0-.33.72q.06.42.3.42h.54a4.42,4.42,0,0,0,1.83-.39q.87-.39,1.71-.84t1.71-.84a4.57,4.57,0,0,1,1.89-.39,4.15,4.15,0,0,1,2.22.63,2.19,2.19,0,0,1,1,2,2.83,2.83,0,0,1-1.41,2.52,13.33,13.33,0,0,1-3.51,1.5q-2.1.6-4.56,1.17a25.39,25.39,0,0,0-4.56,1.5A10.06,10.06,0,0,0,180.05,47a6.14,6.14,0,0,0-1.41,4.23q0,.54.6.54a4,4,0,0,0,1.35-.27q.75-.27,1.53-.63a15.45,15.45,0,0,1,1.59-.63,5.19,5.19,0,0,1,1.65-.27,4.28,4.28,0,0,1,2.55.84,14.36,14.36,0,0,1,2.1,1.83q.93,1,1.59,1.8t1,.81a4.31,4.31,0,0,0,1.41-.42,20.6,20.6,0,0,0,2.19-1.11q1.2-.69,2.52-1.53t2.4-1.65a16.67,16.67,0,0,0,1.77-1.5q.69-.69.69-1.05a2.32,2.32,0,0,0-.75-1.74,16,16,0,0,0-1.47-1.26Z"/><path class="cls-2" d="M222.74,44.94q.24,0,.54.36a8.77,8.77,0,0,0,.75.78,4.79,4.79,0,0,0,1.2.78,4.53,4.53,0,0,0,2,.36,35.93,35.93,0,0,0,4.8-.3,10.11,10.11,0,0,0,3.84-1.26,6.65,6.65,0,0,0,2.55-2.79A10.86,10.86,0,0,0,239.3,38a10.25,10.25,0,0,0-.21-2,2.92,2.92,0,0,0-1-1.71,2.59,2.59,0,0,0-.72-.42q-.54-.24-1.08-.51l-1-.48q-.45-.21-.45-.33,0-.6,1-1a8.46,8.46,0,0,1,2.52-.42,23.07,23.07,0,0,1,3.27.12,14.17,14.17,0,0,1,3.27.72,7.61,7.61,0,0,1,2.52,1.41,2.73,2.73,0,0,1,1,2.13,5.1,5.1,0,0,1-.54,2.25,24.18,24.18,0,0,1-1.17,2.13q-.63,1-1.14,2a4.42,4.42,0,0,0-.51,2,.54.54,0,0,0,.54.6,11.1,11.1,0,0,0,2.19.36q1.05.06,2,.18a7.59,7.59,0,0,1,1.95.51,6.35,6.35,0,0,1,1.92,1.29,6.72,6.72,0,0,1,1.44,1.92,11.1,11.1,0,0,1,.84,2.28,14.33,14.33,0,0,1,.39,2.46q.09,1.26.09,2.4a47.17,47.17,0,0,1-.27,4.83,45.36,45.36,0,0,1-.87,5.28,31.33,31.33,0,0,1-1.65,5.19,18.49,18.49,0,0,1-2.61,4.47,12.11,12.11,0,0,1-3.72,3.12,10.29,10.29,0,0,1-5,1.17,3.29,3.29,0,0,1-2.22-.9,10.24,10.24,0,0,1-1.83-2.16,19.37,19.37,0,0,1-1.41-2.61q-.6-1.35-1-2.31a.84.84,0,0,1-.06-.36.38.38,0,0,1,.21-.39,1.13,1.13,0,0,1,.45-.09,5.83,5.83,0,0,1,2.64.63,5.83,5.83,0,0,0,2.64.63,5.28,5.28,0,0,0,3.21-1,8.76,8.76,0,0,0,2.31-2.58,15.66,15.66,0,0,0,1.56-3.57,34.56,34.56,0,0,0,1-4,35.63,35.63,0,0,0,.48-3.93q.12-1.89.12-3.21t-.09-2.37a5.7,5.7,0,0,0-.48-2,3,3,0,0,0-1.26-1.35,4.83,4.83,0,0,0-2.43-.51,7.1,7.1,0,0,0-2,.27,4.46,4.46,0,0,0-1.74,1,8.45,8.45,0,0,0-1.89,2.49,22.31,22.31,0,0,0-1.29,3.09q-.54,1.62-1,3.27t-1,3q-1.08,2.7-2.34,5.25t-2.46,5.19q-.66,1.38-1.2,2.76A16.27,16.27,0,0,1,229.88,77q-.42.66-.87,1.29a5.53,5.53,0,0,1-1,1.11,3.77,3.77,0,0,1-2.58,1A2.41,2.41,0,0,1,223,79.2a6.36,6.36,0,0,1-.57-2.76,8.44,8.44,0,0,1,.81-3.6,21.87,21.87,0,0,1,1.95-3.36q1.14-1.62,2.37-3.18a21.59,21.59,0,0,0,2.07-3.12q.3-.54,1.14-2.13t1.71-3.33Q233.3,56,234,54.48a7.26,7.26,0,0,0,.66-1.86.24.24,0,0,0-.18-.24,1,1,0,0,0-.3-.06,4.61,4.61,0,0,0-1.71.34c-.58.23-1.16.46-1.74.71s-1.18.48-1.8.71a5.39,5.39,0,0,1-1.89.34,3.5,3.5,0,0,1-2.37-.85A6.7,6.7,0,0,1,223,51.49a9.83,9.83,0,0,1-1-5.17,3.16,3.16,0,0,1,.18-.81Q222.38,44.94,222.74,44.94Zm48.12,21.48a5.86,5.86,0,0,1-1.62-.54l-2.73-1.2Q265,64,263.69,63.36t-1.77-.9q-.66-.36-.51-.6a1.74,1.74,0,0,1,.72-.51q.57-.27,1.47-.6a8.1,8.1,0,0,0,1.71-.87,5.42,5.42,0,0,0,1.38-1.32,3.17,3.17,0,0,0,.57-1.92,14.44,14.44,0,0,0-.33-3.45,7.36,7.36,0,0,0-1-2.28A10.51,10.51,0,0,0,264.26,49q-1-.93-2.34-2.25l-1.14-1.14a5.54,5.54,0,0,1-1-1.26q-.18-.3.12-.36a2.58,2.58,0,0,1,.48-.06,12.63,12.63,0,0,1,5.94,1.38,14.82,14.82,0,0,1,4.53,3.63,16.35,16.35,0,0,1,2.91,5.16,17.92,17.92,0,0,1,1,6,15.92,15.92,0,0,1-.15,2.13,7.31,7.31,0,0,1-.57,2,4.19,4.19,0,0,1-1.2,1.56A3.15,3.15,0,0,1,270.86,66.42Z"/><path class="cls-2" d="M298.34,55q-.9,3.24-1.65,6.51a29.83,29.83,0,0,0-.75,6.69,25.88,25.88,0,0,0,.24,3.54,25.88,25.88,0,0,1,.24,3.54,15.28,15.28,0,0,1-.09,1.74,3.46,3.46,0,0,1-.42,1.35,2.32,2.32,0,0,1-1,.9,3.87,3.87,0,0,1-1.77.33,4.47,4.47,0,0,1-2.82-.93,8.4,8.4,0,0,1-2.07-2.4,16.41,16.41,0,0,1-1.47-3.33,28.1,28.1,0,0,1-.93-3.72q-.33-1.86-.48-3.57t-.15-2.91a32.81,32.81,0,0,1,.51-5.79q.51-2.85,1.08-5.7t1.08-5.7a32.81,32.81,0,0,0,.51-5.79,7.29,7.29,0,0,0-.33-2.07q-.33-1.11-.72-2.1t-.72-1.74a3.32,3.32,0,0,1-.33-1q0-.3.21-.36a1.63,1.63,0,0,1,.45-.06,6.78,6.78,0,0,1,3.3.93,12.3,12.3,0,0,1,3,2.37,13.37,13.37,0,0,1,2.22,3.18,7.5,7.5,0,0,1,.87,3.36,5.21,5.21,0,0,1-.54,1.77q-.54,1.23-1.23,2.61t-1.38,2.67q-.69,1.29-1,2a37.56,37.56,0,0,0-1.71,4.59,16.79,16.79,0,0,0-.69,4.83q0,.48,0,1.17a7.56,7.56,0,0,0,.18,1.35,3,3,0,0,0,.51,1.14,1.2,1.2,0,0,0,1,.48q.9,0,1.86-1.56a36.66,36.66,0,0,0,1.86-3.45q.9-1.89,1.62-3.45T298,54.78h.18Zm19.5-3.18-.06-.06-.42-.18a20.91,20.91,0,0,0-2.25.24,14.42,14.42,0,0,1-2.31.18,13.16,13.16,0,0,1-3.39-.51A14.53,14.53,0,0,1,305.87,50a10,10,0,0,1-2.79-2.37,4.89,4.89,0,0,1-1.14-3.15.53.53,0,0,1,.6-.6,5.92,5.92,0,0,1,2.07.39q1,.39,2,.69a25.28,25.28,0,0,0,2.7.78,12.42,12.42,0,0,0,2.76.3h1.2q.9,0,1.86-.09a9.75,9.75,0,0,0,1.71-.3q.75-.21.75-.57,0-1.62-.09-3.42a7.5,7.5,0,0,0-.87-3.24,6.38,6.38,0,0,0-1-1.35,6.24,6.24,0,0,0-1.08-.87q-.57-.36-1.23-.72T312,34.62q-.3-.54.45-1a8.38,8.38,0,0,1,1.8-.84,20.68,20.68,0,0,1,2.1-.6,8,8,0,0,1,1.41-.24,10.52,10.52,0,0,1,2.21.27,9.25,9.25,0,0,1,2.33.84,6.26,6.26,0,0,1,1.84,1.44,3,3,0,0,1,.76,2.07,24.7,24.7,0,0,1-.15,2.73,24.7,24.7,0,0,0-.15,2.73.53.53,0,0,0,.6.6,7.55,7.55,0,0,0,2.22-.33,7.55,7.55,0,0,1,2.22-.33,5.82,5.82,0,0,1,2.94.66,2.86,2.86,0,0,1,1.14,2.7,2.65,2.65,0,0,1-.72,1.86,5.56,5.56,0,0,1-1.74,1.26,15.1,15.1,0,0,1-2.13.81q-1.11.33-1.95.51-.48.12-1,.21a3.59,3.59,0,0,0-1,.33,1.13,1.13,0,0,0-.6.78,6,6,0,0,0-.09,1.2q0,1.08,0,2.67v3.45q0,1.86,0,3.57t0,3v1.8a11.11,11.11,0,0,1-1.57,5.49,20.39,20.39,0,0,1-4,5,22.48,22.48,0,0,1-5.3,3.63,12.55,12.55,0,0,1-5.52,1.41l-.45,0a.29.29,0,0,1-.27-.33q0-.18.81-1T310,79.29l2-1.77q.93-.84,1.23-1.14A16.49,16.49,0,0,0,316.28,71a30.2,30.2,0,0,0,1.41-6.15,49,49,0,0,0,.36-6.42q0-3.24,0-6.24Z"/><path class="cls-2" d="M355.46,49.62a.53.53,0,0,0-.6-.6q-1.86,0-4-.15a13.94,13.94,0,0,1-4-.84,7.39,7.39,0,0,1-3-2.07,5.76,5.76,0,0,1-1.2-3.9q0-.6.81-.51a8.36,8.36,0,0,1,1.83.45q1,.36,1.95.78a7.61,7.61,0,0,0,1.23.48,7.09,7.09,0,0,0,1.89.33q.93,0,1.89,0,1.5,0,2.58,0a3.74,3.74,0,0,0,1.8-.45,2.57,2.57,0,0,0,1.08-1.32,7.67,7.67,0,0,0,.36-2.7q0-1,.09-2.4a6.49,6.49,0,0,0-.21-2.34,3.44,3.44,0,0,0-.78-1.29,8.4,8.4,0,0,0-1.11-1l-1-.75q-.42-.33-.42-.51t.48-.48a5.33,5.33,0,0,1,1.08-.27q.6-.09,1.17-.12l.75,0,2.31,0a15.31,15.31,0,0,1,2.88.33,7.19,7.19,0,0,1,2.43,1,2.15,2.15,0,0,1,1,1.92,5.28,5.28,0,0,1-.48,2.16,22.28,22.28,0,0,1-1.05,2.07q-.57,1-1,2a4.33,4.33,0,0,0-.48,1.89q0,.3.36.3a4,4,0,0,0,2-.63q1.08-.63,2.28-1.38t2.46-1.38a5.59,5.59,0,0,1,2.52-.63,6.92,6.92,0,0,1,1.56.18,4.27,4.27,0,0,1,1.38.57,3.22,3.22,0,0,1,1,1,2.85,2.85,0,0,1,.39,1.53,2.51,2.51,0,0,1-1.05,2A10.45,10.45,0,0,1,374,44.34a27.33,27.33,0,0,1-3.42,1.17q-1.86.51-3.54.9l-2.88.69a3.88,3.88,0,0,0-1.44.54,11.54,11.54,0,0,0-2.37,4.29q-1.05,3-2.07,6.66t-2,7.62A60.79,60.79,0,0,1,354,73.38a23.63,23.63,0,0,1-2.79,5.34,4.38,4.38,0,0,1-3.57,2.1,2.84,2.84,0,0,1-1.56-.42A4.17,4.17,0,0,1,345,79.32a4.79,4.79,0,0,1-.72-1.47,5.58,5.58,0,0,1-.24-1.59,10,10,0,0,1,.84-3.78A33.53,33.53,0,0,1,347,68.25q1.29-2.19,2.76-4.53T352.49,59a32.94,32.94,0,0,0,2.13-4.74A13.86,13.86,0,0,0,355.46,49.62Zm10.38,15.54.24.18A13.11,13.11,0,0,0,367.37,68a13.48,13.48,0,0,0,1.89,2.37,10.47,10.47,0,0,0,2.4,1.8,8.73,8.73,0,0,0,2.76,1,15.54,15.54,0,0,0,3.06.18q1.56-.06,3.12-.21l3.09-.3q1.53-.15,3.09-.15a15.28,15.28,0,0,1,1.83.12,6.65,6.65,0,0,1,1.83.48,3.68,3.68,0,0,1,1.41,1,2.69,2.69,0,0,1,.57,1.77,3.14,3.14,0,0,1-.9,2.37,5.86,5.86,0,0,1-2.22,1.32,11.52,11.52,0,0,1-2.79.57q-1.47.12-2.55.12-3.42,0-6.78-.27a18.16,18.16,0,0,1-6-1.47,10.09,10.09,0,0,1-4.32-3.66,12.05,12.05,0,0,1-1.65-6.78q0-.78,0-1.47a5.88,5.88,0,0,1,.27-1.47Zm11.52-7.8q.18-.18.69-.63t1.05-1a10.38,10.38,0,0,0,.93-1,1.49,1.49,0,0,0,.39-.66.86.86,0,0,0-.39-.75,3.06,3.06,0,0,0-.93-.42,5.14,5.14,0,0,0-1.11-.18l-.93,0H370.4a2.05,2.05,0,0,1-.39-.06.29.29,0,0,1-.27-.3.4.4,0,0,1,.09-.24,2.25,2.25,0,0,1,.21-.24,9.42,9.42,0,0,1,3-1.62,26.16,26.16,0,0,1,4.32-1.14,27.12,27.12,0,0,1,4.8-.42,17.22,17.22,0,0,1,4.47.54,7.5,7.5,0,0,1,3.3,1.77,4.23,4.23,0,0,1,1.29,3.21V55a2.27,2.27,0,0,1-.12.72,1.75,1.75,0,0,1-1.53,1.08q-1.11.12-1.95.18-2.58.24-5.1.66a31,31,0,0,1-5.1.42l-.24-.24Z"/><path class="cls-2" d="M405,72a10.56,10.56,0,0,1,.8-4.08A9.79,9.79,0,0,1,408,64.64a10.65,10.65,0,0,1,7.44-3,11.38,11.38,0,0,1,4.24.8,11,11,0,0,1,3.52,2.24,10.14,10.14,0,0,1,2.36,3.4,10.75,10.75,0,0,1,.84,4.28,10,10,0,0,1-.84,4.12,10.5,10.5,0,0,1-2.28,3.28,10.08,10.08,0,0,1-3.4,2.16,11.7,11.7,0,0,1-8.4,0,10.49,10.49,0,0,1-3.4-2.2,10.2,10.2,0,0,1-2.28-3.36A10.75,10.75,0,0,1,405,72Zm2.08.08a8.28,8.28,0,0,0,4.48,7.8,8.37,8.37,0,0,0,4.12,1,9.15,9.15,0,0,0,4.12-1,8.45,8.45,0,0,0,3.2-3A8.7,8.7,0,0,0,424.24,72,8.14,8.14,0,0,0,423,67.36a7.77,7.77,0,0,0-3.2-2.76,9.71,9.71,0,0,0-4.12-.88,9.08,9.08,0,0,0-4.12,1,8.36,8.36,0,0,0-3.2,2.84A8,8,0,0,0,407,72.12Z"/></g></g></svg>