<svg xmlns="http://www.w3.org/2000/svg" viewBox="0 0 146.56 147.1"><title>アセット 21</title><g id="レイヤー_2" data-name="レイヤー 2"><g id="レイヤー_9" data-name="レイヤー 9"><path d="M0,81.08a1.68,1.68,0,0,1,.16-.79Q4.22,69.63,8.62,59.12t7.85-21.33q1.88-6,3.21-12.15t2.75-12.31a47.7,47.7,0,0,0,1.17-6,31.42,31.42,0,0,1,1.33-5.88,5.75,5.75,0,0,1,.55-1.1,1.29,1.29,0,0,1,1-.31,33,33,0,0,1,6.9.94,78.46,78.46,0,0,1,8.94,2.59,95.26,95.26,0,0,1,9.49,3.92,57.38,57.38,0,0,1,8.63,5,29.68,29.68,0,0,1,6.27,5.88,10.22,10.22,0,0,1,2.43,6.27,6.9,6.9,0,0,1-1.65,4.71,9.63,9.63,0,0,1-4,2.74,11.24,11.24,0,0,1-4.94.63A8.7,8.7,0,0,1,54,30.89c-.21-.1-.42-1-.63-2.74s-.45-3.63-.71-5.72-.52-4.13-.78-6.12a25.66,25.66,0,0,0-.71-3.92,1.8,1.8,0,0,0-1.41-.79,20.23,20.23,0,0,0-2.27,3.22q-1.5,2.43-3.45,5.72t-4,7q-2,3.69-3.69,6.9c-1.09,2.15-2,4-2.74,5.73a11.31,11.31,0,0,0-1.1,3.29,1.72,1.72,0,0,0,.79,1.49,7.68,7.68,0,0,0,1.88.94c.73.26,1.46.5,2.19.71a11.68,11.68,0,0,1,1.73.62l.31.63A3.45,3.45,0,0,1,37.87,50a2.63,2.63,0,0,0-1.17,2.35v88.76c0,1.25-.79,2.25-2.36,3a26.89,26.89,0,0,1-5.48,1.8,42.91,42.91,0,0,1-6.12.94c-2,.16-3.45.24-4.39.24a1.39,1.39,0,0,1-1.57-1.57V67.9c0-.73-.31-1.09-.94-1.09-.84,0-2,.62-3.37,1.88a56.71,56.71,0,0,0-4.39,4.39Q5.8,75.59,3.69,77.94A26.12,26.12,0,0,1,.31,81.23Zm74,25.56h-9.1q-3.14,0-6.5.08t-6.28,0c-1.93,0-3.6-.11-5-.16a12.51,12.51,0,0,1-2.58-.24l-.32-.47a.66.66,0,0,1,.47-.15h3.53c1.73,0,3.71,0,6-.08s4.6-.08,7.06-.08,4.73,0,6.82.08,3.84.08,5.25.08a10,10,0,0,1,2.44.15Zm57.55-79.35a10.14,10.14,0,0,1,3.14,1.57,46.22,46.22,0,0,1,4.47,3.29,47.54,47.54,0,0,1,4,3.68c1.15,1.21,1.72,2.12,1.72,2.75,0,.84-.6,1.38-1.8,1.64a21.31,21.31,0,0,1-4.55.4q-2.75,0-6-.32t-6-.31a28.58,28.58,0,0,0-4.62.31c-1.26.21-1.89.74-1.89,1.57,0,1.26.76,2.17,2.28,2.75s2.74,1,3.68,1.33l.47.63-.47.62a21.07,21.07,0,0,0-5.64,3.69c-2,1.72-4,3.45-6.12,5.17s-4.13,3.27-6.11,4.63a10,10,0,0,1-5.49,2c-1,0-1.57-.57-1.57-1.73a13.58,13.58,0,0,1,.86-4.23q.87-2.51,2-5.49c.78-2,1.46-3.82,2-5.49a11.92,11.92,0,0,0,.78-4.23,1.6,1.6,0,0,0-1.8-1.73q-1.87,0-6.12-.31l-8.78-.63q-4.55-.31-8.39-.39a22.57,22.57,0,0,0-4.94.23,2,2,0,0,0-1.57,1.57l.32.79c1.25,1.25,2.43,2.38,3.53,3.37A24.19,24.19,0,0,1,82,47.59a15.33,15.33,0,0,1,2,3.69,13.61,13.61,0,0,1,.78,4.86,8.85,8.85,0,0,1-1.1,4.24,8.84,8.84,0,0,0-1.1,4.23c0,.52.11.84.32.94l.94.47a27.26,27.26,0,0,0,6.12.71c3.23.15,6.71.21,10.42.15s7.16-.15,10.35-.31a26.23,26.23,0,0,0,6-.71,8.18,8.18,0,0,0,2.43-1.8,29.62,29.62,0,0,0,2.59-3c.84-1.1,1.65-2.14,2.43-3.13a17.15,17.15,0,0,1,2.27-2.44,1.22,1.22,0,0,0,.48-.07,1,1,0,0,1,.47-.08A9.21,9.21,0,0,1,130.55,57q2.43,1.65,5.18,3.69t5,4.08a15.17,15.17,0,0,1,2.58,2.66l-.47.63a169.84,169.84,0,0,1-19.36.78q-9.65-.15-19.37-.15a1.39,1.39,0,0,0-1.57,1.57v3.13c0,1.57,0,3.22.08,4.94s.1,3.29.16,4.71.18,2.17.39,2.27l.94.47c.52,0,1.33,0,2.43-.08s2.25-.13,3.45-.23a32.22,32.22,0,0,0,3.37-.47,6.58,6.58,0,0,0,2-.63,9.55,9.55,0,0,0,2.2-2.43q1.25-1.8,2.66-3.77c.94-1.3,1.83-2.48,2.67-3.52s1.51-1.57,2-1.57,1.59.57,3.21,1.72,3.29,2.46,5,3.92,3.27,2.9,4.63,4.32,2,2.32,2,2.74-.29.73-.86.94a16.28,16.28,0,0,1-4.08.86c-.68.06-1.17.08-1.48.08q-6.28.32-12.47.39t-12.63.08c-.94,0-2.06,0-3.37-.15a2.28,2.28,0,0,0-2.59,1.56,37.77,37.77,0,0,0-1.25,5.73,49.5,49.5,0,0,1-1.25,6,73.75,73.75,0,0,1-7,16.54A59.12,59.12,0,0,1,82.1,131.57,49.59,49.59,0,0,1,67.75,141a43.89,43.89,0,0,1-17.57,3.45,5,5,0,0,1-1.41-.31l.31-.32c1.89-1.25,3.71-2.5,5.49-3.76s3.56-2.61,5.34-4.08a66.44,66.44,0,0,0,16.3-20.46Q81.7,104.45,81.7,90a13.23,13.23,0,0,0-.15-1.56c-.11-.73-.42-1.1-.94-1.1H50a.79.79,0,1,1,0-1.57H80a1.39,1.39,0,0,0,1.57-1.57V70.1A1.39,1.39,0,0,0,80,68.53H47.2a1,1,0,0,1-1.09-1.1c0-.41.28-.68.86-.78a4.5,4.5,0,0,0,1.17-.32,32.84,32.84,0,0,1,4.55,0q3.3.17,6.82.32c2.36.1,4.5.16,6.43.16s3.06-.16,3.38-.48a2.75,2.75,0,0,0,.78-2,27.21,27.21,0,0,0-1-5.41c-.68-2.67-1.49-5.41-2.43-8.24s-1.88-5.33-2.82-7.52-1.63-3.3-2-3.3H48.3a2.63,2.63,0,0,1-.78-.15c-.32-.11-.47-.26-.47-.47a2.5,2.5,0,0,1,.23-1,.86.86,0,0,1,.86-.55H71.67a1.39,1.39,0,0,0,1.57-1.57V2.67c0-.95.52-1.42,1.56-1.42.53,0,1.54.08,3.06.24s3.11.37,4.78.63a34.44,34.44,0,0,1,4.4.94c1.25.37,1.88.76,1.88,1.17V36.7c0,.42.39.7,1.17.86a12.59,12.59,0,0,0,2.51.23,9.64,9.64,0,0,0,2.51-.31c.79-.21,1.18-.47,1.18-.78v-34A1.39,1.39,0,0,1,97.87,1.1c.63,0,1.77,0,3.4.15s3.33.29,5.07.55a35.25,35.25,0,0,1,4.67,1c1.37.42,2.06,1,2.06,1.73V36.07a1.44,1.44,0,0,0,.69,1.25,2.49,2.49,0,0,0,1.46.47,19.43,19.43,0,0,0,6-.7,9.15,9.15,0,0,0,3.36-2,14.81,14.81,0,0,0,2.51-3.22,23.8,23.8,0,0,1,3.53-4.31ZM104.29,112.6q0-.63.78-.63a27.82,27.82,0,0,1,3.14.86q2.82.87,6.9,2.28t8.94,3q4.86,1.65,9.09,3.14l7.29,2.59q3.06,1.1,3.69,1.41c.73.21,1.1.58,1.1,1.1,0,.21-.21.52-.63.94a12.11,12.11,0,0,1-1.49,1.25l-1.65,1.18a9.69,9.69,0,0,0-1.1.86,14.88,14.88,0,0,0-3,3.69,30.31,30.31,0,0,0-1.89,4c-.52,1.35-1.07,2.69-1.64,4a20,20,0,0,1-2.28,3.85,1.32,1.32,0,0,1-1.1.78,2.37,2.37,0,0,1-.94-.31,73.25,73.25,0,0,1-8-6.2,71,71,0,0,1-8.24-8.54,56.23,56.23,0,0,1-6.43-9.73A20.92,20.92,0,0,1,104.29,112.6Zm42-6.43a5.4,5.4,0,0,0-.55.31.94.94,0,0,1-.55.16H109.24a5.5,5.5,0,0,1-1.81-.47,3.3,3.3,0,0,1-1.48-.94,22.77,22.77,0,0,1,2.82-.24c1.25,0,2.53-.08,3.84-.08s2.61,0,3.92.08,2.38.08,3.22.08l1.09-.47a75,75,0,0,0,4.86-6.35,49.68,49.68,0,0,1,4.87-6l.62-.16a13.06,13.06,0,0,1,3.06,2q2.12,1.65,4.47,3.61t4.47,3.84c1.41,1.26,2.43,2.2,3.06,2.83l.31.78ZM122.16,6.74a2.12,2.12,0,0,0,.4-.23,2,2,0,0,1,.39-.24c.31-.1,1.43.21,3.37.94s4,1.6,6.19,2.59a59.54,59.54,0,0,1,6,3.14c1.83,1.1,2.75,1.85,2.75,2.27,0,.21-.24.45-.71.71a16.19,16.19,0,0,1-1.65.78c-.62.26-1.23.5-1.8.71a11.61,11.61,0,0,0-1.18.47,19.16,19.16,0,0,0-4.62,3.6c-1.52,1.57-3.06,3.12-4.63,4.63a41,41,0,0,1-4.78,4,8.89,8.89,0,0,1-5.26,1.72c-.41,0-.6-.33-.54-1a15.37,15.37,0,0,1,.39-2.36c.21-.88.44-1.75.7-2.58s.45-1.42.55-1.73q1.26-4.39,2.43-8.7T122.16,6.74Z"/></g></g></svg>