<svg xmlns="http://www.w3.org/2000/svg" viewBox="0 0 143.33 130.79"><title>アセット 22</title><g id="レイヤー_2" data-name="レイヤー 2"><g id="レイヤー_9" data-name="レイヤー 9"><path d="M69.79,11.13a5.4,5.4,0,0,1-.32,5,40.42,40.42,0,0,1-3.61,5.57q-2.19,2.91-4.23,5.88a10.52,10.52,0,0,0-2,6,8.15,8.15,0,0,0,.08,1.25c0,.32.34.58.86.79a10.27,10.27,0,0,0,2.51.31,21.15,21.15,0,0,1,2.51.16,59.11,59.11,0,0,1,9.72,1.72,17.67,17.67,0,0,1,8.31,5A20.15,20.15,0,0,1,87.11,48a25.06,25.06,0,0,1,2,6,45.92,45.92,0,0,1,.79,6.51q.15,3.3.15,6.28,0,5.64-.54,12.46a103.66,103.66,0,0,1-2,13.65,83.22,83.22,0,0,1-4.08,13.25,45.55,45.55,0,0,1-6.59,11.45,30.46,30.46,0,0,1-9.56,8,27,27,0,0,1-12.94,3c-.84,0-1.72,0-2.67.08a8.89,8.89,0,0,1-2.66-.24c-.63-.1-1.65-1.16-3.06-3.16a70.5,70.5,0,0,1-4.16-6.72q-2-3.72-3.6-7.18a15,15,0,0,1-1.57-4.58c0-.52.31-.78.94-.78a9.3,9.3,0,0,1,3.14.63L44.3,108c1.31.47,2.64.89,4,1.26a15.89,15.89,0,0,0,4.08.54,13.67,13.67,0,0,0,8.7-2.89,23.72,23.72,0,0,0,6.2-7.59,49.07,49.07,0,0,0,4.07-10.56A101.85,101.85,0,0,0,73.78,77q.87-5.86,1.18-11.18t.31-8.92q0-5.64-3-8.76c-2-2.09-4.86-3.13-8.62-3.13a25.49,25.49,0,0,0-5.88.55q-2.28.54-4.47,3.68A31.91,31.91,0,0,0,50.81,54q-1.26,2.82-2.43,5.8t-2.2,5.88c-.68,1.94-1.33,3.68-2,5.25s-1.64,4-3,7.22-3,6.85-4.79,10.82S32.7,97,30.66,101.31s-4,8.28-5.88,12-3.61,6.9-5.18,9.57a24.07,24.07,0,0,1-3.76,5.25,19.25,19.25,0,0,1-2.9,2,7.58,7.58,0,0,1-3.53.71,7.45,7.45,0,0,1-4-1,8.37,8.37,0,0,1-2.67-2.59,10,10,0,0,1-1.41-3.6,21.68,21.68,0,0,1-.39-4.08,24.61,24.61,0,0,1,2.35-10.43,59.53,59.53,0,0,1,6-10Q12.87,94.1,17,89t7.77-10.2a59,59,0,0,0,6-10.5,28,28,0,0,0,2.35-11.22c0-.94-.53-1.41-1.57-1.41a10.27,10.27,0,0,0-4.15.94c-1.42.63-2.85,1.34-4.32,2.12a46.07,46.07,0,0,1-4.55,2.12,12.67,12.67,0,0,1-4.7.94,10,10,0,0,1-6-1.88A16.35,16.35,0,0,1,3.45,55.2,22.57,22.57,0,0,1,.86,49,26,26,0,0,1,0,42.66a8.79,8.79,0,0,1,.47-2.91,3.88,3.88,0,0,1,1.88-2.11c.32-.21.92,0,1.81.62s1.9,1.39,3.05,2.28A27.05,27.05,0,0,0,11,43a8,8,0,0,0,3.76,1.1,63.22,63.22,0,0,0,13.33-1.26,24.21,24.21,0,0,0,9.8-4.31A19.12,19.12,0,0,0,44,30.11a36.88,36.88,0,0,0,2.12-13.49c0-2.19-.45-3.73-1.34-4.62a8.18,8.18,0,0,0-3.13-2C40.43,9.62,39.21,9.2,38,8.78a5.23,5.23,0,0,1-3-2.66,1.7,1.7,0,0,1,.63-2.43,10.34,10.34,0,0,1,3.68-1.57,34.4,34.4,0,0,1,4.55-.79c1.52-.15,2.54-.23,3.06-.23a33.89,33.89,0,0,1,6,.63,35.41,35.41,0,0,1,6.82,2A31.06,31.06,0,0,1,65.79,6.9,12.35,12.35,0,0,1,69.79,11.13ZM102.56,82l.47-.63c2-.63,3.89-1.25,5.72-1.88a19.45,19.45,0,0,0,4.87-2.43A11.06,11.06,0,0,0,117,73.24a13.07,13.07,0,0,0,1.25-6.12A31,31,0,0,0,115.73,54a41.62,41.62,0,0,0-5.56-9.09,38.28,38.28,0,0,0-5.57-5.65c-1.67-1.3-2.51-2.22-2.51-2.74s.29-.65.86-.71,1-.08,1.18-.08a27.72,27.72,0,0,1,14.27,3.77,38.61,38.61,0,0,1,11.06,9.72,46.84,46.84,0,0,1,9.64,27.92,39,39,0,0,1-.39,5.33,16.66,16.66,0,0,1-1.57,5.17A11.42,11.42,0,0,1,134,91.58a7.87,7.87,0,0,1-5.09,1.57,16.11,16.11,0,0,1-6.2-1.33c-2.14-.89-4.34-1.91-6.58-3.06l-6.75-3.45A32.31,32.31,0,0,0,103,82.8Zm20.86-50.5c-1,0-2.54-.83-4.47-2.51a58.74,58.74,0,0,1-5.8-5.8,54.29,54.29,0,0,1-5-6.59Q106,13.34,106,11.76c0-.63.21-1,.63-1a10.36,10.36,0,0,1,1.25-.08,20.89,20.89,0,0,1,6.28,1.18A32.18,32.18,0,0,1,121,15a22,22,0,0,1,5.49,4.7,9.09,9.09,0,0,1,2.27,5.88,6.56,6.56,0,0,1-1.41,4.16A4.7,4.7,0,0,1,123.42,31.52Zm16.15-12.7c-.94,0-2.41-.75-4.39-2.26a58.9,58.9,0,0,1-6-5.2A58.06,58.06,0,0,1,124,5.45q-2.28-3-2.28-4.35a.84.84,0,0,1,.63-.94A4.93,4.93,0,0,1,123.57,0a26.32,26.32,0,0,1,6.28.86,24.9,24.9,0,0,1,6.43,2.56,18.05,18.05,0,0,1,5,4.2,9,9,0,0,1,2,5.91,8.52,8.52,0,0,1-.78,3.58A3,3,0,0,1,139.57,18.82Z"/></g></g></svg>