<svg xmlns="http://www.w3.org/2000/svg" viewBox="0 0 142.01 140.04"><title>アセット 23</title><g id="レイヤー_2" data-name="レイヤー 2"><g id="レイヤー_9" data-name="レイヤー 9"><path d="M53.25,0a29.57,29.57,0,0,1,5.41.86c2.56.58,5.27,1.26,8.15,2S72.4,4.5,75,5.33s4.42,1.47,5.57,1.88a9.38,9.38,0,0,0,.94.4c.42.15.63.34.63.55a.77.77,0,0,1-.39.7,3.85,3.85,0,0,0-.71.55A44.5,44.5,0,0,0,75.75,13,30.81,30.81,0,0,0,72,16.62q-1.65,1.89-3.3,3.92t-4,4.55q-5.49,6-11.68,12T40.07,48.69A168.25,168.25,0,0,1,26.19,59a109.49,109.49,0,0,1-14.5,8.24q-2.2,1.09-4.47,2a39.88,39.88,0,0,1-4.47,1.57C1,71.3.06,71.3,0,70.88s.45-1.2,1.49-2.35a15.21,15.21,0,0,1,2.12-2.27C4.4,65.58,5.2,64.82,6,64c1.78-1.67,3.5-3.34,5.18-5l5.17-5.17Q24.24,46.11,31.45,38a123.65,123.65,0,0,0,13-17.49,46.76,46.76,0,0,0,2.75-5.09c.68-1.52,1.28-3,1.8-4.55s1-3.08,1.41-4.71S51.36,2.82,52,.94C52.09.31,52.51,0,53.25,0ZM85.08,64.92a21.37,21.37,0,0,0,2-2.66c.94-1.36,1.9-2.75,2.9-4.16s2-2.66,2.9-3.76,1.62-1.65,2-1.65,1.51.68,3.29,2,3.69,2.88,5.73,4.55,3.86,3.27,5.48,4.78a12.26,12.26,0,0,1,2.44,2.59q0,.78-.63.78H79.9A1.39,1.39,0,0,0,78.34,69v67.43A1.38,1.38,0,0,0,79.9,138h26.19c.63,0,1.54-.6,2.75-1.8a41.65,41.65,0,0,0,3.6-4.16q1.82-2.35,3.45-4.62c1.1-1.52,1.91-2.59,2.44-3.22l.94-.47A16.13,16.13,0,0,1,123,126c2,1.41,4,3,6.19,4.86S133.3,134.4,135,136s2.58,2.56,2.58,3a1.06,1.06,0,0,1-.31.79,1.89,1.89,0,0,0-.55.15,1.64,1.64,0,0,1-.55.16H1.65a.79.79,0,0,1,0-1.57H54.81a1.39,1.39,0,0,0,1.57-1.57V69a1.39,1.39,0,0,0-1.57-1.57H25q-1.26,0-1.26-1c0-.67.42-1,1.26-1H84ZM18.27,101l-.31-.47a9.16,9.16,0,0,1,2.51-.15c1.57,0,3.53,0,5.88-.08s4.91-.08,7.68-.08,5.41,0,7.92.08,4.68.08,6.51.08H52a.7.7,0,0,1,.31.07.63.63,0,0,0,.32.08c0,.21-.26.42-.79.63a3.55,3.55,0,0,1-1.09.31H19.37ZM78.65,15.68l1.1.32a93.11,93.11,0,0,0,14,10.19A138.26,138.26,0,0,0,108.92,34a156.42,156.42,0,0,0,16.07,6q8.24,2.58,16.55,4.78l.47.63-.47.78a32,32,0,0,0-10.12,8.94,42.75,42.75,0,0,0-5.88,12.23l-.63.47a2.53,2.53,0,0,1-1.1-.31,93.85,93.85,0,0,1-8.62-5.41q-4.86-3.37-9.88-7.53t-9.8-8.94a97.22,97.22,0,0,1-8.63-9.8,59.71,59.71,0,0,1-6.27-10A23.63,23.63,0,0,1,78,16.31Zm26.82,70.41a21.87,21.87,0,0,1,2.35,1.26A41.54,41.54,0,0,1,112,90.17q2.28,1.72,4.71,3.69a36.58,36.58,0,0,1,4,3.68,9.49,9.49,0,0,1,2,2.83c.26.73-.13,1.09-1.18,1.09H82.88a2.75,2.75,0,0,1-1-.23,2.83,2.83,0,0,1-.86-.55c.21-.21.37-.31.47-.31a33.58,33.58,0,0,1,5.26-.48A21.73,21.73,0,0,0,91,99.5,11.29,11.29,0,0,0,94.72,98a16.19,16.19,0,0,0,4-3.92c.42-.52.89-1.17,1.41-2s1.1-1.57,1.73-2.35,1.25-1.51,1.88-2.2A8.64,8.64,0,0,1,105.47,86.09Z"/></g></g></svg>