<svg xmlns="http://www.w3.org/2000/svg" viewBox="0 0 147.57 148.44"><title>アセット 24</title><g id="レイヤー_2" data-name="レイヤー 2"><g id="レイヤー_9" data-name="レイヤー 9"><path d="M1.57,25.72l-.32-.47.32-.79a31,31,0,0,1,4.31-.23q3.84-.07,8.47-.08H28.7a1.39,1.39,0,0,0,1.57-1.57v-21A1.38,1.38,0,0,1,31.83,0c1,0,2.41.05,4.4.16S40.3.42,42.5.63s4.26.44,6.19.7a16.94,16.94,0,0,1,4,.87l.79.39a.75.75,0,0,1,.47.7c0,.11-.16.32-.47.63L52.38,5,51.2,6.19l-.7.71L50,8V21.64A2.56,2.56,0,0,0,51,23.21a2.53,2.53,0,0,0,1.57.94,12.57,12.57,0,0,0,7.52-2,20.33,20.33,0,0,0,4.55-4.39,26.21,26.21,0,0,0,2.67-4.39c.62-1.36,1.25-2,1.88-2,.41,0,1.41.6,3,1.8s3.19,2.57,4.86,4.08,3.19,3,4.55,4.31,2,2.25,2,2.67a8.4,8.4,0,0,1-.07.94.65.65,0,0,1-.71.63H55.36a1.62,1.62,0,0,0-1,.47,11,11,0,0,0-.86.78l-.32.79q0,1.41,3.06,2.58T63,32.62c2.51.73,4.79,1.46,6.82,2.19s3.06,1.47,3.06,2.2a1.55,1.55,0,0,1-.55,1.25,9.82,9.82,0,0,1-1,.79,71.49,71.49,0,0,0-9.56,9.49q-4.24,5.09-8.31,10.58c-.84,1.15-1.73,2.28-2.67,3.37S49,64.72,48.14,65.86l-.15.63a5,5,0,0,0,.94,1,2,2,0,0,0,1.41.55c.83,0,1.83,0,3-.08s2.3-.15,3.45-.31A13.06,13.06,0,0,0,60,66.81a7.5,7.5,0,0,0,2.43-1.57A15.38,15.38,0,0,0,64,63c.73-1.15,1.49-2.32,2.28-3.53s1.51-2.27,2.19-3.21,1.18-1.41,1.49-1.41q.78,0,3.06,1.8c1.51,1.2,3.11,2.56,4.78,4.08a58.53,58.53,0,0,1,4.39,4.39c1.26,1.41,1.89,2.38,1.89,2.9a.77.77,0,0,1-.48.71,1.9,1.9,0,0,1-.78.23L.94,70.1a.75.75,0,0,1-.7-.47A1.86,1.86,0,0,1,0,68.84c0-.52.31-.78.94-.78H5.8q3.62,0,8.31.08t9.88.08q5.18,0,9.57-.08t7.29-.08a14.91,14.91,0,0,0,3.22-.16,4.07,4.07,0,0,0,2-1.72,11.35,11.35,0,0,0,.54-2.43l.87-5.1q.46-2.82.94-5.41c.31-1.72.52-2.9.62-3.53q.31-1.56,1.1-5.41a48.4,48.4,0,0,0,.94-7.84,25.24,25.24,0,0,0-.62-7.13q-.8-3.13-3.61-3.14H2.67ZM76.84,92.05a1.84,1.84,0,0,1-.94,1.1c-.52.31-1.07.66-1.65,1a9.56,9.56,0,0,0-1.56,1.26,2.44,2.44,0,0,0-.71,1.8v39.83c0,.94-.76,1.7-2.27,2.27a30.39,30.39,0,0,1-5.26,1.42,46.25,46.25,0,0,1-5.8.7c-1.88.11-3.19.16-3.92.16A1.39,1.39,0,0,1,53.16,140V92.52A1.38,1.38,0,0,0,51.59,91H31.36a1.38,1.38,0,0,0-1.56,1.56q0,6.12.31,12.31t.31,12.32q0,5.49.16,11.44a36.64,36.64,0,0,1-1.41,11.29,4.65,4.65,0,0,1-2.51,3A17.45,17.45,0,0,1,22,144.51a35.29,35.29,0,0,1-5.17.71c-1.73.1-3.11.15-4.16.15-.84,0-1.25-.37-1.25-1.09l-1.1-62.89a1,1,0,0,1,.63-.94,11.23,11.23,0,0,1,4.47,1.17q2.58,1.18,5.33,2.51t5.33,2.51a11.1,11.1,0,0,0,4.47,1.18H51.12c.42,0,1-.44,1.81-1.33s1.62-1.89,2.51-3,1.72-2.12,2.51-3.06S59.33,79,59.75,79a9.94,9.94,0,0,1,2.82,1.64c1.57,1.1,3.29,2.36,5.18,3.77s3.65,2.77,5.33,4.08l3.29,2.58ZM26.66,62.88a10.07,10.07,0,0,1-3.69-.7,7.23,7.23,0,0,1-3-2.27,6.85,6.85,0,0,1-.47-2c-.21-1.2-.5-2.72-.87-4.55s-.73-3.82-1.09-6-.69-4.16-.95-6-.49-3.5-.7-4.86a22.34,22.34,0,0,1-.31-2.67c0-.94.18-1.46.54-1.57a3.3,3.3,0,0,1,1.65.16c.84.32,1.73.71,2.67,1.18s1.82,1,2.66,1.49A41.14,41.14,0,0,1,28,38.42,29.45,29.45,0,0,1,32.3,42.5a18.78,18.78,0,0,1,3.06,4.94,14.67,14.67,0,0,1,1.18,5.88,9.08,9.08,0,0,1-2.82,6.9A9.89,9.89,0,0,1,26.66,62.88ZM34,126.55H48.61l.47.47-.47.63H34L33.4,127Zm81.39-65.39a1.12,1.12,0,0,1-.63-1.1,5.58,5.58,0,0,1,.16-1.41l5.49-39c.21-1.15-.32-1.72-1.57-1.72h-9.72a1.39,1.39,0,0,0-1.57,1.57q0,6-.08,11.76T107.27,43q-.33,16.78-.55,33.4t-.24,33.4v9.73q0,3.45.08,7.29c0,2.56,0,4.92,0,7.06s-.11,3.94-.16,5.41a8.45,8.45,0,0,1-.23,2.35,19.21,19.21,0,0,1-3.77,3.06,28.84,28.84,0,0,1-5.33,2.74,13.79,13.79,0,0,1-5.41,1,4.77,4.77,0,0,1-4-2.12,4.39,4.39,0,0,1-.23-.55c-.06-.15-.14-.34-.24-.54V6.12A.7.7,0,0,1,88,5.33a10.2,10.2,0,0,1,3.84,1.49q2.75,1.5,6.43,3.37a66.54,66.54,0,0,0,7.84,3.38A23.52,23.52,0,0,0,114,15.05c.52,0,1.3-.05,2.35-.15a4.73,4.73,0,0,0,2.2-.63L128,5.65l1.09-.32.94.32a46.7,46.7,0,0,0,3.61,3.45q2.82,2.51,6,5.25t5.57,5c1.62,1.51,2.43,2.38,2.43,2.59s-.26.73-.79,1.25a21.88,21.88,0,0,1-3,2A12.71,12.71,0,0,0,141,27.29a34.78,34.78,0,0,0-2.9,3.68l-2.59,3.84c-1.36,2.1-2.77,4.37-4.23,6.83s-3,4.88-4.71,7.29-3.42,4.68-5.25,6.82A31.57,31.57,0,0,1,115.42,61.16Zm5.49,68.22a1.64,1.64,0,0,1-1.41-.63,4.29,4.29,0,0,1-.71-1.57,7.91,7.91,0,0,1-.23-2v-1.8c-.11-1.67-.21-3.09-.32-4.24a19.16,19.16,0,0,0-.55-3.21,26.12,26.12,0,0,0-1-3.06,39.25,39.25,0,0,0-1.88-3.92,7.59,7.59,0,0,0-.39-.7,1.37,1.37,0,0,1-.23-.71,1,1,0,0,1,.54-1,7.1,7.1,0,0,1,1.18-.39,16.6,16.6,0,0,0,7.21-3.45c1.57-1.47,2.36-4,2.36-7.53a22.57,22.57,0,0,0-1.36-7.68c-.91-2.51-1.89-5-3-7.37s-2-4.79-3-7.14a18.86,18.86,0,0,1-1.36-6.82,1.39,1.39,0,0,1,1.57-1.57A15.18,15.18,0,0,1,128.83,69,40.56,40.56,0,0,1,137,79.59a63.65,63.65,0,0,1,5.33,13,43,43,0,0,1,2,11.53,31,31,0,0,1-1.47,9.57,19.17,19.17,0,0,1-5.37,8.15,22.42,22.42,0,0,1-3.34,2.35q-2.1,1.26-4.51,2.43a38.33,38.33,0,0,1-4.76,2A12.64,12.64,0,0,1,120.91,129.38Z"/></g></g></svg>