<svg xmlns="http://www.w3.org/2000/svg" viewBox="0 0 147.25 146.49"><title>アセット 25</title><g id="レイヤー_2" data-name="レイヤー 2"><g id="レイヤー_9" data-name="レイヤー 9"><path d="M104.44,121.85a16.34,16.34,0,0,1-3.92,2.9c-1.46.79-2.93,1.6-4.39,2.43q-5,2.82-10.19,5.41t-10.35,5.26q-2.67,1.25-5.33,2.43a26.41,26.41,0,0,0-5,2.9,8,8,0,0,0-2,2c-.79,1-1.44,1.43-2,1.33a.74.74,0,0,1-.4-.16.74.74,0,0,0-.39-.15,14.93,14.93,0,0,1-2-2.67c-1.1-1.67-2.32-3.58-3.68-5.72s-2.59-4.16-3.69-6a37.26,37.26,0,0,1-2-3.61l.47-.62a42.27,42.27,0,0,1,4.31-.24c2.15-.05,4.34-.16,6.59-.31a36.15,36.15,0,0,0,6-.87c1.73-.41,2.59-1.09,2.59-2V111.5q-.16-.47-.39-1a1,1,0,0,0-1-.55,11,11,0,0,0-3.61,1.26c-1.78.83-3.82,1.75-6.12,2.74s-4.68,1.91-7.13,2.74a20.85,20.85,0,0,1-6.67,1.26,9,9,0,0,1-.94-.08c-.42,0-.62-.23-.62-.55s.26-.68.78-1.1.89-.73,1.1-.94a42.85,42.85,0,0,1,4.54-3.15A42,42,0,0,0,53.63,109q10.83-8,20.7-17c.84-.84,1.62-1.68,2.36-2.51A23.8,23.8,0,0,1,79,87.1a6.4,6.4,0,0,1,3.21-1.58,7.2,7.2,0,0,0,3.22-1.41L85.94,83c0-.73,0-1.91.15-3.53a38.52,38.52,0,0,0,0-5,16.29,16.29,0,0,0-.86-4.56,2.52,2.52,0,0,0-2.43-2H71.2a2.74,2.74,0,0,0-1.41.79c-.63.52-1.34,1.12-2.12,1.8s-1.52,1.36-2.2,2A11.44,11.44,0,0,1,64,73.86a8.25,8.25,0,0,1-4.54,1.49c-1.68.06-3.3.08-4.87.08Q53,75.43,53,74V52.83c0-1-.47-1.55-1.42-1.55l-14.42-1.1a2.12,2.12,0,0,0-1.65.47,1.86,1.86,0,0,0-.86,1.57V93.46a9.51,9.51,0,0,0,.39,1,1,1,0,0,0,1,.55,15.55,15.55,0,0,0,6.66-1.49,16.12,16.12,0,0,1,6.83-1.49c.2,0,.54,0,1,.08s.7.29.7.71c0,.21-.26.57-.78,1.1-.74.62-2.2,1.8-4.39,3.52s-4.74,3.66-7.61,5.81-5.91,4.39-9.1,6.74-6.19,4.5-9,6.43-5.26,3.53-7.3,4.78-3.32,1.88-3.84,1.88q-.46,0-.78-.78A73.63,73.63,0,0,1,4.71,113a63.21,63.21,0,0,0-3.93-9.33,5.82,5.82,0,0,1-.54-1A2.93,2.93,0,0,1,0,101.46c0-.31.24-.52.71-.62a5,5,0,0,0,1-.32,28.94,28.94,0,0,1,3.21-.23,46.35,46.35,0,0,0,4.7-.4A27.25,27.25,0,0,0,14,99c1.25-.36,1.88-1,1.88-1.8V5.49a1.25,1.25,0,0,1,1.41-1.41c.52,0,1.8.1,3.84.31s4.21.42,6.51.63,4.42.44,6.35.7,3.06.45,3.37.55c.94.32,1.34.61,1.18.87a4.14,4.14,0,0,1-1.1,1,17.06,17.06,0,0,0-1.8,1.57,3.61,3.61,0,0,0-.94,2.67q0,7,.08,13.88a137.47,137.47,0,0,0,.86,13.88l.63.78a1.78,1.78,0,0,0,1.41-.86c.41-.58.81-1.18,1.17-1.81s.73-1.22,1.1-1.8a1.59,1.59,0,0,1,1.33-.86c.53,0,1.2.6,2,1.8S45,39.94,46,41.4a49,49,0,0,0,3,4c1,1.2,1.9,1.8,2.74,1.8A1.27,1.27,0,0,0,53.16,46a16.27,16.27,0,0,0,.16-2,54.77,54.77,0,0,0-.47-7.14,54.5,54.5,0,0,1-.47-7.13A1.39,1.39,0,0,1,54,28.07,22,22,0,0,1,61.4,29.4c2.45.89,4.88,1.89,7.29,3s4.83,2.1,7.29,3a22.14,22.14,0,0,0,7.61,1.34,9.15,9.15,0,0,0,1.49-.16.9.9,0,0,0,.86-.94v-34A1.39,1.39,0,0,1,87.52,0c.63,0,2,.11,4.27.31s4.53.47,7,.79,4.63.62,6.62.94a15.69,15.69,0,0,1,3.15.63c.31.52.08,1.09-.71,1.72a8.36,8.36,0,0,0-1.49,1.41,6.2,6.2,0,0,0-.62,1.73,19.26,19.26,0,0,0-.47,2.74c-.11,1-.19,2-.24,2.9s-.08,1.62-.08,2a4.92,4.92,0,0,0,.47,2.2,4.74,4.74,0,0,1,.47,2.19,3.24,3.24,0,0,1-.47,1.73,3.32,3.32,0,0,0-.47,1.72c0,1.78,0,3.61-.08,5.49s-.07,3.71-.07,5.49c0,1.36.2,2.17.62,2.43a5.33,5.33,0,0,0,2.5.39,26.71,26.71,0,0,0,5.47-.55,37.37,37.37,0,0,1,5.46-.7l1.1-.47c.41-.42,1-1,1.71-1.81s1.54-1.61,2.42-2.5,1.72-1.68,2.5-2.36a5.29,5.29,0,0,1,1.8-1.17c.42-.11,1.46.44,3.13,1.64s3.43,2.54,5.31,4,3.56,2.88,5.07,4.24,2.27,2.19,2.27,2.51c0,.62-.58,1.2-1.73,1.72a25.69,25.69,0,0,0-2.51,1.26,14.78,14.78,0,0,0-.39,4.07c0,1.47.08,2.83.08,4.08q-.16,3.91-.16,7.76v7.76a1.76,1.76,0,0,1-1,1.65,17.16,17.16,0,0,1-2.27,1,12.59,12.59,0,0,0-2.27,1.1,2.22,2.22,0,0,0-1,2,5.32,5.32,0,0,0,2,3.76,38.87,38.87,0,0,0,4.47,3.69q2.51,1.8,4.86,3.37a10.64,10.64,0,0,1,3.13,2.82,1.36,1.36,0,0,1-1.41,1.1H123.58q-4.71,0-8.87.16t-7.21.39a24.24,24.24,0,0,0-4.16.55,16.24,16.24,0,0,0-3.37,2q-2.11,1.49-4.39,3.37c-1.51,1.25-2.93,2.48-4.23,3.68s-2.33,2.18-3.06,2.9a15.7,15.7,0,0,0-.47,3.77c0,1.25,0,2.51-.16,3.76-.21,2.3-.39,4.58-.55,6.82s-.23,4.53-.23,6.83c0,1.56.68,2.35,2,2.35a27.37,27.37,0,0,0,7.68-1.1,27.39,27.39,0,0,1,7.69-1.1ZM3.76,49.24c.32,0,.92,0,1.81-.08s1.8-.08,2.74-.08,1.81,0,2.59.08a5.42,5.42,0,0,1,1.49.24l-.31.47a3.39,3.39,0,0,1-1.57.39c-.74.06-1.55.08-2.43.08s-1.73,0-2.51-.08-1.39-.08-1.81-.08l-.47-.47Zm42,36.54c.94,0,2.88,0,5.8-.08s6-.08,9.26-.08,6.19,0,8.86.08a37.35,37.35,0,0,1,4.62.24l-1.64.55a6.87,6.87,0,0,1-1.49.39H45.79l-.63-.63ZM82.17,20.07a2.1,2.1,0,0,1-1.88.94H50.5c-1,0-1.47-.36-1.26-1.09s.58-1.1,1.1-1.1,1.83,0,3.61.08l6,.15,7.14.16c2.51.05,4.83.13,7,.24s3.94.21,5.41.31A17.44,17.44,0,0,1,82.17,20.07Zm-4.7,19.76c0-.52-.37-.88-1.1-1.1a7.92,7.92,0,0,0-2.51-.23,8.89,8.89,0,0,0-2.51.47c-.73.26-1.09.55-1.09.86v24c0,.1.07.18.23.23a1,1,0,0,1,.39.24c.32.1.81.23,1.49.39a13.25,13.25,0,0,0,2.2.31,6.24,6.24,0,0,0,2-.15,1,1,0,0,0,.86-1Zm27.91,44.38,1.09.47H118.3A4.3,4.3,0,0,0,121,83.34a22.11,22.11,0,0,0,5-6.89,7.94,7.94,0,0,0,.86-3c0-.31-.32-.73-.94-1.26s-1.34-1.08-2.12-1.66-1.57-1.11-2.35-1.59-1.34-.82-1.65-1H88.6c-1,0-1.56.43-1.56,1.27,0,1.16,1,1.93,2.92,2.3a46.53,46.53,0,0,0,6.48.71q3.57.15,6.49.47c1.95.21,2.92.74,2.92,1.59a25.59,25.59,0,0,1-.39,4.43c-.26,1.48-.44,3-.55,4.43Zm-5.8-44.38c0-.41-.37-.75-1.12-1a8.63,8.63,0,0,0-5.13,0c-.75.27-1.12.61-1.12,1v24c0,.42.37.73,1.12.94a10.77,10.77,0,0,0,5.13,0c.75-.21,1.12-.52,1.12-.94Zm33.87,105.7q-3.13.47-6.82-2.82a46.36,46.36,0,0,1-7.29-8.63,105.9,105.9,0,0,1-6.82-11.68c-2.14-4.24-4-8.31-5.49-12.23a67,67,0,0,1-3.21-10.35q-.94-4.47.15-5.73a10.43,10.43,0,0,1,1.57,1.57c.73.84,1.51,1.75,2.35,2.75s1.62,2,2.36,3A19.32,19.32,0,0,0,112,103.5a72.46,72.46,0,0,0,15.29,13.57A71.24,71.24,0,0,0,146,125.3l.47.63a18.88,18.88,0,0,1-2.12,2.58c-.68.69-1.43,1.49-2.27,2.44a41,41,0,0,0-8,14ZM108.83,20.11a1,1,0,0,1,.79-.35c1.25-.21,2.48-.37,3.68-.47a12.38,12.38,0,0,0,3.69-.94,9.19,9.19,0,0,0,4.15-2.75,24.45,24.45,0,0,0,2.59-3.76c.73-1.31,1.52-2.59,2.35-3.84a8.52,8.52,0,0,1,3.61-3,1.34,1.34,0,0,1,.47-.16,1.27,1.27,0,0,0,.47-.15,23.66,23.66,0,0,1,3,2.27q2.35,2,5,4.47t5,4.86q2.35,2.36,3.13,3.29a1.64,1.64,0,0,1-1.09,1,4.3,4.3,0,0,1-1.57.39l-32.78.16A3.19,3.19,0,0,1,108.83,20.11Zm12.55,19.72c0-.62-.23-1-.69-1.1a6.88,6.88,0,0,0-1.46-.15h-1.62a13.46,13.46,0,0,0-2,.15,4.2,4.2,0,0,0-1.69.63,1.62,1.62,0,0,0-.7,1.41v22a1.86,1.86,0,0,0,1.31,1.8,8.44,8.44,0,0,0,5.54.32c.87-.26,1.31-.6,1.31-1Zm8,51.28q.93.48,3.45,1.65t5.09,2.67a48.39,48.39,0,0,1,4.63,3q2,1.49,2,2.43c0,.83-1.18,1.64-3.53,2.43s-5.05,1.54-8.08,2.27-6,1.31-8.78,1.73a49.74,49.74,0,0,1-5.64.62c-.94,0-1.41-.52-1.41-1.57a10.17,10.17,0,0,1,1.25-4.15,28.27,28.27,0,0,1,3.14-5,27.48,27.48,0,0,1,4-4.23A6.25,6.25,0,0,1,129.38,91.11Z"/></g></g></svg>