<svg xmlns="http://www.w3.org/2000/svg" viewBox="0 0 138.16 136.69"><title>アセット 26</title><g id="レイヤー_2" data-name="レイヤー 2"><g id="レイヤー_9" data-name="レイヤー 9"><path d="M68.84,106.83a1.42,1.42,0,0,0-.86-1l-1.17-.31q-5-1.09-9.57-2.27a19.8,19.8,0,0,1-8.47-4.79,19.31,19.31,0,0,1-5.49-8.86,36,36,0,0,1-1.57-10.27,28.7,28.7,0,0,1,1.81-10.27A20.91,20.91,0,0,1,54.26,57.9a27,27,0,0,1,4.47-1.49,43,43,0,0,1,4.7-.86,50.63,50.63,0,0,0,5.1-.95,8,8,0,0,0,1.18-.55c.26-.15.39-.49.39-1s0-1.49.08-2.91.07-2.9.07-4.46,0-3-.15-4.24-.37-2-.79-2.19a4.36,4.36,0,0,0-2.9-.4c-1.31.16-2.33.29-3,.4A51.05,51.05,0,0,0,52,42.14q-5.58,2.11-11.14,4.39T29.64,50.6a36.69,36.69,0,0,1-11.29,1.81,14.51,14.51,0,0,1-8-2.2,18.58,18.58,0,0,1-5.72-5.72A28,28,0,0,1,1.18,36.8,29.82,29.82,0,0,1,0,28.57a4.41,4.41,0,0,1,.16-1.1c.1-.41.41-.62.94-.62a8.9,8.9,0,0,1,1.64,1.07,32.24,32.24,0,0,0,3.85,2.3A41.11,41.11,0,0,0,12,32.52a19.61,19.61,0,0,0,6.5,1.07q6.12,0,12.24-.38T43,32.08q6-.75,12-1.66a81.42,81.42,0,0,1,12-.91,1.94,1.94,0,0,0,2.2-2.19q0-3.3-.24-5.88a15.94,15.94,0,0,0-1.1-4.71,12.34,12.34,0,0,0-2.58-3.92,21.44,21.44,0,0,0-4.71-3.53A11.12,11.12,0,0,1,59,8.58c-.68-.37-1.38-.76-2.11-1.18a21.14,21.14,0,0,1-2-1.25c-.57-.42-.86-.79-.86-1.1,0-1,.84-2,2.51-2.75A24.62,24.62,0,0,1,62.88.5,41,41,0,0,1,71,0a33.19,33.19,0,0,1,8.15,1.26,17.7,17.7,0,0,1,6.28,3.13A6.41,6.41,0,0,1,88,9.6,16.87,16.87,0,0,1,86.33,17a16.87,16.87,0,0,0-1.65,7.37c0,1.15.4,1.78,1.18,1.88a19.07,19.07,0,0,0,2.43.16,42.92,42.92,0,0,0,7.76-.71c2.56-.47,5.15-1,7.76-1.49s5.2-1,7.77-1.49a42.91,42.91,0,0,1,7.76-.7,34.12,34.12,0,0,1,6.27.62,21.85,21.85,0,0,1,6.12,2.12,13.59,13.59,0,0,1,4.63,3.92,9.86,9.86,0,0,1,1.8,6,6.72,6.72,0,0,1-.63,2.9A2.49,2.49,0,0,1,135,38.92q-12.23,0-24.31-.31t-24.3-.31a1.38,1.38,0,0,0-1.57,1.56V63.54a1.68,1.68,0,0,0,.16.79c.94,2.19,1.72,4,2.35,5.56s1.15,3,1.57,4.32a27.92,27.92,0,0,1,.94,4.47,49.84,49.84,0,0,1,.31,6.19,44.18,44.18,0,0,1-3.06,16.78,44.7,44.7,0,0,1-8.39,13.41,56.26,56.26,0,0,1-12.54,10.27,79.37,79.37,0,0,1-15.37,7.21c-.84.32-2.27.76-4.31,1.34s-4.16,1.09-6.35,1.57-4.27.83-6.2,1.09-3.21.18-3.84-.23a1,1,0,0,1,.47-.63,2.34,2.34,0,0,0,.63-.47q5-2.82,10.19-5.33a64.35,64.35,0,0,0,9.88-6c1-.73,2.46-1.83,4.23-3.29s3.58-3.06,5.41-4.79,3.51-3.39,5-5A14.46,14.46,0,0,0,68.84,106.83ZM48.14,77a12.65,12.65,0,0,0,3.45,9.1,13.24,13.24,0,0,0,7.61,4.23,9.26,9.26,0,0,0,7.61-2.27q3.43-2.91,3.44-10.75a44.06,44.06,0,0,0-.31-5.17,14.18,14.18,0,0,0-1.33-4.71,9.14,9.14,0,0,0-2.9-3.37,8.83,8.83,0,0,0-5.18-1.33,11.8,11.8,0,0,0-5.33,1.17,11.19,11.19,0,0,0-3.92,3.22,14.37,14.37,0,0,0-2.35,4.55A17.53,17.53,0,0,0,48.14,77Z"/></g></g></svg>