<svg xmlns="http://www.w3.org/2000/svg" viewBox="0 0 138.11 128.79"><title>アセット 27</title><g id="レイヤー_2" data-name="レイヤー 2"><g id="レイヤー_9" data-name="レイヤー 9"><path d="M2,36.11c.41,0,.88.31,1.41.94a22.49,22.49,0,0,0,2,2,12.54,12.54,0,0,0,3.14,2,11.89,11.89,0,0,0,5.09.94,92.7,92.7,0,0,0,12.55-.79,26.43,26.43,0,0,0,10-3.29,17.31,17.31,0,0,0,6.67-7.29q2.43-4.78,2.43-12.78a26.58,26.58,0,0,0-.55-5.26,7.68,7.68,0,0,0-2.59-4.47A6.62,6.62,0,0,0,40.25,7.1c-.94-.42-1.88-.87-2.82-1.34s-1.8-.88-2.59-1.25-1.17-.65-1.17-.86c0-1,.86-1.89,2.58-2.51A21.9,21.9,0,0,1,42.84,0a61.62,61.62,0,0,1,8.55.31,37.32,37.32,0,0,1,8.54,1.88,20,20,0,0,1,6.59,3.69,7.16,7.16,0,0,1,2.59,5.57,13.37,13.37,0,0,1-1.41,5.88c-1,1.93-2,3.79-3.06,5.56s-2.09,3.56-3,5.34a11.52,11.52,0,0,0-1.33,5.17A1.41,1.41,0,0,0,61.74,35a28.76,28.76,0,0,0,5.72.94c1.83.11,3.61.26,5.33.47a20.31,20.31,0,0,1,5.1,1.33,16.74,16.74,0,0,1,5,3.38,17.44,17.44,0,0,1,3.76,5,29.73,29.73,0,0,1,2.2,6,38.29,38.29,0,0,1,1,6.43q.23,3.3.23,6.27a123.43,123.43,0,0,1-.7,12.63,121.71,121.71,0,0,1-2.28,13.8,82.24,82.24,0,0,1-4.31,13.56A48.51,48.51,0,0,1,76,116.48a31.6,31.6,0,0,1-9.73,8.15,26.86,26.86,0,0,1-13,3.06,8.55,8.55,0,0,1-5.8-2.35,26.63,26.63,0,0,1-4.79-5.65A49.92,49.92,0,0,1,39,112.87c-1-2.35-1.88-4.36-2.51-6a2.06,2.06,0,0,1-.16-.94,1,1,0,0,1,.55-1,3.1,3.1,0,0,1,1.18-.23,15.36,15.36,0,0,1,6.9,1.64,15.18,15.18,0,0,0,6.9,1.65,13.79,13.79,0,0,0,8.39-2.59,22.8,22.8,0,0,0,6-6.74,40.38,40.38,0,0,0,4.08-9.33,89.75,89.75,0,0,0,2.51-10.51,95.12,95.12,0,0,0,1.26-10.27c.2-3.29.31-6.09.31-8.39s-.08-4.26-.24-6.19A14.7,14.7,0,0,0,73,48.81a8,8,0,0,0-3.29-3.53A12.65,12.65,0,0,0,63.3,44a18.6,18.6,0,0,0-5.33.7,11.7,11.7,0,0,0-4.55,2.75,22.33,22.33,0,0,0-4.94,6.51A59,59,0,0,0,45.11,62c-.94,2.82-1.83,5.68-2.66,8.55s-1.73,5.52-2.67,7.92q-2.82,7-6.11,13.72t-6.43,13.57c-1.16,2.4-2.2,4.81-3.14,7.21a42.33,42.33,0,0,1-3.45,6.9c-.73,1.15-1.49,2.27-2.27,3.37a14.84,14.84,0,0,1-2.75,2.9,9.83,9.83,0,0,1-6.74,2.67q-4.86,0-6.35-3.14a16.5,16.5,0,0,1-1.49-7.21A22.07,22.07,0,0,1,3.16,109a57.54,57.54,0,0,1,5.1-8.78c2-2.83,4.05-5.59,6.2-8.31a57.28,57.28,0,0,0,5.41-8.16q.78-1.41,3-5.57t4.47-8.7q2.28-4.55,4-8.47A19,19,0,0,0,33,56.18a.63.63,0,0,0-.47-.63,2.75,2.75,0,0,0-.79-.15,12.1,12.1,0,0,0-4.47.89c-1.51.59-3,1.21-4.54,1.85S19.68,59.4,18.06,60a14.36,14.36,0,0,1-4.94.89,9.19,9.19,0,0,1-6.19-2.22,17.43,17.43,0,0,1-4.24-5.45A24.62,24.62,0,0,1,.42,46.34a23.78,23.78,0,0,1-.31-6.63A8,8,0,0,1,.58,37.6C.89,36.6,1.36,36.11,2,36.11ZM127.76,92.25a15.36,15.36,0,0,1-4.24-1.41q-3.28-1.41-7.13-3.14T109,84.25c-2.35-1.15-3.9-1.93-4.63-2.35-1.15-.63-1.59-1.15-1.33-1.57A4.53,4.53,0,0,1,104.94,79c1-.47,2.27-1,3.84-1.57a20.9,20.9,0,0,0,4.47-2.27,14.27,14.27,0,0,0,3.61-3.45,8.32,8.32,0,0,0,1.49-5,38,38,0,0,0-.86-9,19.4,19.4,0,0,0-2.59-6,27.9,27.9,0,0,0-4.39-5q-2.67-2.43-6.12-5.88l-3-3a14.6,14.6,0,0,1-2.51-3.29c-.31-.52-.21-.84.32-.94a7.19,7.19,0,0,1,1.25-.16A33,33,0,0,1,116,37.05a38.77,38.77,0,0,1,11.84,9.49A42.8,42.8,0,0,1,135.44,60a46.82,46.82,0,0,1,2.67,15.61,41.75,41.75,0,0,1-.39,5.56,19.28,19.28,0,0,1-1.49,5.33,11,11,0,0,1-3.14,4.08A8.22,8.22,0,0,1,127.76,92.25Z"/></g></g></svg>