<svg xmlns="http://www.w3.org/2000/svg" viewBox="0 0 110.87 131.18"><title>アセット 28</title><g id="レイヤー_2" data-name="レイヤー 2"><g id="レイヤー_9" data-name="レイヤー 9"><path d="M26.5.08C27.44,0,28.38,0,29.33,0A64.39,64.39,0,0,1,41.79,1.33,45,45,0,0,1,54.1,5.65a28.51,28.51,0,0,1,9.41,7.84,19.11,19.11,0,0,1,3.77,12.07,9.12,9.12,0,0,1-1.81,6q-1.8,2.21-5.72,2.2A58.17,58.17,0,0,1,46,32.07a63.61,63.61,0,0,0-13.57-1.8H24.23a9.44,9.44,0,0,0-3.06.47,6.09,6.09,0,0,0-2.43,1.49,3.91,3.91,0,0,0-1,2.9,34.24,34.24,0,0,0,1.1,8.62,34.38,34.38,0,0,1,1.1,8.63,74.89,74.89,0,0,1-.55,9,73.29,73.29,0,0,0-.55,9,17.62,17.62,0,0,0,.16,2.9c.1.58.94,1,2.5,1.18.11,0,.4,0,.87-.08s.75-.08.86-.08q6-3.14,11.68-6.27a111.94,111.94,0,0,1,12-5.65,65,65,0,0,1,24.46-4.86,54.52,54.52,0,0,1,14.9,2,37.09,37.09,0,0,1,12.63,6.2,31.21,31.21,0,0,1,8.7,10.5,31.86,31.86,0,0,1,3.29,14.82,28.85,28.85,0,0,1-3.76,15,35.74,35.74,0,0,1-10,10.82A54.09,54.09,0,0,1,83,124.12a116.87,116.87,0,0,1-16.39,4.32,141.69,141.69,0,0,1-16.47,2.11q-8.07.55-14.5.55c-1.26,0-2.8,0-4.63.08a5.4,5.4,0,0,1-4.15-1.33l.47-.47a118.71,118.71,0,0,1,12.93-4.55q7-2,14-4.24a126.28,126.28,0,0,0,13.49-5.09,46.9,46.9,0,0,0,11.45-7.14A32,32,0,0,0,87,98.09a33.34,33.34,0,0,0,3-14.82A25.62,25.62,0,0,0,88.68,75a21.06,21.06,0,0,0-3.76-6.82,17.86,17.86,0,0,0-6-4.63,19,19,0,0,0-8.31-1.72,27,27,0,0,0-13.1,3.37,57.34,57.34,0,0,0-11.6,8.39A110.1,110.1,0,0,0,35.68,84.37q-4.78,5.8-8.79,10.82a99,99,0,0,1-7.37,8.39q-3.37,3.38-6,3.37a10.77,10.77,0,0,1-5.65-1.49,13.75,13.75,0,0,1-4.23-3.92A19.73,19.73,0,0,1,.94,96.21,18.36,18.36,0,0,1,0,90.49q0-1.26.47-6T1.73,73.16q.78-6.51,1.72-13.73T5.17,46q.8-6.2,1.42-10.28a29.38,29.38,0,0,1,.78-4.23,12.08,12.08,0,0,1,4.55-3.45,37.61,37.61,0,0,1,6.58-2.35q3.62-.95,7.38-1.8t6.9-1.81a18.63,18.63,0,0,0,5.09-2.27,4,4,0,0,0,2-3.37,8,8,0,0,0-2.43-5.89,26.81,26.81,0,0,0-5.57-4.23,66.53,66.53,0,0,0-5.95-3.06A10.72,10.72,0,0,1,22.27,1.1l.31-.47,1.1-.47C24.62.16,25.56.13,26.5.08Z"/></g></g></svg>