<svg xmlns="http://www.w3.org/2000/svg" viewBox="0 0 979.66 66.84"><defs><style>.cls-1{fill:#fff;}</style></defs><title>アセット 35</title><g id="レイヤー_2" data-name="レイヤー 2"><g id="レイヤー_1-2" data-name="レイヤー 1"><path class="cls-1" d="M63.42,38.39l.07.07a1.33,1.33,0,0,1,.35,1.68,2,2,0,0,1-1.75.7H2A1.62,1.62,0,0,1,.2,39.51l-.07-.14c-.35-.91,0-1.47,1.12-1.47H17.7c.63,0,.84-.21.84-.84V20.19c0-.63-.21-.84-.84-.84H4.05A1.62,1.62,0,0,1,2.3,18l-.07-.14c-.35-.91,0-1.47,1.12-1.47H17.7c.63,0,.84-.21.84-.84V2.27a1.62,1.62,0,0,1,2-1.82L23.3.8c1.26.14,2,1.12,1.19,2a3,3,0,0,1-1.19.7.9.9,0,0,0-.63.91V15.57c0,.63.21.84.84.84h16.8c.63,0,.84-.21.84-.84V2.27a1.62,1.62,0,0,1,2-1.82L46,.8c1.41.14,2,1.12,1.26,2a4,4,0,0,1-1.26.7c-.42.21-.62.42-.62.84v11.2c0,.63.2.84.83.84h6.52a.86.86,0,0,0,.7-.35,22.69,22.69,0,0,1,1.68-2.17,1.82,1.82,0,0,1,2.59-.28c1,.84,2.52,2.1,3.85,3.29a1.29,1.29,0,0,1,.35,1.75,1.9,1.9,0,0,1-1.68.7h-14c-.63,0-.83.21-.83.84V37.06c0,.63.2.84.83.84h8.06c.28,0,.42-.14.63-.35l1.89-2.24.07-.07A1.74,1.74,0,0,1,59.36,35ZM26,46.45c1,.49,1.26,1.61.35,2a2.6,2.6,0,0,1-1.33.14.7.7,0,0,0-.77.35A67.36,67.36,0,0,1,2.93,64.16a1,1,0,0,1-1.4-.35c-.35-.63-.28-1.12.21-1.4,7.35-4.55,14.7-11.2,18.83-17A1.78,1.78,0,0,1,23,44.83Zm-3.29-9.39c0,.63.21.84.84.84h16.8c.63,0,.84-.21.84-.84V20.19c0-.63-.21-.84-.84-.84H23.51c-.63,0-.84.21-.84.84ZM57.05,63.11c-3.5-5.25-11.69-12-17.93-16.38a.79.79,0,0,1-.07-1.19c.21-.29.7-.35,1.26-.29h.14c15.41,6.59,20.38,13.17,20.38,16.67a2,2,0,0,1-2.73,2l-.42-.21-.49-.42Z"/><path class="cls-1" d="M79.23,28c0-1.82-.56-2-1.61-.42a66.23,66.23,0,0,1-6.44,8.05,1,1,0,0,1-1.4.14.86.86,0,0,1-.21-1.33c6-8.12,11.62-20.3,15.33-32.83A1.64,1.64,0,0,1,87.21.31l3.22,1.05c1.12.35,1.61,1.33.84,2a5.05,5.05,0,0,1-1.4.63,1,1,0,0,0-.7.56,137.92,137.92,0,0,1-5.81,13.23c-.21.28-.07.49.28.63l.63.21A1.12,1.12,0,0,1,85,20.4,2.37,2.37,0,0,1,84,21a.9.9,0,0,0-.63.91v40.4a.76.76,0,0,1-.07.35h-.07a.53.53,0,0,1-.14.35,4.8,4.8,0,0,1-2.94,1.33H80l-.14-.07a.44.44,0,0,1-.42-.28l-.07-.14a1,1,0,0,1-.14-.42Zm48-17.22a1.87,1.87,0,0,1,2.59-.28l.14.07,3.64,3.22h.07a1.16,1.16,0,0,1,.42,1.47l-.07.21a2,2,0,0,1-1.68.7H112.62c-.7,0-.91.28-.84,1a70.53,70.53,0,0,0,3.71,16.66c.28.7.78.84,1.33.21,3.58-3.36,7.71-7.56,10.79-10.85A1.74,1.74,0,0,1,130.2,23l2.52,2.17c.63.56.84,1.61,0,1.82a3.31,3.31,0,0,1-1.19.07c-.35-.07-.7-.07-.84.14a115.62,115.62,0,0,1-13.38,9.17.72.72,0,0,0-.28,1,47.25,47.25,0,0,0,17.58,20.52,1,1,0,0,1,.42.91.76.76,0,0,1-.07.35,1.29,1.29,0,0,1-.84.56,4.43,4.43,0,0,0-2.17,1c-1,.84-2,1.4-3.22.35-12.46-10.43-17-26.12-18.49-40.61-.21-1.68-.7-1.82-1.68-.35a74.44,74.44,0,0,1-6.72,8.05.72.72,0,0,0-.28.56V53.31c0,.77.35,1,1.12.84l12.81-3.85a.94.94,0,0,1,1.12.42.68.68,0,0,1,.08.35,1,1,0,0,1-.71,1.19c-6.09,2.73-14,6.09-24.43,10a1.65,1.65,0,0,0-.56.63,1.86,1.86,0,0,1-.42.7A1,1,0,0,1,89,63.18L87.7,60.52c-.63-1.33-.28-2.17,1.26-2.59l7.84-2.1a.78.78,0,0,0,.63-.84V34c0-1.19-.42-1.4-1.4-.63a78.57,78.57,0,0,1-10.5,6.72,1,1,0,0,1-1.47-.35.92.92,0,0,1,.28-1.4c8.61-5.53,16-13.16,20.16-21,.42-.84.14-1.19-.77-1.19H88.4a1.67,1.67,0,0,1-1.75-1.47c-.21-.91.21-1.4,1.12-1.4h18.76c.63,0,.84-.21.84-.84V2.62a1.7,1.7,0,0,1,2-1.82l2.73.28c1,.21,1.89.91,1.26,1.75a2.52,2.52,0,0,1-1.19.77.9.9,0,0,0-.63.91v7.91c0,.63.21.84.84.84h12.47a.86.86,0,0,0,.7-.35Z"/><path class="cls-1" d="M193.62,11c.28,0,.42-.14.63-.35.56-.77,1.33-1.54,2-2.31a1.73,1.73,0,0,1,2.66-.28l4,3.36a1.13,1.13,0,0,1,.42,1.61l-.07.21a2.23,2.23,0,0,1-1.75.63H164.28a.88.88,0,0,0-.77.42A61,61,0,0,1,158,24a.59.59,0,0,0-.14.42,2.07,2.07,0,0,1-1.33,1.68l-.35.28-.14.21-.77.91a.79.79,0,0,0-.21.56V62.48c0,.49-1.12,1.68-3.15,1.89a.42.42,0,0,1-.28-.07h-.07c-.14-.07-.35-.14-.42-.35a1,1,0,0,1-.14-.49V34.54c0-1.4-.49-1.61-1.47-.56a53,53,0,0,1-8.33,6.86.9.9,0,0,1-1.26-.21.84.84,0,0,1,.14-1.26,60,60,0,0,0,10.71-11.62.5.5,0,0,0,.21-.42V24.46c0-1.12.56-1.47,1.47-1.26l.7.14a.8.8,0,0,0,.91-.42c1.68-2.87,3.08-5.18,4.41-7.77.42-.91.14-1.26-.77-1.26H142.37a1.59,1.59,0,0,1-1.68-1.33l-.07-.14a1,1,0,0,1,1-1.4h18a.79.79,0,0,0,.77-.49c1.33-3,2.24-5.95,3.29-9A1.64,1.64,0,0,1,166,.24l3.29,1.05c1.12.35,1.61,1.33.7,1.89a6.25,6.25,0,0,1-1.33.49,1,1,0,0,0-.77.63c-.63,1.68-1.4,3.64-2.24,5.53-.35.84-.07,1.19.77,1.19ZM182.13,31.18a.54.54,0,0,0,.56-.14c2-1.68,4.28-3.5,6.17-5.25.91-.84.7-1.4-.56-1.4H166.38a1.74,1.74,0,0,1-1.82-1.47c-.21-.91.14-1.47,1.19-1.47h25.91a.72.72,0,0,0,.56-.28l1.19-1.12a1.66,1.66,0,0,1,2.52,0l2.59,2.52c.77.84.77,1.75-.14,2h-.14a5,5,0,0,1-1.54.28.5.5,0,0,0-.42.21,76.93,76.93,0,0,1-10.22,6.58.45.45,0,0,1,.42.28V32a.61.61,0,0,1,.06.49,2.41,2.41,0,0,1-1.68,1.61c-.42.21-.7.42-.7.91L195,38.32a.71.71,0,0,0,.84-.35l1.68-2,.07-.14a1.78,1.78,0,0,1,2.52-.14L203.91,39a1.25,1.25,0,0,1,.42,1.61l-.07.21a2,2,0,0,1-1.61.64H185c-.63,0-.84.21-.84.84V58c0,3.08-.63,5.53-5.46,6.23a2.28,2.28,0,0,1-2-1.12l-.07-.21a6,6,0,0,0-1-1.26l-.14-.14c-.84-.49-2.45-.7-5.18-1.19a1,1,0,0,1-.91-1.05c0-.63.35-1,.91-.91,2,.21,7.07.42,8.19.42s1.47-.21,1.47-1.05V42.25c0-.63-.21-.84-.84-.84h-18A1.63,1.63,0,0,1,159.38,40l-.07-.14c-.07-.91.35-1.4,1.26-1.4h18.55c.63,0,.84-.21.84-.84v-.7L170,32.65c-8.61-3.64-8.33-4.34.49-1.68L180,33.84V32.23a1,1,0,0,1,1.26-1.12Z"/><path class="cls-1" d="M222,49.34c-1,2.75-2.1,5.65-2.5,6.85a11.22,11.22,0,0,0-.85,3.3,11.69,11.69,0,0,0,.35,2.25,8.38,8.38,0,0,1,.3,1.85c0,1-.5,1.55-1.35,1.55s-1.55-.75-2.25-1.9a25.46,25.46,0,0,1-2.9-11.7,45.37,45.37,0,0,1,2.3-13.7l.15-.5c.2-.6.4-1.2.55-1.8a17.3,17.3,0,0,0,.8-3.7c0-1.45-.9-2.81-2.65-4.76l-.05-.1a.7.7,0,0,1,.25-1,1.22,1.22,0,0,1,1.1-.11c.05,0,.05,0,.15.05A16.35,16.35,0,0,1,217,27c.9.75,3.15,3.45,3.15,5.5a5.24,5.24,0,0,1-.8,2.45,28.64,28.64,0,0,0-1.15,2.71c-1.1,2.85-3.1,8.05-3.1,13.1,0,2.8.35,4.05,1,5.15.35.6.55.6.85.05.65-1,2-4.4,3.3-7.35.5-1.15,1-2.3,1.3-3.15a.77.77,0,0,1,1.15-.45.82.82,0,0,1,.45,1.15Zm18.45-19.9a1,1,0,0,0-.75-1.11,12.47,12.47,0,0,0-2.75-.39,1,1,0,0,1-.9-.91.88.88,0,0,1,.75-1.05,11.28,11.28,0,0,1,2.85-.45c1.9,0,4.55,1.45,4.55,2.66a3.53,3.53,0,0,1-.25,1.29,20.34,20.34,0,0,0-.55,2.3,18.42,18.42,0,0,0-.35,3.11c-.05.55.2.75.75.59a27,27,0,0,0,3.5-1.29c.75-.4.95-.4,1.2-.55a3.41,3.41,0,0,1,1.1-.45c.95,0,2.5.7,2.5,1.75,0,.85-.7,1.55-2.2,2.05a60.4,60.4,0,0,1-6.4,1.7.56.56,0,0,0-.5.6c.05,4.45.35,8.85.7,12.5l0,.5a.54.54,0,0,0,.45.5,22.1,22.1,0,0,1,7.75,4.4,4.19,4.19,0,0,1,1.6,3c0,1-.4,1.65-1.2,1.65s-1.3-.55-2.1-1.35a22.47,22.47,0,0,0-5.7-4.2c-.35-.2-.5-.1-.55.3v.7c0,3.75-2.3,6.65-8.45,6.65-4.4,0-8-2.1-8-5.75,0-4.3,4.35-6.3,9.7-6.3a20.19,20.19,0,0,1,3.1.2c.55.05.75-.1.7-.65l-.2-3.85-.35-7.65q0-.68-.75-.6a32.8,32.8,0,0,1-5,.4c-2.9,0-4.85-.7-7.55-4a.79.79,0,0,1,.05-1.14.9.9,0,0,1,1.15-.05,10.42,10.42,0,0,0,6.45,2.2,34.81,34.81,0,0,0,5.2-.4c.3-.05.45-.25.45-.61Zm-5.65,31.45c5.25,0,6.2-1.75,6.35-5.45a.52.52,0,0,0-.45-.6,26.09,26.09,0,0,0-4.6-.45c-3.05,0-6.5,1.25-6.5,3.5S231.76,60.89,234.81,60.89Z"/><path class="cls-1" d="M259.78,36.29c-.42-.21-.49-.63-.14-1.19,6.16-8.19,12.53-20.86,16.66-33.53A1.61,1.61,0,0,1,278.61.38h.14L282,1.5h.14c1,.56,1.54,1.4.7,2a3.62,3.62,0,0,1-1.33.56,1,1,0,0,0-.77.56c-1.89,4.69-4.13,9.17-6.44,13.58-.21.42-.07.63.21.7a4.46,4.46,0,0,0,.63.14.9.9,0,0,1,.56,1.54,3.2,3.2,0,0,1-1.12.77,1.12,1.12,0,0,0-.63.84V62.13a1,1,0,0,1-.21.63,5.32,5.32,0,0,1-3.15,1.47h-.42a.5.5,0,0,1-.56-.49v-35c0-1.61-.56-1.82-1.54-.42a70.06,70.06,0,0,1-6.79,8,1.06,1.06,0,0,1-1.33.14Zm18.76-9.87A1.74,1.74,0,0,1,276.72,25c-.21-.91.14-1.47,1.19-1.47h17.78c.63,0,.84-.21.84-.84V2.41a1.62,1.62,0,0,1,2-1.82l2.87.28c1.4.14,2.1,1.12,1.33,2a2.26,2.26,0,0,1-1.19.7c-.42.21-.7.42-.7.91V22.64c0,.63.21.84.84.84h13c.28,0,.42-.14.63-.35l1.75-2.1.07-.14c.84-.63,1.75-.84,2.45-.21l.14.07A42.88,42.88,0,0,1,323.49,24l.14.14a1.11,1.11,0,0,1,.28,1.54,2,2,0,0,1-1.68.77H301.71c-.63,0-.84.21-.84.84V57.09c0,.63.21.84.84.84h11.14a.86.86,0,0,0,.7-.35,23.78,23.78,0,0,1,1.75-2.17,1.78,1.78,0,0,1,2.52-.28,42.56,42.56,0,0,1,3.85,3.22l.14.14a1.11,1.11,0,0,1,.28,1.54,2.08,2.08,0,0,1-1.75.77H280.5a1.62,1.62,0,0,1-1.75-1.4c-.21-.91.14-1.47,1.12-1.47h15.82c.63,0,.84-.21.84-.84V27.26c0-.63-.21-.84-.84-.84Z"/><path class="cls-1" d="M340.28,40.84a5.36,5.36,0,0,1-1.19.49,1.25,1.25,0,0,0-.7.63c-1.89,5.82-4.06,11.63-7.07,15.83a.93.93,0,0,1-1.33.28.89.89,0,0,1-.42-1.26,80.54,80.54,0,0,0,5-17.23A1.77,1.77,0,0,1,336.85,38l2.59.7c1.12.28,1.54,1.12,1,2Zm7.28-36.75a2,2,0,0,1-1.26.42,1.38,1.38,0,0,0-.77.42,106.89,106.89,0,0,1-6.86,8.75.73.73,0,0,0,.14,1.19,5.85,5.85,0,0,1,2,4.34c0,1.89-1.26,2.94-2.87,2.31a1.43,1.43,0,0,1-.91-1c-1.05-2.8-4.06-6.16-6.93-8.4-.42-.42-.42-.77.07-1.12a1.79,1.79,0,0,1,1.47-.14,22,22,0,0,1,3.71,1.61.78.78,0,0,0,1.19-.35c1.68-3.15,3.5-6.79,5.11-10.43a1.62,1.62,0,0,1,2.38-1l3,1.33c1.12.49,1.4,1.4.56,2ZM350,29c.77-.07,1-.42.63-1.19-.84-1.61-1.82-3.08-2.73-4.48a.6.6,0,0,1,.28-1.05,1.31,1.31,0,0,1,1.33.07c5.88,4.2,7.91,8.4,7.91,11.2,0,2.45-1.61,3.92-3.29,2.87a1.44,1.44,0,0,1-.77-1.26,16.64,16.64,0,0,0-1.05-3.5.82.82,0,0,0-1-.49l-4.55.91a.73.73,0,0,0-.63.84V62.55c0,.49-1.33,1.75-3.22,1.75h-.14l-.14-.07a.44.44,0,0,1-.42-.28l-.07-.14a.89.89,0,0,1-.07-.42V33.14c0-.21,0-.21-.21-.14l-.28.07c-2.31.56-4.9.91-7.63,1.4a.81.81,0,0,0-.49.35l-.49.63-.14.14a1.09,1.09,0,0,1-1.47-.7l-.84-2c-.56-1.4-.07-2.45,1.61-2.52l4.06-.21a.87.87,0,0,0,.56-.42c4.13-6.16,8.68-13.93,12-20.09a1.6,1.6,0,0,1,2.38-.84l2.94,1.4c1.12.49,1.47,1.54.49,2.1a3.44,3.44,0,0,1-1.4.35,1.15,1.15,0,0,0-.77.49,169.48,169.48,0,0,1-11.2,15.05c-1,1.12-.7,1.61.77,1.47Zm.21,9.1c5.39,4.27,7.07,8.68,7.07,11.49s-1.75,4.41-3.71,3.08a1.91,1.91,0,0,1-.56-1.19c-.35-3.71-2.38-9-4.27-12.54-.07-.14-.07-.14-.07-.21a.91.91,0,0,1,.14-.7.75.75,0,0,1,.42-.14.83.83,0,0,1,.84.21Zm3.64,24.58a1.62,1.62,0,0,1-1.75-1.4c-.21-.91.14-1.47,1.12-1.47h6.86c.63,0,.84-.21.84-.84V5.7c0-1.68,1.05-2.24,2.45-1.61l2.17,1a.89.89,0,0,0,.42.07h16.46a.76.76,0,0,0,.63-.28l1.12-1.26a1.74,1.74,0,0,1,2.59-.21l2.94,2.38c.91.84,1,1.82,0,2.38a6.65,6.65,0,0,1-1.47.63.9.9,0,0,0-.63.91V59.54c0,.21.07.28.28.28a.53.53,0,0,0,.49-.28l1.26-1.75a1.62,1.62,0,0,1,2.66-.28l2.8,2.87a1.21,1.21,0,0,1,.28,1.4l-.07.21a1.8,1.8,0,0,1-1.54.7ZM365,22.15c0,.63.21.84.84.84h16.74c.63,0,.84-.21.84-.84V8.85c0-.63-.21-.84-.84-.84H365.83c-.63,0-.84.21-.84.84Zm0,17.92c0,.64.21.84.84.84h16.74c.63,0,.84-.2.84-.84V26.7c0-.63-.21-.84-.84-.84H365.83c-.63,0-.84.21-.84.84Zm.84,3.79c-.63,0-.84.21-.84.84V59c0,.63.21.84.84.84h16.74c.63,0,.84-.21.84-.84V44.7c0-.63-.21-.84-.84-.84Z"/><path class="cls-1" d="M417,46.54a.52.52,0,0,0-.4.2c-.65,1.25-1.3,2.6-2,3.95-1.6,3-3.05,6-4,7.35-1.45,2.05-3.05,3.45-5.25,3.45-2.35,0-3.75-3-3.75-6a6.91,6.91,0,0,1,.2-1.9c1.35-4.7,6.85-8.25,13.05-9.3a.79.79,0,0,0,.4-.25l.25-.45c1.25-2.25,3-5.1,4.6-7.9,1.55-2.55,2.8-4.6,3.45-5.85.3-.4.25-.51-.2-.36-1.85.55-5.25,1.75-7.2,2.55H416l-.8.45h-.1a2.33,2.33,0,0,1-1.4.66c-1.3,0-3.35-1.61-4-3a8.12,8.12,0,0,1-.4-2.36.8.8,0,0,1,.6-.89l.2-.06.1,0a.47.47,0,0,1,.5.3l.15.36c.5,1.14,1,1.95,2.2,1.95,2.05,0,7.3-1.56,8.95-2.06a7.73,7.73,0,0,0,1.7-.8,2,2,0,0,1,1-.45c1.35,0,4,2,4,3.06,0,.8-.55,1.09-1.3,1.64-.4.36-1.05.81-1.45,1.2l-.1.11c-1.45,2.14-4.9,7.55-7.05,11-.4.6-.2.85.5.9a40,40,0,0,1,14.45,3.6c.5.25.75.1.85-.4a19.76,19.76,0,0,0,.3-3.8,1.23,1.23,0,0,0-.75-1.25,9.24,9.24,0,0,0-1.15-.45.79.79,0,0,1-.75-.9v-.1a.79.79,0,0,1,.75-.85h.1a5.18,5.18,0,0,1,1.75-.05h.1c1.4.3,3.25,1.3,3.25,2.35a4.52,4.52,0,0,1-.2,1.4v.1l-.2,1.25c-.05.8-.4,2.4-.65,4a.57.57,0,0,0,.3.65,23.8,23.8,0,0,1,5.25,3.8,3.55,3.55,0,0,1,1.1,2.8c0,1-.45,1.45-1.3,1.45-.55,0-1.25-.6-2.3-1.55a33.26,33.26,0,0,0-3.55-2.95c-.4-.3-.65-.2-.85.25-2.85,6.35-8.4,10.65-16.55,12.9a1.28,1.28,0,0,1-1.45-.55c-.35-.65-.25-1.1.45-1.3,7.35-2.45,12.6-7,15.05-13a.55.55,0,0,0-.2-.75,30.45,30.45,0,0,0-15.8-4.15Zm-11.5,11.25c1.4,0,2-.75,3-2.1a77.34,77.34,0,0,0,4.6-7.75c.35-.65.15-1-.6-.85-4.6,1-7.75,3.65-8.6,6.55C403.31,55.64,404.16,57.79,405.46,57.79Z"/><path class="cls-1" d="M452.66,60.94c2.35-4.25,5.6-9.35,8.1-16.2.6-1.65,1.1-3.3,1.65-5.1.2-.65,0-.85-.7-.75a32.26,32.26,0,0,1-4.85.4c-2.65,0-5-1-6.75-4.31a.71.71,0,0,1,.25-1.09.91.91,0,0,1,1.15,0c1.8,1.54,3.15,2.35,5.5,2.4a29.27,29.27,0,0,0,6.15-.7.53.53,0,0,0,.45-.45c.55-2.41,1-4.5,1.2-6,.15-.95-.3-1.25-1-1.61h-.1c-.75-.25-1.45-.39-2.3-.59a1,1,0,0,1-.85-1.06v-.3l.1-.35,0,0a.38.38,0,0,1,.2-.21l0,0a.47.47,0,0,1,.25-.06,13.2,13.2,0,0,1,2.5-.1c1.6.16,4.85,1.41,4.85,2.61a8.43,8.43,0,0,1-.55,2.14l-.5,1.45-.45,1.66-.3,1c-.2.75,0,1,.7.7a39.89,39.89,0,0,0,5.15-2.3,4.06,4.06,0,0,1,1.7-.65c.85,0,2,.54,2,1.45s-.45,1.4-2,2.15l-.1.05a74.83,74.83,0,0,1-8.4,2.9.43.43,0,0,0-.4.4q-1.12,3.68-2.4,7.2c-2.5,6.8-5.6,15-7.85,18.45-.75,1.15-1.15,1.45-2.1,1.45s-1.3-.95-1.3-2a4,4,0,0,1,.65-2.1Zm16-7.85a.71.71,0,0,1,.85.65,15.6,15.6,0,0,0,1.65,4.2c1.55,2.6,4.7,3.75,9,3.75a22.89,22.89,0,0,0,6.45-.7,6.11,6.11,0,0,1,1.75-.25c1.05,0,2.25.5,2.25,1.7s-1.45,1.65-2.85,2a30.85,30.85,0,0,1-6.6.6c-5.45,0-10-1.5-12-5.75a15.54,15.54,0,0,1-1.3-5.35.69.69,0,0,1,.7-.85Zm18.9-12.65c1.45.7,2.15,1.55,2.15,2.4,0,1.1-.95,1.2-1.95,1.35a8.28,8.28,0,0,0-2.85.9c-1.2.55-3.25,1.6-4.9,2.45a.91.91,0,0,1-1.2-.35l-.2-.3-.1-.1a.32.32,0,0,1,.1-.45l.35-.15a29.62,29.62,0,0,0,4.95-3.4c.05,0,.05-.1,0-.15l-.2-.15a14.45,14.45,0,0,0-4.2-.55,33.53,33.53,0,0,0-6.05.6h-.1c-.5.15-.9-.1-1.05-.7a1,1,0,0,1,.65-1.2h.1a26.75,26.75,0,0,1,7.95-1.25,19.15,19.15,0,0,1,6.45,1Zm-5.4-12.55a1.25,1.25,0,0,1,1.25-.2,21,21,0,0,1,4.8,3.15,4.61,4.61,0,0,1,1.9,3.25,1.36,1.36,0,0,1-1.35,1.5c-.6,0-1.05-.65-1.65-1.45a7.63,7.63,0,0,0-.8-1.1,23.13,23.13,0,0,0-4.05-3.9.79.79,0,0,1-.2-1.11Zm4.3-3.11a1.05,1.05,0,0,1,1.15-.25,21,21,0,0,1,4.95,2.8c1.35,1.2,1.9,2.2,1.9,3.36,0,.95-.45,1.5-1.3,1.5-.45,0-.95-.55-1.5-1.3a9.69,9.69,0,0,1-.95-1.25l-.1-.11a18.42,18.42,0,0,0-4-3.45l-.1-.1a1,1,0,0,1-.2-1.1Z"/><path class="cls-1" d="M509.72,44.49a10.19,10.19,0,1,1-10,10.15A10.11,10.11,0,0,1,509.72,44.49Zm-7.35,10.15a7.32,7.32,0,0,0,14.63,0,7.32,7.32,0,0,0-14.63,0Z"/><path class="cls-1" d="M588.75,10.81c-.35,0-.49.14-.7.42A55.6,55.6,0,0,1,571.81,28.8a1.21,1.21,0,0,1-1.61-.21c-.42-.42-.42-.84.07-1.4,6.72-5.88,13-15,17.15-25.9A1.66,1.66,0,0,1,589.8.17l3.29,1.26c1.12.42,1.54,1.47.7,2a4.23,4.23,0,0,1-1.47.56,1,1,0,0,0-.7.56l-1,2c-.49.91-.21,1.33.77,1.33h30.53c.28,0,.42-.14.63-.35.56-.77,1.33-1.54,2-2.31a1.78,1.78,0,0,1,2.52-.28,37.91,37.91,0,0,1,4.06,3.43l.14.14a1.09,1.09,0,0,1,.28,1.54,2.08,2.08,0,0,1-1.75.77Zm21.56,21.7c1.12.49,1.33,1.4.7,2-.14.07-.14.07-.21.07a3.79,3.79,0,0,1-1.33.21.85.85,0,0,0-.91.49,56.35,56.35,0,0,1-7.21,9.59c-.49.42-.42.84.14,1.27,7.63,6.09,10.22,11.2,10.22,13.72,0,2-1.33,2.8-3.08,2l-.21-.14-.42-.42-.14-.28c-1.75-3.22-5.18-7.28-9.73-11.76a.73.73,0,0,0-1.12,0A80.71,80.71,0,0,1,571.67,64.3c-.63.21-1.12.07-1.33-.56s-.14-1.12.49-1.33H571a77.45,77.45,0,0,0,23-15.83c.49-.42.49-.83,0-1.18a111.4,111.4,0,0,0-12.81-9,1,1,0,0,1-.35-1.47,1,1,0,0,1,1.47-.42c5.18,2.59,10.15,5.53,14.35,8.12a.64.64,0,0,0,1-.13A54.91,54.91,0,0,0,604.85,32,1.67,1.67,0,0,1,607.3,31Zm23,26.82a.79.79,0,0,0,.21.56c1.19,1.47,1.68,2.52.91,3.64-1.19,1.47-4.13.56-6.51-1.05-7.7-5.25-9.95-18.83-10.5-32.77,0-.63-.21-.84-.85-.84H579.79A1.62,1.62,0,0,1,578,27.54L578,27.4c-.35-.91.07-1.47,1.12-1.4H616.4a.75.75,0,0,0,.63-.28l1.06-1.12a1.72,1.72,0,0,1,2.52-.14l2.66,2.24.07.07c.77.84.91,1.75.07,2.24a2.45,2.45,0,0,1-1,.42.91.91,0,0,0-.7.91c.21,10.5,2.1,23.46,7.84,27.38l.14.14c.56.21.91.07,1-.28a42.05,42.05,0,0,0,1.75-5.53l.07-.28c.07-.14.14-.35.28-.42l.07-.07a.64.64,0,0,1,.77-.07.5.5,0,0,1,.21.42v.14ZM622.5,14c1,.84,2.31,2,3.64,3.08l.14.14a1.51,1.51,0,0,1,.28,1.68,2,2,0,0,1-1.75.7h-37a1.64,1.64,0,0,1-1.82-1.4c-.21-1,.14-1.54,1.19-1.54h30.18a.88.88,0,0,0,.7-.35l1.75-2.1a1.8,1.8,0,0,1,2.52-.28Z"/><path class="cls-1" d="M639.29,38.6c-.49-1.19-.07-2.1,1.33-2.45,2.31-.56,5.46-1.61,9.1-2.8a.76.76,0,0,0,.56-.77V19.42c0-.63-.21-.84-.84-.84h-7.63a1.62,1.62,0,0,1-1.75-1.4c-.21-.91.21-1.4,1.12-1.4h8.26c.63,0,.84-.21.84-.84V1.85a1.62,1.62,0,0,1,2-1.82l2.8.35c1.26.14,2,1.12,1.19,2a2.26,2.26,0,0,1-1.19.7.9.9,0,0,0-.63.91v11c0,.63.21.84.84.84h2.45a.86.86,0,0,0,.7-.35l1.33-1.82a1.69,1.69,0,0,1,2.66-.35c.91.77,2.1,1.82,3.22,2.87a1.36,1.36,0,0,1,.35,1.54l-.07.21a1.94,1.94,0,0,1-1.61.7h-9c-.63,0-.84.21-.84.84V30.69c0,.77.35,1,1.12.77l9.17-3.15h.14c.63-.07,1.05.14,1.19.7a1,1,0,0,1-.63,1.4l-5,2.24L655,35.24a.82.82,0,0,0-.49.77V57.93c0,3.08-.49,5.39-4.76,6.16a1.79,1.79,0,0,1-2.1-1.33,2,2,0,0,0-1-1.33,12,12,0,0,0-4.34-1.26,1,1,0,0,1-1-1.12.81.81,0,0,1,1-.91c1.89.21,5.74.42,6.72.42s1.26-.21,1.26-1.05V38.25c0-.56-.21-.7-.77-.49l-.84.35-5.88,2.6a.77.77,0,0,0-.35.34l-.49.84-.21.21a.92.92,0,0,1-1.33-.63v-.14Zm24.08-11.9a1.74,1.74,0,0,1-1.82-1.47c-.21-.91.14-1.47,1.19-1.47H679.4c.63,0,.84-.21.84-.84V14.8c0-.63-.21-.84-.84-.84H667.92a1.67,1.67,0,0,1-1.75-1.47c-.21-.91.21-1.4,1.12-1.4H679.4c.63,0,.84-.21.84-.84v-8a1.62,1.62,0,0,1,2-1.82l2.94.35c1.19.14,1.9,1.05,1.27,1.89a3.24,3.24,0,0,1-1.33.84c-.42.21-.71.42-.71.91v5.81c0,.63.21.84.84.84h6.1a.86.86,0,0,0,.7-.35,25.92,25.92,0,0,0,1.68-2,1.73,1.73,0,0,1,2.66-.28c1.05.77,2.31,2,3.64,3.08a1.29,1.29,0,0,1,.35,1.75,1.85,1.85,0,0,1-1.61.7H685.28c-.63,0-.84.21-.84.84v8.12c0,.63.21.84.84.84h9.81a.86.86,0,0,0,.7-.35l1.75-2.1a1.8,1.8,0,0,1,2.52-.28l.14.07c1,.84,2.45,2,3.64,3.15a1.29,1.29,0,0,1,.35,1.75,1.9,1.9,0,0,1-1.68.7Zm.42,12A1.74,1.74,0,0,1,662,37.27c-.21-.91.14-1.47,1.19-1.47h24.29c.64,0,.85-.21.85-.84V30.34a1.62,1.62,0,0,1,2-1.82l2.66.35c1,.14,1.89,1,1.4,1.89l-.14.14a4.18,4.18,0,0,1-1.12.56c-.42.21-.7.42-.7.91V35c0,.63.21.84.84.84h2c.28,0,.42-.14.63-.35l1.61-2a1.66,1.66,0,0,1,2.59-.28l3.36,3.15h.14c.56.49.7,1,.35,1.47V38a1.79,1.79,0,0,1-1.68.77h-9c-.63,0-.84.21-.84.84V57.93c0,3.15-.49,5.53-5.46,6.3a1.79,1.79,0,0,1-2.11-1.33l-.07-.14a5.85,5.85,0,0,0-.91-1.19h-.14a16,16,0,0,0-5.32-1.33,1,1,0,0,1-1-1.12.81.81,0,0,1,1-.91c2,.21,7.14.49,8.33.49s1.55-.21,1.55-1.05V39.58c0-.63-.21-.84-.85-.84Zm11.27,13.8c-1.12-3.36-4.2-7-7.07-9.74a.58.58,0,0,1,0-1l.14-.15a1.68,1.68,0,0,1,1.4-.21c7.56,2.6,10.08,6.52,10.08,9.39,0,2.24-1.61,3.57-3.57,2.8l-.21-.07a2,2,0,0,1-.77-.91Z"/><path class="cls-1" d="M737.11,30.34a6.82,6.82,0,0,1,2.6-1c1,0,2.15.45,2.15,1.65,0,1-1.45,1.86-3.2,2.56a63.27,63.27,0,0,1-12,3.1.54.54,0,0,0-.45.4l-3.45,12.7c-.2.75-.2.9.6.2,4.8-3.8,9.3-6.15,14.55-6.15,7.35,0,10.8,4.55,10.8,9.65,0,8.3-10.9,12.1-21.35,12.1-.55,0-1.2,0-1.8-.05a1.08,1.08,0,0,1-1-1,.81.81,0,0,1,.85-1,41.83,41.83,0,0,0,8.75-1.15c8.55-2.25,11.4-6.3,11.4-9.55,0-4.5-3.55-6.75-7.7-6.75-5.55,0-11.15,3.85-14.7,8.1a6.66,6.66,0,0,0-.7,1c-.55.85-1.1,1.7-1.75,1.7-1,0-2-1.85-2-3.35a2.72,2.72,0,0,1,.35-1.35l.7-1.65c1.1-2.55,2.6-8.65,3.65-12.7.15-.6-.05-.85-.65-.8-.75,0-1.5.1-2.3.1-4,0-5.6-.2-8.5-4.75a.82.82,0,0,1,.2-1.2.87.87,0,0,1,1.25.05,9.26,9.26,0,0,0,7.55,3,21.17,21.17,0,0,0,3-.14.54.54,0,0,0,.5-.45,48.2,48.2,0,0,0,1-5.86c.15-.7-.15-.89-.9-1.09a13.91,13.91,0,0,0-2.35-.46,1,1,0,0,1-.9-.95v-.09a1,1,0,0,1,.85-1,12.51,12.51,0,0,1,2.35-.25c2,0,5,1.6,5,2.85a1.68,1.68,0,0,1-.55,1.31,3.52,3.52,0,0,0-.8,1.39c-.35,1-.45,2.2-1,3.81l-.05.14c0,.16,0,.16.1.11a32.62,32.62,0,0,0,8.7-2.61Z"/><path class="cls-1" d="M767.91,27.94A1,1,0,0,1,768,26a11,11,0,0,1,2.45-.15c2.2.15,5.4,2.7,5.4,4.06a2.54,2.54,0,0,1-.4,1.25,5.29,5.29,0,0,0-.85,2.25A172.52,172.52,0,0,0,773,53.49c0,6.25,1.8,8.65,7.2,8.65a22.5,22.5,0,0,0,18.25-10l0-.15a1,1,0,0,1,1.25-.2.89.89,0,0,1,.3,1.25c-4,7.6-11.45,12.55-19.7,12.55-6.75,0-10.05-3.3-10.05-11.85,0-5.05.45-11.65.85-16.55.2-2.8.35-5.16.35-6.16,0-1.55-.25-1.8-1-2.2l-.15,0a6.48,6.48,0,0,0-2.35-.84Zm15.55,6.35c-.45-.25-.5-.7-.2-1.2a1,1,0,0,1,1.2-.31A21,21,0,0,1,789.71,36a5.2,5.2,0,0,1,2.25,3.8c-.05.85-.5,1.35-1.25,1.35s-1.2-.7-2-1.75l-.7-.9a21.51,21.51,0,0,0-4.45-4.2Zm4.5-4.2a.65.65,0,0,1-.2-1.06,1.11,1.11,0,0,1,1.25-.34,20.06,20.06,0,0,1,5.35,2.84c1.6,1.25,2.4,2.61,2.4,3.95,0,.91-.45,1.41-1.2,1.41-.55,0-1-.5-1.8-1.45l-.9-1.1a25.45,25.45,0,0,0-4.8-4.25Z"/><path class="cls-1" d="M826.06,45.74c.15.2.25.25.45.15,5.25-2.55,10-4.5,14.1-4.5,4.65,0,7.75,2.7,7.75,6.7,0,4.3-3.7,6.5-8.1,6.5a10.72,10.72,0,0,1-8.1-4.15.63.63,0,0,1,0-.9l.1-.1a.83.83,0,0,1,1,.05,11.09,11.09,0,0,0,6.85,2.3c3.25,0,5.4-1.55,5.4-4.3,0-2.55-2.15-4.2-5.15-4.2-3.65,0-8,2.05-12.25,4.5-.35.25-.45.5-.2.8a114.57,114.57,0,0,1,5.2,10.9,15.49,15.49,0,0,1,1.3,5.2c0,1.25-.55,2.15-1.55,2.15-.75,0-1.25-.45-1.55-1.7L831,63.69c-.25-1-.55-2.4-1.05-3.95a62.87,62.87,0,0,0-4.3-9.85c-.2-.3-.45-.4-.75-.2-.6.35-1.2.75-1.75,1.1l-.85.55-1.4,1a3.65,3.65,0,0,1-2.15,1,5.25,5.25,0,0,1-3.55-2.3,4.22,4.22,0,0,1-.5-2.2.78.78,0,0,1,.3-.6.53.53,0,0,1,.25-.1.72.72,0,0,1,.65.15l0,.1c.55.75,1.15,1.4,1.9,1.4a8.45,8.45,0,0,0,3.25-1.15l2.3-1.15c.4-.25.45-.5.15-.85-.55-.75-1-1.25-1.4-1.8l-.35-.45a3,3,0,0,1-.8-2.8,2.82,2.82,0,0,1,2.9-2.1l.5-.05c3-.3,5.95-.3,7.15-.45h.1c.25-.1.35-.25.25-.5-.4-.75-1.5-1.65-3.5-2.4a.62.62,0,0,1-.45-.8c0-.06,0-.06.05-.15a1,1,0,0,1,.95-.5,8.64,8.64,0,0,1,5.5,2.5,4.4,4.4,0,0,1,1.25,3c0,1-.45,1.55-1.25,1.55a2.32,2.32,0,0,1-1-.2h-.1l-1.1-.25h-.1c-.65,0-1.8-.1-2.95-.1a33.76,33.76,0,0,0-4.05.2c-1,.15-1.4.2-1.4.75a12.4,12.4,0,0,0,2.2,3.45Z"/><path class="cls-1" d="M881.36,30.48c.5-.2.5-.2.6-.29a0,0,0,0,0,0-.05,3.19,3.19,0,0,1,1.5-.45,1.78,1.78,0,0,1,1.7,1.65c0,1-1.15,1.64-1.8,2a36.82,36.82,0,0,1-7.5,2.5.43.43,0,0,0-.4.4c-1.75,5.6-5.4,14.6-9.5,20.35-.6.85-1.1,1.55-2.1,1.55s-1.35-1-1.35-1.9a4.25,4.25,0,0,1,.85-2.4c2.75-3.8,7-10,9.2-16.45.2-.65,0-.9-.65-.8-1,0-1.85.1-2.8.1-3.4,0-5.2-1.25-6.85-4.3a.81.81,0,0,1,.2-1.16,1,1,0,0,1,1.15,0l.1.09c1.6,1.61,2.85,2.41,6,2.41a25.93,25.93,0,0,0,3.7-.4.54.54,0,0,0,.45-.45,37.15,37.15,0,0,0,.8-5.11,1.16,1.16,0,0,0-.8-1.4h-.1a15.52,15.52,0,0,0-1.8-.5.77.77,0,0,1-.7-.85A.85.85,0,0,1,872,24a11.08,11.08,0,0,1,2.2-.3,7.17,7.17,0,0,1,3.5.8c.8.55.65,1.35-.8,6.81-.2.64.15.94.8.69a24.91,24.91,0,0,0,3.55-1.55Zm8.7,23.06a.54.54,0,0,0,.45.5,25.33,25.33,0,0,1,7.65,3.65c2.15,1.45,3.1,2.9,3.1,4.05,0,.95-.35,1.65-1.2,1.65-.65,0-1.2-.45-1.95-1.2l-.4-.4a19.21,19.21,0,0,0-6.65-4.35c-.5-.2-.7,0-.65.45a5.78,5.78,0,0,1,.05.85c0,4.2-3.1,6.8-8.1,6.8-5.2,0-8-2.6-8-5.55,0-4.05,4.05-6.6,10.65-6.6h1.6c.55,0,.7-.15.65-.7l-.1-.8a43.7,43.7,0,0,1-.3-5,8.21,8.21,0,0,1,2.5-6.35,16,16,0,0,1,4.9-2.75l.7-.3c.9-.4.7-.85,0-1.4a8.26,8.26,0,0,0-5-1.41.86.86,0,0,1-1-.94,1,1,0,0,1,1-1.06h1.1a11.85,11.85,0,0,1,4.95.86c2.85,1.14,4.45,3.35,4.45,5.2,0,1.25-.45,1.9-1.45,1.9a2.93,2.93,0,0,1-1.15-.2,8.9,8.9,0,0,0-2.55-.3h-.1a8,8,0,0,0-4.65,2,5.21,5.21,0,0,0-1.4,4.25c0,1,.25,2.65.5,4.6Zm-2.5,3.2c0-.25,0-.3-.3-.35a22.22,22.22,0,0,0-3.75-.35c-4.6,0-7,1.75-7,3.45s1.65,2.9,5.25,2.9c4.9,0,5.8-2.4,5.8-5.25Z"/><path class="cls-1" d="M927.16,56.69a3,3,0,0,0,.1,2.3,1.58,1.58,0,0,1,.2.95,1.71,1.71,0,0,1-1.75,1.75,3.24,3.24,0,0,1-1.45-.35c-3.85-1.9-9.2-6.75-9.35-16.2a44.06,44.06,0,0,1,.15-5.85c.1-1,.1-2.1.1-2.85,0-2.46-.1-3.35-3.55-5.85a.73.73,0,0,1-.15-1.06.92.92,0,0,1,1-.45,10.81,10.81,0,0,1,2.2.76c1.7.85,4.25,3.05,4.25,5.14a12.25,12.25,0,0,1-.55,3.26,24.38,24.38,0,0,0-.95,7c0,6.3,3,9.8,5.15,11.15h.1a1.05,1.05,0,0,0,1.4-.25l0-.1a66,66,0,0,0,4.3-8.4.79.79,0,0,1,1.2-.5.84.84,0,0,1,.55,1.2l-.65,1.7a67.68,67.68,0,0,0-2.4,6.55Zm22-6c-.3-2.25-.9-6.55-3-9.7-1.6-2.45-3.9-3.9-6.9-5.05a.89.89,0,0,1-.6-1.25c.15-.55.55-.71,1.2-.71h.1a15.72,15.72,0,0,1,8.2,4.86,19.73,19.73,0,0,1,4.4,11.55c0,2-.65,2.65-1.8,2.65-.85,0-1.4-.7-1.55-1.95Z"/><path class="cls-1" d="M969.72,44.49a10.19,10.19,0,1,1-10,10.15A10.11,10.11,0,0,1,969.72,44.49Zm-7.35,10.15a7.32,7.32,0,0,0,14.63,0,7.32,7.32,0,0,0-14.63,0Z"/></g></g></svg>