<svg xmlns="http://www.w3.org/2000/svg" viewBox="0 0 391.45 45.1"><defs><style>.cls-1{fill:#fff;}</style></defs><title>アセット 34</title><g id="レイヤー_2" data-name="レイヤー 2"><g id="レイヤー_1-2" data-name="レイヤー 1"><path class="cls-1" d="M15.25,36.1,28.1,16h2.65L15.35,40,0,16H2.35Z"/><path class="cls-1" d="M34.1,40V16H65.65V29H36.1v9H63.65V36.4h2V40Zm2-22v9H63.65V18Z"/><path class="cls-1" d="M98.7,16v9.6h-2V18h-22V40h-2V16Z"/><path class="cls-1" d="M105.1,38h21.6V29H103.1V16h25.6v2.4h-2V18H105.1v9h23.6V40H103.1V37.4h2Z"/><path class="cls-1" d="M139.3,7.9h-2.5V5.4h2.5Zm-.25,8.1V40h-2V16Z"/><path class="cls-1" d="M179.7,40H148.15V16H179.7Zm-29.55-2H177.7V18H150.15Z"/><path class="cls-1" d="M214.2,16V40h-2V18h-23V40h-2V16Z"/><path class="cls-1" d="M251.35,43.1v2H220.5v-2Z"/><path class="cls-1" d="M257.75,38H282.7V21H267V19h15.7V2H257.75V4.55h-2V0H284.7V40H255.75V35.45h2Z"/><path class="cls-1" d="M297.4,40H295V37.6h2.4Z"/><path class="cls-1" d="M306.9,40V0h31.55V40Zm2.4-2h26.75V2H309.3Z"/><path class="cls-1" d="M350.4,40H348V37.6h2.4Z"/><path class="cls-1" d="M359.9,40V0h31.55V40Zm2.4-2h26.75V2H362.3Z"/></g></g></svg>