<svg xmlns="http://www.w3.org/2000/svg" viewBox="0 0 648.25 66.86"><defs><style>.cls-1{fill:#fff;}</style></defs><title>アセット 33</title><g id="レイヤー_2" data-name="レイヤー 2"><g id="レイヤー_1-2" data-name="レイヤー 1"><path class="cls-1" d="M53.07,16.33a1.38,1.38,0,0,1,.14,2.31h-.14a10.12,10.12,0,0,1-1.82.77.85.85,0,0,0-.63.91V61.63a.79.79,0,0,1-.08.42l-.13.21-.21.35a9.61,9.61,0,0,1-2.88,1.19.42.42,0,0,1-.28-.07H47c-.14-.07-.35-.14-.42-.35a1,1,0,0,1-.14-.49V59.6c0-.63-.21-.84-.84-.84H5c-.63,0-.84.21-.84.84v2.87c0,.63-1.47,1.82-3.22,1.82H.49A.48.48,0,0,1,0,63.8V15.91c0-1.54.84-2.1,2.24-1.4l2,1a.89.89,0,0,0,.42.07H22c.63,0,.84-.21.84-.84V2.4a1.62,1.62,0,0,1,2-1.82l2.73.28c1.26.14,2,1,1.33,2L28.84,3a2.8,2.8,0,0,1-1.12.7.9.9,0,0,0-.63.91V14.72c0,.63.21.84.84.84H45.29c.28,0,.42-.14.63-.35L47,13.88a1.78,1.78,0,0,1,2.52-.28Zm-48.94,18c0,.63.21.84.84.84H22c.63,0,.84-.21.84-.84v-15c0-.63-.21-.84-.84-.84H5c-.63,0-.84.21-.84.84ZM4.13,55c0,.63.21.84.84.84H22c.63,0,.84-.21.84-.84V38.87c0-.63-.21-.84-.84-.84H5c-.63,0-.84.21-.84.84Zm23.8-36.55c-.63,0-.84.21-.84.84V34.32c0,.63.21.84.84.84H45.57c.63,0,.84-.21.84-.84v-15c0-.63-.21-.84-.84-.84ZM27.09,55c0,.63.21.84.84.84H45.57c.63,0,.84-.21.84-.84V38.87c0-.63-.21-.84-.84-.84H27.93c-.63,0-.84.21-.84.84Z"/><path class="cls-1" d="M64.26,59.6c-.77-1.4-.28-2.45,1.19-2.81l6-1.54a.65.65,0,0,0,.63-.76V2.61a1.62,1.62,0,0,1,2-1.82l2.73.28h.14c1,.28,1.82,1,1.26,1.89a2.23,2.23,0,0,1-1.33,1c-.42.14-.7.35-.7.84v16.8c0,.63.21.84.84.84H87.08c.28,0,.42-.14.63-.35l1.89-2.38a1.66,1.66,0,0,1,2.59-.28c1.19,1.05,2.73,2.17,4.06,3.5l.14.14a1.11,1.11,0,0,1,.28,1.54,2.22,2.22,0,0,1-1.82.77H77c-.63,0-.84.21-.84.84V53c0,.76.28,1,1,.83l11.9-3.36c1.75-.49,3.43-1.05,5.32-1.54h.14a.85.85,0,0,1,1.19.63v.14a1.06,1.06,0,0,1-.7,1.26c-6.44,2.8-14.91,6.37-26.46,10.86a1.21,1.21,0,0,0-.42.42,6.77,6.77,0,0,1-.49.84c-.56.49-1.12.21-1.61-.35L66,62.54Zm42.42,3.15c-5.39,0-7.14-1.4-7.14-5.6V2.61a1.62,1.62,0,0,1,2-1.82l2.87.28h.14c1,.28,1.82,1,1.26,1.89a3.25,3.25,0,0,1-1.4.91c-.42.21-.7.42-.7.91V26.34c0,1.05.35,1.33,1.19.77a99.27,99.27,0,0,0,15.48-11.69,1.69,1.69,0,0,1,2.59.07l2.73,2.87c.77.84.63,1.82-.28,1.89a2.55,2.55,0,0,1-1.2-.14.7.7,0,0,0-.83.07,96.73,96.73,0,0,1-19.19,10.15.79.79,0,0,0-.49.77V56.24c0,1.61.42,2.1,3.43,2.1h6.72c3.29,0,5.46-.14,6.58-.14h.15a1.55,1.55,0,0,0,1.12-.77c.55-1.27,1.33-6.52,2.09-11.28V46c.08-.42.36-.56.78-.56a.63.63,0,0,1,.63.63L125.45,57a.79.79,0,0,0,.49.77,2.27,2.27,0,0,1,1.47,2c0,2.31-2.52,2.94-13.52,2.94Z"/><path class="cls-1" d="M178,30.12a6.07,6.07,0,0,0,2.52-.7,2.22,2.22,0,0,1,1.12-.28c2,0,4.69,1.19,4.69,2.94,0,1.19-.28,2-2.31,2-1.68,0-4.83-.07-7.28.14l-4.48.42c-1.12.14-1.26.56-.35,1.33A2.53,2.53,0,0,1,173,37.68a2.66,2.66,0,0,1-.63,1.68,5.93,5.93,0,0,0-.7,1,43.24,43.24,0,0,1-19.46,21.92,1.2,1.2,0,0,1-1.61-.14L150.5,62a1,1,0,0,1,.21-1.33c10.08-7.08,16.94-18.21,16.94-23.25a2.67,2.67,0,0,0-1.33-2,.79.79,0,0,0-.56-.21c-.84.07-1.68.28-2.52.42l-1.26.21h-.14a8.3,8.3,0,0,1-2.24.35,4.28,4.28,0,0,1-2.1-1c-.42-.35-.77-.28-1.12.21A45.78,45.78,0,0,1,145.81,45a1.06,1.06,0,0,1-1.4,0l-.14-.14a1,1,0,0,1,.07-1.26c8.12-7.07,14-17.29,14-20.3,0-.84-.63-1.68-1.89-2.66a1,1,0,0,1-.21-1.19v-.14a1,1,0,0,1,1.12-.56h.14a14,14,0,0,1,3,1.12c1.68.84,3.43,2.73,3.43,3.85a2.19,2.19,0,0,1-.84,1.68,3,3,0,0,0-.77.84c-1.05,1.68-2.1,3.78-3.15,5.46-.35.35-.21.49.21.56h.7a158.56,158.56,0,0,0,17-2l.77-.14Z"/><path class="cls-1" d="M211.75,25.71a1.46,1.46,0,0,1-.91-.91c-1.33-2.66-4.62-5.53-7.49-7.28a.75.75,0,0,1-.28-1l.14-.14a1.51,1.51,0,0,1,1.19-.35c7.77,1.12,10.43,4.83,10.43,7.28a2.29,2.29,0,0,1-2.94,2.45ZM208.53,60.3a48.12,48.12,0,0,0,.49-6.66c0-3.36-.49-5.6-1.4-6.23a6.15,6.15,0,0,0-2.45-.77,1.16,1.16,0,0,1-1.12-1.33,1.05,1.05,0,0,1,1.19-1.12h2.17c.77,0,.84-.07,1.4-1.19,1.12-2.59,1.33-2.8,13.37-30.24a1,1,0,0,1,1.26-.63.75.75,0,0,1,.56,1l-5.74,16c-2.1,5.88-4,10.64-4.48,12.32a22.73,22.73,0,0,0-1.05,5.88,19.27,19.27,0,0,0,.56,3.64,28,28,0,0,1,.91,8.34c-.21,3.08-1.26,5-3.57,5-1.4,0-2.1-1.61-2.1-3.85Zm7.63-50.48a23.18,23.18,0,0,0-7.56-7.91c-.56-.28-.56-.7-.21-1.12a1.69,1.69,0,0,1,1.4-.42c7.91,1.68,10.5,5.39,10.5,8a2.41,2.41,0,0,1-3.08,2.52h-.14a2.82,2.82,0,0,1-.91-.91Zm21.35,39.9c.84.49,1.05,1.54.42,1.89-.14.07-.14.07-.21.07a3.82,3.82,0,0,1-1.26.07,1,1,0,0,0-.91.28c-3.92,4.28-11.48,9.25-18.34,12a1.09,1.09,0,0,1-1.47-.35c-.35-.56-.28-1,.21-1.33a65.1,65.1,0,0,0,16-13.87,1.7,1.7,0,0,1,2.38-.49Zm17.08-26.18c-.63,0-.84.21-.84.84V40.76c0,.63.21.84.84.84h4.13c.28,0,.42-.14.63-.35l1.75-2.1a1.77,1.77,0,0,1,2.6-.28c1.05.91,2.45,2.1,3.64,3.22a1.45,1.45,0,0,1,.35,1.61l-.07.21a2,2,0,0,1-1.61.63H218.54a1.74,1.74,0,0,1-1.82-1.47c-.21-.91.14-1.47,1.19-1.47h8.33c.63,0,.84-.21.84-.84V9c0-1.54,1-2.17,2.38-1.68l3.15,1.12a.77.77,0,0,0,.56,0c7.49-2,15.82-5,20.65-7.56a1.82,1.82,0,0,1,2,.21l3.08,2.59c.91.77,1.05,1.89-.07,2.1a3.93,3.93,0,0,1-2-.14.79.79,0,0,0-.56-.07,148.94,148.94,0,0,1-24.43,5.6.78.78,0,0,0-.7.84v7.84c0,.63.21.84.84.84h24.57a.86.86,0,0,0,.7-.35,23.76,23.76,0,0,1,1.68-2.1,1.7,1.7,0,0,1,2.59-.28l3.79,3.15a1.17,1.17,0,0,1,.35,1.61,2,2,0,0,1-1.82.84ZM231.21,40.76c0,.63.21.84.84.84h16.73c.63,0,.84-.21.84-.84V24.38c0-.63-.21-.84-.84-.84H232.05c-.63,0-.84.21-.84.84Zm31.86,22.69c-3.15-4.2-10.3-10.16-15.69-13.66l-.14-.14a.73.73,0,0,1-.14-1l.14-.14a1.52,1.52,0,0,1,1.19-.28c14.07,4.7,18.63,10.51,18.63,13.66a2.13,2.13,0,0,1-3,2.17h-.13a1,1,0,0,1-.7-.49Z"/><path class="cls-1" d="M281.89,40c1.12.35,1.68,1.26.91,1.89a2.92,2.92,0,0,1-1.26.56,1.25,1.25,0,0,0-.7.63,54.81,54.81,0,0,1-6.86,15,.94.94,0,0,1-1.33.28.92.92,0,0,1-.49-1.27,68.68,68.68,0,0,0,5.11-16.31,1.7,1.7,0,0,1,2.31-1.47Zm-1.61-19.11c-1.19-2.73-4.2-6.09-6.93-8.26a.79.79,0,0,1-.14-1.12l.14-.14a1.5,1.5,0,0,1,1.33-.21,18.31,18.31,0,0,1,3.64,1.54c.49.35.84.21,1.19-.35,1.89-3.08,3.85-7,5.74-10.92A1.66,1.66,0,0,1,287.7.51l3,1.4c1,.42,1.33,1.4.49,2h-.07a3.35,3.35,0,0,1-1.26.42,1,1,0,0,0-.7.42c-2.24,3-4.69,6.09-7.42,9.1a.69.69,0,0,0,.07,1.19A6.08,6.08,0,0,1,284,19.55c0,1.89-1.26,3.08-2.87,2.31a1.25,1.25,0,0,1-.84-.84ZM273.7,33.13c-.63-1.47-.07-2.52,1.61-2.59.84,0,1.75-.07,2.66-.14.35,0,.7-.07,1-.07s.49-.14.7-.42c4-6.09,8.89-13.65,12.25-19.88a1.76,1.76,0,0,1,2.38-.77l2.8,1.4c1.12.49,1.47,1.54.49,2.1a3.44,3.44,0,0,1-1.4.35,1.15,1.15,0,0,0-.77.49,140.06,140.06,0,0,1-11.62,15.12c-.84.91-.63,1.4.63,1.33l8.75-.7c.84-.07,1.12-.42.7-1.12a38.83,38.83,0,0,0-2.87-4.34l-.14-.14a.58.58,0,0,1,.28-1h.14a.94.94,0,0,1,1.12.07h.14c6.23,4,8.12,8.05,8.12,10.78,0,2.24-1.47,3.64-3.15,2.59l-.21-.07a1.62,1.62,0,0,1-.56-.91,20.77,20.77,0,0,0-1.05-3.15.74.74,0,0,0-.91-.49l-5.11,1a.78.78,0,0,0-.7.84v29.2c0,.49-1.33,1.75-3.22,1.75h-.14l-.14-.07a.44.44,0,0,1-.42-.28l-.07-.14a.89.89,0,0,1-.07-.42V34.32c0-.7-.28-.91-1-.77l-2.24.35-4.55.77a.87.87,0,0,0-.56.42,1.1,1.1,0,0,1-.49.49l-.14.14a1.11,1.11,0,0,1-1.54-.7Zm23,19.18c-.35-3.85-2.38-8.68-4.34-12.18-.28-.42-.14-.84.42-1.05a1.86,1.86,0,0,1,1.05.07l.28.14c5,4.2,6.79,8.33,6.79,11.13s-1.82,4.35-3.64,3.15a1.26,1.26,0,0,1-.56-1.12Zm4.76-37.73a1.74,1.74,0,0,1-1.82-1.47c-.21-.91.14-1.47,1.19-1.47h14.07c.63,0,.84-.21.84-.84V2.4A1.64,1.64,0,0,1,317.66.58h.14l2.52.21h.14c1.05.28,1.82,1,1.19,1.82l-.14.14a2,2,0,0,1-1,.63.9.9,0,0,0-.63.91V10.8c0,.63.21.84.84.84h8.47c.29,0,.42-.14.63-.35l1.69-2.1A1.59,1.59,0,0,1,334,9c1,.77,2.45,2,3.78,3.15a1.29,1.29,0,0,1,.35,1.75,1.85,1.85,0,0,1-1.61.7H320.74c-.63,0-.84.21-.84.84v9.73c0,.63.21.84.84.84h7a.85.85,0,0,0,.64-.35c.55-.63,1-1.33,1.67-2.1a1.59,1.59,0,0,1,2.45-.21,33.11,33.11,0,0,1,3.72,3.15,1.29,1.29,0,0,1,.35,1.75,1.9,1.9,0,0,1-1.68.7H303.17a1.74,1.74,0,0,1-1.82-1.47c-.21-.91.14-1.47,1.19-1.47h12.39c.63,0,.84-.21.84-.84V15.42c0-.63-.21-.84-.84-.84Zm2.66,22.82c0-1.68,1-2.24,2.38-1.61l2.1,1a.89.89,0,0,0,.42.07h19a.75.75,0,0,0,.63-.28l.7-.77.08-.14a1.52,1.52,0,0,1,2.3-.21l2.39,1.82a1.38,1.38,0,0,1,.14,2.24,3.61,3.61,0,0,1-1.12.35.76.76,0,0,0-.56.77v21c0,.35-1.48,1.68-3.23,1.68h-.13l-.15-.07a.44.44,0,0,1-.42-.28l-.07-.14a.89.89,0,0,1-.07-.42V60.09c0-.63-.2-.84-.84-.84H309c-.63,0-.84.21-.84.84v2.17c0,.56-1.19,1.75-3.15,1.75h-.14l-.14-.07a.44.44,0,0,1-.42-.28l-.07-.14a.89.89,0,0,1-.07-.42Zm4,18.13c0,.63.21.84.84.84h18.76c.64,0,.84-.21.84-.84V40.62c0-.63-.2-.84-.84-.84H309c-.63,0-.84.21-.84.84Z"/><path class="cls-1" d="M368.34,53c4.48-1.48,9.52-3.16,14.07-4.49a.81.81,0,0,1,1.19.7,1,1,0,0,1-.7,1.4c-7.28,3-16.59,7-29.26,12a.72.72,0,0,0-.42.35l-.35.84-.14.14a1,1,0,0,1-1.4-.49l-1.47-2.45c-.77-1.33-.35-2.32,1.19-2.73l8.47-2.53a.79.79,0,0,0,.56-.84V34.67c0-1.12-.42-1.33-1.33-.7a94.37,94.37,0,0,1-14.21,7.84h-.14a1.1,1.1,0,0,1-1.4-.56c-.35-.63-.21-1.12.35-1.33h.14c10.64-5.67,20.09-13.65,26.39-22.26.63-.77.28-1.26-.7-1.26H345.31a1.59,1.59,0,0,1-1.68-1.33l-.07-.14a1,1,0,0,1,1.05-1.4h27.65c.63,0,.84-.21.84-.84V1.84a1.62,1.62,0,0,1,2-1.82l2.66.28h.14c.91.28,1.75,1,1.19,1.82a2.28,2.28,0,0,1-1.12.77.9.9,0,0,0-.63.91v8.89c0,.63.21.84.84.84h19.46c.29,0,.42-.14.63-.35L400.2,11a1.8,1.8,0,0,1,2.59-.21c1,.77,2.45,2,3.85,3.15A1.29,1.29,0,0,1,407,15.7a1.9,1.9,0,0,1-1.68.7h-26.4c-.7,0-.91.28-.77,1a68.12,68.12,0,0,0,5.18,16.87c.35.63.7.77,1.26.28a120.76,120.76,0,0,0,13.16-12.6,1.86,1.86,0,0,1,2.46-.42l3.14,2c.85.56,1.06,1.68.15,2a2.47,2.47,0,0,1-1.27.14c-.34-.07-.63-.07-.76.14a117.35,117.35,0,0,1-16,10.92c-.49.28-.63.63-.35,1.12A48.58,48.58,0,0,0,408,58.55a.75.75,0,0,1,.49,1,1,1,0,0,1-.91.77,4.12,4.12,0,0,0-2.52,1.26,2,2,0,0,1-2.6.56c-14.56-8.2-22.75-22.27-26.11-42.43-.21-1.4-.7-1.54-1.54-.35A67.88,67.88,0,0,1,364.63,29.7c-.21.21-.35.35-.35.63V53.08c0,.84.35,1.12,1.12.84Z"/><path class="cls-1" d="M415,36.36a.45.45,0,0,1,.65.2l.2.35V37c.8,1,1.65,2.3,2.95,2.3,3.15,0,25.45-2.5,29.45-2.9a2,2,0,0,0,.8-.35l.15-.05a2,2,0,0,1,1-.45c1.4,0,4.85,2.8,4.85,4.2,0,1-.65,1.15-1.4,1.4a4.4,4.4,0,0,0-1.75.85,132.49,132.49,0,0,1-13.75,12.15c-.45.3-.45.6-.1.9,2.55,2.45,4,5,4,7.45a1.64,1.64,0,0,1-1.55,1.75c-.7,0-1-.65-1.75-2a39.65,39.65,0,0,0-5.5-7.55,41.08,41.08,0,0,0-6.8-5.85.84.84,0,0,1-.2-1.25.91.91,0,0,1,1.25-.3,42.64,42.64,0,0,1,7.85,5.2.42.42,0,0,0,.7,0,82.53,82.53,0,0,0,13-12.95v-.1c.15-.25.05-.35-.25-.35-4.95.2-22,2.35-26.7,3.2a3.7,3.7,0,0,0-1.4.55,3.39,3.39,0,0,1-1.6.55c-1.45,0-3.65-2-4.2-3.3a8,8,0,0,1-.7-2.65.85.85,0,0,1,.55-1Z"/><path class="cls-1" d="M466.78,41.61a.88.88,0,0,1,1.15-.5,35,35,0,0,1,5.95,2.1c3.1,1.45,4.6,3.15,4.6,5a1.51,1.51,0,0,1-1.4,1.6c-.8,0-1.35-.55-2.3-1.5a14.6,14.6,0,0,0-2.5-2.2,35.6,35.6,0,0,0-5.1-3.2.9.9,0,0,1-.45-1.2Zm9.15,24.25a2.55,2.55,0,0,1-1.8,1c-1.35,0-4.65-2.15-5.7-3.6a10.46,10.46,0,0,1-.95-2.75.15.15,0,0,0-.05-.1.94.94,0,0,1,.4-.85.6.6,0,0,1,.9.1c1.35,1.6,2.7,3,4.15,3,2.85,0,20.15-10,29.35-22.55a1,1,0,0,1,1.3-.25.77.77,0,0,1,.35,1.2v.1c-6,9.75-16.4,18.2-27,23.9l-.1.1a2.43,2.43,0,0,0-.7.55Zm-2.35-33.7a1,1,0,0,1,1.25-.5,34.18,34.18,0,0,1,6.7,3.05q3.3,2.17,3.3,4.35c0,.95-.5,1.7-1.4,1.7-.6,0-1.3-.7-2.25-1.7a34.57,34.57,0,0,0-2.65-2.45,47.25,47.25,0,0,0-4.6-3.15A.91.91,0,0,1,473.58,32.16Zm25.05,4.05c-.2-.3-.5-.6-.75-1a25.54,25.54,0,0,0-4.05-3.95.79.79,0,0,1-.2-1.2l.1-.1c.25-.4.65-.5,1.2-.25a18.46,18.46,0,0,1,4.85,3.15c1.35,1.35,1.85,2.3,1.85,3.35s-.45,1.5-1.3,1.5c-.55,0-1.1-.65-1.65-1.4ZM503,31.46a22.78,22.78,0,0,0-4-3.65l-.1-.1c-.45-.25-.45-.65-.1-1.15a1,1,0,0,1,1.2-.3,18.35,18.35,0,0,1,4.9,2.9c1.35,1.2,1.9,2.15,1.9,3.3,0,.95-.45,1.5-1.25,1.5-.65,0-1.05-.6-1.65-1.35Z"/><path class="cls-1" d="M548.84,29.56c-.77,0-1,.28-.77,1.05,2.8,10.71,10.22,21.42,29,29.27a.53.53,0,0,1,.28.07c.35.35.56.7.49,1a1,1,0,0,1-.84.84,4.08,4.08,0,0,0-2.53,1.12c-.84.91-1.75,1.4-2.87.84C553.81,55,548.28,41.6,546,30c-.07-.35-.14-.42-.49-.42A.49.49,0,0,0,545,30c-2.59,14.21-9.17,25.69-29.75,33.89a1.44,1.44,0,0,1-1.82-.49l-.07-.14a1,1,0,0,1,.49-1.54c18.13-8.41,24.43-18.56,26.6-31.16.14-.7-.14-1-.84-1H518.46a1.62,1.62,0,0,1-1.75-1.33l-.07-.14c-.35-.91,0-1.47,1.12-1.47H540.3c.49,0,.7-.21.77-.7a136.8,136.8,0,0,0,.63-15.33v-.7c0-.42-.14-.56-.56-.56H516.08A1.59,1.59,0,0,1,514.4,8l-.07-.14a1,1,0,0,1,1-1.4h51.38c.28,0,.42-.14.63-.35l2-2.38.07-.14c.84-.63,1.68-.91,2.46-.14H572l4.2,3.43a1.37,1.37,0,0,1,.42,1.61l-.07.21a2.23,2.23,0,0,1-1.75.63H547.23c-.63,0-.84.21-.84.84-.21,5.67-.21,10.5-.77,15.47-.07.7.14,1,.84,1h18a.76.76,0,0,0,.63-.28c.63-.77,1.33-1.54,2-2.38a1.87,1.87,0,0,1,2.59-.28l.14.07c1.06.84,2.52,2,3.93,3.36.63.63.7,1.19.34,1.75a1.83,1.83,0,0,1-1.6.7Z"/><path class="cls-1" d="M583.28,35.58a.83.83,0,0,1-.14-1.26C589,26.13,594.76,14,598.26,1.49A1.64,1.64,0,0,1,600.57.23l3.22,1c1.12.35,1.68,1.33.91,2a4.06,4.06,0,0,1-1.47.7,1,1,0,0,0-.7.56,109.43,109.43,0,0,1-5.81,13.09c-.21.42-.07.63.28.77l.63.28c.84.35,1.33,1.05.77,1.68l-.14.14a1.47,1.47,0,0,1-.77.49,1.05,1.05,0,0,0-.7,1V62.26a.76.76,0,0,1-.07.35h-.07a.53.53,0,0,1-.14.35,4.8,4.8,0,0,1-2.94,1.33h-.14l-.14-.07a.44.44,0,0,1-.42-.28l-.07-.14a1,1,0,0,1-.14-.42V27.88c0-1.82-.56-2-1.61-.42a66.74,66.74,0,0,1-6.3,8,1.06,1.06,0,0,1-1.26.14Zm64.06,25.35a5.15,5.15,0,0,0-2.17,2,2.12,2.12,0,0,1-2.25,1.19c-10-1.68-18.27-4.69-24.5-9.46a.66.66,0,0,0-1,.08,45.43,45.43,0,0,1-17.85,9.38,1.1,1.1,0,0,1-1.4-.63.53.53,0,0,1-.07-.28,1,1,0,0,1,.7-1.26c7.49-2.59,12.46-5.67,16-9.53a.73.73,0,0,0,0-1.12,34,34,0,0,1-6.44-9.8.74.74,0,0,1,.35-1.05c.14-.07.14-.07.21-.07a1.06,1.06,0,0,1,1.12.42,27.5,27.5,0,0,0,6.72,7.77c.42.42.77.35,1.12-.14a26.29,26.29,0,0,0,3.57-10.57c.07-.7-.14-1-.84-1H609.88c-.63,0-.84.21-.84.84V39c0,.63-1.61,1.68-3.29,1.68h-.14l-.14-.07a.44.44,0,0,1-.42-.28L605,40.2a.89.89,0,0,1-.07-.42V19.62c0-1.47.91-2.1,2.24-1.4l1.89,1a.89.89,0,0,0,.42.07h11.62c.63,0,.84-.21.84-.84V13.11c0-.63-.21-.84-.84-.84H604.14a1.67,1.67,0,0,1-1.75-1.47c-.21-.91.21-1.4,1.12-1.4h17.57c.63,0,.84-.21.84-.84V1.91a1.62,1.62,0,0,1,2-1.82l2.66.28h.14c1.12.28,1.82,1,1.26,1.89a3.32,3.32,0,0,1-1.26.84c-.42.21-.7.42-.7.91V8.56c0,.63.21.84.84.84h11.2a.86.86,0,0,0,.7-.35L640.54,7a1.82,1.82,0,0,1,2.59-.28,42.67,42.67,0,0,1,3.79,3.22l.14.14a1.11,1.11,0,0,1,.28,1.54,1.9,1.9,0,0,1-1.68.7H626.89c-.63,0-.84.21-.84.84v5.32c0,.63.21.84.84.91H637.6a.76.76,0,0,0,.63-.28l1-1a1.8,1.8,0,0,1,2.53-.21l2.8,2.17c.91.7,1,1.82,0,2.31a4,4,0,0,1-1.2.42.78.78,0,0,0-.63.84V38.38a.87.87,0,0,1-.06.35h-.07a.59.59,0,0,1-.14.35,5.55,5.55,0,0,1-3,1.4h-.13l-.15-.07a.45.45,0,0,1-.49-.35V40a.76.76,0,0,1-.07-.35v-2c0-.63-.2-.84-.84-.84h-11.2c-.56,0-.77.21-.84.77a29.5,29.5,0,0,1-4.76,13c-.35.42-.28.77.28,1.12,6.72,4.2,15.54,6.45,26.19,7.22a.91.91,0,0,1,.84.91,1,1,0,0,1-.77,1ZM609.88,22.14c-.63,0-.84.21-.84.84V33.13c0,.63.21.84.84.84h11.2c.56,0,.77-.21.84-.77V23c0-.63-.21-.84-.84-.84Zm16.17,10.92c-.07.63.21.91.84.91h10.85c.64,0,.84-.21.84-.84V23c0-.63-.2-.84-.84-.84H626.89c-.63,0-.84.21-.84.84Z"/></g></g></svg>