<svg xmlns="http://www.w3.org/2000/svg" viewBox="0 0 798.4 1134.02"><defs><style>.cls-1{fill:#3f3b52;}</style></defs><title>アセット 16</title><g id="レイヤー_2" data-name="レイヤー 2"><g id="レイヤー_6" data-name="レイヤー 6"><path class="cls-1" d="M744.06,1134l.93-1.08c1.75-2,3.44-4.15,5-6.32l.67-.9,2.48-3.52c.8-1.13,1.57-2.29,2.29-3.47l5.08-8.19,3.74-5.87a84.07,84.07,0,0,0,4.22-7.46l.76-1.5q1.47-3,2.69-6l1.75-4.4,2.22-5.58c.65-1.65,1.26-3.33,1.81-5h0a50.71,50.71,0,0,0,1.68-6.66h0q.69-3.84,1-7.74l.25-2.75.08-1.12q.51-6.35.51-12.71V1040l-.12-9.84-.71-12.09-1.07-10.2-1.3-13.4L776.55,982l-.94-9.72-4,9.84-2.75,6.24q-2.58,5.85-5.64,11.48l-3.58,6.59,3.08-7.36,2.61-6.52,2.13-5.93,2.14-6.52,2-6.52,2.14-7.12-.83-4.26-2-10.8-2.72-12.56-1.78-9.14-1.22,4.41a71.68,71.68,0,0,1-2.47,7.42l-.61,1.55c-.38,1-.72,1.94-1,2.92l-1,3.24a87.57,87.57,0,0,1-5.07,12.47l-1,2q-.73,1.47-1.56,2.88L751,968.93a82.17,82.17,0,0,1-6.72,9.77h0a60.2,60.2,0,0,1-5.28,5.79h0a98.36,98.36,0,0,1-7.48,6.5l-3.07,2.4q-2.86,2.25-5.88,4.29l-5.4,3.65,0,2.22q-.09,4.77-.49,9.53l-.08.92q-.46,5.47-1.35,10.88l-1.25,7.63-3.67,19L708,1063.94l-1.55,8.3-1.66,7.94.12,9.13v13.41q0,3.43-.24,6.86l-.14,1.86c-.3,4.22-.79,8.43-1.47,12.6l-1,6.07.35-9.25.24-7.47v-4.22q0-3.62-.23-7.21l-.25-4h0a113.7,113.7,0,0,1-3.14,11l-.29.87-2.33,6.64c-.58,1.66-1.22,3.3-1.9,4.93l-.1.23a71.68,71.68,0,0,1-5.51,10.57l-1.07,1.7H17.77L15,1123.21l-2.08-9.85-1.76-8c-.68-3.1-1.23-6.22-1.67-9.35l-1.43-10.29L4.86,1067l-2.08-16.38-1.53-17.77-.56-15.27-.55-10.28L0,993.55l.14-15.27.42-16.66L.85,952c.08-2.56.23-5.13.45-7.69l0-.26c.32-3.83.8-7.66,1.43-11.46l.72-4.29L5.28,920l.36-2a90.75,90.75,0,0,1,4.21-15.17l.56-1.48L12.22,897a20.22,20.22,0,0,1,2.06-3.8h0a51.11,51.11,0,0,1,5.29-6.54h0l3.61-3.47h0a43.32,43.32,0,0,1,6.52-4.4l3.62-2,7.08-3.47,7.09-3.12c2.21-1,4.46-1.87,6.73-2.71l12.14-4.44,9.32-3c1.28-.41,2.58-.79,3.88-1.13l7.89-2.06q6.12-1.59,12.37-2.57l9.72-1.52,14.3-1.81,7.79-.76a41.48,41.48,0,0,0,9.7-2.15h0l-3.61-6.95L135.77,837a41.43,41.43,0,0,1-1.71-4.14h0a75.87,75.87,0,0,1-2.8-10.12l-1.59-7.89-4.17-18.19-3.61-17.49-4.44-26.94L114.12,733l-3.2-18.61-.27-1.66a149.56,149.56,0,0,1-1.75-15.09l-.47-7.12-1.67,18.32-1.67,16.1-1.47,11.34q-.75,5.75-2,11.39L98,763.79,95.1,779.47l4.72,8.75,2.79,5q2.49,4.44,5.29,8.68l2.89,4.37,4.58,7.08h0a33.37,33.37,0,0,1-5.44-5.64l-.67-.89-3.47-5-3-4.52c-1-1.43-1.86-2.89-2.72-4.38l-2.88-5L94,782.25l-1.53,5.28L89,799.33,87.25,805c-.78,2.58-1.68,5.11-2.7,7.61l-2.36,5.84,0,0a45.6,45.6,0,0,0,7.32,6.63h0l1.94,1.29a82.16,82.16,0,0,0,10.75,6h0a32.15,32.15,0,0,0,5.64,2h0a45.34,45.34,0,0,0,8.18,1.35h0c1,.08,2,.13,3.08.15l6,.11-6.94,1.94-.93.13a54.67,54.67,0,0,1-10.39.41l-2.14-.12-4.2-.5a46.17,46.17,0,0,1-5.71-1h0a54.32,54.32,0,0,1-6.71-2.1h0q-2.82-1.1-5.55-2.39h0c-1.88-.89-3.74-1.84-5.56-2.84l-1.57-.86-1.94,4.58-2.5,6-3.47,7.5,4.58,7.63-.36-.32a64.47,64.47,0,0,1-5.33-5.51h0l-1.64,2.71a80.06,80.06,0,0,1-5.22,7.61L58,860.83l1.39-2.78,2.64-5.83,3-6.39-2.5-5.13-3.89-7.64-.53-1a148.49,148.49,0,0,1-6.59-13.4l-.51-1.19-3.17-8.45q-1.41-3.76-2.61-7.6l-.4-1.29q-1-3.34-1.86-6.75l-1.68-7-.49-2.58a141.41,141.41,0,0,1-2.3-20l-.26-6.29-.42-16.1.14-20,.42-16.93.09-14.46q0-6,.63-11.87l1.91-19.49,1-16,1.38-13.33,1.11-15L46.23,599,48,586.22l1.25-9.85,2.87-21.58c.22-1.63.38-3.26.48-4.9l1.24-20.17,2.63-24.85L57.59,492c.29-3.48.69-6.94,1.18-10.4l.23-1.59c.37-2.61.82-5.21,1.33-7.79l1.37-6.82c.33-1.66.6-3.34.8-5L64.14,447l1.27-11.56q.68-6.07,1.73-12.09L70,407.14,75,378l4-22.9,3.75-19.44,2.79-14.4q1.38-7.12,3.2-14.14l2.76-10.61,3.05-12.77,5.28-20.13,5.55-21.1,3.75-15.69L114,209.44,118.42,196l2.34-6.47c.85-2.35,1.77-4.67,2.78-7l3.63-8.23,4.72-9.86,4.58-9.85,4.3-9.3.1-.27a114,114,0,0,1,8.23-17.37h0l6.53-10.13,6.66-9.58,5.83-7.91L173,93.94l5.83-6.67,7.12-7.55q1.77-1.89,3.64-3.67l6.73-6.41L210.05,57.7l6-5.34q3.19-2.85,6.52-5.52l5.83-4.68,4.15-3.38a107.49,107.49,0,0,1,9.88-7.12l4-2.55,7.78-4.45,7.67-3.88q4.13-2.09,8.39-3.85l.23-.1q5.22-2.16,10.62-3.85l10.57-3.31,11.24-2.92,7.74-2.16c2.8-.78,5.63-1.47,8.47-2.06l1.44-.3c1.93-.41,3.88-.76,5.83-1.07l.32,0a82.19,82.19,0,0,1,9.66-.9l3.89-.12A170,170,0,0,1,357.46.4l7.27.49q4.56.32,9.07.93L387.61,3.7l11.31,2.11q7.29,1.37,14.43,3.37l1.36.38q5.81,1.63,11.48,3.67l7.93,2.83L445,19.94,453,23.3q6,2.47,11.64,5.52l7.51,4,8.19,4.92a143.22,143.22,0,0,1,14.89,10.28l3.55,2.79q3.76,3,7.34,6.19l7.4,6.64,8.59,8.17q2.65,2.52,5.17,5.19l9.56,10.11,10.27,11,9.63,11.1q4.95,5.7,9.35,11.84l8.23,11.49,8.92,13.5q1.63,2.46,3.12,5l11.43,19.79,14.57,26.52,15,28.73,11.24,23.33,10.55,21.38,8.19,18.46,8.33,17.91,6.67,16.1,12.91,32.77,13.19,31,7.22,19.57L712.05,425l10.14,27.08,9,25L740,504.45,746.48,525l6.94,25.27,6.25,22.63,4.15,15.23c.84,3.08,1.6,6.18,2.26,9.3l2.34,11L772,627.6l2.77,16.1,4.45,29.85L782,695.21l2.92,21.38,2.5,16.79L789,746.6q.5,4.14.77,8.29l1,15.14,1.8,20.55,1.95,10.83,2.36,16.52,1.52,15.41h0a69.85,69.85,0,0,1-3.59-12.27l-.15-.78-2.23-11v16.11l-.55,21.24-.2,14.33q-.07,6.21-.58,12.41l-.47,5.74-1.53,17.77-1.8,13.33-3.06,16.38-3,16.11.83,7.35,2.08,18.75,1.67,23.46,1,17.82q.38,6.33.16,12.67l-.35,10.88-1,17.63-1,10.58q-.28,3.16-.77,6.3l-.8,5.23q-.52,3.43-1.26,6.83l-1.76,8.13-1.83,8.14q-.94,4.21-2.12,8.37l-1.61,5.7-1.2,4a144.88,144.88,0,0,1-6.27,16.88l-1.08,2.42Zm32.78-212.57,3.42,19.44,1.44-6.48,3.33-18a108.75,108.75,0,0,0,1.44-10.79l1.71-20.48,1.07-25,1.13-23.31q.14-2.79.09-5.58l-.32-18.08-1.44-21.78L787.64,814l-.31,13.24c0,1.49-.11,3-.23,4.47l-1,12.42q-.27,3.35-.75,6.66l-2.93,19.9-3.24,19.62L775,909.57ZM720.65,992a48.36,48.36,0,0,0,7.76-7.84h0a57.52,57.52,0,0,0,7.74-13.08l2.79-6.57,3.91-9.57c.69-1.68,1.33-3.39,1.93-5.11l5.06-14.62,7.5-20.43,3.23-10.22-4.25-14.31L751,871.87l-8-26.4-9.54-30.32-7.83-27.25-9.54-29.29-8.85-28.27-8.18-26.57-8.85-28.95L680.87,644l-8.35-29.46-6.81-23.85-4.77-16.52,2.22,21.46,2.21,22.31,3.41,24.53L672,666l3.75,28.61,2.55,26.57,2.56,31.17,1.87,30.31.68,21.46-.95,25.3c0,1.3-.14,2.6-.27,3.9l-1.41,13.88c-.18,1.71-.4,3.41-.69,5.11l-2,11.76,3.07,1.71,2.68,1.59c1.84,1.09,3.64,2.27,5.38,3.54h0a40.54,40.54,0,0,1,5.57,4.9h0a31.47,31.47,0,0,1,5.09,7.23l.66,1.3a75.25,75.25,0,0,1,3.64,8.4l.36,1c.65,1.8,1.22,3.61,1.72,5.45l2.49,9.16,3.77,14.16q1,3.72,1.69,7.52l.52,2.81a105.64,105.64,0,0,1,1.42,11.05L717,954.3l.16,1.81a102.2,102.2,0,0,1,.25,12.74l-.58,13.55-.51,13.11ZM658.7,858.08c1.39.23,2.79.42,4.19.58H663a24.11,24.11,0,0,1,4.45.93l3.36,1c1,.3,1.93.65,2.86,1l3.76,1.58,1-8.16,1.33-10.83.57-6.48c.18-2,.28-4,.33-6l.27-12.8-.34-18-.66-27.64-.84-18.82-1.33-20-2-21.15-2.66-19.48-3-16.82,1.17,19.32,1.53,19c.09,1.13.14,2.25.17,3.37l.57,29.69c0,1.84,0,3.69,0,5.53l-1.39,36.37-2,29.31-1.33,13.08a45.72,45.72,0,0,1-2,9.6h0a34.76,34.76,0,0,1-2.44,5.72h0a63.7,63.7,0,0,1-5.38,8.4l-1.14,1.51Zm109.82,15.77a53.3,53.3,0,0,0,4.81-11h0l1.12-10.92L776.9,835l2.89-21.15,1.78-18.27.89-18.48.67-23.61L778,735.85l-4.68-16.48-6.9-23.83-7.35-25.17-10-31.85-8.91-27.62L731.91,586l-9.81-26.5-11.58-29-8.24-19.82-10.91-25.39-12.47-29.4L664,420l-9.35-24.72-9.36-26.73-10.91-31.4-11.14-29.4L631,338.5l7.35,31.18,8.91,37.87,10,42.76,12.25,48.33L682,548.31l12.7,48.11,11.8,45.66L725.22,710l12.92,51.23,12.92,47.67L761.31,849l6.9,25.39Zm15.34-123.58-.62-15.12-1.45-21.34-.91-12.88c-.22-3.15-.6-6.28-1.12-9.39L776,669.27l-5.59-31.69-7-32.32-4.14-19.37a145.61,145.61,0,0,0-4.15-15.32l-4.76-14.41L742,528.82l-11.6-33.77-11-29.21L708,433.93l-13.47-33.76-11.18-28-14.5-31.9-14.71-30.25-9.74-19.68-17-31.9-12.84-23.2-6.89-11.77q-3-5.22-6.58-10.14l-8.49-11.86,6.84,21.13,6.63,20.3,6.63,20.72,6.83,21.75,9,30.38c.46,1.57,1,3.12,1.53,4.66l11.6,32.08L651.07,379l10.57,27.13,11.18,26.52,12.43,29.21,8.08,20.51L699.75,499l8.5,21.13L717,541l6.21,17,7.88,20.5,6.11,15.9c.76,2,1.45,4,2.09,6l4,12.73,7.46,24.24,7.66,25.48,8.49,27.55,7.26,25.9,4.75,17.87q1.25,4.71,2.77,9.34Zm-731.71,53,1.7,6.81,2,6.86c.42,1.43.89,2.84,1.4,4.23l4.1,11.29L66,843.65l3.16-9.07c.49-1.41.93-2.85,1.31-4.3l1.37-5.12-5.35-5.84-.77-.85a107.05,107.05,0,0,1-6.8-8.37l-1.15-1.56c-.67-.92-1.3-1.87-1.88-2.85h0A65.5,65.5,0,0,1,50.82,795l-.38-1Zm25.22,8.29,5.23-18.11q1.28-4.41,2.22-8.9L89,764.89l-3.52-9.5q-1.81-4.89-3.32-9.9L81,741.71q-1.55-5.15-2.8-10.37l-2.12-8.82c-.69-2.87-1.31-5.75-1.84-8.65l-1.33-7.28a203.67,203.67,0,0,1-2.86-22.41l-1-14.49-2.16-29q-.39-5.19-.5-10.38l-.49-22c-.06-3.08,0-6.16,0-9.23l1-31.14,1.86-35.53.93-18.34,2.09-20.9,3.48-29-6.64,27.4q-.78,3.26-1.4,6.54L64.6,512.26l-4.41,21.13-4.64,29-3.49,24.15-2.32,25.31L47.84,636c-.28,3.56-.42,7.13-.42,10.69v27.62l.7,21.36.75,16.87c.12,2.53.31,5.06.59,7.58l.29,2.69q.69,6.3,1.74,12.55l2,11.63L56,760.48l1.57,6.89a117.86,117.86,0,0,0,3.59,12.49l.46,1.33a55,55,0,0,0,2.61,6.25l4.08,8.33.83,1.7a107.68,107.68,0,0,0,8.22,14.09ZM95.07,376c-.87,2.91-1.63,5.86-2.29,8.83l-5.19,23.34L82,434.52l-3.81,20.16L74.81,478c-.44,3.09-.77,6.18-1,9.29L72.15,511l-1.63,28.7-1.28,28.52-1.09,26.53.19,32.33,1.27,29.61L71.42,681l1.22,10.73q.6,5.25,1.66,10.44l2.57,12.62,4.55,19.07,4.17,15.26,3.64,12,2-10.53,1-4.87q.78-3.68,1.2-7.41l.67-6.07L95.4,716.1l1-10.3c.15-1.49.26-3,.33-4.48l.44-9.38.36-15.81L97,636.35,95.77,596.2l-1.09-36.7-.55-28.7-.54-35.61.72-27.06.55-29.62.3-20.39q.06-4.12.4-8.25L96.68,396l2-19.25,1.09-16.53Z"/></g></g></svg>