<svg xmlns="http://www.w3.org/2000/svg" viewBox="0 0 244.65 42.8"><defs><style>.cls-1{fill:#283c5f;}</style></defs><title>menu-3</title><g id="レイヤー_2" data-name="レイヤー 2"><g id="レイヤー_3" data-name="レイヤー 3"><path class="cls-1" d="M15.15,11.2V39.9c0,1.23-.67,1.85-2,1.85h-2c-1.33,0-2-.62-2-1.85V17.65c-1.63,1.63-3.3,3.17-5,4.6a2,2,0,0,1-1.35.55,1.76,1.76,0,0,1-1.5-.9L.45,20.65A2.52,2.52,0,0,1,0,19.3a2,2,0,0,1,.8-1.55,66.46,66.46,0,0,0,7.87-7.5,35,35,0,0,0,5.43-7.4,2.66,2.66,0,0,1,.8-1,1.72,1.72,0,0,1,1-.38,1.61,1.61,0,0,1,.8.2l1.35.6c1,.5,1.55,1.08,1.55,1.75a1.44,1.44,0,0,1-.15.65A32.56,32.56,0,0,1,15.15,11.2Zm20.3,14.2v3.9H45.6a3.57,3.57,0,0,1,2.1.48,1.75,1.75,0,0,1,.65,1.52v2a1.78,1.78,0,0,1-.65,1.53,3.66,3.66,0,0,1-2.1.47H35.45V41c0,1.23-.67,1.85-2,1.85h-2c-1.33,0-2-.62-2-1.85V14.5H26.2a40.17,40.17,0,0,1-4.4,6,2,2,0,0,1-1.35.7,1.9,1.9,0,0,1-1.5-.8L17.6,18.85A2.13,2.13,0,0,1,17,17.5a2.15,2.15,0,0,1,.65-1.45A42.47,42.47,0,0,0,25.2,3.4a3,3,0,0,1,.72-1.28,1.71,1.71,0,0,1,1.13-.37,1.35,1.35,0,0,1,.45.05l1.95.35a2.62,2.62,0,0,1,1.3.6,1.44,1.44,0,0,1,.5,1.1,2.05,2.05,0,0,1-.15.7c-.93,2.27-1.5,3.58-1.7,4H45.6a1.77,1.77,0,0,1,2,2v2a1.77,1.77,0,0,1-2,2H35.45v4.9H45.6a3.57,3.57,0,0,1,2.1.48,1.75,1.75,0,0,1,.65,1.52v2a1.75,1.75,0,0,1-.65,1.52,3.57,3.57,0,0,1-2.1.48Z"/><path class="cls-1" d="M68,39.72a2,2,0,0,1-.5-1.42V36.9a1.8,1.8,0,0,1,2-1.95,16.84,16.84,0,0,0,4.27-.42A4.76,4.76,0,0,0,76.2,32.8a6.53,6.53,0,0,0,1-4q0-5.44-8.6-5.45a40.66,40.66,0,0,0-4.6.3l-1.25.1a10.81,10.81,0,0,1-1.15.05,1.8,1.8,0,0,1-1.9-1.9V20.4a2,2,0,0,1,.5-1.43,1.83,1.83,0,0,1,1.4-.52,14.92,14.92,0,0,0,1.8-.15c2.5-.17,4.17-.25,5-.25q14.1,0,14.1,10.7a12.17,12.17,0,0,1-2,7.33,8.94,8.94,0,0,1-5.08,3.47,26.41,26.41,0,0,1-6.15.7A1.8,1.8,0,0,1,68,39.72Z"/><path class="cls-1" d="M123.35,4.15a1.77,1.77,0,0,1,2,2v2a1.77,1.77,0,0,1-2,2h-6.1l-.1,27a1.77,1.77,0,0,1-2,2h-2a1.77,1.77,0,0,1-2-2l.1-26.95h-4.2a1.77,1.77,0,0,1-2-2v-2a1.77,1.77,0,0,1,2-2h4.2V2a1.77,1.77,0,0,1,2-2h2a1.77,1.77,0,0,1,2,2V4.15Zm6.15,15.9a1.86,1.86,0,0,1-1.38-.52,1.81,1.81,0,0,1-.47-1.43l0-2.05a2.23,2.23,0,0,1,.47-1.45,1.77,1.77,0,0,1,1.33-.45l13.65.2a1.73,1.73,0,0,1,1.32.5,1.93,1.93,0,0,1,.48,1.4V18.4a1.7,1.7,0,0,1-1.15,1.8v.5q0,1.95-1.8,1.95h-1.15a1.89,1.89,0,0,1-1.38-.53,1.84,1.84,0,0,1-.47-1.47V20.2Zm15.55,17.4a1.74,1.74,0,0,1-1.8,2l-1.8.15a27,27,0,0,1-7.9-.8l-3.35-.95a4.8,4.8,0,0,1-1.78-1.3,2.64,2.64,0,0,1-.72-1.7v-2a2.68,2.68,0,0,1,.32-1.38A1,1,0,0,1,129,31l.5.1,4,1.45A19.15,19.15,0,0,0,140,33.65a11.6,11.6,0,0,0,1.35,0l1.95-.15c1.13-.1,1.72.57,1.75,2Z"/><path class="cls-1" d="M193.3,32a2,2,0,0,1,.6,1.4,1.93,1.93,0,0,1-.85,1.45,23.55,23.55,0,0,1-6.65,3.57,21.3,21.3,0,0,1-7,1.23,15.53,15.53,0,0,1-6.3-1.23A10.62,10.62,0,0,1,168.65,35,9,9,0,0,1,167,29.5v-7l-7.9-.1a1.92,1.92,0,0,1-1.38-.52,1.85,1.85,0,0,1-.47-1.43l.05-2a2.23,2.23,0,0,1,.47-1.45,1.77,1.77,0,0,1,1.33-.45l7.9.05V12.75l-7.9-.1a1.89,1.89,0,0,1-1.38-.53,1.8,1.8,0,0,1-.47-1.42l.05-2a2.23,2.23,0,0,1,.47-1.45,1.77,1.77,0,0,1,1.33-.45l7.9,0V2.15a1.77,1.77,0,0,1,2-2h2a1.77,1.77,0,0,1,2,2v4.7l8.85.1a1.73,1.73,0,0,1,1.32.5,1.93,1.93,0,0,1,.48,1.4V11a1.93,1.93,0,0,1-.48,1.4,1.67,1.67,0,0,1-1.27.5l-8.9-.1v3.75l8.85.1a1.73,1.73,0,0,1,1.32.5,1.93,1.93,0,0,1,.48,1.4V20.7a1.55,1.55,0,0,1-.4,1.15,2.57,2.57,0,0,1-1.45.55,19.7,19.7,0,0,1-3.35.2L173,22.55V28a4.27,4.27,0,0,0,2.15,3.67,9.59,9.59,0,0,0,5.45,1.43,14.24,14.24,0,0,0,4.45-.72,16.31,16.31,0,0,0,4.15-2.08,2.19,2.19,0,0,1,1.35-.5,1.9,1.9,0,0,1,1.45.75Z"/><path class="cls-1" d="M235.83,13.17a14.68,14.68,0,0,1,6.87,6.33,17.7,17.7,0,0,1,2,8.2,20.42,20.42,0,0,1-.82,5.77,15.18,15.18,0,0,1-2.18,4.68,2.09,2.09,0,0,1-1.8.9l-.75-.1-2.75-.5c-.87-.2-1.3-.57-1.3-1.1a2.09,2.09,0,0,1,.5-1.25,13,13,0,0,0,1.67-3.6,14.07,14.07,0,0,0,.63-4.15,11.3,11.3,0,0,0-2.25-7,11.12,11.12,0,0,0-6.7-3.95,50.47,50.47,0,0,1-1.13,12.25,13.49,13.49,0,0,1-3.82,7,10.52,10.52,0,0,1-7.25,2.4,11.73,11.73,0,0,1-6-1.45,9.27,9.27,0,0,1-3.72-4,12.06,12.06,0,0,1-1.25-5.55,16.5,16.5,0,0,1,2.2-8.15,18.09,18.09,0,0,1,6.2-6.5,17.89,17.89,0,0,1,9.65-2.55A27.59,27.59,0,0,1,235.83,13.17ZM220.5,31.3a10.8,10.8,0,0,0,1.8-5.2,86.46,86.46,0,0,0,.45-9.1,11.62,11.62,0,0,0-5.42,2,10.35,10.35,0,0,0-3.43,4.07,10.63,10.63,0,0,0-1.1,4.7,6.26,6.26,0,0,0,1.08,3.78,3.32,3.32,0,0,0,2.82,1.47A4.52,4.52,0,0,0,220.5,31.3Z"/></g></g></svg>