<svg xmlns="http://www.w3.org/2000/svg" viewBox="0 0 142.9 43.15"><defs><style>.cls-1{fill:#283c5f;}</style></defs><title>menu-4</title><g id="レイヤー_2" data-name="レイヤー 2"><g id="レイヤー_3" data-name="レイヤー 3"><path class="cls-1" d="M7,30.05a1.94,1.94,0,0,1,1,.62,1.63,1.63,0,0,1,.4,1.08l-.1.6L5.8,39.2a1.8,1.8,0,0,1-.72.95,2.15,2.15,0,0,1-1.18.35l-.65-.1L1.5,40a2.14,2.14,0,0,1-1.1-.68A1.58,1.58,0,0,1,0,38.2l.1-.55L2.6,30.8a1.73,1.73,0,0,1,.73-.95A2.07,2.07,0,0,1,4.5,29.5l.65.1Zm37.3,8.4a1.46,1.46,0,0,1,.8,1.25v1.4a1.9,1.9,0,0,1-.63,1.5,2.32,2.32,0,0,1-1.62.55,157.63,157.63,0,0,1-19.55-.85,17,17,0,0,1-6.65-2.15,11.22,11.22,0,0,1-4.15-4.73,25.56,25.56,0,0,1-2.15-8.27,1.76,1.76,0,0,1,.8-1.8H6a1.77,1.77,0,0,1-2-2V2A1.77,1.77,0,0,1,6,0H38a1.77,1.77,0,0,1,2,2V23.35a1.77,1.77,0,0,1-2,2H15.8a1.61,1.61,0,0,1,.75,1.2c.57,3.47,1.53,6,2.9,7.65a9.86,9.86,0,0,0,5.9,3.2,67.76,67.76,0,0,0,11.25.7h1.65v-.25a2,2,0,0,1,.6-1.6l0-.1-.65.2a2,2,0,0,1-.8.15,2.09,2.09,0,0,1-1.1-.3,2,2,0,0,1-.75-.8l-2.2-4.7a2.17,2.17,0,0,1-.15-.75,1.73,1.73,0,0,1,.33-1.05,1.75,1.75,0,0,1,.92-.65l1.75-.65a2.41,2.41,0,0,1,.85-.15,2.05,2.05,0,0,1,1.8,1.1l2.2,4.75a1.86,1.86,0,0,1,.15.75l-.1.6h1a1.77,1.77,0,0,1,2,2v.45a3.86,3.86,0,0,1,.1.75ZM10,6v4.2h9V6Zm0,13.35h9v-4.2H10Zm14.4,8a2.17,2.17,0,0,1,.75-.15,2.09,2.09,0,0,1,1.9,1.1l2.55,4.6a1.64,1.64,0,0,1-.15,1.8,1.91,1.91,0,0,1-.95.65L26.75,36a2,2,0,0,1-.8.15,2.09,2.09,0,0,1-1.1-.3,2,2,0,0,1-.75-.8L21.55,30.4a1.5,1.5,0,0,1-.2-.75,1.73,1.73,0,0,1,.35-1,1.88,1.88,0,0,1,.95-.67ZM34,6H25v4.2h9Zm0,13.35v-4.2H25v4.2Z"/><path class="cls-1" d="M62.75,28.5a1.77,1.77,0,0,1,2,2v1.35a1.77,1.77,0,0,1-2,2h-1.6v.35a1.77,1.77,0,0,1-2,2h-2a1.77,1.77,0,0,1-2-2l.1-18.8a1.77,1.77,0,0,1,2-2h2a1.77,1.77,0,0,1,2,2l0,13.1ZM89.4,13.4a1.77,1.77,0,0,1,2,2l-.1,15.05a1.77,1.77,0,0,1-2,2h-2a1.77,1.77,0,0,1-2-2l.1-15a1.77,1.77,0,0,1,2-2Z"/><path class="cls-1" d="M140.9,28.6a1.77,1.77,0,0,1,2,2v9.95a1.77,1.77,0,0,1-2,2H103.7a1.77,1.77,0,0,1-2-2V30.6a1.77,1.77,0,0,1,2-2h2a1.77,1.77,0,0,1,2,2v5.95h11.6V21.15H106.4a1.77,1.77,0,0,1-2-2V9.2a1.77,1.77,0,0,1,2-2h2a1.77,1.77,0,0,1,2,2v6h8.9V3.45c0-1.27.67-1.9,2-1.9h2c1.33,0,2,.63,2,1.9v11.7h8.9v-6a1.77,1.77,0,0,1,2-2h2a1.77,1.77,0,0,1,2,2v10a1.77,1.77,0,0,1-2,2H125.3v15.4h11.6V30.6a1.77,1.77,0,0,1,2-2Z"/></g></g></svg>