<svg xmlns="http://www.w3.org/2000/svg" viewBox="0 0 337.45 37.75"><defs><style>.cls-1{fill:#283c5f;}</style></defs><title>menu-2</title><g id="レイヤー_2" data-name="レイヤー 2"><g id="レイヤー_3" data-name="レイヤー 3"><path class="cls-1" d="M35,8.8a1.77,1.77,0,0,1,2,2v2a1.77,1.77,0,0,1-2,2h-5.6a30.07,30.07,0,0,1-1.58,8.73,29.42,29.42,0,0,1-4,8A17.78,17.78,0,0,1,18,37a2.5,2.5,0,0,1-1.1.3,1.74,1.74,0,0,1-1.6-1.2l-.85-1.9a2.15,2.15,0,0,1-.2-1,2,2,0,0,1,1.15-1.7Q22,27.7,23.2,14.8H13.55v5.95a1.77,1.77,0,0,1-2,2h-2a1.77,1.77,0,0,1-2-2V14.8H2a1.77,1.77,0,0,1-2-2v-2a1.77,1.77,0,0,1,2-2H7.55V4.6a1.77,1.77,0,0,1,2-2h2a1.77,1.77,0,0,1,2,2V8.8h9.8V4.1a1.77,1.77,0,0,1,2-2h2a1.77,1.77,0,0,1,2,2V8.8Z"/><path class="cls-1" d="M81.2,4.5a2.59,2.59,0,0,1,.15.8A1.73,1.73,0,0,1,79.9,7L71.05,9.85l0,24.8a1.77,1.77,0,0,1-2,2h-2a1.77,1.77,0,0,1-2-2l0-22.85-8.5,2.75a2.59,2.59,0,0,1-.8.15,1.73,1.73,0,0,1-1.7-1.45l-.6-1.9a2.59,2.59,0,0,1-.15-.8,1.73,1.73,0,0,1,1.45-1.7L78.05,1.3a2.68,2.68,0,0,1,.85-.15A1.73,1.73,0,0,1,80.6,2.6Z"/><path class="cls-1" d="M133.6,17.15c1,.23,1.55.8,1.55,1.7l-.1.7-.5,1.95a1.71,1.71,0,0,1-1.8,1.5,2.45,2.45,0,0,1-.6-.05L118,19.7V34.1a1.77,1.77,0,0,1-2,2h-2a1.77,1.77,0,0,1-2-2l0-32.1a1.77,1.77,0,0,1,2-2h2a1.77,1.77,0,0,1,2,2V13.6Z"/><path class="cls-1" d="M158.55,24.8a1.77,1.77,0,0,1,2,2v1.35a1.77,1.77,0,0,1-2,2H157v.35a1.77,1.77,0,0,1-2,2h-2a1.77,1.77,0,0,1-2-2l.1-22.25a1.77,1.77,0,0,1,2-2h2a1.77,1.77,0,0,1,2,2L157,24.8Zm14.5-11.4a1.9,1.9,0,0,1-1.38-.52,1.8,1.8,0,0,1-.47-1.43l.05-2A2.23,2.23,0,0,1,171.72,8a1.77,1.77,0,0,1,1.33-.45l13.65.2a1.73,1.73,0,0,1,1.32.5,1.93,1.93,0,0,1,.48,1.4v2.15a1.7,1.7,0,0,1-1.15,1.8v.5q0,1.95-1.8,1.95H184.4a1.75,1.75,0,0,1-1.85-2v-.45ZM188.6,30.8a1.74,1.74,0,0,1-1.8,2L185,33a27,27,0,0,1-7.9-.8l-3.35-.95A4.8,4.8,0,0,1,172,29.9a2.64,2.64,0,0,1-.72-1.7v-2a2.6,2.6,0,0,1,.32-1.37,1,1,0,0,1,.93-.53l.5.1L177,25.85A19.15,19.15,0,0,0,183.5,27a11.6,11.6,0,0,0,1.35-.05l2-.15c1.13-.1,1.72.57,1.75,2Z"/><path class="cls-1" d="M215.1,37.22a2,2,0,0,1-.5-1.47v-2a1.77,1.77,0,0,1,2-2,23.77,23.77,0,0,0,6.2-.65,7.38,7.38,0,0,0,3.85-2.6q1.6-2.05,1.6-6.15c0-3-1.1-5.08-3.3-6.35s-5.33-1.9-9.4-1.9q-2.4,0-6.5.4c-1.6.13-2.72.2-3.35.2a1.81,1.81,0,0,1-1.43-.53,2.13,2.13,0,0,1-.47-1.47v-2a1.8,1.8,0,0,1,1.95-2l2.05-.15q4.35-.35,7.4-.35,19.05,0,19.05,14.2,0,6.3-2.63,9.85a11.76,11.76,0,0,1-6.77,4.6,33.17,33.17,0,0,1-8.3,1A1.87,1.87,0,0,1,215.1,37.22Z"/><path class="cls-1" d="M258.55,26.2a1.77,1.77,0,0,1,2,2v1.35a1.77,1.77,0,0,1-2,2H257v.35a1.77,1.77,0,0,1-2,2h-2a1.77,1.77,0,0,1-2-2l.1-18.8a1.77,1.77,0,0,1,2-2h2a1.77,1.77,0,0,1,2,2L257,26.2ZM285.2,11.1a1.77,1.77,0,0,1,2,2l-.1,15.05a1.77,1.77,0,0,1-2,2h-2a1.77,1.77,0,0,1-2-2l.1-15a1.77,1.77,0,0,1,2-2Z"/><path class="cls-1" d="M332.15,13a7.34,7.34,0,0,0-3.6,1.67,10.19,10.19,0,0,0-2.65,3.48,10.6,10.6,0,0,0-1,4.55,7.64,7.64,0,0,0,1.5,5.13A7.17,7.17,0,0,0,330.9,30c1.3.2,2,.88,2,2V34.1a2,2,0,0,1-.55,1.52,1.79,1.79,0,0,1-1.5.43A13.13,13.13,0,0,1,322,31.7,14.3,14.3,0,0,1,318.7,22a11.17,11.17,0,0,1,.82-4.2A31,31,0,0,1,322.05,13H304.4a1.77,1.77,0,0,1-2-2V9a1.77,1.77,0,0,1,2-2h27.15l.4,0V7h3.5a1.77,1.77,0,0,1,2,2v2a1.77,1.77,0,0,1-2,2Z"/></g></g></svg>