<svg xmlns="http://www.w3.org/2000/svg" viewBox="0 0 339.7 39.75"><defs><style>.cls-1{fill:#283c5f;}</style></defs><title>menu-1</title><g id="レイヤー_2" data-name="レイヤー 2"><g id="レイヤー_3" data-name="レイヤー 3"><path class="cls-1" d="M36.92,22.35a18.1,18.1,0,0,1,3,10.15,18.44,18.44,0,0,1-.65,5A2.11,2.11,0,0,1,37,39.2H34.25a2,2,0,0,1-1.33-.4,1.44,1.44,0,0,1-.47-1.15l.1-.7a22.63,22.63,0,0,0,.4-4,15.58,15.58,0,0,0-1.6-7.22A8.14,8.14,0,0,0,26.9,21.6a14.13,14.13,0,0,0-4.9-.9A15.62,15.62,0,0,0,13,24L13,37.1a1.77,1.77,0,0,1-2,2H9a1.77,1.77,0,0,1-2-2V29.25L5.8,30.5l-.7.75a2.17,2.17,0,0,1-1.55.8,2,2,0,0,1-1.3-.55L.75,30.2A1.85,1.85,0,0,1,.6,27.35,57.9,57.9,0,0,1,7,21.1V12.5H2a1.77,1.77,0,0,1-2-2v-2a1.77,1.77,0,0,1,2-2H7.05V3.4a1.77,1.77,0,0,1,2-2h2a1.77,1.77,0,0,1,2,2V6.5h.65a1.77,1.77,0,0,1,2,2v2a1.77,1.77,0,0,1-2,2H13V17a19.58,19.58,0,0,1,9-2.35A19.86,19.86,0,0,1,29,16,15.66,15.66,0,0,1,36.92,22.35Z"/><path class="cls-1" d="M69.15,4.15a1.77,1.77,0,0,1,2,2v2a1.77,1.77,0,0,1-2,2h-6.1l-.1,27a1.77,1.77,0,0,1-2,2H59a1.77,1.77,0,0,1-2-2l.1-26.95h-4.2a1.77,1.77,0,0,1-2-2v-2a1.77,1.77,0,0,1,2-2h4.2V2a1.77,1.77,0,0,1,2-2h2a1.77,1.77,0,0,1,2,2V4.15Zm6.15,15.9a1.86,1.86,0,0,1-1.38-.52,1.81,1.81,0,0,1-.47-1.43l0-2.05A2.23,2.23,0,0,1,74,14.6a1.77,1.77,0,0,1,1.33-.45l13.65.2a1.73,1.73,0,0,1,1.32.5,1.93,1.93,0,0,1,.48,1.4V18.4a1.7,1.7,0,0,1-1.15,1.8v.5q0,1.95-1.8,1.95H86.65a1.87,1.87,0,0,1-1.38-.53,1.84,1.84,0,0,1-.47-1.47V20.2Zm15.55,17.4a1.74,1.74,0,0,1-1.8,2l-1.8.15a27,27,0,0,1-7.9-.8L76,37.85a4.8,4.8,0,0,1-1.78-1.3,2.64,2.64,0,0,1-.72-1.7v-2a2.68,2.68,0,0,1,.32-1.38,1,1,0,0,1,.93-.52l.5.1,4,1.45a19.15,19.15,0,0,0,6.55,1.15,11.6,11.6,0,0,0,1.35,0l2-.15c1.13-.1,1.72.57,1.75,2Z"/><path class="cls-1" d="M133.35,29.05a1.9,1.9,0,0,1,1.45.75l1.3,1.5a2,2,0,0,1,.6,1.4,1.93,1.93,0,0,1-.85,1.45,24.81,24.81,0,0,1-6.7,3.5,22.05,22.05,0,0,1-7.1,1.2,15.48,15.48,0,0,1-6.25-1.2,10.25,10.25,0,0,1-4.35-3.45,8.88,8.88,0,0,1-1.65-5.4V7.25a1.77,1.77,0,0,1,2-2h2a1.77,1.77,0,0,1,2,2v20a4.18,4.18,0,0,0,2.1,3.6,9.48,9.48,0,0,0,5.35,1.4,15.62,15.62,0,0,0,8.75-2.7A2.19,2.19,0,0,1,133.35,29.05Z"/><path class="cls-1" d="M160.8,26.8a1.77,1.77,0,0,1,2,2v1.35a1.77,1.77,0,0,1-2,2h-1.6v.35a1.77,1.77,0,0,1-2,2h-2a1.77,1.77,0,0,1-2-2l.1-22.25a1.77,1.77,0,0,1,2-2h2a1.77,1.77,0,0,1,2,2l-.05,16.55Zm14.5-11.4a1.9,1.9,0,0,1-1.38-.52,1.8,1.8,0,0,1-.47-1.43l.05-2A2.23,2.23,0,0,1,174,10a1.77,1.77,0,0,1,1.33-.45L189,9.7a1.73,1.73,0,0,1,1.32.5,1.93,1.93,0,0,1,.48,1.4v2.15a1.7,1.7,0,0,1-1.15,1.8v.5q0,1.95-1.8,1.95h-1.15a1.83,1.83,0,0,1-1.38-.53A1.85,1.85,0,0,1,184.8,16v-.45Zm15.55,17.4a1.74,1.74,0,0,1-1.8,2l-1.8.15a27,27,0,0,1-7.9-.8L176,33.2a4.8,4.8,0,0,1-1.78-1.3,2.64,2.64,0,0,1-.72-1.7v-2a2.6,2.6,0,0,1,.32-1.37,1,1,0,0,1,.93-.53l.5.1,3.95,1.45A19.15,19.15,0,0,0,185.75,29,11.6,11.6,0,0,0,187.1,29l2-.15c1.13-.1,1.72.57,1.75,2Z"/><path class="cls-1" d="M217.35,39.22a2,2,0,0,1-.5-1.47v-2a1.77,1.77,0,0,1,2-2,23.77,23.77,0,0,0,6.2-.65,7.38,7.38,0,0,0,3.85-2.6q1.6-2.05,1.6-6.15c0-3-1.1-5.08-3.3-6.35s-5.33-1.9-9.4-1.9q-2.4,0-6.5.4c-1.6.13-2.72.2-3.35.2a1.81,1.81,0,0,1-1.43-.53,2.13,2.13,0,0,1-.47-1.47v-2a1.8,1.8,0,0,1,1.95-2l2.05-.15q4.35-.35,7.4-.35,19.05,0,19.05,14.2,0,6.3-2.62,9.85a11.85,11.85,0,0,1-6.78,4.6,33.17,33.17,0,0,1-8.3,1A1.87,1.87,0,0,1,217.35,39.22Z"/><path class="cls-1" d="M260.8,28.2a1.77,1.77,0,0,1,2,2v1.35a1.77,1.77,0,0,1-2,2h-1.6v.35a1.77,1.77,0,0,1-2,2h-2a1.77,1.77,0,0,1-2-2l.1-18.8a1.77,1.77,0,0,1,2-2h2a1.77,1.77,0,0,1,2,2l-.05,13.1Zm26.65-15.1a1.77,1.77,0,0,1,2,2l-.1,15.05a1.77,1.77,0,0,1-2,2h-2a1.77,1.77,0,0,1-2-2l.1-15a1.77,1.77,0,0,1,2-2Z"/><path class="cls-1" d="M334.4,15a7.34,7.34,0,0,0-3.6,1.67,10.19,10.19,0,0,0-2.65,3.48,10.6,10.6,0,0,0-1,4.55,7.64,7.64,0,0,0,1.5,5.13,7.17,7.17,0,0,0,4.5,2.17c1.3.2,2,.88,2,2V36.1a2,2,0,0,1-.55,1.52,1.79,1.79,0,0,1-1.5.43,13.13,13.13,0,0,1-8.83-4.35A14.3,14.3,0,0,1,321,24a11.17,11.17,0,0,1,.82-4.2A31,31,0,0,1,324.3,15H306.65a1.77,1.77,0,0,1-2-2V11a1.77,1.77,0,0,1,2-2H333.8l.4-.05V9h3.5a1.77,1.77,0,0,1,2,2v2a1.77,1.77,0,0,1-2,2Z"/></g></g></svg>