<svg xmlns="http://www.w3.org/2000/svg" viewBox="0 0 277.4 85.44"><defs><style>.cls-1{fill:#c45c66;}.cls-2{fill:#c3ce5f;}.cls-3{fill:#faf7d9;}.cls-4{fill:#283c5f;}</style></defs><title>アセット 7</title><g id="レイヤー_2" data-name="レイヤー 2"><g id="レイヤー_2-2" data-name="レイヤー 2"><rect class="cls-1" y="0.3" width="255.43" height="85.14"/><rect class="cls-2" x="10.56" width="255.43" height="85.14"/><rect class="cls-3" x="21.98" y="0.12" width="255.43" height="85.14"/><path class="cls-4" d="M85.75,32.31c0,6.77,21.31,4.38,21.31,19,0,9.5-8.43,15.54-17.39,15.54S73.53,65.7,73.53,55.08c0-.6.07-1.2.8-1.2,2.06,0,4.12.87,6,1.46a25.53,25.53,0,0,0,7.37,1.47c2.46,0,5.51-.87,5.51-3.86a3.49,3.49,0,0,0-1.53-3.18c-1.66-1.2-3.71-1.53-5.64-2.06-6.51-1.86-14-7-14-14.47,0-9.76,9.3-14.54,18-14.54,8.1,0,15.41.13,15.41,10.42,0,1.13-.6,1.66-1.73,1.66a25.43,25.43,0,0,1-5.84-1.06,34.14,34.14,0,0,0-7.3-1.07C88.21,28.65,85.75,29.52,85.75,32.31Z"/><path class="cls-4" d="M118,21c1.59-1.2,3.58-1.33,5.51-1.33a15.57,15.57,0,0,1,2.45.2c2.53.46,2.26,4.25,2.26,6.17,0,2.39-.2,4.72-.2,7.11,0,.6,0,2,.87,2,2.52,0,5.11-5.71,6-7.77a18.65,18.65,0,0,1,2.19-3.72A14.88,14.88,0,0,1,140,20.82c1.93-1.33,3.72-1.13,6-1.13,1.85,0,5.9.33,5.9,2.86,0,4.11-9,13.87-9,18.52,0,7.37,9.63,16.4,9.63,22.11,0,2.52-6.77,2.59-8.5,2.59-8.3,0-10.56-17-14.87-17-1.33,0-1.2,4.45-1.2,5.31,0,2.13.2,4.32.2,6.44,0,3.06-1.06,5.38-4.38,5.38-1.66,0-5-.33-6.18-1.53-3.32-3.25-3.25-18.39-3.25-23.17C114.36,36.89,114.43,23.74,118,21Z"/><path class="cls-4" d="M177.17,47.18c0,3.38-.2,12.88-1.6,15.73a5.6,5.6,0,0,1-5.37,3.26,9.48,9.48,0,0,1-4.72-.87c-3.12-1.79-3.25-14.87-3.25-18.32,0-2.86-.13-5.64-.13-8.5,0-3.85.13-16.27,3.78-18.32a6.76,6.76,0,0,1,3.45-.8c1.73,0,3-.07,4.52.86,3,1.79,3.32,12.15,3.32,15.41Z"/><path class="cls-4" d="M186.93,39c0-4.19.13-16.6,4.38-18.73C194,18.89,201,18.7,204.19,18.7c10.16,0,20.71,5.64,20.71,17,0,18.53-22.84,15-24.1,16.27-.6.66-.66,3.58-.66,4.51,0,1.66.2,3.32.2,5,0,2.86-.73,4.39-3.85,4.39a13.68,13.68,0,0,1-5.18-.73c-4.19-1.67-4.38-15.14-4.38-19Zm13.21-.07c0,3.45,1.13,3.78,4.31,3.78a7.67,7.67,0,0,0,8-8c0-4.32-4.51-6.38-8.3-6.38h-1.66c-1.86,0-2.26,1.33-2.32,2.86Z"/></g></g></svg>