<svg xmlns="http://www.w3.org/2000/svg" viewBox="0 0 341.94 53.58"><defs><style>.cls-1{fill:#283c5f;}</style></defs><title>title</title><g id="レイヤー_2" data-name="レイヤー 2"><g id="レイヤー_3" data-name="レイヤー 3"><path class="cls-1" d="M15.36,34.92a4.46,4.46,0,0,0-2,3.48C13.32,42.78,20,43,23.1,43s6-1.2,8.94-1.56a73.05,73.05,0,0,1,8.88-1c3.54,0,3.6,3.42,3.6,6.36,0,2.1-.66,3.6-2.64,4.5-4.14,1.86-14,2.22-18.66,2.22C13.14,53.58,0,49.74,0,37.5c0-4.68,4-7.86,6.3-11.58A7.91,7.91,0,0,0,7.44,21.6c0-4.08-1.56-8-1.56-12.12s5.82-5,9-5c3.6,0,4.14,5,4.62,7.62V12c.48,2.64.84,7.32,4.44,7.32,5.82,0,11.22-3,17.1-3,2.34,0,3.72,4.5,3.72,6.36,0,1.62-.84,4.56-2.22,5.22-2.64,1.32-4.74-.18-11.4,1.44C26.34,30.48,19.38,32.4,15.36,34.92ZM34.62,13.68c-.9-.36-4.62-7-4.62-8C30,4,33.24,2.52,34.68,2.52c1.62,0,6.06,6.66,6.06,8.28s-3.54,3.06-5,3.06A7.5,7.5,0,0,1,34.62,13.68ZM45.42,0c1.2.06,5.76,7.56,5.7,8.82-.06,1.74-3.24,2.64-4.68,2.58C44.7,11.34,40,4.56,40.08,2.82,40.14.72,43.8-.06,45.42,0Z"/><path class="cls-1" d="M76.74,2.64c3.36.06,4.14,2.22,4.14,5.16,0,1.26-.12,2.46-.12,3.66,0,.42,0,1.2.6,1.2,4.14-2.22,6.84-4.32,11.82-4.32,9.18,0,11,7,11,14.7,0,4.62-1.92,9.06-1.92,13.68,0,.48.18,2.52.84,2.52,1.62,0,2.82-2.28,4.92-2.28s5,3.12,5,5.16c0,4.8-10.62,8.82-14.58,8.82C88.8,51,86.94,44,88.32,36.66c1-5.1,1.8-7.08,3.06-14.7.06-.54-.24-2-1-2s-2.34,1.44-2.82,1.92a6.35,6.35,0,0,1-.72.6c-4.32,3.42-6.42,6.84-6.42,12.36,0,.72.06,1.38.12,2,.18,2.22.24,4.38.24,6.6,0,2.58.24,6.6-1.38,8.82a2.91,2.91,0,0,1-2.52,1.08c-2,0-5.88-.12-7.26-1.8a4.21,4.21,0,0,1-.78-2.94c0-1.44.12-2.88.12-4.32,0-1.62.66-4.2-.72-4.44-.9-1.08-2.94,3.66-4.08,4.08-4.2,1.56-8-4.38-8-6.78,0-4.14,12.18-10,12.18-14.88,0-2.16-2-2.46-3.72-2.46-1.32,0-2.58.3-3.9.3-2.46,0-4.2-.42-4.2-3.24,0-6.9,3.18-6.36,8.76-6.36,4.2,0,3.3-2.76,3.9-5.7C69.6,3,74,2.58,75.6,2.64Z"/><path class="cls-1" d="M133.44,14.4a78.53,78.53,0,0,0-1.5,14,77.66,77.66,0,0,0,.66,11.82c.42,3.06,1.2,6.06,1.14,9.18-.06,2.16-2.46,2.7-4.2,2.7l-1.8-.06a5.51,5.51,0,0,1-5-2.52c-2.76-4.26-3.66-16.92-3.6-22.08.12-4.68,2-19.32,5.94-22a5.5,5.5,0,0,1,3.66-.9c2.4,0,5.88.12,5.82,3.36a40.2,40.2,0,0,1-1.08,6.54Zm19.74,25.5a43.48,43.48,0,0,0,6.78-.78,37.54,37.54,0,0,1,6.3-.72c3.54,0,3.24,4,3.24,6.66a8.28,8.28,0,0,1-.18,1.2c-.78,3.84-13,4.62-16.2,4.62-7.56,0-17.46-4.08-17.22-13C136.08,32,140.22,26,144.18,26c1.92,0,7,3.06,7,5.16,0,1.26-3.06,4.08-3.06,6.06C148.08,40.14,151,39.9,153.18,39.9ZM140.64,11.64c0-4.32,5.1-4.14,8.16-4.14,1.44,0,2.94.06,4.44.12,2.52.12,11.16.18,12.9,1.68a6,6,0,0,1,1.8,4.86c0,4.62-2.28,6.42-5,6.42-2.46-.6-5-1.62-9.12-1.56-4.44-.78-8.64.84-11.34-.66-1.38-.78-1.8-3.9-1.8-5.46Z"/><path class="cls-1" d="M203.52,16.26c-.48-1.5-6.18-.42-7.86-.42-4.5,0-9,.18-13.5.18-3.78,0-4.86-.72-4.86-4.62,0-4.74,4.2-4.86,13.5-4.86,2.94,0,5.88.12,8.82.12,2.4,0,4-.66,4-3.3,0-2,2.94-2.34,4.44-2.34,1.32,0,4.86,0,5.82.72,3.18,2.4-1.44,5.22,6.66,5.22C222,7,223.5,6.9,225,6.9c4.38,0,6.36,2.22,6.36,6.48,0,2.76-3.66,2.88-5.7,2.88-1.62,0-3.24-.3-4.86-.3-4.74,0-4.86,1.2-4.86,5.58,0,4,2.1,7.74,2.1,11.82,0,9.72-2.94,15.78-11.94,18.48A47.92,47.92,0,0,1,196,53.16c-4.56,0-7.2-3.72-6.36-8.1s9.42-3.12,13.68-3.6c1.74,0,2.28-.84,1.56-1.5-1.74,0-3.6.36-5.28.36-7,0-14.34-3.66-14.34-11.52,0-8.34,7.68-11.4,15-11.4C201.18,17.4,203.22,17.58,203.52,16.26Zm-2.58,15.66c1.92,0,3.72-1,3.72-3.12s-1.74-3.18-3.72-3.18-3.72,1-3.72,3.18C197.22,30.72,199.14,31.92,200.94,31.92Z"/><path class="cls-1" d="M270.06,21.9c.12.54,1.08,0,1.62-.06,8.58-.66,17.1,1.5,17.58,12.78.6,13.68-15.3,18.78-26.64,18.78-7.32,0-18.06-3-18.06-12,0-7.26,9.84-9.18,15.48-9.18,7.44,0,12.66-.18,13.62,8.4a6.32,6.32,0,0,0,2.82-4.74c0-5-6.48-6-10.32-6a48.15,48.15,0,0,0-13.74,1.62c-1.62.48-6.66,2.22-8,2.22-2.34,0-4.74-2.64-4.74-4.92a3.53,3.53,0,0,1,1.38-2.7,45.25,45.25,0,0,1,5-2.76c1.68-1,13.44-7.2,13.44-8.16,0-.72-1.92-.66-3.18-.48-3.3.48-6.54,1.38-9.9,1.38-2.22,0-3.3-1.86-3.3-4.62,0-1.26-.24-4.56.42-5.7,1.74-2.94,11.94-1.5,15.66-1.5,4.14,0,8.16,0,11.94.12s8.82.48,11.52,3.72a5,5,0,0,1,1,3.42c0,5.1-7.8,7.08-11.52,8.7C271.2,20.82,269.76,20.46,270.06,21.9ZM259,40c-1.44,0-3.36.48-3.36,2.22s4.62,2.76,6.06,2.76,1.86-1.44,1.86-2.7c0-1.62-1.56-2.28-3-2.28Z"/><path class="cls-1" d="M319.26,35.34c-1.14,0-3.42-.12-3.42-1.68,0-7.5,13.38-11.28,13.38-15.12,0-3.06-4.44-3.24-6.66-3.24-4.26,0-8.4,1.68-12.66,1.68-2.28,0-2.76-3.6-2.76-5.28,0-4.92,14.1-5.46,17.46-5.46,7,0,17.34,3.48,17.34,11.88a8.13,8.13,0,0,1-3.3,6.6c-3.06,2.46-6.84,3.72-9.66,6.48-2.1,2-1.26,4.14-5,4.14Zm2.58,4.44c5,0,5.46.6,5.46,5.52,0,3.24-2.16,3.9-5,3.9-6,0-7-.72-7-6.78,0-2.16,2.76-2.64,4.44-2.64Z"/></g></g></svg>