<svg xmlns="http://www.w3.org/2000/svg" viewBox="0 0 908.1 659.11"><defs><style>.cls-1{fill:#283c5f;}</style></defs><title>witch</title><g id="レイヤー_2" data-name="レイヤー 2"><g id="レイヤー_3" data-name="レイヤー 3"><path class="cls-1" d="M726.33,639.05a7.72,7.72,0,0,1-10.36-3.7,7.62,7.62,0,0,1-.28-6.05,7.8,7.8,0,0,1,14.69,5.25A7.58,7.58,0,0,1,726.33,639.05Zm57.95,8.41q3.76,1.35,2.42,5.11l-1.34,3.77q-1.35,3.76-5.12,2.42L739.09,644c-2.51-.9-3.31-2.6-2.42-5.11l1.35-3.77q1.35-3.76,5.11-2.42Z"/><path class="cls-1" d="M788.51,540.32l12.14,4.35a19.74,19.74,0,0,0,9.8,1.11c3.08-.49,5.1-1.8,6.08-3.93a3.13,3.13,0,0,1,2.08-2,5.37,5.37,0,0,1,3.3.27l2.92,1.05a3.68,3.68,0,0,1,2.41,2,4.15,4.15,0,0,1-.37,3.26,19.84,19.84,0,0,1-7,8.58,20.21,20.21,0,0,1-10.07,3.35,25.12,25.12,0,0,1-9.94-1.32l-15.35-5.49-2.39,6.69c-.89,2.51-2.6,3.32-5.11,2.42l-3.76-1.35c-2.52-.9-3.32-2.6-2.42-5.11l2.39-6.69-7.44-2.66q-3.76-1.35-2.42-5.11l1.34-3.77a3.93,3.93,0,0,1,2-2.41,4.31,4.31,0,0,1,3.27.06l7.25,2.59,2.73-7.62c.89-2.51,2.6-3.32,5.11-2.42l3.76,1.34c2.52.9,3.32,2.61,2.42,5.12Z"/><path class="cls-1" d="M819,454.79a13,13,0,0,0,2.68,6.17,11,11,0,0,0,5.29,3.91,12.44,12.44,0,0,0,6.73.49,12.73,12.73,0,0,0,6.11-3.12,14.41,14.41,0,0,0,3.89-5.84,12.53,12.53,0,0,0,0-9.33,4.12,4.12,0,0,1-.6-2.76q.33-.94,2.88,0l6.49,2.32a4.73,4.73,0,0,1,3.49,4.22,25.7,25.7,0,0,1-20.53,27.39A24,24,0,0,1,812.08,470a24.39,24.39,0,0,1-5.31-11.88,26,26,0,0,1,6.94-22.37,4.71,4.71,0,0,1,5.37-1.05l6.4,2.29c1.69.6,2.42,1.25,2.17,1.94-.15.44-.86,1-2.12,1.79a13.11,13.11,0,0,0-5.85,7.15A13.92,13.92,0,0,0,819,454.79Z"/><path class="cls-1" d="M850.11,340.45a21.26,21.26,0,0,1,10.95-5.38,23.09,23.09,0,0,1,11.08,1.09L893,343.6c2.51.9,3.31,2.61,2.42,5.12L894,352.48a3.86,3.86,0,0,1-2,2.41,4.31,4.31,0,0,1-3.27-.05l-17.42-6.23q-6.59-2.36-11.83,0T852,357.2a15,15,0,0,0-.45,9.88,18.76,18.76,0,0,0,5.12,7.94L878.87,383q3.76,1.35,2.42,5.12L880,391.84q-1.35,3.77-5.12,2.42l-60.92-21.79c-2.51-.89-3.32-2.6-2.42-5.11l1.35-3.76q1.35-3.77,5.11-2.42L842.62,370a25.7,25.7,0,0,1-.22-17.5A28.67,28.67,0,0,1,850.11,340.45Z"/><path class="cls-1" d="M79.4,203.62a7.75,7.75,0,0,0-3.57-1.89,6.56,6.56,0,0,0-3.94.14,7.6,7.6,0,0,0-5,6,8.51,8.51,0,0,0,.36,4.19,8,8,0,0,0,2.29,3.46,7.81,7.81,0,0,0,3.65,1.86,7.12,7.12,0,0,0,4-.22A7,7,0,0,0,80.3,215a8.36,8.36,0,0,0,1.72-3.7,8.46,8.46,0,0,0-.34-4.13A8.37,8.37,0,0,0,79.4,203.62Z"/><path class="cls-1" d="M40.53,103.53a8.29,8.29,0,0,0,3.63-2.45,8.56,8.56,0,0,0,1.93-3.89,7.83,7.83,0,0,0-.28-4.35,8.52,8.52,0,0,0-2.44-3.7,7.89,7.89,0,0,0-3.84-1.88,8.24,8.24,0,0,0-4.46.32A7.82,7.82,0,0,0,31.55,90a8,8,0,0,0-1.8,3.91A7.79,7.79,0,0,0,30,98.24a8.18,8.18,0,0,0,2.43,3.58,8.56,8.56,0,0,0,3.89,1.93A7.53,7.53,0,0,0,40.53,103.53Z"/><path class="cls-1" d="M118,316.59a7.85,7.85,0,0,0-3.56-1.89,6.52,6.52,0,0,0-4,.15,7.53,7.53,0,0,0-5,6,8.63,8.63,0,0,0,.35,4.19,8.13,8.13,0,0,0,5.94,5.33,7.16,7.16,0,0,0,4-.23A6.94,6.94,0,0,0,119,328a8.48,8.48,0,0,0,1.72-3.7,8.58,8.58,0,0,0-.34-4.13A8.3,8.3,0,0,0,118,316.59Z"/><path class="cls-1" d="M896.85,9.9Q885.59,0,866.7,0H837.9q-36,0-48.6,35.1L648.9,433.8,523.8,36Q513,0,474.3,0H433.8q-36,0-48.6,35.1L244.8,433.8,119.7,36Q108.9,0,70.2,0H41.4Q22.5,0,11.25,9.9T0,36q0,6.31,2.7,16.2l127.22,378,18.31,4.71,12.22-17.5a2.63,2.63,0,0,1,1.22-1.05,1.2,1.2,0,0,1,1.17.17,2.38,2.38,0,0,1,.83,1.23l1.4,4.09a3.22,3.22,0,0,1-.46,3.08L156.24,437,170,440.5a3.22,3.22,0,0,1,2.25,2.15l1.3,3.8c.4,1.17.13,1.92-.82,2.24a2.73,2.73,0,0,1-1.51,0l-38.32-9.85L188.1,603q9,27,23.4,41.4t30.6,14.4q16.2,0,30.6-13.95T297,604.8L451.8,198.9,592.2,603q9.88,27,24.3,41.4t30.6,14.4q15.28,0,29.7-13.95t24.3-40.05L904.5,53.1q3.59-7.2,3.6-18A32.1,32.1,0,0,0,896.85,9.9ZM8.51,44.41a13,13,0,0,0,6.22,7.64c.79.45,1.25.86,1.38,1.24.19.57-.28,1-1.41,1.43l-4.26,1.46a2.84,2.84,0,0,1-3.21-.68,22,22,0,0,1-5.54-8.76A22.71,22.71,0,0,1,6.13,24.3,21.74,21.74,0,0,1,16,17.64a22.39,22.39,0,0,1,11.83-.82,22.88,22.88,0,0,1,10.67,5.23,22.25,22.25,0,0,1,6.61,9.86,22,22,0,0,1,1,10.31,2.84,2.84,0,0,1-2.13,2.5L39.62,46.2c-1.17.4-1.86.3-2.07-.31a2.86,2.86,0,0,1,.33-1.82,13.22,13.22,0,0,0,.37-9.83,14.53,14.53,0,0,0-4.36-6.56A13.85,13.85,0,0,0,27,24.53a16.38,16.38,0,0,0-8,.79,17.45,17.45,0,0,0-7,4.36A14.7,14.7,0,0,0,8.08,36.5,13.85,13.85,0,0,0,8.51,44.41Zm18.75,63.34A16.33,16.33,0,0,1,22,92.37a16.56,16.56,0,0,1,3.58-7.7,15.13,15.13,0,0,1,6.87-4.76,15.76,15.76,0,0,1,8.45-.51,16.59,16.59,0,0,1,7.66,3.88,16.23,16.23,0,0,1,4.69,7,15.85,15.85,0,0,1,.53,8.32,17.38,17.38,0,0,1-3.67,7.72,15.7,15.7,0,0,1-7,4.8,15.31,15.31,0,0,1-8.31.46A16.25,16.25,0,0,1,27.26,107.75Zm17.72,62a3.37,3.37,0,0,1-1.5-1.78,3.31,3.31,0,0,1,.1-2.31,6.07,6.07,0,0,1,1.72-2.37l14.46-12.62-19-.55a6,6,0,0,1-2.78-.7,3.05,3.05,0,0,1-1.45-1.66,2.9,2.9,0,0,1,.14-2.17,5.66,5.66,0,0,1,1.8-2.17l23.63-18.23a2.49,2.49,0,0,1,.79-.46,1.68,1.68,0,0,1,1.47.13,2.42,2.42,0,0,1,1,1.37l.87,2.55a2.43,2.43,0,0,1,0,1.76A3.75,3.75,0,0,1,65.06,132l-16.44,12,20.3-.73a2.8,2.8,0,0,1,3,1.95l.74,2.16a2.57,2.57,0,0,1,0,1.83,3,3,0,0,1-1.27,1.39L55.27,163.49l20.47-.22a2.9,2.9,0,0,1,2.84,2.2l1.09,2.8c.6,1.52.34,2.48-.8,2.87a3.13,3.13,0,0,1-1,.1l-30.08-.81A5.2,5.2,0,0,1,45,169.74ZM64.79,228,64,225.75a2.12,2.12,0,0,1,1.49-3.05l1.59-.54a15.37,15.37,0,0,1-4.18-3.52,15.11,15.11,0,0,1-2.75-4.89,15.36,15.36,0,0,1-.6-7.88,15.19,15.19,0,0,1,3.35-7.08A14.41,14.41,0,0,1,77,193.92a14.69,14.69,0,0,1,6.93,3.59,15.4,15.4,0,0,1,4.36,6.63,15.24,15.24,0,0,1,.82,5.55A15.41,15.41,0,0,1,87.93,215l2.38-.82a2.13,2.13,0,0,1,3,1.5l.78,2.27a2.12,2.12,0,0,1-1.5,3.05l-24.81,8.48A2.11,2.11,0,0,1,64.79,228Zm15.88,39a2.12,2.12,0,0,1-3-1.5l-.77-2.27a2.11,2.11,0,0,1,1.49-3l24.81-8.49a2.12,2.12,0,0,1,3,1.49l.77,2.27a2.12,2.12,0,0,1-1.49,3.05l-3,1a15.46,15.46,0,0,1,6.65,8.13,17.3,17.3,0,0,1,1,4.28,2.51,2.51,0,0,1-1.92,2.74l-3.18,1.09c-1.06.37-1.68.28-1.86-.25a3.26,3.26,0,0,1,.08-1.61,9.44,9.44,0,0,0-.39-4.88q-1.41-4.08-7.61-7Zm22.4,72.87-.78-2.27a2.12,2.12,0,0,1,1.49-3.05l.74-.25a14.76,14.76,0,0,1-5.71-7.62,15.37,15.37,0,0,1,2.74-15,14.41,14.41,0,0,1,14.06-4.88,14.72,14.72,0,0,1,6.94,3.59,15.52,15.52,0,0,1,4.36,6.63,14.79,14.79,0,0,1,.15,9.52l13.45-4.6a2.12,2.12,0,0,1,3.05,1.49l.78,2.27a2.12,2.12,0,0,1-1.5,3l-36.73,12.57A2.12,2.12,0,0,1,103.07,339.91Zm55,33.55L121.38,386a2.12,2.12,0,0,1-3-1.5l-.78-2.27a2.12,2.12,0,0,1,1.5-3l36.73-12.57a2.12,2.12,0,0,1,3.05,1.5l.77,2.27A2.11,2.11,0,0,1,158.11,373.46Z"/></g></g></svg>