<svg xmlns="http://www.w3.org/2000/svg" viewBox="0 0 965.25 65.2"><defs><style>.cls-1{fill:#fff;}.cls-2{fill:none;stroke:#fff;stroke-miterlimit:10;stroke-width:2px;}</style></defs><title>アセット 39</title><g id="レイヤー_2" data-name="レイヤー 2"><g id="レイヤー_1-2" data-name="レイヤー 1"><path class="cls-1" d="M9.47,28.65c0-1.89-.64-2-1.61-.49a74.68,74.68,0,0,1-6.1,7.63,1,1,0,0,1-1.4.14A.9.9,0,0,1,.22,34.6C5.83,26.41,11.43,14.37,15.21,2A1.64,1.64,0,0,1,17.52.72l3.29,1.05c1.12.35,1.54,1.33.77,2a3.9,3.9,0,0,1-1.33.63,1,1,0,0,0-.7.56c-1.68,4.41-3.78,9.17-5.81,13.23-.21.28-.07.49.28.63l.56.21c.84.28,1.19,1.05.7,1.54v.14a2,2,0,0,1-1,.7.9.9,0,0,0-.63.91v40.4a.76.76,0,0,1-.07.35h-.07a.53.53,0,0,1-.14.35,5.09,5.09,0,0,1-3,1.4h-.14l-.14-.07a.42.42,0,0,1-.42-.28l-.07-.14a1,1,0,0,1-.14-.42Zm55.3,32.77a1,1,0,0,1-.84.84,3.1,3.1,0,0,0-2,1c-.77.77-1.61,1.4-2.8.91C48.32,59.81,43.77,53.08,41.53,47.76a.74.74,0,0,0-1.26,0c-2.59,6.44-9,12.68-23,16.95a1.25,1.25,0,0,1-1.54-.56.87.87,0,0,1,.49-1.4C26.76,58.48,32.43,53.57,35.3,48.6c.35-.77.07-1.19-.7-1.19H19.83a1.67,1.67,0,0,1-1.75-1.47c-.21-.91.21-1.4,1.12-1.4H36.35a.79.79,0,0,0,.84-.56,20.93,20.93,0,0,0,.7-4.27c.07-.63-.21-.84-.84-.84H23.68a1.67,1.67,0,0,1-1.75-1.47c-.21-.91.21-1.4,1.12-1.4H37.19c.63,0,.84-.21.84-.84V31c0-.63-.21-.84-.84-.84H21.37a1.62,1.62,0,0,1-1.75-1.4c-.21-.91.14-1.47,1.12-1.54H30.82c.7,0,.91-.28.77-.91A25.45,25.45,0,0,0,28,19c-.21-.28-.35-.42-.7-.42h-7.7a1.67,1.67,0,0,1-1.75-1.47c-.21-.91.21-1.4,1.12-1.4H32.64c.63,0,.84-.21.84-.84V2.61a1.62,1.62,0,0,1,2-1.82L37.89,1H38c1.12.28,1.75,1,1.19,1.82a2.26,2.26,0,0,1-1.19.7.9.9,0,0,0-.63.91V14.86c0,.63.21.84.84.84h4.13c.63,0,.84-.21.84-.84V2.61a1.62,1.62,0,0,1,2-1.82L47.55,1h.14c1.12.28,1.82,1,1.19,1.89a2.22,2.22,0,0,1-1.05.63.9.9,0,0,0-.63.91V14.86c0,.63.21.84.84.84h7.77c.28,0,.42-.14.63-.35a19.83,19.83,0,0,1,1.61-2l.14-.14c.63-.84,1.47-.91,2.45-.21a45.79,45.79,0,0,1,3.5,3.15h.07a1.14,1.14,0,0,1,.35,1.61,2,2,0,0,1-1.68.77H52.8c-.42,0-.42-.07,0,.07l.7.21c.91.28,1.33,1,.7,1.68a2.89,2.89,0,0,1-1.75.77,1.26,1.26,0,0,0-.63.42,26.62,26.62,0,0,1-3.22,4.13q-1.47,1.47.63,1.47h5c.28,0,.42-.14.63-.35l1.61-2.1a1.63,1.63,0,0,1,2.45-.28c1,.84,2.45,2,3.71,3.22h.14a1.14,1.14,0,0,1,.35,1.61,2.08,2.08,0,0,1-1.75.77H43.07c-.63,0-.84.21-.84.84v4.13c0,.63.21.84.84.84h9a.86.86,0,0,0,.7-.35c.49-.63,1.05-1.26,1.61-2a1.78,1.78,0,0,1,2.66-.28c1,.84,2.38,2,3.57,3.08A1.29,1.29,0,0,1,61,38.17a1.85,1.85,0,0,1-1.61.7H43c-.63,0-.84.21-.91.84a31.2,31.2,0,0,1-.42,3.78c-.21.77.07,1,.84,1.12H55.39c.28,0,.42-.14.63-.35l1.82-2.17a1.59,1.59,0,0,1,2.45-.21c1.05.77,2.31,2,3.64,3.08.49.49.84,1.26.35,1.82a2.38,2.38,0,0,1-1.68.63H45.24c-.84,0-1.19.49-.63,1.19C47.69,52.73,53.43,57,64,60.3a1,1,0,0,1,.77,1ZM22.42,3.94c.14-.07.14-.07.21-.07a1.48,1.48,0,0,1,1.33,0c5,3,6.72,6.23,6.72,8.54S29,16,27.18,14.93a1.53,1.53,0,0,1-.63-1.19,23.26,23.26,0,0,0-4.13-8.61.74.74,0,0,1-.14-.35A.72.72,0,0,1,22.42,3.94ZM34,18.57c-1.89,0-2,.49-.63,1.82a7.26,7.26,0,0,1,2.38,4.9,5.55,5.55,0,0,1-.14,1.19c-.21.63,0,.84.56.84h7.91a.88.88,0,0,0,.77-.42,64,64,0,0,0,2.8-7.21c.28-.77,0-1.12-.84-1.12ZM59.59,7.3a2,2,0,0,1-1.26.42c-.35.07-.56.14-.7.35a79.53,79.53,0,0,1-6.44,7,1.15,1.15,0,0,1-1.47.07,1,1,0,0,1-.28-1.4,93.73,93.73,0,0,0,4.48-8.82,1.58,1.58,0,0,1,2.38-1l2.87,1.33c1,.42,1.33,1.4.49,2Z"/><path class="cls-1" d="M83.61,47.6c-1,2.75-2.1,5.66-2.5,6.86a11.22,11.22,0,0,0-.85,3.3A11.69,11.69,0,0,0,80.61,60a8.38,8.38,0,0,1,.3,1.85c0,1-.5,1.55-1.35,1.55s-1.55-.75-2.25-1.9a25.49,25.49,0,0,1-2.9-11.7,45.38,45.38,0,0,1,2.3-13.71l.15-.5c.2-.6.4-1.2.55-1.8a17.18,17.18,0,0,0,.8-3.7c.05-1.45-.9-2.8-2.65-4.75l0-.1a.71.71,0,0,1,.25-1.05,1.22,1.22,0,0,1,1.1-.1s0,0,.15,0a14.81,14.81,0,0,1,1.6,1.15c.9.75,3.15,3.45,3.15,5.5a5.31,5.31,0,0,1-.8,2.45A27.19,27.19,0,0,0,79.81,36c-1.1,2.85-3.1,8-3.1,13.11,0,2.79.35,4,1,5.15.35.6.55.6.85,0,.65-1,2-4.41,3.3-7.36.5-1.15,1-2.3,1.3-3.15a.77.77,0,0,1,1.15-.45.82.82,0,0,1,.45,1.15Zm18.45-19.9a1,1,0,0,0-.75-1.1,12.41,12.41,0,0,0-2.75-.4,1,1,0,0,1-.9-.9.88.88,0,0,1,.75-1.05,11.28,11.28,0,0,1,2.85-.45c1.9,0,4.55,1.45,4.55,2.65a3.54,3.54,0,0,1-.25,1.3,19.79,19.79,0,0,0-.55,2.3,18.29,18.29,0,0,0-.35,3.1q-.07.83.75.6a28.32,28.32,0,0,0,3.5-1.3c.75-.4,1-.4,1.2-.55a3.41,3.41,0,0,1,1.1-.45c1,0,2.5.7,2.5,1.75,0,.85-.7,1.55-2.2,2a60.4,60.4,0,0,1-6.4,1.7.56.56,0,0,0-.5.6c0,4.45.35,8.85.7,12.51l0,.5a.54.54,0,0,0,.45.5,21.8,21.8,0,0,1,7.75,4.4,4.18,4.18,0,0,1,1.6,2.95c0,1.05-.4,1.65-1.2,1.65s-1.3-.55-2.1-1.35a22,22,0,0,0-5.7-4.2c-.35-.2-.5-.11-.55.3v.7c0,3.75-2.3,6.65-8.45,6.65-4.4,0-8-2.1-8-5.76,0-4.3,4.35-6.3,9.7-6.3a19,19,0,0,1,3.1.21c.55,0,.75-.11.7-.66l-.2-3.85-.35-7.65q0-.67-.75-.6a32.8,32.8,0,0,1-5,.4c-2.9,0-4.85-.7-7.55-4a.8.8,0,0,1,0-1.15A.9.9,0,0,1,90,32.8,10.42,10.42,0,0,0,96.41,35a34.81,34.81,0,0,0,5.2-.4.52.52,0,0,0,.45-.6ZM96.41,59.16c5.25,0,6.2-1.75,6.35-5.45,0-.36-.15-.56-.45-.61a26.09,26.09,0,0,0-4.6-.45c-3,0-6.5,1.25-6.5,3.5S93.36,59.16,96.41,59.16Z"/><path class="cls-1" d="M175,6.81a.76.76,0,0,0,.63-.28l1.82-2.38A1.57,1.57,0,0,1,180,3.94l4,3.36a1.19,1.19,0,0,1,.35,1.75,1.9,1.9,0,0,1-1.68.7H130.73c-.63,0-.84.21-.84.84V25.36c0,11.48-.42,26.88-8.27,38.09v.07c-.28.49-.77.56-1.4.21a.93.93,0,0,1-.28-1.33c5.39-11.21,5.81-24.72,5.81-37V7.3c0-1.68,1-2.17,2.39-1.54l2.1,1a.89.89,0,0,0,.42.07h20c.63,0,.84-.21.84-.84V1.84a1.62,1.62,0,0,1,2-1.82l2.8.35c1.12.14,2,1,1.26,1.89a3.41,3.41,0,0,1-1.26.77c-.42.21-.7.42-.7.91V6c0,.63.21.84.84.84Zm-1.75,42.77c-.14-.07-.21,0-.35.21a3,3,0,0,1-2,1.12.78.78,0,0,0-.63.49l-.77,1.76c-.42.9-.14,1.33.84,1.25.63,0,1.4-.07,2-.07,1-.06,1.19-.56.56-1.12L171.82,52a.65.65,0,0,1,.07-1.05l.21-.07a1.5,1.5,0,0,1,1.33-.07c4.06,1.61,5.46,4.07,5.46,5.74a1.86,1.86,0,0,1-2.52,1.9c-.14-.07-.35-.15-.42-.28l-.28-.42-.14-.14-.14-.64a.75.75,0,0,0-.84-.34l-3.15.55-5.18,1a1.54,1.54,0,0,0-.56.41l-.56.5c-.7.34-1.19.21-1.47-.63l-.77-2c-.49-1.2-.07-1.9,1.33-1.9.49,0,.84-.07,1.33-.07a.76.76,0,0,0,.77-.56,31.81,31.81,0,0,0,1.12-4.62,1.67,1.67,0,0,1,2-1.47l2.59.42c.35.07.49-.07.49-.42s-.14-.49-.49-.49H161.81c-.63,0-.84.21-.84.84V59.11c0,.7.21.77,2.94.77h7.84c3.43,0,6.37-.07,7.49-.14A1.47,1.47,0,0,0,180.5,59a19.54,19.54,0,0,0,1.4-4.63c.07-.42.35-.56.77-.56a.52.52,0,0,1,.56.56l.21,4.35c0,.34.21.55.56.76a1.84,1.84,0,0,1,1.26,1.69c0,2-2,2.73-13.58,2.73h-8.26c-5.39,0-6.44-1-6.44-4.13V48.25c0-.63-.21-.84-.84-.84h-4.48a.67.67,0,0,0-.77.63c-2.45,9.81-9.24,14.08-21.21,16.53-.7.14-1.19-.07-1.33-.7v-.14a.84.84,0,0,1,.63-1.19c10.36-2.87,15.47-6.93,17.36-14.08.21-.77,0-1.05-.77-1.05h-3.71c-.63,0-.84.21-.84.84v1.54c0,.56-1.54,1.61-3.15,1.61h-.14l-.14-.07a.44.44,0,0,1-.42-.28l-.07-.14a.89.89,0,0,1-.07-.42V31.59c0-1.54.77-1.89,2.1-1.33l2,.84c0,.07.14.07.28.07h8.26a.88.88,0,0,0,.77-.42c.35-.91.91-2,1.26-3a1.74,1.74,0,0,1,2.17-1.19H154l2.45.77c1.19.35,1.68,1.33.84,2a4.09,4.09,0,0,1-1.54.56c-.28,0-.42.14-.63.35l-.42.42c-.49.42-.42.56.14.56h16.73a.76.76,0,0,0,.63-.28l.91-1a1.91,1.91,0,0,1,2.45-.21l2.52,2h.07c.91.84,1,1.75.14,2.38h-.14l-1.12.49a.76.76,0,0,0-.56.77V47.62a.42.42,0,0,1-.07.28V48a.49.49,0,0,1-.28.35,7,7,0,0,1-2.38,1.26ZM142.14,24.1c0-1.54-.49-1.75-1.54-.63a44.48,44.48,0,0,1-9.11,6.79A1,1,0,0,1,130,30a1.09,1.09,0,0,1,.28-1.54,34.15,34.15,0,0,0,8.75-9c.56-.7.28-1.19-.7-1.19h-5.25a1.62,1.62,0,0,1-1.75-1.4c-.21-.91.21-1.4,1.12-1.4h8.82c.63,0,.84-.21.84-.84V11.5a1.62,1.62,0,0,1,2-1.82l2.31.28c1.05.14,1.75.91,1.19,1.75l-.14.14a2,2,0,0,1-.84.56.9.9,0,0,0-.63.91v1.33c0,.63.21.84.84.84h1.19c.28,0,.42-.14.63-.35l1.19-1.47a1.78,1.78,0,0,1,2.52-.28c.84.77,1.89,1.61,2.94,2.52a1.54,1.54,0,0,1,.35,1.47c0,.07,0,.07-.07.21a1.94,1.94,0,0,1-1.61.7h-7.63c-.28,0-.35.07-.35.35s.14.35.35.42c5.6,1.12,7.42,3.64,7.42,5.32a1.92,1.92,0,0,1-2.52,1.89l-.35-.14-.63-.63a24.53,24.53,0,0,0-2.94-3.22c-.77-.77-1.33-.49-1.33.63V29c0,.56-1.61,1.4-2.94,1.4h-.42a.52.52,0,0,1-.56-.56ZM141,36.91c0,.63.21.84.84.84h11.83c.63,0,.84-.21.84-.84V35c0-.63-.21-.84-.84-.84H141.86c-.63,0-.84.21-.84.84Zm0,6.86c0,.63.21.84.84.84h11.83c.63,0,.84-.21.84-.84V41.53c0-.63-.21-.84-.84-.84H141.86c-.63,0-.84.21-.84.84Zm33.25-25.48c-1.26,0-1.54.56-.49,1.33a43.85,43.85,0,0,0,9.73,5.32c.07,0,.07,0,.21.07a1.2,1.2,0,0,1,.49.91v.14a1,1,0,0,1-.77.84,3.06,3.06,0,0,0-1.33.84c-.84.84-1.82,1.4-3,.63a32,32,0,0,1-7.42-6.79c-1.12-1.54-1.68-1.33-1.68.49v6.65c0,.56-1.54,1.33-3,1.33h-.42a.52.52,0,0,1-.56-.56V22.91c0-1.26-.49-1.54-1.47-.63a35.88,35.88,0,0,1-7.56,4.9,1.25,1.25,0,0,1-1.68-.35l-.14-.14a1.27,1.27,0,0,1,.42-1.54,27.71,27.71,0,0,0,6.58-5.6c.77-.77.49-1.26-.56-1.26h-3.22a1.62,1.62,0,0,1-1.75-1.4c-.21-.91.21-1.4,1.12-1.4h7.42c.63,0,.84-.21.84-.84V11.92a1.62,1.62,0,0,1,2-1.82l2.31.21h.14c1,.28,1.68,1,1.33,1.82l-.14.14a5,5,0,0,1-1.05.56.9.9,0,0,0-.63.91v.91c0,.63.21.84.84.84h5.25c.28,0,.42-.14.63-.35A12.65,12.65,0,0,1,178,13.53a1.62,1.62,0,0,1,2.52-.21c.84.77,1.89,1.68,3,2.59a1.14,1.14,0,0,1,.35,1.61,2,2,0,0,1-1.68.77ZM158.52,36.91c0,.63.21.84.84.84h12.32c.63,0,.84-.21.84-.84V35c0-.63-.21-.84-.84-.84H159.36c-.63,0-.84.21-.84.84Zm.84,3.78c-.63,0-.84.21-.84.84v2.24c0,.63.21.84.84.84h12.32c.63,0,.84-.21.84-.84V41.53c0-.63-.21-.84-.84-.84Z"/><path class="cls-1" d="M199,26.69a1.56,1.56,0,0,1-.84-.84c-1.34-2.52-4.48-5.39-7.5-7.28a.77.77,0,0,1-.28-1.05l.14-.14a1.41,1.41,0,0,1,1.19-.42c7.78,1.33,10.44,4.83,10.44,7.35a2.28,2.28,0,0,1-3,2.38Zm-6.24,20.37a1.14,1.14,0,0,1-1.12-1.26,1.07,1.07,0,0,1,1.19-1.19h2.24c.63,0,.85-.07,1.4-1.19,1.13-2.59,1.2-2.66,13.31-30.17a1,1,0,0,1,1.33-.7.83.83,0,0,1,.63,1v.14c-1.47,4.2-3.71,10-5.6,15.12-2.24,6-4.2,11.34-4.76,13a20.14,20.14,0,0,0-1.05,5.95,19.25,19.25,0,0,0,.63,3.57,28,28,0,0,1,.91,8.34c-.21,3.08-1.4,5-3.65,5-1.4,0-2.09-1.68-2.09-3.92v-.14a49.57,49.57,0,0,0,.48-6.66c0-3.36-.48-5.53-1.39-6.16a4.78,4.78,0,0,0-2.32-.84Zm3.09-44.38a.74.74,0,0,1,0-1.05,1.64,1.64,0,0,1,1.4-.35c7.91,1.47,10.5,5.46,10.5,8a2.45,2.45,0,0,1-3.08,2.59h-.14a2.82,2.82,0,0,1-.91-.91V10.8A23.14,23.14,0,0,0,196,2.89Zm47.32,13.09a.86.86,0,0,0,.7-.35,22.06,22.06,0,0,1,1.68-2.1,1.73,1.73,0,0,1,2.66-.28l3.64,3.15a1.33,1.33,0,0,1,.42,1.61l-.07.21a2.11,2.11,0,0,1-1.61.63h-17.5c-.63,0-.84.21-.84.84V31.17c0,.63.21.84.84.84h12.74a.86.86,0,0,0,.7-.35l1.75-2.1a1.78,1.78,0,0,1,2.66-.28c1.05.91,2.31,2.1,3.64,3.22a1.48,1.48,0,0,1,.42,1.61l-.07.21a2,2,0,0,1-1.61.63H232.09a.79.79,0,0,0-.77.49,114.75,114.75,0,0,1-10.64,19.18c-.77,1-.49,1.41.77,1.33l22.33-1.67c1-.08,1.19-.5.56-1.27a118,118,0,0,0-8.26-10.22.85.85,0,0,1,.07-1l.14-.14a1.3,1.3,0,0,1,1.19.14h.14c12.6,8.26,16.66,15.83,16.66,19.68,0,2.24-1.26,3.36-3.22,2.45l-.7-.7-.21-.35a32.83,32.83,0,0,0-3.08-6,.8.8,0,0,0-.91-.41c-8.61,1.46-19.53,3.36-34.3,5.39a1.65,1.65,0,0,0-.63.42,3.54,3.54,0,0,1-.56.63c-.56.49-1.26.14-1.61-.7l-1.33-2.95c-.7-1.54-.14-2.45,1.61-2.51,2-.07,4.27-.15,6.79-.36a.78.78,0,0,0,.63-.49,102.7,102.7,0,0,0,8.61-19.81c.21-.77-.07-1.12-.84-1.12H210a1.74,1.74,0,0,1-1.82-1.47c-.21-.91.14-1.47,1.19-1.47h17.85c.63,0,.84-.21.84-.84V19.48c0-.63-.21-.84-.84-.84H213.68a1.67,1.67,0,0,1-1.75-1.47c-.21-.91.21-1.4,1.12-1.4h14.14c.63,0,.84-.21.84-.84v-12a1.62,1.62,0,0,1,2-1.82l2.73.28c1.4.14,2.1,1.12,1.33,2a3.81,3.81,0,0,1-1.26.77.9.9,0,0,0-.63.91v9.87c0,.63.21.84.84.84Z"/><path class="cls-1" d="M283.19,14.51a9.54,9.54,0,0,1-1.19.28,1.15,1.15,0,0,0-.84.49,71.14,71.14,0,0,1-18.77,22,1,1,0,0,1-1.47-.14.89.89,0,0,1,0-1.26c6.94-6.58,12.82-16.1,16.18-23.73a1.64,1.64,0,0,1,2.45-1.05l3.29,1.47c1.12.49,1.33,1.33.49,1.89ZM313.64,32c.84.49,1.26,1.61.42,2a2.7,2.7,0,0,1-1.47.21.8.8,0,0,0-.91.42C300.76,52.38,286.27,60,267,64.64a1.09,1.09,0,0,1-1.47-.84,1.07,1.07,0,0,1,.78-1.4C284.1,56.79,297.89,49.16,308,31.1a1.72,1.72,0,0,1,2.45-.77Zm-19,5.11c0,3.36-.56,5.46-5.39,6.37-1,.21-1.75-.42-2.24-1.4a3.71,3.71,0,0,0-1.12-1.33,21.92,21.92,0,0,0-5.39-1.4,1,1,0,0,1-1-1.12.81.81,0,0,1,1-.91c2.1.21,7.21.49,8.4.49s1.54-.21,1.54-1.12V2.47a1.62,1.62,0,0,1,2-1.82l2.8.28c1.19.14,2,1.12,1.19,2a2.75,2.75,0,0,1-1.19.63.9.9,0,0,0-.63.91Zm24.08-5-.21-.28c-2.59-6.09-10.22-14.28-16-19.67-.42-.42-.42-.77.14-1.12A1.18,1.18,0,0,1,304,11c14.07,8,18.41,15.89,18.41,19.6,0,2-1.26,3-2.94,2.24Z"/><path class="cls-1" d="M384.48,18.57c.28,0,.42-.14.63-.35l2.17-2.52a1.74,1.74,0,0,1,2.52-.28,52.86,52.86,0,0,1,4.27,3.5l.14.07a1.19,1.19,0,0,1,.28,1.61,2,2,0,0,1-1.75.84h-12c-.49,0-.63.21-.77.63-2.24,10.08-5.18,17.71-10,24.15-.49.56-.42,1,.28,1.33,15.19,6.37,19.67,12.12,19.67,15.13,0,1.54-1.12,2.24-2.59,1.89a.76.76,0,0,1-.35-.07l-.42-.28-.14-.14c-4-4-10.85-8.89-19.74-13.45a.67.67,0,0,0-.91.14c-7.28,6.8-18.06,11.28-34,13.94a1.1,1.1,0,0,1-1.33-.91.81.81,0,0,1,.7-1.19c13.73-3,23.11-7.08,30-13.31.63-.56.56-1-.21-1.33-4.55-2-10-4.06-15.26-5.74a.65.65,0,0,0-.84.28l-.28.63-1.12,2.1v.14a1.27,1.27,0,0,1-.91.7,5.15,5.15,0,0,1-2.31-.07c-1.27-.21-1.54-1.33-1-2.38a229.43,229.43,0,0,0,10.15-21c.35-.84.07-1.19-.77-1.19H332.25A1.79,1.79,0,0,1,330.5,20l-.07-.14a1.09,1.09,0,0,1,1.19-1.33h19a.79.79,0,0,0,.77-.49,173.59,173.59,0,0,0,6.3-16.45A1.68,1.68,0,0,1,359.77.3l3.08.63c1.19.21,1.82,1.12,1,2a3.15,3.15,0,0,1-1.54.7,1,1,0,0,0-.7.56c-1.33,3.36-3.08,7.84-5.39,13.23-.35.84-.07,1.19.77,1.19Zm-29.33,2.87a.79.79,0,0,0-.77.49c-2.59,5.95-5.11,11.76-7.7,17.08-.28.63-.14,1,.49,1.19,6.65,1.75,12.18,3.36,17.22,5.11a.71.71,0,0,0,.91-.28c4.83-6,7.63-13.23,9.8-22.54.14-.77-.07-1-.84-1Z"/><line class="cls-2" x1="407.78" y1="34.52" x2="562.7" y2="34.52"/><path class="cls-1" d="M608.26,60.26a2.63,2.63,0,0,1,2,2.15c0,1.1-1.05,1.6-3,1.6a30.64,30.64,0,0,1-5.9-.65c-4.55-1-8.9-4-8.9-9.51a11.52,11.52,0,0,1,3.1-8c1.25-1.35,1-1.75-.75-1.15a49.69,49.69,0,0,0-7.7,3c-1,.56-1.85,1.06-2.6,1.45-1.4.8-2.2,1.36-3.15,1.36a2.21,2.21,0,0,1-2-2.06,1.76,1.76,0,0,1,1.3-1.8l1.4-.5a28.94,28.94,0,0,0,2.85-1.05,18.4,18.4,0,0,0,5.3-3.85c3-3,11-11,13.15-14.7,0,0,0-.05,0-.1a.22.22,0,0,0-.25,0c-2.6.65-6,1.65-8.4,2.5a9.13,9.13,0,0,0-2.1,1,3.18,3.18,0,0,1-1.65.6c-1,0-3.85-2.15-4.1-4.2v-.1a4.78,4.78,0,0,1,0-2.05.84.84,0,0,1,.4-.55.54.54,0,0,1,.25-.05c.25,0,.45.05.55.25V24c.85,1.55,1.55,2.75,2.45,2.75,1.8,0,9.4-1.8,11.3-2.4a4.66,4.66,0,0,0,1.55-.75,2.17,2.17,0,0,1,1-.4c1.15,0,4,2.05,4,3.45,0,.8-.4.9-.95,1.25h-.1a6.19,6.19,0,0,0-1.55,1.2c-4,4.25-6.7,6.9-10.15,10.1l-3.85,3.6c-.55.5-.45.65.25.4l1.15-.35c4.9-1.5,11.3-3.2,14-3.85a39.24,39.24,0,0,1,6.7-1.2c1.8,0,3.55,1.05,3.55,2.3,0,.95-.7,1.5-2.55,1.5H614a26.26,26.26,0,0,0-3.35,0c-4.6.35-8.95,1.55-10.9,3.15-2.45,1.9-4.85,4.3-4.85,8.55,0,4,3.15,6,7.75,6.66a28,28,0,0,0,3.8.2,6.25,6.25,0,0,1,1.7,0Z"/><path class="cls-1" d="M634.71,36.2a1,1,0,0,1,.45-.65.54.54,0,0,1,.25,0c.35,0,.6.1.7.4l0,.1c.85,1.65,1.5,2.5,2.5,2.5a14.34,14.34,0,0,0,4-1.3c2.9-1.2,6.85-2.8,10.2-2.8,5.15,0,8.55,4.15,8.55,10.8,0,10.9-8.25,17-20.9,19.41a1,1,0,0,1-1.2-.7.75.75,0,0,1,.6-1.1c11.8-3,18.1-8.6,18.1-18.16,0-5.4-2.25-8-5.45-8s-8.4,3-10.25,4.2l-.8.55a3.89,3.89,0,0,1-2.35,1.05c-1.4,0-3.45-2-4-3.2a6.15,6.15,0,0,1-.4-3Zm10.4-8a10.63,10.63,0,0,0,1.55-.9c1-.55,1-.85-.1-1.1a13.75,13.75,0,0,1-6.5-3.65.91.91,0,0,1,0-1.15.7.7,0,0,1,1-.2,15.35,15.35,0,0,0,9,2.65,12.11,12.11,0,0,0,2.25-.2,11.14,11.14,0,0,1,1.6-.15c1.75,0,3.7.7,3.7,2.1,0,.85-.8,1.2-1.8,1.25a11.65,11.65,0,0,0-3.25.5c-2,.65-5.3,2.1-7.6,3l-.65.25a.81.81,0,0,1-1-.45.66.66,0,0,1,.3-1.05h.1Z"/><path class="cls-1" d="M687.13,42.65a21,21,0,0,1,.21,2.66,16.59,16.59,0,0,1-6.17,13.3c-2,1.34-4.41,1.83-5.32.36s0-3,1.47-3.86a18.39,18.39,0,0,0,8.06-12.6c.07-.49.35-.77.84-.7h.14a.68.68,0,0,1,.77.7Zm38-38.43c.28.07.42-.07.63-.28l.91-1a1.66,1.66,0,0,1,2.52-.21l2.73,2.1.14.07c.77.84.91,1.75,0,2.24l-.14.14a5.42,5.42,0,0,1-1.12.49.78.78,0,0,0-.63.84v26.6a.42.42,0,0,1-.07.28v.07a.76.76,0,0,1-.28.35,5.21,5.21,0,0,1-2.8,1.26.31.31,0,0,1-.35,0h-.07c-.14-.07-.35-.14-.42-.35l-.07-.07a.89.89,0,0,1-.07-.42v-1c0-.63-.21-.84-.84-.84H689.93c-.63,0-.84.21-.84.84v1.26c0,.56-1.61,1.82-3.29,1.82h-.14l-.14-.07a.43.43,0,0,1-.42-.28l-.07-.14a.79.79,0,0,1-.08-.42V4.5c0-1.47.92-2.1,2.25-1.4l1.89,1a1,1,0,0,0,.42.14ZM689.09,17c0,.63.21.84.84.84h14.35c.63,0,.84-.21.84-.84V8c0-.63-.21-.84-.84-.84H689.93c-.63,0-.84.21-.84.84Zm.84,3.78c-.63,0-.84.21-.84.84v9.1c0,.63.21.84.84.84h14.35c.63,0,.84-.21.84-.84v-9.1c0-.63-.21-.84-.84-.84ZM723.67,58a1,1,0,0,0,.49.77,1.94,1.94,0,0,1,1.4,1.81c0,2.32-2.24,3-15.4,3h-9.73c-5.88,0-7.14-1.05-7.14-4.49V42.51a1.62,1.62,0,0,1,2-1.82l2.38.21h.14c1.12.28,1.75,1,1.19,1.82a2,2,0,0,1-1,.7.9.9,0,0,0-.63.91v14c0,.85.21,1,3.5,1h9.17c4.48,0,7.7.07,8.89-.14.7-.07,1-.28,1.26-.7a36.52,36.52,0,0,0,1.68-7l.21-1.26a.75.75,0,0,1,.77-.63.63.63,0,0,1,.63.63Zm-22.4-20.73a2.26,2.26,0,0,1,1.4-.28c9.38,2.8,12.32,7.63,12.32,10.64,0,2-1.26,3.15-2.94,2.59a1.55,1.55,0,0,1-.91-1.05c-1.47-3.78-5.88-8-9.87-10.64a.76.76,0,0,1-.21-1.05ZM726.05,8c0-.63-.21-.84-.84-.84H710.16c-.63,0-.84.21-.84.84v9c0,.63.21.84.84.84h15.05c.63,0,.84-.21.84-.84Zm0,13.65c0-.63-.21-.84-.84-.84H710.16c-.63,0-.84.21-.84.84v9.1c0,.63.21.84.84.84h15.05c.63,0,.84-.21.84-.84Zm9.38,36.26c-1.54-5.25-6.79-11.55-11.41-15.61-.35-.42-.35-.7,0-.91l.14-.14a1.48,1.48,0,0,1,1.33-.07c10.71,5,14.07,11.55,14.07,15.12,0,2.46-1.4,3.65-3.29,2.81h-.14a1.69,1.69,0,0,1-.7-1Z"/><path class="cls-1" d="M759.16,47.75c-1.45,1-2.4,1.56-3.2,1.56-1.25,0-3-1.36-3.6-2.51a6.53,6.53,0,0,1-.6-2V44.5c0-.15,0-.3.25-.4h.1a1,1,0,0,1,.55,0l.3.15a2.65,2.65,0,0,0,2,1.1c.8,0,1.4-.1,3.2-1.1l1.35-.75c3.7-2,8.85-4.5,13.9-4.5,7,0,10.7,4.5,10.7,9.35,0,5-3,8.21-7.15,10.31-3,1.5-7.6,2.3-12.6,2.3h-1.75a.78.78,0,0,1-.75-.8v-.1a.74.74,0,0,1,.75-.85C772.36,58.56,781,55.65,781,47.9c0-4-2.75-6.65-7.55-6.65-4.15,0-8.65,2.9-11.55,4.75l-1,.6Z"/><path class="cls-1" d="M797.81,30.45h.1a.55.55,0,0,1,.8.3l0,.05a3.83,3.83,0,0,0,2.75,2c1.55,0,5.65-1.1,10.65-2.45,3.4-1,6.9-1.8,10.15-2.55,5.85-1.35,9.45-1.9,11.2-1.9a8.69,8.69,0,0,1,3.4.45c1.2.6,1.45,1,1.45,1.8a1.45,1.45,0,0,1-1.6,1.4,13.12,13.12,0,0,1-1.35-.05c-.75-.05-1.9-.1-2.95-.1-2.4,0-6.05.4-8.4,1.8s-7.45,6.05-7.45,16.2c0,5.2,2.2,7.56,4.35,8.81,3,1.7,6.7,1.64,8.95,1.64h.75c1.15,0,2.8.81,2.8,2.06s-1.15,1.7-3.5,1.7c-2.6,0-8.05-.15-11.5-2.9-3-2.36-4.6-5.45-4.6-11,0-5,1-10.6,5-15.15,1.1-1.2.9-1.6-.7-1.15-4.9,1.45-10.3,3.2-13,4.3l-1,.4h-.1a4.14,4.14,0,0,1-2,.75c-1.8,0-4-2.1-4.7-3.75a5.52,5.52,0,0,1-.3-1.85V31a.4.4,0,0,1,.35-.45Z"/><path class="cls-1" d="M863.76,55a3.05,3.05,0,0,0,.1,2.3,1.58,1.58,0,0,1,.2,1A1.71,1.71,0,0,1,862.31,60a3.13,3.13,0,0,1-1.45-.36c-3.85-1.89-9.2-6.75-9.35-16.2a44.06,44.06,0,0,1,.15-5.85c.1-1,.1-2.1.1-2.85,0-2.45-.1-3.35-3.55-5.85a.72.72,0,0,1-.15-1.05.91.91,0,0,1,1.05-.45,11.42,11.42,0,0,1,2.2.75c1.7.85,4.25,3,4.25,5.15A12.25,12.25,0,0,1,855,36.5a24.38,24.38,0,0,0-1,7c0,6.31,3.05,9.81,5.15,11.15h.1a1.05,1.05,0,0,0,1.4-.25l0-.09a66.1,66.1,0,0,0,4.3-8.41.79.79,0,0,1,1.2-.5.84.84,0,0,1,.55,1.2l-.65,1.71a66.78,66.78,0,0,0-2.4,6.54Zm22-6c-.3-2.25-.9-6.55-3-9.7-1.6-2.45-3.9-3.9-6.9-5a.88.88,0,0,1-.6-1.25c.15-.55.55-.7,1.2-.7h.1a15.64,15.64,0,0,1,8.2,4.85,19.73,19.73,0,0,1,4.4,11.55c0,2-.65,2.66-1.8,2.66-.85,0-1.4-.71-1.55-2Z"/><path class="cls-1" d="M900.46,58.6c2.35-4.25,5.6-9.35,8.1-16.2.6-1.65,1.1-3.3,1.65-5.1.2-.65,0-.85-.7-.75a32.26,32.26,0,0,1-4.85.4c-2.65,0-5-1.05-6.75-4.3a.72.72,0,0,1,.25-1.1.91.91,0,0,1,1.15.05c1.8,1.55,3.15,2.35,5.5,2.4a29.27,29.27,0,0,0,6.15-.7.53.53,0,0,0,.45-.45c.55-2.4,1-4.5,1.2-6.05.15-.95-.3-1.25-1-1.6h-.1c-.75-.25-1.45-.4-2.3-.6a1,1,0,0,1-.85-1.05v-.3l.1-.35,0,0a.39.39,0,0,1,.2-.2l0,0a.54.54,0,0,1,.25-.05,13.2,13.2,0,0,1,2.5-.1c1.6.15,4.85,1.4,4.85,2.6a8.5,8.5,0,0,1-.55,2.15l-.5,1.45-.45,1.65-.3,1.05c-.2.75,0,.95.7.7a38.55,38.55,0,0,0,5.15-2.3,4.06,4.06,0,0,1,1.7-.65c.85,0,2,.55,2,1.45s-.45,1.4-2,2.15l-.1,0a74.83,74.83,0,0,1-8.4,2.9.43.43,0,0,0-.4.4q-1.12,3.68-2.4,7.2c-2.5,6.81-5.6,15.06-7.85,18.46-.75,1.15-1.15,1.45-2.1,1.45s-1.3-.95-1.3-2a4,4,0,0,1,.65-2.1Zm16-7.84a.7.7,0,0,1,.85.64A15.35,15.35,0,0,0,919,55.6c1.55,2.61,4.7,3.75,9,3.75a23,23,0,0,0,6.45-.69,6.11,6.11,0,0,1,1.75-.25c1.05,0,2.25.5,2.25,1.7s-1.45,1.65-2.85,2a30.85,30.85,0,0,1-6.6.6c-5.45,0-10-1.5-12-5.75a15.54,15.54,0,0,1-1.3-5.36.68.68,0,0,1,.7-.84Zm18.9-12.66c1.45.7,2.15,1.55,2.15,2.4,0,1.1-.95,1.2-1.95,1.35a8.28,8.28,0,0,0-2.85.9c-1.2.55-3.25,1.6-4.9,2.45a.91.91,0,0,1-1.2-.35l-.2-.3-.1-.1a.32.32,0,0,1,.1-.45l.35-.15a29.62,29.62,0,0,0,5-3.4s0-.1,0-.15l-.2-.15a14.45,14.45,0,0,0-4.2-.55,33.53,33.53,0,0,0-6.05.6h-.1c-.5.15-.9-.1-1.05-.7a1,1,0,0,1,.65-1.2h.1a26.75,26.75,0,0,1,8-1.25,19.15,19.15,0,0,1,6.45,1Z"/><path class="cls-1" d="M955.31,44.82a10.19,10.19,0,1,1-10,10.15A10.11,10.11,0,0,1,955.31,44.82ZM948,55a7.32,7.32,0,0,0,14.64,0A7.32,7.32,0,0,0,948,55Z"/></g></g></svg>