<svg xmlns="http://www.w3.org/2000/svg" viewBox="0 0 160.31 80.16"><defs><style>.cls-1{opacity:0.2;}.cls-2{fill:none;}.cls-3{fill:#283c5f;}</style></defs><title>bg</title><g id="レイヤー_2" data-name="レイヤー 2"><g id="product-page"><g class="cls-1"><rect class="cls-2" width="80.15" height="80.15"/><path class="cls-3" d="M21.41,15.38,22.69,18a.79.79,0,0,0,.6.44l2.86.42a.8.8,0,0,1,.44,1.37l-2.06,2a.79.79,0,0,0-.23.71l.48,2.85a.8.8,0,0,1-1.16.85l-2.56-1.35a.83.83,0,0,0-.75,0l-2.55,1.35a.81.81,0,0,1-1.17-.85l.49-2.85a.82.82,0,0,0-.23-.71l-2.07-2a.8.8,0,0,1,.45-1.37l2.85-.42a.8.8,0,0,0,.61-.44L20,15.38A.8.8,0,0,1,21.41,15.38Z"/><path class="cls-3" d="M58,50.72h-.25a5.38,5.38,0,1,1-6.19,8.64A6.73,6.73,0,1,0,58,50.72Z"/><rect class="cls-2" x="80.15" width="80.15" height="80.15"/><polygon class="cls-3" points="99.92 15.29 94.1 25.36 105.73 25.36 99.92 15.29"/><polygon class="cls-3" points="103.25 17 98.41 25.38 108.09 25.38 103.25 17"/><path class="cls-3" d="M143.4,60.63c1.15,1.92-2,2.8-4.29,2.8s-5.28-.84-4.18-2.8c1.22-2.17,1.84-3.67,4.18-3.67S142.12,58.51,143.4,60.63Z"/><circle class="cls-3" cx="132.6" cy="58.05" r="1.88"/><circle class="cls-3" cx="136.38" cy="53.46" r="1.88"/><circle class="cls-3" cx="145.42" cy="58.12" r="1.88"/><circle class="cls-3" cx="141.79" cy="53.36" r="1.88"/></g></g></g></svg>