<svg xmlns="http://www.w3.org/2000/svg" viewBox="0 0 295.02 54.66"><defs><style>.cls-1{fill:#fff;}</style></defs><title>title</title><g id="レイヤー_2" data-name="レイヤー 2"><g id="product-page"><path class="cls-1" d="M56.1,5.7v7.68H39.18V21H54.36v7.68H39.18v7.74H54.36v7.86H39.18V54.66H29.76V15.42a131.35,131.35,0,0,1-7.2,13.86l-6.54-5V54.66H6.84V30.18a31.11,31.11,0,0,1-3.9,5.22L0,25.5C6,18.36,9.48,11,11.46.66l8.46,1.62A60.73,60.73,0,0,1,16,15.84v6.3A107,107,0,0,0,26,.06l8.82,1.8c-.3.9-.84,2.88-1.26,3.84Z"/><path class="cls-1" d="M85,43.86c6.3-1.08,11.4-3.66,13.74-6.78a8.63,8.63,0,0,0,.06-10.32c-1.86-2.94-6.12-3.6-9.6-3.66-6.36,0-12.72,1.5-19.14,3.12l-3.36-10L73,14.1l.6,2A62.55,62.55,0,0,1,89.28,14c7.68,0,14,2.7,17.46,7.68a18.43,18.43,0,0,1-.48,20.94C100.8,49.8,91.2,52,86.82,52.8Z"/><path class="cls-1" d="M142.74,18.9l-8,29.94-9-2.4L133,18.9H122.4V9.72h12.9c.48-1.74.9-3.3,2.46-9.36l9,2.16c-.6,2.46-1.14,4.92-1.74,7.2h16.86V18.9ZM173.28,47c-5.4,5.46-13.14,8.7-20.82,5.94-6.54-2.4-10.8-8.64-11-16.74l9.48-.3c.12,3.54,1.38,7.14,4.68,8.4,5,1.86,9-1.74,10.92-3.6Zm-5.4-10.14-6-3,1.2-2.52c-2-.66-5.22-1-9.54.3l-2.46-8.76c10-3.24,18.36,1,22.44,3.36Z"/><path class="cls-1" d="M229.44,23.94v8.94H204.18c.18,4.5,1.08,7.8,3.3,9.72a7.77,7.77,0,0,0,7.86,1.5c2.4-1,4-3.18,4.5-7l9.24,1.14c-.9,7.2-4.68,12.3-10.44,14.46A17.22,17.22,0,0,1,201.3,49.5c-4.56-4-6.42-9.72-6.54-16.62H184.44V23.94h11c.24-1.74.54-3.6.9-5.4H185V9.6h13.38c.24-.9.36-1.62.54-2.46l-3-.78L197.64,0l12.12,3.18C209,5.64,208.5,7.62,208,9.6h22.2v8.94H205.86c-.42,1.86-.72,3.66-1,5.4Z"/><path class="cls-1" d="M274.74,42.18l4.92-4.86,2.76,2.7A16.45,16.45,0,0,0,285,31.38a16.2,16.2,0,0,0-5.88-13c-3.6-3-8.64-4.2-14-3.36a17.34,17.34,0,0,0-11.76,7.26c-2.76,4.14-3.54,9.6-1.86,13.38a5.7,5.7,0,0,0,4.5,3.72,6.87,6.87,0,0,0,5.4-2c3.3-2.82,5-8.28,4.86-15.24l10.08-.36c.3,9.9-2.76,18-8.46,23a16.91,16.91,0,0,1-13.38,4.26A15.36,15.36,0,0,1,242.4,39.6c-3-6.78-1.86-15.84,2.64-22.68,4-6.12,10.8-10.08,18.54-11.4s15.9.6,21.72,5.22A25.83,25.83,0,0,1,295,31.56a24.79,24.79,0,0,1-10.44,20.1Z"/></g></g></svg>