<svg xmlns="http://www.w3.org/2000/svg" viewBox="0 0 551.89 17.21"><defs><style>.cls-1{fill:#fff;}</style></defs><title>copyright</title><g id="レイヤー_2" data-name="レイヤー 2"><g id="page-5"><path class="cls-1" d="M9.52,10.07c.42,0,.65.1.65.55a3.18,3.18,0,0,1-.39,1.84c-.6.59-2.76.77-3.59.77A6.2,6.2,0,0,1,0,6.72C0,3.26,2.43.22,6,.22H7A5.17,5.17,0,0,1,9.63,1,3,3,0,0,1,10,2.9c0,.31,0,.52-.41.52-1,0-1.88-.41-2.85-.41-2,0-3,1.76-3,3.62s1,3.85,3.15,3.85C7.8,10.48,8.62,10.07,9.52,10.07Z"/><path class="cls-1" d="M21.76,8.61a4.73,4.73,0,0,1-5,4.71,4.76,4.76,0,0,1-5-4.59,4.68,4.68,0,0,1,5-4.82A4.73,4.73,0,0,1,21.76,8.61Zm-3.49,0c0-1-.11-2.43-1.48-2.43s-1.47,1.39-1.47,2.43.16,2.45,1.58,2.45S18.27,9.58,18.27,8.62Z"/><path class="cls-1" d="M26.73,15.48c0,.51,0,1.05-.49,1.34a2.2,2.2,0,0,1-1,.12A2.31,2.31,0,0,1,24,16.57c-.9-.89-.81-6.56-.81-7.84s.1-3.24.91-4.1a1.1,1.1,0,0,1,.83-.36c.38,0,.76-.06,1.14-.06.54,0,.54.26.64.72h0A7.32,7.32,0,0,1,29.14,4c2.7,0,4,2.59,4,5s-1.35,4.36-3.85,4.36c-.79,0-1.49-.57-2.2-.57-.32,0-.32.37-.32.61Zm-.14-5.85c0,.74.88,1.32,1.56,1.32,1.32,0,1.55-1.39,1.55-2.43,0-.87-.41-2.09-1.46-2.09-1.47,0-1.65,1-1.65,2.27Z"/><path class="cls-1" d="M37.15,13.4a5.83,5.83,0,0,0-.38-2C36.25,9.94,35.58,8.57,35,7.15a5.36,5.36,0,0,1-.39-1.89c0-1,1.31-1,2-1,2.28,0,1.4,4.77,2.48,4.77.2,0,.31-.2.38-.36a4.38,4.38,0,0,0,.23-.88,12.81,12.81,0,0,1,.58-2.29,2.55,2.55,0,0,1,.58-.88,1.22,1.22,0,0,1,1-.34c.81,0,1.71,0,1.71,1.1,0,1.65-2.9,9.12-3.89,10.66a3.33,3.33,0,0,1-.63.72,1.82,1.82,0,0,1-1.38.32c-.44,0-1.28-.07-1.28-.65C36.38,15.36,37.15,14.48,37.15,13.4Z"/><path class="cls-1" d="M49.34,12c0,.75-.56,1.06-1.26,1.06a2.15,2.15,0,0,1-1.95-.74c-.41-.72-.41-3.38-.41-4.3s0-3.51,1.08-3.78a6,6,0,0,1,1.53-.15c.49,0,1,.22,1,.78a1.75,1.75,0,0,1,0,.32l.13.11c1.08-.5,1.8-1.1,3.06-1.1,1,0,.92,1.42.92,2.13,0,.18-.15.25-.31.25s-.31,0-.47,0a3.16,3.16,0,0,0-3.31,2.92c0,.32,0,.65,0,1Z"/><path class="cls-1" d="M59.31,6.21c0,.94,0,1.89,0,2.83,0,1.55.25,4-2,4-1.8,0-1.8-3.06-1.8-4.3,0-.52,0-1,0-1.55,0-1.84-.15-3.2,2.17-3.2C59,4,59.31,5.13,59.31,6.21ZM57.56,0C59,0,59.22.58,59.22,1.89c0,.54-.56.63-1,.63l-2.07,0c-.47,0-.49-.66-.49-1C55.67.16,56.43,0,57.56,0Z"/><path class="cls-1" d="M67.54,12.15a3.6,3.6,0,0,0-1,.44,3.68,3.68,0,0,1-1.69.36c-2.15,0-3.57-2.11-3.57-4.11,0-2.23,1.28-4.84,3.8-4.84a3.92,3.92,0,0,1,2,.77,1.52,1.52,0,0,0,.47.2c0-.86.27-.74,1.05-.74a2.88,2.88,0,0,1,1.58.34c.76.56.83,4.25.83,5.22v2.47c0,3.06-2.76,5-5.62,5-1.78,0-3.17,0-3.17-2.23,0-.41.07-.61.52-.61.87,0,1.7.3,2.56.3a2,2,0,0,0,2.31-2.3Zm.09-3.29c0-1.15-.06-2.41-1.54-2.41-1,0-1.47,1-1.47,1.87s.21,2.18,1.49,2.18A1.44,1.44,0,0,0,67.63,8.86Z"/><path class="cls-1" d="M73.13,5.69c0-1.17,0-4.5.94-5.26A2.25,2.25,0,0,1,75.6.09c1,0,1.11.9,1.11,1.71,0,.54-.07,1.08-.07,1.64,0,.23.06,1,.4,1,.79,0,1.44-.59,2.25-.59,3.15,0,3.22,2.16,3.22,4.66,0,.62,0,1.23,0,1.82a2.62,2.62,0,0,1-1,2.29A3.12,3.12,0,0,1,80,13c-.85,0-.91-.68-.91-1.35,0-1.19.06-2.38.06-3.57,0-.82-.06-1.63-1.1-1.63a1.46,1.46,0,0,0-1.39,1.24c0,1.24,0,2.47,0,3.71,0,.88,0,1.6-1.13,1.6a2.75,2.75,0,0,1-1.43-.31c-.86-.5-1-4.28-1-5.27Z"/><path class="cls-1" d="M84.81,4.52l.36,0c.4,0,.58-.2.72-.56A3.81,3.81,0,0,0,86,2.75c0-1.29.43-1.67,1.71-1.67.86,0,1.67.22,1.67,1.26,0,.29,0,.58,0,.87,0,1,.59,1.26,1.51,1.26,1.33,0,1.4.32,1.4,1.56,0,1-2,.49-2.5.83S89.44,8,89.44,8.44s0,.58,0,.89c0,.57.09,1.47.85,1.47.5,0,1-.21,1.48-.21.27,0,.27.39.27.59,0,2.05-1.23,2.09-2.92,2.09-2.72,0-3.13-2.11-3.13-4.36a7.76,7.76,0,0,0-.08-1.85c-.41-1-1.83.5-1.83-1.46C84.06,5,84.09,4.52,84.81,4.52Z"/><path class="cls-1" d="M102.72,6.72c0-3.41,3.59-6.52,6.9-6.52s6.95,3.09,6.95,6.52-3.66,6.53-6.95,6.53S102.72,10.12,102.72,6.72Zm12.27,0c0-2.75-2.71-5-5.37-5a5.41,5.41,0,0,0-5.33,5,5.41,5.41,0,0,0,5.33,5C112.27,11.76,115,9.49,115,6.73Zm-4.67,2.18c.52,0,1-.16,1.53-.16a.44.44,0,0,1,.51.5c0,1.27-1.16,1.25-2.11,1.25-2.32,0-4.27-1.14-4.27-3.68S107.66,3,110.2,3c1.15,0,2.07,0,2.07,1.44,0,.27-.06.31-.33.31-.59,0-1.15-.13-1.74-.13-1.35,0-1.86,1-1.86,2.25A2,2,0,0,0,110.32,8.91Z"/><path class="cls-1" d="M135.79,10.07c.42,0,.65.1.65.55a3.19,3.19,0,0,1-.4,1.84c-.59.59-2.75.77-3.58.77a6.2,6.2,0,0,1-6.19-6.51c0-3.46,2.43-6.5,6-6.5h.92a5.2,5.2,0,0,1,2.68.8,3,3,0,0,1,.38,1.87c0,.31-.06.52-.42.52-1,0-1.87-.41-2.84-.41-2.05,0-3,1.76-3,3.62s.95,3.85,3.15,3.85C134.06,10.48,134.89,10.07,135.79,10.07Z"/><path class="cls-1" d="M148,8.61a5,5,0,0,1-9.94.12A4.68,4.68,0,0,1,143,3.91,4.74,4.74,0,0,1,148,8.61Zm-3.49,0c0-1-.11-2.43-1.48-2.43s-1.47,1.39-1.47,2.43.16,2.45,1.58,2.45S144.54,9.58,144.54,8.62Z"/><path class="cls-1" d="M155.75,8.71c-.41,1.26-.12,2.92-1.08,3.95a1.73,1.73,0,0,1-1.35.45,3,3,0,0,1-1.65-.31c-1.28-.79-2.22-5.4-2.22-6.86s.54-1.74,2-1.74a1.69,1.69,0,0,1,.63.09.78.78,0,0,1,.37.46c.18.47.35,2.79.45,3.5A6.88,6.88,0,0,0,153,9s.09.4.16.36a2.1,2.1,0,0,0,.27-.81c.15-.83.31-1.66.43-2.48a4.3,4.3,0,0,1,.27-1,1.83,1.83,0,0,1,.6-.72,2.73,2.73,0,0,1,1.62-.27,1.88,1.88,0,0,1,1.38.45c.92,1,.64,3.65,1.27,4.93.45-.13.57-3.8.66-4.37a1,1,0,0,1,.38-.72,1.44,1.44,0,0,1,.79-.18c1.21,0,1.82.16,1.82,1.51,0,1.62-.83,5.9-2.09,7a2.86,2.86,0,0,1-1.92.47,2.27,2.27,0,0,1-1.28-.33c-.47-.38-.76-3.13-.94-3.82-.05-.18-.11-.66-.36-.66S155.81,8.57,155.75,8.71Z"/><path class="cls-1" d="M168.8,6.19c-1.21,0-2.34.36-3.55.36-.45,0-.37-.39-.37-.72a3,3,0,0,1,.1-.9c.29-.82,3.08-1,3.84-1,2.27,0,4.63,1,4.63,3.58,0,1,0,2,0,3,0,1.51-.5,2.57-2.17,2.57h-.58c-.18,0-.41,0-.52-.16s-.07-.5-.2-.5c-.45,0-1.49.88-2.52.88a3.19,3.19,0,0,1-3.21-3,2.16,2.16,0,0,1,.56-1.56,4.9,4.9,0,0,1,3.1-1.23c.32,0,1.73,0,1.91-.11s.11-.12.11-.21A1,1,0,0,0,168.8,6.19Zm-.59,4.88A1.69,1.69,0,0,0,170,9.54c0-.09,0-.25-.11-.29a3.65,3.65,0,0,0-.75,0c-.78,0-1.77.18-1.77,1.13A.83.83,0,0,0,168.21,11.07Z"/><path class="cls-1" d="M182.46.11a2,2,0,0,1,1.26.27c1.12.75,1.08,4.39,1.08,5.65,0,.58,0,1.14,0,1.71,0,1.3,0,3.77-.9,4.79-.43.51-.81.38-1.39.43a3.85,3.85,0,0,1-.48,0c-.47,0-.69-.14-.65-.65-.68,0-1.41.9-2.61.9-2.38,0-3.94-2.61-3.94-4.77s1.09-4.59,3.69-4.59c.84,0,1.55.58,2.37.58.38,0,.38-1.3.38-1.57,0-.54-.07-1.06-.07-1.6C181.24.4,181.6.11,182.46.11Zm-1,7.78a1.48,1.48,0,0,0-1.67-1.59c-1.05,0-1.46,1.14-1.46,2s.21,2.48,1.44,2.48,1.69-.72,1.69-1.89Z"/><path class="cls-1" d="M191.07,4.36c0,.38,0,.75,0,1.13,0,.88,0,1.75,0,2.63,0,1.13,0,5-1.69,5a1.64,1.64,0,0,1-1.55-.63c-.59-1-.52-4.81-.52-6.07,0-.65,0-1.31,0-2A10,10,0,0,1,187.88.7a1.25,1.25,0,0,1,.5-.52,2,2,0,0,1,1-.18C191.07,0,191.07,3.24,191.07,4.36Z"/><path class="cls-1" d="M196.05,13.4a5.83,5.83,0,0,0-.38-2c-.52-1.44-1.18-2.81-1.72-4.23a5.16,5.16,0,0,1-.4-1.89c0-1,1.31-1,2-1C197.83,4.25,197,9,198,9c.2,0,.31-.2.38-.36a5.19,5.19,0,0,0,.24-.88,12.78,12.78,0,0,1,.57-2.29,2.55,2.55,0,0,1,.58-.88,1.22,1.22,0,0,1,.95-.34c.81,0,1.71,0,1.71,1.1,0,1.65-2.9,9.12-3.89,10.66a3.08,3.08,0,0,1-.63.72,1.82,1.82,0,0,1-1.38.32c-.44,0-1.28-.07-1.28-.65C195.28,15.36,196.05,14.48,196.05,13.4Z"/><path class="cls-1" d="M215.83.52A1.17,1.17,0,0,1,217,1.71c.11,1.1.22,2.2.34,3.3l.18,1.53c0,.1.07,1.11.27,1.11s.54-2.23.58-2.57c.14-1.3.09-3.44,1.12-4.36A2.67,2.67,0,0,1,221.2.38c2.34,0,2.29,2.86,2.45,4.52q.07.91.18,1.83c0,.15.09.9.25.9s.25-.34.29-.48c.3-1.08.38-5.8.88-6.3a1.15,1.15,0,0,1,.9-.31c1.62,0,2,.41,2,2,0,2.1-1.23,9-3,10.2a4,4,0,0,1-2,.27,1.07,1.07,0,0,1-.52-.14c-.83-.45-1-3.12-1.14-4,0-.37-.09-.75-.1-1.13s-.24-2.29-.53-2.29c0,0-.07.07-.09.11a8.88,8.88,0,0,0-.28,1.75c-.06.36-.09.7-.13,1.06-.09,1-.2,4.1-1.28,4.48a3.2,3.2,0,0,1-1.19.15,2.54,2.54,0,0,1-1.35-.31,2.49,2.49,0,0,1-.84-1,28.24,28.24,0,0,1-2-9.31C213.71.81,214.39.52,215.83.52Z"/><path class="cls-1" d="M234.41,6.21c0,.94,0,1.89,0,2.83,0,1.55.25,4-2,4-1.8,0-1.8-3.06-1.8-4.3,0-.52,0-1,0-1.55,0-1.84-.15-3.2,2.18-3.2C234.1,4,234.41,5.13,234.41,6.21ZM232.66,0c1.43,0,1.66.56,1.66,1.87,0,.54-.56.63-1,.63l-2.07,0c-.47,0-.49-.66-.49-1C230.77.16,231.53,0,232.66,0Z"/><path class="cls-1" d="M237.2,4.52l.36,0c.4,0,.58-.2.72-.56a3.81,3.81,0,0,0,.14-1.23c0-1.29.44-1.67,1.71-1.67.87,0,1.68.22,1.68,1.26,0,.29,0,.58,0,.87,0,1,.59,1.26,1.51,1.26,1.34,0,1.41.32,1.41,1.56,0,1-2,.49-2.5.83s-.38,1.17-.38,1.58,0,.58,0,.89c0,.57.09,1.47.85,1.47.5,0,1-.21,1.47-.21.27,0,.27.39.27.59,0,2.05-1.22,2.09-2.92,2.09-2.71,0-3.13-2.11-3.13-4.36a8.3,8.3,0,0,0-.07-1.85c-.41-1-1.84.5-1.84-1.46C236.44,5,236.48,4.52,237.2,4.52Z"/><path class="cls-1" d="M250.79,3.91c1.46,0,3.4,0,3.4,1.92,0,.54,0,.74-.59.74s-1.35-.2-2-.2c-1.34,0-1.7,1.12-1.7,2.25,0,1.39.53,2.24,2,2.24.74,0,1.44-.24,2.2-.24a.7.7,0,0,1,.31.63,2.1,2.1,0,0,1-.31,1.39c-.45.5-2.54.68-3.22.68a4.63,4.63,0,0,1-4.67-4.84A4.61,4.61,0,0,1,250.79,3.91Z"/><path class="cls-1" d="M256.53,5.69c0-1.17,0-4.5.94-5.26A2.25,2.25,0,0,1,259,.09c1,0,1.11.9,1.11,1.71,0,.54-.07,1.08-.07,1.64,0,.23.06,1,.4,1,.79,0,1.44-.59,2.25-.59,3.15,0,3.22,2.16,3.22,4.66,0,.62,0,1.23,0,1.82a2.62,2.62,0,0,1-.95,2.29,3.13,3.13,0,0,1-1.63.34c-.84,0-.89-.68-.89-1.35,0-1.19.05-2.38.05-3.57,0-.82-.05-1.63-1.1-1.63A1.46,1.46,0,0,0,260,7.69c0,1.24,0,2.47,0,3.71,0,.88-.05,1.6-1.13,1.6a2.75,2.75,0,0,1-1.43-.31c-.86-.5-1-4.28-1-5.27Z"/><path class="cls-1" d="M277.05,5.69c0-1.13,0-4.5,1.19-5.08A11.15,11.15,0,0,1,281.73.2c2.76,0,5.62,1.53,5.62,4.61,0,5-6.19,4.07-6.54,4.41a3,3,0,0,0-.18,1.22c0,.45.06.9.06,1.35,0,.78-.2,1.19-1.05,1.19a3.66,3.66,0,0,1-1.4-.2c-1.14-.45-1.19-4.1-1.19-5.15Zm3.58,0c0,.94.31,1,1.17,1A2.08,2.08,0,0,0,284,4.54c0-1.17-1.22-1.73-2.25-1.73h-.45c-.5,0-.61.36-.63.77Z"/><path class="cls-1" d="M292.31,12c0,.75-.55,1.06-1.26,1.06a2.15,2.15,0,0,1-1.94-.74c-.41-.72-.41-3.38-.41-4.3s0-3.51,1.08-3.78a6,6,0,0,1,1.53-.15c.48,0,1,.22,1,.78a1.73,1.73,0,0,1,0,.32l.12.11c1.09-.5,1.81-1.1,3.07-1.1,1,0,.91,1.42.91,2.13,0,.18-.14.25-.3.25s-.31,0-.47,0a3.16,3.16,0,0,0-3.31,2.92c0,.32,0,.65,0,1Z"/><path class="cls-1" d="M307.47,8.61a5,5,0,0,1-9.94.12,4.68,4.68,0,0,1,5-4.82A4.74,4.74,0,0,1,307.47,8.61Zm-3.49,0c0-1-.11-2.43-1.48-2.43S301,7.58,301,8.62s.16,2.45,1.58,2.45S304,9.58,304,8.62Z"/><path class="cls-1" d="M310.33,6.41c0-1.1.07-2.3,1.48-2.3,1,0,1.92,0,2.09,1.22A14.18,14.18,0,0,1,314,7.27c0,.74,0,1.5,0,2.24s0,1.22,0,1.83c0,3.08-.7,5.53-4.27,5.53-1.53,0-2.25-.18-2.25-1.89,0-.54.24-.74.78-.74.25,0,.5.06.77.06,1,0,1.26-.4,1.26-1.35Zm0-5.44c0-.74.45-.9,1.12-.9,1.58,0,2.41.22,2.41,2,0,.16,0,.41-.2.49a7.53,7.53,0,0,1-1.67.11c-.94,0-1.66-.35-1.66-1.37Z"/><path class="cls-1" d="M323.92,9.56c-.68,0-1.38-.05-2.07-.05-.34,0-2.39,0-2.39.43,0,.9,1.44,1.12,2.12,1.12.85,0,1.62-.31,2.47-.31.36,0,.52.23.52.58a1.91,1.91,0,0,1-.38,1.4,7.89,7.89,0,0,1-3.15.59c-2.86,0-5.22-1.87-5.22-4.84s2.47-4.59,5.28-4.59a4.28,4.28,0,0,1,4,3,5.63,5.63,0,0,1,.31,2C325.44,9.54,324.41,9.56,323.92,9.56Zm-2.55-1.82c.34,0,.77,0,.77-.48a1.2,1.2,0,0,0-1.35-1.16,1.33,1.33,0,0,0-1.48,1.3c0,.31.72.34.92.34Z"/><path class="cls-1" d="M330.92,3.91c1.46,0,3.41,0,3.41,1.92,0,.54,0,.74-.6.74s-1.35-.2-2.05-.2c-1.33,0-1.69,1.12-1.69,2.25,0,1.39.52,2.24,2,2.24.73,0,1.44-.24,2.19-.24a.7.7,0,0,1,.31.63,2,2,0,0,1-.31,1.39c-.45.5-2.54.68-3.22.68a4.63,4.63,0,0,1-4.66-4.84A4.61,4.61,0,0,1,330.92,3.91Z"/><path class="cls-1" d="M336.9,4.52l.36,0c.4,0,.57-.2.72-.56a3.81,3.81,0,0,0,.14-1.23c0-1.29.43-1.67,1.71-1.67.87,0,1.68.22,1.68,1.26,0,.29,0,.58,0,.87,0,1,.59,1.26,1.51,1.26,1.33,0,1.41.32,1.41,1.56,0,1-2,.49-2.51.83-.39.25-.37,1.17-.37,1.58s0,.58,0,.89c0,.57.09,1.47.84,1.47.51,0,1-.21,1.48-.21.27,0,.27.39.27.59,0,2.05-1.22,2.09-2.92,2.09-2.72,0-3.13-2.11-3.13-4.36A8.3,8.3,0,0,0,338,7.06c-.42-1-1.84.5-1.84-1.46C336.14,5,336.18,4.52,336.9,4.52Z"/><path class="cls-1" d="M349.46,9.58c1.35,0,1.5.92,1.5,2,0,1.43-.81,1.62-2,1.62-1.44,0-2-.3-2-1.83,0-1.23.28-1.82,1.6-1.82Z"/><path class="cls-1" d="M362.46,11.56c0-1.77,2.68-10,4.05-10.93a1.91,1.91,0,0,1,1.26-.29,1.81,1.81,0,0,1,1.69.7c1.1,1.35,3.64,8.92,3.64,10.68,0,1.24-1.53,1.24-2.41,1.24-2.15,0,.57-2.34-3.17-2.34-3.08,0-.49,2.33-3,2.33C363.34,13,362.46,13,362.46,11.56ZM368,8a.58.58,0,0,0,.63-.59c0-.42-.46-3.12-.9-3.12s-.9,2.74-.9,3.13.38.58.8.58Z"/><path class="cls-1" d="M379.27,4.36c0,.38,0,.75,0,1.13,0,.88.06,1.75.06,2.63,0,1.13,0,5-1.69,5a1.63,1.63,0,0,1-1.55-.63c-.6-1-.53-4.81-.53-6.07,0-.65,0-1.31,0-2A10.18,10.18,0,0,1,376.08.7a1.22,1.22,0,0,1,.51-.52,2,2,0,0,1,1-.18C379.27,0,379.27,3.24,379.27,4.36Z"/><path class="cls-1" d="M385.86,4.36c0,.38,0,.75,0,1.13,0,.88.06,1.75.06,2.63,0,1.13,0,5-1.7,5a1.62,1.62,0,0,1-1.54-.63c-.6-1-.53-4.81-.53-6.07,0-.65,0-1.31,0-2A10.18,10.18,0,0,1,382.67.7a1.22,1.22,0,0,1,.51-.52,2,2,0,0,1,1-.18C385.86,0,385.86,3.24,385.86,4.36Z"/><path class="cls-1" d="M400.94,12c0,.75-.55,1.06-1.26,1.06a2.15,2.15,0,0,1-1.94-.74c-.42-.72-.42-3.38-.42-4.3s0-3.51,1.09-3.78a6,6,0,0,1,1.53-.15c.48,0,1,.22,1,.78a1.73,1.73,0,0,1,0,.32l.12.11c1.08-.5,1.8-1.1,3.06-1.1,1.05,0,.92,1.42.92,2.13,0,.18-.14.25-.3.25s-.31,0-.47,0a3.16,3.16,0,0,0-3.31,2.92c0,.32,0,.65,0,1Z"/><path class="cls-1" d="M410.92,6.21c0,.94,0,1.89,0,2.83,0,1.55.25,4-2,4-1.8,0-1.8-3.06-1.8-4.3,0-.52,0-1,0-1.55,0-1.84-.14-3.2,2.18-3.2C410.61,4,410.92,5.13,410.92,6.21ZM409.17,0c1.42,0,1.66.56,1.66,1.87,0,.54-.56.63-1,.63l-2.07,0c-.46,0-.48-.66-.48-1C407.28.16,408,0,409.17,0Z"/><path class="cls-1" d="M419.14,12.15a3.54,3.54,0,0,0-1,.44,3.72,3.72,0,0,1-1.7.36c-2.14,0-3.56-2.11-3.56-4.11,0-2.23,1.28-4.84,3.8-4.84a4,4,0,0,1,2,.77,1.42,1.42,0,0,0,.47.2c0-.86.27-.74,1-.74a2.9,2.9,0,0,1,1.59.34c.75.56.82,4.25.82,5.22v2.47c0,3.06-2.75,5-5.61,5-1.79,0-3.17,0-3.17-2.23,0-.41.07-.61.52-.61.86,0,1.69.3,2.56.3a2,2,0,0,0,2.3-2.3Zm.09-3.29c0-1.15-.05-2.41-1.53-2.41-1,0-1.48,1-1.48,1.87s.22,2.18,1.5,2.18A1.44,1.44,0,0,0,419.23,8.86Z"/><path class="cls-1" d="M424.74,5.69c0-1.17,0-4.5.93-5.26a2.28,2.28,0,0,1,1.54-.34c1,0,1.11.9,1.11,1.71,0,.54-.07,1.08-.07,1.64,0,.23.05,1,.39,1,.8,0,1.45-.59,2.26-.59,3.15,0,3.22,2.16,3.22,4.66,0,.62,0,1.23,0,1.82a2.6,2.6,0,0,1-1,2.29,3.12,3.12,0,0,1-1.62.34c-.84,0-.9-.68-.9-1.35,0-1.19.06-2.38.06-3.57,0-.82-.06-1.63-1.1-1.63a1.46,1.46,0,0,0-1.39,1.24c0,1.24,0,2.47,0,3.71,0,.88-.06,1.6-1.14,1.6a2.71,2.71,0,0,1-1.42-.31c-.86-.5-1-4.28-1-5.27Z"/><path class="cls-1" d="M436.42,4.52l.36,0c.4,0,.58-.2.72-.56a3.81,3.81,0,0,0,.14-1.23c0-1.29.44-1.67,1.71-1.67.87,0,1.68.22,1.68,1.26,0,.29,0,.58,0,.87,0,1,.59,1.26,1.51,1.26,1.34,0,1.41.32,1.41,1.56,0,1-2,.49-2.51.83s-.37,1.17-.37,1.58,0,.58,0,.89c0,.57.09,1.47.85,1.47.5,0,1-.21,1.47-.21.27,0,.27.39.27.59,0,2.05-1.22,2.09-2.92,2.09-2.71,0-3.13-2.11-3.13-4.36a8.3,8.3,0,0,0-.07-1.85c-.42-1-1.84.5-1.84-1.46C435.66,5,435.7,4.52,436.42,4.52Z"/><path class="cls-1" d="M449.7,13.32c-1.69,0-3.79-.07-3.79-2.28,0-.25,0-.51.36-.51,1.09,0,2.16.44,3.25.44.33,0,.92-.11.92-.55,0-1.09-4.66-.37-4.66-3.51,0-1.63,1.4-2.53,2.84-2.84A11.32,11.32,0,0,1,451,3.91c1.55,0,2.72.27,2.72,2.09,0,.39-.08.48-.47.48a7.12,7.12,0,0,1-1.39-.14,9.05,9.05,0,0,0-1.73-.15c-.34,0-.72.18-.72.56,0,1.06,4.65.13,4.65,3.46C454,12.44,451.59,13.32,449.7,13.32Z"/><path class="cls-1" d="M468.46,12c0,.75-.56,1.06-1.26,1.06a2.16,2.16,0,0,1-1.95-.74c-.41-.72-.41-3.38-.41-4.3s0-3.51,1.08-3.78a6.07,6.07,0,0,1,1.53-.15c.49,0,1,.22,1,.78a1.75,1.75,0,0,1,0,.32l.13.11c1.08-.5,1.8-1.1,3.06-1.1,1.05,0,.92,1.42.92,2.13,0,.18-.14.25-.31.25s-.3,0-.47,0a3.16,3.16,0,0,0-3.31,2.92c0,.32,0,.65,0,1Z"/><path class="cls-1" d="M481.76,9.56c-.68,0-1.38-.05-2.07-.05-.34,0-2.39,0-2.39.43,0,.9,1.44,1.12,2.12,1.12.85,0,1.62-.31,2.47-.31.36,0,.52.23.52.58a1.91,1.91,0,0,1-.38,1.4,7.89,7.89,0,0,1-3.15.59c-2.86,0-5.22-1.87-5.22-4.84s2.47-4.59,5.28-4.59a4.28,4.28,0,0,1,4,3,5.63,5.63,0,0,1,.31,2C483.28,9.54,482.25,9.56,481.76,9.56Zm-2.55-1.82c.34,0,.77,0,.77-.48a1.2,1.2,0,0,0-1.35-1.16,1.33,1.33,0,0,0-1.48,1.3c0,.31.72.34.92.34Z"/><path class="cls-1" d="M488.46,13.32c-1.69,0-3.8-.07-3.8-2.28,0-.25,0-.51.36-.51,1.1,0,2.16.44,3.26.44.32,0,.92-.11.92-.55,0-1.09-4.67-.37-4.67-3.51,0-1.63,1.41-2.53,2.85-2.84a11.23,11.23,0,0,1,2.32-.16c1.55,0,2.72.27,2.72,2.09,0,.39-.07.48-.47.48a7.12,7.12,0,0,1-1.39-.14,9,9,0,0,0-1.72-.15c-.35,0-.72.18-.72.56,0,1.06,4.64.13,4.64,3.46C492.76,12.44,490.35,13.32,488.46,13.32Z"/><path class="cls-1" d="M502.05,9.56c-.68,0-1.39-.05-2.07-.05-.34,0-2.4,0-2.4.43,0,.9,1.44,1.12,2.13,1.12.84,0,1.62-.31,2.47-.31.36,0,.52.23.52.58a1.91,1.91,0,0,1-.38,1.4,7.93,7.93,0,0,1-3.15.59c-2.86,0-5.22-1.87-5.22-4.84s2.46-4.59,5.27-4.59a4.29,4.29,0,0,1,4,3,5.62,5.62,0,0,1,.3,2C503.56,9.54,502.54,9.56,502.05,9.56Zm-2.56-1.82c.34,0,.78,0,.78-.48a1.2,1.2,0,0,0-1.35-1.16,1.33,1.33,0,0,0-1.48,1.3c0,.31.72.34.92.34Z"/><path class="cls-1" d="M508.67,12c0,.75-.56,1.06-1.26,1.06a2.15,2.15,0,0,1-1.94-.74c-.42-.72-.42-3.38-.42-4.3s0-3.51,1.08-3.78a6.07,6.07,0,0,1,1.53-.15c.49,0,1,.22,1,.78,0,.11,0,.21,0,.32l.12.11c1.08-.5,1.8-1.1,3.06-1.1,1.05,0,.92,1.42.92,2.13,0,.18-.14.25-.3.25s-.31,0-.47,0a3.17,3.17,0,0,0-3.32,2.92c0,.32,0,.65,0,1Z"/><path class="cls-1" d="M521.58,11.56a3.07,3.07,0,0,1-.88,1.17,2.27,2.27,0,0,1-1.41.43,3.31,3.31,0,0,1-2.27-.5,2.62,2.62,0,0,1-.46-.63,23,23,0,0,1-2.13-6.79c0-1.06,1.14-1.06,1.91-1.06a1.94,1.94,0,0,1,.72.11c.81.36,1.31,4,1.49,4.86,0,.14.09.64.29.64,1,0,.94-5.11,2-5.5a2.76,2.76,0,0,1,1-.09c.86,0,1.58.1,1.58,1.15C523.45,7,522.26,10.05,521.58,11.56Z"/><path class="cls-1" d="M532.88,9.56c-.68,0-1.38-.05-2.07-.05-.34,0-2.39,0-2.39.43,0,.9,1.44,1.12,2.12,1.12.85,0,1.62-.31,2.47-.31.36,0,.52.23.52.58a1.91,1.91,0,0,1-.38,1.4,7.89,7.89,0,0,1-3.15.59c-2.86,0-5.22-1.87-5.22-4.84s2.47-4.59,5.28-4.59a4.28,4.28,0,0,1,4,3,5.63,5.63,0,0,1,.31,2C534.4,9.54,533.37,9.56,532.88,9.56Zm-2.55-1.82c.34,0,.77,0,.77-.48a1.2,1.2,0,0,0-1.35-1.16,1.33,1.33,0,0,0-1.48,1.3c0,.31.72.34.92.34Z"/><path class="cls-1" d="M543,.11a2.05,2.05,0,0,1,1.26.27c1.11.75,1.08,4.39,1.08,5.65,0,.58,0,1.14,0,1.71,0,1.3,0,3.77-.9,4.79-.43.51-.81.38-1.38.43a4.1,4.1,0,0,1-.49,0c-.47,0-.68-.14-.65-.65-.68,0-1.4.9-2.61.9-2.38,0-3.94-2.61-3.94-4.77s1.1-4.59,3.69-4.59c.84,0,1.55.58,2.38.58.37,0,.37-1.3.37-1.57,0-.54-.07-1.06-.07-1.6C541.72.4,542.08.11,543,.11ZM541.9,7.89a1.48,1.48,0,0,0-1.67-1.59c-1.05,0-1.46,1.14-1.46,2s.21,2.48,1.44,2.48,1.69-.72,1.69-1.89Z"/><path class="cls-1" d="M550.4,9.58c1.35,0,1.49.92,1.49,2,0,1.43-.81,1.62-2,1.62-1.44,0-2-.3-2-1.83,0-1.23.29-1.82,1.6-1.82Z"/></g></g></svg>