<svg xmlns="http://www.w3.org/2000/svg" viewBox="0 0 200 60"><defs><style>.cls-1{fill:#1a263d;}</style></defs><title>deco-2</title><g id="レイヤー_2" data-name="レイヤー 2"><g id="page-5"><g id="飾り"><path class="cls-1" d="M166.5,48.09c-8.56-7-15.25-16-22.35-24.21-4.73-5.5-9.64-10.68-15.34-14.79A47.21,47.21,0,0,0,100,0,49.17,49.17,0,0,0,82.13,3.13a49.71,49.71,0,0,0-13.73,8.1c-8.19,6.66-14.79,15.48-22,23.84C41.63,40.64,36.58,46,30.56,50.34A50.27,50.27,0,0,1,0,60H200a52.49,52.49,0,0,1-18.94-3.32A53,53,0,0,1,166.5,48.09Z"/></g></g></g></svg>