<svg xmlns="http://www.w3.org/2000/svg" viewBox="0 0 200 60"><defs><style>.cls-1{fill:#ce9740;}</style></defs><title>deco-1</title><g id="レイヤー_2" data-name="レイヤー 2"><g id="page-2"><g id="背景"><g id="飾り"><path class="cls-1" d="M166.51,48.09c-8.57-7-15.26-16-22.36-24.21-4.73-5.5-9.63-10.68-15.34-14.79A47.21,47.21,0,0,0,100,0,49.17,49.17,0,0,0,82.13,3.13a49.71,49.71,0,0,0-13.73,8.1c-8.18,6.66-14.79,15.48-22,23.84C41.64,40.64,36.58,46,30.56,50.34A50.27,50.27,0,0,1,0,60H200a50.48,50.48,0,0,1-33.49-11.91Z"/></g></g></g></g></svg>