<svg xmlns="http://www.w3.org/2000/svg" viewBox="0 0 1128.57 378.41"><defs><style>.cls-1{fill:#1a263d;}.cls-2{opacity:0.5;}.cls-3{fill:#eddb8d;}.cls-4{fill:none;stroke:#1a263d;stroke-miterlimit:10;stroke-width:5px;}</style></defs><title>house</title><g id="レイヤー_2" data-name="レイヤー 2"><g id="page-1"><g id="建物"><g id="建物-2" data-name="建物"><g id="建物-3" data-name="建物"><g id="ビル"><rect class="cls-1" width="163.61" height="377.47"/><g class="cls-2"><rect class="cls-3" x="21.45" y="21.37" width="50" height="50"/><rect class="cls-3" x="96.3" y="21.42" width="50" height="50"/><rect class="cls-3" x="21.65" y="95.63" width="50" height="50"/><rect class="cls-3" x="96.51" y="95.67" width="50" height="50"/><rect class="cls-3" x="21.02" y="170.29" width="50" height="50"/><rect class="cls-3" x="95.87" y="170.34" width="50" height="50"/></g></g><g id="ビル-2" data-name="ビル"><rect class="cls-1" x="975.25" y="66.29" width="134.77" height="310.93"/><g class="cls-2"><rect class="cls-3" x="992.92" y="83.89" width="41.19" height="41.19"/><rect class="cls-3" x="1054.58" y="83.93" width="41.19" height="41.19"/><rect class="cls-3" x="993.09" y="145.06" width="41.19" height="41.19"/><rect class="cls-3" x="1054.75" y="145.1" width="41.19" height="41.19"/><rect class="cls-3" x="992.56" y="206.56" width="41.19" height="41.19"/><rect class="cls-3" x="1054.22" y="206.6" width="41.19" height="41.19"/></g><polygon class="cls-1" points="1128.57 66.46 958.98 66.46 972.99 30.36 1114.15 30.36 1128.57 66.46"/></g><g id="木"><circle class="cls-1" cx="266.39" cy="207.95" r="43.34"/><circle class="cls-1" cx="239.71" cy="254.82" r="40.72"/><circle class="cls-1" cx="292.23" cy="254.82" r="40.54"/><line class="cls-4" x1="265.72" y1="234.94" x2="265.72" y2="377.75"/></g><g id="木-2" data-name="木"><polygon class="cls-1" points="635.6 132.31 587.31 226.11 683.88 226.11 635.6 132.31"/><polygon class="cls-1" points="635.23 169.09 586.95 262.89 683.51 262.89 635.23 169.09"/><polygon class="cls-1" points="634.76 206.18 586.47 299.98 683.04 299.98 634.76 206.18"/><line class="cls-4" x1="634.93" y1="274.22" x2="634.93" y2="377.89"/></g><g id="家"><rect class="cls-1" x="388.94" y="232.13" width="140.94" height="145.21"/><polygon class="cls-1" points="459.07 151.31 353.35 232.28 564.79 232.28 459.07 151.31"/><g class="cls-2"><rect class="cls-3" x="410.53" y="245.45" width="39.14" height="39.14"/><rect class="cls-3" x="469.25" y="245.11" width="39.14" height="39.14"/><rect class="cls-3" x="410.71" y="302.33" width="39.14" height="39.14"/><rect class="cls-3" x="469.43" y="301.99" width="39.14" height="39.14"/></g></g><g id="家-2" data-name="家"><rect class="cls-1" x="817.26" y="221.41" width="127.43" height="156.43"/><circle class="cls-1" cx="880.97" cy="219.5" r="63.62"/><g class="cls-2"><rect class="cls-3" x="841.52" y="218.53" width="32.58" height="32.58"/><rect class="cls-3" x="890.4" y="218.25" width="32.58" height="32.58"/><rect class="cls-3" x="841.67" y="265.88" width="32.58" height="32.58"/><rect class="cls-3" x="890.55" y="265.59" width="32.58" height="32.58"/></g></g><g id="木-3" data-name="木"><polygon class="cls-1" points="747.55 132.82 699.27 226.62 795.84 226.62 747.55 132.82"/><polygon class="cls-1" points="747.19 169.61 698.9 263.41 795.47 263.41 747.19 169.61"/><polygon class="cls-1" points="746.72 206.69 698.43 300.49 795 300.49 746.72 206.69"/><line class="cls-4" x1="746.88" y1="274.73" x2="746.88" y2="378.41"/></g></g></g></g></g></g></svg>