<svg xmlns="http://www.w3.org/2000/svg" viewBox="0 0 951.96 527.88"><defs><style>.cls-1{fill:#656c6d;}.cls-2,.cls-4{fill:#fff;}.cls-3{fill:#eddb8d;}.cls-4{opacity:0.15;}</style></defs><title>logo</title><g id="レイヤー_2" data-name="レイヤー 2"><g id="page-1"><g id="ロゴ"><path class="cls-1" d="M610.63,36.29A263,263,0,0,0,419.73,6.36a211.09,211.09,0,0,1,98.45,29c101,59.26,134.89,189.19,75.64,290.21S404.64,460.44,303.61,401.19a211.1,211.1,0,0,1-87.67-99.47A263.4,263.4,0,0,0,343.61,491.58C469.33,565.31,631,523.17,704.76,397.45S736.36,110,610.63,36.29Z"/><g id="タイトル"><path class="cls-2" d="M172.84,417.6l-.29-.15c-18.6-5.12-31.92-12-43.2-21.23-1-.88-1.17-1.61-.29-2.49,12.45-13.33,20.65-28.56,26.65-45.55a2,2,0,0,1,1.46-1.17,8,8,0,0,0,3.08-.73c1.76-.73,1.61-2.78,0-4.54l-5.42-5a3.48,3.48,0,0,0-5.27,0l-2.64,2.64a1.53,1.53,0,0,1-1.17.58h-1.22a13.86,13.86,0,0,1,.6,4,14.68,14.68,0,0,1-.19,2.23c.62.35.76,1,.37,2.08a117.82,117.82,0,0,1-22.26,39.83c-.88,1-1.61,1.17-2.49.15a106.49,106.49,0,0,1-18.3-26.65,1.5,1.5,0,0,1,.29-1.76c3.07-4.25,5.71-8.35,8.64-13a1.61,1.61,0,0,1,1.46-.87H117a14.27,14.27,0,0,1-.15-2,14,14,0,0,1,.61-4.11c-1.54-.25-1.91-1-1-2.71l4-8.06a2,2,0,0,1,1.46-1.17,8.09,8.09,0,0,0,3.22-1.32c1.32-1.31.44-3.22-1.61-3.95l-5.86-2.2h49.21a4.68,4.68,0,0,0,3.66-1.31l.15-.3a2.14,2.14,0,0,0-.59-3.07l-.29-.3a111.86,111.86,0,0,0-8.64-7.46,3.72,3.72,0,0,0-5.27.58l-4.25,5.13c-.44.44-.73.73-1.32.73h-40c-1.32,0-1.76-.44-1.76-1.76V301.61c0-1,.59-1.46,1.47-1.9A6.5,6.5,0,0,0,112.8,298c1.17-1.76-.15-3.22-2.49-3.81H110l-6.15-.58c-2.79-.3-4.25,1-4.25,3.8v15.38c0,1.32-.44,1.76-1.76,1.76H84.8L44.2,377a136.79,136.79,0,0,0,13.68-13c2-2.2,3.08-1.76,3.08,1.17v18a21,21,0,0,1,8.64,4.05V357.7a1.89,1.89,0,0,1,1.32-1.9,6.34,6.34,0,0,0,1.9-1.17l.29-.3c1-1.17.15-2.63-1.61-3.37l-1.32-.58c-.73-.29-.87-.73-.29-1.32a152.23,152.23,0,0,0,12.45-20.21,2.37,2.37,0,0,1,1.76-1,5.12,5.12,0,0,0,3.07-.88l.3-.3c1.31-1.17.58-3.22-1.47-4.1l-2.49-1.17c-1.61-.88-1.61-.88.15-.88h29.73a4.28,4.28,0,0,0-1.32,2.05c-8.79,23.44-21.82,43.79-35.15,56.83l-.15.29a2.46,2.46,0,0,0-.14,2.63l.29.3a2.23,2.23,0,0,0,2.93,0,122.24,122.24,0,0,0,16.84-16c1.17-1.62,2.2-1.32,2.93.43a117.76,117.76,0,0,0,16.26,27.1,1.37,1.37,0,0,1-.15,2.19,129.36,129.36,0,0,1-42,27.1c-1.47.58-1.76,1.61-1,2.78a2.69,2.69,0,0,0,2.93,1.17h.3c18.15-6.3,33.09-14.79,44.81-25.34a1.44,1.44,0,0,1,2.34.15c10.4,10.11,22.85,18.31,39.25,24.6,2.2.88,3.81-.14,5.42-1.9l.15-.29a8.38,8.38,0,0,1,4.54-3.22,2.34,2.34,0,0,0,1.75-1.91C174.31,418.77,173.87,418,172.84,417.6Z"/><path class="cls-2" d="M61,424.28v3a1,1,0,0,0,1,1h.88a10.35,10.35,0,0,0,6-2.49l.44-.73.14-.3a1.54,1.54,0,0,0,.15-.73v-3.81A21,21,0,0,1,61,424.28Z"/><path class="cls-2" d="M313.73,351.7a2,2,0,0,1-1-1.61l-.59-14.21a1.31,1.31,0,0,0-1.31-1.32,1.56,1.56,0,0,0-1.61,1.32l-.3,1.46c-1.17,6-2.2,11.87-3.22,14.06-.29.59-.88.88-2.05,1h-.29c-2.35.44-7.33.29-13.18.29H276.1c-5.13,0-5.42-.29-5.42-1.76V321.53c0-1.32.44-1.76,1.76-1.76h2.94a12.53,12.53,0,0,1-2.23-6H256.77c-1.32,0-1.76-.44-1.76-1.76V301.32c0-1,.58-1.47,1.46-1.91a6.53,6.53,0,0,0,2.79-1.75c1.17-1.76-.15-3.22-2.49-3.81h-.3l-6.15-.59c-2.78-.29-4.25,1-4.25,3.81V312c0,1.32-.43,1.76-1.75,1.76H206.1c-1,0-1.62-.44-1.76-1.32a48.51,48.51,0,0,0-.88-5.57,2.17,2.17,0,0,0-2.2-1.75,1.69,1.69,0,0,0-1.76,1.75c0,11.13-5,20.8-10.25,24.9-2.93,2.2-5,5.71-2.78,8.79s7.18,1.9,10.69-1.17,6.74-9.09,7.47-18c.15-1.17.59-1.61,1.76-1.61H230.7c1.61,0,2.05.59,1.76,2.05-4.69,21.82-16.55,34.71-43.06,44.52a1.76,1.76,0,0,0-1.17,2.49c.44,1.47,1.32,1.91,2.34,1.47h.29c31.49-8.21,46.28-22.26,51.85-49.06a1.64,1.64,0,0,1,1.75-1.47h15.67c1.32,0,1.76.44,1.76,1.76v30.9c0,6.88,2.34,9.08,12.89,9.08H290c22.26,0,26.36-1.47,26.36-5.86A4.08,4.08,0,0,0,313.73,351.7Z"/><path class="cls-2" d="M315.78,316.26l-6.15-6c-1.75-1.61-3.51-1.61-5.41.15l-2.79,2.78a1.51,1.51,0,0,1-1.17.59h-2.13a12.43,12.43,0,0,1-2.23,6h.85c1.9,0,2.49.73,1.46,2.64-2.49,4.68-5.56,9.81-8.49,14.2v.3c-.59.73-.44,1.46.58,1.9a2.44,2.44,0,0,0,2.64-.15,112.85,112.85,0,0,0,18.45-17,1.12,1.12,0,0,1,1-.58c1.17-.15,2.05,0,2.78-.44h.29C317.4,320.06,317.4,318,315.78,316.26Z"/><path class="cls-2" d="M316.81,417.45l-.29-.29a103.84,103.84,0,0,0-8.5-7.32c-1.75-1.32-3.51-1.17-5.27.58l-4.25,5c-.44.44-.73.73-1.31.73H256.77c-1.32,0-1.76-.43-1.76-1.75v-30.9c0-1.32.44-1.76,1.76-1.76H302.9a5,5,0,0,0,3.37-1.17c1-1.17.43-2.93-.74-4-2.78-2.49-5.71-4.68-7.91-6.29a3.7,3.7,0,0,0-5.27.44c-1.31,1.61-2.63,2.92-3.8,4.24a1.76,1.76,0,0,1-1.32.73H246.07v38.67c0,1.32-.43,1.75-1.75,1.75H186.76c-2,0-2.78,1.18-2,3.23a3.24,3.24,0,0,0,3.52,2.78h125.5a4.28,4.28,0,0,0,3.67-1.47A2.29,2.29,0,0,0,316.81,417.45Z"/><path class="cls-2" d="M510.43,393.58a3.08,3.08,0,0,0-2.78-.14c-1.18.43-1.32,1-.88,1.9l.29.29c4.1,6.3,8.64,14.94,9.81,22a3.23,3.23,0,0,0,1.32,2.49c3.81,2.2,7.17-.59,7.17-5.71C525.36,409.1,521.7,401.05,510.43,393.58Z"/><path class="cls-2" d="M502.08,396.36l-5.71-2.49c-2.34-1-4.54,0-5.27,2.64A83.52,83.52,0,0,1,476.3,424a2.23,2.23,0,0,0,0,2.93,1.75,1.75,0,0,0,2.64.29c8.93-6.88,16-16.84,19.92-25.33a2.57,2.57,0,0,1,1.61-1.17A9.56,9.56,0,0,0,503,400l.29-.14C504.57,398.71,504,397.1,502.08,396.36Z"/><path class="cls-2" d="M526,302.64l-5.42-4.25c-1.75-1.17-3.8-1-5,.58l-1.46,1.91c-.44.44-.73.73-1.32.73H494.32a1.82,1.82,0,0,1-.88-.15l-4.25-2c-2.93-1.46-5-.29-5,3.23v57.57H494l.15,0h18c1.32,0,1.76.44,1.76,1.76v17.86c0,1.32-.44,1.76-1.76,1.76h-28v12.31a2.2,2.2,0,0,0,.29,1,1.32,1.32,0,0,0,.88.88h.3a.9.9,0,0,0,.58.14c3.52-.43,6.15-2.48,6.15-3.51v-3.08c0-1.31.44-1.75,1.76-1.75h18c1.32,0,1.76.44,1.76,1.75v2.93a1.8,1.8,0,0,0,.15.88l.14.3a.93.93,0,0,0,.88.58l.3.15h.29c3.37,0,6.59-2.79,6.59-3.52V354.14h-9.65c-.15,0-.27.05-.46.05h-18c-1.32,0-1.76-.44-1.76-1.76v-17c0-1.32.44-1.76,1.76-1.76h18l.19,0h9.92V310a1.89,1.89,0,0,1,1.46-1.9l2-.59C528.15,306.44,527.85,304.25,526,302.64Zm-12,23.13c0,1.32-.44,1.76-1.76,1.76h-18c-1.32,0-1.76-.44-1.76-1.76v-16.4c0-1.31.44-1.75,1.76-1.75h18c1.32,0,1.76.44,1.76,1.75Z"/><path class="cls-2" d="M605.62,318l-5.13-3.95q-2.85-2-4.83.44l-.15.29-1.46,1.61a1.59,1.59,0,0,1-1.32.59h-9.66c-2.79,0-3.23-1-1.18-3.08A80.13,80.13,0,0,0,591,302.05a1.61,1.61,0,0,1,1.32-1,6.43,6.43,0,0,0,3.08-1.32c1.61-1.47.58-3.52-1.91-4.1L587,294c-2.2-.59-3.95.14-4.69,2.49a108.41,108.41,0,0,1-9.08,19.62c-.44.59-.73.88-1.46.88H556.27c1.46-.59,2.34-2.49,2.34-5.27,0-4.84-3.81-12-15.23-17.28a3.08,3.08,0,0,0-2.78.14,1.45,1.45,0,0,0-.3,2.2A52.73,52.73,0,0,1,550,314.65v.29a3.47,3.47,0,0,0,1.29,2.05H541.18a1.84,1.84,0,0,1-.88-.15l-4.25-2c-2.92-1.46-5-.14-5,3.37v25.06H541l.2,0h18.75c1.32,0,1.75.44,1.75,1.76v10.1c0,1.32-.43,1.76-1.75,1.76H541.18a3.52,3.52,0,0,1-.49-.05h-9.61v10.3a2.09,2.09,0,0,0,.29,1,1.3,1.3,0,0,0,.88.88h.29a.92.92,0,0,0,.59.14c3.66-.43,6.29-2.48,6.29-3.51v-1.46c0-1,.3-1.32,1.32-1.32h51.41c1.31,0,1.75.44,1.75,1.75v1.32a1.8,1.8,0,0,0,.15.88l.15.29a.9.9,0,0,0,.88.59l.29.15h.29c3.66,0,6.74-2.49,6.74-3.52V325c0-1,.58-1.46,1.46-1.75a5.64,5.64,0,0,0,1.91-.88C607.52,321.38,607.23,319.19,605.62,318Zm-43.94,17.43c0,1.32-.43,1.76-1.75,1.76H541.18c-1.32,0-1.76-.44-1.76-1.76V324.75c0-1.32.44-1.76,1.76-1.76h18.75c1.32,0,1.75.44,1.75,1.76Zm32.22,19.62c0,1.32-.44,1.76-1.75,1.76H571.79c-1.32,0-1.76-.44-1.76-1.76V345c0-1.32.44-1.76,1.76-1.76h20.36c1.31,0,1.75.44,1.75,1.76Zm0-19.62c0,1.32-.44,1.76-1.75,1.76H571.79c-1.32,0-1.76-.44-1.76-1.76V324.75c0-1.32.44-1.76,1.76-1.76h20.36c1.31,0,1.75.44,1.75,1.76Z"/><path class="cls-2" d="M585.48,392.24l-.22,0H549.09c-1.32,0-1.76-.44-1.76-1.75v-10c0-1.32.44-1.76,1.76-1.76h48.84a2.74,2.74,0,0,0,1-.59c1.61-1.17,1.17-3.22-.44-4.54l-5-3.8c-1.75-1.17-3.07-1-4.54.44l-1.46,1.75a1.59,1.59,0,0,1-1.32.59h-36.9a1.8,1.8,0,0,1-.88-.15l-4.4-2.05c-2.93-1.32-5.12,0-5.12,3.52v52.72a2,2,0,0,0,.29,1c.15.44.59.59.88.74h.15a.9.9,0,0,0,.58.14c4-.44,6.59-2.78,6.59-3.51v-4.4c0-1.31.44-1.75,1.76-1.75h36.17c1.32,0,1.76.44,1.76,1.75v4.84a1.84,1.84,0,0,0,.15.88l.14.29a.91.91,0,0,0,.88.58l.29.15h.3c3.51,0,6.73-2.78,6.73-3.51V392.24ZM587,411c0,1.32-.44,1.76-1.76,1.76H549.09c-1.32,0-1.76-.44-1.76-1.76V400.17c0-1.32.44-1.76,1.76-1.76h36.17c1.32,0,1.76.44,1.76,1.76Z"/><path class="cls-2" d="M794.7,420.48v6.64a1,1,0,0,0,1.17,1h.88c3.07,0,6.59-2.34,6.59-4.1v-9.27A15.8,15.8,0,0,1,794.7,420.48Z"/><path class="cls-2" d="M870,415.7c-3.22,0-13.62-1.18-20.65-1.91a2,2,0,0,0-2.49,1.91V416a2.65,2.65,0,0,0,2.35,2.49c5.71.73,11.13,2.19,13.18,3.22l.29.29a6.74,6.74,0,0,1,1.75,2.36l5.73-8.66Z"/><path class="cls-2" d="M844.8,305.06c.29-.86.59-1.71.86-2.57a2,2,0,0,1,1.47-1.17,10.28,10.28,0,0,0,2.92-1.32c1.61-1.46.59-3.51-1.75-4.1l-6.45-1.9c-2.49-.74-4.24.14-4.83,2.78-.13.5-.27,1-.4,1.5A11.44,11.44,0,0,1,844.8,305.06Z"/><path class="cls-2" d="M902.19,323.72l-5.27-4.53c-1.91-1.62-3.52-1.47-5.57.58l-1.9,2.05a1.79,1.79,0,0,1-1.46.73h-47.6c-2,0-2.47-.71-1.65-2.54a11.3,11.3,0,0,1-4.51.93,11.45,11.45,0,0,1-5.06-1.19c-1.25,2.82-2.56,5.57-3.95,8.2a3.22,3.22,0,0,0-1.09-2.61c-2.78-2.35-5.12-4.69-7.32-6.3-2-1.61-3.81-1.47-5.56.44-1.18,1.61-2.35,2.93-3.37,4.24a1.82,1.82,0,0,1-1.47.74h-1.32c-1.31,0-1.75-.44-1.75-1.76V301.61c0-1,.58-1.46,1.46-1.9a4.52,4.52,0,0,0,2.34-1.32l.15-.29c1.32-1.91,0-3.81-2.63-4.1l-5.72-.59c-2.78-.29-4.24,1-4.24,3.81V322.7c0,1.32-.44,1.76-1.76,1.76h-5.42c-1.61,0-2.2-.74-1.76-2.35,1-3.95,1.91-7.61,2.64-11.71a2.13,2.13,0,0,1,1.46-1.47,4.42,4.42,0,0,0,2.35-1.17l.29-.29c1-1.76,0-3.52-2.34-4l-5.72-1.17c-2.63-.58-4.24.59-4.53,3.52-1.91,16.55-5.57,33.1-10.7,45.54a1.87,1.87,0,0,0,.88,2.64h.29a1.66,1.66,0,0,0,2.5-.59,108.2,108.2,0,0,0,10-21.82,1.58,1.58,0,0,1,1.6-1.17h8.5c1.32,0,1.76.44,1.76,1.76v31.93a1.6,1.6,0,0,1-1.17,1.61c-8.21,2.78-15.09,5.12-20.36,6.73-2.93.73-3.66,2.93-2.49,5.42l2.78,5.71c.59,1.47,1.61,1.91,2.93,1.32a1.6,1.6,0,0,0,.59-.73l.73-1.47a1.83,1.83,0,0,1,.73-.73c4.69-2.2,9.37-4.54,13.62-6.74,1.9-.87,2.64-.29,2.64,1.62v13a15.8,15.8,0,0,1,8.64,5.71V371a1.71,1.71,0,0,1,1-1.61L819.15,362l4.84-2.34a2.12,2.12,0,0,0,1.32-2.49,1.09,1.09,0,0,0-.15-.59,2.09,2.09,0,0,0-2.35-1h-.29l-7.47,2.79-9.37,3.37c-1.61.58-2.34,0-2.34-1.62V332.22c0-1.32.44-1.76,1.75-1.76h16.26a4.64,4.64,0,0,0,3.08-1.06,114.79,114.79,0,0,1-13.77,20.25,1.74,1.74,0,0,0,.15,2.63c1.17.88,2.05.88,2.92.15l.3-.15a85.55,85.55,0,0,0,19.48-22.84,1.59,1.59,0,0,1,1.46-.88h10.84c1.61,0,2.05.58,1.61,2.19a122.1,122.1,0,0,1-35.15,59.46A2.22,2.22,0,0,0,812,393l.29.29a2.25,2.25,0,0,0,2.49.15l.44-.15c21.09-15.67,35.29-37.79,42.47-63.41a1.62,1.62,0,0,1,1.76-1.32h8.05c1.47,0,1.91.58,1.76,2.05C864.11,364.15,850.64,394,825,417a1.8,1.8,0,0,0,0,2.79,2.24,2.24,0,0,0,2.64.29l.44-.15c29.73-22,45-53.16,51.25-89.92a1.64,1.64,0,0,1,1.76-1.46h7.18c1.32,0,1.9.58,1.76,1.9-1.48,27.41-3.82,50.71-7,65.78l11.55-17.44c1.74-13.66,3-29.92,4-48.05,0-1,.58-1.46,1.46-1.75a8.5,8.5,0,0,0,2-.59l.3-.15C904.09,327.09,903.8,325.19,902.19,323.72Z"/><path class="cls-3" d="M378.94,416.43c2.65-6.77,7.25-10.63,14.37-10v10c-4.59-.24-8.21,1.93-12,7.37-2.9,4.35-7,5.44-12.2,4.83v-3.86C373.38,425.37,375.67,424.16,378.94,416.43Zm18.48-88.21,16.31,7.37V400l-16.31,16.43Z"/><path class="cls-3" d="M649.06,394.59V321.23l18,8V380c-11,2.24-14,6.2-14,14.64Zm36.42,23.49c2.77-7.66,6.46-11.22,10.82-10.82v10.95c-3.17-.4-5.54,2.9-8.31,8-2.64,4.75-5.94,5.94-11,5.28v-4.22C680.47,427.84,682.58,426.65,685.48,418.08ZM700.78,321l17.81,8v71.24l-17.81,17.95Z"/><path class="cls-2" d="M952,285.58l-4.48,7.48-4.54,7.45-9.08,14.89q-9.17,14.84-18.43,29.6c-6.15,9.87-12.42,19.65-18.64,29.47L878,403.83l-19,29.23c-6.4,9.7-12.73,19.45-19.19,29.11s-12.91,19.34-19.41,29l-9.84,14.4-4.92,7.2-5,7.16,4.48-7.49,4.53-7.45,9.08-14.89q9.16-14.83,18.43-29.6c6.15-9.87,12.43-19.65,18.64-29.48l18.83-29.34,19-29.23c6.4-9.71,12.74-19.45,19.2-29.11s12.9-19.34,19.4-29l9.84-14.4,4.91-7.2Z"/><path class="cls-2" d="M151.34,212.35l-4.48,7.49-4.54,7.44-9.08,14.89q-9.17,14.84-18.43,29.61c-6.15,9.86-12.42,19.64-18.64,29.47L77.35,330.6l-19,29.23c-6.4,9.71-12.73,19.45-19.19,29.11s-12.91,19.34-19.41,29L9.9,432.32,5,439.52l-5,7.16,4.48-7.49L9,431.74l9.08-14.89q9.16-14.84,18.43-29.6c6.15-9.87,12.43-19.65,18.64-29.47L74,328.43,93,299.2c6.4-9.71,12.74-19.45,19.2-29.11s12.9-19.34,19.4-29l9.84-14.4,4.92-7.2Z"/></g><g id="キャッチコピー"><rect class="cls-4" x="79.68" y="465.33" width="713.68" height="14.63"/><path class="cls-2" d="M164.51,451.17l-.7.41v19.06a1.91,1.91,0,0,1-2,2.13.4.4,0,0,1-.43-.35,1.06,1.06,0,0,0-.54-.68c-.3-.11-.76-.24-1.38-.4a.38.38,0,0,1-.32-.38c0-.22.21-.35.48-.3a18.93,18.93,0,0,0,2,.11c.54,0,.81-.24.81-.76v-6.85h-3.1c-.19,4-1,7.26-2.49,9.58a.4.4,0,0,1-.59.11.33.33,0,0,1-.08-.43c1.16-2.67,1.75-6.32,1.75-10.91V450.34c0-.38.22-.65.43-.54s.81.4,1.35.67h2.51l.68-.91a.43.43,0,0,1,.62-.06c.84.7,1.24,1.13,1.24,1.38S164.67,451.07,164.51,451.17Zm-2.08,5.08v-5.1h-3.08v5.1Zm0,6.23v-5.56h-3.08v5.56Zm4.53,8.18c-.45.81-.94,1.22-1.45,1.22s-.95-.3-.95-.87c0-.29.22-.56.68-.86a4.77,4.77,0,0,0,1.89-2.94.43.43,0,0,1,.59-.33.31.31,0,0,1,.14.33A8,8,0,0,1,167,470.66Zm13.93-14a.34.34,0,0,1-.32.19H165.1a.39.39,0,0,1-.35-.21c-.11-.25.16-.46.51-.46H174a23.61,23.61,0,0,0,1-3.11.4.4,0,0,1,.56-.27c1.14.38,1.71.73,1.71,1s-.36.35-1,.38a11.3,11.3,0,0,1-1.48,2h3.5l.92-1.19a.41.41,0,0,1,.65,0,15.38,15.38,0,0,1,1.08,1.16.36.36,0,0,1,.05.41Zm-1.24-4.31a.42.42,0,0,1-.32.18H166a.39.39,0,0,1-.35-.21c-.11-.25.16-.46.51-.46h5.51v-2.62a.4.4,0,0,1,.46-.43c1.37.11,2,.32,2,.67,0,.19-.35.41-1,.65v1.73h3.91l.86-1.14a.4.4,0,0,1,.62,0c.41.38.79.78,1.11,1.14a.34.34,0,0,1,0,.43Zm-.92,7-.51.43v5.13a.39.39,0,0,1-.4.41h-.68a.39.39,0,0,1-.4-.41v-.46h-8.59v.57a.38.38,0,0,1-.4.4h-.65a.39.39,0,0,1-.41-.4v-6.53c0-.38.25-.62.49-.52s.78.35,1.27.6h8.15l.62-.7a.38.38,0,0,1,.54-.06c.78.6,1.16,1,1.16,1.22A.48.48,0,0,1,178.73,459.38ZM170,456.06c-.38,0-.65-.3-.79-.89a4.44,4.44,0,0,0-1-1.84.37.37,0,0,1,0-.48c.08-.14.27-.16.46-.08,1.48.75,2.21,1.56,2.21,2.43A.77.77,0,0,1,170,456.06Zm6.75,5.07v-1.86h-8.59v1.86Zm0,2.68v-2h-8.59v2Zm.08,8.5a20.18,20.18,0,0,1-3.38.19,9.79,9.79,0,0,1-3.59-.38,1.57,1.57,0,0,1-.59-1.46V466.4a.43.43,0,0,1,.48-.41c1.22.14,1.84.33,1.84.62s-.3.41-.86.6v3a.77.77,0,0,0,.37.76,5.2,5.2,0,0,0,1.84.19c1.67,0,2.59-.19,2.78-.6a7.52,7.52,0,0,0,.43-2.32c0-.32.27-.51.51-.43a.38.38,0,0,1,.25.35,6.71,6.71,0,0,0,.21,2.21.69.69,0,0,0,.35.38c.22.08.38.22.33.43A1.22,1.22,0,0,1,176.82,472.31Zm-2.68-3.37c-.37,0-.62-.3-.72-.9a4.92,4.92,0,0,0-1.33-2.18.38.38,0,0,1-.05-.49.35.35,0,0,1,.43-.05c1.7.84,2.56,1.75,2.56,2.72A.79.79,0,0,1,174.14,468.94Zm6.13,1.8c-.4,0-.7-.29-.86-.86a7.6,7.6,0,0,0-2-3.1.36.36,0,0,1-.08-.49.33.33,0,0,1,.46-.05c2.26,1.21,3.37,2.37,3.37,3.48C181.19,470.39,180.89,470.74,180.27,470.74Z"/><path class="cls-2" d="M207.8,453.06a.4.4,0,0,1-.36.22H189.39v7.42q0,8.1-4.86,12.28a.41.41,0,0,1-.54,0,.4.4,0,0,1,0-.54,17,17,0,0,0,3.75-10,26.69,26.69,0,0,1-2.94,2.7c0,.7-.16,1-.38,1s-.7-.59-1.24-1.76a.44.44,0,0,1,.21-.56,22.73,22.73,0,0,0,4.4-2.46,10.37,10.37,0,0,0,.06-1.16V452.5a.46.46,0,0,1,.65-.44,6.44,6.44,0,0,1,.91.44l.19.1h6.83v-3.29a.4.4,0,0,1,.46-.4c1.51.08,2.24.29,2.24.62s-.38.43-1.16.67v2.4h7l1-1.29c.13-.19.27-.3.32-.24s.05,0,.11.05l.11.11a13.23,13.23,0,0,1,1.35,1.35.36.36,0,0,1,0,.4ZM186,459.7c-.49,0-.76-.27-.81-.83a9.53,9.53,0,0,0-1.32-3.89.41.41,0,0,1,.08-.49.38.38,0,0,1,.48,0c1.7,1.41,2.54,2.76,2.54,4C187,459.33,186.69,459.7,186,459.7Zm21.81-2.91a.37.37,0,0,1-.3.16h-8.12v2.35c0,.54,0,1,0,1.27h4.94l.73-.87a.43.43,0,0,1,.57-.05c.89.7,1.32,1.16,1.32,1.38s-.08.21-.27.32l-.62.41v9.34c0,1.16-.76,1.78-2.3,1.88a.4.4,0,0,1-.4-.35.94.94,0,0,0-.54-.62,8.84,8.84,0,0,0-2.4-.56.39.39,0,0,1-.35-.41c0-.22.18-.35.45-.35a29.87,29.87,0,0,0,3.05.16c.65,0,1-.27,1-.78v-8.83h-5.21c-.11.81-.22,1.38-.3,1.76,0,0,.08.05.16.08a2,2,0,0,1,.19.11,10,10,0,0,1,3.86,2.83,2.23,2.23,0,0,1,.57,1.3.79.79,0,0,1-.89.91c-.3,0-.6-.27-.87-.83a10.31,10.31,0,0,0-3.21-3.67,10,10,0,0,1-4.67,5.69.38.38,0,0,1-.51-.11c-.14-.16-.08-.37.11-.54a10.94,10.94,0,0,0,4-7.53h-4.7v11.47a.38.38,0,0,1-.4.41H192a.39.39,0,0,1-.41-.41V460.43a.44.44,0,0,1,.62-.43c.38.16.81.35,1.25.57h4.45c0-.27,0-.68,0-1.19V457h-7.4a.38.38,0,0,1-.32-.22c-.11-.24.16-.45.54-.45h14.19L206,455a.41.41,0,0,1,.6-.05c.46.43.83.86,1.24,1.27l0,0a.41.41,0,0,1,.05.46Z"/><path class="cls-2" d="M224,454.87c-.51.16-1.83.62-3.24,1a17.8,17.8,0,0,1-1.29,2.84,42.94,42.94,0,0,1-5.54,7.88.77.77,0,0,1-.56.24.8.8,0,0,1-.54-1.4,26.55,26.55,0,0,0,3.67-4.54,27.78,27.78,0,0,0,2.54-4.64,6.67,6.67,0,0,1-1.11.08,5,5,0,0,1-4-1.7.36.36,0,0,1-.05-.19.49.49,0,0,1,.48-.48.52.52,0,0,1,.38.16,2.89,2.89,0,0,0,2.43.94,7.92,7.92,0,0,0,1.3-.1,10.4,10.4,0,0,0,1.21-.25c.41-1.1.92-2.45,1.3-3.8a.8.8,0,0,1,.75-.65.78.78,0,0,1,.79.81,2.34,2.34,0,0,0,1.56,2.21,1,1,0,0,1,.65.84A.83.83,0,0,1,224,454.87Zm7.91,4.08a.49.49,0,0,1-.27-.06,13.58,13.58,0,0,0-3.4-.51h-.16c-1.22,0-1.94.16-1.94,1.46,0,.16,0,.32,0,.54a49.38,49.38,0,0,1,.62,6.45,26.91,26.91,0,0,1,4.86,2,.75.75,0,0,1,.46.7.73.73,0,0,1-.7.76.84.84,0,0,1-.41-.14,24.29,24.29,0,0,0-4.23-1.83,4.39,4.39,0,0,1-4.43,4.07h0c-2.75,0-3.86-1.54-3.86-3.05v-.1c0-1.43,1.41-2.65,3.62-2.81.38,0,.76,0,1.13,0a15.22,15.22,0,0,1,2.11.16c-.08-1.72-.35-4.53-.41-5.75a3,3,0,0,1,0-.43c0-2.18,1.1-3.24,3.91-3.32.22,0,.27-.08.27-.13a.33.33,0,0,0-.11-.22,11.38,11.38,0,0,1-1.78-2.05.53.53,0,0,1-.13-.38.4.4,0,0,1,.43-.4.54.54,0,0,1,.38.16,15.85,15.85,0,0,0,4.34,3.4.82.82,0,0,1,.51.76A.76.76,0,0,1,231.89,459Zm-9.58,8.64c-1.65,0-2.73.81-2.75,1.7a.56.56,0,0,0,0,.1c.08,1,.81,1.68,2.54,1.68h.19c1.75,0,2.75-1.22,2.94-3.19A14.58,14.58,0,0,0,222.31,467.59Zm-.22-13.82a1.59,1.59,0,0,1-.35-.33s0,0-.05,0l-.06.06-.24.7.68-.24c.08,0,.08-.06.08-.06S222.12,453.82,222.09,453.77Z"/><path class="cls-2" d="M261.39,452.55a.37.37,0,0,1-.3.16H241v6c0,6.18-1.1,10.9-3.34,14.19a.39.39,0,0,1-.54.11.37.37,0,0,1-.11-.48q2.43-5,2.43-13.77V451.9c0-.35.27-.59.57-.46a12.9,12.9,0,0,1,1.26.6h8V449.2a.43.43,0,0,1,.46-.43c1.46.06,2.19.27,2.19.65,0,.22-.38.43-1.13.67v2h7.61l1.1-1.41a.43.43,0,0,1,.63,0,12.74,12.74,0,0,1,1.26,1.4.33.33,0,0,1,0,.46Zm-.41,19.9a21.8,21.8,0,0,1-4.51.29,20.33,20.33,0,0,1-4.85-.32c-.52-.22-.79-.73-.79-1.57v-4.1H249a7.36,7.36,0,0,1-3.21,4.88,13.33,13.33,0,0,1-5.46,1.68.32.32,0,0,1-.37-.22c-.11-.19.1-.43.43-.51,4.1-.84,6.42-2.78,7-5.83h-2.84v.59a.38.38,0,0,1-.4.41h-.65a.38.38,0,0,1-.4-.41v-5.88a.45.45,0,0,1,.64-.43c.3.1.65.27,1.06.43h5.5a7.52,7.52,0,0,0,.68-1.73l-1,.46a.37.37,0,0,1-.48-.13c-.08-.11,0-.33.27-.46a14.7,14.7,0,0,0,4.37-3.81h-6.75v.62c.11,0,.19,0,.3,0,1.86.27,2.81.84,2.81,1.7a.69.69,0,0,1-.79.78c-.27,0-.48-.16-.67-.54a3.66,3.66,0,0,0-1.65-1.32v3.18a.38.38,0,0,1-.4.41h-.6a.38.38,0,0,1-.4-.41v-3a13.5,13.5,0,0,1-3.84,3.4.41.41,0,0,1-.54-.14c-.08-.11,0-.3.19-.43a13,13,0,0,0,3.76-4.32h-3.35a.35.35,0,0,1-.35-.24c-.08-.22.16-.43.51-.43H246v-1.54a.42.42,0,0,1,.48-.43c1.22.1,1.81.26,1.81.56s-.29.41-.89.6v.81h1.92l.67-.87a.38.38,0,0,1,.6-.05,8.51,8.51,0,0,1,.91.92h3.08v-1.57a.43.43,0,0,1,.46-.43c1.27.05,1.92.24,1.92.56s-.35.41-1,.6v.84h2.62l.83-1.06a.41.41,0,0,1,.6-.05c.37.38.75.7,1.1,1.08a.41.41,0,0,1,.06.43l-.06.11a.36.36,0,0,1-.29.16h-4.59a12.88,12.88,0,0,0,4.69,3.18.46.46,0,0,1,.17.79,1.74,1.74,0,0,0-.27.38.42.42,0,0,1-.54.16,12.34,12.34,0,0,1-4.32-3.78v3.72a.38.38,0,0,1-.41.41h-.56a.38.38,0,0,1-.41-.41v-3a18.37,18.37,0,0,1-3.32,2.38s0,0,.11,0a.21.21,0,0,0,.13,0c1.11.16,1.68.35,1.68.57s-.33.29-1,.43a6.13,6.13,0,0,1-1,.81h6.26l.6-.68a.38.38,0,0,1,.54,0c.83.59,1.26,1,1.26,1.19s-.05.19-.21.32l-.57.51v4.13a.38.38,0,0,1-.4.41H258a.39.39,0,0,1-.41-.41v-.13h-5.23v3.81c0,.37.13.59.38.67a12.08,12.08,0,0,0,3.18.22c2.32,0,3.62-.19,3.86-.57a8.74,8.74,0,0,0,.51-2.21.43.43,0,0,1,.57-.35c.14,0,.19.18.19.37v.6a3.24,3.24,0,0,0,.22,1.48.65.65,0,0,0,.32.24c.22.09.4.22.35.46A1.31,1.31,0,0,1,261,472.45Zm-10.79-8.75v-1.57h-5.65v1.57Zm0,2.37v-1.7h-5.65v1.7Zm7.36-2.37v-1.57h-6v1.57Zm0,2.37v-1.7h-6v1.7Zm1,4.62c-.27,0-.43-.19-.54-.51v-.06a1.21,1.21,0,0,0-.16-.43,35.68,35.68,0,0,1-4,.7c-.13.46-.24.68-.37.68s-.36-.35-.57-1.06a.43.43,0,0,1,.43-.59,3.41,3.41,0,0,0,.62,0,7.55,7.55,0,0,0,.76-1.94.42.42,0,0,1,.54-.3c.81.25,1.21.46,1.21.68s-.24.24-.73.3a6.54,6.54,0,0,1-1,1.24c.52,0,1.43-.08,2.76-.19a2.84,2.84,0,0,0-.38-.41.4.4,0,0,1-.08-.59c0-.05.19,0,.38.05,1.21.6,1.8,1.16,1.8,1.76S259,470.69,258.58,470.69Z"/><path class="cls-2" d="M288.53,455.84a.33.33,0,0,1-.32.19h-5.1a28.26,28.26,0,0,1-3.92,9.88q7.86,3.52,7.86,5.45c0,.6-.24.9-.81.9-.24,0-.76-.36-1.57-1a38.57,38.57,0,0,0-6.26-4.16q-3.81,4.62-12.85,5.67a.32.32,0,0,1-.35-.19c-.13-.21.08-.48.41-.54q7.94-1.5,11.36-5.69a58,58,0,0,0-6.56-2.84l-1.13,2.14a.43.43,0,0,1-.49.18l-.67-.24a.43.43,0,0,1-.25-.62,84.34,84.34,0,0,0,4-8.34l.24-.57h-6.88a.33.33,0,0,1-.32-.19c-.14-.24.16-.48.59-.48h6.88c.89-2.32,1.62-4.37,2.16-6.21a.39.39,0,0,1,.49-.27c1.43.27,2.13.57,2.13.92s-.43.46-1.27.65c-.57,1.8-1.16,3.45-1.78,4.91h11.09l1.25-1.65a.42.42,0,0,1,.64,0c.57.59,1.06,1.16,1.46,1.64a.36.36,0,0,1,.05.41Zm-14.68.19q-1.34,3.29-3.08,6.81a72.25,72.25,0,0,1,7,2.45,28,28,0,0,0,3.59-9.26Z"/><path class="cls-2" d="M298.86,464.7a47.11,47.11,0,0,0-2.7,6,.78.78,0,0,1-.72.56.83.83,0,0,1-.76-.67,16.57,16.57,0,0,1-.92-5.89v-.16a31.47,31.47,0,0,1,1.11-7.66,16.94,16.94,0,0,0,.59-3.51,3.44,3.44,0,0,0-.78-2.3.56.56,0,0,1-.08-.27.44.44,0,0,1,.43-.45.88.88,0,0,1,.3.1,3.63,3.63,0,0,1,1.46,3.3v.1a47.24,47.24,0,0,1-1.3,6.86,18.35,18.35,0,0,0-.38,3.72,19.42,19.42,0,0,0,.14,2.43c.05.57.27.73.4.73a.52.52,0,0,0,.35-.32,12,12,0,0,1,2.16-3.1.55.55,0,0,1,.35-.17.44.44,0,0,1,.43.43A.39.39,0,0,1,298.86,464.7Zm15.77,4.59a.65.65,0,0,1-.43-.14,20.68,20.68,0,0,0-4.92-2.46,4.47,4.47,0,0,1-2.72,4.11,6.11,6.11,0,0,1-2.51.56c-2.11,0-3.89-1.18-3.89-2.8,0-2.24,3.08-3.3,4.91-3.43.41,0,.81-.05,1.22-.05a10.37,10.37,0,0,1,1.59.1v-.7c0-1.35-.14-4-.24-6.58a9.37,9.37,0,0,1-1.22.08h-.16c-2.38,0-4-1-4.67-2.19a.42.42,0,0,1,.32-.62.56.56,0,0,1,.41.19,5,5,0,0,0,3.8,1.29c.36,0,.73,0,1.14,0a2.94,2.94,0,0,1,.35-.05l-.19-5.67v0a.72.72,0,0,1,.73-.76.78.78,0,0,1,.73.6c.89,2.91,1.64,3.89,4.56,4.48.59.13.76.46.76.78a.75.75,0,0,1-.62.7,30.81,30.81,0,0,1-4.51,1.08c.08,2.95.21,6.62.21,6.62,0,.37,0,.73,0,1.1a22.33,22.33,0,0,1,5.64,2.43.74.74,0,0,1-.32,1.41Zm-8.21-3.05c-.46,0-.92.05-1.4.08-2.13.19-3.67,1.05-3.67,2.13v.08c0,.84,1.08,1.46,2.37,1.46a6,6,0,0,0,1.87-.32c1.37-.49,2.05-1.38,2.24-3.27A10.29,10.29,0,0,0,306.42,466.24Zm4.32-10.5a4.41,4.41,0,0,1-1.54-1.19.17.17,0,0,0-.11-.06s-.1,0-.1.19c0,.41,0,1,0,1.7a15,15,0,0,0,1.76-.37.37.37,0,0,0,.16-.11S310.9,455.82,310.74,455.74Z"/><path class="cls-2" d="M323.42,473.12c-.43,0-.81-.35-1.08-1a10.73,10.73,0,0,0-3.4-4.5c-.19-.17-.24-.38-.11-.54a.38.38,0,0,1,.43-.14,10.8,10.8,0,0,1,4.67,3,2.92,2.92,0,0,1,.78,1.86C324.71,472.66,324.28,473.12,323.42,473.12Z"/><path class="cls-2" d="M358.45,456.06c-1.22.32-2.38.59-3.57.81-.51,1.48-1.08,3-1.56,4.26-1.27,3.27-3.94,8.67-4.45,9.53a.83.83,0,0,1-.73.46.76.76,0,0,1-.79-.73,1,1,0,0,1,.14-.43,102.59,102.59,0,0,0,5.59-12.09c.08-.24.19-.49.27-.76l-.79.11a5,5,0,0,1-.67,0,3.79,3.79,0,0,1-3.54-1.78.52.52,0,0,1-.05-.27.48.48,0,0,1,.48-.46.51.51,0,0,1,.38.21,2.69,2.69,0,0,0,2.43.95c.27,0,.57,0,.89-.06s.84-.13,1.32-.21c.71-2.3,1.22-4.54,1.44-5.13a.71.71,0,0,1,.72-.59.82.82,0,0,1,.84.75.3.3,0,0,1,0,.16c-.24,1.06-.72,2.68-1.32,4.43.95-.22,1.86-.49,2.65-.73a.86.86,0,0,1,.27,0,.73.73,0,0,1,.73.78A.82.82,0,0,1,358.45,456.06Zm8.37,15.14c-.57,0-1.11.06-1.65.06-5.51,0-9.21-1.81-9.21-5.62v-.08c0-2.56,2.65-4.61,5.19-6.1a.76.76,0,0,0,.38-.49c0-.13-.09-.24-.28-.32a5.35,5.35,0,0,0-1.64-.54.44.44,0,0,1-.38-.43c0-.24.19-.46.57-.46h0a18,18,0,0,1,3.94.59.83.83,0,0,1,.73.79.94.94,0,0,1-.56.81c-3.49,1.81-6.86,3.37-6.86,6.21v.1c0,1.38,1,2.41,2.43,3.08a12.5,12.5,0,0,0,5.07,1,13.29,13.29,0,0,0,2.14-.16.3.3,0,0,1,.16,0,.8.8,0,1,1-.05,1.59Z"/><path class="cls-2" d="M388.91,472.77a.78.78,0,0,1-.72-.51,23.45,23.45,0,0,0-4.62-6.83,18.45,18.45,0,0,0-5.43-3.57c-.91-.45-.86-1.59.11-2.24.81-.51,2.11-1.54,4.21-3.21,1.76-1.38,4.83-3.67,4.81-5.21a1.07,1.07,0,0,0-.27-.73.34.34,0,0,1-.14-.29.47.47,0,0,1,.46-.46.72.72,0,0,1,.38.13,2.17,2.17,0,0,1,.67,1.62,3.36,3.36,0,0,1-.72,2c-1.57,2-5.13,4.77-7.64,6.74a.73.73,0,0,0-.35.54c0,.14.08.27.29.41a35.31,35.31,0,0,1,4.83,3.26c2.54,2.22,4.21,5.78,4.86,7.16a.74.74,0,0,1,.11.38A.83.83,0,0,1,388.91,472.77Z"/><path class="cls-2" d="M418.81,454.44a53.62,53.62,0,0,1-5.42,1.7,4.48,4.48,0,0,0,.21.46c1.22,2.4,2.6,5.48,3.62,7a.9.9,0,0,1-1.16,1.35,24.81,24.81,0,0,0-6-1.57.46.46,0,0,1-.4-.46.52.52,0,0,1,.56-.48h.06a29.27,29.27,0,0,1,3.91.38h.16c.33,0,.52-.17.52-.46a1.13,1.13,0,0,0-.08-.35c-.19-.52-1.57-3.32-2.7-5.59-.81.16-1.62.32-2.38.4a16.66,16.66,0,0,1-2.21.14h0c-2.32,0-3.56-.65-4.48-1.89a.61.61,0,0,1-.14-.3.45.45,0,0,1,.46-.43.65.65,0,0,1,.41.16,4.14,4.14,0,0,0,3.18,1.05,18.34,18.34,0,0,0,1.92-.13c.78-.11,1.65-.27,2.54-.43-1-1.95-1.54-3.08-2-3.89A.71.71,0,0,1,410,450a.79.79,0,0,1,.7.43c.49.89,1.16,2.51,1.95,4.24a38,38,0,0,0,5.53-1.73,2.45,2.45,0,0,1,.35-.05.81.81,0,0,1,.84.78A.76.76,0,0,1,418.81,454.44Zm-2.61,16.87a25.5,25.5,0,0,1-3.24.22,16.23,16.23,0,0,1-3.7-.38c-2.3-.57-3.7-1-4.81-2.81a3.47,3.47,0,0,1-.45-1.78,3.66,3.66,0,0,1,.43-1.81.54.54,0,0,1,.43-.3.5.5,0,0,1,.38.71,2.66,2.66,0,0,0-.19,1,2.52,2.52,0,0,0,1.19,2.19,10.23,10.23,0,0,0,4.72,1.53,16.69,16.69,0,0,0,1.73.08,21.45,21.45,0,0,0,3.26-.24h.16a.82.82,0,0,1,.84.81C417,470.93,416.74,471.23,416.2,471.31Z"/><path class="cls-2" d="M449.36,463.75a31.87,31.87,0,0,1-2.21,4.7,5.47,5.47,0,0,1-4.4,2.75,2.38,2.38,0,0,1-1-.19c-1.7-.67-2.16-2.48-2.27-4.88-.11-2.22-.73-3.57-1.67-3.75a2,2,0,0,0-.43,0c-1.62,0-3.76,1.81-4.65,2.64-1.24,2.43-2.7,5.4-3,6a.81.81,0,0,1-.73.46.79.79,0,0,1-.81-.76,1.14,1.14,0,0,1,.14-.46c.94-1.78,4.15-8.23,5.18-9.82s3.35-5.27,3.83-6.29a2,2,0,0,0,.17-.79,2.3,2.3,0,0,0-.71-1.62.54.54,0,0,1-.16-.37.43.43,0,0,1,.43-.44.83.83,0,0,1,.35.09,2.7,2.7,0,0,1,1.33,2.4,2.45,2.45,0,0,1-.33,1.32c-.73,1.3-2.86,4.94-3.86,6.75,0,.05,0,.08,0,.11a.25.25,0,0,0,.27.27.38.38,0,0,0,.18,0,4.84,4.84,0,0,1,2.54-.86,2.64,2.64,0,0,1,.7.08c1.87.56,2.43,2.32,2.57,4.37s.46,3.75,1.54,4.13a2.08,2.08,0,0,0,.73.11,3.86,3.86,0,0,0,2.88-1.57,20.85,20.85,0,0,0,2.54-4.56.58.58,0,0,1,.46-.38.48.48,0,0,1,.46.46A.29.29,0,0,1,449.36,463.75Z"/><path class="cls-2" d="M473.05,467.91a13,13,0,0,1-6.53,3,.3.3,0,0,1-.16,0,.53.53,0,0,1-.59-.54c0-.27.21-.54.64-.62a13.08,13.08,0,0,0,5.7-3,7.49,7.49,0,0,0,2.64-6.24v-.78a6.78,6.78,0,0,0-5.72-6.34,14.26,14.26,0,0,0-2.43-.22,10.46,10.46,0,0,0-1.24.08,3.8,3.8,0,0,1,.86,2.38,4.33,4.33,0,0,1-.37,1.7,32.49,32.49,0,0,1-5.16,8.64,4,4,0,0,1-2.83,1.59,2.86,2.86,0,0,1-2.3-1.38,5.56,5.56,0,0,1-.83-3.18,10.49,10.49,0,0,1,1.91-6A13,13,0,0,1,466.93,452c3.1,0,6.66,1.11,8.42,4.65a9.5,9.5,0,0,1,1,4.29A9.12,9.12,0,0,1,473.05,467.91Zm-8.74-14.41a12.46,12.46,0,0,0-4.67,2.32,8.42,8.42,0,0,0-3.4,6.83,7.23,7.23,0,0,0,.16,1.64c.27,1.16.84,1.81,1.54,1.81a2.24,2.24,0,0,0,1.62-1.05,44.73,44.73,0,0,0,4.91-7.86,4.81,4.81,0,0,0,.43-1.94A2.51,2.51,0,0,0,464.31,453.5Z"/><path class="cls-2" d="M503.38,471.72a.39.39,0,0,1-.56.1,20.9,20.9,0,0,1-8.23-8.8,22.14,22.14,0,0,1-1.79-6.39,21.25,21.25,0,0,1-3.42,9.74,17.73,17.73,0,0,1-8.29,6,.37.37,0,0,1-.46-.16c-.11-.19,0-.41.22-.54a17.67,17.67,0,0,0,8.26-8,26.07,26.07,0,0,0,2.21-11.31v-2.13a.4.4,0,0,1,.46-.41c1.62.11,2.43.33,2.43.7s-.41.52-1.19.76v.89c0,8.15,3.64,14.12,11,17.9a.48.48,0,0,1,.08.83A4.44,4.44,0,0,0,503.38,471.72Z"/><path class="cls-2" d="M515,465.1a21.82,21.82,0,0,0-2.11,5.32.82.82,0,0,1-.78.81.94.94,0,0,1-.86-.76,20.6,20.6,0,0,1-1-6.39V463c0-3,1-5.5,1.35-7.18a8.53,8.53,0,0,0,.25-1.86,2.69,2.69,0,0,0-.9-2.13.46.46,0,0,1-.13-.32.45.45,0,0,1,.46-.44.5.5,0,0,1,.32.11,3.37,3.37,0,0,1,1.41,3,9.51,9.51,0,0,1-.11,1.4c-.41,2.78-1.16,4.64-1.24,6.43,0,.37,0,.75,0,1.1a37.4,37.4,0,0,0,.24,3.78c0,.3.17.43.3.43s.27-.11.41-.37a7.68,7.68,0,0,1,1.7-2.49.49.49,0,0,1,.35-.16.46.46,0,0,1,.43.49A.75.75,0,0,1,515,465.1Zm13.47,5.35h-1.06c-3.18,0-7.69-.35-9.79-4.4a4.51,4.51,0,0,1-.52-2.19,8.86,8.86,0,0,1,3.11-6.13A17.69,17.69,0,0,1,524,455c.27-.16.38-.32.38-.43s-.11-.24-.3-.3a23.69,23.69,0,0,0-5.31-.64.41.41,0,0,1-.44-.41.47.47,0,0,1,.49-.48c.4,0,.81,0,1.27,0a32.61,32.61,0,0,1,7.45.81.88.88,0,0,1,.75.81c0,.35-.16.73-.89.89a13.11,13.11,0,0,0-6.93,4.1,6.51,6.51,0,0,0-2,4.35,4.69,4.69,0,0,0,.43,1.89c1,2.24,3.75,3.4,8,3.4.49,0,1,0,1.52,0h.08a.85.85,0,0,1,.86.84A.77.77,0,0,1,528.51,470.45Z"/><path class="cls-2" d="M557.08,465.13c-1.43,0-3.07-1.19-4.94-3.51a17.9,17.9,0,0,1-4.61,3.73c1.43.86,2.16,1.7,2.16,2.51s-.3,1-.92,1c-.38,0-.67-.24-.86-.75a8.12,8.12,0,0,0-2.46-3.05.42.42,0,0,1-.08-.57c.08-.11.24-.11.4-.05.54.24.92.46,1.08.54l.19-.16a18.41,18.41,0,0,0,4.21-4.24,20.32,20.32,0,0,1-2.75-7.26h-10v3.45c0,4.48-1.21,7.88-3.59,10.18a.39.39,0,0,1-.54,0,.34.34,0,0,1,0-.48c1.7-2.38,2.54-5.59,2.54-9.7v-4.21a.46.46,0,0,1,.65-.46l1.26.57h9.53a31.65,31.65,0,0,1-.29-3.4.43.43,0,0,1,.48-.43c1.3.11,1.95.32,1.95.65s-.3.4-.9.62c0,.83.11,1.64.22,2.48h5l.81-1.21a.44.44,0,0,1,.68-.08,13.29,13.29,0,0,1,1.16,1.26.38.38,0,0,1,0,.41l-.06.11a.41.41,0,0,1-.32.19H550a19.72,19.72,0,0,0,2.24,6.1,24.53,24.53,0,0,0,2.24-4.43.43.43,0,0,1,.59-.24c1.11.54,1.68.94,1.68,1.27s-.38.35-1.14.35a20.25,20.25,0,0,1-2.43,4l-.11.14c1.3,1.64,2.19,2.48,2.76,2.48.35,0,.62-1.11.83-3.29a.47.47,0,0,1,.71-.44.37.37,0,0,1,0,.27c0,.79-.05,1.41-.05,1.84,0,1.29.22,2.13.67,2.46a.37.37,0,0,1,.22.37A1.09,1.09,0,0,1,557.08,465.13Zm-19.35,5.78c-.62.86-1.24,1.29-1.81,1.29a1.09,1.09,0,0,1-.78-.38.93.93,0,0,1-.27-.67c0-.33.27-.62.81-.92a6.06,6.06,0,0,0,2.67-4.05.42.42,0,0,1,.46-.32.36.36,0,0,1,.3.4A8.59,8.59,0,0,1,537.73,470.91Zm10-14.85a.36.36,0,0,1-.32.19h-7.56a.35.35,0,0,1-.35-.24c-.08-.22.16-.44.51-.44h5.27l.86-1.08a.42.42,0,0,1,.62,0c.41.37.76.73,1,1a.39.39,0,0,1,0,.44Zm-.35,3.24-.54.35v3.56a.38.38,0,0,1-.4.41h-.65a.38.38,0,0,1-.41-.41v-.35h-3.69v.81a.39.39,0,0,1-.41.41h-.65a.39.39,0,0,1-.4-.41v-5.1a.44.44,0,0,1,.59-.46l1,.43h3.4l.62-.73a.41.41,0,0,1,.57-.05c.78.59,1.19,1,1.19,1.24A.34.34,0,0,1,547.42,459.3Zm4.83,13.17a36,36,0,0,1-5.13.22,17.85,17.85,0,0,1-4.75-.33,1.67,1.67,0,0,1-.78-1.67v-4.75a.4.4,0,0,1,.46-.43c1.35.11,2,.29,2,.65,0,.18-.32.43-.94.67v3.43c0,.46.19.73.49.81a15.14,15.14,0,0,0,3,.16,34,34,0,0,0,3.86-.13c.73-.14,1.19-1.14,1.35-3,0-.3.22-.49.46-.44a.39.39,0,0,1,.27.38,9.92,9.92,0,0,0,.16,2.22.82.82,0,0,0,.54.53c.25.09.41.25.36.49A1.56,1.56,0,0,1,552.25,472.47Zm-6.83-10.28v-3h-3.69v3ZM553.58,452a.8.8,0,0,1-.79-.65,3.6,3.6,0,0,0-1.29-1.67c-.19-.16-.27-.35-.16-.49a.4.4,0,0,1,.4-.16c1.81.46,2.73,1.19,2.73,2.11A.78.78,0,0,1,553.58,452Zm3.86,19.44c-.44,0-.76-.33-1-1a11.46,11.46,0,0,0-3.35-4.26.36.36,0,0,1-.11-.51.4.4,0,0,1,.49-.14c3.29,1.59,4.94,3.19,4.94,4.78C558.41,471.07,558.08,471.45,557.44,471.45Z"/><path class="cls-2" d="M569.68,454.87a.41.41,0,0,1-.32.19h-7.75a.39.39,0,0,1-.38-.27c-.05-.21.16-.4.49-.4H567l.95-1.16a.4.4,0,0,1,.59-.06c.35.33.73.73,1.13,1.19a.32.32,0,0,1,.06.43Zm-1,3.4a.38.38,0,0,1-.29.17h-5.7a.37.37,0,0,1-.35-.27c-.08-.22.16-.41.51-.41h3.35l.86-1.08c.14-.16.35-.24.46-.13a1.16,1.16,0,0,1,.22.18,11.8,11.8,0,0,1,1,1,.38.38,0,0,1,0,.44Zm0,3.38a.37.37,0,0,1-.3.16h-5.67a.37.37,0,0,1-.35-.27c-.08-.22.16-.41.51-.41h3.35l.84-1.05a.37.37,0,0,1,.59-.05,9.86,9.86,0,0,1,1.08,1.05.36.36,0,0,1,0,.43Zm.05,3.67-.46.3v7a.38.38,0,0,1-.4.41h-.6a.38.38,0,0,1-.4-.41v-1.24H563.8v1.32a.38.38,0,0,1-.41.41h-.62a.38.38,0,0,1-.4-.41v-8.2c0-.38.4-.57.81-.35a6.37,6.37,0,0,1,.83.43h2.65l.57-.76a.45.45,0,0,1,.67,0c.68.67,1,1.1,1,1.24S568.82,465.24,568.71,465.32Zm.16-13.85a.41.41,0,0,1-.32.19H563a.35.35,0,0,1-.35-.24c-.08-.22.16-.43.51-.43h3.18l.84-1.06a.4.4,0,0,1,.62-.05,12.74,12.74,0,0,1,1.08,1.11.32.32,0,0,1,0,.4Zm-2,19.25v-5.46H563.8v5.46Zm11-9a15.75,15.75,0,0,1-1.32,2.27v6.91A1.64,1.64,0,0,1,575,472.8c-.22,0-.41.05-.54.05a.35.35,0,0,1-.38-.27c-.22-.46-.89-.84-2.05-1.08a.39.39,0,0,1-.33-.38c0-.21.22-.35.49-.32a16.19,16.19,0,0,0,2.1.13.71.71,0,0,0,.81-.78V465.7a23.59,23.59,0,0,1-5.8,4.86.41.41,0,0,1-.54-.14.36.36,0,0,1,.16-.51,23.49,23.49,0,0,0,6.18-6.24,36.06,36.06,0,0,1-4.67,1.7c-.13.62-.29.92-.45.92s-.54-.57-.9-1.7a.43.43,0,0,1,.36-.57c.27,0,.54-.08.86-.11V452.09a.46.46,0,0,1,.67-.46c.25.14.52.27.79.43h.56a26.33,26.33,0,0,0,.44-2.94.39.39,0,0,1,.45-.38c1.35.17,2,.41,2,.76,0,.16-.3.35-.92.54l-.19.35a14.7,14.7,0,0,1-1,1.67H575l.67-.8a.38.38,0,0,1,.57-.06c.75.6,1.13,1,1.13,1.22s-.08.18-.21.29l-.68.44v9a14.83,14.83,0,0,0,.54-1.41.45.45,0,0,1,.76-.21c.46.4.67.73.67,1S578.27,461.73,577.83,461.73Zm-2.7-6.1v-2.89h-3.4v2.89Zm0,3.78V456.3h-3.4v3.11Zm0,.67h-3.4v3.59c1.3-.24,2.43-.48,3.4-.75Zm10.61-3.61a.39.39,0,0,1-.35.21h-2.21v14.25c0,1.24-.7,1.89-2.08,2a.39.39,0,0,1-.38-.32,1.3,1.3,0,0,0-.78-.81,6.43,6.43,0,0,0-1.59-.38.39.39,0,0,1-.36-.4c0-.19.22-.33.46-.3.89.08,1.65.11,2.32.11a.79.79,0,0,0,.9-.87V456.68h-4.19a.34.34,0,0,1-.32-.24c-.11-.22.16-.43.54-.43h3.89v-6.24a.4.4,0,0,1,.45-.43c1.43.11,2.14.32,2.14.7,0,.22-.35.46-1.08.7V456h.62l.56-1.08a.48.48,0,0,1,.84-.06c.27.38.49.73.7,1.08a.33.33,0,0,1,0,.33Zm-5.86,9.17c-.45,0-.7-.4-.7-1.24A13.82,13.82,0,0,0,578,459a.39.39,0,0,1,.13-.49.43.43,0,0,1,.52.16,10.09,10.09,0,0,1,2.18,5.65C580.8,465.18,580.51,465.64,579.88,465.64Z"/><path class="cls-2" d="M608,467.91a13.1,13.1,0,0,1-6.54,3,.29.29,0,0,1-.16,0,.53.53,0,0,1-.59-.54c0-.27.21-.54.65-.62a13.05,13.05,0,0,0,5.69-3,7.5,7.5,0,0,0,2.65-6.24v-.78a6.79,6.79,0,0,0-5.73-6.34,14.26,14.26,0,0,0-2.43-.22,10.46,10.46,0,0,0-1.24.08,3.8,3.8,0,0,1,.87,2.38,4.36,4.36,0,0,1-.38,1.7,32.49,32.49,0,0,1-5.16,8.64,3.94,3.94,0,0,1-2.83,1.59,2.86,2.86,0,0,1-2.3-1.38,5.64,5.64,0,0,1-.83-3.18,10.49,10.49,0,0,1,1.91-6,12.32,12.32,0,0,1,8-4.91,12.1,12.1,0,0,1,2.32-.22c3.1,0,6.67,1.11,8.42,4.65a9.5,9.5,0,0,1,1.05,4.29A9.14,9.14,0,0,1,608,467.91Zm-8.75-14.41a12.46,12.46,0,0,0-4.67,2.32,8.42,8.42,0,0,0-3.4,6.83,7.23,7.23,0,0,0,.16,1.64c.27,1.16.84,1.81,1.54,1.81a2.23,2.23,0,0,0,1.62-1.05,44.73,44.73,0,0,0,4.91-7.86,4.81,4.81,0,0,0,.43-1.94A2.46,2.46,0,0,0,599.23,453.5Z"/><path class="cls-2" d="M637.31,453a.37.37,0,0,1-.3.16H622a22.86,22.86,0,0,1-5.43,6.45.38.38,0,0,1-.54-.05c-.13-.14-.1-.35.06-.54a27.15,27.15,0,0,0,6-10,.37.37,0,0,1,.46-.25c1.43.33,2.16.68,2.16,1s-.43.4-1.3.54c-.24.56-.56,1.27-1,2.16h12l1-1.38a.42.42,0,0,1,.65-.05c.49.46.92.94,1.3,1.37a.37.37,0,0,1,0,.46Zm-7.42,18.27a1.06,1.06,0,0,1-.76-.43,25.89,25.89,0,0,0-3.67-3.53,27.23,27.23,0,0,1-8.31,5.1.38.38,0,0,1-.44-.14c-.13-.19,0-.43.25-.56a26.24,26.24,0,0,0,7.34-5.35,45.41,45.41,0,0,0-5-3.35.39.39,0,0,1-.16-.59.36.36,0,0,1,.46,0c2,1,3.89,2,5.62,3a24.18,24.18,0,0,0,2.8-3.89.42.42,0,0,1,.54-.16c1.19.59,1.78,1.05,1.78,1.35s-.43.35-1.26.35c-.76,1-1.65,2.05-2.65,3.16q4.22,3,4.21,4.21C630.64,471,630.37,471.28,629.89,471.28Zm8.53,1.46c-.87,0-1.81-.67-2.81-2-2-2.61-3-6.23-3-10.77H618.66a.35.35,0,0,1-.33-.24c-.1-.21.17-.43.54-.43h13.45l.86-1a.4.4,0,0,1,.57-.06c.86.68,1.32,1.16,1.32,1.41a.55.55,0,0,1-.3.38l-.62.37a15.46,15.46,0,0,0,2.27,8.53c.4.62.65.92.78.92.38,0,.73-1.43,1-4.32a.47.47,0,0,1,.68-.4.29.29,0,0,1,.08.29c-.14,1.84-.22,3.13-.22,3.89a2.58,2.58,0,0,0,.6,2.05.45.45,0,0,1,.19.41A1.15,1.15,0,0,1,638.42,472.74Zm-2.73-16.41a.37.37,0,0,1-.3.16H622a.39.39,0,0,1-.35-.21c-.11-.25.16-.46.51-.46h10.77l1-1.22a.42.42,0,0,1,.62,0c.46.45.89.83,1.22,1.18a.38.38,0,0,1,0,.46Z"/><path class="cls-2" d="M651.55,455.3a.38.38,0,0,1-.29.17H647.5v5.72c.87-.3,2.06-.73,3.51-1.35a.41.41,0,0,1,.6.3c0,.1-.06.24-.22.35-1.37.73-2.67,1.37-3.89,1.94v8.5a1.92,1.92,0,0,1-2.07,2.08c-.22,0-.36-.13-.41-.35a1.22,1.22,0,0,0-.73-.78,9.76,9.76,0,0,0-1.43-.41.37.37,0,0,1-.32-.37.4.4,0,0,1,.48-.36,18,18,0,0,0,2.11.17c.57,0,.86-.27.86-.81v-7c-.27.11-.62.27-1.1.46l-1,.41c-.11.72-.27,1.1-.49,1.1s-.67-.62-1.11-1.89a.4.4,0,0,1,.3-.56c1-.25,2.11-.57,3.4-1v-6.2h-3.24a.35.35,0,0,1-.35-.25c-.08-.21.16-.43.52-.43H646v-5.45a.43.43,0,0,1,.46-.43c1.51,0,2.27.27,2.27.65s-.41.48-1.22.75v4.48h1.3l1-1.4a.43.43,0,0,1,.7,0c.44.49.79.95,1.14,1.4a.42.42,0,0,1,0,.41Zm15,3a.41.41,0,0,1-.32.19H650.37a.38.38,0,0,1-.33-.22c-.11-.24.16-.46.54-.46h6.29v-4.18H652a.38.38,0,0,1-.32-.22c-.11-.24.16-.46.54-.46h4.67v-3.75a.4.4,0,0,1,.46-.4c1.48.1,2.21.32,2.21.67s-.37.49-1.13.73V453h3.32l1.11-1.43a.42.42,0,0,1,.64,0,18,18,0,0,1,1.25,1.43.33.33,0,0,1,0,.4l0,.11a.41.41,0,0,1-.33.19h-6v4.18h5.1l1.11-1.46c.16-.21.4-.29.51-.19a1.08,1.08,0,0,0,.19.22,14.18,14.18,0,0,1,1.24,1.4.38.38,0,0,1,.06.41Zm-.27,4.51a.42.42,0,0,1-.32.18h-3.92v7.75c0,1.3-.83,2-2.51,2.08a.4.4,0,0,1-.37-.3,1.49,1.49,0,0,0-1-.78,14.24,14.24,0,0,0-2.51-.49.38.38,0,0,1-.35-.4c0-.22.22-.35.49-.32a32.92,32.92,0,0,0,3.67.18c.62,0,1-.27,1-.78V463h-9.82a.43.43,0,0,1-.33-.18c-.11-.25.16-.49.54-.49h9.61v-3.13a.43.43,0,0,1,.54-.41c1.4.3,2.08.6,2.08.95,0,.19-.35.38-1,.51v2.08h1.41l1-1.35a.41.41,0,0,1,.65-.05l0,.05a13.6,13.6,0,0,1,1.16,1.27.32.32,0,0,1,0,.4Zm-10.85,5.83a.77.77,0,0,1-.81-.65,8.45,8.45,0,0,0-2.32-3.73.35.35,0,0,1-.08-.48.35.35,0,0,1,.48-.08c2.49,1.26,3.73,2.56,3.73,3.88C656.44,468.32,656.11,468.67,655.44,468.67Z"/><path class="cls-2" d="M683.94,471.07a11.33,11.33,0,0,1-3,.38,8.41,8.41,0,0,1-3.13-.52.44.44,0,0,1-.35-.4c0-.22.22-.41.54-.41l.19,0a15.75,15.75,0,0,0,2.4.27,13.3,13.3,0,0,0,3.49-.51c2.88-.81,4.56-2.46,4.56-4.67s-1.76-3.24-4.75-3.24-5.43,1.67-7.53,3.48a.86.86,0,0,1-.6.24c-.4,0-.78-.32-.78-1v-.13a62.1,62.1,0,0,1,.54-6.27c0-.29.11-.75.19-1.35h-.11a5.39,5.39,0,0,1-4.4-2.05.38.38,0,0,1-.08-.24.45.45,0,0,1,.84-.24,3.65,3.65,0,0,0,3.1,1.16,2.53,2.53,0,0,0,.46,0,1.67,1.67,0,0,0,.38,0c.27-1.89.62-4.13.78-5,.11-.54.43-.79.75-.79a.8.8,0,0,1,.79.81c.05,2.27,1.16,3.13,2.86,3.4a.88.88,0,0,1,.76.84,1,1,0,0,1-.73.92,28.57,28.57,0,0,1-3.89,1.13l-.27,2.05c-.24,1.84-.33,3.19-.38,3.65v.11c0,.27.14.37.33.37a.64.64,0,0,0,.32-.13,12.35,12.35,0,0,1,6.77-2.32c2.24,0,6,1,6,4.75S686.31,470.45,683.94,471.07Zm-5.21-16.41a4.34,4.34,0,0,1-.79-.6.13.13,0,0,0-.1-.05.19.19,0,0,0-.17.21c0,.09-.08.52-.19,1.11a9.84,9.84,0,0,0,1.3-.35c.05,0,.08-.05.08-.14A.26.26,0,0,0,678.73,454.66Z"/><path class="cls-2" d="M712.86,461c-1.08.51-3.26,1.7-4.94,2.75,0,.43,0,.84,0,1.19a15,15,0,0,1-.21,2.53.79.79,0,0,1-.79.68.77.77,0,0,1-.81-.78v-.22a14.67,14.67,0,0,0,.33-2.48c-1.41.94-2.86,2.1-2.86,3.24a1.29,1.29,0,0,0,0,.35c.35,1.32,2.21,1.83,4.56,1.94.49,0,.95,0,1.41,0a32.46,32.46,0,0,0,4.48-.3l.19,0a.79.79,0,0,1,.86.76.85.85,0,0,1-.73.81,25.46,25.46,0,0,1-4,.27c-.46,0-1,0-1.48,0-2.84-.08-5.78-.92-6.35-3.07a3.39,3.39,0,0,1-.08-.68c0-1.86,1.84-3.4,3.43-4.53l.46-.33a1.88,1.88,0,0,1-.05-.43c-.19-1.08-.6-1.78-1.54-1.78a3.74,3.74,0,0,0-1.38.35c-.35.76-.7,1.54-1.11,2.24a1,1,0,0,1-.81.49.74.74,0,0,1-.78-.73,1.24,1.24,0,0,1,.19-.57,44,44,0,0,0,2.78-6.29c.19-.54.35-1.05.51-1.54-.43-.05-.86-.11-1.24-.19-1.73-.4-2.75-1.18-3.16-2.43a.5.5,0,0,1,0-.19.43.43,0,0,1,.43-.43.47.47,0,0,1,.4.27,3.07,3.07,0,0,0,2.6,1.54c.48.08.94.16,1.37.19a21.14,21.14,0,0,0,.54-2.21.71.71,0,0,1,.7-.62,1,1,0,0,1,.84.59,6.07,6.07,0,0,0,2.27,2,1.07,1.07,0,0,1,.65.86c0,.46-.44.84-1.17.84h0c-.65,0-1.7,0-2.78-.08-.25.86-.52,1.83-.81,2.67l-.54,1.51a.29.29,0,0,0,0,.14c0,.16.11.24.33.27a.1.1,0,0,0,.08,0l.48,0a3.71,3.71,0,0,1,.54.06c.87.1,1.73.89,2,2.72,1.7-1,3.76-1.94,4.91-2.56,1.63-.87,1.68-1.65,1.68-2.32a.77.77,0,0,1,.73-.87.83.83,0,0,1,.81.84C715.89,459.27,714,460.49,712.86,461Zm-6.2-7.56a3.2,3.2,0,0,1-.3-.43.1.1,0,0,0-.11-.08s-.08,0-.08.1-.11.41-.16.68h.16a2.43,2.43,0,0,0,.49,0c.08,0,.08,0,.1-.08S706.71,453.55,706.66,453.47Z"/><path class="cls-2" d="M728.84,472.26a3.27,3.27,0,0,1-2.43,1.05A3.31,3.31,0,0,1,725,473a3.16,3.16,0,0,1-1.92-3,3.2,3.2,0,0,1,1.6-2.83,3.24,3.24,0,0,1,1.75-.54,3.34,3.34,0,0,1,1.75.51,3.14,3.14,0,0,1,1.65,2.86A3.38,3.38,0,0,1,728.84,472.26Zm-1-4.3a2.54,2.54,0,0,0-1.4-.46,2.46,2.46,0,0,0-1.78.79,2.27,2.27,0,0,0-.65,1.64,2.54,2.54,0,0,0,.37,1.3,2.3,2.3,0,0,0,2.06,1.13,2.23,2.23,0,0,0,1.56-.59,2.39,2.39,0,0,0-.16-3.81Z"/></g><path class="cls-2" d="M835.88,476.73l1.8,1.17a5,5,0,0,0-2.88,2,4.15,4.15,0,0,0-.6,3.35,4.53,4.53,0,0,0,2,2.85,4.42,4.42,0,0,0,3.39.68,4.25,4.25,0,0,0,2.81-1.92,4.19,4.19,0,0,0,.63-1.54,5.82,5.82,0,0,0,.07-.88,8.43,8.43,0,0,0-.08-1.06l1.84,1.2a6.55,6.55,0,0,1-1,3.23,6.2,6.2,0,0,1-8.6,1.84,6.27,6.27,0,0,1-2.61-3.53,6.09,6.09,0,0,1,.8-5.27A6.19,6.19,0,0,1,835.88,476.73Z"/><path class="cls-2" d="M843.08,479.51a3.75,3.75,0,0,1-1.7-2.52,3.93,3.93,0,0,1,.6-3,4,4,0,0,1,2.55-1.78,4.08,4.08,0,0,1,4.8,3.13,4.1,4.1,0,0,1-.63,3.07,4,4,0,0,1-5.62,1.14Zm1-1.48a2.57,2.57,0,0,0,1.84.47,2.35,2.35,0,0,0,1.81-2.76,2.48,2.48,0,0,0-1.15-1.48,2.43,2.43,0,0,0-1.82-.45,2.34,2.34,0,0,0-1.79,2.75A2.48,2.48,0,0,0,844.09,478Z"/><path class="cls-2" d="M845.91,468.31l4.73.71-3-4.56,5.41.94-2.57-4,1.08-1.65,4.67,7.81-5.26-.9,2.94,4.46-9-1.13Z"/><path class="cls-2" d="M855.22,454l1-1.48,6.37,4.16-1,1.48-.67-.44a3.39,3.39,0,0,1-2.81,4.08,4.29,4.29,0,0,1-3-.73,4.1,4.1,0,0,1-1.83-2.42,3.28,3.28,0,0,1,.45-2.77,3.23,3.23,0,0,1,2.21-1.4Zm.89,5.56a2.63,2.63,0,0,0,1.81.48,1.9,1.9,0,0,0,1.41-.89,2,2,0,0,0,.3-1.69,2.92,2.92,0,0,0-3-1.93,2,2,0,0,0-1.43.94,2,2,0,0,0-.25,1.65A2.53,2.53,0,0,0,856.11,459.6Z"/><path class="cls-2" d="M857.4,450.7l1-1.47.57.37a3.3,3.3,0,0,1-.11-1.1,2,2,0,0,1,.33-.86,2.87,2.87,0,0,1,1.17-1l.91,1.55a1.7,1.7,0,0,0-.83.62c-.53.8-.18,1.6,1,2.39l3.3,2.16-1,1.47Z"/><path class="cls-2" d="M859.06,437.94l1-1.48,11.05,7.21-1,1.48-.67-.43a3.25,3.25,0,0,1-.43,2.52,3.36,3.36,0,0,1-2.38,1.55,4.24,4.24,0,0,1-3-.73,4.07,4.07,0,0,1-1.82-2.41,3.27,3.27,0,0,1,2.66-4.17Zm5.56,8.61a2.7,2.7,0,0,0,1.82.49,2,2,0,0,0,1.41-.89,2.07,2.07,0,0,0,.3-1.69,2.89,2.89,0,0,0-3-1.93,2,2,0,0,0-1.42.94,1.9,1.9,0,0,0-.26,1.64A2.53,2.53,0,0,0,864.62,446.55Z"/><path class="cls-2" d="M862.2,433.13l11,7.21-1,1.47-11-7.21Z"/><path class="cls-2" d="M874.59,435.7l-7.06-.52,1.12-1.71,4.93.44-2.47-4.21,1.08-1.66,6.53,11.5-1.1,1.68Z"/><path class="cls-2" d="M872.32,419.69l8.47,1.78L875.34,414l9,2.1-4.93-7.2,1.08-1.66,7.8,11.53-8.86-2.08,5.4,7.39-13.55-2.72Z"/><path class="cls-2" d="M882,407.19a1.12,1.12,0,0,1-.49-.72,1.15,1.15,0,0,1,.89-1.36,1.14,1.14,0,0,1,.86.16,1.13,1.13,0,0,1,.49.73,1.06,1.06,0,0,1-.16.86,1.08,1.08,0,0,1-.72.49A1.12,1.12,0,0,1,882,407.19Zm3.75,0,6.38,4.16-1,1.47-6.38-4.16Z"/><path class="cls-2" d="M889.36,404.73l5,3.27-1,1.47-5-3.26-.41.62-1.37-.89.41-.63-2.34-1.53,1-1.47,2.34,1.53.75-1.15,1.37.9Z"/><path class="cls-2" d="M892.89,396.91l2,1.28a4.18,4.18,0,0,0-1.43.35,2.12,2.12,0,0,0-.84.77,2.17,2.17,0,0,0-.32,1.76,2.45,2.45,0,0,0,1.1,1.5,2.51,2.51,0,0,0,1.82.43,2.17,2.17,0,0,0,1.47-1,2.34,2.34,0,0,0,.38-1.09,4.63,4.63,0,0,0-.26-1.48l1.94,1.27a4.6,4.6,0,0,1-.71,2.09,4.08,4.08,0,0,1-2.57,1.85,3.77,3.77,0,0,1-3-.56,3.84,3.84,0,0,1-1.75-2.58,4,4,0,0,1,.63-3.11A4.43,4.43,0,0,1,892.89,396.91Z"/><path class="cls-2" d="M888.87,392.25l1-1.47,5.21,3.4a3.06,3.06,0,0,1,.42-2.2,2.68,2.68,0,0,1,1.83-1.27,3.41,3.41,0,0,1,2.3.72L903.5,394l-1,1.47L898.77,393a2.18,2.18,0,0,0-1.29-.45,1.25,1.25,0,0,0-.91.65,1.43,1.43,0,0,0-.23,1.4A3.9,3.9,0,0,0,897.8,396l3.08,2-1,1.47Z"/><path class="cls-2" d="M904.49,383.5l4.1,2.67-1,1.53-10.11-6.59,1.13-1.73a8.91,8.91,0,0,1,1.43-1.8,3,3,0,0,1,1.42-.72,3.44,3.44,0,0,1,2.71.53,3.28,3.28,0,0,1,1.59,2.37,4.34,4.34,0,0,1-.82,3Zm-1.41-.93.37-.56q1.37-2.1-.25-3.16t-3,1.15l-.32.5Z"/><path class="cls-2" d="M905.76,376.59l1-1.48.57.37a3.27,3.27,0,0,1-.11-1.09,2,2,0,0,1,.33-.87,2.87,2.87,0,0,1,1.17-1l.91,1.55a1.66,1.66,0,0,0-.83.63c-.53.8-.18,1.59,1,2.39l3.31,2.15-1,1.47Z"/><path class="cls-2" d="M912,373.92a3.8,3.8,0,0,1-1.71-2.52,4.17,4.17,0,0,1,3.16-4.82,4.07,4.07,0,0,1,4.79,3.14,4,4,0,0,1-.63,3.06,3.84,3.84,0,0,1-2.55,1.76A3.89,3.89,0,0,1,912,373.92Zm1-1.48a2.6,2.6,0,0,0,1.85.47,2.13,2.13,0,0,0,1.46-1,2.17,2.17,0,0,0,.35-1.75,2.51,2.51,0,0,0-1.15-1.48,2.48,2.48,0,0,0-1.82-.45,2.14,2.14,0,0,0-1.47,1,2.19,2.19,0,0,0-.33,1.74A2.48,2.48,0,0,0,913,372.44Z"/><path class="cls-2" d="M911.49,362a1,1,0,0,1-.48-.71,1.14,1.14,0,0,1,1.74-1.2,1.14,1.14,0,0,1,.34,1.58,1.14,1.14,0,0,1-.73.5A1.12,1.12,0,0,1,911.49,362Zm3.76,0,9.84,6.42-1,1.47-9.84-6.42Z"/><path class="cls-2" d="M923.79,356.68l-3,4.57a2.4,2.4,0,0,0,1.59.31,1.89,1.89,0,0,0,1.21-.86,1.79,1.79,0,0,0,.33-1.08,4.55,4.55,0,0,0-.44-1.44l1.5-.79a5.86,5.86,0,0,1,.45,1.16,4.39,4.39,0,0,1,.13,1.06,3.22,3.22,0,0,1-.19,1,4.61,4.61,0,0,1-.5,1,3.58,3.58,0,0,1-2.41,1.69,4.09,4.09,0,0,1-3-.73,4.21,4.21,0,0,1-1.9-2.44,3.82,3.82,0,0,1,2.89-4.48,4.25,4.25,0,0,1,3,.8Zm-2.2.73a1.67,1.67,0,0,0-2.14.72,1.8,1.8,0,0,0-.25.55,1.68,1.68,0,0,0,0,.59,2,2,0,0,0,.15.57,2.11,2.11,0,0,0,.35.53Z"/><path class="cls-2" d="M924.81,348l2,1.28a4,4,0,0,0-1.43.35,2.05,2.05,0,0,0-.84.77,2.17,2.17,0,0,0-.32,1.76,2.45,2.45,0,0,0,1.1,1.5,2.51,2.51,0,0,0,1.82.43,2.17,2.17,0,0,0,1.47-1A2.34,2.34,0,0,0,929,352a4.63,4.63,0,0,0-.26-1.48l1.94,1.26a4.64,4.64,0,0,1-.71,2.1,4.08,4.08,0,0,1-2.57,1.85,3.77,3.77,0,0,1-3-.56,3.84,3.84,0,0,1-1.75-2.58,4.06,4.06,0,0,1,.63-3.12A4.49,4.49,0,0,1,924.81,348Z"/><path class="cls-2" d="M927.83,345.76l5,3.26-1,1.48-5-3.27-.41.63-1.37-.89.41-.63-2.34-1.53,1-1.47,2.34,1.53.75-1.15,1.37.9Z"/></g></g></g></svg>