<svg xmlns="http://www.w3.org/2000/svg" viewBox="0 0 857.32 191.71"><defs><style>.cls-1{fill:#eddb8d;opacity:0.4;}</style></defs><title>sky</title><g id="レイヤー_2" data-name="レイヤー 2"><g id="page-1"><g id="星"><path class="cls-1" d="M18,15.87l3.92,7.94a1.57,1.57,0,0,0,1.17.85l8.76,1.27a1.56,1.56,0,0,1,.86,2.65l-6.34,6.18a1.55,1.55,0,0,0-.45,1.37l1.5,8.73a1.55,1.55,0,0,1-2.25,1.63l-7.84-4.12a1.59,1.59,0,0,0-1.44,0L8,46.49a1.55,1.55,0,0,1-2.25-1.63l1.5-8.73a1.58,1.58,0,0,0-.45-1.37L.47,28.58a1.56,1.56,0,0,1,.86-2.65l8.76-1.27a1.57,1.57,0,0,0,1.17-.85l3.92-7.94A1.55,1.55,0,0,1,18,15.87Z"/><path class="cls-1" d="M150.89,77.53l2.56,5.18a1,1,0,0,0,.76.56l5.72.83a1,1,0,0,1,.56,1.72l-4.14,4a1,1,0,0,0-.29.89l1,5.69a1,1,0,0,1-1.47,1.07l-5.11-2.69a1.06,1.06,0,0,0-1,0l-5.11,2.69a1,1,0,0,1-1.47-1.07l1-5.69a1,1,0,0,0-.29-.89l-4.14-4A1,1,0,0,1,140,84.1l5.72-.83a1,1,0,0,0,.76-.56l2.56-5.18A1,1,0,0,1,150.89,77.53Z"/><path class="cls-1" d="M52.74,93.32l2.18,4.43a.89.89,0,0,0,.66.48l4.89.71a.86.86,0,0,1,.48,1.47l-3.54,3.45a.85.85,0,0,0-.25.77L58,109.5a.87.87,0,0,1-1.25.92l-4.38-2.3a.83.83,0,0,0-.81,0l-4.37,2.3a.87.87,0,0,1-1.26-.92l.84-4.87a.88.88,0,0,0-.25-.77L43,100.41a.86.86,0,0,1,.48-1.47l4.89-.71a.87.87,0,0,0,.65-.48l2.19-4.43A.87.87,0,0,1,52.74,93.32Z"/><path class="cls-1" d="M290.17,5.39l2.19,4.43a.87.87,0,0,0,.65.48l4.89.71a.86.86,0,0,1,.48,1.47l-3.54,3.45a.88.88,0,0,0-.25.77l.84,4.87a.87.87,0,0,1-1.26.92l-4.38-2.3a.81.81,0,0,0-.8,0l-4.38,2.3a.86.86,0,0,1-1.25-.92l.83-4.87a.85.85,0,0,0-.25-.77l-3.54-3.45a.86.86,0,0,1,.48-1.47l4.89-.71a.89.89,0,0,0,.66-.48l2.18-4.43A.87.87,0,0,1,290.17,5.39Z"/><path class="cls-1" d="M524.47,37.45l2.19,4.43a.87.87,0,0,0,.65.48l4.89.71a.86.86,0,0,1,.48,1.47L529.14,48a.88.88,0,0,0-.25.77l.84,4.87a.87.87,0,0,1-1.26.92l-4.37-2.3a.83.83,0,0,0-.81,0l-4.38,2.3a.87.87,0,0,1-1.25-.92l.83-4.87a.85.85,0,0,0-.25-.77l-3.54-3.45a.86.86,0,0,1,.48-1.47l4.89-.71a.89.89,0,0,0,.66-.48l2.18-4.43A.87.87,0,0,1,524.47,37.45Z"/><path class="cls-1" d="M256.08,139.94l2.56,5.18a1,1,0,0,0,.76.55l5.72.83a1,1,0,0,1,.56,1.73l-4.14,4a1,1,0,0,0-.29.9l1,5.69a1,1,0,0,1-1.47,1.07l-5.11-2.69a1.06,1.06,0,0,0-1,0l-5.11,2.69a1,1,0,0,1-1.47-1.07l1-5.69a1,1,0,0,0-.29-.9l-4.14-4a1,1,0,0,1,.56-1.73l5.72-.83a1,1,0,0,0,.76-.55l2.56-5.18A1,1,0,0,1,256.08,139.94Z"/><path class="cls-1" d="M413.35,65l2.19,4.43a.85.85,0,0,0,.65.48l4.89.71a.87.87,0,0,1,.48,1.48L418,75.59a.86.86,0,0,0-.25.76l.84,4.87a.87.87,0,0,1-1.26.92L413,79.84a.89.89,0,0,0-.81,0l-4.38,2.3a.86.86,0,0,1-1.25-.92l.83-4.87a.84.84,0,0,0-.25-.76l-3.54-3.45a.87.87,0,0,1,.48-1.48L409,70a.87.87,0,0,0,.66-.48L411.79,65A.87.87,0,0,1,413.35,65Z"/><path class="cls-1" d="M517.05,126.77,521,134.7a1.56,1.56,0,0,0,1.17.85l8.76,1.28a1.55,1.55,0,0,1,.86,2.65l-6.34,6.17A1.56,1.56,0,0,0,525,147l1.49,8.72a1.55,1.55,0,0,1-2.25,1.64l-7.83-4.12a1.55,1.55,0,0,0-1.45,0l-7.83,4.12a1.56,1.56,0,0,1-2.26-1.64l1.5-8.72a1.54,1.54,0,0,0-.45-1.38l-6.34-6.17a1.55,1.55,0,0,1,.86-2.65l8.76-1.28a1.53,1.53,0,0,0,1.17-.85l3.92-7.93A1.55,1.55,0,0,1,517.05,126.77Z"/><path class="cls-1" d="M639.91.56l2.56,5.18a1,1,0,0,0,.76.56l5.72.83a1,1,0,0,1,.56,1.73l-4.14,4a1,1,0,0,0-.29.89l1,5.69a1,1,0,0,1-1.47,1.07l-5.11-2.68a1,1,0,0,0-1,0l-5.11,2.68A1,1,0,0,1,632,19.47l1-5.69a1,1,0,0,0-.29-.89l-4.14-4a1,1,0,0,1,.56-1.73l5.72-.83a1,1,0,0,0,.76-.56L638.1.56A1,1,0,0,1,639.91.56Z"/><path class="cls-1" d="M661.08,145.77l2.18,4.43a.88.88,0,0,0,.66.47l4.89.71a.87.87,0,0,1,.48,1.48l-3.54,3.45a.85.85,0,0,0-.25.77l.83,4.87a.86.86,0,0,1-1.25.91l-4.38-2.3a.89.89,0,0,0-.81,0l-4.37,2.3a.86.86,0,0,1-1.26-.91l.84-4.87a.88.88,0,0,0-.25-.77l-3.54-3.45a.87.87,0,0,1,.48-1.48l4.89-.71a.86.86,0,0,0,.65-.47l2.19-4.43A.87.87,0,0,1,661.08,145.77Z"/><path class="cls-1" d="M771.2,57.31l3.91,7.94a1.58,1.58,0,0,0,1.17.85L785,67.37A1.55,1.55,0,0,1,785.9,70l-6.34,6.18a1.54,1.54,0,0,0-.44,1.37l1.49,8.72a1.55,1.55,0,0,1-2.25,1.64l-7.83-4.12a1.61,1.61,0,0,0-1.45,0l-7.83,4.12A1.56,1.56,0,0,1,759,86.29l1.5-8.72A1.52,1.52,0,0,0,760,76.2L753.7,70a1.55,1.55,0,0,1,.87-2.65l8.75-1.27a1.55,1.55,0,0,0,1.17-.85l3.92-7.94A1.56,1.56,0,0,1,771.2,57.31Z"/><path class="cls-1" d="M848.85,174.51l2.18,4.43a.86.86,0,0,0,.65.47l4.9.71a.87.87,0,0,1,.48,1.48l-3.54,3.45a.85.85,0,0,0-.25.77l.83,4.87a.86.86,0,0,1-1.25.91l-4.38-2.3a.89.89,0,0,0-.81,0l-4.37,2.3a.86.86,0,0,1-1.26-.91l.84-4.87a.88.88,0,0,0-.25-.77l-3.54-3.45a.87.87,0,0,1,.48-1.48l4.89-.71a.84.84,0,0,0,.65-.47l2.19-4.43A.87.87,0,0,1,848.85,174.51Z"/></g></g></g></svg>