<svg xmlns="http://www.w3.org/2000/svg" viewBox="0 0 812.78 503.65"><defs><style>.cls-1{fill:#ce9740;}.cls-2{fill:#283c5f;opacity:0.8;}.cls-3{fill:#fff;}</style></defs><title>thumb</title><g id="レイヤー_2" data-name="レイヤー 2"><g id="page-4"><g id="movie"><rect class="cls-1" width="812.78" height="503.65"/><path class="cls-2" d="M504.33,41.56A240.63,240.63,0,0,0,329.65,14.17a193.25,193.25,0,0,1,90.08,26.52C512.18,94.91,543.16,213.8,489,306.24S315.84,429.67,223.39,375.46a193.21,193.21,0,0,1-80.22-91A241,241,0,0,0,260,458.16C375,525.63,523,487.07,590.46,372S619.37,109,504.33,41.56Z"/><path class="cls-3" d="M71.68,240.19c-.7-.7-3.5-.77-4.55-.77s-2.38.14-3.57.14c-2.45,0-4.27-.7-4.27-3.43,0-2.94.14-6.86,3.85-7.21a36.63,36.63,0,0,1,3.92-.07,10.89,10.89,0,0,0,4.48-.63c2.87-1.12.77-5.95,4.41-6.44a31.51,31.51,0,0,1,4.48-.21,38.16,38.16,0,0,1,4.9.07c2.24.28,2,2.17,2,3.92,0,2.73,4.55,2.8,6.44,2.8,1.61,0,3.22-.21,4.83-.21,6.44,0,11-.35,11,7.63,0,3.78-7.7,3.78-10.29,3.78s-5-.28-7.42-.28c-1.61,0-5.67-.42-5.67,2.1s2.94,2.73,4.76,2.73a23,23,0,0,0,3.15-.21H94a11.26,11.26,0,0,1,2.17-.07c3.92,0,8,0,8,5.11,0,4.62-1.68,6.37-6.3,6.37-2.1,0-4.13-.28-6.16-.28-3.15,0-6.37-.07-6.37,4,0,7.77.49,8.54,8.75,8.54,4.48,0,9.31-.35,9-4.83.14-1.54.21-3.22.21-4.69.63-4.13,9.38-2.94,11.2-2.94,4.34,0,4.27,4.34,4.27,7.56,0,14.29-8.54,17.58-25.9,17.72-14.35.14-23.38-1.33-23.38-13.73,0-7.07,1.61-10.92.35-11.41h.07a20.9,20.9,0,0,0-3-.28c-1.4,0-2.8.14-4.27.14-5.18,0-6.09-1.61-6.09-6.51,0-3.64,3.36-4.41,6.37-4.41,1.33,0,2.73.07,4.06.07,3.22,0,4.62-.63,4.62-4.06Z"/><path class="cls-3" d="M172.27,273.59c-1.54.84-14.77,7.91-19.81,7.91-6.72,0-10.36-3.92-10.36-10.58a4.16,4.16,0,0,1,1.4-2c1.4-1,6.93-1.89,8.89-2.31,5.39-1.12,18.48-3.5,18.48-10.71,0-4.34-6-4.27-9-4.27-9.31,0-18.34,2.94-27.65,2.94-4.13,0-5.46-4.2-5.46-7.63,0-5.46,28.77-7.49,33.39-7.49,9.45,0,23.8,3.15,23.8,15.12C185.92,264,179.9,269.32,172.27,273.59Zm-3.22-37.67c-5.18,0-24.64-.63-28.42-2.87a3.53,3.53,0,0,1-1.61-2.94c0-7.07,4.27-7.14,10-7.14,4.13,0,20.79.49,23.66,2.45,2.1,1.4,2.52,3.85,2.52,6.23C175.21,235.64,172.34,235.92,169.05,235.92Z"/><path class="cls-3" d="M223.3,257.69c-3.29.84-7.14,2.31-9.94,2.38-2.38.07-9.87-2.52-9.87-5.53,0-3.85,4.62-9.17,4.62-12.6,0-2-1.47-2.38-3.15-2.38-.91,0-1.89.21-2.8.21-2.66,0-4.55-.91-4.55-3.85,0-10.78,6.37-5.88,12.95-7.91,3.08-1,1.89-3.85,3.5-5.74s6.58-1.54,8.75-1.54c3.57,0,4,1.89,4,5,0,.91,1,1.33,1.75,1.54,3.29,1,7.84.91,11.27.91,2,0,3.92-.07,5.88-.07,3.15,0,6.65.42,9.17,2.38,1.68,1.26,1.89,3.5,1.89,5.46a6.9,6.9,0,0,1-.14,1.19c-.63,2.8-12.53,2.59-15,2.59-3.71,0-7.49-.21-11.2-.21-2.31,0-5.74-.07-7.21,2v-.07c-.42,1.05-1.68,2-.91,3.29,2.38,1.4,6.58-.63,9.87-.63,10.15,0,21.35,4,21.35,15.89a15.14,15.14,0,0,1-2.66,9c-3.71,5.26-9.66,8.41-15.82,9.88A51,51,0,0,1,222.88,280c-4.13,0-15-.35-15-6.3,0-2.53-.21-7.7,3.15-7.7,4.83,0,10.08,1.46,14.91,1.46,5.25,0,12.67-.63,12.67-7.28,0-3.36-2.59-3.85-5.46-3.85A28.7,28.7,0,0,0,223.3,257.69Z"/><path class="cls-3" d="M319.9,267.35c-.07,2-4.76,8.34-6.93,8.34-1.89,0-6.44-4.2-7.35-4.2-.63,0-.91.42-1.19.91A20.32,20.32,0,0,1,301,277c-3.08,2.87-6.3,3.36-10.36,3.36-8.89,0-17.43-4.76-17.43-14.57,0-8.19,8.4-11.27,15.4-11.27.7,0,1.47.07,2.17.14,1.19-.63,1.26-7,1.26-8.33,0-2.24-.14-4.48-.14-6.72,0-6.09,1.89-7.14,7.63-7.14,6.37,0,3.85,2.38,5.32,6.72v-.07c1,1.4,3,1.33,4.55,1.33s2.94-.07,4.34-.07c4.69,0,6.3,2.8,6.3,7.07,0,3-4.06,3.15-6.23,3.15-2,0-3.85-.28-5.74-.28-3,0-3.22,2.38-3.22,4.76,0,3.29,5.67,5,8.19,6.44C314.86,262.66,320,262.87,319.9,267.35Zm-27.93-2c0-.77-.84-.84-1.47-.84h-1.19c-1.75,0-3.78.28-3.78,2.45a3.6,3.6,0,0,0,3.78,3.92c2.24,0,2.66-1.6,2.66-3.5Z"/><path class="cls-3" d="M368.27,248.66c-7.21,0-13.72,3.36-20.93,3.36-2.59,0-3.92-4.06-4.13-6.23-1-9.59,22.47-8.61,27.58-8.61,11.06,0,21.77,6.79,21.77,18.76,0,15.41-19.11,22.41-32,22.41-6,0-9.1-3.5-8.12-8.13,2.17-10.08,26.18-.35,26.18-14.91C378.63,249.64,372.75,248.66,368.27,248.66Z"/><path class="cls-3" d="M437.15,267.77c7,0,13.65-2.94,20.65-2.94,3.57,0,4.27,4.28,4.27,7.21,0,2.25-.77,4-2.87,5-5,2.24-16.45,3-22,3a39.3,39.3,0,0,1-10.71-1.19c-8.33-2.31-16.38-8.76-16.38-18.07,0-8,8.54-11.69,8.54-19.74a32.05,32.05,0,0,0-.63-6.3,32.16,32.16,0,0,1-.7-6.3c0-4.41,6.93-6,10.36-6,5.95,0,4.2,11.13,7.28,14.28a6.13,6.13,0,0,0,1.89.42c6.65,0,12.67-3.78,19.32-3.78,3.64,0,5.95,3.5,5.95,6.86a7.27,7.27,0,0,1-2.17,5.46c-3,2.66-7.91,2.31-11.34,3.29-5.88,1.68-15.26,3.15-20.58,7.84a6.18,6.18,0,0,0-2.38,4.69C425.67,266.87,433.23,267.77,437.15,267.77Z"/><path class="cls-3" d="M496,228.15c-2.1,0-12.53,12-16.24,12-2.45,0-4.76-4.83-4.76-6.93a3.94,3.94,0,0,1,1.4-2.94l1.26-1c1.61-1.26,9.17-8.12,10.29-8.54a4.81,4.81,0,0,1,1.68-.35c2,0,3.08,1.33,4.62,2.31a16.18,16.18,0,0,0,3.57,1.54,23.17,23.17,0,0,0,6.93.77c2,0,4.34-.56,4.2-3.08,0-.49-.07-1-.07-1.47,0-1,.28-1.54,1.33-1.54,2.31,0,4.69-.07,7.07-.07,1.19,0,3.22,0,3.5,1.61a15.79,15.79,0,0,1,0,1.82c0,1.54,1.47,2.1,2.66,2.52,5.39,1.82,13.86-2.31,13.86,6.79,0,3.15-3.64,3.29-6,3.29-2,0-4.06-.35-6.16-.35-1.19,0-3.36-.14-3.36,1.54,0,2.17,3,2.31,4.62,2.31s3-.21,4.55-.21h4c4.55,0,6,2,6,6.3,0,1.61-.07,3.43-2.24,3.43-.77,0-1.61-.07-2.45-.07a1.81,1.81,0,0,0-2,2c0,1.82,3.92,1.33,5,1.33,1.82,0,1.82,3.5,1.82,4.69,0,2-.21,4.69-2.87,4.69-.35,0-.77-.07-1.19-.07a3.65,3.65,0,0,0-2.1.56c-1.12.91-1.05,4.13-1.05,5.53a30.37,30.37,0,0,1-1.68,10c-1.47,3.57-4.34,5-8,5.39-2.45.21-5,.21-7.49.21-1.4,0-5,.14-5.6-1.54-.35-1.05.21-4.9-1.47-4.9-.84,0-.77.77-1.54.77-1.54,0-10.85-9.11-10.85-10.65,0-1.82,2.8-2.59,2.8-3.92,0-1.54-3.78-.35-4.76-1.68-.77-1-.84-2.94-.84-4.2a9.4,9.4,0,0,1,.28-2.45,3,3,0,0,1,1.68-1.68c2-.91,11.2-.84,13.79-.84,2.1,0,4.2.07,6.3.07,1.12,0,4.83,0,4.83-1.61a1.09,1.09,0,0,0-.56-1c-1.75-1-7.63-.77-9.87-.77-2.66,0-14.91-.21-16.45,1.19-1.82,1.61-2.17,5.67-2.17,8,0,6.37.49,12.74.49,19.19,0,2.94-.35,5.81-4.06,5.81-5.81,0-7.91-2-8.19-7.84-.07-2.31-.28-4.55-.28-6.87,0-.7-.21-4.9-1-4.9a4.76,4.76,0,0,0-3,1.61c-1.61,0-3.15-8.75-3.15-10.22,0-1.75,5.53-6.65,6.86-7.77a71.37,71.37,0,0,0,5.74-5.53c.7-.77,2.24-2.87,3-3.29a3.66,3.66,0,0,1,1.47-.49c1.61,0,3.29,1,4.9,1.4a30.46,30.46,0,0,0,6.23.35c1.19,0,7.91-.07,7.91-1.75,0-2.24-1.82-2.52-3.71-2.52-1.61,0-3.29.35-5,.35-1.89,0-4-.42-4-2.66,0-1,.07-1.89.07-2.87Zm13,33.67c0,3.43,5.74,5.05,5.74,8.05a3.07,3.07,0,0,1-1.12,2c0,.5,2.38.57,2.73.57,5.46,0,4.69-2.39,4.69-6.94,0-4.13-1.61-4.48-5.39-4.48-.84,0-1.75-.07-2.59-.07C512.4,260.91,509,261,509,261.82Z"/><path class="cls-3" d="M578.27,248.66c-7.21,0-13.72,3.36-20.93,3.36-2.59,0-3.92-4.06-4.13-6.23-1-9.59,22.47-8.61,27.58-8.61,11.06,0,21.77,6.79,21.77,18.76,0,15.41-19.11,22.41-32,22.41-6,0-9.1-3.5-8.12-8.13,2.17-10.08,26.18-.35,26.18-14.91C588.63,249.64,582.75,248.66,578.27,248.66Z"/><path class="cls-3" d="M646.38,254.33c-1,7.91,4.83,11.06,12.32,11.06,2,0,5.39-.42,7.42-.42,3.5,0,3.78,3.5,3.78,6.38,0,8.19-6.16,7.91-12.39,7.91-13.09,0-27.3-9-27.3-23.32,0-5.81,2-10.29,6.44-13.72,3.15-2.45.42-3.78-.14-3.78-4.55,0-9.1.28-13.58.28-2.73,0-5.39-.49-5.39-3.78a8.22,8.22,0,0,1,2.94-6.37c3.78-2.94,31.78-2.8,37.66-2.8,2.24,0,4.48-.07,6.72-.07,3.43,0,7.42.56,10.08,2.94a6,6,0,0,1,2,5.53C674.52,245.37,648.76,235.71,646.38,254.33Z"/><path class="cls-3" d="M689.85,240.82c-2.73,0-4.2-.56-4.2-3.5,0-9.94,8.89-4.76,11.34-7.21,1.19-1.12,1-2.73,1-4.27,0-3.92,4.83-4.34,7.7-4.34,3.29,0,5,1.33,5,4.76,0,1.33-.07,2.66-.07,4,0,.28.14,2,.56,2a9.35,9.35,0,0,0,2.73-.77c4.27-1.75,8.82-4,13.51-4,15.89,0,21,11.48,21,25.62,0,2.73-.77,5.39-.77,8.12s3.08,4.55,3.08,6.16c0,2-4.9,8.69-6.86,8.69-.91,0-2.8-1.75-3.22-2.45-1.54.14-3.64,1.75-5.11,2.52a19.65,19.65,0,0,1-9.31,2.24c-7.77,0-14.63-5.67-14.63-13.73,0-9.1,8-13.58,16.24-13.58,1.68,0,3.22.63,4.83.63,1.26,0,1.4-.84,1.4-1.89,0-5-.77-10.22-7-10.22-3.29,0-5.81,1.61-8.4,3.5-1.47,1.05-2.87,2-4.27,3.15-4.41,3.5-4.13,10.15-4.13,15.26,0,3.92.28,7.78.28,11.7,0,5.88-.84,7-6.86,7-9.17,0-4.27-11.83-7-16.95-1.68,1.12-2.66,2.87-4.9,2.87-1.89-.77-7.56-5-7.56-7.14,0-4.2,13-12.11,13-17.22C694.75,240.75,692.37,240.82,689.85,240.82Zm42.49,24.85.63-1.54c0-1.89-2.73-2.94-4.34-2.94-2,0-4.55.77-4.55,3.22a3.3,3.3,0,0,0,3.22,3.43C728.7,267.84,731.29,267.56,732.34,265.67Z"/><path class="cls-3" d="M767.48,259.3c6,0,12.25,5.25,12.25,11.49s-6.16,11.55-12.25,11.55S755.3,277,755.3,270.79,761.46,259.3,767.48,259.3Zm0,15.2a3.92,3.92,0,0,0,4-3.64,3.84,3.84,0,0,0-4-3.72,4.15,4.15,0,0,0-4,3.72C763.49,272.75,765.66,274.5,767.48,274.5Z"/></g></g></g></svg>