<svg xmlns="http://www.w3.org/2000/svg" viewBox="0 0 640.93 325.7"><defs><style>.cls-1,.cls-2{fill:#fff;}.cls-1{opacity:0.2;}.cls-3{fill:none;stroke:#fff;stroke-miterlimit:10;stroke-width:2px;}</style></defs><title>アセット 8</title><g id="レイヤー_2" data-name="レイヤー 2"><g id="page-4"><g id="タイトル"><path class="cls-1" d="M360.82,22.39A162.3,162.3,0,0,0,243,3.92,130.85,130.85,0,1,1,117.29,186.16,162.83,162.83,0,1,0,360.82,22.39Z"/><g id="サブタイトル"><path class="cls-2" d="M179.13,203.49v4a9.46,9.46,0,0,0-6.12-2.48,7.82,7.82,0,0,0-5.88,2.51,8.44,8.44,0,0,0-2.4,6.09,8.24,8.24,0,0,0,2.4,6A8,8,0,0,0,173,222.1a7.23,7.23,0,0,0,3.06-.58,9.18,9.18,0,0,0,1.46-.79,17.47,17.47,0,0,0,1.59-1.2v4.11A12.25,12.25,0,0,1,173,225.3a11.36,11.36,0,0,1-8.28-3.39,11.23,11.23,0,0,1-3.41-8.23,11.57,11.57,0,0,1,2.86-7.7,11.34,11.34,0,0,1,9.09-4.15A11.49,11.49,0,0,1,179.13,203.49Z"/><path class="cls-2" d="M182.13,217.65a7.09,7.09,0,0,1,2.22-5.26,7.79,7.79,0,0,1,10.81,0,7.26,7.26,0,0,1,2.19,5.36,7.18,7.18,0,0,1-2.21,5.37,7.53,7.53,0,0,1-5.46,2.16,7.25,7.25,0,0,1-5.38-2.2A7.4,7.4,0,0,1,182.13,217.65Zm3.37.06a4.76,4.76,0,0,0,1.15,3.38,4.44,4.44,0,0,0,6.18,0,5.38,5.38,0,0,0,0-6.65,4.39,4.39,0,0,0-6.16,0A4.58,4.58,0,0,0,185.5,217.71Z"/><path class="cls-2" d="M202.63,210.62l3.73,8.14,4-9.44,4.06,9.44,3.69-8.14h3.69L214.36,226l-4-9.19-4,9.19-7.46-15.34Z"/><path class="cls-2" d="M234.58,210.62h3.31v14.27h-3.31v-1.5a6.33,6.33,0,0,1-9.28-.23,8,8,0,0,1-1.92-5.45,7.72,7.72,0,0,1,1.92-5.35,6.21,6.21,0,0,1,4.81-2.14,6.08,6.08,0,0,1,4.47,2.06Zm-7.83,7.09a5,5,0,0,0,1.1,3.34,3.59,3.59,0,0,0,2.84,1.3,3.78,3.78,0,0,0,3-1.26,5.41,5.41,0,0,0,0-6.62,3.72,3.72,0,0,0-2.93-1.27,3.64,3.64,0,0,0-2.84,1.29A4.76,4.76,0,0,0,226.75,217.71Z"/><path class="cls-2" d="M242.05,210.62h3.29v1.27a6.56,6.56,0,0,1,1.61-1.3,3.77,3.77,0,0,1,1.7-.37,5.41,5.41,0,0,1,2.73.85l-1.51,3a3.16,3.16,0,0,0-1.83-.67q-2.7,0-2.7,4.07v7.4h-3.29Z"/><path class="cls-2" d="M263.78,200.15h3.31v24.74h-3.31v-1.5a6.13,6.13,0,0,1-4.41,1.91,6.3,6.3,0,0,1-4.86-2.14,8,8,0,0,1-1.92-5.45,7.67,7.67,0,0,1,1.92-5.33,6.14,6.14,0,0,1,9.27-.1ZM256,217.71a5,5,0,0,0,1.1,3.34,3.59,3.59,0,0,0,2.84,1.3,3.78,3.78,0,0,0,3-1.26,5.41,5.41,0,0,0,0-6.62,3.72,3.72,0,0,0-2.93-1.27,3.64,3.64,0,0,0-2.84,1.29A4.76,4.76,0,0,0,256,217.71Z"/><path class="cls-2" d="M274.55,200.15v24.74h-3.3V200.15Z"/><path class="cls-2" d="M283.22,222.24l-6.41-11.62h3.82l4.36,8.2,4.08-8.2h3.72l-11.37,22h-3.76Z"/><path class="cls-2" d="M306,202.27l5.89,15.12,6.15-16.22L324,217.39l6.25-15.12h3.71l-10.11,24-5.81-16-6.07,16-9.61-24.07Z"/><path class="cls-2" d="M335.61,204.69a2.15,2.15,0,0,1,2.13-2.13,2.08,2.08,0,0,1,1.53.63,2,2,0,0,1,.63,1.51,2.08,2.08,0,0,1-.63,1.53,2,2,0,0,1-1.51.63,2.06,2.06,0,0,1-1.52-.63A2.11,2.11,0,0,1,335.61,204.69Zm3.79,5.93v14.27h-3.3V210.62Z"/><path class="cls-2" d="M347,213.7v11.19h-3.29V213.7h-1.41v-3.08h1.41v-5.23H347v5.23h2.57v3.08Z"/><path class="cls-2" d="M362.88,211.24v4.38a8,8,0,0,0-2-1.89,3.89,3.89,0,0,0-2.07-.53,4.06,4.06,0,0,0-3.09,1.3,4.58,4.58,0,0,0-1.23,3.27,4.65,4.65,0,0,0,1.19,3.29,4,4,0,0,0,3.06,1.29,4.24,4.24,0,0,0,2.1-.51,8.46,8.46,0,0,0,2.06-1.93v4.35a8.71,8.71,0,0,1-4,1,7.7,7.7,0,0,1-5.54-2.14,7.17,7.17,0,0,1-2.23-5.35,7.26,7.26,0,0,1,2.26-5.39,7.65,7.65,0,0,1,5.54-2.2A8.22,8.22,0,0,1,362.88,211.24Z"/><path class="cls-2" d="M366.07,200.15h3.3v11.66a5.66,5.66,0,0,1,3.88-1.59,5,5,0,0,1,3.87,1.57,6.39,6.39,0,0,1,1.23,4.35v8.75h-3.3v-8.44a4.05,4.05,0,0,0-.6-2.48,2.34,2.34,0,0,0-2-.77,2.67,2.67,0,0,0-2.43,1.07,7.3,7.3,0,0,0-.69,3.72v6.9h-3.3Z"/><path class="cls-2" d="M395.83,215.7v9.19h-3.42V202.27h3.87a17.12,17.12,0,0,1,4.29.4,5.71,5.71,0,0,1,2.58,1.49,6.43,6.43,0,0,1,2,4.8,6.22,6.22,0,0,1-2.08,4.93,8.24,8.24,0,0,1-5.61,1.81Zm0-3.16h1.27q4.69,0,4.7-3.62c0-2.33-1.61-3.5-4.85-3.5h-1.12Z"/><path class="cls-2" d="M408,210.62h3.3v1.27a6.38,6.38,0,0,1,1.61-1.3,3.77,3.77,0,0,1,1.7-.37,5.35,5.35,0,0,1,2.72.85l-1.5,3a3.16,3.16,0,0,0-1.84-.67q-2.69,0-2.69,4.07v7.4H408Z"/><path class="cls-2" d="M418.53,217.65a7.12,7.12,0,0,1,2.21-5.26,7.79,7.79,0,0,1,10.81,0,7.63,7.63,0,0,1,0,10.73,7.57,7.57,0,0,1-5.47,2.16,7.22,7.22,0,0,1-5.37-2.2A7.36,7.36,0,0,1,418.53,217.65Zm3.37.06a4.8,4.8,0,0,0,1.14,3.38,4.44,4.44,0,0,0,6.18,0,5.35,5.35,0,0,0,0-6.65,4.38,4.38,0,0,0-6.15,0A4.58,4.58,0,0,0,421.9,217.71Z"/><path class="cls-2" d="M436.74,204.69a2.15,2.15,0,0,1,2.14-2.13,2.08,2.08,0,0,1,1.52.63,2,2,0,0,1,.63,1.51,2.08,2.08,0,0,1-.63,1.53,2,2,0,0,1-1.51.63,2.08,2.08,0,0,1-1.52-.63A2.11,2.11,0,0,1,436.74,204.69Zm3.79,5.93v22h-3.29v-22Z"/><path class="cls-2" d="M457.7,218.53H447.48a4.28,4.28,0,0,0,1.14,2.8,3.49,3.49,0,0,0,2.59,1,3.39,3.39,0,0,0,2-.58,8.71,8.71,0,0,0,1.8-2.17l2.78,1.55a11,11,0,0,1-1.36,1.88,6.82,6.82,0,0,1-1.54,1.29,6,6,0,0,1-1.77.74,8.46,8.46,0,0,1-2.07.24,6.73,6.73,0,0,1-5.12-2.05,7.71,7.71,0,0,1-1.94-5.48,7.91,7.91,0,0,1,1.88-5.48,7.14,7.14,0,0,1,10-.06,7.9,7.9,0,0,1,1.81,5.52Zm-3.38-2.7A3.16,3.16,0,0,0,451,213.2a3.48,3.48,0,0,0-1.13.18,3.22,3.22,0,0,0-1,.53,3.49,3.49,0,0,0-.74.83,3.69,3.69,0,0,0-.46,1.09Z"/><path class="cls-2" d="M472.41,211.24v4.38a8,8,0,0,0-2-1.89,3.89,3.89,0,0,0-2.07-.53,4.06,4.06,0,0,0-3.09,1.3,5.05,5.05,0,0,0,0,6.56,4,4,0,0,0,3.06,1.29,4.18,4.18,0,0,0,2.09-.51,8.29,8.29,0,0,0,2.07-1.93v4.35a8.72,8.72,0,0,1-4,1,7.69,7.69,0,0,1-5.53-2.14,7.13,7.13,0,0,1-2.23-5.35,7.22,7.22,0,0,1,2.26-5.39,7.64,7.64,0,0,1,5.53-2.2A8.23,8.23,0,0,1,472.41,211.24Z"/><path class="cls-2" d="M479,213.7v11.19h-3.3V213.7h-1.4v-3.08h1.4v-5.23H479v5.23h2.56v3.08Z"/><line class="cls-3" x1="148.19" y1="215.01" y2="215.01"/><line class="cls-3" x1="640.93" y1="214.7" x2="492.74" y2="214.7"/></g><path class="cls-2" d="M88,142.36V117.72H98.38v15.75h10.15V112.19h10.92v21.28H129.6V117.72H140v24.64H119.45v19.18h12.88v-14.7H143v27.51H132.33v-3.64H95.65v3.64H85V146.84H95.65v14.7h12.88V142.36Z"/><path class="cls-2" d="M211.86,173.58a100.36,100.36,0,0,1-22.41-19.46V175H178.53V154.05a97.51,97.51,0,0,1-22.4,19.53l-5.25-9.31a104.81,104.81,0,0,0,20.3-15.12H152.77v-8.89h12.39c-1.75-3.78-3.57-7.35-5.46-10.85l6.51-2.8H154.94v-8.68h23.59v-6.37h10.92v6.37h23.6v8.68h-3.92a136.47,136.47,0,0,1-6.31,13.65h12.4v8.89H196.8a104.9,104.9,0,0,0,20.31,15.12Zm-33.33-33.32V126.61h-9c1.75,3.15,3.5,6.93,5.53,11.34l-5.53,2.31Zm10.92-13.65v13.65h8.82L192.81,138c1.75-3.22,3.5-7,5.39-11.34Z"/><path class="cls-2" d="M245.87,163.43V113.38h11.2v17.43h24.58v9.24H257.07v23.38h28.15V173H222.77v-9.52Z"/><path class="cls-2" d="M317.34,169.17l2.52-7.21,6.44,2.24c2.52-6.93,3.71-14.7-.28-19.6a12.15,12.15,0,0,0-5.46-3.78c-5,15.12-9.1,27-11,32.27l-10.85-3.64,10.92-30.24a57.93,57.93,0,0,0-16.17,2.24L291,131.09c8.33-2.31,15.68-3.15,22.26-2.59,1.19-3.64,2.31-7.49,5.18-16.38l10.43,3.15-4.76,15.54a24.71,24.71,0,0,1,10.43,7.28c4.69,5.74,6.79,15-.63,36.61Zm28.28-17.64a25.1,25.1,0,0,0-12-21.77l5.11-8.89a34.6,34.6,0,0,1,17.72,30.66Zm-4-29.89-1.89-9.73,6.87-1.26,1.75,9.73Zm9.6,4.55-1.89-10.43,6.65-1.4,2,10.5Z"/><path class="cls-2" d="M412.47,124.51l-11.9,8.61c15.41,1.75,24,19.32,15.12,31.85-4.48,6.23-11.83,9.17-20.37,9.17s-19.6-3.64-18.62-14.77c.7-7.14,6.37-12.74,13-12.6a15.22,15.22,0,0,1,11.27,5,15.73,15.73,0,0,1,3.43,9.45,9.57,9.57,0,0,0-.91-16c-5-3-10.92-2.66-16.38-2.45L382.86,146,377,138.37l17.64-12.81-25.55,1.82-.84-14.84,7.91-.35.21,4.55,41.45-2.87.69,10.22Zm-18.83,39.34v-.14c.56-3.57-1.12-6.93-4.2-6.16-1.75.42-2.8,3.29-1.4,4.69S392,163.78,393.64,163.85Z"/><path class="cls-2" d="M488.77,139.14v10.43H459.3c.21,5.25,1.26,9.1,3.85,11.34a9.07,9.07,0,0,0,9.17,1.75c2.8-1.12,4.62-3.71,5.25-8.19l10.79,1.33c-1.05,8.4-5.47,14.35-12.19,16.87A20.09,20.09,0,0,1,455.94,169c-5.32-4.62-7.49-11.34-7.63-19.39h-12V139.14h12.88c.28-2,.63-4.2,1.05-6.3H437V122.41h15.61c.28-1,.42-1.89.63-2.87l-3.5-.91,2-7.42,14.14,3.71c-.84,2.87-1.47,5.18-2,7.49h25.91v10.43H461.26c-.49,2.17-.84,4.27-1.19,6.3Z"/><path class="cls-2" d="M541.62,160.42l5.74-5.67,3.22,3.15a19.2,19.2,0,0,0,3-10.08,18.9,18.9,0,0,0-6.86-15.12c-4.2-3.5-10.08-4.9-16.31-3.92a20.24,20.24,0,0,0-13.72,8.47c-3.22,4.83-4.13,11.2-2.17,15.61a6.65,6.65,0,0,0,5.25,4.34c2,.28,4.2-.49,6.3-2.31,3.85-3.29,5.88-9.66,5.67-17.78l11.76-.42c.35,11.55-3.22,21-9.87,26.81a19.73,19.73,0,0,1-15.61,5,17.92,17.92,0,0,1-14.14-11.06c-3.5-7.91-2.17-18.48,3.08-26.46,4.69-7.14,12.6-11.76,21.63-13.3s18.55.7,25.34,6.09A30.11,30.11,0,0,1,565.29,148a28.9,28.9,0,0,1-12.19,23.45Z"/></g></g></g></svg>