<svg xmlns="http://www.w3.org/2000/svg" viewBox="0 0 1324.46 325.7"><defs><style>.cls-1,.cls-2{fill:#fff;}.cls-1{opacity:0.2;}.cls-3{fill:none;stroke:#fff;stroke-miterlimit:10;stroke-width:2px;}</style></defs><title>アセット 7</title><g id="レイヤー_2" data-name="レイヤー 2"><g id="page-3"><g id="タイトル"><path class="cls-1" d="M722.29,22.39A162.28,162.28,0,0,0,604.51,3.92,130.85,130.85,0,1,1,478.77,186.16,162.83,162.83,0,1,0,722.29,22.39Z"/><g id="サブタイトル"><path class="cls-2" d="M540.61,203.49v4a9.46,9.46,0,0,0-6.12-2.48,7.8,7.8,0,0,0-5.88,2.51,8.44,8.44,0,0,0-2.4,6.09,8.24,8.24,0,0,0,2.4,6,7.94,7.94,0,0,0,5.89,2.44,7.23,7.23,0,0,0,3.06-.58,9.18,9.18,0,0,0,1.46-.79,17.47,17.47,0,0,0,1.59-1.2v4.11a12.25,12.25,0,0,1-6.15,1.66,11.34,11.34,0,0,1-8.28-3.39,11.23,11.23,0,0,1-3.41-8.23,11.61,11.61,0,0,1,2.85-7.7,11.37,11.37,0,0,1,9.1-4.15A11.51,11.51,0,0,1,540.61,203.49Z"/><path class="cls-2" d="M543.61,217.65a7.12,7.12,0,0,1,2.21-5.26,7.79,7.79,0,0,1,10.81,0,7.63,7.63,0,0,1,0,10.73,7.54,7.54,0,0,1-5.46,2.16,7.25,7.25,0,0,1-5.38-2.2A7.36,7.36,0,0,1,543.61,217.65Zm3.37.06a4.8,4.8,0,0,0,1.14,3.38,4.46,4.46,0,0,0,6.19,0,5.38,5.38,0,0,0,0-6.65,4.05,4.05,0,0,0-3.1-1.26,4,4,0,0,0-3.06,1.26A4.58,4.58,0,0,0,547,217.71Z"/><path class="cls-2" d="M564.11,210.62l3.73,8.14,4-9.44,4.06,9.44,3.69-8.14h3.69L575.84,226l-4-9.19-4,9.19-7.46-15.34Z"/><path class="cls-2" d="M596.05,210.62h3.31v14.27h-3.31v-1.5a6.32,6.32,0,0,1-9.27-.23,8,8,0,0,1-1.92-5.45,7.72,7.72,0,0,1,1.92-5.35,6.21,6.21,0,0,1,4.81-2.14,6,6,0,0,1,4.46,2.06Zm-7.82,7.09a5,5,0,0,0,1.1,3.34,3.59,3.59,0,0,0,2.84,1.3,3.78,3.78,0,0,0,3-1.26,5.41,5.41,0,0,0,0-6.62,3.72,3.72,0,0,0-2.93-1.27,3.64,3.64,0,0,0-2.84,1.29A4.76,4.76,0,0,0,588.23,217.71Z"/><path class="cls-2" d="M603.52,210.62h3.3v1.27a6.56,6.56,0,0,1,1.61-1.3,3.77,3.77,0,0,1,1.7-.37,5.41,5.41,0,0,1,2.73.85l-1.51,3a3.16,3.16,0,0,0-1.83-.67q-2.7,0-2.7,4.07v7.4h-3.3Z"/><path class="cls-2" d="M625.26,200.15h3.31v24.74h-3.31v-1.5a6.16,6.16,0,0,1-4.41,1.91,6.3,6.3,0,0,1-4.86-2.14,8,8,0,0,1-1.92-5.45,7.67,7.67,0,0,1,1.92-5.33,6.14,6.14,0,0,1,9.27-.1Zm-7.82,17.56a5,5,0,0,0,1.1,3.34,3.59,3.59,0,0,0,2.84,1.3,3.78,3.78,0,0,0,3-1.26,5.41,5.41,0,0,0,0-6.62,3.72,3.72,0,0,0-2.93-1.27,3.64,3.64,0,0,0-2.84,1.29A4.76,4.76,0,0,0,617.44,217.71Z"/><path class="cls-2" d="M636,200.15v24.74h-3.3V200.15Z"/><path class="cls-2" d="M644.7,222.24l-6.41-11.62h3.82l4.36,8.2,4.08-8.2h3.72l-11.37,22h-3.77Z"/><path class="cls-2" d="M667.51,202.27l5.89,15.12,6.15-16.22,5.89,16.22,6.25-15.12h3.71l-10.11,24-5.81-16-6.07,16-9.61-24.07Z"/><path class="cls-2" d="M697.08,204.69a2,2,0,0,1,.63-1.5,2.15,2.15,0,0,1,3,0,2,2,0,0,1,.63,1.51,2.08,2.08,0,0,1-.63,1.53,2,2,0,0,1-1.51.63,2.08,2.08,0,0,1-1.53-.63A2.11,2.11,0,0,1,697.08,204.69Zm3.8,5.93v14.27h-3.3V210.62Z"/><path class="cls-2" d="M708.45,213.7v11.19h-3.29V213.7h-1.41v-3.08h1.41v-5.23h3.29v5.23H711v3.08Z"/><path class="cls-2" d="M724.36,211.24v4.38a8,8,0,0,0-2-1.89,3.89,3.89,0,0,0-2.07-.53,4.06,4.06,0,0,0-3.09,1.3,4.58,4.58,0,0,0-1.23,3.27,4.65,4.65,0,0,0,1.19,3.29,4,4,0,0,0,3.06,1.29,4.18,4.18,0,0,0,2.09-.51,8.29,8.29,0,0,0,2.07-1.93v4.35a8.71,8.71,0,0,1-4,1,7.7,7.7,0,0,1-5.54-2.14,7.13,7.13,0,0,1-2.23-5.35,7.22,7.22,0,0,1,2.26-5.39,7.65,7.65,0,0,1,5.54-2.2A8.22,8.22,0,0,1,724.36,211.24Z"/><path class="cls-2" d="M727.55,200.15h3.3v11.66a5.65,5.65,0,0,1,3.88-1.59,5,5,0,0,1,3.87,1.57,6.39,6.39,0,0,1,1.23,4.35v8.75h-3.3v-8.44a4,4,0,0,0-.61-2.48,2.3,2.3,0,0,0-1.95-.77,2.67,2.67,0,0,0-2.43,1.07,7.3,7.3,0,0,0-.69,3.72v6.9h-3.3Z"/><path class="cls-2" d="M757.3,215.7v9.19h-3.41V202.27h3.87a17.12,17.12,0,0,1,4.29.4,5.71,5.71,0,0,1,2.58,1.49,6.43,6.43,0,0,1,2,4.8,6.22,6.22,0,0,1-2.08,4.93,8.24,8.24,0,0,1-5.61,1.81Zm0-3.16h1.28q4.7,0,4.7-3.62t-4.85-3.5H757.3Z"/><path class="cls-2" d="M769.46,210.62h3.3v1.27a6.38,6.38,0,0,1,1.61-1.3,3.74,3.74,0,0,1,1.7-.37,5.35,5.35,0,0,1,2.72.85l-1.51,3a3.11,3.11,0,0,0-1.83-.67q-2.69,0-2.69,4.07v7.4h-3.3Z"/><path class="cls-2" d="M780,217.65a7.12,7.12,0,0,1,2.21-5.26,7.79,7.79,0,0,1,10.81,0,7.63,7.63,0,0,1,0,10.73,7.57,7.57,0,0,1-5.47,2.16,7.21,7.21,0,0,1-5.37-2.2A7.36,7.36,0,0,1,780,217.65Zm3.37.06a4.8,4.8,0,0,0,1.14,3.38,4.44,4.44,0,0,0,6.18,0,5.35,5.35,0,0,0,0-6.65,4.38,4.38,0,0,0-6.15,0A4.58,4.58,0,0,0,783.38,217.71Z"/><path class="cls-2" d="M798.22,204.69a2.15,2.15,0,0,1,2.14-2.13,2.08,2.08,0,0,1,1.52.63,2,2,0,0,1,.63,1.51,2.08,2.08,0,0,1-.63,1.53,2,2,0,0,1-1.51.63,2.06,2.06,0,0,1-1.52-.63A2.11,2.11,0,0,1,798.22,204.69Zm3.79,5.93v22h-3.3v-22Z"/><path class="cls-2" d="M819.18,218.53H809a4.34,4.34,0,0,0,1.15,2.8,3.47,3.47,0,0,0,2.59,1,3.39,3.39,0,0,0,2-.58,8.71,8.71,0,0,0,1.8-2.17l2.78,1.55A11,11,0,0,1,818,223a6.82,6.82,0,0,1-1.54,1.29,6,6,0,0,1-1.77.74,8.52,8.52,0,0,1-2.07.24,6.71,6.71,0,0,1-5.12-2.05,7.71,7.71,0,0,1-1.94-5.48,7.91,7.91,0,0,1,1.88-5.48,7.14,7.14,0,0,1,10-.06,7.9,7.9,0,0,1,1.81,5.52Zm-3.39-2.7a3.15,3.15,0,0,0-3.32-2.63,3.48,3.48,0,0,0-1.13.18,3.22,3.22,0,0,0-1,.53,3.29,3.29,0,0,0-.74.83,4,4,0,0,0-.47,1.09Z"/><path class="cls-2" d="M833.89,211.24v4.38a8,8,0,0,0-2-1.89,3.83,3.83,0,0,0-2.06-.53,4.06,4.06,0,0,0-3.09,1.3,4.58,4.58,0,0,0-1.23,3.27,4.64,4.64,0,0,0,1.18,3.29,4,4,0,0,0,3.07,1.29,4.2,4.2,0,0,0,2.09-.51,8.47,8.47,0,0,0,2.07-1.93v4.35a8.72,8.72,0,0,1-4,1,7.73,7.73,0,0,1-5.54-2.14,7.16,7.16,0,0,1-2.22-5.35,7.25,7.25,0,0,1,2.25-5.39,7.67,7.67,0,0,1,5.54-2.2A8.23,8.23,0,0,1,833.89,211.24Z"/><path class="cls-2" d="M840.48,213.7v11.19h-3.3V213.7h-1.4v-3.08h1.4v-5.23h3.3v5.23H843v3.08Z"/><line class="cls-3" x1="509.66" y1="215.01" x2="361.48" y2="215.01"/><line class="cls-3" x1="1002.41" y1="214.7" x2="854.22" y2="214.7"/></g><path class="cls-2" d="M26,159a37.39,37.39,0,0,0,12-2.24v10.08a56.09,56.09,0,0,1-13.44,1.61c-7.63,0-13.65-2.24-18.06-6.79S0,150.62,0,142.14c0-16.59,9-26.25,24.15-26.25a52.06,52.06,0,0,1,13.3,1.61v10.22a36.94,36.94,0,0,0-11.9-2.24c-8.4,0-13.37,5.81-13.37,16.66C12.18,152.79,17.64,159,26,159Z"/><path class="cls-2" d="M79.73,128.7A32.13,32.13,0,0,0,65,125.06c-4.27,0-6.44,1.68-6.44,5,0,2.87,1.89,5,5.6,6.09,6.44,2,10.92,4.27,13.37,6.86s3.78,6,3.78,10.3c0,10-6.3,15.05-19,15.05a28.57,28.57,0,0,1-14.49-3.64V154.61a24,24,0,0,0,13.79,4.48c5,0,7.56-2,7.56-5.53,0-3.08-1.54-4.9-6-6.3-11.76-3.72-16.66-9.11-16.66-17.16,0-8.75,6.3-14.21,17.71-14.21a38.3,38.3,0,0,1,15.4,2.8Z"/><path class="cls-2" d="M121.59,128.7a32.13,32.13,0,0,0-14.7-3.64c-4.27,0-6.44,1.68-6.44,5,0,2.87,1.89,5,5.6,6.09,6.44,2,10.92,4.27,13.37,6.86s3.78,6,3.78,10.3c0,10-6.3,15.05-19,15.05a28.57,28.57,0,0,1-14.49-3.64V154.61a24,24,0,0,0,13.79,4.48c5,0,7.56-2,7.56-5.53,0-3.08-1.54-4.9-6-6.3-11.76-3.72-16.66-9.11-16.66-17.16,0-8.75,6.3-14.21,17.71-14.21a38.3,38.3,0,0,1,15.4,2.8Z"/><path class="cls-2" d="M186.76,145.44l6.86-18.07H150.78V116.8h59l-12.53,32.42Zm-27.51,20.37c7.35-6.72,12.95-15.05,13.37-24.79h-4.76v-7.7h15.75c.21,16.25-4,28.43-16.17,39.77Z"/><path class="cls-2" d="M279.45,163.85l-58.6,4.55-1.12-16.1,8-.49.35,5.11L278.61,153Zm-52.16-34.24V118.69h45v10.92Z"/><path class="cls-2" d="M330.26,166.44c-2.1-5.6-4.2-11.06-8.19-15.89l-19.81,24.5-8.47-6.72,19.88-24.79c.07-.07,0-.07-.21-.14-4.69-3.15-10.08-4.48-16-6l3-10.57c7.14,1.75,14.21,4.06,20.16,8.26l12.74-16-4.27-3.43,5-6,13,10.08L329,142c5.25,6,8.47,12.54,11.62,20.87Z"/><path class="cls-2" d="M418.46,136.82v11.35H360.08V136.82Z"/><path class="cls-2" d="M459.06,146.42l-28.35-.15V135.35l28.42.14Zm2.1-15.13-30.24-7.49,2.73-10.43,30.1,7.42ZM447.09,173l-5.81-14,7.35-3,1.68,4.2a72.87,72.87,0,0,0,16.94-11.27c5.39-4.84,9.1-10.58,12.74-17.3l9.74,5c-2.73,5-5.26,9.87-8.76,14C472.15,160.84,460.67,167.7,447.09,173Z"/><path class="cls-2" d="M552,126.88l-4.62,41.59H510.86v-9.66h27.58L540.68,137l-33.46,1.75-.7-12.81,7.28-.35.14,3.22Zm-15.26,16.31v9.67H512.12v-9.67Z"/><path class="cls-2" d="M572.25,122.47l5.67-9.59,23.8,13.37-5.6,9.73Zm4.2,49.78-3.71-14.49,7.56-1.89,1,3.71c17.36-5.6,30.52-16.67,39.9-33l9.88,5.67c-6,10.36-12.89,19.12-22.34,25.91C599.06,165.11,588.21,169.45,576.45,172.25Z"/><path class="cls-2" d="M682.15,173.65c-11.27-5.46-18.06-12.6-20.16-21.56-1.68-7.36-.28-15.55,4.13-24.23l-24.43,1.89L640.43,115l7.77-.63.42,4.41,48.45-3.71.76,10.5-18,1.33c-4.48,6.86-8.54,15.26-6.86,22.62,1.33,5.46,6.51,10.29,14.84,14.14Zm.77-26-2-10.3,6.72-1.33,2,10.51Zm9.52.63-1.89-10.37,6.66-1.4,1.89,10.58Z"/><path class="cls-2" d="M744.24,110.29c-.7,3.15-1.4,5.74-2,7.77h24.65v55.1h-11v-3H722.68v3h-11v-55.1h19c.84-2.66,1.61-5.74,2.31-9Zm-21.56,16.45V133h33.18v-6.3ZM755.86,141H722.68v6.44h33.18Zm0,14.36H722.68v6.44h33.18Z"/><path class="cls-2" d="M805.7,163.36c5,.35,8.54.56,10.36.56,2.87,0,4.06-1.82,4.06-15.54v-7.22h-14c-.7,8.62-2.52,15.48-5.6,20.52s-7.84,9.38-14.35,13.16l-6.79-8.4c5.18-2.66,9-5.88,11.41-9.66s4.06-9,4.69-15.62H786.8l-3.36,3.36-7.7-7.7a81,81,0,0,0,18.48-25.06l9.94,3.29a86.61,86.61,0,0,1-9.66,16.87H824a86.61,86.61,0,0,1-9.66-16.87l9.94-3.29a83.39,83.39,0,0,0,18.42,25.06l-7.64,7.7c-1.12-1.12-2.52-2.52-4-4.13v2.8c0,4.91-.14,8.83-.21,12.05-.28,6.23-1.26,11.13-2.31,13.65a6.62,6.62,0,0,1-2.45,2.94c-2.31,1.54-4.34,1.68-8.4,1.68-1.12,0-5-.21-11.76-.7Z"/><path class="cls-2" d="M886.9,159.3l5.74-5.67,3.22,3.15a19.2,19.2,0,0,0,3-10.09A18.9,18.9,0,0,0,892,131.57c-4.2-3.5-10.08-4.9-16.31-3.92A20.24,20.24,0,0,0,862,136.12c-3.22,4.83-4.13,11.21-2.17,15.62a6.65,6.65,0,0,0,5.25,4.34c2,.28,4.2-.49,6.3-2.31,3.85-3.29,5.88-9.67,5.67-17.79l11.76-.42c.35,11.56-3.22,21-9.87,26.82a19.73,19.73,0,0,1-15.61,5,17.92,17.92,0,0,1-14.14-11.06c-3.5-7.91-2.17-18.49,3.08-26.47,4.69-7.14,12.6-11.76,21.63-13.3s18.55.7,25.34,6.09a30.12,30.12,0,0,1,11.35,24.3,28.93,28.93,0,0,1-12.19,23.45Z"/><path class="cls-2" d="M935.41,111.83v10.78H943V111.83h10.29v10.78h9.1V111.83H973v10.78h8.83v9.17H973v22H943v-22h-7.56v28.5h43.48v9.17H935.41v4.41H924.49V131.78h-7.77v-9.17h7.77V111.83Zm27,33.53V131.78h-9.1v13.58Z"/><path class="cls-2" d="M1037.47,173.37h-11.2V150.9h4.9a64,64,0,0,1-9.38-7.15h-5a64,64,0,0,1-9.38,7.15h5.46v.84c0,6.58-1.54,11.48-4.48,14.77s-8.26,5.81-15.89,7.56l-4.13-8.89c5.88-1.61,9.66-3.15,11.34-4.41s2.59-3.64,2.73-6.93a94.83,94.83,0,0,1-12.88,5.67l-3.64-9.45a122.92,122.92,0,0,0,16-6.31H991.62V112.11h55.3v31.64H1036.7a122.52,122.52,0,0,0,16,6.31l-3.64,9.45a99.1,99.1,0,0,1-11.56-5Zm-34.93-52.58v3.71H1014v-3.71Zm0,15H1014V132h-11.41Zm33.46-15h-11.41v3.71H1036Zm0,15V132h-11.41v3.78Z"/><path class="cls-2" d="M1086.26,127.37l-.77,3.29a19.34,19.34,0,0,1,8.89,6.23,46.17,46.17,0,0,1,6-2l-.63-3.29,7.77-1.54,2.73,14c-3.92.7-7.56,1.13-11,2.38a74.72,74.72,0,0,1,2,9l-10.5,1.54c-.35-2.31-.7-4.13-1-5.67a20.56,20.56,0,0,0-6,6.09c-1.19,2.17-.91,4.2,3.5,4.9,4.76.7,12.6-.21,18.62-1.19l1.19,10.71c-6,.91-14.35,1.75-20.23,1.26-5.46-.42-10.36-2.24-13.16-7.21-5.46-9.73,3-19,10.15-23.81-2.45-1.82-5.74-2.73-11.41-2.87l2.8-11.83h-15V116.66H1078l1.68-6.93,10.29,2.38-1,4.55h28.29v10.71Z"/><path class="cls-2" d="M1191.83,116.73v9h-19.75v8.89h17.71v9h-17.71v9h17.71v9.17h-17.71v12.11h-11V128.07a153.24,153.24,0,0,1-8.4,16.17l-7.63-5.88v35.5h-10.71V145.29a36,36,0,0,1-4.55,6.1l-3.43-11.56c7-8.33,11.06-16.87,13.37-29l9.87,1.89a70.85,70.85,0,0,1-4.55,15.82v7.35a124.89,124.89,0,0,0,11.62-25.76l10.29,2.1c-.35,1-1,3.36-1.47,4.48Z"/><path class="cls-2" d="M1210.72,168.75l3.5-10.22c8.4,4.06,24.43,6.65,28.21-4.69,1-5.74-4.76-9.53-9.87-10.3-4.34-.63-8.68.21-12.88.91l-2.66,1.9-6.16-8,17.22-13.3-23.8,1.54-.77-14.7,7.84-.42.28,4.41,40.88-2.73.7,10.22-6.09.42-12,9.1a43.37,43.37,0,0,1,8.12,3c6.09,3.43,11.62,10.92,10,19.89-1.69,9.59-10.44,14.84-19.4,16.45C1225.84,173.65,1218.56,171.41,1210.72,168.75Z"/><path class="cls-2" d="M1293,160.35l7.42-2.66,1.61,4.2a18.9,18.9,0,0,0,9.52-9.17c5-10.37.07-13.59-9.59-13.94-8.61-.35-17.57.84-26.32,2.45l-1.89-10.43c9-1.54,18.34-3.15,27.72-2.73l3.08-4c-8.75-4.13-19.18-3.36-19.81-3.36l-.84-9.73c11.69-1.19,24.15,1.19,33.81,9l-7.28,9.17c13.65,2,17.15,16.32,11.2,28.5-2.94,6-9.59,13.3-23.45,16.45Z"/></g></g></g></svg>