<svg xmlns="http://www.w3.org/2000/svg" viewBox="0 0 1091.93 225.16"><defs><style>.cls-1,.cls-3{fill:none;stroke:#283c5f;stroke-width:3px;}.cls-1{stroke-linecap:round;stroke-linejoin:round;}.cls-2{fill:#283c5f;}.cls-3{stroke-miterlimit:10;}</style></defs><title>title</title><g id="レイヤー_2" data-name="レイヤー 2"><g id="page-2"><g id="タイトル"><g id="夜"><rect class="cls-1" x="1.5" y="102" width="108.27" height="108.27"/><path class="cls-2" d="M46.34,186.4a6.27,6.27,0,0,1,.77-.67q.42-.31.84-.66c1-.75,2.09-1.47,3.19-2.17s2.17-1.42,3.22-2.17,2.06-1.54,3-2.38a21.93,21.93,0,0,0,2.73-2.8,4.74,4.74,0,0,0,.81-1.26,4.91,4.91,0,0,0,.17-1.47,6.08,6.08,0,0,0-.73-1.65c-.49-.91-1-1.93-1.61-3.08s-1.12-2.31-1.61-3.5a8.19,8.19,0,0,1-.74-3,2.31,2.31,0,0,1,0-.39c0-.16.12-.24.31-.24s.74.38,1.37,1.15,1.31,1.63,2.06,2.56,1.49,1.82,2.24,2.66a5.5,5.5,0,0,0,1.89,1.54q.42-.08,1-1.05c.42-.65.84-1.38,1.26-2.17s.81-1.58,1.16-2.35a12.93,12.93,0,0,0,.66-1.64.43.43,0,0,0-.14-.56,3.61,3.61,0,0,0-1.68-.25,22.4,22.4,0,0,1-2.31,0,6.76,6.76,0,0,1-2.06-.42,1.31,1.31,0,0,1-.88-1.33V153a.84.84,0,0,0-.38-.74,1.52,1.52,0,0,0-.81-.24,2.78,2.78,0,0,0-1.71.94q-1,.94-2.28,2.31c-.84.91-1.73,1.92-2.66,3s-1.85,2.1-2.76,3a21.07,21.07,0,0,1-2.7,2.31,4.29,4.29,0,0,1-2.38.95c-.28,0-.42-.12-.42-.35a11.73,11.73,0,0,1,1-1.68q.94-1.54,2.34-4c.93-1.61,1.94-3.43,3-5.46s2.08-4.11,3-6.26A58.21,58.21,0,0,0,57,140.48a19.93,19.93,0,0,0,.94-5.67c0-.61-.28-.91-.84-.91H49.39a60.08,60.08,0,0,0-7.67.49l-.21.21c-.09.37.29.78,1.16,1.22a30.52,30.52,0,0,0,3,1.33l3.12,1.26q1.43.6,1.5,1s-.07.08-.07.1,0,.06-.07.11q-.63.71-2.31,2.31c-1.12,1.07-2.25,2.22-3.39,3.43s-2.16,2.37-3.05,3.46A4.94,4.94,0,0,0,40,151.19a.81.81,0,0,0,.46.7,4.93,4.93,0,0,0,1.08.49c.42.14.83.26,1.23.35l.87.21.21.28a1.28,1.28,0,0,1-.7.77.71.71,0,0,0-.49.7v30.52q0,.76-1.08,1.26a12.28,12.28,0,0,1-2.52.77,26.07,26.07,0,0,1-2.84.38c-.93.07-1.59.11-2,.11a.62.62,0,0,1-.7-.7V157.56a.55.55,0,0,0-.49-.63s-.12,0-.21.14a.19.19,0,0,1-.14.07,20.1,20.1,0,0,0-1.64,1.26c-.68.56-1.39,1.1-2.14,1.61a25.84,25.84,0,0,1-2.2,1.36A4,4,0,0,1,25,162c-.23,0-.35-.09-.35-.28a.88.88,0,0,1,.14-.49c.65-1.07,1.37-2.14,2.14-3.19s1.5-2.11,2.2-3.18q2.94-4.62,5.64-9.63A60.72,60.72,0,0,0,39.13,135l.07-.28-.14-.49-.49-.28H24.64a.35.35,0,1,1,0-.7H50.19q.84,0,.84-1.65c0-1.09-.05-2.31-.14-3.64s-.14-2.54-.14-3.64.28-1.64.84-1.64h2.17c1.07,0,2.19,0,3.36.1a20.78,20.78,0,0,1,3.08.39c.89.19,1.33.44,1.33.77a1.22,1.22,0,0,1-.45.73l-.67.67-.21.49v6.51a.62.62,0,0,0,.7.7H73.29a2.33,2.33,0,0,0,1.65-.84,12.46,12.46,0,0,0,1.5-2c.47-.75.9-1.51,1.3-2.28a17.82,17.82,0,0,1,1-1.78l.35-.14a9,9,0,0,1,1.37,1c.77.63,1.61,1.35,2.52,2.14l2.59,2.27c.81.73,1.34,1.21,1.57,1.44l.14.35a1.08,1.08,0,0,1-.35.77l-.35.14H62.44a.71.71,0,0,0-.45.21.56.56,0,0,0-.25.42c0,.42.36.79,1.09,1.12a20.69,20.69,0,0,0,2.41.91l2.42.77c.72.23,1.08.49,1.08.77,0,.05-.09.15-.28.31a6.55,6.55,0,0,1-.63.49c-.23.17-.47.34-.7.53l-.42.35a4.23,4.23,0,0,0-.49.8c-.23.45-.48.93-.73,1.44s-.49,1-.7,1.47a3.86,3.86,0,0,0-.32.84,3.34,3.34,0,0,1-.45,1.78,8.49,8.49,0,0,1-1,1.3c-.35.37-.67.72-.95,1a1.68,1.68,0,0,0-.42,1.12.69.69,0,0,0,.35.63,13.32,13.32,0,0,0,2.49,1.4A16.9,16.9,0,0,1,67,153.15a18.48,18.48,0,0,1,2.17,1.75l.32.35a1.57,1.57,0,0,0,.38.35l.35.17a.86.86,0,0,0,.35.11c.33,0,.64-.41,1-1.23a21.18,21.18,0,0,0,.8-2.8c.23-1,.44-2.07.63-3.08s.3-1.66.35-2l-.14-.49-.49-.28h-7a.37.37,0,0,1-.38-.28q-.11-.28.66-.42a9.64,9.64,0,0,1,2.84-.14c1,.09,1.9.14,2.83.14.19,0,.53-.25,1-.74s1-1,1.57-1.68,1.12-1.23,1.68-1.82a4.39,4.39,0,0,1,1.4-1.08l.35.14c.28.28.82.76,1.61,1.43s1.61,1.39,2.45,2.14,1.59,1.45,2.24,2.1a3.7,3.7,0,0,1,1,1.4c-.47.51-.93,1-1.4,1.5a9.46,9.46,0,0,0-1.26,1.65,23.75,23.75,0,0,0-2.59,5.25c-.65,1.87-1.31,3.71-2,5.53-.23.7-.48,1.39-.73,2.06a14.58,14.58,0,0,1-1,2,11.31,11.31,0,0,1-1.26,1.71l-1.57,1.79a19.08,19.08,0,0,0-1.44,1.82,6.74,6.74,0,0,0-.91,1.82,2.35,2.35,0,0,1,.11.24,1.18,1.18,0,0,0,.1.25q.13.28,1,.63c.61.23,1.37.48,2.28.73l2.94.81c1,.28,2.06.54,3,.77l2.59.63c.75.19,1.28.3,1.61.35l1.72.28a6.36,6.36,0,0,1,1.64.49.7.7,0,0,1-.07.66,3.37,3.37,0,0,1-.59.77l-.74.74-.56.56q-.91,1-1.5,1.71a10.83,10.83,0,0,0-1,1.47,16.1,16.1,0,0,0-.8,1.61c-.26.59-.55,1.3-.88,2.14l-.21.42c-.05.09-.19.14-.42.14a5,5,0,0,1-2-.7,28.14,28.14,0,0,1-2.9-1.79l-3.33-2.31-3.32-2.31c-1.05-.72-2-1.31-2.84-1.78a4.45,4.45,0,0,0-1.89-.7,7,7,0,0,0-2.41,1.33q-1.93,1.34-4.59,2.94a50.35,50.35,0,0,1-5.67,2.94,14.16,14.16,0,0,1-5.74,1.33Z"/><line class="cls-1" x1="55.61" y1="101.94" x2="55.61" y2="1.5"/></g><g id="空"><rect class="cls-1" x="142.83" y="102.13" width="108.27" height="108.27" transform="translate(37.96 -38.49) rotate(12.34)"/><path class="cls-2" d="M166,184.92a.31.31,0,0,1-.35-.35.31.31,0,0,1,.35-.35h26a.62.62,0,0,0,.7-.7V165.6a1.37,1.37,0,0,0-.42-.77,1.12,1.12,0,0,0-.77-.49H172a.31.31,0,0,1-.35-.35.31.31,0,0,1,.35-.35h39.34a2.35,2.35,0,0,0,1.5-.95,12.6,12.6,0,0,0,1.61-2.17,18.3,18.3,0,0,0,1.23-2.41,3,3,0,0,0,.35-1.68.82.82,0,0,0-.56-.49h-.35l-4.1,0a24.28,24.28,0,0,1-4.79-.38,9.65,9.65,0,0,1-4-1.61,4.22,4.22,0,0,1-1.64-3.64v-16.1a.62.62,0,0,0-.7-.7H195c-.09,0-.2.16-.32.49a6.38,6.38,0,0,1-.24.63c-.28.93-.51,1.88-.7,2.83s-.4,1.9-.63,2.84a15.44,15.44,0,0,1-1.79,4.27,34.43,34.43,0,0,1-2.69,3.85,38.38,38.38,0,0,1-4,4.06,34.58,34.58,0,0,1-4.9,3.64,28.6,28.6,0,0,1-5.42,2.59,16.94,16.94,0,0,1-5.6,1,3.23,3.23,0,0,1-.46-.07.34.34,0,0,1-.31-.35c0-.24.24-.53.73-.88s1.05-.71,1.68-1.08,1.25-.73,1.86-1.05a9.94,9.94,0,0,0,1.26-.77,17.56,17.56,0,0,0,2.17-2.14q1-1.15,1.89-2.34a38.32,38.32,0,0,0,3.95-6.48,24.51,24.51,0,0,0,2.07-7.24,16.07,16.07,0,0,0,.24-1.79,3.27,3.27,0,0,0-.17-1.71l-.49-.28h-6.58a.83.83,0,0,0-.77.77c0,1.12-.05,2.34-.14,3.67a13.29,13.29,0,0,1-.77,3.71,6.92,6.92,0,0,1-1.93,2.87,5.21,5.21,0,0,1-3.6,1.16,4.64,4.64,0,0,1-3.12-1.05,3.77,3.77,0,0,1-1.22-3,5.1,5.1,0,0,1,1.12-3,36.4,36.4,0,0,1,2.59-3.15c1-1.08,1.92-2.18,2.83-3.33a9.81,9.81,0,0,0,1.86-3.53l.28-.35c.28,0,.48.22.59.66s.24,1,.35,1.51a11.4,11.4,0,0,0,.42,1.5c.17.45.41.67.74.67h16a.87.87,0,0,0,.77-.49c0-1.45-.07-2.88-.21-4.31s-.21-2.86-.21-4.3a.62.62,0,0,1,.7-.7c1.59,0,3.15,0,4.69.07a21.57,21.57,0,0,1,4.62.63,3.2,3.2,0,0,0,.42.1c.14,0,.21.15.21.39a1.17,1.17,0,0,1-.42.77,1.21,1.21,0,0,0-.42.84v6.3a.62.62,0,0,0,.7.7h13l.49-.21,1-1c.54-.52,1.11-1.05,1.72-1.61s1.17-1.05,1.68-1.47a2.63,2.63,0,0,1,1-.63c.14,0,.5.25,1.08.77s1.22,1.11,1.89,1.78l1.93,1.93c.61.6,1,1,1.26,1.19l.66.52a3.78,3.78,0,0,1,.6.6.72.72,0,0,1-.07,1,7.58,7.58,0,0,1-1.26.8c-.7.4-1.55.85-2.56,1.37s-2.06,1-3.18,1.57l-3.19,1.51c-1,.46-1.86.85-2.59,1.15a5,5,0,0,1-1.36.46q-.14,0-.18-.21a2.6,2.6,0,0,1,0-.35,6.39,6.39,0,0,1,.42-2.1c.28-.8.59-1.58.94-2.35s.67-1.44,1-2a3.67,3.67,0,0,0,.42-1.15.44.44,0,0,0-.25-.46,3.67,3.67,0,0,0-.45-.17h-6a.61.61,0,0,0-.7.69v11.84a1,1,0,0,0,.63,1,4.77,4.77,0,0,0,1.43.41,12.82,12.82,0,0,0,1.65.11h1.26c.93,0,1.94,0,3,0a5.64,5.64,0,0,0,2.87-.8,4.49,4.49,0,0,0,1.15-1.12c.45-.56.88-1.13,1.3-1.72s.83-1.09,1.22-1.54.74-.66,1-.66.4.18.49.56a5.34,5.34,0,0,1,.14,1.26c0,.46,0,.92,0,1.36s0,.74,0,.88a1,1,0,0,0,.49.77c.33.23.68.5,1,.8a6,6,0,0,1,1.05,1.16,3.1,3.1,0,0,1,.49,1.82,3.69,3.69,0,0,1-.88,2.67,5.62,5.62,0,0,1-2.17,1.4,10.37,10.37,0,0,1-2.83.63c-1,.1-2,.19-2.84.29a10.85,10.85,0,0,0-2.17.42c-.58.18-.87.51-.87,1a6.36,6.36,0,0,0,1.08,1.26c.73.75,1.52,1.55,2.38,2.39s1.66,1.62,2.38,2.35a9.06,9.06,0,0,1,1.09,1.16.5.5,0,0,1-.14.35,10.78,10.78,0,0,1-1.61.14c-1,0-2.19.07-3.64.07h-4.73c-1.7,0-3.33,0-4.9,0l-4.13,0h-2.41a.62.62,0,0,0-.7.7v18.23a.62.62,0,0,0,.7.7H216a1.81,1.81,0,0,0,1.54-1,18.73,18.73,0,0,0,1.19-2.24c.37-.81.76-1.56,1.15-2.24a1.75,1.75,0,0,1,1.51-1,3.6,3.6,0,0,1,1.64.84,19.48,19.48,0,0,1,2.31,2q1.15,1.16,2.1,2.28a7.89,7.89,0,0,1,1.16,1.61l-.14.49-.49.28Z"/><line class="cls-3" x1="198.07" y1="100.18" x2="198.07" y2="1.76"/></g><g id="ノ"><rect class="cls-1" x="281.76" y="100.6" width="108.27" height="108.27" transform="translate(-14.68 36.99) rotate(-6.17)"/><path class="cls-2" d="M340,129l.21-.28a11.36,11.36,0,0,1,5.21-.21,20.44,20.44,0,0,1,5.81,1.86,15.58,15.58,0,0,1,4.69,3.46,6.76,6.76,0,0,1,1.93,4.69,2.7,2.7,0,0,1-.28,1.19,27.4,27.4,0,0,0-3.89,4.17c-1.14,1.51-2.22,3.09-3.22,4.72s-2,3.27-3,4.9a50.07,50.07,0,0,1-3.25,4.69q-1.34,1.68-3.75,4.17t-5.49,5.28q-3.09,2.81-6.58,5.6c-2.34,1.87-4.61,3.55-6.83,5a47,47,0,0,1-6.3,3.64,12.33,12.33,0,0,1-5,1.4c-.24,0-.35-.14-.35-.42s.49-.91,1.47-1.89,2.27-2.24,3.88-3.78l5.5-5.28q3.07-3,6.33-6.41c2.17-2.28,4.28-4.68,6.34-7.17a76.71,76.71,0,0,0,5.49-7.56,45.29,45.29,0,0,0,3.89-7.56,19.64,19.64,0,0,0,1.47-7.18,8.84,8.84,0,0,0-.25-2.27,5,5,0,0,0-.77-1.68,7.2,7.2,0,0,0-1.29-1.37c-.52-.42-1.12-.89-1.82-1.4Z"/><line class="cls-3" x1="330.85" y1="101.2" x2="330.85" y2="1.19"/></g><g id="贈"><rect class="cls-1" x="426.87" y="99.59" width="108.27" height="108.27" transform="translate(-23.14 182.57) rotate(-21)"/><path class="cls-2" d="M451.27,122.11a7.51,7.51,0,0,1,2.84.52c.86.35,1.71.74,2.55,1.16s1.68.8,2.52,1.15a6.86,6.86,0,0,0,2.66.53,3.17,3.17,0,0,0,1.68-.46,6.74,6.74,0,0,0,1.44-1.15,15.33,15.33,0,0,0,1.22-1.47c.38-.52.73-1,1.05-1.4l.42-.21c.1,0,.47.16,1.12.63s1.37,1,2.14,1.64l2.2,1.82,1.4,1.16.21.35a.72.72,0,0,1-.52.52c-.31.12-.63.24-1,.35l-1,.35a.62.62,0,0,0-.46.6v36.89c0,.28-.29.53-.87.77a12.88,12.88,0,0,1-2,.59c-.74.17-1.48.29-2.2.39s-1.2.14-1.44.14c-.42,0-.69-.13-.8-.39a2.21,2.21,0,0,1-.21-.8c0-.28-.06-.55-.11-.81a.43.43,0,0,0-.49-.38c-.56,0-1.11,0-1.64,0s-1.09,0-1.65,0c-.84,0-1.35.25-1.54.77s-.4,1.09-.63,1.75a10.17,10.17,0,0,1-.35,1,2.74,2.74,0,0,0-.21,1,2.4,2.4,0,0,0,.91.94,9.62,9.62,0,0,0,1.4.7l1.51.6a5,5,0,0,1,1.29.7l.14.35c0,.14-.11.32-.35.56-1.12,1.07-2.16,2.16-3.11,3.25s-1.93,2.23-2.91,3.4a19.31,19.31,0,0,1-1.29,1.47c-.54.56-1.11,1.1-1.72,1.64a12.08,12.08,0,0,1-1.85,1.37,3.57,3.57,0,0,1-1.79.56,2.11,2.11,0,0,1-.52-.07c-.17-.05-.25-.19-.25-.42a6.14,6.14,0,0,1,.81-1.82c.53-1,1.14-2.14,1.82-3.47a38.72,38.72,0,0,0,1.82-4.23,12.47,12.47,0,0,0,.8-4.13c0-.61-.17-1-.52-1.19a3.73,3.73,0,0,0-1.12-.39c-.4-.07-.77-.13-1.12-.17a.53.53,0,0,1-.53-.56V122.39Zm8.4,4.27a.62.62,0,0,0-.7.7V162.5a.62.62,0,0,0,.7.7h3.71a.62.62,0,0,0,.7-.7V127.08a.62.62,0,0,0-.7-.7Zm.63,12,.63-.25a2,2,0,0,1,.63-.17,1.7,1.7,0,0,1,.53.14c.25.09.38.18.38.28l-.38,0c-.21,0-.45,0-.7,0h-.7A.73.73,0,0,1,460.3,138.42Zm1.26,13.16a3.32,3.32,0,0,0-.63-.21l-.63-.21c.05,0,.18-.07.39-.07H462c.21,0,.34,0,.38.07s-.11.17-.35.24A3.37,3.37,0,0,0,461.56,151.58Zm9.1,29.4a3.28,3.28,0,0,1-2.34-1,9.54,9.54,0,0,1-1.75-2.35,18.21,18.21,0,0,1-1.23-2.83c-.32-1-.58-1.82-.77-2.52-.09-.38-.2-.76-.31-1.16s-.22-.78-.32-1.15-.08-.61,0-.7a1.21,1.21,0,0,1,.73-.14,9.34,9.34,0,0,1,3.19.63,12.84,12.84,0,0,1,3.18,1.71,10.63,10.63,0,0,1,2.45,2.52,5.46,5.46,0,0,1,1,3.12,3.61,3.61,0,0,1-3.85,3.85Zm42.77-48.09a.83.83,0,0,1-.38.56c-.21.14-.43.28-.67.42s-.44.28-.63.42a.62.62,0,0,0-.28.49V153.4c0,.28-.28.51-.84.7s-1.2.36-1.92.52l-2.1.49a3.83,3.83,0,0,0-1.37.53,1.32,1.32,0,0,0,.49,1.47,10.81,10.81,0,0,0,1.79,1.29c.67.4,1.32.78,1.92,1.16s.91.74.91,1.12c0,0-.09.14-.28.28s-.39.29-.63.45-.47.32-.7.46a3.11,3.11,0,0,0-.42.28l-.14.35v20.79c0,.32-.34.59-1,.8a12.93,12.93,0,0,1-2.28.46c-.84.09-1.67.16-2.48.21s-1.37.07-1.65.07a.62.62,0,0,1-.7-.7V161.59a.62.62,0,0,0-.7-.7H487.67a.62.62,0,0,0-.7.7v17.29a.62.62,0,0,0,.7.7c.42,0,1.17,0,2.24-.07s2.21-.07,3.4-.07,2.27,0,3.25.1,1.57.22,1.75.46a1.63,1.63,0,0,1-1.19.49h-9.66c-.09,0-.16,0-.21.17a2.37,2.37,0,0,1-.14.32,11.58,11.58,0,0,1-1.12,2.48,3.66,3.66,0,0,1-1.36,1.3,4.85,4.85,0,0,1-1.93.49c-.74,0-1.63.07-2.66.07-.28,0-.56,0-.84,0s-.42-.24-.42-.66v-3c0-1.52,0-3.26,0-5.25s0-4.07,0-6.26v-6.06c0-1.84,0-3.38-.07-4.62a12.08,12.08,0,0,0-.14-2,1.92,1.92,0,0,0-.84-.6c-.33-.11-.64-.21-.94-.28a2.76,2.76,0,0,1-.77-.28.57.57,0,0,1-.32-.52q0-6.66-.24-13.23t-.25-13.23c0-.38.13-.57.39-.6a2.52,2.52,0,0,1,.73,0,11.63,11.63,0,0,1,1.89.73c.75.35,1.51.71,2.28,1.09s1.49.7,2.17,1a4.47,4.47,0,0,0,1.57.42h10.57c.19,0,.34-.26.46-.77s.2-.84.24-1c.38-1.59.68-3.18.91-4.76a35,35,0,0,1,1.05-4.76c0-.14.1-.28.14-.42s.19-.21.42-.21a.91.91,0,0,1,.42.07,19.74,19.74,0,0,0,2,.63c.72.18,1.45.38,2.2.59s1.46.43,2.14.67a11.45,11.45,0,0,1,1.78.77,1.91,1.91,0,0,0,.32.24.36.36,0,0,1,.17.32c0,.32-.48.8-1.43,1.43l-3.19,2.1a35,35,0,0,0-3.18,2.35q-1.44,1.19-1.44,2.1c0,.14.08.24.25.31a1.07,1.07,0,0,0,.38.11,8.69,8.69,0,0,0,3.61-.63,8.6,8.6,0,0,0,2.2-1.4,15.86,15.86,0,0,0,1.37-1.4,1.45,1.45,0,0,1,1.08-.63,3.08,3.08,0,0,1,1.37.63c.63.42,1.28.9,2,1.43s1.32,1.08,1.92,1.61,1,.92,1.26,1.16Zm-33-11.69c0-.47.21-.7.63-.7a13.58,13.58,0,0,1,3,.38,11.34,11.34,0,0,1,3,1.16,7.68,7.68,0,0,1,2.31,2,4.34,4.34,0,0,1,.94,2.8q0,3.78-3.78,3.78a3.18,3.18,0,0,1-2.27-1.09,11.26,11.26,0,0,1-1.93-2.62,19.29,19.29,0,0,1-1.36-3.12A8.55,8.55,0,0,1,480.39,121.2ZM484,154.1c-.28.28-.72.69-1.33,1.22a2.2,2.2,0,0,0-.91,1.44c0,.23.28.5.84.8a15.2,15.2,0,0,0,2,.88c.75.28,1.46.52,2.14.73a5.89,5.89,0,0,0,1.36.32h11.06a2,2,0,0,0,1.09-.56,8.4,8.4,0,0,0,1.26-1.37,14.22,14.22,0,0,0,1-1.57,2.82,2.82,0,0,0,.42-1.19,2.58,2.58,0,0,0-.07-.6.37.37,0,0,0-.42-.31H484.45Zm-.7-2.31a.62.62,0,0,0,.7.7h4.62a.62.62,0,0,0,.7-.7V134.08a.62.62,0,0,0-.7-.7H484a.62.62,0,0,0-.7.7v7.42a1.3,1.3,0,0,0,.21.63,1.46,1.46,0,0,1,.21.77,1.64,1.64,0,0,1-.21.84,1.24,1.24,0,0,0-.21.63Zm2.1-9.1h2.31l.21.21-.21.28h-2.31l-.28-.28Zm3.78,26.6h8.75l.49.21.14.21a10.3,10.3,0,0,1-1.68.1c-1,0-2.16,0-3.39,0s-2.36,0-3.36,0a8.26,8.26,0,0,1-1.58-.1l.14-.21Zm8.33-35.91a.62.62,0,0,0-.7.7v17.71a.62.62,0,0,0,.7.7h5.11a.62.62,0,0,0,.7-.7V134.08a.62.62,0,0,0-.7-.7Zm2,9.8-.31-.07-.46-.14a.47.47,0,0,1-.24-.14c0-.05.08-.1.31-.14h.42c.38,0,.77,0,1.19,0a3.86,3.86,0,0,1,1.19.11c.14,0,.21,0,.21.14s-.16.22-.49.24l-.63,0Z"/><line class="cls-3" x1="475.07" y1="96.65" x2="475.07" y2="2.02"/></g><g id="リ"><rect class="cls-1" x="571.83" y="98.18" width="108.27" height="108.27" transform="translate(39.33 -113.95) rotate(10.74)"/><path class="cls-2" d="M619.54,160a3,3,0,0,1-1,2.38,3.61,3.61,0,0,1-2.45.91,4.15,4.15,0,0,1-2.42-.7,6.48,6.48,0,0,1-1.75-1.82,8.17,8.17,0,0,1-1.08-2.41,9.51,9.51,0,0,1,.14-5.57,9.55,9.55,0,0,0,.49-3.08q0-3.07.1-6.12t.11-6.13a18.9,18.9,0,0,0-.18-2.52,8.76,8.76,0,0,0-.66-2.45,6.65,6.65,0,0,0-1.4-2,15.67,15.67,0,0,0-2-1.58c-.23-.14-.47-.26-.7-.38a2.55,2.55,0,0,1-.63-.46.56.56,0,0,1-.21-.35q0-.48.66-.84a6.78,6.78,0,0,1,1.58-.56,17.06,17.06,0,0,1,1.78-.31c.59-.07,1-.11,1.23-.11a12.33,12.33,0,0,1,2.94.46,15.55,15.55,0,0,1,3.36,1.29,10.34,10.34,0,0,1,2.73,2,3.81,3.81,0,0,1,.84,4.13c-.19.47-.39.93-.6,1.37s-.4.9-.59,1.36a3.88,3.88,0,0,0-.28,1.47Zm-5.32,22.19.21-.42a53.24,53.24,0,0,0,9.87-8,36.74,36.74,0,0,0,6.4-9.1A40.26,40.26,0,0,0,634.17,154a70.07,70.07,0,0,0,1.05-12.6c0-.93,0-2,.14-3.11a30.77,30.77,0,0,0,.07-3.47,13.39,13.39,0,0,0-.53-3.29,5.08,5.08,0,0,0-1.64-2.52,3.92,3.92,0,0,0-1-.52c-.39-.16-.78-.34-1.15-.53a6.49,6.49,0,0,1-1-.63,1.22,1.22,0,0,1-.56-.77,2.89,2.89,0,0,1,1.05-1.36,8.42,8.42,0,0,1,1.89-1.12,16,16,0,0,1,2.1-.74,7.34,7.34,0,0,1,1.75-.28,10.68,10.68,0,0,1,2.69.42,14,14,0,0,1,3,1.19,9.15,9.15,0,0,1,2.45,1.89,3.59,3.59,0,0,1,1,2.45,17.19,17.19,0,0,1-.6,4.48A34,34,0,0,0,644,138c-.33,2.66-.57,5.31-.74,8s-.45,5.28-.87,7.94a45.54,45.54,0,0,1-3.19,11.1,27.34,27.34,0,0,1-5.56,8.26,28,28,0,0,1-8.19,5.67,46.91,46.91,0,0,1-11.06,3.39Z"/><line class="cls-3" x1="624.25" y1="95.82" x2="624.25" y2="2.02"/></g><g id="物"><rect class="cls-1" x="711.93" y="98.63" width="108.27" height="108.27"/><path class="cls-2" d="M744.94,183.44V162a.62.62,0,0,0-.7-.7,5.59,5.59,0,0,0-2.31.39,4.5,4.5,0,0,0-1.47,1,15.41,15.41,0,0,0-1.23,1.47,11.58,11.58,0,0,1-1.5,1.64l-.42.14-.42-.21c-.14-.28-.41-.86-.81-1.75s-.79-1.83-1.19-2.83-.74-1.94-1-2.8a7.33,7.33,0,0,1-.45-1.65.38.38,0,0,1,.31-.42c.21,0,.39-.09.53-.14.65-.14,1.41-.27,2.27-.38l2.66-.39c.91-.14,1.78-.3,2.59-.49a13.62,13.62,0,0,0,2.07-.63,2.68,2.68,0,0,0,.73-.45.94.94,0,0,0,.39-.74V138a.43.43,0,0,0-.49-.49,6.73,6.73,0,0,0-3.47.81,7.43,7.43,0,0,0-2.24,2,10.16,10.16,0,0,0-1.36,2.56c-.33.91-.63,1.76-.91,2.55a12.37,12.37,0,0,1-.88,2,1.33,1.33,0,0,1-1.15.8.62.62,0,0,1-.7-.7c0-2.43.11-4.84.35-7.24s.47-4.82.7-7.25c.09-1.31.14-2.64.14-4a23,23,0,0,1,.35-4c.09-.47.32-.7.7-.7a13,13,0,0,1,4.13.67,13.26,13.26,0,0,0,4.13.66c.51,0,.78-.36.8-1.08a16,16,0,0,0-.1-2.35,17.54,17.54,0,0,1-.11-2.34c0-.73.3-1.09.81-1.09s1.14,0,1.89.11l2.31.24c.79.09,1.56.21,2.31.35A9.92,9.92,0,0,1,754,120a3.23,3.23,0,0,0,.42.18c.18.06.28.17.28.31a1.32,1.32,0,0,1-.42.81,2.84,2.84,0,0,1-.7.59l-.21.49v12c0,.42.23.63.7.63a1.4,1.4,0,0,0,1.08-.49,5.07,5.07,0,0,0,.81-1.19,11,11,0,0,0,.59-1.43,10.33,10.33,0,0,1,.46-1.16l.35-.21.35.14,3,3.92.31.14a.81.81,0,0,0,.32.07c.37,0,.7-.33,1-1a16.52,16.52,0,0,0,.8-2.48c.26-1,.48-2.12.67-3.33s.37-2.38.56-3.5.35-2.11.49-3a6.82,6.82,0,0,1,.49-1.86c.19-.37.4-.56.63-.56a.91.91,0,0,1,.42.07,19,19,0,0,0,2,.63c1,.28,2.06.6,3.15,1s2.07.68,2.91,1,1.26.61,1.26.84a4.14,4.14,0,0,1-.88,1.26c-.58.7-1.22,1.52-1.92,2.45a28.1,28.1,0,0,0-1.93,2.94,5.73,5.73,0,0,0-.87,2.73.65.65,0,0,0,.28.6,2.06,2.06,0,0,0,.66.24,2.87,2.87,0,0,0,.77,0,5.79,5.79,0,0,1,.67,0h1.61l2.73,0c1,0,2.09-.06,3.18-.11l3.12-.14c1-.05,1.8-.09,2.45-.14a7.24,7.24,0,0,0,1.19-.14,4.91,4.91,0,0,0,1.29-1c.54-.51,1.09-1,1.65-1.61s1.07-1.06,1.54-1.5.77-.67.91-.67a4.79,4.79,0,0,1,1.33,1c.74.63,1.54,1.34,2.38,2.13s1.62,1.55,2.34,2.28a6.49,6.49,0,0,1,1.23,1.43,2.07,2.07,0,0,1-1.12.91,9.56,9.56,0,0,0-1.4.7,8.72,8.72,0,0,0-.32,1.93c-.07.86-.11,1.78-.14,2.76s0,1.94-.07,2.87,0,1.66,0,2.17c-.1,1.63-.18,3.23-.25,4.8s-.15,3.16-.24,4.79c-.1,1.82-.21,3.78-.35,5.88a60.55,60.55,0,0,1-.77,6.34,39.21,39.21,0,0,1-1.58,6.12,17.69,17.69,0,0,1-2.76,5.18,13.36,13.36,0,0,1-4.34,3.61,13.51,13.51,0,0,1-6.3,1.36c-.14,0-.3-.26-.49-.77s-.38-1.11-.56-1.78-.36-1.33-.53-2a12.91,12.91,0,0,0-.38-1.3,5.25,5.25,0,0,0-2-2.34c-.81-.49-1.69-1-2.62-1.51l-.21-.42.28-.21h8.12a2.63,2.63,0,0,0,2.24-1.57,16.46,16.46,0,0,0,1.54-4,41.2,41.2,0,0,0,1-5.36c.23-2,.41-3.85.52-5.67s.19-3.48.21-5,0-2.57,0-3.22-.31-.93-.91-.84a12.93,12.93,0,0,0-.84,1.12,17,17,0,0,0-1,1.54c-.3.56-.6,1.1-.91,1.61l-.73,1.26c-.8,1.4-1.6,2.8-2.42,4.2a47.74,47.74,0,0,1-2.69,4.13c-.47.65-1.12,1.52-2,2.59s-1.8,2.21-2.87,3.4-2.21,2.4-3.4,3.64a43.82,43.82,0,0,1-3.53,3.29,23.07,23.07,0,0,1-3.36,2.31,5.4,5.4,0,0,1-2.8.8.32.32,0,0,1-.14,0,.25.25,0,0,0-.14,0l-.14-.21q2.86-2.86,6-6.72a75.49,75.49,0,0,0,5.81-8.15,51.65,51.65,0,0,0,4.37-8.82A24.38,24.38,0,0,0,777,145a1.43,1.43,0,0,0-.07-.35q-.07-.21-.21-.21a4,4,0,0,0-2.17,1.23,39.21,39.21,0,0,0-3.15,3.11c-1.17,1.26-2.4,2.66-3.71,4.2s-2.58,3-3.82,4.41-2.39,2.66-3.46,3.78a17.52,17.52,0,0,1-2.66,2.38l-.21-.14a4.57,4.57,0,0,1,.63-1.22c.28-.4.54-.79.77-1.16.65-1,1.31-2,2-3s1.28-2,1.89-3a86.22,86.22,0,0,0,4.86-9.55,59.93,59.93,0,0,0,3.4-10.12,1.33,1.33,0,0,0,.07-.45v-.46l-.21-.21-.42.14c-.7.7-1.64,1.72-2.8,3s-2.39,2.64-3.68,4a39,39,0,0,1-3.85,3.47,6.34,6.34,0,0,1-3.32,1.57l-.28-.21a8.26,8.26,0,0,1,.77-1.71q.63-1.16,1.29-2.31c.45-.77.84-1.47,1.19-2.1a4.18,4.18,0,0,0,.53-1.16c0-.28,0-.58,0-.91s-.24-.49-.66-.49H754a.62.62,0,0,0-.7.7v12.95c0,.56.31.79.94.7a11.36,11.36,0,0,0,2.14-.56c.79-.28,1.55-.52,2.27-.73s1.18-.16,1.37.17c-.09.33-.51.7-1.26,1.12s-1.54.88-2.38,1.37a17.23,17.23,0,0,0-2.28,1.57,2.4,2.4,0,0,0-1,1.82v25.69c0,.42-.33.76-1,1a11.56,11.56,0,0,1-2.24.59,19.45,19.45,0,0,1-2.49.25l-1.71,0-.49-.21-.07-.07Zm-4.06-47.11a4,4,0,0,0,1.64.28h1.72a.62.62,0,0,0,.7-.7v-7.28a1.34,1.34,0,0,0-.7-1.29q-.71-.39-1.26.66a13.83,13.83,0,0,0-.42,1.37c-.24.81-.49,1.69-.77,2.62s-.53,1.79-.74,2.56-.31,1.17-.31,1.22A1.16,1.16,0,0,0,740.88,136.33Z"/><line class="cls-3" x1="767.09" y1="97.39" x2="767.09" y2="1.91"/></g><g id="と"><rect class="cls-1" x="846.97" y="98.35" width="108.27" height="108.27" transform="translate(2.32 318.08) rotate(-20.04)"/><path class="cls-2" d="M893.22,149.63a1,1,0,0,0-.08-1c-.55-.84-1.1-1.63-1.64-2.38a11.21,11.21,0,0,1-1.36-2.52,25.47,25.47,0,0,1-1.3-4.3c-.35-1.61-.74-3.22-1.16-4.83a32.53,32.53,0,0,0-1.54-4.59,10.57,10.57,0,0,0-2.45-3.64,6,6,0,0,0-.66-.49c-.35-.23-.71-.49-1.09-.77l-1.54-1q-.14-.48.63-.84a8.78,8.78,0,0,1,1.79-.56,15.86,15.86,0,0,1,2-.28c.66,0,1.1-.07,1.33-.07a12.83,12.83,0,0,1,4.28.77,8.39,8.39,0,0,1,3.56,2.38,10.42,10.42,0,0,1,.88,1.16,3.79,3.79,0,0,1,.53,1.36,2.81,2.81,0,0,1,.07,1,8,8,0,0,0-.07,1.05c0,1.31,0,2.59-.08,3.85a35.55,35.55,0,0,0,.08,3.85,11.76,11.76,0,0,0,.38,1.89,13.07,13.07,0,0,0,.87,2.35,9.13,9.13,0,0,0,1.3,2,2.11,2.11,0,0,0,1.58.84,7,7,0,0,0,1.75-.84c1-.56,2-1.19,3.18-1.89s2.23-1.37,3.26-2a22.8,22.8,0,0,0,2-1.33,13,13,0,0,0,1.08-.91,1.62,1.62,0,0,0,.52-1.26,2.72,2.72,0,0,0-.34-1c-.24-.46-.46-.92-.67-1.36a4,4,0,0,1-.38-1.16c0-.32.11-.49.48-.49A14.24,14.24,0,0,1,914,133a13.92,13.92,0,0,1,3.63,1.54,9.83,9.83,0,0,1,2.84,2.52,5.53,5.53,0,0,1,1.16,3.46c0,.84-.88,1.71-2.63,2.59s-3.94,1.86-6.58,2.91-5.5,2.2-8.58,3.46a60.18,60.18,0,0,0-8.57,4.31,28.07,28.07,0,0,0-6.58,5.42,10,10,0,0,0-2.63,6.72,4.49,4.49,0,0,0,1.3,3.36,8.26,8.26,0,0,0,3.11,1.89,17.22,17.22,0,0,0,3.89.84q2.07.21,3.6.21a34.64,34.64,0,0,0,4.45-.28q2.21-.27,4.41-.66c1.47-.26,2.95-.48,4.44-.67a37.59,37.59,0,0,1,4.49-.28c.79,0,1.6,0,2.45.11a8,8,0,0,1,2.31.52,4.18,4.18,0,0,1,1.75,1.3,3.8,3.8,0,0,1,.7,2.41,4,4,0,0,1-1.72,3.47,12.12,12.12,0,0,1-4.1,1.82,24.55,24.55,0,0,1-4.86.7c-1.66.07-3,.1-4,.1l-5.12,0c-1.91,0-3.86-.13-5.84-.32a37,37,0,0,1-5.84-1,18.71,18.71,0,0,1-5.12-2.1,10.88,10.88,0,0,1-3.6-3.54,9.91,9.91,0,0,1-1.36-5.39,13.15,13.15,0,0,1,1.15-5.35,26.82,26.82,0,0,1,2.9-5,44.21,44.21,0,0,1,3.82-4.51Q891.33,151.39,893.22,149.63Z"/><line class="cls-3" x1="900.22" y1="94.73" x2="900.22" y2="2.3"/></g><g id="は"><rect class="cls-1" x="982.17" y="98.16" width="108.27" height="108.27"/><path class="cls-2" d="M1023.37,152.46l.21.21a9.3,9.3,0,0,1-.28,2.17,21.39,21.39,0,0,1-.7,2.24c-.28.75-.58,1.49-.88,2.24a20.44,20.44,0,0,0-.73,2.1,29.46,29.46,0,0,0-1.19,8.26,15.58,15.58,0,0,0,.45,3.32,21.6,21.6,0,0,1,.53,3.89,6.64,6.64,0,0,1-.63,3.25c-.47.91-1.5,1.37-3.08,1.37a5.73,5.73,0,0,1-3.47-1.09,9.1,9.1,0,0,1-2.52-2.83,18.29,18.29,0,0,1-1.68-4,38.63,38.63,0,0,1-1-4.44,40.38,40.38,0,0,1-.52-4.31c-.1-1.37-.14-2.55-.14-3.53a39.06,39.06,0,0,1,.66-7.18q.66-3.53,1.47-7.07t1.47-7.07a38.88,38.88,0,0,0,.67-7.17,7.33,7.33,0,0,0-.39-2.35c-.26-.77-.54-1.5-.84-2.2s-.58-1.4-.84-2.1a5.81,5.81,0,0,1-.38-2c0-.47.21-.7.63-.7a7.87,7.87,0,0,1,3.88,1.12,15.7,15.7,0,0,1,3.61,2.8,15.32,15.32,0,0,1,2.62,3.71,8.71,8.71,0,0,1,1,3.92,13.43,13.43,0,0,1-1.33,5.56q-1.34,2.91-2.91,6.06a68.72,68.72,0,0,0-2.87,6.58,19.93,19.93,0,0,0-1.29,7.07c0,.28,0,.7.07,1.26a10.22,10.22,0,0,0,.24,1.61,4.15,4.15,0,0,0,.56,1.36,1.17,1.17,0,0,0,1,.6c.7,0,1.44-.55,2.24-1.65a33.58,33.58,0,0,0,2.34-3.78q1.15-2.13,2.1-4.2a17.33,17.33,0,0,1,1.58-2.9Zm23.14-14.21c0-1.54,0-2.93.07-4.17a8.67,8.67,0,0,0-.42-3.25,5,5,0,0,0-1.82-2.38,11.43,11.43,0,0,0-4.14-1.61l-.22-.28a.35.35,0,0,0,0-.14.37.37,0,0,1,0-.14c0-.56.32-1,1.09-1.47a11.33,11.33,0,0,1,2.88-1,16.52,16.52,0,0,1,3.76-.35,13.9,13.9,0,0,1,3.75.56,7.23,7.23,0,0,1,2.88,1.61,3.83,3.83,0,0,1,1.16,2.91,9.86,9.86,0,0,1-.7,3.64,9.66,9.66,0,0,0-.7,3.64c0,.42.23.63.7.63a4.62,4.62,0,0,0,1.61-.28l1.54-.6c.51-.21,1-.4,1.54-.59a4.58,4.58,0,0,1,1.61-.28,6.66,6.66,0,0,1,1.61.21,4.63,4.63,0,0,1,1.5.66,4.42,4.42,0,0,1,1.12,1.12,2.77,2.77,0,0,1,.46,1.58,3.29,3.29,0,0,1-.74,2.24,4.75,4.75,0,0,1-1.89,1.29,12.32,12.32,0,0,1-2.62.7l-2.87.49a20.92,20.92,0,0,0-2.59.63,4.25,4.25,0,0,0-1.89,1.16,12.39,12.39,0,0,0-.14,1.89v1.89c0,1,0,2-.07,3.15s-.06,2.25,0,3.39a25.48,25.48,0,0,0,.28,3.33,12,12,0,0,0,.81,2.94,2.64,2.64,0,0,0,1.4,1.15c.74.35,1.64.74,2.69,1.16s2.16.89,3.33,1.4a14.84,14.84,0,0,1,3.18,1.89,10.58,10.58,0,0,1,2.42,2.66,6.67,6.67,0,0,1,1,3.64,3.72,3.72,0,0,1-.84,2.52,3.06,3.06,0,0,1-2.45,1,4.05,4.05,0,0,1-2.63-.95,18.66,18.66,0,0,1-2.17-2.1,26.47,26.47,0,0,0-2.1-2.13,3.6,3.6,0,0,0-2.48-1c-.14,0-.39.33-.74,1s-.72,1.39-1.12,2.2-.8,1.61-1.22,2.38a5.61,5.61,0,0,1-1,1.51,9.45,9.45,0,0,1-2,1.12,14.74,14.74,0,0,1-2.52.77c-.89.19-1.77.32-2.63.42a22.77,22.77,0,0,1-2.34.14,20.23,20.23,0,0,1-4.45-.49,12.81,12.81,0,0,1-4-1.61,9.06,9.06,0,0,1-2.9-2.91,8.18,8.18,0,0,1-1.12-4.44,7.92,7.92,0,0,1,1.33-4.69,10.05,10.05,0,0,1,3.39-3.05,16.06,16.06,0,0,1,4.55-1.68,32.47,32.47,0,0,1,4.8-.66h.84a7.64,7.64,0,0,0,1.08-.07,2.7,2.7,0,0,0,.91-.28.68.68,0,0,0,.39-.63V146.37a.62.62,0,0,0-.7-.7h-9.59a3.63,3.63,0,0,1-2-.88,16.27,16.27,0,0,1-2.31-2.06,13.64,13.64,0,0,1-1.89-2.49,4.39,4.39,0,0,1-.77-2.13.56.56,0,0,1,.63-.63,2.89,2.89,0,0,1,1.19.28c.42.19.87.41,1.33.66a11.71,11.71,0,0,0,1.44.67,4.16,4.16,0,0,0,1.51.28h9.83a1.14,1.14,0,0,0,.66-.28,5.31,5.31,0,0,0,.6-.49ZM1031.91,170a2.85,2.85,0,0,0,.63,1.92,4,4,0,0,0,1.54,1.12,6.6,6.6,0,0,0,2,.49c.72.07,1.39.11,2,.11a22.51,22.51,0,0,0,3.5-.25,8,8,0,0,0,2.83-.94,4.92,4.92,0,0,0,1.93-2,7.81,7.81,0,0,0,.7-3.57,1,1,0,0,0-.56-.84,4.28,4.28,0,0,0-1.33-.32c-.61-.07-1.26-.11-2-.14l-2,0h-1.5a24.32,24.32,0,0,0-2.45.14,8.8,8.8,0,0,0-2.52.63,5.59,5.59,0,0,0-2,1.36A3.33,3.33,0,0,0,1031.91,170Z"/><line class="cls-3" x1="1035.63" y1="97.39" x2="1035.63" y2="1.53"/></g></g></g></g></svg>