<svg xmlns="http://www.w3.org/2000/svg" viewBox="0 0 300.75 281.66"><defs><style>.cls-1{fill:#4aa9a4;}.cls-2{fill:none;stroke:#fff;stroke-linecap:round;stroke-linejoin:round;stroke-width:3px;stroke-dasharray:11.95 11.95;}.cls-3,.cls-4{fill:#fff;}.cls-3{opacity:0.3;}</style></defs><title>twitter-share</title><g id="レイヤー_2" data-name="レイヤー 2"><g id="page-1"><g id="share"><circle class="cls-1" cx="147.05" cy="140.83" r="140.83"/><circle class="cls-2" cx="147.58" cy="141.13" r="129.29"/><path class="cls-3" d="M203.2,53.54a102.61,102.61,0,0,0-74.48-11.67A82.73,82.73,0,1,1,49.21,157.1a103,103,0,1,0,154-103.56Z"/><path class="cls-4" d="M36.68,90.87c-.54.38-1.58,1.25-2.23,1.25-1.36,0,.6-2.51.76-2.78-1.09.71-2.18,1.47-3.32,2.18-.49.33-1.8,1.42-2.4.87-.82-.81,2.78-3.43,3.27-3.92-1.15.82-2.34,1.63-3.54,2.4-.49.32-1,.6-1.53.87s-1.14.38-1.58.6c-.27.16-.65.49-.87.65-1.09.82-2.18,1.58-3.21,2.34.49-.38,3.54-2.56,4-1.3.28.81-1.85,1.74-2.34,2.07.44-.22,1.53-.66,1.64.16.05.22-.11.33-.22.49a8.05,8.05,0,0,1-1.58,1.09c-.71.49-1.36.93-2.07,1.36.6-.32,2.61-1.9,3.43-1.41,1.09.7-1.8,2.67-2.23,3,.54-.33,2.07-1.53,2.67-.82s-.77,1.63-1.2,2c.32-.16,1-.22.87.38-.06.38-.6.66-.87.82-2,1.47-3.93,2.83-5.89,4.3,1.69-1.09,3.33-2.23,5.07-3.21.44-.22,3.11-1.58,2.61-.11-.1.22-.43.38-.54.49-.65.49-1.36,1-2,1.47l-5.06,3.76c2.07-1.31,4.14-2.67,6.26-3.76.38-.22,1.36-.82,1.64-.22.22.33-.06.49-.28.66a12.49,12.49,0,0,1-2.23,1.58c-1,.7-2,1.36-2.89,2-2,1.36-3.92,2.73-5.83,4.14,2.18-1.3,4.2-2.78,6.27-4.19.44-.33,4.14-3.11,4.36-1.64.11.6-1.09,1.26-1.47,1.53-.93.71-1.86,1.36-2.78,2-2.07,1.48-4.09,2.89-6.05,4.53,2-1.26,4-2.56,6-3.82A30.78,30.78,0,0,1,24.21,111c.43-.21,1.36-.87,1.85-.54,1,.71-2.4,2.94-2.83,3.27-2,1.58-4,3-6,4.57l4.91-3.1c.59-.38,1.19-.76,1.85-1.15.32-.21,1.14-.87,1.58-.7,1.3.27-.71,1.74-1,2-1.47,1.2-3.05,2.34-4.57,3.48,1-.54,2-1.14,2.94-1.68a7.12,7.12,0,0,1,2-1c.39-.11.77,0,.82.44.06.65-1,1.36-1.52,1.74,1.19-.16.27,1-.06,1.31-1.25,1-2.56,2-3.87,2.88.87-.59,1.8-1.19,2.73-1.74.32-.22,1-.87,1.47-.82,1.41.28-.93,2-1.2,2.24.38-.22,2.23-1.2,1.8.11-.11.21-.55.49-.71.65-.65.6-1.25,1.14-1.85,1.74.76-.49,1.52-.92,2.23-1.41.22-.11.49-.44.71-.44,1.36-.11-.27,1.69-.44,1.91.66-.33.66.49.33.76a4.79,4.79,0,0,1-1.14.65c-1.31.66-.93-.59-.39-1.3-.54.32-2.61,2-3.26,1.41s.92-1.85,1.3-2.18c-.76.49-1.47.93-2.23,1.37a6.68,6.68,0,0,1-1.85,1.09c-.33.11-.76.11-.82-.39s.65-.92.87-1.14c-.81.49-2,1.53-3,1.58-.49.06-1-.22-.65-.76a4.49,4.49,0,0,1,1.47-1c1-.71,2-1.36,2.89-2.07l-2.78,1.8a8.61,8.61,0,0,1-2.24,1.14c-1,.28-.87-.59-.27-1,3.38-2.28,6.87-4.3,10.08-6.75-2,1.14-3.92,2.34-5.88,3.54-.93.54-1.86,1.09-2.78,1.69-.22.11-.71.54-1,.49-1.41-.22,1.42-2.13,1.58-2.23,2-1.53,3.92-2.95,5.89-4.42-2.18,1.36-4.31,2.84-6.6,4-.43.22-1.52.93-1.85.28-.16-.33.06-.44.22-.66a12.29,12.29,0,0,1,2.29-1.8c.92-.7,1.85-1.36,2.78-2.07,1.9-1.47,3.86-2.88,5.72-4.41-3,1.74-5.83,3.71-8.83,5.5-.33.22-.92.77-1.36.71-.71-.11-.44-.87-.16-1.31a20.77,20.77,0,0,1,4.14-3.48,23.3,23.3,0,0,1-3.33,2.07c-.49.22-2.07.65-1.69-.44.28-.71,1.58-1.41,2.13-1.8,1.09-.81,2.18-1.63,3.27-2.39a41.36,41.36,0,0,1-4.14,2.5c-.93.44-1.15-.32-.49-.92a31.79,31.79,0,0,1,3.87-3l4.57-3.44c-1.52,1-3,2-4.47,3-.6.38-1.19.76-1.79,1.09a4.16,4.16,0,0,1-1.37.82c-.92.11-.7-.71-.27-1.2a33.74,33.74,0,0,1,3.82-3.11c-1.1.66-2.13,1.31-3.22,1.91-.38.22-1.31,1-1.74.82-1.42-.44,2-2.34,2.23-2.51-.43.27-2.29.71-1.63-.43a7.77,7.77,0,0,1,2.18-1.53,97,97,0,0,0,7.9-5.94c-2.78,1.53-5.4,3.33-8.12,5-.44.28-2.07,1.69-2.56.93s1.58-2,2-2.23c-.38.16-1,.54-1.25,0s.65-1.15,1-1.42c-.43.22-1.58.55-1.42-.33.06-.38.71-.7,1-.92,2-1.58,4.08-3,6.15-4.52l-4.74,2.94c-.49.32-2.07,1.69-2.45.65s2.23-2.61,2.94-3.1c1.42-.93,2.89-1.75,4.31-2.56C23.39,91.74,26.71,89.94,30,88a43.61,43.61,0,0,0,3.92-2.34c.87-.6,2.24-1.31,2.73-2.29a7.34,7.34,0,0,0-3.11,1.26c-1.31.76-2.61,1.52-3.87,2.34-2.56,1.58-5.12,3.27-7.62,5-2.4,1.58-4.74,3.22-7.14,4.69-.54.32-2,1.41-2.56,1.09-1.14-.55.93-2,1.31-2.35-.77.11-1.09-.43-.77-1a6,6,0,0,1,1.64-1.47c1.36-1,2.72-1.91,4.14-2.89,3.05-2,6.21-4,9.21-6.1-3.27,2-6.54,4.14-9.81,6.15-1.42.82-2.83,1.75-4.3,2.46-.39.21-1.15.65-1.53.27-.71-.6.44-1.69.82-2.07-.44.27-4.36,2.61-4.36.92.05-.7,1.63-1.3,2.07-1.63,1.8-1.2,3.54-2.4,5.23-3.65a30.6,30.6,0,0,0,4.36-3.49,59.88,59.88,0,0,0-7.57,4.63C10.64,89,8.35,90.81,6,91.79c-.6.22-1.69.22-1.09-.65s1.85-1.47,2.61-2c2.45-1.74,4.9-3.43,7.36-5.12C11.89,85.64,9,87.49,6.17,89.34L2.58,91.63c-.49.27-1.53,1.2-2.13,1.2-.43-.06-.54-.33-.38-.71a2.26,2.26,0,0,1,1-.82c.49-.43,1.09-.81,1.63-1.2,2.56-1.79,5.12-3.59,7.68-5.44C8.57,85.75,6.77,86.89,4.92,88c-.6.33-2.51,1.91-3.21,1.58-1.15-.49,1.69-2.45,2-2.72,1.52-1.26,3.1-2.46,4.47-3.82-1.31.76-2.57,1.64-3.87,2.51a11.26,11.26,0,0,1-3,1.85c-.6.11-1-.16-.76-.76C.89,85.8,2.09,85,2.74,84.33c-.38.27-1.2.93-1.63.33-.33-.44,0-1.37,0-1.86-.33.17-.92.6-1.09,0s.49-.7.82-.87c1.52-.87,1.14.87,1,1.91.55-.38,2.73-2.56,3.33-1.63S3.4,84.93,2.9,85.36C4.1,84.6,5.3,83.78,6.5,83c.55-.38,2-1.58,2.72-1.41,1.42.38-.54,2.12-1,2.5C7.15,85.09,6,86,4.87,87c2.83-1.74,5.66-3.54,8.6-5.12.49-.27,1.91-.76,1.31.43-.54,1-2.34,1.91-3.21,2.62a47,47,0,0,1,4.52-2.62c.43-.21,2.83-1.19,2.34.11-.22.66-1.52,1.2-2.07,1.58-1.52,1.09-3,2.13-4.58,3.16,1.86-1.25,3.76-2.5,5.67-3.65.49-.32,4.3-2.88,4.09-1-.11.87-1.42,1.8-2.07,2.29-.82.71-1.69,1.36-2.56,2-1.8,1.3-3.65,2.61-5.56,3.86a82.27,82.27,0,0,0,8.72-5.55c1.14-.77,2.28-1.58,3.43-2.35.38-.21,1.9-1.47,2.18-.54.11.54-.87,1-1.2,1.2-1.25.82-2.45,1.69-3.71,2.5-2.56,1.8-5.44,3.55-7.51,5.89a99.8,99.8,0,0,0,9.8-5.94c.82-.55,7.63-5.34,8.23-4.3s-2.45,2.72-3.05,3.16c-1.58,1.09-3.16,2.12-4.74,3.16C20.34,90,16.85,92,14,94.46c2.56-1,4.9-2.94,7.19-4.52,2.51-1.74,5-3.49,7.52-5.17,1.09-.77,2.23-1.53,3.38-2.18a7.74,7.74,0,0,1,3.16-1.37c.59,0,1.25.39.81,1s-1.47.87-2,1.19c.7-.32,2.39-1.36,3.21-.65,1,.93-.93,2.29-1.58,2.72.33-.11.65-.11.82.28s-.33.7-.55.92c-1.25,1.36-2.78,2.56-4.14,3.87.82-.54,1.58-1.09,2.4-1.58.38-.27,1.14-1,1.69-1,1.36.11-.11,2.12-.44,2.61.17-.1,2.4-1.85,2.4-.65C37.88,90.38,37,90.7,36.68,90.87ZM24.15,89.51c-3.21,2-6.48,4-9.48,6.31,2.35-1.52,4.69-3.1,7-4.68ZM19.9,94.74a40.54,40.54,0,0,0-4.9,3.1c.49-.33,1-.65,1.52-1C17.67,96.15,18.76,95.44,19.9,94.74ZM17.67,105.3a64.45,64.45,0,0,0,6-4.08c-.11,0-.27.16-.38.22C21.32,102.63,19.52,104,17.67,105.3Zm15-17.76c-2.18,1.31-4.41,2.51-6.65,3.76,1.15.33,3.33-1.52,4.25-2.12S31.83,88.09,32.65,87.54Z"/><path class="cls-4" d="M88.16,97.4c-1.42,1.09-2.89,2.13-4.36,3.16,1.09-.65,2.18-1.36,3.27-2,.38-.27,1.25-1,1.8-.87,1.58.44-1.85,3-2.23,3.27.49-.22,2-.38,1.36.6-.44.65-1.8,1.2-2.45,1.63-2.51,1.69-5.07,3.38-7.47,5.23,2-1.3,3.92-2.67,5.94-3.92.44-.27,4.36-3,4.41-1.36.06.76-1.52,1.58-2.07,2-1,.71-2.07,1.36-3.1,2A53.69,53.69,0,0,0,77.65,111c1.79-1,3.48-2.23,5.17-3.38.93-.6,1.8-1.2,2.73-1.74.54-.33,1.3-1,2-1,1.79-.06-.38,1.8-.71,2-1.58,1.31-3.22,2.51-4.9,3.76.87-.54,1.74-1.09,2.61-1.58.49-.22,1.31-.81,1.85-.71,1.8.33-1.47,2.46-1.85,2.73.38-.22.44-.11.71-.11,0,0,.16.16.16.16.22,0,.38-.27.66-.21s.6.38.38.7-1.2.71-1.58,1c-1,.55-2,1.09-3,1.75.76-.44,2.13-1.42,3.11-1.31.76,0,.76.71.32,1.25a8.81,8.81,0,0,1-2.34,1.91c-1,.65-2,1.31-3,1.91.93-.49,1.8-1,2.73-1.53.32-.22,1.14-.82,1.58-.6,1.25.55-1.64,2.29-2,2.56-1.8,1.2-3.6,2.29-5.34,3.49a25.71,25.71,0,0,0-4.58,3.38,29,29,0,0,0,5.12-3.11c1.64-1.14,3.27-2.29,5-3.32.44-.27,1.31-1,1.91-.87s.43.76.16,1.19a27.19,27.19,0,0,1-4.19,4c.87-.49,1.68-1,2.56-1.53.27-.16.54-.38.87-.22.87.55-1.31,2.78-1.64,3.16.66-.38.93.33.44.77a4.91,4.91,0,0,1-1.42.81c-.71.22-.87-.22-.65-.76a18.1,18.1,0,0,1,1.8-2.4c-1.53.93-3,1.86-4.58,2.67-.43.22-1.58.44-1.09-.43a14.16,14.16,0,0,1,2.34-2c1.42-1.25,2.78-2.45,4-3.76-3.26,2-6.26,4.52-9.64,6.27-.49.27-1.47.87-2,.38-.71-.66.44-1.58.93-2a36.33,36.33,0,0,1,4.52-3.27c-2.34,1.41-4.69,2.94-7.14,4.25-.38.22-1.41.92-1.63.16s1.52-1.74,2.07-2.12c2.4-1.69,5-3.22,7.46-4.74a46.39,46.39,0,0,0,6.65-4.53c-3.22,1.37-6.21,3.6-9.1,5.51-1.36.87-2.67,1.74-4,2.56a5.8,5.8,0,0,1-1.74,1c-.6.06-.82-.43-.55-1-.48.17-1.47.06-1.14-.65.06-.22.38-.38.55-.49,1.79-1.31,3.59-2.51,5.33-3.87-.65.38-5.61,3.81-6,2.83-.27-.65,1.14-1.58,1.47-1.85,1.14-1.09,2.4-2.07,3.65-3.1-1.25.76-2.51,1.58-3.76,2.34-.33.22-1.36,1-1.58.27-.22-.6,1.14-1.31,1.47-1.52,1.25-.93,2.56-1.8,3.81-2.78-1,.65-2.12,1.3-3.16,2a14.44,14.44,0,0,1-2.28,1.31c-.38.1-.77.16-.82-.39-.11-.7,1.14-1.52,1.63-1.9-.32.16-.81.54-1.19.32s-.22-.6,0-.87a8.08,8.08,0,0,1,1.68-1.36c.66-.54,1.37-1,2-1.52-.65.38-1.8,1.47-2.56,1.52-.49.06-.65-.27-.49-.71.22-.6,1.14-1.25,1.63-1.69l2.62-2.45a33.14,33.14,0,0,1-5.12,3.16c-.44.17-1,.27-1.09-.38s1.2-1.58,1.69-2c-.38.22-1.75,1.2-1.8.16-.11-.71,1.36-1.63,1.8-2-.66.32-1.09,0-1.53.21-.6.22-1.2,1-1.74,1.37.49-.22,1.47-.33,1,.49a4.7,4.7,0,0,1-1.36,1.14c-2,1.64-3.92,3.22-5.83,4.9,1.25-.76,2.51-1.63,3.76-2.45.6-.38,1.91-1.58,2.67-1.47a.42.42,0,0,1,.44.33c.1.49-.28.43-.55.6-1.14.6-2.23,1.36-3.32,2.07s-2.24,1.58-3.43,2.23c-.33.17-1.15.38-1.31.6-.06,0-.06.27-.11.33a19.85,19.85,0,0,1-2,1.74c-1.09.93-2.18,1.85-3.22,2.83,2.67-1.63,5.34-3.26,8-4.84,1.09-.6,2.13-1.26,3.27-1.8.38-.22,1.74-.77,1.42.27-.22.54-1.42,1.14-1.86,1.47-1.19.93-2.45,1.85-3.7,2.72-2.45,1.86-4.9,3.66-7.3,5.45,3.76-2,7.36-4.41,11.06-6.7.38-.22,1.52-1.25,2-.6.71,1-2.61,3.27-3.21,3.71.49-.33,1.85-1.53,2.5-1.31.38.16.33.49.17.76-.33.6-1.42,1.15-2,1.53-1,.76-1.9,1.52-2.83,2.29.87-.49,1.69-1,2.51-1.58a9.52,9.52,0,0,1,1.52-1c.55-.22.77,0,.71.6a8.94,8.94,0,0,1-.76,1.91c-.06.16-.16.38-.22.54s0,.22.06.27c-.06.33.1.39-.22.66s-.82.22-.93-.27c-.11-.71.55-1.69.82-2.29-.82.6-1.69,1.14-2.51,1.63a5.44,5.44,0,0,1-2.18,1c-1.41.11-.38-1.2.11-1.64-.6.38-2.67,2-3.43,1.47-.54-.32-.16-.65.16-.92,2.35-1.91,5-3.49,7.36-5.51-2.45,1.53-4.85,3.06-7.3,4.58-1.26.71-2.45,1.42-3.71,2.07-.49.27-1.79,1.2-2.39.82-1.09-.71,2.77-3.11,3.26-3.43,2.46-1.91,4.91-3.71,7.36-5.56-2.94,1.74-5.88,3.6-8.83,5.34-.38.27-1.3.92-1.41,0s2.29-2.67,2.88-3.16c-.49.27-3.15,2.4-3.64,1.31-.28-.49.7-1,1-1.31l3.37-2.89c-.43.27-5.39,3.81-5.5,2.23,0-.65,1.36-1.52,1.8-1.85l3.59-3.1a41.27,41.27,0,0,1-3.59,2.18c-.38.21-1.47.54-1.2-.38.16-.5,1.09-1,1.42-1.26,1.09-1,2.18-1.9,3.27-2.83-1,.65-2.08,1.25-3.11,1.91-.44.27-1.42,1.09-2,1-1.52-.22,1.26-2.18,1.42-2.29-.49.33-1.36,1-2,1s-.66-.49-.44-.93c.38-.92,1.91-1.79,2.72-2.39a7.42,7.42,0,0,1-2.45,1.41c-.54.06-.82-.32-.54-.81a7.64,7.64,0,0,1,1.8-1.48c1-.7,1.9-1.41,2.88-2.12-1.25.82-2.5,1.58-3.76,2.34-.32.17-2,1.2-1.74,0,.16-.49,1.2-1.09,1.58-1.36,1.09-.87,2.18-1.8,3.21-2.67a35,35,0,0,1-4,2.34c-.43.22-1.85.87-1.74-.16,0-.82,1.74-1.8,2.29-2.23,1.2-1,2.39-2,3.59-3-1.52.93-3,2-4.68,2.78-.33.16-1,.6-1.26.11s.55-1.15.93-1.42c-.6.27-2,.49-1.47-.6.33-.76,1.36-1.36,2-1.85-.49.27-2,1.14-2.23.22-.17-.66.87-1.36,1.31-1.75,1.58-1.41,3.32-2.67,5-4-1.14.77-2.23,1.47-3.37,2.18-.55.38-1.86,1.53-2.62,1.36-1.25-.27,1-2.18,1.42-2.56-.49.33-1.69,1.37-2.29,1.15-.82-.33-.11-2.24,0-2.78-.76.22-.44-.65-.17-.93s.71-.43,1-.22c.54.39-.22,2.29-.27,2.78,1-.6,2.07-1.3,3.1-2,.33-.16,1.86-1.09,1.53.06-.11.43-.82,1-1.15,1.25L44.9,97.51c1.53-.92,3-2,4.47-2.83.44-.27,1.91-1.31,2-.22.11.6-.93,1.31-1.31,1.64-.6.54-1.31,1.09-2,1.58-1.36,1.09-2.78,2.12-4,3.32a59.3,59.3,0,0,0,5.66-3.6c.44-.32,2.94-2.45,3.44-1.63s-2.73,2.67-3.22,3c-1.74,1.31-3.59,2.56-5.28,4,2.45-1.47,4.68-3.43,7.24-4.8.44-.27,1.75-.65,1.42.44s-2.34,2-3.16,2.56c.87-.54,1.74-1,2.56-1.58.38-.16,1.09-.82,1.47-.71,1.09.27-.11,1.09-.44,1.36-2.72,2.18-5.5,4.36-8.17,6.65,1.64-.87,3.27-1.91,4.85-2.94l2.23-1.42c.33-.22.77-.71,1.15-.71,1.2-.21.22,1-.11,1.26-1.42,1.3-2.89,2.5-4.36,3.7.82-.54,1.64-1,2.45-1.52.38-.17,1-.71,1.47-.6,1.37.27-.81,2-1.09,2.18.44-.28,2.51-1.86,3-1,.16.32,0,.49-.22.7-.76,1-2.34,1.75-3.37,2.51-1.31.87-2.56,1.8-3.82,2.78,1.2-.76,2.4-1.58,3.54-2.4.49-.27,1.91-1.52,2.56-1.2,1.26.66-2.88,3.27-3.27,3.6a41.88,41.88,0,0,1,3.71-2.29c.33-.16.93-.38,1,.27,0,.49-1,1.26-1.31,1.47-1,.93-2.12,1.86-3.16,2.78.77-.54,1.58-1,2.35-1.52a6.12,6.12,0,0,1,1.68-.93c.49,0,.71.22.55.71s-.65.65-.93.92c-.6.6-1.25,1.15-1.9,1.69-1.2,1-2.45,2-3.65,3,1.36-.81,2.72-1.68,4.08-2.56.76-.54,2.13-1.79,3.11-1.85-.82-.76,2-2.23,2.39-2.56,1.86-1.25,3.71-2.51,5.45-3.87-1.25.82-2.45,1.64-3.7,2.45a13.87,13.87,0,0,1-3.05,1.69c-.77.22-1.2-.21-.77-1a8.79,8.79,0,0,1,2.46-2.23c-.6.27-1.91,1.14-2.51.54-.33-.32-.22-.54.05-.81a8.45,8.45,0,0,1,2-1.31c.87-.49,1.74-1,2.61-1.58A96.84,96.84,0,0,0,71.76,97.9c-2.89,1.63-5.66,3.48-8.5,5.23-1.3.81-2.61,1.63-3.92,2.39-.43.22-2.07,1.47-2.4.49s2-2.07,2.62-2.45c1.42-1,2.94-2,4.41-2.89a77.4,77.4,0,0,0,7.41-5.06A68.38,68.38,0,0,0,65,99.37c-1,.6-2,1.25-2.94,1.85a17,17,0,0,1-2.45,1.58c-.49.16-1,0-.76-.66s1.3-1.14,1.85-1.58c2.07-1.47,4.19-2.88,6.26-4.35-2,1.19-4,2.5-5.93,3.81-.44.33-2.89,2.4-3.38,1.58-.44-.65,1.31-1.53,1.69-1.74,1.69-1.2,3.48-2.35,5.12-3.65-.93.54-1.85,1.19-2.78,1.85a5,5,0,0,1-2,1.2c-1.58.22.38-2,.71-2.35-.82.49-1-.54-1.31-1.14-.27.16-.66.38-.87,0s.27-.71.6-.87c.87-.44,1,.38,1.3,1.09.39-.22,2.67-2.18,2.89-.93.11.71-1.47,1.85-1.91,2.34a29.28,29.28,0,0,1,3.44-2.28c.54-.28,2.18-.6,1.58.54.54-.33,3.16-2.18,3.7-1.09.38.71-1.31,1.58-1.69,1.85a22.36,22.36,0,0,1,3.54-1.9c.77-.28,1.69-.06,1.09.92S70.62,97.3,69.64,98c-1.36,1-2.73,1.85-4.14,2.72,2.18-1.3,4.3-2.72,6.53-3.92.44-.22,1.37-.87,1.75-.22s-1,1.64-1.42,2c1.31.43-1.14,1.69-1.31,1.8-1.79,1.2-3.59,2.45-5.39,3.65,2.34-.93,4.25-3,6.54-4,1.14-.55,1.85.1.92,1.14a19.49,19.49,0,0,1-3.32,2.72c.6-.38,1.64-1.41,2.4-1.52.43-.06.76.22.6.65s-1,1-1.36,1.25c-1,.82-2,1.58-3,2.4,1.31-.76,2.56-1.58,3.87-2.34.33-.16,1.15-.66,1.25,0s-1.41,1.42-1.74,1.69c-1.42,1-2.83,2-4.14,3.16,1.2-.77,2.34-1.58,3.54-2.35.55-.32,2.13-1.68,2.84-1.36,1.19.6-3.22,4.09-3.66,4.52.5-.32,2.46-1.9,3.16-1.58,1,.49-.7,1.75-1,2,.38-.16,1.25-.76,1.58-.22.16.38-.11.6-.27.82a32.34,32.34,0,0,1-4.47,3.32c1.63-.92,3.21-2,4.85-2.88.33-.17,1.91-1.31,1.91-.17,1.09-1.52,3.1-2.56,4.63-3.54s3.26-2.07,4.84-3.16c-2.72,1.64-5.28,3.54-8,5.18-.49.32-1.8,1.36-2.18.54s1.69-2.23,2.18-2.61c-.38.21-1.8.65-1.31-.38.33-.93,2-1.69,2.73-2.18,2.61-1.8,5.34-3.44,7.79-5.4C85,100.84,83,102,81,103.23c-.49.33-3.1,2.29-3.54,1.47s2.18-2.28,2.62-2.61c1.9-1.36,3.81-2.67,5.66-4-1.52.87-3.05,1.8-4.57,2.72-.55.27-1.86,1.42-2.51,1.36-1.47-.1,1-2,1.14-2.17,1.42-1.09,2.84-2.18,4.31-3.27-1.36.81-2.67,1.63-4,2.45-.43.27-1.52,1.25-2.07,1.2-.87-.11-.22-.93.06-1.26,1.09-1,2.28-2,3.37-2.94-.7.44-1.41.93-2.12,1.42-.38.27-1.15.92-1.69.87-.71-.11-.38-.82-.27-1.31,0-.27.38-.92.33-1.2-.06-.11-.39-.16-.39-.43s.49-.66.77-.71c1.25-.22.32,1.91.16,2.4,1-.6,2-1.31,3-2,.6-.39,2.07-1.69,2.83-1.42,1.31.54-2.18,3.1-2.56,3.38.66-.38,5.4-3.82,5.89-2.67.27.6-.93,1.36-1.31,1.63-1.09.93-2.29,1.8-3.43,2.67,1.79-1.09,3.59-2.12,5.39-3.16.44-.27,1.47-1.09,1.91-.49C90.39,96,88.65,97,88.16,97.4ZM60.38,111.35c-.77.44-1.53.93-2.29,1.42a4.08,4.08,0,0,1-1.64.76c.71.6-2.12,2.51-2.5,2.83-1,.93-2.07,1.8-3.16,2.73,1-.6,1.9-1.26,2.83-1.91A7.38,7.38,0,0,0,55.36,116c.06,0,.11-.33.17-.44a5.61,5.61,0,0,1,1.14-1.09c.76-.71,1.53-1.36,2.29-2C59.45,112.11,59.89,111.73,60.38,111.35Zm5.28-6.54c-.16-.21-.38-.38-.16-.7a74.37,74.37,0,0,0-7.57,5.72c2.66-1.53,5.06-3.71,7.89-4.91C66,104.81,65.72,104.92,65.66,104.81Zm5.94-3.48c-1.74,1.09-3.54,2.78-5.45,3.48.16,0,.6.33.55.38C68.28,103.89,70,102.69,71.6,101.33Zm4.3,10.46a7.57,7.57,0,0,1-.92.87c1.14-.55,1.63.16.76.92-1.69,1.53-3.49,2.89-5.18,4.36.88-.49,1.75-1,2.67-1.58.55-.32,1.58-.65,2-1.2a3.18,3.18,0,0,0,.17-.54,7.76,7.76,0,0,1,1.31-1.14c2.77-2.18,5.61-4.2,8.39-6.32-1.91,1.19-3.76,2.56-5.67,3.76C79,111.19,75.74,113.48,75.9,111.79Zm-.81,5.66c-.44-.16-.39,0-.77.28s-.71.54-1.09.81c-.76.6-1.58,1.15-2.34,1.75.06-.06.16-.11.22-.17C72.42,119.2,73.72,118.32,75.09,117.45ZM83,112.06c-2.07,1.31-4.24,2.51-6.26,4,.87-.49,1.69-1,2.56-1.58C80.53,113.69,81.73,112.88,83,112.06Zm-2.83.71c1.2-.77,2.45-1.47,3.65-2.29-.6.38-1.2.76-1.8,1.09Z"/><path class="cls-4" d="M108.8,124.37c-.54.33-1.09.66-1.69,1-.32.22-.81.71-1.25.71-1.52,0,1-2.45,1.2-2.67-1.14.71-2.29,1.53-3.49,2.13-.38.21-1.52.54-1.25-.39.16-.43,1-.87,1.42-1.14,1-.76,2-1.58,2.94-2.4-.87.6-7.74,5.72-8.34,4.31-.43-1,2.29-2.56,3-3,1.52-1.14,3.16-2.29,4.73-3.38-2.17,1.31-4.3,2.73-6.42,4.09a16.78,16.78,0,0,1-3,1.74c-.38.17-1.37.38-1.15-.43.11-.39,1-.77,1.25-1,1-.71,2-1.42,3-2.13,2.07-1.42,4.2-2.89,6.21-4.41-1.74,1.14-3.48,2.34-5.28,3.54-.87.54-1.69,1.14-2.62,1.63a3.7,3.7,0,0,1-1.9.93c-1.8-.22,1.09-2.51,1.47-2.78,1.79-1.36,3.65-2.56,5.5-3.81l-4.25,2.61c-.44.28-2,1.42-2.56,1s.27-1,.6-1.31c1.25-1,2.5-1.85,3.81-2.72-.54.32-4.79,3.27-5.17,2.18-.22-.55.6-.93.92-1.15,1-.76,2.07-1.41,3.11-2.12-.49.27-2.84,1.9-3.16.76s2.23-2.62,2.89-3.11c2.67-2.07,5.55-3.92,8.22-6a65.61,65.61,0,0,0-6,4c-.43.33-4.3,3.33-4.52,1.91-.05-.49.71-.87,1-1.09.88-.65,1.75-1.31,2.62-2,1.91-1.48,3.87-3,5.66-4.53-2.34,1.47-4.63,3.11-7.08,4.47-.43.27-1.85,1.31-2.34.65s1-1.63,1.42-2c-.33.17-2.35,1.42-2.35.28,0-.44.77-.71,1-.88,2.61-1.74,5.17-3.43,7.68-5.28-1.91,1.25-3.87,2.56-5.88,3.65-.6.38-1.75,1.14-2.45.93-.93-.22-.33-1,.1-1.42,3.27-2.78,7.41-4.47,10.74-7.25-2.24,1.2-4.36,2.67-6.49,4.09-1.09.71-2.18,1.42-3.32,2.07-.38.22-1.8.82-1.47-.22.11-.49,1.14-.92,1.47-1.2,1-.7,2.12-1.41,3.16-2.18a75,75,0,0,0,6.37-4.68c-3,1.8-5.77,4.25-8.93,5.83-.82.38-2.13.38-1.36-.87s2.56-2.24,3.7-3.11c-.43.27-3.38,2.62-3.76,1.69-.21-.38.33-.87.49-1.09.71-.87,1.47-1.63,2.18-2.45-.43.27-1.41,1.2-2,1.2-1.2,0,0-1.8.16-2.29,0-.16.11-.27.16-.44l-.16-.16c0-.33-.11-.27.16-.6a1.25,1.25,0,0,1,.66-.33c1,.17-.06,2-.27,2.4.38-.22,3.92-2.78,3.81-1.36,0,.27-.44.6-.6.76-.76.87-1.58,1.75-2.34,2.62,1.79-1.15,3.65-2.35,5.5-3.43.27-.17,3.21-1.75,2.51-.22-.22.49-1.15.92-1.58,1.2l-2.51,1.85c-1.58,1.14-3.22,2.29-4.69,3.59,2.73-1.58,5.23-3.54,7.9-5.23.49-.27,2.51-1.79,2.89-.65.27.93-2.07,2.34-2.67,2.83.44-.27,2.62-1.74,2.67-.38.11,1.09-2.18,2.29-2.94,2.83-2.56,1.75-5.23,3.33-7.79,5.07,2.83-1.52,5.5-3.38,8.17-5.17.55-.33,1.69-1.48,2.29-1.09,1,.54-1.26,2.28-1.64,2.56.38-.22,2.18-.93,1.69.27-.21.49-1.25.87-1.63,1.2-2.51,1.69-5,3.37-7.36,5.17,1.42-.87,2.84-1.85,4.25-2.78,1.15-.7,2.4-1.85,3.71-2.23.82-.22,1.09.38.6,1.09a17.38,17.38,0,0,1-3.76,3.38c.82-.55,1.63-1.09,2.45-1.58.54-.33,1.53-1,2.18-.66,1.31.66-1.53,2.46-2,2.78-3,2.24-6.32,4.25-9.1,6.81a79,79,0,0,0,8.77-5.39c.38-.22,1.64-1.36,1.74-.27s-3,2.88-3.7,3.37c1.36-.87,2.72-1.74,4.08-2.56.39-.21,1.42-.6,1.2.28,0,.21-.43.49-.6.6a18.74,18.74,0,0,1-1.74,1.3L102.92,116c.93-.6,1.85-1.14,2.78-1.74a11,11,0,0,1,2-1.15c.39-.16.82-.16.88.39,0,.7-1.15,1.41-1.58,1.74-3.16,2.4-6.65,4.3-9.7,6.75,3.21-1.85,6.21-4.19,9.42-6.1.38-.22,3.16-1.63,2.51-.05-.22.54-1.14,1-1.58,1.36-.76.6-1.58,1.2-2.4,1.74.76-.43,1.47-.92,2.24-1.36.43-.22,1.09-.71,1.58-.6,1.36.17-.17,1.42-.55,1.75-2.67,2.17-5.66,3.92-8.33,6,2.45-1.36,4.68-3.16,7.13-4.57.44-.28,1.36-.88,1.64-.11s-1.15,1.69-1.58,2.07c.32-.22,2.23-1.53,2.07-.22-.06.11-.28.27-.33.38-.49.6-1,1.2-1.53,1.8.5-.33,1.37-1.09,2-1C110.44,123.61,109.18,124.15,108.8,124.37Zm-13-41.57a6.55,6.55,0,0,0,.44-1c0-.21-.11-.38,0-.54.16-.65,1.47-1.2,1.36-.11a10,10,0,0,1-.77,1.53c.82-.55,1.64-1.09,2.46-1.58.38-.22,1.3-.93,1.79-.77,1.42.55-2.34,3.6-2.78,4a53.87,53.87,0,0,1,6.43-3.92c.71-.27,1.2.06.82.82-.38.93-1.69,1.69-2.45,2.23.54-.32,4.52-3.32,5.07-2.5.65,1-3.55,3.81-4.2,4.3,1.15-.71,2.23-1.42,3.43-2.07.49-.27,1.64-1.09,2.24-.71,1.25.87-3.11,4-3.71,4.47.38-.27,2.4-1.8,2.51-.55,0,.49-.77,1.31-1,1.69.27-.21.92-.7,1.36-.54a.44.44,0,0,1,.27.6,3.42,3.42,0,0,1-.87.49c-.55.27-1,.71-1.58,1-.76.44-1.25.11-.82-.7.33-.55.71-1.09,1-1.64-1.2.82-2.34,1.8-3.6,2.51-.65.27-1.58.27-1.14-.66s1.91-1.79,2.72-2.5c1.2-1,2.45-2,3.54-3a71.27,71.27,0,0,0-6.15,3.81c-.82.54-1.64,1.09-2.45,1.58-.39.27-1.2,1-1.75.87-1.25-.38,1.09-1.91,1.31-2.07,1.85-1.47,3.76-2.94,5.61-4.41C104,84,97,88.8,96.44,87.76c-.38-.71,1.36-1.52,1.74-1.8,1.63-1.14,3.32-2.28,4.9-3.54l-3.76,2.29c-.59.38-1.25.76-1.85,1.15-.32.16-.82.59-1.2.54-1.14,0-.27-1,.06-1.42,1-1,2.12-2,3.16-3-.87.49-1.69,1.09-2.56,1.63-.33.22-.82.71-1.31.55S95.57,83.19,95.78,82.8Z"/><path class="cls-4" d="M143.07,104.11c-1.25.27-.44-1.86-.33-2.4-.76.49-1.47,1-2.23,1.47-.38.22-1.2.87-1.69.76-1.25-.27.44-1.9.71-2.23-2.07,1.25-4.14,2.45-6.27,3.59,1.26-.11.39,1,0,1.31l-2.29,1.8c-1.25,1-2.56,2.07-3.81,3.1,2.12-1.3,4.19-2.72,6.43-3.81.38-.22,1.19-.71,1.47-.22.16.28,0,.44-.11.66-.44.6-1.53,1-2.13,1.41-1,.6-2,1.26-2.94,1.86a56.73,56.73,0,0,0-5.61,4c1.91-1.2,3.76-2.61,5.67-3.87.54-.38,4.19-3.1,4.46-1.58.11.71-1.2,1.48-1.69,1.8-.87.71-1.79,1.31-2.67,1.91-1.79,1.2-3.54,2.34-5.28,3.65,2.29-1.25,4.36-2.72,6.54-4.14a10.15,10.15,0,0,1,2.61-1.64c.38-.16.93,0,.71.55s-1.09.82-1.42,1c-1,.66-2,1.37-3.05,2a46,46,0,0,0-5.93,4.41c2.56-1.41,5-3.16,7.46-4.68.6-.38,2.18-1.75,2.89-1.47,1.41.49-1.37,2.56-1.75,2.83.66-.27,1.86-.38,1.47.65-.27.77-1.36,1.42-2,1.91-1.8,1.42-3.71,2.67-5.45,4.09a62.32,62.32,0,0,0,5.67-3.55c.54-.32,2.94-2.39,3.54-1.74.76.87-5.89,5.4-6.65,6,1.91-1.2,3.76-2.56,5.61-3.81.87-.6,1.8-1.2,2.67-1.75a6.22,6.22,0,0,1,2.24-1.09c.49-.11,1.09.17.81.77a7.15,7.15,0,0,1-1.36,1.14c-1.74,1.36-3.49,2.72-5.18,4.09,2.4-1.53,4.91-3.49,7.58-4.47.71-.27,1.58-.17,1.09.71s-2.07,1.79-3,2.39c.38-.21,2.4-2,2.67-.81.11.6-.93,1.36-1.25,1.74-.77.87-1.58,1.69-2.35,2.51.93-.55,1.8-1.15,2.73-1.75.33-.22.87-.82,1.31-.71.87.28-.11,1.91-.28,2.35.38-.17,1.31-.93,1.53-.22.11.49-.76.82-1.09,1s-1.2.93-1.53.38.39-1.58.55-2.07c-.76.49-3.65,3-4.52,2.18s2-3.11,2.45-3.65c-1.85,1.14-3.65,2.29-5.56,3.38-.33.16-3.32,1.9-2.83.38.11-.33.65-.6.92-.76.82-.6,1.64-1.09,2.46-1.64,1.74-1.2,3.48-2.34,5.17-3.59-2.39,1.36-4.68,2.88-7,4.35-.54.28-3.86,2.89-4.35,2-.22-.33.16-.6.38-.82.76-.71,1.58-1.31,2.39-2,2.08-1.63,4.09-3.27,6.16-4.9-2.89,1.85-5.56,4-8.5,5.72-.49.22-2.5,1.14-2.07-.17.11-.38.71-.81,1-1.08.66-.55,1.31-1,1.91-1.58a19.69,19.69,0,0,1-4,2.34c-1,.32-1.63-.22-.87-1.09a22.61,22.61,0,0,1,3.76-3c1.31-1,2.72-1.9,3.92-3a45,45,0,0,0-6.59,4,27.73,27.73,0,0,1-2.67,1.8c-.27.16-.54.33-.82.06-.65-.88,3-2.89,3.44-3.22,2.12-1.47,4.3-2.83,6.31-4.47-2.45,1.53-4.84,3.16-7.29,4.63-.5.28-1.91,1.37-2.51.82-.76-.6.65-1.74,1-2.07-.92.33-1.41-.33-.81-1a11.82,11.82,0,0,1,2.61-2c2.18-1.53,4.41-2.94,6.54-4.52-2.51,1.52-4.79,3.38-7.25,4.9-.49.33-2,1.36-2.39.6s1-1.8,1.47-2.12c-.44.21-1.64,1.25-2.18,1s-.27-.54-.06-.82a17.06,17.06,0,0,1,2.46-2c1.79-1.41,3.59-2.88,5.39-4.3-2,1.36-4,2.83-6,4-.49.33-1.69,1.14-2.23.55-.66-.77.65-1.8,1.14-2.18-.92,0-1-.6-.54-1.09a23.42,23.42,0,0,1,3.38-2.45c-.6.32-3.33,1.9-3.11.21.11-1.36,2.51-2.78,3.43-3.54-.54.33-2,1.53-2.67,1.25s-.11-1,.22-1.36a48.25,48.25,0,0,1,6-4.46c-2,1.25-3.92,2.5-5.93,3.65-.71.38-1.86,1.19-2.73,1.09-.6-.06-.76-.5-.43-1,.43-.77,1.52-1.31,2.23-1.86.93-.65,1.91-1.36,2.83-2,2.13-1.47,4.25-2.89,6.27-4.42-4.09,2.46-8.12,5.13-12.32,7.52-.38.22-3.43,2.29-3.48,1-.06-.6,1-1.2,1.41-1.47.93-.71,1.91-1.36,2.89-2-.76.43-4.41,2.94-5.12,1.63-.27-.6.65-1.36,1-1.74.87-.87,1.8-1.69,2.67-2.51-.65.44-1.36.82-2,1.25-.28.17-.71.6-1,.66-1.09.27-.49-1-.27-1.53a4.48,4.48,0,0,0,.65-1.36c.11-.33,0-.54.38-.71,1.42-.49.17,1.75,0,2.07,1-.6,2-1.25,3.05-1.8.49-.27,1.47-.7,1.42.22s-1.53,1.8-2.07,2.29c-.87.82-1.8,1.64-2.62,2.56a20.31,20.31,0,0,0,4.47-2.4c1.64-1,3.27-2.07,4.85-3.1s3-2,4.52-3a17.37,17.37,0,0,1,3.6-2.23c.38-.22,1-.38,1.09.27.05.44-.6.87-.87,1.09-1.37,1.15-2.84,2.07-4.25,3-3.16,2.13-6.32,4.14-9.43,6.27,3-1.75,5.89-3.6,8.83-5.4.71-.43,5.61-3.92,6.15-2.94.38.66-1,1.53-1.41,1.85-1.2,1-2.45,1.86-3.71,2.73-2.67,1.9-5.39,3.7-8,5.66a67.6,67.6,0,0,0,7.14-4.3c1-.65,2.07-1.36,3.1-2.07.38-.22,1.25-1,1.74-1,1.69,0-1.09,2.46-1.36,2.67-2.18,1.69-4.47,3.22-6.64,4.85,3.05-1.74,6-3.59,9.09-5.45a15.22,15.22,0,0,1,2.89-1.68c.6-.17,1,.21.55.76-.28.38-1,.65-1.42.92-.71.44-1.42.93-2.13,1.37-1.47,1-3,1.9-4.46,2.94s-2.89,2-4.25,3.05a12.64,12.64,0,0,0-2.89,2.56,31.31,31.31,0,0,0,5.07-2.67c1.85-1.09,3.65-2.18,5.45-3.32,2.66-1.64,5.22-3.27,7.84-5,.22-.11.65-.49.93-.49.43,0,.54.38.32.76-.05.11-.38.22-.49.33l-2,1.31c-5.61,3.7-11.33,7.41-16.78,11.33a56.9,56.9,0,0,0,6.81-3.92c2.4-1.58,4.74-3.16,7.14-4.74l2.89-2c.76-.43,1.79-1.41,2.66-1.41,1.37-.11.28,1.47-.16,1.85-1,.93-1.85,2-2.72,2.94.76-.43,1.47-.92,2.18-1.41.27-.17.76-.6,1.09-.49.76.32.11,1.9,0,2.45.27-.17.81-.6,1.09-.17S143.45,104,143.07,104.11ZM122,84.66c.38.21.33,1.14.38,1.47.87-.49,1.69-1,2.56-1.53.28-.16.77-.65,1.15-.65,1.58-.11-1.2,2.94-1.42,3.21.82-.49,1.63-1,2.45-1.41a11.64,11.64,0,0,1,2.4-1.42c.54-.11.82.22.54.71s-1.19,1-1.63,1.36a55,55,0,0,0-5.12,4.3,46.37,46.37,0,0,0,6.21-4c1-.71,2-1.37,2.94-2,.49-.27,1.53-1,2-.6.92.87-2.89,3-3.44,3.33-1.9,1.3-3.86,2.61-5.82,3.92,2.34-1.42,4.57-3.11,7-4.47.32-.16.92-.6,1.25-.11.44.71-1.09,1.64-1.47,2,.38-.16,1-.43,1.42-.16s.43.6.11.82-.71-.06-1.09,0a10.55,10.55,0,0,0-1.15.6,58.8,58.8,0,0,0-5.39,3.54c-.55.33-2.62,2.29-3.21,1.64-.77-.82,2-2.46,2.5-2.84-.49.33-2.34,1.69-2.89.93S123,92,123.4,91.63c-.92.38-1.69,0-1.14-1a14.25,14.25,0,0,1,3.1-2.89c-.43.27-.92.55-1.41.82-.27.16-1,.76-1.36.65-1.15-.38,1.85-3.1,2.17-3.48-.54.32-2.06,1.58-2.72,1.41s-.49-1-.6-1.47C120.57,85.69,121.33,84.28,122,84.66Zm7.3,22.88c-1.47.81-3,1.63-4.41,2.56a14.44,14.44,0,0,0-2.73,2.07,24.38,24.38,0,0,0,2.89-1.75C126.51,109.44,127.92,108.46,129.34,107.54Z"/><path class="cls-4" d="M176.68,104.11c-1.25.27-.44-1.86-.33-2.4-.76.49-1.47,1-2.23,1.47-.38.22-1.2.87-1.69.76-1.25-.27.44-1.9.71-2.23-2.07,1.25-4.14,2.45-6.27,3.59,1.26-.11.39,1-.05,1.31l-2.29,1.8c-1.25,1-2.56,2.07-3.81,3.1,2.12-1.3,4.19-2.72,6.43-3.81.38-.22,1.2-.71,1.47-.22.16.28,0,.44-.11.66-.44.6-1.53,1-2.13,1.41-1,.6-2,1.26-2.94,1.86a57.93,57.93,0,0,0-5.61,4c1.91-1.2,3.76-2.61,5.67-3.87.54-.38,4.19-3.1,4.46-1.58.11.71-1.19,1.48-1.69,1.8-.87.71-1.79,1.31-2.66,1.91-1.8,1.2-3.55,2.34-5.29,3.65,2.29-1.25,4.36-2.72,6.54-4.14a10.15,10.15,0,0,1,2.61-1.64c.38-.16.93,0,.71.55s-1.09.82-1.41,1c-1,.66-2,1.37-3.06,2a46,46,0,0,0-5.93,4.41c2.56-1.41,5-3.16,7.46-4.68.6-.38,2.18-1.75,2.89-1.47,1.41.49-1.36,2.56-1.75,2.83.66-.27,1.86-.38,1.47.65-.27.77-1.36,1.42-2,1.91-1.8,1.42-3.71,2.67-5.45,4.09a62.32,62.32,0,0,0,5.67-3.55c.54-.32,2.94-2.39,3.54-1.74.76.87-5.89,5.4-6.65,6,1.91-1.2,3.76-2.56,5.61-3.81.87-.6,1.8-1.2,2.67-1.75a6.22,6.22,0,0,1,2.24-1.09c.49-.11,1.09.17.81.77a7.15,7.15,0,0,1-1.36,1.14c-1.74,1.36-3.49,2.72-5.17,4.09,2.39-1.53,4.9-3.49,7.57-4.47.71-.27,1.58-.17,1.09.71s-2.07,1.79-3,2.39c.38-.21,2.4-2,2.67-.81.11.6-.93,1.36-1.25,1.74-.76.87-1.58,1.69-2.34,2.51.92-.55,1.79-1.15,2.72-1.75.33-.22.87-.82,1.31-.71.87.28-.11,1.91-.28,2.35.39-.17,1.31-.93,1.53-.22.11.49-.76.82-1.09,1s-1.2.93-1.53.38.39-1.58.55-2.07c-.76.49-3.65,3-4.52,2.18s2-3.11,2.45-3.65c-1.85,1.14-3.65,2.29-5.56,3.38-.32.16-3.32,1.9-2.83.38.11-.33.65-.6.93-.76.81-.6,1.63-1.09,2.45-1.64,1.74-1.2,3.48-2.34,5.17-3.59-2.39,1.36-4.68,2.88-7,4.35-.55.28-3.87,2.89-4.36,2-.22-.33.16-.6.38-.82.76-.71,1.58-1.31,2.4-2,2.07-1.63,4.08-3.27,6.15-4.9-2.89,1.85-5.56,4-8.5,5.72-.49.22-2.5,1.14-2.07-.17.11-.38.71-.81,1-1.08.66-.55,1.31-1,1.91-1.58a19.69,19.69,0,0,1-4,2.34c-1,.32-1.63-.22-.87-1.09a22.61,22.61,0,0,1,3.76-3c1.31-1,2.72-1.9,3.92-3a45.56,45.56,0,0,0-6.59,4,27.73,27.73,0,0,1-2.67,1.8c-.27.16-.54.33-.82.06-.65-.88,3-2.89,3.44-3.22,2.12-1.47,4.3-2.83,6.32-4.47-2.46,1.53-4.85,3.16-7.3,4.63-.49.28-1.91,1.37-2.51.82-.76-.6.65-1.74,1-2.07-.93.33-1.42-.33-.82-1a11.82,11.82,0,0,1,2.61-2c2.18-1.53,4.42-2.94,6.54-4.52-2.51,1.52-4.79,3.38-7.25,4.9-.49.33-2,1.36-2.39.6s1-1.8,1.47-2.12c-.44.21-1.64,1.25-2.18,1s-.27-.54-.06-.82a17.06,17.06,0,0,1,2.46-2c1.79-1.41,3.59-2.88,5.39-4.3-2,1.36-4,2.83-6,4-.49.33-1.69,1.14-2.23.55-.65-.77.65-1.8,1.14-2.18-.92,0-1-.6-.54-1.09a23.42,23.42,0,0,1,3.38-2.45c-.6.32-3.33,1.9-3.11.21.11-1.36,2.51-2.78,3.43-3.54-.54.33-2,1.53-2.67,1.25s-.11-1,.22-1.36a48.25,48.25,0,0,1,6-4.46c-2,1.25-3.92,2.5-5.93,3.65-.71.38-1.86,1.19-2.73,1.09-.6-.06-.76-.5-.43-1,.43-.77,1.52-1.31,2.23-1.86.93-.65,1.91-1.36,2.83-2,2.13-1.47,4.25-2.89,6.27-4.42-4.09,2.46-8.12,5.13-12.31,7.52-.39.22-3.44,2.29-3.49,1-.06-.6,1-1.2,1.41-1.47.93-.71,1.91-1.36,2.89-2-.76.43-4.41,2.94-5.12,1.63-.27-.6.65-1.36,1-1.74.87-.87,1.8-1.69,2.67-2.51-.65.44-1.36.82-2,1.25-.28.17-.71.6-1,.66-1.09.27-.49-1-.27-1.53a4.48,4.48,0,0,0,.65-1.36c.11-.33-.05-.54.38-.71,1.42-.49.17,1.75,0,2.07,1-.6,2-1.25,3-1.8.49-.27,1.48-.7,1.42.22s-1.52,1.8-2.07,2.29c-.87.82-1.8,1.64-2.61,2.56a20.25,20.25,0,0,0,4.46-2.4c1.64-1,3.27-2.07,4.85-3.1s3-2,4.52-3a17.37,17.37,0,0,1,3.6-2.23c.38-.22,1-.38,1.09.27,0,.44-.6.87-.87,1.09-1.37,1.15-2.84,2.07-4.25,3-3.16,2.13-6.32,4.14-9.43,6.27,3-1.75,5.89-3.6,8.83-5.4.71-.43,5.61-3.92,6.15-2.94.38.66-1,1.53-1.41,1.85-1.2,1-2.45,1.86-3.71,2.73-2.67,1.9-5.39,3.7-8,5.66a67.6,67.6,0,0,0,7.14-4.3c1-.65,2.07-1.36,3.1-2.07.38-.22,1.25-1,1.74-1,1.69,0-1.09,2.46-1.36,2.67-2.18,1.69-4.46,3.22-6.64,4.85,3-1.74,6-3.59,9.09-5.45a15.54,15.54,0,0,1,2.89-1.68c.6-.17,1,.21.55.76-.28.38-1,.65-1.42.92-.71.44-1.42.93-2.12,1.37-1.48,1-3,1.9-4.47,2.94s-2.89,2-4.25,3.05a12.64,12.64,0,0,0-2.89,2.56,31.31,31.31,0,0,0,5.07-2.67c1.85-1.09,3.65-2.18,5.45-3.32,2.66-1.64,5.23-3.27,7.84-5,.22-.11.65-.49.93-.49.43,0,.54.38.32.76,0,.11-.38.22-.49.33l-2,1.31c-5.61,3.7-11.33,7.41-16.78,11.33a56.9,56.9,0,0,0,6.81-3.92c2.4-1.58,4.74-3.16,7.14-4.74L174,99c.76-.43,1.79-1.41,2.67-1.41,1.36-.11.27,1.47-.17,1.85-1,.93-1.85,2-2.72,2.94.76-.43,1.47-.92,2.18-1.41.27-.17.76-.6,1.09-.49.76.32.11,1.9,0,2.45.27-.17.81-.6,1.09-.17S177.06,104,176.68,104.11Zm-21-19.45c.38.21.33,1.14.38,1.47.87-.49,1.69-1,2.56-1.53.28-.16.77-.65,1.15-.65,1.58-.11-1.2,2.94-1.42,3.21.82-.49,1.64-1,2.45-1.41a11.64,11.64,0,0,1,2.4-1.42c.54-.11.82.22.54.71s-1.19,1-1.63,1.36A55,55,0,0,0,157,90.7a46.37,46.37,0,0,0,6.21-4c1-.71,2-1.37,2.94-2,.49-.27,1.53-1,2-.6.92.87-2.89,3-3.43,3.33-1.91,1.3-3.87,2.61-5.83,3.92,2.34-1.42,4.57-3.11,7-4.47.33-.16.93-.6,1.25-.11.44.71-1.09,1.64-1.47,2,.38-.16,1-.43,1.42-.16s.43.6.11.82-.71-.06-1.09,0a10.55,10.55,0,0,0-1.15.6,58.8,58.8,0,0,0-5.39,3.54c-.54.33-2.62,2.29-3.21,1.64-.77-.82,2-2.46,2.5-2.84-.49.33-2.34,1.69-2.89.93s.66-1.36,1.09-1.69c-.92.38-1.69,0-1.14-1A14.08,14.08,0,0,1,159,87.76c-.44.27-.93.55-1.42.82-.27.16-1,.76-1.36.65-1.15-.38,1.85-3.1,2.18-3.48-.55.32-2.07,1.58-2.73,1.41s-.49-1-.6-1.47C154.18,85.69,154.94,84.28,155.65,84.66Zm7.3,22.88c-1.47.81-3,1.63-4.41,2.56a14.06,14.06,0,0,0-2.72,2.07,25.08,25.08,0,0,0,2.88-1.75C160.12,109.44,161.54,108.46,163,107.54Z"/><path class="cls-4" d="M213.45,111.84c.27-.16.93-.76,1.31-.71.76.11.33.71,0,.93a27.39,27.39,0,0,1-3.16,1.85c-.27.11-2.45,1.58-2,.16.11-.32.81-.76,1.09-1,1-.81,1.9-1.68,2.78-2.56-1.42.88-2.73,1.8-4.15,2.67-.38.28-2.45,1.91-2.72.87-.16-.54.82-1.14,1.09-1.41,1.25-1.15,2.56-2.29,3.76-3.43-1.58,1-3.22,2-4.85,2.94-.82.43-1.58.92-2.4,1.36-.43.22-1.25.87-1.79.76-1.2-.22.21-1.36.6-1.63,1.52-1.25,3.21-2.34,4.84-3.49-2.5,1.58-5,3.33-7.68,4.69-.38.21-1.8,1-1.8,0,0-.43.77-.82,1-1,4.47-3.27,9-6.37,13.24-9.91a34.4,34.4,0,0,0-6.32,3.7c-2.29,1.47-4.47,3-6.7,4.47a37.44,37.44,0,0,1-5.94,3.65,28.43,28.43,0,0,0-6.37,4.25c1.68-.93,3.32-2,4.95-3.11.22-.16,2.73-2.23,2.78-1,0,.7-1.52,1.63-1.91,2-1.36,1.25-2.72,2.5-4,3.81,1.42-.82,2.73-1.74,4-2.61.44-.28,1.53-1.37,2-.71.76,1.09-3.65,3.87-4.31,4.36l4.09-2.78c.54-.38,2.61-2.13,3.27-1.42s-.77,1.42-1.09,1.69c-1.37,1.14-2.73,2.23-4,3.32,1.52-.92,3-1.9,4.57-2.88.6-.39,2.56-2,3.27-1.69,1.36.49-1.25,2.5-1.63,2.83-1.37,1.09-2.78,2.18-4.14,3.27,2.45-1.47,4.84-3,7.24-4.58.49-.27,5.39-3.54,5.39-2.07,0,.38-.65.66-.92.87-1.09.71-2.18,1.42-3.27,2.18-2.34,1.47-4.69,3-6.86,4.63,2.23-1.19,4.35-2.67,6.48-4.08,1.09-.76,2.23-1.47,3.32-2.18.71-.44,2-1.53,2.89-1.42s.43,1,.05,1.42a16.57,16.57,0,0,1-2.88,2.34c-2.13,1.58-4.31,3-6.38,4.58a67.45,67.45,0,0,0,6.59-4c1-.65,2.07-1.36,3.11-2,.27-.22.93-.82,1.31-.71,1.3.27-.93,1.74-1.09,1.85a46,46,0,0,0-5.56,4.74c2-1.15,3.7-2.67,5.72-3.71,1.42-.76,1.25.39,1,1.42.76-.22.54.6.21.87-.16.17-.65.49-.87.44-.76-.11-.22-1.47-.11-1.91-2,1.09-3.65,2.56-5.61,3.65-.49.27-1.85,1-1.74-.22,0-.92,1.36-1.79,2-2.34a39.23,39.23,0,0,1-5.28,3c-1.37.54-2.13-.17-1-1.15,2.84-2.56,6.32-4.35,9.27-6.81-3,1.69-5.83,3.76-8.72,5.67-.76.44-1.53.93-2.34,1.36-.44.22-1.2.76-1.75.71-1.68-.22.66-2,1-2.29-.76.44-2.13,1.58-3.05,1.69-1.09,0-.71-.87-.22-1.36,1.74-1.85,4-3.22,5.94-4.85-1.64,1-3.27,2.07-4.9,3.05-.82.55-1.64,1-2.46,1.53-.43.21-1.3.87-1.85.76-.82-.11-.43-.66-.05-1,1.36-1.3,3-2.45,4.46-3.7-1,.71-2,1.42-3,2.07-.66.44-1.75,1.36-2.62,1.36-.71.06-.81-.49-.43-1a10.4,10.4,0,0,1,2.18-1.86c-.44.28-3.27,2.07-2.95.39.11-.44.77-1,1.09-1.26l2-2c-.82.55-1.69,1.09-2.57,1.58-.54.27-1.47,1-2.07.76-1.41-.43.71-2,1.15-2.28-.65.32-3.27,2-3.87.87-.44-.93,1.58-2.24,2.12-2.67-.48.27-1.85.87-2-.11-.1-.76,1-1.58,1.48-2,1.85-1.69,3.86-3.21,5.88-4.74-1.47.93-2.94,1.91-4.41,2.89a19.32,19.32,0,0,0-1.75,1.2,4.27,4.27,0,0,1-1,.6c-1,.27-.55-.87-.11-1.31a20.16,20.16,0,0,1,3.76-3.1c-.82.49-1.58,1-2.34,1.47-.33.21-1,.7-1.37.54-1.63-.65,2.07-3.43,2.45-3.7a18.61,18.61,0,0,1-3.26,2.12c-.49.16-1-.05-.66-.65s1.85-1.31,2.51-1.75c1.31-.87,2.61-1.68,3.92-2.5,2.67-1.69,5.29-3.32,7.9-5.07a39.93,39.93,0,0,0,6.81-5,57,57,0,0,0-6,3.81c-2.24,1.53-4.42,3-6.65,4.47a36.79,36.79,0,0,1-5.66,3.32c-.66.28-2.18.88-2.29-.32,0-.93,1.25-1.8,1.85-2.35-1.14,0-.38-1.25,0-1.63-.54,0-1-.38-.7-.87s.87-.76,1.19-1c1.8-1.31,3.6-2.51,5.29-3.87-.49.33-2.73,2.18-3.33,1.36-.32-.6.71-.76,1-1a23.15,23.15,0,0,0,2.45-1.52c.49-.28,2.4-2,2.94-1.2.66.92-2,2.61-2.5,3-1.58,1.26-3.22,2.4-4.85,3.54a83.84,83.84,0,0,0,8.44-5.33c.38-.22,4.09-3.16,4.14-1.8,0,.6-1.41,1.2-1.79,1.41L192.64,98c-2.51,1.69-5.45,3.1-7.63,5.23,3.54-1.58,6.81-4.09,10.08-6.21,1.58-1,3.11-2.07,4.8-3,.32-.22,1.09-.76,1.47-.49s.32.49.16.76a6.39,6.39,0,0,1-1.31.82c-.71.44-1.47.87-2.23,1.31-1.74,1-3.54,2.12-5.29,3.21s-3.7,2.35-5.44,3.6c-1.2.82-3.11,1.91-3.82,3.21a7.89,7.89,0,0,0,3-1.41c1.15-.66,2.29-1.37,3.38-2.07,2.18-1.42,4.31-2.89,6.48-4.36,2-1.31,3.93-2.73,6-3.87.55-.27,1.69-1,2-.11s-1.3,2-1.9,2.45c.7-.38,3-1.79,3.59-.76.49-.33,1.31-.76,1.31.11,0,.54-.76,1.14-1.09,1.47-.6.65-1.25,1.31-2,2,.6-.43,5-3.92,5.45-2.67.16.55-.66,1-1,1.26-.88.7-1.8,1.41-2.73,2.12a17,17,0,0,1,3-1.85c.54-.17,1.2-.06,1,.65-.17.49-1.09,1.15-1.53,1.47-.92.93-2,1.8-2.88,2.73,1.3-.82,2.61-1.58,4-2.4a8.32,8.32,0,0,1,2.4-1.42c.33,0,.54,0,.65.33.28.93-1.52,2-2.12,2.51.43-.28,1.31-.93,1.85-.82.16,0,.27.22.38.22a.18.18,0,0,1,.06.16,3,3,0,0,1,.6-.11c1.36.11.54,1.15,0,1.58-2.62,2.34-5.56,4.36-8.39,6.43,1.79-1.15,3.59-2.29,5.39-3.38.54-.33,3.32-2.45,3.76-1.47s-2,2.07-2.4,2.4c-1.74,1.25-3.54,2.45-5.28,3.7,1.52-.92,3.1-1.85,4.63-2.83a12.15,12.15,0,0,1,2.5-1.53c1.26-.27.33,1.09,0,1.47-1.09,1.2-2.34,2.29-3.54,3.38.77-.54,1.58-1,2.35-1.52a7.44,7.44,0,0,1,2-1.15c1.36-.38.71,1,.22,1.58Zm-3.76-9.8c-1.36.81-2.67,1.63-4,2.45-.49.27-1.69,1.25-2.23,1-1.31-.49,3.54-4.42,3.92-4.8-1,.66-2,1.37-3,2-.49.33-1.64,1.36-2.29,1.2-1.47-.33,1.2-2.29,1.47-2.51-.33.22-2.56,1.42-2.07.06.16-.44.82-.82,1.09-1.09.76-.77,1.53-1.47,2.29-2.24-1.85,1.2-3.65,2.4-5.61,3.44a4.28,4.28,0,0,1-1.09.49,1.69,1.69,0,0,1-.71,0,8.54,8.54,0,0,0-2.78,1.52c-1.91,1.14-3.87,2.29-5.72,3.54a24.68,24.68,0,0,0-4.41,3.38c1.69-1,3.38-2.18,5.06-3.27.82-.49,1.69-1,2.57-1.52.43-.22,1.25-.82,1.74-.6,1.2.43-.66,1.41-1,1.63-1.64,1.14-3.27,2.34-4.91,3.54,1-.65,2-1.25,3.06-1.85a6.48,6.48,0,0,1,2.45-1.14c1.3-.17.76.76.22,1.19-1.64,1.2-3.27,2.4-4.85,3.65a31.62,31.62,0,0,0-4.31,3.71c3.16-1.31,6-3.6,8.83-5.45,1.41-.93,2.78-1.85,4.19-2.72.38-.22,2.51-1.26,2,.11-.1.21-.6.43-.81.59l-2.13,1.48c-1.52,1-3,2-4.46,2.94s-3.11,2.07-4.64,3.1a22.48,22.48,0,0,0-3.26,2.67c2.07-.49,4.08-2,5.82-3.16,2-1.25,4-2.56,5.94-3.92,3.49-2.29,7.14-4.47,10.52-6.92C207.57,103.72,208.66,102.91,209.69,102Zm-14.27,0c2.34-1.42,4.74-2.78,7.14-4.14-.44.22-.82.44-1.2.65C199.34,99.69,197.38,100.89,195.42,102.09Z"/><path class="cls-4" d="M244.72,98c.76,0,1.09.44.65,1a9.74,9.74,0,0,1-2.45,1.8c.38-.22,1.36-1.09,1.8-.49.33.43-.06,1.52-.11,2,.33-.21,1.31-.65,1.09.22-.06.33-.76.6-1,.76-1.47.77-.92-1.19-.81-2.07-.87.55-5.51,4.31-6.32,3.22-.11-.22-1.25.65-1.53.81-.49.33-1,.66-1.52,1-1.15.7-2.24,1.47-3.38,2.17.38-.21,2.12-.87,1.69.28-.11.32-.6.6-.82.81-.71.49-1.36,1-2.07,1.53.38-.22,2.51-.93,1.91.27-.27.55-1.36,1-1.8,1.42-2.45,1.74-4.85,3.54-7.25,5.34,2.13-1.36,4.14-2.84,6.32-4.2.55-.32,1.58-1.2,2.29-1,.49,0,.55.43.33.81a7.8,7.8,0,0,1-2.24,1.75c-1,.76-2,1.41-2.88,2.18a35.66,35.66,0,0,0-4.8,3.87,56.81,56.81,0,0,0,5.29-3.49c.6-.44,3.21-2.73,4-2s-1.91,2.29-2.34,2.61c-1.69,1.26-3.44,2.4-5.12,3.65,2-1.09,3.86-2.29,5.77-3.48.38-.28,2.34-2,2.62-1,.16.49-.6.92-.93,1.14-.76.65-1.58,1.2-2.4,1.8-1.74,1.25-3.48,2.45-5.12,3.81,1.53-.93,3-1.91,4.58-2.89.71-.43,1.41-.87,2.18-1.3.43-.28,1.25-1,1.79-.93,1.26,0,.22,1-.16,1.36-1.31,1.2-2.61,2.34-3.81,3.65.87-.54,1.74-1.14,2.61-1.74.33-.22,1.09-.87,1.53-.66.92.44-1,2.18-1.26,2.51.22-.16.6-.54.93-.54.55,0,.55.49.22.81a11.08,11.08,0,0,1-2.07,1.26c-.38.16-.82.38-1-.06-.27-.6.88-1.52,1.15-1.91-.44.33-3.82,2.84-3.76,1.15.05-.44.65-1,1-1.31a25,25,0,0,1,2.12-2.12c-2.34,1.41-4.57,3.1-7,4.3-.66.27-1.53.16-1.09-.76s1.9-1.75,2.78-2.45c-.66.38-2.51,1.85-3.33,1.52-1.31-.43,1.25-2.12,1.64-2.4-.44.22-1.37.88-1.91.39s.11-1.15.44-1.48a23.11,23.11,0,0,1,3.7-3.15c-1.2.81-2.72,2.12-4.14,2.5-.71.16-1.31,0-.93-.76.22-.49,1-.93,1.37-1.2.59-.54,1.25-1,1.85-1.47,1.47-1.15,3-2.23,4.46-3.32-1.74,1.14-3.48,2.34-5.23,3.43-.38.22-1.08.87-1.52.54-.22-.16-.22-.38-.11-.65s.82-.65,1.09-.87c.82-.6,1.63-1.15,2.4-1.75,1.74-1.25,3.48-2.5,5.23-3.81-1.8,1.09-3.6,2.18-5.4,3.32a21.75,21.75,0,0,1-1.9,1.2c-.28.22-.93.82-1.31.82-1.36.05.16-1.47.49-1.69,1.31-1,2.72-2,4.14-2.89,6.1-4.08,12.53-7.84,18.52-12.09a52.71,52.71,0,0,0-6.15,3.54c-2.24,1.36-4.42,2.67-6.6,4.09-3.26,2.12-6.48,4.41-9.91,6.37-.38.27-1.36,1-1.91.76s-.16-.87.17-1.14a29.83,29.83,0,0,1,4.68-3c3.92-2.39,8-4.74,11.88-7.19,1.9-1.2,3.92-2.23,5.77-3.49a14.67,14.67,0,0,0,3.71-2.88c-1.26,0-2.73,1-3.71,1.58-1.25.71-2.5,1.47-3.7,2.23-2.62,1.64-5.18,3.38-7.74,5.07-2.4,1.63-4.79,3.32-7.3,4.9a9.44,9.44,0,0,1-2.61,1.42c-1.31.16-.66-1.37-.17-1.91-1.63-.38,2.24-3,2.62-3.27,2-1.36,3.92-2.72,5.83-4.19-1.64,1.09-3.22,2.12-4.85,3.16-.65.43-3,2.23-3.87,1.68s1.15-2,1.47-2.23c1.58-1.25,3.22-2.4,4.85-3.59-1.63,1-3.21,2.07-4.9,2.94-.38.22-1,.6-1.42.32s.16-1.19.44-1.52c2.56-2.51,5.93-4.2,8.77-6.37-2,1.19-3.92,2.5-5.83,3.75-.44.33-2.83,2.29-3.32,1.42s1.63-1.8,2.07-2.12c1.74-1.26,3.54-2.51,5.17-3.93-1.47.88-2.89,1.86-4.3,2.78-.71.49-1.42,1-2.18,1.42-.33.22-1,.71-1.47.6-.93-.33,0-1,.32-1.31,1.26-1.2,2.56-2.34,3.71-3.65l-2.23,1.42a4.6,4.6,0,0,1-1.15.76c-1,.16-.49-.93-.33-1.42a1.78,1.78,0,0,0,.22-.6c0,.17-.11-.65-.11-.21,0-.39.06-.77.6-.88,1.09-.21.38,1.15.22,1.69a22.9,22.9,0,0,1,2.34-1.47c.38-.22,1.15-.82,1.58-.6,1.37.55-1.74,3.27-2.18,3.65a43.09,43.09,0,0,1,5.29-3.38c.43-.21,1.25-.43,1.31.33s-.82,1.31-1.26,1.69c.55-.38,2.94-2.18,3.49-1.2.49.82-1.31,1.91-1.8,2.29-2.45,1.8-5.12,3.38-7.52,5.28,2.18-1.25,4.31-2.61,6.49-4,.43-.27,3.37-2.51,3.59-1.36.11.54-.71,1-1,1.25-.87.76-1.8,1.42-2.73,2.12-2,1.42-3.92,2.84-5.83,4.31,2-1.15,3.93-2.45,5.89-3.76.43-.27,3.43-2.62,3.27-.93-.11.82-1.31,1.58-1.91,2.07-.82.66-1.74,1.31-2.62,2-1.79,1.26-3.59,2.51-5.33,3.87a22.9,22.9,0,0,0,2.72-1.74c1.14-.71,2.23-1.36,3.38-2,2.45-1.41,4.9-2.83,7.3-4.36,2.18-1.36,4.3-2.72,6.43-4a21.29,21.29,0,0,1,2.45-1.41c.54-.22,1.58-.22,1,.65.87-.16,1.91.33,1.25,1.31A8.65,8.65,0,0,1,244.72,98Zm-17.16,7.84c-1.31.77-2.56,1.58-3.87,2.29a9.77,9.77,0,0,0-3,2.13c.88-.44,1.75-1,2.62-1.58C224.72,107.7,226.14,106.77,227.56,105.79Zm8.12-9.42c.49-.33,1.9-1.69,2.56-1.36.87.43-.6,1.09-.93,1.31-.6.38-1.8,1.63-2.61,1.36C233.82,97.13,235.29,96.59,235.68,96.37Z"/><path class="cls-4" d="M286.23,118.49c-3,1.9-5.89,4.25-9.1,5.72-.54.22-2.12.49-1.58-.49a3.22,3.22,0,0,1,.82-.66c.7-.54,1.47-1.09,2.18-1.63-.88.6-1.75,1.14-2.67,1.69a6.11,6.11,0,0,1-2,1.09c-.38,0-.71-.06-.82-.49-.1-.66.88-1.26,1.31-1.58-.38.22-1.91,1.47-2.29.71-.16-.33.17-.6.38-.82,1.75-1.74,3.93-3.11,5.73-4.74-1.31.87-2.67,1.69-4,2.5-1,.66-2.5,1.86-3.75,2s-.44-1.25,0-1.74a47.68,47.68,0,0,1,4.08-3.49c-.71.49-6,4.69-6.54,3.16-.27-1,1.64-2.07,2.24-2.56,1.3-1,2.72-2,4-2.94-1.31.82-2.62,1.69-3.92,2.45-.66.38-2.24,1.69-3,1.47-1.69-.54,3.16-4.3,3.7-4.68a53.6,53.6,0,0,1-4.63,3c-.38.21-1.3.76-1.63.11-.22-.44.16-.77.43-1,2.67-2.51,6.05-4.14,8.72-6.59-2.56,1.47-5,3.32-7.52,4.85-.49.27-1.74,1.25-2.18.38s1.31-1.85,1.8-2.24c-.38.22-1.8,1.31-2.34,1.09s-.16-.7.05-1a22.27,22.27,0,0,1,3.11-2.29c1.25-.93,2.56-1.8,3.81-2.72-1.09.76-2.23,1.52-3.37,2.28-.6.39-1.8,1.48-2.62,1.37-.65-.06-.6-.66-.27-1a10.78,10.78,0,0,1,2.72-2c-.87.49-2.78,2-3.87,1.63-1.36-.38.22-1.8.77-2.23-1-.22-.55-.93,0-1.26,1.3-.81,2.72-1.58,4.08-2.39,3.33-2,6.65-3.87,10-5.89s6.7-4,10-6.21c1.58-1,3.11-2,4.63-3.16a10.54,10.54,0,0,0,2.94-2.67c-2.56.6-4.57,2.78-6.75,4.2-2.45,1.63-5,3.16-7.57,4.68s-5,2.73-7.41,4.25c-2.13,1.37-4.2,2.67-6.38,3.93-.43.32-3.37,2.23-3.54,1-.11-.55.93-.93,1.31-1.15l2.78-1.63c2.23-1.2,4.57-2.34,6.7-3.71s4.41-2.88,6.64-4.3c2.07-1.36,4.2-2.67,6.32-4,1.09-.65,2.18-1.31,3.33-2a6.66,6.66,0,0,0,2.34-2c-3.6,2-7,4.41-10.46,6.59s-6.76,4.36-10.24,6.32a24.47,24.47,0,0,1-4.09,2.13c-.6.21-1.74.49-1.74-.44-.06-.65.76-1.25,1.2-1.63,5.88-4.85,13.24-7.63,19.28-12.21-6,3-11.33,7.08-17.16,10.3-.43.27-1.47.65-1.2-.33.11-.27.55-.49.77-.65a19.32,19.32,0,0,1,1.74-1.36c2.94-2.24,5.94-4.36,8.88-6.54-3.27,1.85-6.48,3.87-9.7,5.88-1.31.82-2.56,1.58-3.87,2.35-.32.21-2.12,1.25-1.74.1.11-.43,1-.7,1.31-.92l4.57-2.78c2.67-1.69,5.89-3.38,8.12-5.67a18,18,0,0,0-4.25,2.29c-1.52.93-3,2-4.46,2.94-1.31.93-2.67,1.86-4,2.73-.92.65-2.34,1.9-3.48,2.07s-.82-.71-.27-1.15c1.14-1,2.5-1.74,3.7-2.61a82.89,82.89,0,0,0,7.57-5.39c-2.78,1.09-5.28,3-7.73,4.68a84.39,84.39,0,0,1-7.58,4.9c-.27.17-.87.55-1.25.33-.71-.38-.11-1.2.27-1.58a21.28,21.28,0,0,1,3.6-2.72c2.67-1.75,5.39-3.38,8.12-5.07-2.95,1.63-5.78,3.49-8.61,5.28-1.31.88-2.56,1.69-3.87,2.51-.49.33-1.8,1.47-2.4,1.36-1.3-.16.55-1.69.88-2,1.19-.92,2.5-1.8,3.81-2.67,2.4-1.63,5.17-3.16,7.3-5.23a44.71,44.71,0,0,0-8,4.63c-2.24,1.47-4.47,2.94-6.76,4.36-.38.27-1.53,1.15-1.8.33s1.69-2.13,2.24-2.56c2.28-1.8,4.79-3.38,7-5.34-2.61,1.42-5,3.21-7.46,4.79-.38.22-1.42,1-1.8.38s1-1.68,1.47-2.07c-.49.17-.65-.27-.54-.65.22-.71,1.58-1.53,2.07-2-.44.33-2.07,1.8-2.73,1.42s.44-2,.6-2.51c.06-.27-.16-.32.11-.65a3.9,3.9,0,0,1,.38-.22c.38-.11.66-.11.71.33s-.6,1.36-.82,1.74c.77-.49,1.48-1,2.24-1.47.38-.27,1.31-1,1.8-.81,1.14.32-.55,1.74-.88,2,.82-.54,1.64-1.09,2.51-1.58.44-.27,1.31-.93,1.85-.76,1.42.49-1.25,2-1.52,2.23.6-.38,2.5-1.85,3.32-1.47s0,1.25-.38,1.64a73.73,73.73,0,0,1-6.48,5c3.27-2.13,6.59-4.36,10-6.32.65-.38,3.37-2.18,4-1.15s-2,2.56-2.67,3A38.72,38.72,0,0,1,271,85.53c.49-.22,1.86-.55,1.58.49-.11.54-1.3,1.09-1.74,1.36a9.51,9.51,0,0,1,3.32-1.58c1.53-.16.77,1.14.11,1.69a34.87,34.87,0,0,1,3.93-2.18c.7-.27,2.61-.38,1.74.93a15.42,15.42,0,0,1,2.18-1.2c.38-.22,1.09-.66,1.47-.55.87.17.38.77,0,1.09-2.4,2.07-5.07,3.82-7.63,5.67,3.38-2.07,6.76-4.25,10.3-6.16.54-.27,2.56-1.58,2.78-.43s-2.46,2.45-3.16,2.94c-3.22,2.12-6.54,4-9.86,6q-2.37,1.39-4.74,2.94a15,15,0,0,0-3.44,2.62c2.57-.66,5.07-2.51,7.3-3.87,2.73-1.69,5.4-3.38,8.07-5.07,2.29-1.47,4.57-3,6.86-4.41,1-.6,1.91-1.2,2.89-1.74s1.91-.28,1.25,1c.49-.22,1.47-.76,2-.38s.32.87.05,1.36A12.82,12.82,0,0,1,293,89a11,11,0,0,1,2.89-1.69c1.25-.33.82,1,.27,1.58,1.2.55-1.74,2.83-2.12,3.16.38-.22,1.74-1.42,2.18-.71.27.33-.06,1-.11,1.42.92-.11.27,1-.27,1.14-1,.22-.66-1-.55-1.58-.87.49-1.69,1.09-2.56,1.58-.33.22-.87.66-1.25.38-.87-.76,2.12-3,2.56-3.43-3,1.8-6.1,3.65-9.15,5.45a9.19,9.19,0,0,1-1.64.87c-.43.17-.65.06-1,.22a19.88,19.88,0,0,0-2.78,1.53c-.82.54-1.64,1.09-2.45,1.57,1.36.77-2.45,3.11-2.89,3.44.54-.22,1.36-.06,1.09.65-.16.44-.76.76-1,1-1.63,1.31-3.32,2.45-5,3.65,1.64-1,3.27-1.91,4.9-2.89.39-.21,1.42-.65,1,.33-.16.49-1.09.93-1.47,1.2-.82.54-1.58,1.09-2.4,1.63a59.09,59.09,0,0,0-4.9,3.44c1.47-.93,2.83-1.86,4.25-2.84a21,21,0,0,1,3.81-2.28c.49-.17,1-.22,1.15.43s-.77,1.2-1.15,1.58c-1.2,1-2.5,2-3.81,2.94,1.09-.76,2.56-2.18,3.92-2.39.65-.11,1,.21.71.81a3.08,3.08,0,0,1-1,.87c-.6.55-1.25,1-1.9,1.58a47.47,47.47,0,0,0-3.65,3.11c1.85-1,3.65-2.23,5.5-3.38.49-.32,2.78-2.23,3.32-1.47.71,1-2.39,2.89-2.94,3.32a57.14,57.14,0,0,0-5,3.71c2-1.2,3.93-2.67,5.94-4,.44-.33,3-2.4,3.54-1.36.38.82-2,2.18-2.45,2.51-1.8,1.47-3.65,2.88-5.34,4.46a53.46,53.46,0,0,0,5-2.94,31.57,31.57,0,0,1,3.59-2.34c.55-.22,1-.16.93.54s-1,1.31-1.42,1.75l-2.28,2c1.74-1.09,3.48-2.29,5.34-3.27.32-.22,1.08-.71,1.52-.49.82.38,0,1.25-.38,1.58.38-.22,1.58-1.09,2-.44.22.38-.16.71-.44.93a45.52,45.52,0,0,1-5,3.7c1.52-1,3.05-2,4.63-3,.76-.55,1.52-1,2.34-1.53.33-.16.87-.6,1.25-.38,1.09.55-.92,2.13-1.3,2.45-1.47,1.26-3,2.45-4.53,3.65,1.48-1,2.95-2.07,4.42-3.05.65-.43,2.88-2.23,3.65-1.41,1,1-5.12,4.79-5.89,5.33,1.2-.81,2.46-1.63,3.71-2.39.38-.28,1.52-1.2,2.07-.87,1.09.65-2.51,2.83-2.84,3.16.44-.28,2.73-2.08,3.16-1.26s-1.74,2.18-2.17,2.51c.7.11.43,1.25.43,1.74.33-.16,1.31-.82,1.31,0,0,.44-.71.71-1,.82-1.19.65-1.14-.33-1.14-1.31-.44.33-2.4,2-2.89,1.09s2-2.29,2.4-2.61c-1,.49-1.91,1.09-2.83,1.63a3,3,0,0,1-1.26.65c-1.47-.16,1.2-2.23,1.31-2.28-.87.54-1.74,1.14-2.67,1.68a5.49,5.49,0,0,1-1.8.88c-1,.1-.87-.6-.38-1.15a41.58,41.58,0,0,1,4-2.89c1.53-1.08,3-2.17,4.47-3.32-2.56,1.53-4.91,3.43-7.41,5-.44.28-2.51,1.91-3,.93-.33-.6.87-1.2,1.25-1.53C281.54,122.19,284,120.45,286.23,118.49ZM268.52,88.85c-3.38,2-7,4-10,6.54.38-.22.71-.44,1.09-.65C262.58,92.83,265.47,90.76,268.52,88.85Zm1.69,15.69c-2.12,1.2-4.68,2-6.43,3.81.11,0,.22,0,.28-.1A39.72,39.72,0,0,0,270.21,104.54ZM265.36,106a10.42,10.42,0,0,0,1.09-.65C266.07,105.58,265.69,105.79,265.36,106Zm9.37-5.5c2.84-1.63,5.61-3.21,8.34-5C280.29,97.19,277.51,98.82,274.73,100.51Zm5.18,18.14a9.2,9.2,0,0,1,1-.6c-.55.27-1,.6-1.58.93C279,119.2,279.85,118.71,279.91,118.65Zm8.39-12.37c.54-.32,2.61-2.12,3.32-1.58s-.43,2.13-.65,2.67c.49-.38,1.36-.11.76.55a3.08,3.08,0,0,1-1.14.65c-1.86.87-.17-2.18.05-2.72-.93.54-1.85,1.2-2.78,1.8-.38.21-1.36,1-1.85.6-.76-.66,2.07-3,2.45-3.44-.33.22-3.16,2.73-3.32,1.53-.06-.33.33-.6.49-.76.71-.82,1.42-1.58,2.07-2.4-1,.6-2,1.25-3,1.85-.27.16-.87.71-1.31.71-1.52-.22,1.69-2.72,1.91-2.94a12,12,0,0,1-2.12,1.25c-1.69.44.6-2.78.87-3.21-.33.21-1.2,1.14-1.69,1.09-1.09-.17.11-1,.44-1.26s2.07-1.79,2.61-1-1.09,2.34-1.42,2.84l3.44-2c.32-.21,1.14-.7,1.2.11s-1.53,1.75-2.08,2.18c.55-.27,2-1.52,2.62-1s-.65,1.79-1,2.18c.38-.22,1.09-.71,1.52-.49.66.32.17,1-.16,1.41A14.71,14.71,0,0,1,288.3,106.28Zm-6.16-5.17h0ZM298,104c.39-.22,1.58-.93,1.42.1-.05.17-.22.28-.27.39-.49.65-1.15,1.25-1.69,1.85.44-.22,2.83-2.18,3.27-1.36.33.65-2.18,1.74-2.56,2s-2.13,1.69-2.67,1.25c-.65-.6,1-2,1.25-2.34-.38.22-2,1.58-2.34.71-.33-.71,1.53-1.86,1.91-2.24-.38.28-2,1.69-2.46.87s1.69-2.66,2.13-3.16c-.49.33-2.94,2.51-3.49,1.48-.43-.77,1.58-2.13,2-2.51-.44.27-1.64,1.31-2.07.54s.87-2.39,1.14-3c-.6.43-3.1,2.61-3.76,2-.49-.44.11-.65.44-.82a20.66,20.66,0,0,0,2.29-1.47c.38-.27,2.18-1.74,2.45-.71a.83.83,0,0,1-.22.6c-.33.82-.82,1.64-1.2,2.4.6-.33,2.78-2.4,3.49-1.8s-1.64,2.56-2,2.94c.49-.32,3.27-2.72,3.6-1.58.11.38-.33.77-.6,1-.76.93-1.58,1.75-2.34,2.67.71-.49,2-1.74,2.94-1.74C300,102.09,298.27,103.78,298,104Zm-7.68-12.32A39.85,39.85,0,0,0,294.56,89C293.15,89.89,291.73,90.81,290.31,91.68Z"/><path class="cls-4" d="M56.78,171.67c1.82-1.68,3.71-3.22,5.6-4.76-2,1.12-3.92,2.38-5.88,3.64-.49.35-2.17,1.89-2.94,1.68s.07-1.4.42-1.75c1.4-1.61,2.94-3,4.48-4.55-.35.28-1.68,1.54-2.31,1.19-.84-.49.49-2.59.77-3.08-.84.42-1.05-.56-.49-1a4.15,4.15,0,0,1,1.4-.84c1.82-.28,0,2.59-.21,3,.35-.21,5-3.29,4.27-1.12-.21.63-1.12,1.26-1.54,1.61L57.2,168.8c.91-.63,7.28-5.39,8.12-3.78.35.63-.7,1.33-1,1.68-1.4,1.26-2.8,2.45-4.2,3.64a50.77,50.77,0,0,1,5.25-3.29c.7-.35,3-1.19,2.24.42-.21.49-.91.91-1.26,1.19-.84.63-1.68,1.19-2.52,1.75-1.75,1.26-3.57,2.45-5.32,3.78,2.31-1.26,4.55-2.73,6.72-4.13,1-.63,2-1.26,3-1.89a6.74,6.74,0,0,1,2.45-1.47c1.75-.28.14,1.61-.28,2-2,1.75-4.06,3.43-6.16,5.11.91-.49,7.77-5.39,8.4-4.27.49.77-1.19,1.89-1.61,2.24-1.54,1.47-3.15,2.94-4.76,4.41,1.82-1.12,3.57-2.31,5.39-3.5,1-.63,3.15-2.52,4.41-2.31s.63,1.19.07,1.75a42,42,0,0,1-4.83,3.71c1.54-1,3-2,4.55-2.94.49-.35,1.82-1.47,2.38-.77.91,1.05-3.71,4.06-4.41,4.62.56-.28,1.61-1.05,1.89-.14s-1.12,2.66-1.54,3.29c.77-.63,1.47.21.77.84a6.62,6.62,0,0,1-1.68,1c-2.24.7.49-3.36.77-3.78-1.26.7-2.38,1.54-3.57,2.17-.42.21-.84.63-1.19.07-.7-1.05,3-3.57,3.64-4.06-1.47.91-2.87,1.89-4.41,2.66-.63.35-2.31,1.05-2-.42.21-.91,1.82-1.75,2.45-2.24l4.34-3.08c-1.89,1.12-3.71,2.38-5.53,3.57-.7.42-2.87,2.38-3.85,2s-.14-1.47.28-2c1.4-1.54,3-2.87,4.55-4.27-.91.56-8.4,5.81-9.1,4.69-.49-.77,1.12-1.82,1.54-2.17,1.68-1.47,3.5-2.87,5.25-4.34-1.61,1-3.22,2.1-4.83,3.08A20,20,0,0,1,57.41,176c-.91.28-1.75,0-1.26-1,.56-1.4,2.87-2.59,4-3.36-1,.63-2.8,2.38-4.06,2.38C54.54,173.84,56.43,172,56.78,171.67Zm51.73,1.47c0,.14.21.42.21.63.07.91-1.12,1.82-1.82,2.31a51.3,51.3,0,0,1-5.53,3.78c-4.34,2.59-8.82,5-13.3,7.5-7.77,4.27-15.82,8.33-23.31,13.23a22.77,22.77,0,0,0-3.64,2.59c-.56.49-1.19,1-.21,1a5.73,5.73,0,0,0,2.1-.49c4.13-1.47,8-3.85,11.76-6,8-4.83,15.89-10,23.66-15.34,2.52-1.68,5-3.64,7.63-5.25,1.19-.7,1.68.28.77,1.33a23.9,23.9,0,0,1-5,3.78c.84-.28,2.1-.42,2,.84-.14,1-1.75,2-2.52,2.66,1.75,1-4.34,4.28-5,4.7a94.36,94.36,0,0,0-8.89,6c1.47-1,2.87-2,4.41-2.87.28-.14,2.66-1.05,1.89.28-.14.28-1.19.56-1.47.77l-2.31,1.47c-1.19.77-2.66,2.24-4.06,2.52-1.61.42-.91-1.4-.21-2.1A23,23,0,0,1,90,193.17c3-2,6.23-3.92,9.24-6-2.24,1.12-4.27,2.8-6.37,4.07-2.45,1.47-4.76,3.22-7.07,4.83-3.5,2.45-7.21,5.6-11.2,7-.63.21-1.89.63-2.24-.21-.28-.49.28-.84.63-1.12a43.2,43.2,0,0,1,5.39-3.36c4.55-2.66,9.24-5.11,13.65-8,1.89-1.26,3.71-2.59,5.74-3.72a16.64,16.64,0,0,0,4.62-3.36c-3.64,1.12-7.07,3.64-10.29,5.61-3.78,2.31-7.56,4.76-11.41,7.14-3.22,2.1-6.44,4.13-9.73,6.16a39.21,39.21,0,0,1-4.13,2.31c-.42.14-1.68.35-1.33-.63-1.33.56-4.9,2.52-6.09,1S62,201,63.08,200.31C70.64,195.2,79,191.07,87,186.65c4.06-2.24,8-4.41,12-6.72,1.82-1.05,3.57-2.17,5.32-3.29,1-.7,2.8-1.68,3.29-2.8-3.22,2.87-7.42,4.9-11.2,7-4.06,2.17-8.19,4.27-12.32,6.44s-7.7,4.77-11.48,7.15c-3.15,1.89-6.37,3.64-9.59,5.39-.91.49-1.75,1.19-2.59,1.75a5,5,0,0,1-1.4,1c-.7.14-1-.35-.84-1.05-2.59-.14-.14-2.73.63-3.5,1.54-1.47,3.22-2.87,4.9-4.34-1.33.84-2.59,1.75-3.92,2.59-.7.42-2.31,2-3.22,1.75-1.4-.28.21-3.15.35-3.78-.49.35-1.61.42-1.19-.56.21-.35,1.12-.7,1.47-.91,2.17-1,.49,2.73.28,3.64,2.1-1.33,4.13-2.73,6.23-4.06.49-.28,3.92-2.45,3.5-.42-.14.49-.91,1-1.19,1.26-1,.91-2,1.75-3.08,2.59-1.54,1.4-3.57,2.8-4.76,4.62.91.07,1.54-.84,2.17-1.33.84-.63,1.68-1.19,2.59-1.75,2-1.26,4.06-2.38,6.16-3.5,7.7-4.2,14.84-9.39,22.4-13.94,3.22-1.89,6.65-3.5,9.8-5.53,1.68-1.05,3.43-2.24,5.25-3.15.77-.35,2.52-1.19,2.52.35C109.07,172.16,108.44,172.72,108.51,173.14ZM63.78,152.07c-.42.21-1.89,1.47-2.38.7s1.12-2.52,1.47-3.08c.28-.35.84-2.52,1.89-1.75.77.63-1.05,2.59-1.4,3.08.84-.49,1.68-1,2.52-1.54a10.33,10.33,0,0,1,1.89-1.12c.49-.07.91.07.84.7s-1.4,1.4-1.82,1.75c-1.4,1.33-2.87,2.66-4.27,4.06,1.82-1.19,3.64-2.38,5.53-3.43.35-.21,3.29-2.1,2.94-.35-.07.21-.35.35-.42.49a24.3,24.3,0,0,1-2.66,2,41,41,0,0,0-5,4.27,40.21,40.21,0,0,0,6.65-4.06c.56-.42,2.94-2.66,3.64-1.89s-2.1,2.66-2.59,3c-2,1.54-4.06,2.94-6,4.62,2-1.12,4-2.45,6-3.78,1-.7,2.17-1.4,3.22-2A6.05,6.05,0,0,1,76,152.56c1.47-.14.77,1.05.14,1.61-1.82,1.54-3.85,2.94-5.74,4.41,2-1.19,3.92-2.31,5.88-3.5.56-.35,3.15-2.45,3.85-1.89,1.26.84-2.38,3.22-2.94,3.64-1.82,1.4-3.64,2.73-5.39,4.13,2.8-1.61,5.53-3.29,8.26-4.9.49-.28,1.54-1.19,2.1-1.12s.56.63.35,1.05c-.63,1.12-2.24,2.17-3.15,3.08s-1.82,1.75-2.66,2.66c1.61-1,3.29-2,5-3,.77-.42,2.8-2.17,3.71-2s.56.7.21,1.12A34.41,34.41,0,0,1,81.56,161c.49-.28,2.73-1.75,2.87-.28.07,1-2,2.24-2.59,2.8,1.75-.63-.07,3.57-.7,3.85-1.82.84-.14-2-.07-2.1-.56.35-2.66,2.24-3.29,1.26s3-3.57,3.64-4.13c-1.4.91-2.8,1.82-4.27,2.73-.42.28-1.05.91-1.61.49-1.12-.91,2.66-3.36,3.22-3.78-1.26.7-2.52,1.47-3.71,2.17-.42.28-1.33,1-1.82.91-1.33-.21.07-1.4.42-1.75,1.68-1.68,3.29-3.29,5-4.9l-5.74,3.43c-.77.42-1.47.84-2.24,1.26-.35.21-1.12.84-1.61.77-1.4-.28,0-1.82.49-2.24a50.49,50.49,0,0,1,5.25-4.13c-2,1.12-3.92,2.24-5.81,3.36-.84.49-2.66,2-3.57,1.89-.7-.14-.63-.63-.35-1.12a6.66,6.66,0,0,1,1.47-1.33c.84-.7,1.68-1.33,2.59-2l-3.36,2.1a7.25,7.25,0,0,1-2.31,1.19c-2.24.21.14-2.38.7-2.87-.84.42-3.29,1.33-2.59-.56.42-1.26,2.24-2.45,3.22-3.29l-2.87,1.82c-.42.21-1.26,1-1.82,1-1.61,0-.07-1.75.35-2.24C61.54,154.17,62.66,153.12,63.78,152.07Zm16,46.84c-1.68.91-3.29,1.89-4.9,2.87A34.47,34.47,0,0,0,79.74,198.91Zm30.8-35.5c-1.82,1.4-3.71,2.59-5.6,3.85-3.43,2.31-7.42,4.41-10.29,7.42a41,41,0,0,0,6.58-3.78l6.3-4.2c.49-.35,2.59-2.24,3.22-1.26s-3.29,3.29-4,3.78c.56-.28,1.61-1.12,2.38-1.05a.62.62,0,0,1,.35,1.12c-.21.21-1.12.35-1.4.49-.91.49-1.82,1-2.66,1.54-3.78,2.24-7.49,4.55-11.2,6.86-.77.42-6,4.27-6.65,3.08-.49-.84,1.33-1.75,1.82-2,1.68-1.19,3.36-2.31,5.11-3.36-1.05.21-1.75-.42-1.19-1.4a7.21,7.21,0,0,1,1.82-1.75c1.61-1.26,3.36-2.45,5-3.64-.84.49-2.94,2.17-4,1.75-.56-.21-.56-.56-.35-1s1.19-1,1.54-1.33c.7-.49,1.33-1,2-1.47,1.54-1.19,3.15-2.38,4.69-3.57-.63.35-5.67,3.85-5.95,2-.14-.49.49-1,.77-1.26,1.12-1.26,2.24-2.45,3.29-3.71-.49.35-3,2.38-3.64,1.33-.28-.56.35-1.61.56-2.1a8.54,8.54,0,0,0,.49-1.19.53.53,0,0,1,.14-.35.36.36,0,0,1-.28-.35,1,1,0,0,1,.7-.91c1.82-.35.14,2.94-.14,3.64.56-.35,5.18-4,5.32-2.31.07.7-1.12,1.68-1.54,2.17l-3.57,4c2.38-1.26,4.55-2.8,6.79-4.27.56-.35,2.31-2.17,3.08-1.68,1.4.77-2.31,3.43-2.8,3.85-2.24,1.82-4.48,3.5-6.79,5.25,2.1-1.33,4.13-2.66,6.16-4,.84-.56,1.75-1.12,2.59-1.61.63-.42,1.47-1.12,2.17-1.12C113.2,161,110.89,163.06,110.54,163.41Zm-5,10.57c-5.32,1.61-9.94,5.39-14.49,8.4C96,179.79,101.09,177.27,105.57,174Zm.63-1.33c.84-.14,1.19,0,1.61-.77-.07,0-.14,0-.14.07C107.11,172.16,106.69,172.44,106.2,172.65Z"/><path class="cls-4" d="M129.09,193a.59.59,0,0,1-.91-.7,2.9,2.9,0,0,1,1.4-.84c2.1-.91.42,2.24.07,2.94.7-.42,4.06-3.43,4.76-2.38s-3.36,4.69-4.06,5.39c2.38-1.33,4.62-2.87,6.93-4.41.28-.14,3.29-2.24,2.8-.49-.07.42-.77.7-1.05.91-1.05.7-2.1,1.47-3.15,2.17a50,50,0,0,0-5.74,4.41c3.57-1.4,6.86-4,10.08-6.16.49-.35,4.13-3.36,4.69-2.31.49-.42,1.12-.84,1.68-1.26-.49.21-1.4.91-2,.63s-.42-.91-.14-1.4c.91-1.55,3-2.81,4.41-3.86-.42.28-4.48,3.09-3.64.77.28-.84,1.47-1.61,2.1-2.17.91-.84,1.89-1.61,2.8-2.45-.7.49-2.52,1.89-3.43,1.4s-.21-1.47.28-2c-1.33.14-1.82-.84-.91-1.75-.77.14-1.82-.07-1.4-1,.28-.7,1.47-1.26,2-1.61,2.17-1.4,4.34-2.66,6.51-4s4.62-2.87,6.86-4.34a29.83,29.83,0,0,0,5.67-4.06c-4.55,2-8.61,5.46-12.74,8.19a37.31,37.31,0,0,1-6.16,3.78c-.63.28-1.75.63-2-.21s.7-1.4,1.19-1.82c-.42.21-2.38,1.47-2.52.21-.07-.49.63-.84,1-1.12,2.52-2.1,5-4.2,7.49-6.3-1.47.91-13,9.31-14.14,7.35-.77-1.47,4.06-4.48,5-5.18a46,46,0,0,0,6.09-5c-2.94,1-5.67,3.15-8.19,4.83-2.17,1.47-4.27,3-6.44,4.41-.42.21-1.12.77-1.54.21s.42-1.4.77-1.75c2.1-2.1,4.62-3.85,6.93-5.74-1.68.91-3.22,2-4.83,2.94-.7.49-2.1,1.82-3,2-.7.07-.84-.49-.63-1.05.42-1.33,2.38-2.59,3.36-3.43-.91.56-1.82,1.12-2.73,1.61-.35.21-1.12.84-1.68.7-1.4-.28.7-3.5,1-4.13-.7.42-1.19-.35-.7-.91a6.42,6.42,0,0,1,1.47-.91c2.17-.63-.56,3.85-.84,4.41,1.47-.84,2.87-1.75,4.34-2.59.63-.42,1.82-1.61,2.66-1.68s.77.63.49,1.19c-.63,1.33-2.59,2.52-3.71,3.5,1.4-.91,2.87-1.89,4.34-2.73.56-.28,2.1-1.4,2.8-.77,1.26,1.12-3.85,4.48-4.55,5.11,2.31-1.61,4.62-3.15,7-4.55.84-.49,4.76-3.08,5.11-1.12.14.84-1.12,1.75-1.61,2.24-1,.84-2,1.61-3,2.38-2,1.61-4.2,3.08-6.09,4.83,5.39-2.45,9.8-6.44,15-9.24,1.47-.77,1.61.49.7,1.47a66.2,66.2,0,0,1-7.07,6.23c3.43-2.1,6.79-4.27,10.22-6.37.7-.42,2.45-1.89,3.36-1.61,1.61.42-1.05,2.17-1.4,2.45,1-.63,5.32-4.13,6.58-2.94,1.47,1.4-3.85,4.48-4.69,5.11-5,3.29-10.22,6.16-15.19,9.45,4.41-2,8.47-4.9,12.46-7.56,3.08-2,6.09-4.34,9.31-6,.63-.28,1.89-.42,1.4.7s-2.66,2.1-3.64,2.73c-3.5,2.24-7.07,4.34-10.64,6.44-3,1.82-6.37,3.57-9,5.95a13.71,13.71,0,0,0,4.83-2.45c.84-.49,1.61-1.05,2.45-1.54.42-.28.91-.56,1.33-.84l.63-.42c0-.14.07-.21.07-.35.42-.42.42-.14.91-.28a4.46,4.46,0,0,0,1.26-.7c1-.63,2-1.19,2.94-1.82,1.75-1.05,3.36-2.17,5-3.29,1.12-.77,2.24-1.61,3.36-2.31a3.69,3.69,0,0,1,1.05-.35,2.62,2.62,0,0,1,.77-.07c1.75.49-3.15,3.71-3.43,3.92.7-.42,3.71-2.8,4.34-1.47.56,1.05-2.45,3.43-3.08,4.06.42-.28,1.33-1,1.89-.77s.42.7.07,1-1.26.63-1.75.91a10.78,10.78,0,0,1-2.17,1.47c-1.19.49-1.4-.49-.77-1.4a51.8,51.8,0,0,1,3.85-4c-1.47.84-2.8,1.75-4.2,2.66-.77.49-2.1,1.75-3.08,1.89-1.68.21-.07-1.68.35-2.1-2.45,1.61-5,3.08-7.42,4.62,1.26-.14.21,1.33-.14,1.61-2.17,2.1-4.62,4-6.86,5.95,2.24-1.47,4.48-3.08,6.86-4.34.56-.21,3.08-1,2.1.49a7.19,7.19,0,0,1-2,1.47c-1.12.84-2.31,1.68-3.43,2.52a58.61,58.61,0,0,0-6.23,4.76c3.15-1.89,6-4.2,9.17-6,.56-.35,2.59-1.75,2.94-.49.21,1-2,2.1-2.66,2.59.42-.21,1.12-.7,1.68-.56a.59.59,0,0,1,.35,1c-.14.21-1.4.49-1.68.63l-2,1.12c-2.87,1.75-5.6,3.79-8.54,5.33a5.49,5.49,0,0,1-1,.35,4.39,4.39,0,0,0-1.05.77,29.48,29.48,0,0,1-3.92,2.87c-2.8,1.89-5.67,3.57-8.33,5.6,4.27-1.75,8.19-5,12-7.7,2.1-1.4,4.13-2.87,6.23-4.27a23.61,23.61,0,0,1,5.46-3.16c.7-.28,1.89-.42,2,.56,0,.77-1,1.48-1.47,1.83a75.39,75.39,0,0,1-6.23,4.27c-3.92,2.45-8.33,4.69-11.62,8,5.11-2.8,9.87-6.37,14.84-9.38.7-.49,5-3.57,5.6-1.82.28,1.12-1.68,2.38-2.38,2.94-1.26.91-2.52,1.82-3.78,2.66,1.82-1.12,3.71-2.24,5.53-3.36.7-.42,2-.84,1.4.49-.21.63-1,1.12-1.54,1.54-1,.84-2,1.61-3.08,2.45-1.68,1.4-3.5,2.73-5.11,4.27,4.83-2.52,9-6.51,13.93-8.89.56-.28,1.61-.56,1.68.42s-1.47,2-2.1,2.45c-2.24,1.82-4.62,3.5-6.93,5.18,2.66-1.54,5.18-3.29,7.77-5,1.12-.77,2.31-1.54,3.43-2.24.63-.42,1.89-1.47,2.66-1.4,1.68.21-.42,1.75-.77,2-2.31,1.82-4.69,3.64-7,5.46,2.66-1.75,5.25-3.71,7.91-5.46.63-.42,5.39-3.86,5.67-2,.07.42-.21.56-.49.84-.84.77-1.89,1.4-2.87,2.17a73.16,73.16,0,0,0-6.79,5.53c2.73-1.61,5.46-3.36,8.19-4.9.56-.28,2-.91,1.68.42-.21,1.05-2.1,2.31-2.87,3,.63-.42,2.24-1.68,2.73-.49a4,4,0,0,1-.35,1.82,7.32,7.32,0,0,0-.28,1.19c0,.28.35.35.21.77-.28.7-1.47.7-1.54-.07a9.67,9.67,0,0,1,.7-2.8c-.84.49-5.46,4.27-6.16,3.15-.35-.63.49-1.19.84-1.54,1.12-1.05,2.31-2.1,3.5-3.22-1.82,1.12-3.64,2.17-5.39,3.29-.63.35-2.38,1.75-3.15,1.54-1.47-.56.84-2.66,1.33-3.15a53.82,53.82,0,0,1,4.9-4.06c-1.89,1.26-3.78,2.66-5.74,4a24.77,24.77,0,0,1-4.69,2.87c-.84.28-2.17.14-1.54-.91a3.62,3.62,0,0,1,1.26-1.05c.77-.63,1.54-1.19,2.24-1.82a63.24,63.24,0,0,1-5.88,3.64c-.63.35-3.5,1.26-2.59-.49a6.4,6.4,0,0,1,1.68-1.4c.84-.7,1.82-1.33,2.73-2,1.68-1.19,3.43-2.45,5-3.85-4,2.52-7.7,5.39-11.76,7.7A5.23,5.23,0,0,1,148,203c-1.05-.07-.84-.91-.35-1.54,1.47-1.82,3.71-3.29,5.53-4.76-2.66,1.61-5.39,3.29-8.19,4.83-.7.42-2.31,1.61-3.15,1.4s-.63-.7-.21-1.19A16.22,16.22,0,0,1,145,199.4c1.4-.91,2.8-1.75,4.13-2.66,2.52-1.68,5.25-3.22,7.35-5.32-3.92,1.89-7.56,4.55-11.27,6.93-1.82,1.19-3.57,2.38-5.46,3.5-.7.42-2.73,2-3.5,1.12-1.68-1.68,7.63-7.07,8.75-7.84,3.5-2.17,7.42-4.2,10.5-7-2.87,1.12-5.53,3.22-8,5l-8.19,5.67a41,41,0,0,1-6.86,4.2c-.7.28-2.8,1.12-2.8-.28-.07-1,1.89-1.89,2.52-2.38-.7.42-2.45,1.54-3.22.84s.14-1.61.63-2c-.91.28-1.54-.21-1.12-1.12.63-1.26,2.31-2.52,3.29-3.57-.7.49-2,1.68-2.94,1.54-.63-.07-.77-.7-.49-1.19S128.81,193.59,129.09,193Zm29.4-25.49c-3.92,2.52-8.12,4.76-11.76,7.63a5.79,5.79,0,0,0,.91-.49C151.42,172.58,154.92,169.92,158.49,167.54ZM153.94,178a40.67,40.67,0,0,0-5.95,3.78A53.25,53.25,0,0,0,153.94,178Z"/><path class="cls-4" d="M195.94,154.45c-.56.35-2.45,2-3.08.91a1.37,1.37,0,0,1,.07-.91,7.38,7.38,0,0,1,.35-1.33,4.83,4.83,0,0,0,.28-.7c.14-.21.07-.35-.14-.42.07-.56.07-.84.7-1.05s.84-.07.91.49c.07.84-.7,2-.91,2.8a34.31,34.31,0,0,0,3.36-2.17,9.29,9.29,0,0,1,2.73-1.68c1.75-.42.63,1.4,0,2,.84-.42,2.45-1.75,3.5-1.47.77.21.56.91.21,1.47a16.69,16.69,0,0,1-3,2.38c-1.33.91-2.59,1.82-3.92,2.73,3.29-1.89,6.44-3.92,9.66-5.88.35-.28,1.54-1.33,2.17-1.05,1.05.49-.42,1.75-.84,2,.91-.56,4.41-3.22,5.32-1.89.77,1.05-1.61,2.38-2.24,2.8,1.19-.7,2.73-2,4.13-2.17.77-.07,1.26.35.84,1s-2.1,1.68-2.87,2.24c-1.54,1.19-3,2.31-4.48,3.5,2.45-1.61,4.9-3.15,7.42-4.62,1-.56,5.11-3.5,6.3-2.45s-2.45,3.43-3.08,3.92c-2.17,1.68-4.41,3.36-6.72,5,2.8-1.68,5.53-3.57,8.26-5.39,1.19-.77,2.45-1.61,3.71-2.38a9.09,9.09,0,0,1,2.94-1.54c.77-.14,1.26.35.91,1.05A10.93,10.93,0,0,1,226,154c-2.52,2.17-5,4.2-7.63,6.23,3.71-2.24,7.21-4.76,10.85-7.07a19.41,19.41,0,0,1,4.48-2.66c.63-.21,1.33-.28,1.47.49s-.63,1.33-1,1.68c.91-.49,3.92-2.66,4.9-1.4.77,1-1.26,2.38-1.89,2.94-3.08,2.52-6.51,4.62-9.45,7.28,5.18-2.66,9.38-7.07,14.56-9.73.63-.35,2.73-1.33,2.87,0,.14.77-1.05,1.47-1.47,1.82-2.45,2-5,3.64-7.49,5.46,4.2-2.66,8.33-5.6,12.74-7.91.77-.35,3.22-1.19,2.24.56a11.87,11.87,0,0,1-2.17,2c-1,.77-2,1.54-2.94,2.38.77-.49,2.59-1.75,3.57-1.26.77.42.42,1.19,0,1.75a29.27,29.27,0,0,1-5.81,4.76c1.61-1.05,3.22-2.17,5-3.08.42-.21,2.1-1,2.1.14,0,.63-1.12,1-1.54,1.33-1.54,1-3,1.89-4.55,2.8-3.43,2.17-6.93,4.34-10.36,6.51-2.52,1.68-5.46,3.36-7.56,5.53a12.62,12.62,0,0,0,4.34-1.89c1.61-.84,3.22-1.82,4.76-2.73q4.62-2.94,9.24-6.09c1.26-.84,2.45-1.68,3.71-2.52a10.78,10.78,0,0,1,2.17-1.47c.49-.14,1-.14,1,.49.07,1.19-2,2.31-2.8,2.8.56-.21,1.54-.56,2,.14s-.35,1.47-.77,1.89a33.58,33.58,0,0,1-3.92,3.15c.63-.21,1.68-.21,1.75.7,0,.56-.77,1.19-1.12,1.54a58.3,58.3,0,0,1-4.69,3.5c-3.15,2.24-6.44,4.41-9.59,6.79,4-2.17,7.63-5.11,11.62-7.21,1.12-.56,1.54.35.63,1.12a46.05,46.05,0,0,1-6.16,4.27c.42-.28,1.47-1.05,2-.77a.6.6,0,0,1,.14,1.05c.14-.14-.56.07-.63.14a9,9,0,0,0-1.12.63c-.84.49-1.61,1.05-2.45,1.61s-1.75,1.19-2.66,1.75c-.42.21-1.12.84-1.68.7-1.12-.42-.07-1.61.42-2.1-.56.28-1.89,1.19-2.59.84s-.28-1.05.14-1.54c1.4-1.61,3.57-2.8,5.32-4.06,3.57-2.45,7.49-4.76,10.71-7.77-4.06,1.54-7.77,4.62-11.34,7a21.53,21.53,0,0,1-4.48,2.94c-.84.28-1.47-.21-.91-1a7.36,7.36,0,0,1,1.89-1.4l2.52-1.68,5.67-3.78c3.29-2.24,7.28-4.48,9.94-7.49a32,32,0,0,0-6.79,4.13c-2.45,1.68-5,3.5-7.42,5.18a63.67,63.67,0,0,1-6.51,4.13c-.77.42-2.38,1.4-3.22.63s.56-2,1.19-2.52c-.63.14-1.54.07-1.61-.7s.56-1.26,1-1.68a52.75,52.75,0,0,1,5.11-3.71c-.7-.35-.21-.91.21-1.26,1.68-1.47,3.78-2.59,5.6-3.92,2.17-1.47,4.34-2.94,6.44-4.55a31.22,31.22,0,0,0,4.69-3.85c-3.15,1.19-6,3.64-8.82,5.6-.42.28-3.92,3.08-4,1.47,0-.49.77-.91,1.05-1.12,1.19-1,2.38-2,3.64-2.87,2.66-2.1,5.25-4.13,7.84-6.3-3.22,1.82-6.37,3.92-9.52,5.95-1.54,1-3.08,2-4.62,2.87-.77.42-2.45,1.82-3.43,1.61s-.35-1.19.14-1.61a35.24,35.24,0,0,1,3.64-2.73c2.87-2.1,5.81-4.06,8.54-6.23-3.15,1.54-5.95,3.85-8.82,5.88-1.4,1-2.73,2-4.13,2.87-.91.56-2.45,1.82-3.57,1.54-2.45-.63,3.29-4.62,3.85-5,2.45-1.82,5.25-3.57,7.35-5.74a23.25,23.25,0,0,0-4.69,2.52c-1.89,1.19-3.78,2.38-5.6,3.64s-3.29,2.24-4.9,3.29c-.77.49-2.66,2.24-3.64,1.89s.14-1.4.56-1.75c1.54-1.26,3.29-2.31,4.9-3.43a81.37,81.37,0,0,0,9-6.44c-3.22,1.68-6.16,3.92-9.17,5.88-1.47,1-3,2.1-4.62,3.08a16.94,16.94,0,0,1-4,2.17c-.84.14-1.61-.14-1.19-1s2-1.68,2.8-2.24c2.8-2.24,5.6-4.55,8.33-6.86-3.22,2-6.3,4.13-9.52,6.23-.84.56-7.14,5.25-8,3.64-.28-.56.21-.84.56-1.19,1.19-1.05,2.52-1.89,3.85-2.87a104.8,104.8,0,0,0,8.33-6.37c-5.6,2.45-10.78,6.23-15.89,9.59-.42.28-1.75,1.47-2.31,1.05-.77-.56.49-1.61.84-1.89a80.54,80.54,0,0,1,7.56-6.16c-2.87,1.75-5.67,3.64-8.47,5.46a27.18,27.18,0,0,1-3.64,2.1c-.63.28-1.75.35-1.4-.7.28-.7,1.47-1.26,2.1-1.68,1.33-1,2.66-1.89,4-2.8,2.66-1.75,5.32-3.43,7.84-5.39-4.48,2.17-8.47,5.46-12.6,8.19-.77.56-4.06,3.29-5,2.31-1.19-1.12,2.87-3.36,3.5-3.78-.77.42-2.52,1.75-3.5,1.54s-.56-.91-.14-1.47a16.67,16.67,0,0,1,3.57-2.73c1.4-1,2.8-2,4.13-2.94q-3,1.78-5.88,3.78c-.63.35-2,1.68-2.8,1.47C191,157.74,195.59,154.73,195.94,154.45Zm9.8,35.43c-.63.27-1.89,1.33-2.59,1.19s-.56-.77-.21-1.19a8.73,8.73,0,0,1,2.24-1.75c1-.71,2.1-1.41,3.15-2.18,3.92-2.66,8.26-5.18,11.69-8.47a89.23,89.23,0,0,0-8.47,5.25c-.7.49-6.09,4.55-6.51,3-.28-.84,1.47-1.75,2-2.1,1.26-1,2.59-1.89,3.92-2.87,2.73-1.89,5.46-3.78,8-5.88-2.45,1.54-4.76,3.22-7.21,4.83a10.85,10.85,0,0,1-3.36,2c-.91.14-1.4-.35-1-1.19a9.17,9.17,0,0,1,2.52-2.1c1.19-1,2.45-1.82,3.71-2.73,2.31-1.68,4.69-3.36,6.93-5.25-3.64,2.31-7.07,5.32-11,7.07-.49.21-1.54.7-1.89,0-.21-.49.21-.84.56-1.12,1.61-1.54,3.78-2.66,5.6-4-.63.42-5.39,3.85-5.81,2.1-.14-.56.49-.91.84-1.19,1.26-1,2.45-2,3.71-2.94-.63.35-2.31,1.75-3,1.12s.21-2.52.35-3.22c-.35.28-1.61,1-1.61,0,0-.56.91-.84,1.33-1.12s1.19-.77,1.54-.07-.35,2.45-.56,3.15c.84-.49,5.25-4.06,6-3,.91,1.33-3.92,4.48-4.62,5.11,2.59-1.61,5-3.64,7.7-5,.63-.35,1.4-.28,1.12.77s-1.82,2-2.59,2.66c1.12-.77,2.94-2.45,4.34-2.59,2.24-.21-.07,2.24-.63,2.73-3.22,2.73-6.79,5-10.15,7.56,1.68-1.12,3.29-2.24,5-3.36,1.05-.7,2.73-2.24,4.06-2.24,2-.07.07,2-.49,2.45a52.26,52.26,0,0,1-4.41,3.36,26.54,26.54,0,0,1,4.34-2.45c1.12-.35,2.1.07,1.33,1.33s-2.31,2.17-3.36,3c-1.61,1.19-3.29,2.38-5,3.5,1.54-.91,3-1.82,4.55-2.73.63-.35,2.17-1.61,2.94-1.33,1.89.63-3.22,3.78-3.71,4.06-5.46,3.58-11.34,6.8-16.45,10.86,4-2.52,8-5.18,12-7.71,1.89-1.12,3.78-2.31,5.74-3.29.63-.28,1.61-.91,2.38-.77s1,.77.56,1.4c-1.12,1.47-3.57,2.53-5.11,3.43l-5.88,3.37c-1.89,1.12-3.78,2.17-5.67,3.36a19.44,19.44,0,0,0-4.76,3.5,45,45,0,0,0,6.65-3.78c2.31-1.47,4.55-2.94,6.86-4.42,1.82-1.18,3.64-2.45,5.53-3.5.49-.28,1.33-.77,1.68,0s-.63,1.4-1,1.82c2.45.14-2.24,3.51-2.45,3.65-2.66,2.1-5.32,4.13-8,6.09,1.89-1.12,3.78-2.31,5.74-3.43.42-.21,2.59-1.12,1.82.35-.21.42-1,.77-1.33,1.05l-2.94,2.1c-2,1.4-4.06,2.8-6.09,4.27.91-.56,5.25-4.34,6.37-3.22.84.91-.77,1-1.26,1.26-1.19.63-2.31,1.47-3.5,2.24s-2.52,1.75-3.85,2.52c-.49.35-1.54,1.19-2.17.7-1.47-1,3.36-4.06,4.06-4.55-.56.35-5,3.43-5.32,2-.07-.49.21-.49.42-.7a19.31,19.31,0,0,1,2.73-2c4.55-3.43,9.24-6.86,13.72-10.43C212,193,207,196.81,201.82,200c-.42.28-3.5,2.38-3.29.7,0-.42.63-.63.91-.84,1.05-.7,2.17-1.33,3.29-2-.84.49-2.66,1.82-3.71,1.54-1.4-.42-.21-2,.42-2.52-.35.21-1.05.77-1.54.63-1.12-.35,0-1.75.42-2.17A40.55,40.55,0,0,1,205.74,189.88Zm3.5.7c3.36-2,6.79-3.72,9.94-5.89-.63.28-1.26.63-1.89,1C214.56,187.14,211.9,188.82,209.24,190.58Zm3.57,1c.7-.42,1.4-.84,2.1-1.33C214.21,190.65,213.51,191.14,212.81,191.56Zm29-23.81c-2.87,1.68-5.74,3.36-8.61,5.11-2.1,1.33-4.62,2.59-6.23,4.41,2.45-.63,4.83-2.59,6.86-4C236.47,171.46,239.13,169.57,241.79,167.75Z"/></g></g></g></svg>