<svg xmlns="http://www.w3.org/2000/svg" viewBox="0 0 762.98 261.12"><defs><style>.cls-1{fill:#eddb8d;opacity:0.8;}.cls-2{fill:#fff;}.cls-3{fill:#43445b;}.cls-4{fill:#d35b6e;}.cls-5,.cls-7,.cls-8,.cls-9{fill:none;}.cls-5{stroke:#f5f5f5;}.cls-5,.cls-7,.cls-9{stroke-linecap:round;}.cls-5,.cls-7{stroke-linejoin:round;}.cls-5,.cls-7,.cls-8{stroke-width:3px;}.cls-6{fill:#f5f5f5;}.cls-7,.cls-8{stroke:#fff;}.cls-8,.cls-9{stroke-miterlimit:10;}.cls-9{stroke:#d35b6e;stroke-width:19px;}</style></defs><title>yui540</title><g id="レイヤー_2" data-name="レイヤー 2"><g id="page-5"><g id="logo"><path class="cls-1" d="M421.48,10.42a129.93,129.93,0,0,0-69.19-9.14A114.93,114.93,0,1,1,259,198.59,130.53,130.53,0,1,0,421.48,10.42Z"/><g id="yui540"><polygon class="cls-2" points="526.4 136.57 518.09 137.36 518.9 145.95 536.53 144.29 537.52 154.81 488 159.46 488.94 169.46 618.86 157.25 619.56 164.7 709.82 156.21 709.43 151.99 698.61 153 698.08 147.35 708.89 146.33 708.39 141.03 715.36 140.37 715.86 145.68 762.06 141.33 754.09 56.59 721.92 59.62 723.68 78.36 706.43 79.99 705.92 74.5 664.31 78.42 663.78 72.82 705.39 68.91 704.67 61.24 648.34 66.54 649.23 76.09 639.21 77.03 638.31 67.48 579.86 72.98 580.87 83.79 595.21 82.44 597.44 106.16 524.19 113.05 526.4 136.57"/><rect class="cls-2" x="716.49" y="149.15" width="46.4" height="4.24" transform="translate(-10.91 69.92) rotate(-5.37)"/><polygon class="cls-3" points="544.69 137.53 536.84 125.75 527.96 126.63 541.11 145.72 544.69 137.53"/><polygon class="cls-3" points="548.88 163.83 565.1 122.96 556.45 123.81 548.87 143.81 545.54 152.15 540.38 164.62 548.88 163.83"/><path class="cls-3" d="M588.18,148.15a10.12,10.12,0,0,1-1,.17q-6.51.63-7.32-7.6l-1.88-19-7.66.75,1.9,19.21a19,19,0,0,0,1.63,6.78,11.87,11.87,0,0,0,3.83,4.33,14.55,14.55,0,0,0,10.17,2.4l1-.14Z"/><path class="cls-3" d="M591,120.4l1.88,19c0,.37.06.73.07,1.08l1.26,12.77a13,13,0,0,0,3.19-2.47,11.66,11.66,0,0,0,2.85-5,21.46,21.46,0,0,0,.3-7l-1.89-19.2Z"/><polygon class="cls-3" points="610.62 142.07 611.58 151.85 619.24 151.09 617.46 133.01 610.62 142.07"/><polygon class="cls-3" points="616.66 124.96 615.97 117.93 608.31 118.69 609.82 134.02 616.66 124.96"/><path class="cls-3" d="M610.27,99.59a4.8,4.8,0,0,0-3.36,1.81,4.74,4.74,0,0,0-1.12,3.62,4.91,4.91,0,0,0,1.81,3.43,4.84,4.84,0,0,0,3.69,1.11,4.76,4.76,0,0,0,3.36-1.81,4.88,4.88,0,0,0,1.12-3.69A4.79,4.79,0,0,0,614,100.7,4.85,4.85,0,0,0,610.27,99.59Z"/><path class="cls-3" d="M639.71,119.2a11.71,11.71,0,0,1,2.29,0l1.2-7.2a19.72,19.72,0,0,0-2.75.1c-.29,0-.62.07-1,.13s-.71.12-1.09.21l1.72-9,16.21-1.6-.73-7.43-21.73,2.15L628.32,125l2.62-.26A11.74,11.74,0,0,1,639.71,119.2Z"/><path class="cls-3" d="M653.52,116a16.8,16.8,0,0,0-4.38-2.76l-1.37,8.25.27.21a11.2,11.2,0,0,1,4,7.92,11.79,11.79,0,0,1-2.41,8.66,10.53,10.53,0,0,1-5.26,3.64l-1.26,7.64a19.26,19.26,0,0,0,12.41-6.63,19.9,19.9,0,0,0-2-26.93Z"/><path class="cls-3" d="M637,149.58l1.21-7.33a9.73,9.73,0,0,1-2.54-.92,18.55,18.55,0,0,1-5.59-5.47l-5.5,5.67Q629.8,148.42,637,149.58Z"/><polygon class="cls-3" points="700.08 128.29 695.95 86.48 667.06 138.84 687.62 136.81 686.91 129.59 680.03 130.27 690.41 111.47 692.15 129.07 692.14 129.08 692.85 136.29 692.86 136.29 693.6 143.75 701.53 142.97 700.8 135.51 706.38 134.96 705.67 127.74 700.08 128.29"/><path class="cls-3" d="M739.79,92.05q-4.69-5-10.34-5.51l.75,7.55a11,11,0,0,1,5.21,4.52q3.63,5.37,4.48,14t-1.65,14.57a11,11,0,0,1-4.24,5.48l.75,7.6c3.62-1.11,6.64-3.58,9.06-7.44q5.12-8.07,3.85-20.94T739.79,92.05Z"/><path class="cls-3" d="M727.68,133.14a11.32,11.32,0,0,1-4.9-4.44q-3.6-5.49-4.47-14.24-.82-8.42,1.68-14.33a11.38,11.38,0,0,1,3.91-5.26l-.75-7.65a16.49,16.49,0,0,0-8.76,7.34q-5.11,8.07-3.88,20.63,1.31,13.22,7.9,20.13a16.75,16.75,0,0,0,10,5.47Z"/></g><g id="臆病な魔女"><g id="女"><polygon class="cls-4" points="462.76 133.62 464.88 156.25 451.77 148.51 462.76 133.62"/><line class="cls-5" x1="417.39" y1="113.24" x2="499.15" y2="105.55"/><polyline class="cls-5" points="484.15 168.4 429.08 135.45 454.27 78.85"/><line class="cls-5" x1="432.64" y1="173.24" x2="470.7" y2="122.45"/><path class="cls-6" d="M472,125.76l-4.53-1.52c.35-.46,2.29-3.56,2.69-3.46,1.56.43,11.2,4.27,13.21,2.8l5.2-3.8c.36-.27,1.76-1,1.85-1.55.15-.93-1.5-2.25-1.84-3.16-1.95-5.16,4.76-8.32,8.66-5.56a4.55,4.55,0,0,1,1.77,5.41c-1.57,3.75-6.47,3.23-9.1,5.77a10.42,10.42,0,0,0-2.8,5.27c-.25,1.22,5.34,1.7,6.07,1.7,4,0,8.17-3.37,12.15-1.54,6.13,2.82,1.23,10.15-4.3,8.62a5.65,5.65,0,0,1-3-1.89c-.79-1-.52-3.06-1.25-3.74-1-1-3.53.25-4.66.39a13.5,13.5,0,0,1-3,0c-.71-.07-3.32-.88-3.79-.54-7.19,5.19-14.57,12.82-24.07,12.5l17-14.19Zm27.37,6.13c2.48,3.72,10,.28,6.52-3.63C503.44,125.47,496.8,127.87,499.38,131.89Zm-3.26-15.84c4.37-2.83-1-8-4.78-5.47C487,113.45,492.08,118.61,496.12,116.05Z"/></g><g id="魔"><path class="cls-4" d="M344,149.52l21-7.84-.75-9.06-20.53,1.93a1.16,1.16,0,0,0-1,1.26Z"/><line class="cls-7" x1="357.17" y1="87.36" x2="357.93" y2="95.41"/><line class="cls-7" x1="396.64" y1="91.77" x2="322.93" y2="98.7"/><path class="cls-7" d="M323.9,108.79c-.95,30.77-4,73.92-4,73.92"/><path class="cls-2" d="M320.78,110.68l4.53,1.5c0-.57.31-4.22-.08-4.38-1.5-.59-11.52-3.3-12.24-5.68-.62-2.06-1.25-4.12-1.87-6.17-.13-.43-.82-1.85-.56-2.35.44-.83,2.55-.9,3.37-1.42,4.66-3,1.19-9.51-3.59-9.65a4.56,4.56,0,0,0-4.66,3.27c-1,3.94,3.23,6.47,3.81,10.07a10.44,10.44,0,0,1-.92,5.9c-.53,1.12-5.29-1.85-5.87-2.29-3.23-2.42-4.51-7.59-8.8-8.52-6.59-1.42-7.07,7.38-1.74,9.47a5.79,5.79,0,0,0,3.51.28c1.21-.31,2.25-2.14,3.24-2.25,1.4-.15,2.68,2.32,3.49,3.11a13.45,13.45,0,0,0,2.4,1.78c.61.37,3.18,1.29,3.35,1.84,2.64,8.47,4,19,11.75,24.45q-2.55-10.78-5.09-21.56ZM295.2,99.15c-4.21,1.49-8.13-5.75-3-6.81C295.81,91.58,299.68,97.49,295.2,99.15Zm12.12-10.71c-1.79-4.88,5.56-5.81,7.1-1.5C316.18,91.84,309,92.92,307.32,88.44Z"/><line class="cls-7" x1="334.09" y1="107.65" x2="357" y2="105.5"/><line class="cls-7" x1="344.71" y1="101.03" x2="346.92" y2="124.56"/><path class="cls-7" d="M342.37,109.37c1.34,14.25-8,14.5-8,14.5"/><path class="cls-7" d="M349.18,108.73C350.52,123,361,121.37,361,121.37"/><line class="cls-7" x1="367.53" y1="104.51" x2="390.45" y2="102.35"/><line class="cls-7" x1="378.15" y1="97.88" x2="380.37" y2="121.42"/><path class="cls-7" d="M375.81,106.23c1.34,14.24-8,14.5-8,14.5"/><path class="cls-7" d="M382.63,105.59c1.34,14.24,11.81,12.63,11.81,12.63"/><rect class="cls-7" x="338.08" y="130.31" width="55.99" height="23.64" transform="translate(-11.7 34.9) rotate(-5.37)"/><line class="cls-7" x1="387.73" y1="133.22" x2="344.92" y2="149.75"/><line class="cls-7" x1="364.02" y1="133.58" x2="365.65" y2="150.92"/><line class="cls-7" x1="356.33" y1="124.93" x2="348.15" y2="131.37"/><polyline class="cls-7" points="368.76 157.5 370.69 177.94 408.47 174.39 407.48 163.86"/><line class="cls-5" x1="356.38" y1="158.67" x2="342.2" y2="180.62"/><polyline class="cls-7" points="389 156.04 381.54 166.92 399.48 165.23"/><line class="cls-7" x1="395.49" y1="158.82" x2="402.66" y2="168.9"/></g><g id="な"><line class="cls-7" x1="247.64" y1="146.49" x2="261.7" y2="145.17"/><line class="cls-7" x1="253.38" y1="134.71" x2="256.43" y2="167.17"/><polygon class="cls-4" points="277.51 131.38 278.93 146.48 300.74 144.43 277.51 131.38"/><circle class="cls-8" cx="275.37" cy="176.15" r="11.2"/><circle class="cls-8" cx="275.37" cy="176.15" r="6.81"/><line class="cls-7" x1="279.87" y1="151.28" x2="282.18" y2="175.84"/><line class="cls-7" x1="282.97" y1="167.96" x2="298.16" y2="179.38"/></g><g id="病"><polygon class="cls-4" points="224.82 125.11 200.26 143.04 198.81 127.57 224.82 125.11"/><line class="cls-7" x1="159.19" y1="114.73" x2="232.89" y2="107.8"/><line class="cls-7" x1="196.27" y1="103.74" x2="196.93" y2="110.69"/><path class="cls-7" d="M159,119.74c3,31.59-3.81,79.08-3.81,79.08"/><line class="cls-7" x1="150.74" y1="131.14" x2="152.31" y2="147.86"/><line class="cls-7" x1="146.98" y1="170.86" x2="156.51" y2="159.34"/><line class="cls-7" x1="173.08" y1="129.67" x2="224.48" y2="124.83"/><polyline class="cls-7" points="174.35 196.4 169.69 146.85 231.01 141.09 235.73 191.25 225.2 192.25"/><line class="cls-7" x1="198.24" y1="127.69" x2="199.7" y2="143.22"/><polyline class="cls-9" points="196.87 161.06 197.86 171.58 208.37 170.59"/></g><g id="臆"><polygon class="cls-4" points="41.16 142.07 57.88 140.5 57.09 142.13 42.39 158.51 41.16 142.07"/><polyline class="cls-7" points="46.83 209.02 38.44 119.83 58.88 117.91 67.32 207.72 55.8 198.18"/><polyline class="cls-7" points="98.4 112.94 99.16 121 72.53 123.5 128.27 118.26 114.02 119.6 86.37 137.82 70.27 139.33 132.2 133.51"/><polyline class="cls-7" points="61.52 157.12 43.15 158.84 59.88 139.71 41.19 141.47"/><line class="cls-7" x1="78.64" y1="188.53" x2="80.27" y2="205.87"/><polyline class="cls-7" points="89.27 181.91 91.36 204.21 124.81 201.06 118.24 191.06"/><line class="cls-7" x1="100.18" y1="178.38" x2="122.48" y2="176.29"/><line class="cls-7" x1="134.38" y1="183.29" x2="136.01" y2="200.63"/><polyline class="cls-7" points="124.52 144.85 126.67 167.77 82.7 171.91 124.52 144.85 79.93 149.05 81.56 166.39"/></g></g><line id="lline" class="cls-8" x1="627.51" y1="162.78" x2="15.47" y2="220.34"/><path class="cls-2" d="M15.6,220.45c10.44-23.64-15.25-20.86,0,0-15.25-20.86-25.7,2.78,0,0-25.7,2.78-10.45,23.64,0,0-10.45,23.64,15.24,20.87,0,0,15.24,20.87,25.69-2.77,0,0C41.29,217.68,26,196.81,15.6,220.45Z"/></g></g></g></svg>