<svg xmlns="http://www.w3.org/2000/svg" viewBox="0 0 173.52 53.7"><defs><style>.cls-1{fill:#fff;}</style></defs><title>title</title><g id="レイヤー_2" data-name="レイヤー 2"><g id="product-page"><path class="cls-1" d="M49.56,32.22a105.15,105.15,0,0,1,7.8,15.6l-7.62,3.6c-1.32-3.24-2.64-6.12-4-8.76a32.17,32.17,0,0,1-.9,7,4.19,4.19,0,0,1-2.16,2.76,15.76,15.76,0,0,1-5.28,1c-1.68.18-4.32.24-7.62.24-3.12,0-5.64-.06-7.62-.18-3.6-.18-5.88-.72-6.78-1.68s-1.44-3.3-1.44-7V37.74a51.47,51.47,0,0,1-7,14.34L0,47A54.77,54.77,0,0,0,6.72,33.12l7.2,2.82V32.4h9.36V43.8c0,2.22.12,2.34,1.56,2.52a38.93,38.93,0,0,0,4.44.18c1.8,0,3.3-.12,4.38-.18,1.62-.18,2.52-.42,2.82-1s.54-2.28.66-5.16l-4.38,3.12A73.27,73.27,0,0,0,25,33.72l5.82-4H5.76V1.2H51.6V29.76H32.1a57.83,57.83,0,0,1,7.14,8.88l-1.14.9,6.54,1c-1-1.68-1.86-3.12-2.76-4.5ZM15.12,8.34v4.08h9V8.34Zm0,14.64h9v-4.2h-9ZM42.24,8.34h-9v4.08h9Zm0,14.64v-4.2h-9V23Z"/><path class="cls-1" d="M91.2,38.28,85.92,52l-4.56-1.68C65.1,44.22,61.8,30.72,61.8,12.3V7.5h9.72v4.8c0,19.14,4.08,25.08,11.4,28.32l1.86-4.68Zm24.48-1.92H105.9V31.62c0-6.84-2-11.4-5.7-14.1l-1.74,4L92.22,18.9,98,5.82,102.9,8c5.88,2.76,12.78,9.36,12.78,23.58Z"/><path class="cls-1" d="M126.36,25.86V4.74h8.94v13.5H144V0h9.36V18.24h8.7V4.74H171V25.86H153.36V42.3h11V29.7h9.12V53.28H164.4V50.16H133v3.12h-9.12V29.7H133V42.3h11V25.86Z"/></g></g></svg>